<svg xmlns="http://www.w3.org/2000/svg" width="19.055" height="291.785" viewBox="0 0 19.055 291.785">
  <path id="パス_8360" data-name="パス 8360" d="M12.211.094A8.826,8.826,0,0,1,9.434.48,7.946,7.946,0,0,1,3.855-1.535Q1.184-3.961,1.184-8.66q0-4.734,2.742-7.16A8.094,8.094,0,0,1,9.492-17.8a7.983,7.983,0,0,1,5.625,2.1,8.779,8.779,0,0,1,2.625,6.785,11.491,11.491,0,0,1-.562,3.867,6.443,6.443,0,0,1-1.348,2.473L17.824-.715,15.938,1.254,13.852-.715A8.693,8.693,0,0,1,12.211.094Zm-.773-3.117L9.691-4.687l1.863-1.945L13.3-4.969a8.16,8.16,0,0,0,.574-1.477,8.5,8.5,0,0,0,.258-2.215,7.377,7.377,0,0,0-1.189-4.494,4.072,4.072,0,0,0-3.475-1.588,4.238,4.238,0,0,0-3.422,1.523A6.958,6.958,0,0,0,4.77-8.66q0,3.551,1.828,5.086a4.26,4.26,0,0,0,2.836,1,4.642,4.642,0,0,0,1.2-.152A5.95,5.95,0,0,0,11.438-3.023ZM30.715-6.656V-17.273h3.668V-6.656a8.893,8.893,0,0,1-.855,4.289Q31.934.445,27.445.445T21.352-2.367A8.893,8.893,0,0,1,20.5-6.656V-17.273h3.668V-6.656a6,6,0,0,0,.422,2.6Q25.242-2.6,27.445-2.6t2.848-1.453A6,6,0,0,0,30.715-6.656Zm19.137-.891H41.461v4.441h9.563V0H37.934V-17.273H50.6v3.059H41.461v3.668h8.391ZM60.105-2.5a6.356,6.356,0,0,0,2.074-.281,2,2,0,0,0,1.512-2,1.479,1.479,0,0,0-.75-1.324,8.065,8.065,0,0,0-2.355-.809l-1.828-.41a11.552,11.552,0,0,1-3.727-1.324,4.212,4.212,0,0,1-1.746-3.738,4.992,4.992,0,0,1,1.688-3.855,7.135,7.135,0,0,1,4.957-1.535,7.537,7.537,0,0,1,4.658,1.447,5.167,5.167,0,0,1,2.021,4.2H63.141a2.478,2.478,0,0,0-1.359-2.215,4.559,4.559,0,0,0-2.1-.434,3.916,3.916,0,0,0-2.227.563,1.791,1.791,0,0,0-.832,1.57,1.486,1.486,0,0,0,.82,1.383,10.041,10.041,0,0,0,2.25.715l2.977.715a7.7,7.7,0,0,1,2.953,1.254,4.223,4.223,0,0,1,1.547,3.527,4.978,4.978,0,0,1-1.811,3.932A7.586,7.586,0,0,1,60.246.445,8.3,8.3,0,0,1,54.938-1.1,5.121,5.121,0,0,1,53-5.332h3.445a3.547,3.547,0,0,0,.645,1.77A3.709,3.709,0,0,0,60.105-2.5ZM82.395-17.273v3.059H77.227V0H73.594V-14.215H68.4v-3.059Zm1.828,0h3.586V0H84.223ZM98.813.48a7.532,7.532,0,0,1-5.66-2.016Q90.527-4.008,90.527-8.66q0-4.746,2.625-7.125a7.532,7.532,0,0,1,5.66-2.016,7.532,7.532,0,0,1,5.66,2.016q2.613,2.379,2.613,7.125,0,4.652-2.613,7.125A7.532,7.532,0,0,1,98.813.48Zm3.41-4.641a7.093,7.093,0,0,0,1.254-4.5,7.074,7.074,0,0,0-1.26-4.494,4.117,4.117,0,0,0-3.4-1.588,4.172,4.172,0,0,0-3.422,1.582,7,7,0,0,0-1.277,4.5,7,7,0,0,0,1.277,4.5,4.172,4.172,0,0,0,3.422,1.582A4.139,4.139,0,0,0,102.223-4.16ZM123.809,0H120.2l-7.055-12.27V0h-3.363V-17.273h3.785l6.879,12.059V-17.273h3.363Zm9.633-2.5a6.356,6.356,0,0,0,2.074-.281,2,2,0,0,0,1.512-2,1.479,1.479,0,0,0-.75-1.324,8.065,8.065,0,0,0-2.355-.809l-1.828-.41a11.552,11.552,0,0,1-3.727-1.324,4.212,4.212,0,0,1-1.746-3.738,4.992,4.992,0,0,1,1.688-3.855,7.135,7.135,0,0,1,4.957-1.535,7.537,7.537,0,0,1,4.658,1.447,5.167,5.167,0,0,1,2.021,4.2h-3.469a2.478,2.478,0,0,0-1.359-2.215,4.559,4.559,0,0,0-2.1-.434,3.916,3.916,0,0,0-2.227.563,1.791,1.791,0,0,0-.832,1.57,1.486,1.486,0,0,0,.82,1.383,10.041,10.041,0,0,0,2.25.715l2.977.715a7.7,7.7,0,0,1,2.953,1.254,4.223,4.223,0,0,1,1.547,3.527A4.978,4.978,0,0,1,138.7-1.119,7.586,7.586,0,0,1,133.582.445,8.3,8.3,0,0,1,128.273-1.1a5.121,5.121,0,0,1-1.934-4.236h3.445a3.547,3.547,0,0,0,.645,1.77A3.709,3.709,0,0,0,133.441-2.5ZM154.9.422a5.4,5.4,0,0,1-4.1-1.547,4.866,4.866,0,0,1-1.477-3.434,4.565,4.565,0,0,1,.773-2.672,8.466,8.466,0,0,1,2.531-2.2l.363-.223a7.18,7.18,0,0,1-1.16-1.723,4.275,4.275,0,0,1-.41-1.828,3.636,3.636,0,0,1,1.266-2.947,4.936,4.936,0,0,1,3.281-1.061,4.367,4.367,0,0,1,3.041,1.084,3.566,3.566,0,0,1,1.2,2.771,3.98,3.98,0,0,1-.721,2.473,7.045,7.045,0,0,1-2.115,1.758l2.449,3.023a4.973,4.973,0,0,0,.65-1.324,5.188,5.188,0,0,0,.24-1.512h2.965a9.168,9.168,0,0,1-.75,3.176,9,9,0,0,1-1.219,1.992L164.848,0h-4.055l-1.2-1.465a7.479,7.479,0,0,1-1.617,1.2A6.612,6.612,0,0,1,154.9.422Zm-.187-7.945a5.8,5.8,0,0,0-1.658,1.465,2.538,2.538,0,0,0-.4,1.395,2.209,2.209,0,0,0,.7,1.57,2.388,2.388,0,0,0,1.787.715,3.319,3.319,0,0,0,1.553-.381,4.626,4.626,0,0,0,1.189-.85Zm-.223-5.8a1.844,1.844,0,0,0,.328.984,14.628,14.628,0,0,0,.914,1.207,6.139,6.139,0,0,0,1.008-.832,1.985,1.985,0,0,0,.586-1.371,1.46,1.46,0,0,0-.352-.961,1.309,1.309,0,0,0-1.066-.422,1.522,1.522,0,0,0-.832.246A1.252,1.252,0,0,0,154.488-13.324Zm28.594,9.773h-6.363L175.523,0H171.75l6.164-17.273h4.078L188.109,0H184.2Zm-1.008-2.977-2.156-6.8-2.227,6.8ZM204.27,0H200.66l-7.055-12.27V0h-3.363V-17.273h3.785l6.879,12.059V-17.273h3.363ZM213.9-2.5a6.356,6.356,0,0,0,2.074-.281,2,2,0,0,0,1.512-2,1.479,1.479,0,0,0-.75-1.324,8.065,8.065,0,0,0-2.355-.809l-1.828-.41a11.552,11.552,0,0,1-3.727-1.324,4.212,4.212,0,0,1-1.746-3.738,4.992,4.992,0,0,1,1.688-3.855,7.135,7.135,0,0,1,4.957-1.535,7.537,7.537,0,0,1,4.658,1.447,5.167,5.167,0,0,1,2.021,4.2h-3.469a2.478,2.478,0,0,0-1.359-2.215,4.559,4.559,0,0,0-2.1-.434,3.916,3.916,0,0,0-2.227.563,1.791,1.791,0,0,0-.832,1.57,1.486,1.486,0,0,0,.82,1.383,10.041,10.041,0,0,0,2.25.715l2.977.715a7.7,7.7,0,0,1,2.953,1.254,4.223,4.223,0,0,1,1.547,3.527,4.978,4.978,0,0,1-1.811,3.932A7.586,7.586,0,0,1,214.043.445,8.3,8.3,0,0,1,208.734-1.1,5.121,5.121,0,0,1,206.8-5.332h3.445a3.547,3.547,0,0,0,.645,1.77A3.709,3.709,0,0,0,213.9-2.5Zm26.543-14.777h3.668L239.25,0H235.8l-2.086-10.1-.609-3.34L232.5-10.1,230.414,0h-3.352l-4.9-17.273H226l2.285,9.891.492,2.754.5-2.7,1.945-9.949h3.809l2.051,9.891.527,2.754.527-2.648Zm17.871,9.727h-8.391v4.441h9.563V0H246.4V-17.273h12.668v3.059h-9.141v3.668h8.391Zm11.32.773H265.91V0h-3.527V-17.273h8.473a7.893,7.893,0,0,1,2.795.445,4.366,4.366,0,0,1,1.658,1.207,5.348,5.348,0,0,1,.891,1.453,4.736,4.736,0,0,1,.328,1.816,5.175,5.175,0,0,1-.621,2.42,3.471,3.471,0,0,1-2.051,1.682,3.225,3.225,0,0,1,1.693,1.365,5.683,5.683,0,0,1,.5,2.7v1.16a8.874,8.874,0,0,0,.094,1.605,1.442,1.442,0,0,0,.656.984V0h-3.973q-.164-.574-.234-.926a8.506,8.506,0,0,1-.152-1.488l-.023-1.605a3.137,3.137,0,0,0-.6-2.2A3.2,3.2,0,0,0,269.637-6.773Zm2.191-3.141a1.924,1.924,0,0,0,1.078-1.945,2.147,2.147,0,0,0-1.043-2.109,3.942,3.942,0,0,0-1.758-.3h-4.2v4.641H270A4.558,4.558,0,0,0,271.828-9.914ZM285.9-2.5a6.356,6.356,0,0,0,2.074-.281,2,2,0,0,0,1.512-2,1.479,1.479,0,0,0-.75-1.324,8.065,8.065,0,0,0-2.355-.809l-1.828-.41a11.552,11.552,0,0,1-3.727-1.324,4.212,4.212,0,0,1-1.746-3.738,4.992,4.992,0,0,1,1.688-3.855,7.135,7.135,0,0,1,4.957-1.535,7.537,7.537,0,0,1,4.658,1.447,5.167,5.167,0,0,1,2.021,4.2h-3.469a2.478,2.478,0,0,0-1.359-2.215,4.559,4.559,0,0,0-2.1-.434,3.916,3.916,0,0,0-2.227.563,1.791,1.791,0,0,0-.832,1.57,1.486,1.486,0,0,0,.82,1.383,10.041,10.041,0,0,0,2.25.715l2.977.715a7.7,7.7,0,0,1,2.953,1.254,4.223,4.223,0,0,1,1.547,3.527,4.978,4.978,0,0,1-1.811,3.932A7.586,7.586,0,0,1,286.043.445,8.3,8.3,0,0,1,280.734-1.1,5.121,5.121,0,0,1,278.8-5.332h3.445a3.547,3.547,0,0,0,.645,1.77A3.709,3.709,0,0,0,285.9-2.5Z" transform="translate(1.254 -1.184) rotate(90)" fill="#222"/>
</svg>
