<svg xmlns="http://www.w3.org/2000/svg" width="48.911" height="45.655" viewBox="0 0 48.911 45.655">
  <g id="グループ_621" data-name="グループ 621" transform="translate(-0.454 -41.583)">
    <path id="パス_7540" data-name="パス 7540" d="M-11.792.738q-5.681,0-7.967-3.979t-2.287-11.341q0-7.362,2.287-11.361t7.967-4q5.681,0,7.978,4,2.276,4,2.276,11.361T-3.825-3.24Q-6.111.738-11.792.738Zm3.425-7.485a29.258,29.258,0,0,0,.8-7.834,28.7,28.7,0,0,0-.81-7.957,3.309,3.309,0,0,0-3.415-2.584,3.357,3.357,0,0,0-3.445,2.584,27.7,27.7,0,0,0-.841,7.957,28.01,28.01,0,0,0,.841,7.844A3.385,3.385,0,0,0-11.792-4.02,3.356,3.356,0,0,0-8.367-6.747ZM14.6-23.687a3.684,3.684,0,0,0-2.994-1.251,3.652,3.652,0,0,0-3.63,1.989,9.866,9.866,0,0,0-.656,3.65H1.641A14.366,14.366,0,0,1,3.015-25.43q2.338-4.45,8.306-4.45a10.532,10.532,0,0,1,7.506,2.615,9.041,9.041,0,0,1,2.789,6.921,9.37,9.37,0,0,1-1.969,5.865A19.614,19.614,0,0,1,15.4-10.685L13.063-9.023q-2.194,1.559-3,2.256A6.611,6.611,0,0,0,8.7-5.147H21.677V0H1.313A13.973,13.973,0,0,1,2.687-5.845q1.251-2.974,5.906-6.3a43.313,43.313,0,0,0,5.229-4.143,6.122,6.122,0,0,0,1.825-4.266A4.726,4.726,0,0,0,14.6-23.687Z" transform="translate(23 86)" fill="none" stroke="#222" stroke-width="1"/>
    <path id="パス_7539" data-name="パス 7539" d="M-21.182-2.588H-22.71V0H-24.2V-7.2h3.135a2.553,2.553,0,0,1,1.729.557A2.157,2.157,0,0,1-18.7-4.917a2.209,2.209,0,0,1-.645,1.8A2.838,2.838,0,0,1-21.182-2.588Zm.7-1.5a1.041,1.041,0,0,0,.293-.82.974.974,0,0,0-.3-.8,1.282,1.282,0,0,0-.828-.239h-1.4v2.119h1.4A1.225,1.225,0,0,0-20.479-4.087Zm5.967,1.265h-1.553V0h-1.47V-7.2H-14a3.289,3.289,0,0,1,1.165.186,1.819,1.819,0,0,1,.691.5,2.228,2.228,0,0,1,.371.605,1.973,1.973,0,0,1,.137.757A2.156,2.156,0,0,1-11.9-4.138a1.446,1.446,0,0,1-.854.7,1.344,1.344,0,0,1,.706.569,2.368,2.368,0,0,1,.208,1.125v.483a3.7,3.7,0,0,0,.039.669.6.6,0,0,0,.273.41V0h-1.655q-.068-.239-.1-.386a3.544,3.544,0,0,1-.063-.62l-.01-.669a1.307,1.307,0,0,0-.251-.918A1.334,1.334,0,0,0-14.512-2.822Zm.913-1.309a.8.8,0,0,0,.449-.811.9.9,0,0,0-.435-.879,1.642,1.642,0,0,0-.732-.127h-1.748v1.934h1.7A1.9,1.9,0,0,0-13.6-4.131ZM-7.163.2A3.138,3.138,0,0,1-9.521-.64a3.883,3.883,0,0,1-1.094-2.969A3.806,3.806,0,0,1-9.521-6.577a3.138,3.138,0,0,1,2.358-.84,3.138,3.138,0,0,1,2.358.84A3.816,3.816,0,0,1-3.716-3.608,3.892,3.892,0,0,1-4.8-.64,3.138,3.138,0,0,1-7.163.2Zm1.421-1.934A2.955,2.955,0,0,0-5.22-3.608a2.947,2.947,0,0,0-.525-1.873,1.715,1.715,0,0,0-1.418-.662,1.738,1.738,0,0,0-1.426.659,2.917,2.917,0,0,0-.532,1.875,2.917,2.917,0,0,0,.532,1.875,1.738,1.738,0,0,0,1.426.659A1.725,1.725,0,0,0-5.742-1.733ZM.718,0H-2.544V-7.2h3.5a2.224,2.224,0,0,1,1.875.767,1.824,1.824,0,0,1,.332,1.1,1.607,1.607,0,0,1-.332,1.06,1.714,1.714,0,0,1-.547.41,1.6,1.6,0,0,1,.833.635,1.9,1.9,0,0,1,.281,1.055,2.1,2.1,0,0,1-.322,1.147,1.989,1.989,0,0,1-.513.566A2,2,0,0,1,1.741-.1,5.042,5.042,0,0,1,.718,0ZM.684-3.169H-1.108V-1.25H.659A1.735,1.735,0,0,0,1.4-1.377a.9.9,0,0,0,.479-.9.772.772,0,0,0-.464-.771A1.858,1.858,0,0,0,.684-3.169Zm.747-1.372a.673.673,0,0,0,.293-.63.644.644,0,0,0-.391-.664,2.765,2.765,0,0,0-.859-.112H-1.108V-4.36H.659A1.471,1.471,0,0,0,1.431-4.541ZM4.653-7.2h1.5v5.9H9.722V0H4.653ZM15.771-3.145h-3.5v1.851H16.26V0H10.806V-7.2h5.278v1.274H12.275v1.528h3.5ZM18.809,0h-1.4V-7.2h2.188L20.9-1.538,22.2-7.2h2.163V0h-1.4V-4.868q0-.21,0-.588t0-.583L21.611,0h-1.46L18.8-6.04q0,.205,0,.583t0,.588Z" transform="translate(25 49)" fill="#222"/>
  </g>
</svg>
