<svg xmlns="http://www.w3.org/2000/svg" width="80.965" height="20.365" viewBox="0 0 80.965 20.365">
  <g id="グループ_292" data-name="グループ 292" transform="translate(-379.035 -2789.63)">
    <path id="パス_7541" data-name="パス 7541" d="M3.855.246A2.8,2.8,0,0,1,1.2-1.08,7.672,7.672,0,0,1,.438-4.86,7.713,7.713,0,0,1,1.2-8.647,2.8,2.8,0,0,1,3.855-9.98,2.808,2.808,0,0,1,6.515-8.647,7.743,7.743,0,0,1,7.273-4.86a7.672,7.672,0,0,1-.762,3.78A2.8,2.8,0,0,1,3.855.246ZM5-2.249A9.753,9.753,0,0,0,5.264-4.86a9.566,9.566,0,0,0-.27-2.652,1.1,1.1,0,0,0-1.138-.861,1.119,1.119,0,0,0-1.148.861,9.233,9.233,0,0,0-.28,2.652,9.337,9.337,0,0,0,.28,2.615,1.128,1.128,0,0,0,1.148.906A1.119,1.119,0,0,0,5-2.249ZM12.653-7.9a1.228,1.228,0,0,0-1-.417,1.217,1.217,0,0,0-1.21.663,3.289,3.289,0,0,0-.219,1.217H8.333a4.789,4.789,0,0,1,.458-2.044A2.853,2.853,0,0,1,11.56-9.96a3.511,3.511,0,0,1,2.5.872,3.014,3.014,0,0,1,.93,2.307,3.123,3.123,0,0,1-.656,1.955A6.538,6.538,0,0,1,12.92-3.562l-.779.554q-.731.52-1,.752a2.2,2.2,0,0,0-.455.54h4.327V0H8.224a4.658,4.658,0,0,1,.458-1.948,5.508,5.508,0,0,1,1.969-2.1,14.438,14.438,0,0,0,1.743-1.381A2.041,2.041,0,0,0,13-6.85,1.575,1.575,0,0,0,12.653-7.9ZM25.915-2.071H22.2L21.506,0H19.3l3.6-10.076h2.379L28.848,0H26.564Zm-.588-1.736L24.069-7.772l-1.3,3.965ZM38.274,0H36.169L32.054-7.157V0H30.092V-10.076H32.3l4.013,7.034v-7.034h1.962Zm5.619-1.456A3.708,3.708,0,0,0,45.1-1.62a1.169,1.169,0,0,0,.882-1.169.863.863,0,0,0-.437-.772,4.7,4.7,0,0,0-1.374-.472l-1.066-.239a6.739,6.739,0,0,1-2.174-.772,2.457,2.457,0,0,1-1.019-2.181A2.912,2.912,0,0,1,40.9-9.475a4.162,4.162,0,0,1,2.892-.9,4.4,4.4,0,0,1,2.717.844,3.014,3.014,0,0,1,1.179,2.451H45.664a1.445,1.445,0,0,0-.793-1.292,2.659,2.659,0,0,0-1.224-.253,2.285,2.285,0,0,0-1.3.328,1.045,1.045,0,0,0-.485.916.867.867,0,0,0,.479.807,5.857,5.857,0,0,0,1.313.417l1.736.417A4.489,4.489,0,0,1,47.113-5a2.464,2.464,0,0,1,.9,2.058A2.9,2.9,0,0,1,46.959-.653,4.425,4.425,0,0,1,43.976.26a4.84,4.84,0,0,1-3.1-.9A2.987,2.987,0,0,1,39.751-3.11h2.01a2.069,2.069,0,0,0,.376,1.032A2.163,2.163,0,0,0,43.894-1.456Zm15.483-8.62h2.14L58.68,0H56.67L55.453-5.893,55.1-7.841l-.355,1.948L53.525,0H51.57L48.713-10.076h2.235l1.333,5.77L52.568-2.7l.294-1.572L54-10.076h2.222l1.2,5.77L57.723-2.7l.308-1.545ZM69.8-4.4H64.907v2.591h5.578V0H62.85V-10.076h7.39v1.784H64.907v2.14H69.8Zm6.6.451H74.231V0H72.174V-10.076h4.942a4.6,4.6,0,0,1,1.63.26,2.547,2.547,0,0,1,.967.7,3.12,3.12,0,0,1,.52.848,2.763,2.763,0,0,1,.191,1.06,3.019,3.019,0,0,1-.362,1.412,2.025,2.025,0,0,1-1.2.981,1.881,1.881,0,0,1,.988.8,3.315,3.315,0,0,1,.291,1.576v.677a5.176,5.176,0,0,0,.055.937.841.841,0,0,0,.383.574V0H78.265q-.1-.335-.137-.54a4.961,4.961,0,0,1-.089-.868l-.014-.937a1.83,1.83,0,0,0-.352-1.285A1.868,1.868,0,0,0,76.405-3.951Zm1.278-1.832a1.123,1.123,0,0,0,.629-1.135,1.252,1.252,0,0,0-.608-1.23,2.3,2.3,0,0,0-1.025-.178H74.231v2.707h2.386A2.659,2.659,0,0,0,77.684-5.783Z" transform="translate(379 2800)" fill="#222"/>
    <path id="パス_2783" data-name="パス 2783" d="M-1.174.048s60.72-.011,80.965,0" transform="translate(380.209 2809.446)" fill="none" stroke="#222" stroke-width="1"/>
  </g>
</svg>
