<svg xmlns="http://www.w3.org/2000/svg" width="42.569" height="31.339" viewBox="0 0 42.569 31.339">
  <g id="_01" data-name="01" transform="translate(20.204 -43.583)">
    <path id="パス_8353" data-name="パス 8353" d="M-6.738.422q-3.246,0-4.553-2.273A13.153,13.153,0,0,1-12.6-8.332a13.223,13.223,0,0,1,1.307-6.492,4.8,4.8,0,0,1,4.553-2.285A4.814,4.814,0,0,1-2.18-14.824a13.273,13.273,0,0,1,1.3,6.492,13.153,13.153,0,0,1-1.307,6.48Q-3.492.422-6.738.422Zm1.957-4.277a16.719,16.719,0,0,0,.457-4.477,16.4,16.4,0,0,0-.463-4.547,1.891,1.891,0,0,0-1.951-1.477,1.918,1.918,0,0,0-1.969,1.477,15.827,15.827,0,0,0-.48,4.547,16.006,16.006,0,0,0,.48,4.482A1.934,1.934,0,0,0-6.738-2.3,1.918,1.918,0,0,0-4.781-3.855Zm9.375-9.75a3.158,3.158,0,0,0-.539,2H.938A8.382,8.382,0,0,1,1.371-14a5.407,5.407,0,0,1,1.289-1.84,4.491,4.491,0,0,1,1.559-.914,6.745,6.745,0,0,1,2.215-.316,5.894,5.894,0,0,1,3.932,1.26,4.2,4.2,0,0,1,1.494,3.381A3.738,3.738,0,0,1,10.969-9.9,3.041,3.041,0,0,1,9.8-9.023a2.41,2.41,0,0,1,1.313.785A4.193,4.193,0,0,1,12.387-5a5.448,5.448,0,0,1-1.494,3.791A5.7,5.7,0,0,1,6.469.422q-3.609,0-5.016-2.355a6.991,6.991,0,0,1-.82-3.281H3.914a3.82,3.82,0,0,0,.328,1.688A2.248,2.248,0,0,0,6.457-2.3a2.454,2.454,0,0,0,1.717-.674A2.5,2.5,0,0,0,8.906-4.91,2.185,2.185,0,0,0,7.547-7.148a6.9,6.9,0,0,0-2.437-.316V-9.855a6.324,6.324,0,0,0,2.273-.316A1.954,1.954,0,0,0,8.5-12.164a2.227,2.227,0,0,0-.568-1.582,2.08,2.08,0,0,0-1.6-.609A2.008,2.008,0,0,0,4.594-13.605Z" transform="translate(-1 74)" fill="none" stroke="#222" stroke-width="1"/>
    <path id="パス_8352" data-name="パス 8352" d="M-18.182-2.588H-19.71V0H-21.2V-7.2h3.135a2.553,2.553,0,0,1,1.729.557A2.157,2.157,0,0,1-15.7-4.917a2.209,2.209,0,0,1-.645,1.8A2.838,2.838,0,0,1-18.182-2.588Zm.7-1.5a1.041,1.041,0,0,0,.293-.82.974.974,0,0,0-.3-.8,1.282,1.282,0,0,0-.828-.239h-1.4v2.119h1.4A1.225,1.225,0,0,0-17.479-4.087Zm4.967,1.265h-1.553V0h-1.47V-7.2H-12a3.289,3.289,0,0,1,1.165.186,1.819,1.819,0,0,1,.691.5,2.228,2.228,0,0,1,.371.605,1.973,1.973,0,0,1,.137.757A2.156,2.156,0,0,1-9.9-4.138a1.446,1.446,0,0,1-.854.7,1.344,1.344,0,0,1,.706.569,2.368,2.368,0,0,1,.208,1.125v.483A3.7,3.7,0,0,0-9.8-.591a.6.6,0,0,0,.273.41V0h-1.655q-.068-.239-.1-.386a3.544,3.544,0,0,1-.063-.62l-.01-.669a1.307,1.307,0,0,0-.251-.918A1.334,1.334,0,0,0-12.512-2.822Zm.913-1.309a.8.8,0,0,0,.449-.811.9.9,0,0,0-.435-.879,1.642,1.642,0,0,0-.732-.127h-1.748v1.934h1.7A1.9,1.9,0,0,0-11.6-4.131ZM-6.163.2A3.138,3.138,0,0,1-8.521-.64,3.883,3.883,0,0,1-9.615-3.608,3.806,3.806,0,0,1-8.521-6.577a3.138,3.138,0,0,1,2.358-.84,3.138,3.138,0,0,1,2.358.84A3.816,3.816,0,0,1-2.716-3.608,3.892,3.892,0,0,1-3.8-.64,3.138,3.138,0,0,1-6.163.2Zm1.421-1.934A2.955,2.955,0,0,0-4.22-3.608a2.947,2.947,0,0,0-.525-1.873,1.715,1.715,0,0,0-1.418-.662,1.738,1.738,0,0,0-1.426.659,2.917,2.917,0,0,0-.532,1.875,2.917,2.917,0,0,0,.532,1.875,1.738,1.738,0,0,0,1.426.659A1.725,1.725,0,0,0-4.742-1.733ZM.718,0H-2.544V-7.2h3.5a2.224,2.224,0,0,1,1.875.767,1.824,1.824,0,0,1,.332,1.1,1.607,1.607,0,0,1-.332,1.06,1.714,1.714,0,0,1-.547.41,1.6,1.6,0,0,1,.833.635,1.9,1.9,0,0,1,.281,1.055,2.1,2.1,0,0,1-.322,1.147,1.989,1.989,0,0,1-.513.566A2,2,0,0,1,1.741-.1,5.042,5.042,0,0,1,.718,0ZM.684-3.169H-1.108V-1.25H.659A1.735,1.735,0,0,0,1.4-1.377a.9.9,0,0,0,.479-.9.772.772,0,0,0-.464-.771A1.858,1.858,0,0,0,.684-3.169Zm.747-1.372a.673.673,0,0,0,.293-.63.644.644,0,0,0-.391-.664,2.765,2.765,0,0,0-.859-.112H-1.108V-4.36H.659A1.471,1.471,0,0,0,1.431-4.541ZM3.653-7.2h1.5v5.9H8.722V0H3.653ZM13.771-3.145h-3.5v1.851H14.26V0H8.806V-7.2h5.278v1.274H10.275v1.528h3.5ZM15.809,0h-1.4V-7.2h2.188L17.9-1.538,19.2-7.2h2.163V0h-1.4V-4.868q0-.21,0-.588t0-.583L18.611,0h-1.46L15.8-6.04q0,.205,0,.583t0,.588Z" transform="translate(1 51)" fill="#222"/>
  </g>
</svg>
