<svg xmlns="http://www.w3.org/2000/svg" width="42.569" height="32.339" viewBox="0 0 42.569 32.339">
  <g id="_01" data-name="01" transform="translate(21.204 -43.583)">
    <path id="パス_8351" data-name="パス 8351" d="M-6.738.422q-3.246,0-4.553-2.273A13.153,13.153,0,0,1-12.6-8.332a13.223,13.223,0,0,1,1.307-6.492,4.8,4.8,0,0,1,4.553-2.285A4.814,4.814,0,0,1-2.18-14.824a13.273,13.273,0,0,1,1.3,6.492,13.153,13.153,0,0,1-1.307,6.48Q-3.492.422-6.738.422Zm1.957-4.277a16.719,16.719,0,0,0,.457-4.477,16.4,16.4,0,0,0-.463-4.547,1.891,1.891,0,0,0-1.951-1.477,1.918,1.918,0,0,0-1.969,1.477,15.827,15.827,0,0,0-.48,4.547,16.006,16.006,0,0,0,.48,4.482A1.934,1.934,0,0,0-6.738-2.3,1.918,1.918,0,0,0-4.781-3.855Zm13.125-9.68a2.1,2.1,0,0,0-1.711-.715,2.087,2.087,0,0,0-2.074,1.137,5.638,5.638,0,0,0-.375,2.086H.938a8.209,8.209,0,0,1,.785-3.5,4.89,4.89,0,0,1,4.746-2.543,6.018,6.018,0,0,1,4.289,1.494,5.166,5.166,0,0,1,1.594,3.955,5.354,5.354,0,0,1-1.125,3.352A11.208,11.208,0,0,1,8.8-6.105l-1.336.949q-1.254.891-1.717,1.289a3.778,3.778,0,0,0-.779.926h7.418V0H.75a7.985,7.985,0,0,1,.785-3.34,9.442,9.442,0,0,1,3.375-3.6A24.75,24.75,0,0,0,7.9-9.3a3.5,3.5,0,0,0,1.043-2.437A2.7,2.7,0,0,0,8.344-13.535Z" transform="translate(-2 75)" fill="none" stroke="#222" stroke-width="1"/>
    <path id="パス_8350" data-name="パス 8350" d="M-18.182-2.588H-19.71V0H-21.2V-7.2h3.135a2.553,2.553,0,0,1,1.729.557A2.157,2.157,0,0,1-15.7-4.917a2.209,2.209,0,0,1-.645,1.8A2.838,2.838,0,0,1-18.182-2.588Zm.7-1.5a1.041,1.041,0,0,0,.293-.82.974.974,0,0,0-.3-.8,1.282,1.282,0,0,0-.828-.239h-1.4v2.119h1.4A1.225,1.225,0,0,0-17.479-4.087Zm4.967,1.265h-1.553V0h-1.47V-7.2H-12a3.289,3.289,0,0,1,1.165.186,1.819,1.819,0,0,1,.691.5,2.228,2.228,0,0,1,.371.605,1.973,1.973,0,0,1,.137.757A2.156,2.156,0,0,1-9.9-4.138a1.446,1.446,0,0,1-.854.7,1.344,1.344,0,0,1,.706.569,2.368,2.368,0,0,1,.208,1.125v.483A3.7,3.7,0,0,0-9.8-.591a.6.6,0,0,0,.273.41V0h-1.655q-.068-.239-.1-.386a3.544,3.544,0,0,1-.063-.62l-.01-.669a1.307,1.307,0,0,0-.251-.918A1.334,1.334,0,0,0-12.512-2.822Zm.913-1.309a.8.8,0,0,0,.449-.811.9.9,0,0,0-.435-.879,1.642,1.642,0,0,0-.732-.127h-1.748v1.934h1.7A1.9,1.9,0,0,0-11.6-4.131ZM-6.163.2A3.138,3.138,0,0,1-8.521-.64,3.883,3.883,0,0,1-9.615-3.608,3.806,3.806,0,0,1-8.521-6.577a3.138,3.138,0,0,1,2.358-.84,3.138,3.138,0,0,1,2.358.84A3.816,3.816,0,0,1-2.716-3.608,3.892,3.892,0,0,1-3.8-.64,3.138,3.138,0,0,1-6.163.2Zm1.421-1.934A2.955,2.955,0,0,0-4.22-3.608a2.947,2.947,0,0,0-.525-1.873,1.715,1.715,0,0,0-1.418-.662,1.738,1.738,0,0,0-1.426.659,2.917,2.917,0,0,0-.532,1.875,2.917,2.917,0,0,0,.532,1.875,1.738,1.738,0,0,0,1.426.659A1.725,1.725,0,0,0-4.742-1.733ZM.718,0H-2.544V-7.2h3.5a2.224,2.224,0,0,1,1.875.767,1.824,1.824,0,0,1,.332,1.1,1.607,1.607,0,0,1-.332,1.06,1.714,1.714,0,0,1-.547.41,1.6,1.6,0,0,1,.833.635,1.9,1.9,0,0,1,.281,1.055,2.1,2.1,0,0,1-.322,1.147,1.989,1.989,0,0,1-.513.566A2,2,0,0,1,1.741-.1,5.042,5.042,0,0,1,.718,0ZM.684-3.169H-1.108V-1.25H.659A1.735,1.735,0,0,0,1.4-1.377a.9.9,0,0,0,.479-.9.772.772,0,0,0-.464-.771A1.858,1.858,0,0,0,.684-3.169Zm.747-1.372a.673.673,0,0,0,.293-.63.644.644,0,0,0-.391-.664,2.765,2.765,0,0,0-.859-.112H-1.108V-4.36H.659A1.471,1.471,0,0,0,1.431-4.541ZM3.653-7.2h1.5v5.9H8.722V0H3.653ZM13.771-3.145h-3.5v1.851H14.26V0H8.806V-7.2h5.278v1.274H10.275v1.528h3.5ZM15.809,0h-1.4V-7.2h2.188L17.9-1.538,19.2-7.2h2.163V0h-1.4V-4.868q0-.21,0-.588t0-.583L18.611,0h-1.46L15.8-6.04q0,.205,0,.583t0,.588Z" transform="translate(0 51)" fill="#222"/>
  </g>
</svg>
