<svg xmlns="http://www.w3.org/2000/svg" xmlns:xlink="http://www.w3.org/1999/xlink" width="50" height="50" viewBox="0 0 50 50">
  <defs>
    <clipPath id="clip-path">
      <rect id="長方形_7540" data-name="長方形 7540" width="50" height="50" fill="none"/>
    </clipPath>
  </defs>
  <g id="グループ_281" data-name="グループ 281" transform="translate(3.354 4.196)">
    <g id="グループ_318" data-name="グループ 318" transform="translate(-1 -17)">
      <path id="パス_7547" data-name="パス 7547" d="M-5.054.316A3.606,3.606,0,0,1-8.468-1.389a9.864,9.864,0,0,1-.98-4.86,9.917,9.917,0,0,1,.98-4.869,3.6,3.6,0,0,1,3.415-1.714,3.611,3.611,0,0,1,3.419,1.714A9.955,9.955,0,0,1-.659-6.249a9.864,9.864,0,0,1-.98,4.86A3.606,3.606,0,0,1-5.054.316Zm1.468-3.208a12.539,12.539,0,0,0,.343-3.357,12.3,12.3,0,0,0-.347-3.41,1.418,1.418,0,0,0-1.463-1.107A1.439,1.439,0,0,0-6.53-9.659a11.871,11.871,0,0,0-.36,3.41,12,12,0,0,0,.36,3.362A1.451,1.451,0,0,0-5.054-1.723,1.438,1.438,0,0,0-3.586-2.892ZM3.445-10.2a2.369,2.369,0,0,0-.4,1.5H.7a6.286,6.286,0,0,1,.325-1.8A4.056,4.056,0,0,1,2-11.883a3.368,3.368,0,0,1,1.169-.686,5.059,5.059,0,0,1,1.661-.237,4.421,4.421,0,0,1,2.949.945A3.147,3.147,0,0,1,8.895-9.325a2.8,2.8,0,0,1-.668,1.9,2.281,2.281,0,0,1-.879.659,1.808,1.808,0,0,1,.984.589A3.145,3.145,0,0,1,9.29-3.753,4.086,4.086,0,0,1,8.169-.91,4.272,4.272,0,0,1,4.852.316,4.014,4.014,0,0,1,1.09-1.45,5.243,5.243,0,0,1,.475-3.911H2.936a2.865,2.865,0,0,0,.246,1.266,1.686,1.686,0,0,0,1.661.923A1.841,1.841,0,0,0,6.13-2.228,1.878,1.878,0,0,0,6.68-3.683,1.639,1.639,0,0,0,5.66-5.361,5.175,5.175,0,0,0,3.832-5.6V-7.392a4.743,4.743,0,0,0,1.705-.237,1.466,1.466,0,0,0,.835-1.494,1.67,1.67,0,0,0-.426-1.187,1.56,1.56,0,0,0-1.2-.457A1.506,1.506,0,0,0,3.445-10.2Z" transform="translate(22.646 49.806)" fill="#222"/>
      <path id="パス_7546" data-name="パス 7546" d="M-9.328-5.568a4.457,4.457,0,0,1,.04-.744H-10.36a4.327,4.327,0,0,1,.032.736l.008,3.712a5.951,5.951,0,0,0,.024.728A1.106,1.106,0,0,0-9.9-.32,3.187,3.187,0,0,0-8.04.024c.6,0,1.6-.048,2.24-.112.576-.056.632-.064.792-.064l-.048-1.064a5.414,5.414,0,0,1-.912.184A15.087,15.087,0,0,1-7.824-.9c-.776,0-1.232-.064-1.368-.208-.112-.1-.144-.288-.144-.752v-.112A.029.029,0,0,0-9.328-2V-3.032a12.287,12.287,0,0,0,1.584-.376,14.511,14.511,0,0,0,2.288-.944c.2-.1.216-.1.376-.176l-.64-.9a4.905,4.905,0,0,1-1.192.68,10.889,10.889,0,0,1-2.416.784Zm7.1.1a21.1,21.1,0,0,1,4.368.92l.32-.984A26.667,26.667,0,0,0-1.864-6.4Zm-.128,2.2A17.593,17.593,0,0,1-.328-2.92a13.751,13.751,0,0,1,2.2.64l.312-.984a25.139,25.139,0,0,0-4.168-.928ZM-3-1.024A22.258,22.258,0,0,1-.488-.56a14.677,14.677,0,0,1,2.832.9L2.688-.672A25.044,25.044,0,0,0-2.624-1.936ZM4.52-5.48A9.679,9.679,0,0,1,5.432-3.1l.984-.3a10.2,10.2,0,0,0-.968-2.352Zm2.1-.4a10.093,10.093,0,0,1,.9,2.32L8.5-3.872a10.25,10.25,0,0,0-.96-2.264Zm3.416-.08a6.306,6.306,0,0,1-.4,1.88,5.26,5.26,0,0,1-1.4,2.2A6.235,6.235,0,0,1,5.992-.488a3.064,3.064,0,0,1,.7.9,7.161,7.161,0,0,0,4.24-5.344,3.569,3.569,0,0,1,.2-.776Z" transform="translate(22.646 32.806)" fill="#222"/>
    </g>
    <g id="グループ_389" data-name="グループ 389" transform="translate(-3.354 -4.196)">
      <g id="グループ_386" data-name="グループ 386" clip-path="url(#clip-path)">
        <path id="パス_2810" data-name="パス 2810" d="M6.686,40.487a23.982,23.982,0,0,1,33.8-33.8l.708-.708A24.98,24.98,0,0,0,5.978,41.195Z" fill="#222"/>
        <path id="パス_2811" data-name="パス 2811" d="M43.36,8.055l-.707.707A23.985,23.985,0,0,1,8.762,42.653l-.707.707A24.984,24.984,0,0,0,43.36,8.055" fill="#222"/>
      </g>
    </g>
  </g>
</svg>
