<svg xmlns="http://www.w3.org/2000/svg" width="81" height="19.878" viewBox="0 0 81 19.878">
  <g id="グループ_294" data-name="グループ 294" transform="translate(-384.5 -2710.057)">
    <path id="パス_2780" data-name="パス 2780" d="M-1.174.05s60.746-.014,81-.006" transform="translate(385.674 2729.385)" fill="none" stroke="#222" stroke-width="1"/>
    <path id="パス_7536" data-name="パス 7536" d="M3.855.246A2.8,2.8,0,0,1,1.2-1.08,7.672,7.672,0,0,1,.438-4.86,7.713,7.713,0,0,1,1.2-8.647,2.8,2.8,0,0,1,3.855-9.98,2.808,2.808,0,0,1,6.515-8.647,7.743,7.743,0,0,1,7.273-4.86a7.672,7.672,0,0,1-.762,3.78A2.8,2.8,0,0,1,3.855.246ZM5-2.249A9.753,9.753,0,0,0,5.264-4.86a9.566,9.566,0,0,0-.27-2.652,1.1,1.1,0,0,0-1.138-.861,1.119,1.119,0,0,0-1.148.861,9.233,9.233,0,0,0-.28,2.652,9.337,9.337,0,0,0,.28,2.615,1.128,1.128,0,0,0,1.148.906A1.119,1.119,0,0,0,5-2.249Zm5.469-5.687a1.842,1.842,0,0,0-.314,1.169H8.333a4.889,4.889,0,0,1,.253-1.4,3.154,3.154,0,0,1,.752-1.073,2.62,2.62,0,0,1,.909-.533,3.935,3.935,0,0,1,1.292-.185,3.438,3.438,0,0,1,2.293.735A2.448,2.448,0,0,1,14.7-7.253a2.18,2.18,0,0,1-.52,1.477,1.774,1.774,0,0,1-.684.513,1.406,1.406,0,0,1,.766.458,2.446,2.446,0,0,1,.745,1.887A3.178,3.178,0,0,1,14.14-.708,3.322,3.322,0,0,1,11.56.246,3.122,3.122,0,0,1,8.634-1.128a4.078,4.078,0,0,1-.479-1.914h1.914a2.229,2.229,0,0,0,.191.984,1.312,1.312,0,0,0,1.292.718,1.432,1.432,0,0,0,1-.393,1.461,1.461,0,0,0,.427-1.131,1.275,1.275,0,0,0-.793-1.306,4.025,4.025,0,0,0-1.422-.185V-5.749a3.689,3.689,0,0,0,1.326-.185A1.14,1.14,0,0,0,12.742-7.1a1.3,1.3,0,0,0-.332-.923,1.213,1.213,0,0,0-.933-.355A1.171,1.171,0,0,0,10.466-7.937ZM25.915-2.071H22.2L21.506,0H19.3l3.6-10.076h2.379L28.848,0H26.564Zm-.588-1.736L24.069-7.772l-1.3,3.965ZM38.274,0H36.169L32.054-7.157V0H30.092V-10.076H32.3l4.013,7.034v-7.034h1.962Zm5.619-1.456A3.708,3.708,0,0,0,45.1-1.62a1.169,1.169,0,0,0,.882-1.169.863.863,0,0,0-.437-.772,4.7,4.7,0,0,0-1.374-.472l-1.066-.239a6.739,6.739,0,0,1-2.174-.772,2.457,2.457,0,0,1-1.019-2.181A2.912,2.912,0,0,1,40.9-9.475a4.162,4.162,0,0,1,2.892-.9,4.4,4.4,0,0,1,2.717.844,3.014,3.014,0,0,1,1.179,2.451H45.664a1.445,1.445,0,0,0-.793-1.292,2.659,2.659,0,0,0-1.224-.253,2.285,2.285,0,0,0-1.3.328,1.045,1.045,0,0,0-.485.916.867.867,0,0,0,.479.807,5.857,5.857,0,0,0,1.313.417l1.736.417A4.489,4.489,0,0,1,47.113-5a2.464,2.464,0,0,1,.9,2.058A2.9,2.9,0,0,1,46.959-.653,4.425,4.425,0,0,1,43.976.26a4.84,4.84,0,0,1-3.1-.9A2.987,2.987,0,0,1,39.751-3.11h2.01a2.069,2.069,0,0,0,.376,1.032A2.163,2.163,0,0,0,43.894-1.456Zm15.483-8.62h2.14L58.68,0H56.67L55.453-5.893,55.1-7.841l-.355,1.948L53.525,0H51.57L48.713-10.076h2.235l1.333,5.77L52.568-2.7l.294-1.572L54-10.076h2.222l1.2,5.77L57.723-2.7l.308-1.545ZM69.8-4.4H64.907v2.591h5.578V0H62.85V-10.076h7.39v1.784H64.907v2.14H69.8Zm6.6.451H74.231V0H72.174V-10.076h4.942a4.6,4.6,0,0,1,1.63.26,2.547,2.547,0,0,1,.967.7,3.12,3.12,0,0,1,.52.848,2.763,2.763,0,0,1,.191,1.06,3.019,3.019,0,0,1-.362,1.412,2.025,2.025,0,0,1-1.2.981,1.881,1.881,0,0,1,.988.8,3.315,3.315,0,0,1,.291,1.576v.677a5.176,5.176,0,0,0,.055.937.841.841,0,0,0,.383.574V0H78.265q-.1-.335-.137-.54a4.961,4.961,0,0,1-.089-.868l-.014-.937a1.83,1.83,0,0,0-.352-1.285A1.868,1.868,0,0,0,76.405-3.951Zm1.278-1.832a1.123,1.123,0,0,0,.629-1.135,1.252,1.252,0,0,0-.608-1.23,2.3,2.3,0,0,0-1.025-.178H74.231v2.707h2.386A2.659,2.659,0,0,0,77.684-5.783Z" transform="translate(384.5 2720.427)" fill="#222"/>
  </g>
</svg>
