<svg xmlns="http://www.w3.org/2000/svg" xmlns:xlink="http://www.w3.org/1999/xlink" width="50" height="50" viewBox="0 0 50 50">
  <defs>
    <clipPath id="clip-path">
      <rect id="長方形_7540" data-name="長方形 7540" width="50" height="50" fill="none"/>
    </clipPath>
  </defs>
  <g id="グループ_325" data-name="グループ 325" transform="translate(-102.083 -1015.17)">
    <g id="グループ_326" data-name="グループ 326">
      <g id="グループ_322" data-name="グループ 322" transform="translate(104.436 1002.365)">
        <path id="パス_7545" data-name="パス 7545" d="M-5.054.316A3.606,3.606,0,0,1-8.468-1.389a9.864,9.864,0,0,1-.98-4.86,9.917,9.917,0,0,1,.98-4.869,3.6,3.6,0,0,1,3.415-1.714,3.611,3.611,0,0,1,3.419,1.714A9.955,9.955,0,0,1-.659-6.249a9.864,9.864,0,0,1-.98,4.86A3.606,3.606,0,0,1-5.054.316Zm1.468-3.208a12.539,12.539,0,0,0,.343-3.357,12.3,12.3,0,0,0-.347-3.41,1.418,1.418,0,0,0-1.463-1.107A1.439,1.439,0,0,0-6.53-9.659a11.871,11.871,0,0,0-.36,3.41,12,12,0,0,0,.36,3.362A1.451,1.451,0,0,0-5.054-1.723,1.438,1.438,0,0,0-3.586-2.892Zm9.844-7.26a1.579,1.579,0,0,0-1.283-.536,1.565,1.565,0,0,0-1.556.853,4.228,4.228,0,0,0-.281,1.564H.7A6.157,6.157,0,0,1,1.292-10.9a3.668,3.668,0,0,1,3.56-1.907,4.514,4.514,0,0,1,3.217,1.121,3.875,3.875,0,0,1,1.2,2.966A4.016,4.016,0,0,1,8.42-6.205,8.406,8.406,0,0,1,6.6-4.579l-1,.712q-.94.668-1.288.967a2.833,2.833,0,0,0-.584.694H9.29V0H.563a5.988,5.988,0,0,1,.589-2.5A7.082,7.082,0,0,1,3.683-5.2,18.563,18.563,0,0,0,5.924-6.979a2.624,2.624,0,0,0,.782-1.828A2.025,2.025,0,0,0,6.258-10.151Z" transform="translate(22.646 49.806)" fill="#222"/>
        <path id="パス_7544" data-name="パス 7544" d="M-9.328-5.568a4.457,4.457,0,0,1,.04-.744H-10.36a4.327,4.327,0,0,1,.032.736l.008,3.712a5.951,5.951,0,0,0,.024.728A1.106,1.106,0,0,0-9.9-.32,3.187,3.187,0,0,0-8.04.024c.6,0,1.6-.048,2.24-.112.576-.056.632-.064.792-.064l-.048-1.064a5.414,5.414,0,0,1-.912.184A15.087,15.087,0,0,1-7.824-.9c-.776,0-1.232-.064-1.368-.208-.112-.1-.144-.288-.144-.752v-.112A.029.029,0,0,0-9.328-2V-3.032a12.287,12.287,0,0,0,1.584-.376,14.511,14.511,0,0,0,2.288-.944c.2-.1.216-.1.376-.176l-.64-.9a4.905,4.905,0,0,1-1.192.68,10.889,10.889,0,0,1-2.416.784Zm7.1.1a21.1,21.1,0,0,1,4.368.92l.32-.984A26.667,26.667,0,0,0-1.864-6.4Zm-.128,2.2A17.593,17.593,0,0,1-.328-2.92a13.751,13.751,0,0,1,2.2.64l.312-.984a25.139,25.139,0,0,0-4.168-.928ZM-3-1.024A22.258,22.258,0,0,1-.488-.56a14.677,14.677,0,0,1,2.832.9L2.688-.672A25.044,25.044,0,0,0-2.624-1.936ZM4.52-5.48A9.679,9.679,0,0,1,5.432-3.1l.984-.3a10.2,10.2,0,0,0-.968-2.352Zm2.1-.4a10.093,10.093,0,0,1,.9,2.32L8.5-3.872a10.25,10.25,0,0,0-.96-2.264Zm3.416-.08a6.306,6.306,0,0,1-.4,1.88,5.26,5.26,0,0,1-1.4,2.2A6.235,6.235,0,0,1,5.992-.488a3.064,3.064,0,0,1,.7.9,7.161,7.161,0,0,0,4.24-5.344,3.569,3.569,0,0,1,.2-.776Z" transform="translate(22.646 32.806)" fill="#222"/>
      </g>
    </g>
    <g id="グループ_388" data-name="グループ 388" transform="translate(102.083 1015.17)">
      <g id="グループ_386" data-name="グループ 386" clip-path="url(#clip-path)">
        <path id="パス_2810" data-name="パス 2810" d="M6.686,40.487a23.982,23.982,0,0,1,33.8-33.8l.708-.708A24.98,24.98,0,0,0,5.978,41.195Z" fill="#222"/>
        <path id="パス_2811" data-name="パス 2811" d="M43.36,8.055l-.707.707A23.985,23.985,0,0,1,8.762,42.653l-.707.707A24.984,24.984,0,0,0,43.36,8.055" fill="#222"/>
      </g>
    </g>
  </g>
</svg>
