<svg xmlns="http://www.w3.org/2000/svg" xmlns:xlink="http://www.w3.org/1999/xlink" width="340" height="144.914" viewBox="0 0 340 144.914">
  <defs>
    <clipPath id="clip-path">
      <rect id="長方形_7490" data-name="長方形 7490" width="335" height="116" transform="translate(-776 300.178)" fill="#fff" stroke="#707070" stroke-width="1"/>
    </clipPath>
    <clipPath id="clip-path-2">
      <rect id="長方形_7542" data-name="長方形 7542" width="82.885" height="74.101" fill="none"/>
    </clipPath>
    <clipPath id="clip-path-3">
      <rect id="長方形_7655" data-name="長方形 7655" width="133.393" height="25.864" transform="translate(0 0)" fill="none"/>
    </clipPath>
    <clipPath id="clip-path-4">
      <rect id="長方形_7623" data-name="長方形 7623" width="82.353" height="44.161" fill="none"/>
    </clipPath>
  </defs>
  <g id="h2" transform="translate(-20 -40)">
    <g id="マスクグループ_86" data-name="マスクグループ 86" transform="translate(796 -260.178)" clip-path="url(#clip-path)">
      <path id="_" data-name="////" d="M2015.446,0,1520.424,294.567Zm-7.072,0L1513.353,294.567ZM2001.3,0,1506.281,294.567Zm-7.072,0L1499.209,294.567Zm-7.072,0L1492.138,294.567Zm-7.071,0L1485.065,294.567Zm-7.072,0L1477.994,294.567Zm-7.071,0L1470.922,294.567Zm-7.071,0L1463.851,294.567ZM1951.8,0,1456.778,294.567Zm-7.071,0L1449.707,294.567Zm-7.072,0L1442.635,294.567Zm-7.072,0L1435.563,294.567Zm-7.072,0L1428.492,294.567Zm-7.071,0L1421.42,294.567Zm-7.072,0L1414.348,294.567ZM1902.3,0,1407.276,294.567Zm-7.072,0L1400.2,294.567Zm-7.071,0L1393.133,294.567Zm-7.073,0L1386.061,294.567Zm-7.071,0L1378.99,294.567Zm-7.072,0L1371.918,294.567Zm-7.071,0L1364.846,294.567ZM1852.8,0,1357.774,294.567Zm-7.071,0L1350.7,294.567Zm-7.072,0L1343.63,294.567Zm-7.072,0L1336.559,294.567Zm-7.072,0L1329.487,294.567Zm-7.071,0L1322.415,294.567Zm-7.072,0L1315.344,294.567Zm-7.071,0L1308.272,294.567Zm-7.071,0L1301.2,294.567Zm-7.072,0L1294.128,294.567Zm-7.072,0L1287.057,294.567Zm-7.072,0L1279.985,294.567Zm-7.072,0L1272.913,294.567Zm-7.072,0L1265.842,294.567Zm-7.072,0L1258.77,294.567Zm-7.071,0L1251.7,294.567Zm-7.072,0L1244.626,294.567Zm-7.072,0L1237.555,294.567Zm-7.071,0L1230.483,294.567Zm-7.072,0L1223.411,294.567Zm-7.071,0L1216.339,294.567Zm-7.072,0L1209.268,294.567Zm-7.072,0L1202.2,294.567Zm-7.072,0L1195.124,294.567Zm-7.071,0L1188.053,294.567ZM1676,0,1180.98,294.567Zm-7.072,0L1173.909,294.567Zm-7.072,0L1166.837,294.567Zm-7.071,0L1159.765,294.567Zm-7.072,0L1152.694,294.567Zm-7.071,0L1145.622,294.567Zm-7.072,0L1138.551,294.567ZM1626.5,0,1131.478,294.567Zm-7.072,0L1124.407,294.567Zm-7.072,0L1117.335,294.567Zm-7.072,0L1110.263,294.567Zm-7.072,0L1103.192,294.567Zm-7.072,0L1096.12,294.567Zm-7.071,0L1089.048,294.567ZM1577,0,1081.976,294.567Zm-7.071,0L1074.9,294.567Zm-7.071,0L1067.833,294.567Zm-7.073,0L1060.761,294.567Zm-7.071,0L1053.689,294.567Zm-7.072,0L1046.618,294.567Zm-7.072,0L1039.546,294.567ZM1527.5,0,1032.474,294.567Zm-7.071,0L1025.4,294.567Zm-7.072,0L1018.33,294.567Zm-7.072,0L1011.259,294.567Zm-7.072,0L1004.187,294.567Zm-7.071,0L997.116,294.567Zm-7.073,0L990.044,294.567Zm-7.071,0L982.972,294.567Zm-7.072,0L975.9,294.567Zm-7.071,0L968.828,294.567Zm-7.072,0L961.757,294.567Zm-7.071,0L954.685,294.567Zm-7.072,0L947.613,294.567Zm-7.072,0L940.541,294.567Zm-7.072,0L933.47,294.567Zm-7.072,0L926.4,294.567Zm-7.072,0L919.326,294.567Zm-7.072,0L912.255,294.567ZM1400.2,0,905.183,294.567Zm-7.072,0L898.111,294.567Zm-7.072,0L891.039,294.567Zm-7.071,0L883.968,294.567Zm-7.072,0L876.9,294.567Zm-7.072,0L869.824,294.567Zm-7.072,0L862.753,294.567ZM1350.7,0,855.68,294.567Zm-7.072,0L848.609,294.567Zm-7.072,0L841.537,294.567Zm-7.072,0L834.466,294.567Zm-7.072,0L827.393,294.567Zm-7.072,0L820.322,294.567Zm-7.071,0L813.25,294.567ZM1301.2,0,806.178,294.567Zm-7.072,0L799.107,294.567Zm-7.071,0L792.035,294.567Zm-7.072,0L784.963,294.567Zm-7.072,0L777.891,294.567Zm-7.071,0L770.82,294.567Zm-7.072,0L763.748,294.567ZM1251.7,0,756.676,294.567Zm-7.071,0L749.6,294.567Zm-7.072,0L742.533,294.567Zm-7.071,0L735.461,294.567Zm-7.072,0L728.389,294.567Zm-7.072,0L721.318,294.567Zm-7.071,0L714.245,294.567ZM1202.2,0,707.174,294.567Zm-7.071,0L700.1,294.567Zm-7.072,0L693.03,294.567Zm-7.072,0L685.959,294.567Zm-7.071,0L678.887,294.567Zm-7.072,0L671.816,294.567Zm-7.072,0L664.743,294.567Zm-7.071,0L657.672,294.567Zm-7.072,0L650.6,294.567Zm-7.071,0L643.528,294.567Zm-7.072,0L636.457,294.567Zm-7.072,0L629.385,294.567Zm-7.071,0L622.313,294.567Zm-7.072,0L615.241,294.567Zm-7.071,0L608.17,294.567Zm-7.072,0L601.1,294.567Zm-7.072,0L594.026,294.567Zm-7.071,0L586.954,294.567ZM1074.9,0,579.883,294.567Zm-7.071,0L572.811,294.567Zm-7.072,0L565.739,294.567Zm-7.072,0L558.668,294.567Zm-7.072,0L551.6,294.567Zm-7.072,0L544.524,294.567Zm-7.072,0L537.452,294.567ZM1025.4,0,530.38,294.567Zm-7.072,0L523.309,294.567Zm-7.071,0L516.237,294.567Zm-7.072,0L509.166,294.567Zm-7.071,0L502.093,294.567Zm-7.072,0L495.022,294.567Zm-7.071,0L487.95,294.567ZM975.9,0,480.878,294.567Zm-7.072,0L473.806,294.567Zm-7.071,0L466.735,294.567Zm-7.071,0L459.663,294.567Zm-7.072,0L452.591,294.567Zm-7.071,0L445.52,294.567ZM933.47,0,438.448,294.567ZM926.4,0,431.376,294.567Zm-7.071,0L424.3,294.567Zm-7.072,0L417.233,294.567Zm-7.071,0L410.161,294.567Zm-7.072,0L403.089,294.567Zm-7.071,0L396.018,294.567Zm-7.072,0L388.945,294.567ZM876.9,0,381.874,294.567Zm-7.072,0L374.8,294.567Zm-7.071,0L367.731,294.567ZM855.68,0,360.658,294.567Zm-7.071,0L353.587,294.567Zm-7.072,0L346.515,294.567Zm-7.071,0L339.443,294.567Zm-7.072,0L332.372,294.567Zm-7.071,0L325.3,294.567ZM813.25,0,318.228,294.567Zm-7.072,0L311.156,294.567Zm-7.071,0L304.085,294.567Zm-7.071,0L297.012,294.567Zm-7.072,0L289.941,294.567Zm-7.072,0L282.87,294.567ZM770.82,0,275.8,294.567Zm-7.071,0L268.726,294.567Zm-7.072,0L261.654,294.567ZM749.6,0,254.583,294.567Zm-7.072,0L247.51,294.567Zm-7.072,0L240.439,294.567Zm-7.071,0L233.367,294.567Zm-7.071,0L226.3,294.567Zm-7.072,0L219.224,294.567Zm-7.071,0L212.152,294.567ZM700.1,0,205.081,294.567ZM693.03,0,198.008,294.567Zm-7.071,0L190.937,294.567Zm-7.071,0L183.865,294.567Zm-7.071,0L176.793,294.567Zm-7.072,0L169.722,294.567Zm-7.071,0L162.65,294.567ZM650.6,0,155.578,294.567Zm-7.072,0L148.506,294.567Zm-7.071,0L141.435,294.567Zm-7.072,0L134.362,294.567Zm-7.072,0L127.291,294.567Zm-7.071,0L120.219,294.567ZM608.17,0,113.148,294.567ZM601.1,0,106.076,294.567Zm-7.072,0L99,294.567Zm-7.071,0L91.933,294.567Zm-7.072,0L84.86,294.567Zm-7.072,0L77.789,294.567Zm-7.071,0L70.717,294.567Zm-7.071,0L63.645,294.567ZM551.6,0,56.574,294.567Zm-7.071,0L49.5,294.567Zm-7.071,0L42.431,294.567ZM530.38,0,35.358,294.567Zm-7.071,0L28.287,294.567Zm-7.072,0L21.215,294.567Zm-7.071,0L14.143,294.567Zm-7.072,0L7.071,294.567Zm-7.071,0L0,294.567Z" transform="translate(-1300.369 218.611)" fill="none" stroke="#8ebc92" stroke-width="1" opacity="0.202" style="mix-blend-mode: multiply;isolation: isolate"/>
    </g>
    <g id="Illust" transform="translate(277.115 110.814)">
      <g id="グループ_392" data-name="グループ 392" clip-path="url(#clip-path-2)">
        <path id="パス_2813" data-name="パス 2813" d="M82.854,70.39,82.766,70c-1.3-5.665-3.851-16.748-6.419-27.332-5.81-23.922-6.477-23.883-6.884-23.883a.649.649,0,0,0-.261.063c-.068-.252-.131-.5-.189-.745,3.943-.068,9.395-.972,9.748-1.843a58.144,58.144,0,0,0,.382-7.455c.082-6.961-.339-7.145-.561-7.237-8.427-2.951-18.6-1.026-20.676-.01-.121.058-.4.194-.44,6.328-.015,1.853,0,6.26.392,7.232a.552.552,0,0,0,.19.26,2.3,2.3,0,0,0,.921.871c.1.192.4.237.534.253a81.438,81.438,0,0,0,8.746.639,1.335,1.335,0,0,1,.077.247c.024.087.048.174.068.266a12.5,12.5,0,0,1-2.22-.2c-.4-.068-.769-.121-3.367,13.748-1.471,7.842-3.212,17.865-4.615,25.92-.972,5.607-1.819,10.444-2.332,13.2,0,.01,0,.015,0,.024a.134.134,0,0,0,0,.044c-2.912.339-13.41.522-15.974-.319-.092-.034-.16-.058-.208-.082a8.55,8.55,0,0,1,1.606-.406c1.5-.29,1.717-.479,1.7-2.772A5.089,5.089,0,0,1,43,66.245a1.91,1.91,0,0,1,1.485-1.925l.16-.063c.092-.034.184-.063.271-.092.871-.29,1.49-.687,1.529-3.125A136.472,136.472,0,0,1,48.2,45.554c.392-2.472.759-4.692,1.093-6.685,1.6-9.646,2.327-14.048.687-16.027-.943-1.137-2.6-1.4-4.784-1.446-2.685-.058-5.1-.121-7.276-.179-11.494-.3-16.249-.426-17.8,1.529-.861,1.088-.663,2.724-.068,5.007,1.829,6.99,1.8,12.06-.1,14.653a4.445,4.445,0,0,1-3.517,1.838c-3.241.174-5.8.111-7.658.068-3.9-.1-5.51-.14-5.713,2.153-.082.9-.063,1.5.266,1.867.4.45,1.137.464,2.6.489l.551.01a7.3,7.3,0,0,1,1.572.237H8c-2.695,0-5.384.3-6.84,1.127A1.911,1.911,0,0,0,0,51.863c.01,1.78.164,6.09.469,10.1.566,7.459,1.132,7.479,1.466,7.493a1.471,1.471,0,0,0,1.209-.4c.421-.455.518-1.3.334-2.893a1.513,1.513,0,0,1,.392-1.34A1.31,1.31,0,0,1,5.1,64.711l.111.034c5.931,1.771,7.048,3.212,7.193,3.909a20.833,20.833,0,0,1,.256,2.177c.14,1.742.261,3.246,1.248,3.261l.218,0c.106,0,.2,0,.3,0,.663,0,1.142-.1,1.325-.992a5.807,5.807,0,0,0,.073-1c.048-1.722.126-4.32,2.869-4.813,4.48-.808,16.535-2.685,18.513-1.732a4.318,4.318,0,0,1,1.94,2.69,2.6,2.6,0,0,0,.634,1.176c-.493.16-.672.319-.687.537-.024.343.435.493.634.561,2.927.958,16.027.6,17.009.179.653-.281,1.4-1.316,2.438-6.985,3.938-21.493,5.728-32.823,6.685-38.9.513-3.246.789-5,.958-5.433.174.126.29.769.31,4.238l0,1.142c.029,4.76.073,11.276-.247,39.89l0,.285c-.015.948-.029,1.843.4,2.278a.874.874,0,0,0,.658.261c1.069,0,1.074-1.829,1.079-2.811,0-2.129-.01-3.918-.024-6.255-.024-3.357-.053-7.958-.053-16.38,0-3.261-.01-6.086-.015-8.529-.015-6.9-.029-11.146.179-13.052,3.3,13.25,8.722,36.939,10.865,46.3.542,2.366.871,3.793.924,4.005a1.03,1.03,0,0,0,1.267.769.91.91,0,0,0,.692-1.147M68.559,16.665l-.005-.008H69.8c-.414.007-.828.01-1.241.008" transform="translate(0 0)" fill="#fff"/>
        <path id="パス_2814" data-name="パス 2814" d="M2.237,53.493c-.484,5.308.815,4.328,9.679,5.542,5.395.739,5.166-6.117,5.493-9.026s-.586-4.724,5.582-4.454c18.725.822,21.763,1.536,23.049-2.7,1.515-4.988,2.888-20.021-.137-20.1-6.217-.163-4.732,4.008-2.144,14.929.788,3.323,1.838,8.149,1.056,9.751-1.947,3.992-17.521-2.9-23.994-.126-3.078,1.318-3.074,16.5-1.092,17.932,1.761,1.273,12.658-1.292,15.583-1.619s4.215.06,4.655,1.31c.428,1.216.927,4.039.08,4.1s-.342-2.4-2.479-3.424-15.024,1.059-18.661,1.712-2.893,4.86-3.132,6c-.188.891-.634.8-1.6.79-1.128-.016-.851-3.133-1.274-5.242-.417-2.077-6.282-3.773-7.47-4.13s-2.049.223-1.93,1.707c.267,2.322-.039,3.073-1.293,3.029C1.157,69.435.528,55.907.5,52.118.472,48.261,16.245,49.6,16.191,50.834c-.081,1.852-6.133-1.92-9.444-1.988-2.933-.06-3.383.089-3.187-2.1.277-3.1,3.365-1.474,13.145-2,4.867-.262,6.672-5.956,3.837-16.793-1.988-7.595,1.031-6.562,24.9-6.057,7.6.161,6.057,3.207,2.773,23.88a136.7,136.7,0,0,0-1.762,15.519c-.04,2.791-.851,2.685-1.645,3s-1.842.563-1.822,2.78-.158,2.274-1.5,2.532-2.6.568-1.426.954c2.888.948,15.853.6,16.838.186.621-.263,1.327-1.511,2.3-6.8C66.1,26.23,66.479,19.263,67.008,19.37c.4.081.594-.065.618,4.514.026,4.812.1,10.008-.242,41.034-.015,1.286-.11,2.579.811,2.579.745,0,.834-1.345.836-2.568.01-5.225-.076-8.434-.076-22.635,0-18.561-.224-22.969.777-23.007,1.451-.055,12.973,50.681,13.145,51.416.23.987-1.249,1.242-1.492.263-.281-1.131-8.68-38.274-12.565-53.38-.883-3.77-11.451-1.379-9.03-1.064,2.485.323,13.3,1.553,18.044-.576,1.232-.553-8.013-2.634-19.33-.5-.813.268-.553-13.255-.235-13.409,2.17-1.059,12.254-2.862,20.492.02.7.3.352,13.586.032,14.376s-8.759,2.248-12.4,1.519c-1.087-.182-7.633,40.111-9.633,50.837" transform="translate(-0.258 -0.258)" fill="none" stroke="#000" stroke-linecap="round" stroke-linejoin="round" stroke-width="0.5"/>
      </g>
    </g>
    <g id="h2-2" data-name="h2">
      <g id="グループ_591" data-name="グループ 591" transform="translate(2 241.639)">
        <g id="グループ_699" data-name="グループ 699" transform="translate(78 -155.639)">
          <g id="グループ_698" data-name="グループ 698" clip-path="url(#clip-path-3)">
            <path id="パス_8114" data-name="パス 8114" d="M7.4,3.395c0-.718-.027-1.767-.083-3.119l4.031.69c.413.055.579.138.579.386,0,.276-.3.359-.5.414-.082,1.022-.166,2.153-.221,3.313a20.3,20.3,0,0,0,4.721-1.436c-.028.69-.056,1.657-.056,2.181a15.219,15.219,0,0,0,.083,1.6,27.028,27.028,0,0,1-4.885,1.269c0,.581-.029,1.822-.056,2.761a13.405,13.405,0,0,1,4.858-.994c4.307,0,7.619,2.623,7.619,7.094,0,3.7-2.4,6.6-6.239,6.6-3.036,0-4.2-2.015-4.278-4.776.745-.221,2.346-.745,2.981-.993v.276c0,1.076.414,1.987,1.656,1.987,1.574,0,2.236-1.574,2.236-2.954a3.856,3.856,0,0,0-4.113-3.947,11.294,11.294,0,0,0-4.72,1.214c.056,3.2.111,5.8.359,8.668L8.225,25.063a41.957,41.957,0,0,0-5.134-4.251c-.469.47-1.021,1.077-1.436,1.546L0,18.356c.524-.3,2.18-1.436,3.2-2.181,2.291-1.684,3.451-2.512,4.224-2.981C7.4,11.842,7.4,10.71,7.4,9.136,5.6,9.275,3.809,9.3,2.015,9.3L1.987,5.576a13.79,13.79,0,0,0,2.125.137c1.1,0,2.181-.055,3.285-.137ZM5.216,18.77a10.511,10.511,0,0,0,2.015,1.324c.194,0,.221-.413.221-1.434V17.031A22.056,22.056,0,0,0,5.216,18.77M25.891,8.722a19.262,19.262,0,0,0-2.319,2.844A16.274,16.274,0,0,0,17.721,7.2l2.152-2.926a23.157,23.157,0,0,1,6.018,4.444" fill="#222"/>
            <path id="パス_8115" data-name="パス 8115" d="M35.329,5a29.925,29.925,0,0,1,2.043,4.968,12.3,12.3,0,0,0-2.4,1.381,35.94,35.94,0,0,0-1.3-3.782v17.97h-3.23V6.845l-.166.055a27.518,27.518,0,0,1-1.269,6.487,9.213,9.213,0,0,0-2.733-.662,30.165,30.165,0,0,0,1.243-6.984l2.207.249a6.236,6.236,0,0,1,.718.083V.414l3.4.138c.22,0,.552.082.552.358,0,.249-.221.387-.718.525V5.658Zm3.037-3.45a28.454,28.454,0,0,1,3.119,6.983A16.444,16.444,0,0,0,38.531,9.8a28.526,28.526,0,0,0-2.9-6.956Zm3.919,14.132A27.848,27.848,0,0,0,39.552,12.7l2.126-1.766a25.2,25.2,0,0,1,2.263,2.291,19.094,19.094,0,0,0,1.546-3.2l2.981.911c.193.055.442.138.442.359,0,.331-.3.386-.552.413a1.2,1.2,0,0,0-.331.055,31.255,31.255,0,0,1-2.071,3.92,31.686,31.686,0,0,1,2.457,3.506,7.2,7.2,0,0,0-2.457,1.9q-.87-1.49-1.822-2.9a18.282,18.282,0,0,1-2.76,2.9,11.681,11.681,0,0,0-2.511-1.821v2.484h9.771v-9.44l3.036.165c.552.028.663.111.663.3,0,.3-.442.469-.663.552v12.2H48.634v-.967H38.863v.967H35.771V12.366l3.174.083c.221,0,.5.055.5.331,0,.248-.193.331-.579.442V19.1a16.745,16.745,0,0,0,3.422-3.423m.8-15.292a24.454,24.454,0,0,1,2.788,6.68,17.145,17.145,0,0,0-3.036,1.242A28.038,28.038,0,0,0,40.1,1.546ZM52.25,2.07c.165.055.359.138.359.331,0,.3-.276.387-.8.469a39.311,39.311,0,0,1-3.4,7.233,13.791,13.791,0,0,0-2.926-1.077A30.155,30.155,0,0,0,48.827.994Z" fill="#222"/>
            <path id="パス_8116" data-name="パス 8116" d="M71.707,6.791,75.682,8.2c.248.083.387.166.387.387,0,.331-.36.358-.608.358a27.415,27.415,0,0,1-1.242,5.411,19.829,19.829,0,0,1,4.251,2.953,34.29,34.29,0,0,0-2.264,3.368A21.537,21.537,0,0,0,72.784,18a19.461,19.461,0,0,1-6.239,7.37,11.109,11.109,0,0,0-3.036-2.512c2.484-1.131,4.969-4.195,6.155-6.624A26.076,26.076,0,0,0,64.033,14.3c-2.015,4.279-3.091,6.156-4.03,7.2a3.49,3.49,0,0,1-2.815,1.325,4.243,4.243,0,0,1-4.03-4.389,7.512,7.512,0,0,1,3.781-6.266,8.761,8.761,0,0,1,4.969-1.215c.69-1.794,1.463-3.726,2.236-5.575A45.954,45.954,0,0,1,57.795,6.57l-.8-3.92c2.9,0,7.508-.414,10.1-1.684l2.4,2.015a21.132,21.132,0,0,0-1.85,3.037,37.7,37.7,0,0,0-2.263,5.106,27.179,27.179,0,0,1,5.52,1.712,22.139,22.139,0,0,0,.8-6.045M56.36,18.439c0,.414.165.994.69.994.5,0,1.3-1.215,1.766-1.988a23.935,23.935,0,0,0,1.547-3.036,4.045,4.045,0,0,0-4,4.03" fill="#222"/>
            <path id="パス_8117" data-name="パス 8117" d="M93.013,6.846V8.005a6.283,6.283,0,0,0,3.451-4.444H93.786V1.021h11.9l-.028,2.512c0,1.435-.166,4.058-1.159,5.162a5.183,5.183,0,0,1-3.92,1.3h-.387a6.081,6.081,0,0,0-1.214-3.174,11.706,11.706,0,0,0,2.1.249c.8,0,1.408,0,1.464-3.506H99.583a11.762,11.762,0,0,1-4.527,7.094,6.2,6.2,0,0,0-2.043-2.181V22.5c0,2.815-2.042,3.119-4.333,3.174a9.266,9.266,0,0,0-1.022-3.092c.525.055,1.27.111,1.8.111.828,0,.911-.387.911-1.16V18.743H84.815a17.856,17.856,0,0,1-2.125,6.983,8.556,8.556,0,0,0-2.65-1.545c1.794-2.651,2.181-6.515,2.181-9.634V8.916a7.531,7.531,0,0,0-2.374-1.132,20.709,20.709,0,0,0,4.692-7.7l2.816.635c.248.055.5.138.5.414,0,.248-.194.331-.525.414a2.318,2.318,0,0,0-.3.579h4.113l1.1.884a40.259,40.259,0,0,1-2.18,3.837ZM87.824,4.692h-2.1A21.634,21.634,0,0,1,84.4,6.846h2.264a17.049,17.049,0,0,0,1.159-2.154M84.953,11.7h1.518V9.579H84.953Zm1.518,2.374H84.953V16.2h1.518ZM88.79,11.7h1.573V9.579H88.79Zm0,4.5h1.573V14.078H88.79Zm10.02-3.754V10.02l2.816.249c.386.027.773.082.773.413,0,.194-.138.276-.58.47v1.3h3.726V15.1h-3.726v2.456h4.333v2.651h-4.333v5.355H98.81V20.206H94.035V17.555H98.81V15.1H96.547A14.626,14.626,0,0,1,95.5,16.893a6.245,6.245,0,0,0-2.4-1.242,14.132,14.132,0,0,0,2.484-5.245l2.318.525c.387.082.525.193.525.387s-.193.276-.552.413a4.675,4.675,0,0,1-.193.718Z" fill="#222"/>
            <path id="パス_8118" data-name="パス 8118" d="M113.3,10.379a29.325,29.325,0,0,0-1.96,2.539,32.378,32.378,0,0,0-4.224-3.23l1.822-2.539a29.214,29.214,0,0,1,4.362,3.23m-1.684,4.664a7.954,7.954,0,0,0,2.649,1.822,49.634,49.634,0,0,1-3.671,8.088.939.939,0,0,1,.138.469.343.343,0,0,1-.331.359c-.111,0-.166-.027-.415-.193l-2.732-1.767a32.212,32.212,0,0,0,4.362-8.778m3.367-11.979a29.95,29.95,0,0,0-1.932,2.677,27.751,27.751,0,0,0-4.362-3.284L110.455,0a27.741,27.741,0,0,1,4.527,3.064m18.191,9.081v3.036h-8.061a16.059,16.059,0,0,0,8.281,7.619,7.886,7.886,0,0,0-1.987,2.926c-3.23-1.16-6.57-4.858-8.364-7.7a15.409,15.409,0,0,1-8.612,7.84,7.078,7.078,0,0,0-2.291-2.733c4-1.1,7.508-3.754,8.529-7.95h-6.376V12.145h6.818c.027-.331.055-.8.055-1.215V7.784h-5.658V4.858h5.658V.138l3.4.193c.247,0,.5.027.5.3,0,.249-.194.387-.413.5a.275.275,0,0,0-.111.139V4.858h6.873v7.287Zm-5.135-4.361h-3.5v2.981c0,.469-.027.993-.055,1.38h3.56Z" fill="#222"/>
          </g>
        </g>
      </g>
      <g id="グループ_609" data-name="グループ 609" transform="translate(217.959 76.206)">
        <g id="グループ_606" data-name="グループ 606">
          <g id="グループ_605" data-name="グループ 605" clip-path="url(#clip-path-4)">
            <path id="パス_7523" data-name="パス 7523" d="M21.928,0A21.84,21.84,0,0,1,43.616,21.989,21.84,21.84,0,0,1,21.928,43.978,21.84,21.84,0,0,1,.24,21.989,21.84,21.84,0,0,1,21.928,0" transform="translate(-0.095)" fill="#fff"/>
            <path id="パス_7524" data-name="パス 7524" d="M85.928,1A21.688,21.688,0,1,1,64.24,22.688,21.688,21.688,0,0,1,85.928,1" transform="translate(-25.539 -0.398)" fill="#fff"/>
            <path id="パス_7525" data-name="パス 7525" d="M39.457,39.166l-1.823,1.8-2.96-2.7a9.688,9.688,0,0,1-5.044,1.4c-5.73,0-9.3-4.309-9.3-9.849s3.575-9.849,9.3-9.849,9.305,4.309,9.305,9.849a10.544,10.544,0,0,1-2.3,6.8Zm-4.144-9.352a7.321,7.321,0,0,0-1.421-4.83,5.141,5.141,0,0,0-4.262-2.012,5.2,5.2,0,0,0-4.262,2.012,7.435,7.435,0,0,0-1.4,4.83,7.435,7.435,0,0,0,1.4,4.83,5.172,5.172,0,0,0,4.262,2.012,5.642,5.642,0,0,0,2.628-.616l-3.007-2.746,1.8-1.8,3.1,2.817a7.675,7.675,0,0,0,1.159-4.5" transform="translate(-8.081 -7.937)" fill="#789a7b"/>
          </g>
        </g>
        <path id="パス_7526" data-name="パス 7526" d="M96.666,20.267l7.085,18.672h-3.7l-1.3-3.744H90.528L89.2,38.939H85.528L92.59,20.267ZM91.429,32.636h6.4l-3.2-9.028Z" transform="translate(-34.002 -8.057)" fill="#789a7b"/>
        <g id="グループ_608" data-name="グループ 608">
          <g id="グループ_607" data-name="グループ 607" clip-path="url(#clip-path-4)">
            <path id="パス_7527" data-name="パス 7527" d="M37.328,36.936a21.266,21.266,0,1,1,3.879-23.968c.121-.247.247-.49.375-.732a21.972,21.972,0,1,0-3.735,25.117,3.238,3.238,0,0,1-.519-.417" transform="translate(0 -0.071)"/>
            <path id="パス_7528" data-name="パス 7528" d="M68.309,52.282a3.932,3.932,0,0,0,.739-1.458h1.4a6.323,6.323,0,0,1-1.371,2.3l1.6,1.7H68.877l-.76-.815a5.175,5.175,0,0,1-3.063,1.045c-1.521,0-2.881-.794-2.88-2.464,0-1.436.929-2.06,2.1-2.6-.581-.582-.992-.994-.992-1.755a1.784,1.784,0,0,1,.663-1.386,2.96,2.96,0,0,1,1.891-.592c1.277,0,2.565.624,2.565,2.073,0,1.109-1.036,1.722-1.955,2.048Zm-4.678.274a1.211,1.211,0,0,0,.558,1.057,2.531,2.531,0,0,0,1.12.222,3.423,3.423,0,0,0,2.025-.687L65.151,50.83c-.771.306-1.521.8-1.521,1.722m3.517-4.363c0-.676-.685-.964-1.265-.964-.708,0-1.3.39-1.3.939a1.49,1.49,0,0,0,.6.964c.075.073.338.306.465.412.57-.233,1.5-.624,1.5-1.352" transform="translate(-24.718 -18.392)" fill="#fff"/>
            <path id="パス_7529" data-name="パス 7529" d="M68.309,52.282a3.932,3.932,0,0,0,.739-1.458h1.4a6.323,6.323,0,0,1-1.371,2.3l1.6,1.7H68.877l-.76-.815a5.175,5.175,0,0,1-3.063,1.045c-1.521,0-2.881-.794-2.88-2.464,0-1.436.929-2.06,2.1-2.6-.581-.582-.992-.994-.992-1.755a1.784,1.784,0,0,1,.663-1.386,2.96,2.96,0,0,1,1.891-.592c1.277,0,2.565.624,2.565,2.073,0,1.109-1.036,1.722-1.955,2.048Zm-4.678.274a1.211,1.211,0,0,0,.558,1.057,2.531,2.531,0,0,0,1.12.222,3.423,3.423,0,0,0,2.025-.687L65.151,50.83c-.771.306-1.521.8-1.521,1.722m3.517-4.363c0-.676-.685-.964-1.265-.964-.708,0-1.3.39-1.3.939a1.49,1.49,0,0,0,.6.964c.075.073.338.306.465.412.57-.233,1.5-.624,1.5-1.352" transform="translate(-24.718 -18.392)" fill="none" stroke="#557c59" stroke-width="0.75"/>
            <path id="パス_7530" data-name="パス 7530" d="M101.344,6.921A21.934,21.934,0,0,0,64.408,27.364a5.741,5.741,0,0,1,.628-.213,21.337,21.337,0,1,1,6.133,10.7c-.284.007-.6.013-.946.016A21.945,21.945,0,1,0,101.344,6.921" transform="translate(-25.376 -0.179)"/>
            <path id="パス_7531" data-name="パス 7531" d="M70.183,35.439a5.913,5.913,0,0,1,.632.207,21.848,21.848,0,0,0-1.412-14.3c-.131.26-.255.524-.375.789a21.262,21.262,0,0,1,1.155,13.307" transform="translate(-27.443 -8.485)"/>
          </g>
        </g>
      </g>
    </g>
  </g>
</svg>
