<svg xmlns="http://www.w3.org/2000/svg" xmlns:xlink="http://www.w3.org/1999/xlink" width="966" height="189.09" viewBox="0 0 966 189.09">
  <defs>
    <clipPath id="clip-path">
      <rect id="長方形_7490" data-name="長方形 7490" width="966" height="155" transform="translate(-776 300.178)" fill="#fff" stroke="#707070" stroke-width="1"/>
    </clipPath>
    <clipPath id="clip-path-2">
      <rect id="長方形_7542" data-name="長方形 7542" width="193.601" height="173.081" fill="none"/>
    </clipPath>
    <clipPath id="clip-path-3">
      <rect id="長方形_7615" data-name="長方形 7615" width="220.483" height="43.106" transform="translate(0 0)" fill="none"/>
    </clipPath>
    <clipPath id="clip-path-4">
      <rect id="長方形_7623" data-name="長方形 7623" width="136.698" height="73.304" fill="none"/>
    </clipPath>
  </defs>
  <g id="h2" transform="translate(-200 -84.91)">
    <g id="マスクグループ_86" data-name="マスクグループ 86" transform="translate(976 -181.178)" clip-path="url(#clip-path)">
      <path id="_" data-name="////" d="M2015.446,0,1520.424,294.567Zm-7.072,0L1513.353,294.567ZM2001.3,0,1506.281,294.567Zm-7.072,0L1499.209,294.567Zm-7.072,0L1492.138,294.567Zm-7.071,0L1485.065,294.567Zm-7.072,0L1477.994,294.567Zm-7.071,0L1470.922,294.567Zm-7.071,0L1463.851,294.567ZM1951.8,0,1456.778,294.567Zm-7.071,0L1449.707,294.567Zm-7.072,0L1442.635,294.567Zm-7.072,0L1435.563,294.567Zm-7.072,0L1428.492,294.567Zm-7.071,0L1421.42,294.567Zm-7.072,0L1414.348,294.567ZM1902.3,0,1407.276,294.567Zm-7.072,0L1400.2,294.567Zm-7.071,0L1393.133,294.567Zm-7.073,0L1386.061,294.567Zm-7.071,0L1378.99,294.567Zm-7.072,0L1371.918,294.567Zm-7.071,0L1364.846,294.567ZM1852.8,0,1357.774,294.567Zm-7.071,0L1350.7,294.567Zm-7.072,0L1343.63,294.567Zm-7.072,0L1336.559,294.567Zm-7.072,0L1329.487,294.567Zm-7.071,0L1322.415,294.567Zm-7.072,0L1315.344,294.567Zm-7.071,0L1308.272,294.567Zm-7.071,0L1301.2,294.567Zm-7.072,0L1294.128,294.567Zm-7.072,0L1287.057,294.567Zm-7.072,0L1279.985,294.567Zm-7.072,0L1272.913,294.567Zm-7.072,0L1265.842,294.567Zm-7.072,0L1258.77,294.567Zm-7.071,0L1251.7,294.567Zm-7.072,0L1244.626,294.567Zm-7.072,0L1237.555,294.567Zm-7.071,0L1230.483,294.567Zm-7.072,0L1223.411,294.567Zm-7.071,0L1216.339,294.567Zm-7.072,0L1209.268,294.567Zm-7.072,0L1202.2,294.567Zm-7.072,0L1195.124,294.567Zm-7.071,0L1188.053,294.567ZM1676,0,1180.98,294.567Zm-7.072,0L1173.909,294.567Zm-7.072,0L1166.837,294.567Zm-7.071,0L1159.765,294.567Zm-7.072,0L1152.694,294.567Zm-7.071,0L1145.622,294.567Zm-7.072,0L1138.551,294.567ZM1626.5,0,1131.478,294.567Zm-7.072,0L1124.407,294.567Zm-7.072,0L1117.335,294.567Zm-7.072,0L1110.263,294.567Zm-7.072,0L1103.192,294.567Zm-7.072,0L1096.12,294.567Zm-7.071,0L1089.048,294.567ZM1577,0,1081.976,294.567Zm-7.071,0L1074.9,294.567Zm-7.071,0L1067.833,294.567Zm-7.073,0L1060.761,294.567Zm-7.071,0L1053.689,294.567Zm-7.072,0L1046.618,294.567Zm-7.072,0L1039.546,294.567ZM1527.5,0,1032.474,294.567Zm-7.071,0L1025.4,294.567Zm-7.072,0L1018.33,294.567Zm-7.072,0L1011.259,294.567Zm-7.072,0L1004.187,294.567Zm-7.071,0L997.116,294.567Zm-7.073,0L990.044,294.567Zm-7.071,0L982.972,294.567Zm-7.072,0L975.9,294.567Zm-7.071,0L968.828,294.567Zm-7.072,0L961.757,294.567Zm-7.071,0L954.685,294.567Zm-7.072,0L947.613,294.567Zm-7.072,0L940.541,294.567Zm-7.072,0L933.47,294.567Zm-7.072,0L926.4,294.567Zm-7.072,0L919.326,294.567Zm-7.072,0L912.255,294.567ZM1400.2,0,905.183,294.567Zm-7.072,0L898.111,294.567Zm-7.072,0L891.039,294.567Zm-7.071,0L883.968,294.567Zm-7.072,0L876.9,294.567Zm-7.072,0L869.824,294.567Zm-7.072,0L862.753,294.567ZM1350.7,0,855.68,294.567Zm-7.072,0L848.609,294.567Zm-7.072,0L841.537,294.567Zm-7.072,0L834.466,294.567Zm-7.072,0L827.393,294.567Zm-7.072,0L820.322,294.567Zm-7.071,0L813.25,294.567ZM1301.2,0,806.178,294.567Zm-7.072,0L799.107,294.567Zm-7.071,0L792.035,294.567Zm-7.072,0L784.963,294.567Zm-7.072,0L777.891,294.567Zm-7.071,0L770.82,294.567Zm-7.072,0L763.748,294.567ZM1251.7,0,756.676,294.567Zm-7.071,0L749.6,294.567Zm-7.072,0L742.533,294.567Zm-7.071,0L735.461,294.567Zm-7.072,0L728.389,294.567Zm-7.072,0L721.318,294.567Zm-7.071,0L714.245,294.567ZM1202.2,0,707.174,294.567Zm-7.071,0L700.1,294.567Zm-7.072,0L693.03,294.567Zm-7.072,0L685.959,294.567Zm-7.071,0L678.887,294.567Zm-7.072,0L671.816,294.567Zm-7.072,0L664.743,294.567Zm-7.071,0L657.672,294.567Zm-7.072,0L650.6,294.567Zm-7.071,0L643.528,294.567Zm-7.072,0L636.457,294.567Zm-7.072,0L629.385,294.567Zm-7.071,0L622.313,294.567Zm-7.072,0L615.241,294.567Zm-7.071,0L608.17,294.567Zm-7.072,0L601.1,294.567Zm-7.072,0L594.026,294.567Zm-7.071,0L586.954,294.567ZM1074.9,0,579.883,294.567Zm-7.071,0L572.811,294.567Zm-7.072,0L565.739,294.567Zm-7.072,0L558.668,294.567Zm-7.072,0L551.6,294.567Zm-7.072,0L544.524,294.567Zm-7.072,0L537.452,294.567ZM1025.4,0,530.38,294.567Zm-7.072,0L523.309,294.567Zm-7.071,0L516.237,294.567Zm-7.072,0L509.166,294.567Zm-7.071,0L502.093,294.567Zm-7.072,0L495.022,294.567Zm-7.071,0L487.95,294.567ZM975.9,0,480.878,294.567Zm-7.072,0L473.806,294.567Zm-7.071,0L466.735,294.567Zm-7.071,0L459.663,294.567Zm-7.072,0L452.591,294.567Zm-7.071,0L445.52,294.567ZM933.47,0,438.448,294.567ZM926.4,0,431.376,294.567Zm-7.071,0L424.3,294.567Zm-7.072,0L417.233,294.567Zm-7.071,0L410.161,294.567Zm-7.072,0L403.089,294.567Zm-7.071,0L396.018,294.567Zm-7.072,0L388.945,294.567ZM876.9,0,381.874,294.567Zm-7.072,0L374.8,294.567Zm-7.071,0L367.731,294.567ZM855.68,0,360.658,294.567Zm-7.071,0L353.587,294.567Zm-7.072,0L346.515,294.567Zm-7.071,0L339.443,294.567Zm-7.072,0L332.372,294.567Zm-7.071,0L325.3,294.567ZM813.25,0,318.228,294.567Zm-7.072,0L311.156,294.567Zm-7.071,0L304.085,294.567Zm-7.071,0L297.012,294.567Zm-7.072,0L289.941,294.567Zm-7.072,0L282.87,294.567ZM770.82,0,275.8,294.567Zm-7.071,0L268.726,294.567Zm-7.072,0L261.654,294.567ZM749.6,0,254.583,294.567Zm-7.072,0L247.51,294.567Zm-7.072,0L240.439,294.567Zm-7.071,0L233.367,294.567Zm-7.071,0L226.3,294.567Zm-7.072,0L219.224,294.567Zm-7.071,0L212.152,294.567ZM700.1,0,205.081,294.567ZM693.03,0,198.008,294.567Zm-7.071,0L190.937,294.567Zm-7.071,0L183.865,294.567Zm-7.071,0L176.793,294.567Zm-7.072,0L169.722,294.567Zm-7.071,0L162.65,294.567ZM650.6,0,155.578,294.567Zm-7.072,0L148.506,294.567Zm-7.071,0L141.435,294.567Zm-7.072,0L134.362,294.567Zm-7.072,0L127.291,294.567Zm-7.071,0L120.219,294.567ZM608.17,0,113.148,294.567ZM601.1,0,106.076,294.567Zm-7.072,0L99,294.567Zm-7.071,0L91.933,294.567Zm-7.072,0L84.86,294.567Zm-7.072,0L77.789,294.567Zm-7.071,0L70.717,294.567Zm-7.071,0L63.645,294.567ZM551.6,0,56.574,294.567Zm-7.071,0L49.5,294.567Zm-7.071,0L42.431,294.567ZM530.38,0,35.358,294.567Zm-7.071,0L28.287,294.567Zm-7.072,0L21.215,294.567Zm-7.071,0L14.143,294.567Zm-7.072,0L7.071,294.567Zm-7.071,0L0,294.567Z" transform="translate(-1300.369 218.611)" fill="none" stroke="#8ebc92" stroke-width="1" opacity="0.202" style="mix-blend-mode: multiply;isolation: isolate"/>
    </g>
    <g id="Illust" transform="translate(910.399 84.91)">
      <g id="グループ_392" data-name="グループ 392" clip-path="url(#clip-path-2)">
        <path id="パス_2813" data-name="パス 2813" d="M193.525,164.415l-.2-.9c-3.028-13.232-8.994-39.118-14.994-63.841-13.571-55.875-15.13-55.785-16.079-55.785a1.516,1.516,0,0,0-.61.147c-.158-.588-.305-1.164-.441-1.74,9.209-.158,21.943-2.271,22.768-4.305.441-1.1.814-9.887.893-17.412.192-16.26-.791-16.689-1.311-16.9-19.683-6.893-43.446-2.4-48.293-.023-.282.136-.927.452-1.028,14.78-.034,4.328,0,14.621.915,16.893a1.29,1.29,0,0,0,.444.608,5.369,5.369,0,0,0,2.15,2.034c.237.449.941.553,1.247.59a190.218,190.218,0,0,0,20.429,1.492,3.114,3.114,0,0,1,.181.576c.057.2.113.407.158.621a29.2,29.2,0,0,1-5.186-.475c-.927-.158-1.8-.282-7.864,32.113-3.435,18.316-7.5,41.729-10.78,60.542-2.271,13.1-4.249,24.4-5.446,30.836,0,.023-.011.034-.011.057a.313.313,0,0,0-.011.1c-6.8.791-31.322,1.22-37.31-.746-.215-.079-.373-.136-.486-.192a19.973,19.973,0,0,1,3.751-.949c3.514-.678,4.011-1.119,3.966-6.475a11.889,11.889,0,0,1,.056-1.322c.305-3.277,1.9-3.91,3.469-4.5l.373-.147c.215-.079.429-.147.633-.215,2.034-.678,3.48-1.6,3.571-7.3.09-6.78,1.74-21.311,4.1-36.169.915-5.774,1.774-10.96,2.554-15.616,3.729-22.531,5.435-32.813,1.6-37.435-2.2-2.655-6.068-3.277-11.175-3.379-6.271-.136-11.91-.282-16.994-.418-26.847-.7-37.955-.994-41.582,3.571-2.011,2.542-1.548,6.362-.158,11.695,4.271,16.328,4.2,28.169-.226,34.226a10.382,10.382,0,0,1-8.215,4.294c-7.571.407-13.537.26-17.887.158-9.107-.226-12.87-.328-13.345,5.028-.192,2.113-.147,3.5.621,4.362.938,1.051,2.655,1.085,6.079,1.141l1.288.023a17.053,17.053,0,0,1,3.672.554H18.69c-6.294,0-12.576.712-15.977,2.633C.9,118.257-.01,119.567,0,121.138c.023,4.158.384,14.226,1.1,23.593,1.322,17.424,2.644,17.469,3.424,17.5a3.437,3.437,0,0,0,2.825-.927c.983-1.062,1.209-3.028.78-6.757a3.534,3.534,0,0,1,.915-3.13,3.06,3.06,0,0,1,2.87-.271l.26.079c13.853,4.136,16.463,7.5,16.8,9.13a48.661,48.661,0,0,1,.6,5.085c.328,4.068.61,7.582,2.915,7.616l.508.011c.249,0,.475.011.7.011,1.548,0,2.667-.237,3.1-2.316a13.563,13.563,0,0,0,.169-2.328c.113-4.023.294-10.09,6.7-11.243,10.463-1.887,38.621-6.271,43.243-4.045,2.723,1.311,3.774,4.181,4.531,6.282a6.061,6.061,0,0,0,1.48,2.746c-1.153.373-1.571.746-1.6,1.254-.056.8,1.017,1.153,1.48,1.311,6.836,2.237,37.435,1.39,39.729.418,1.525-.655,3.277-3.073,5.695-16.316,9.2-50.2,13.378-76.666,15.616-90.869,1.2-7.582,1.842-11.684,2.237-12.689.407.294.678,1.8.723,9.9l.011,2.667c.068,11.119.17,26.339-.576,93.175l-.011.667c-.034,2.215-.068,4.305.938,5.322a2.043,2.043,0,0,0,1.537.61c2.5,0,2.508-4.271,2.52-6.565,0-4.972-.023-9.152-.057-14.61-.057-7.842-.124-18.587-.124-38.26,0-7.616-.023-14.215-.034-19.921-.034-16.113-.068-26.034.418-30.486,7.717,30.949,20.373,86.282,25.378,108.157,1.266,5.525,2.034,8.859,2.158,9.356a2.407,2.407,0,0,0,2.96,1.8,2.125,2.125,0,0,0,1.616-2.678M160.136,38.924l-.012-.018h2.911c-.966.017-1.934.023-2.9.018" transform="translate(0 0)" fill="#fff"/>
        <path id="パス_2814" data-name="パス 2814" d="M4.558,124.279c-1.13,12.4,1.9,10.108,22.609,12.946,12.6,1.727,12.068-14.287,12.83-21.083s-1.368-11.034,13.038-10.4c43.736,1.921,50.832,3.589,53.837-6.305,3.538-11.651,6.746-46.765-.321-46.95C92.03,52.1,95.5,61.844,101.543,87.354c1.84,7.763,4.294,19.035,2.467,22.776-4.548,9.325-40.924-6.767-56.045-.295-7.19,3.079-7.18,38.538-2.55,41.884,4.114,2.974,29.567-3.018,36.4-3.781s9.846.141,10.873,3.061c1,2.841,2.165,9.434.188,9.573s-.8-5.594-5.791-8-35.092,2.473-43.588,4-6.757,11.351-7.316,14.011c-.438,2.08-1.48,1.879-3.745,1.846-2.635-.038-1.988-7.319-2.976-12.243-.973-4.851-14.673-8.813-17.447-9.646s-4.785.52-4.508,3.988c.624,5.424-.092,7.178-3.019,7.075C2.036,161.517.564,129.918.5,121.066c-.064-9.009,36.776-5.876,36.651-3-.189,4.327-14.325-4.485-22.059-4.643-6.851-.14-7.9.208-7.444-4.905.647-7.232,7.86-3.444,30.7-4.676,11.367-.612,15.585-13.912,8.962-39.225-4.644-17.74,2.409-15.326,58.168-14.148,17.746.375,14.148,7.49,6.477,55.777-2.461,15.494-4.023,29.729-4.115,36.248s-1.988,6.271-3.842,7.006-4.3,1.315-4.255,6.494-.368,5.311-3.512,5.914-6.08,1.327-3.33,2.229c6.747,2.215,37.028,1.409,39.33.434,1.451-.615,3.1-3.529,5.366-15.895,16.135-88.079,17.011-104.353,18.248-104.1.934.19,1.388-.151,1.444,10.545.06,11.241.238,23.376-.565,95.846-.034,3-.258,6.025,1.895,6.025,1.74,0,1.948-3.141,1.954-6,.023-12.2-.179-19.7-.179-52.87,0-43.355-.523-53.65,1.815-53.739,3.39-.128,30.3,118.378,30.7,120.1.538,2.306-2.916,2.9-3.485.615-.656-2.641-20.274-89.4-29.349-124.684-2.063-8.807-26.748-3.221-21.091-2.486,5.8.754,31.066,3.628,42.147-1.345,2.877-1.292-18.716-6.151-45.15-1.171-1.9.627-1.293-30.96-.549-31.321,5.069-2.473,28.622-6.685,47.865.047,1.643.71.821,31.734.075,33.578s-20.46,5.25-28.973,3.547c-2.539-.426-17.828,93.691-22.5,118.744" transform="translate(0.065 0.065)" fill="none" stroke="#000" stroke-linecap="round" stroke-linejoin="round" stroke-width="1"/>
      </g>
    </g>
    <g id="グループ_591" data-name="グループ 591" transform="translate(501 185)">
      <g id="グループ_590" data-name="グループ 590" transform="translate(0 -6)" clip-path="url(#clip-path-3)">
        <path id="パス_7486" data-name="パス 7486" d="M12.33,5.658c0-1.2-.047-2.944-.139-5.2l6.717,1.15c.69.092.966.23.966.644,0,.46-.506.6-.828.69-.138,1.7-.276,3.588-.368,5.521a33.782,33.782,0,0,0,7.867-2.393c-.046,1.151-.092,2.761-.092,3.635a25.256,25.256,0,0,0,.138,2.668,45.007,45.007,0,0,1-8.143,2.116c0,.967-.046,3.036-.092,4.6a22.334,22.334,0,0,1,8.1-1.657c7.177,0,12.7,4.372,12.7,11.824,0,6.165-4,11-10.4,11-5.061,0-6.994-3.359-7.131-7.959,1.242-.368,3.91-1.242,4.968-1.656V31.1c0,1.794.69,3.313,2.76,3.313,2.622,0,3.727-2.623,3.727-4.923,0-4-2.945-6.579-6.855-6.579a18.822,18.822,0,0,0-7.867,2.024c.092,5.337.184,9.662.6,14.446L13.71,41.772a70.058,70.058,0,0,0-8.558-7.085c-.781.783-1.7,1.795-2.392,2.577L0,30.594c.874-.507,3.634-2.393,5.337-3.635,3.818-2.807,5.751-4.187,7.039-4.969-.046-2.254-.046-4.14-.046-6.763-2.991.231-5.982.277-8.972.277L3.312,9.293a23.03,23.03,0,0,0,3.542.229c1.841,0,3.635-.091,5.476-.229ZM8.695,31.283c.46.368,2.9,2.208,3.358,2.208.323,0,.369-.689.369-2.392V28.385a36.755,36.755,0,0,0-3.727,2.9M43.153,14.537a32.219,32.219,0,0,0-3.864,4.739,27.15,27.15,0,0,0-9.754-7.269l3.589-4.876a38.556,38.556,0,0,1,10.029,7.406" fill="#222"/>
        <path id="パス_7487" data-name="パス 7487" d="M57.962,8.327a49.8,49.8,0,0,1,3.4,8.28,20.481,20.481,0,0,0-4,2.3A59.724,59.724,0,0,0,55.2,12.6V42.554H49.819V11.409l-.276.092a45.964,45.964,0,0,1-2.116,10.811,15.358,15.358,0,0,0-4.555-1.1,50.277,50.277,0,0,0,2.07-11.639l3.681.414a10.869,10.869,0,0,1,1.2.138V.689L55.477.92c.369,0,.92.137.92.6,0,.414-.368.645-1.2.874V9.43Zm5.06-5.751c2.162,3.082,4.049,8.005,5.2,11.64A27.245,27.245,0,0,0,63.3,16.332,47.5,47.5,0,0,0,58.468,4.738Zm6.534,23.555A46.371,46.371,0,0,0,65,21.162l3.542-2.944a42.045,42.045,0,0,1,3.772,3.818A31.628,31.628,0,0,0,74.892,16.7l4.968,1.518c.323.091.737.23.737.6,0,.552-.506.644-.92.69a2.023,2.023,0,0,0-.553.091,52.184,52.184,0,0,1-3.45,6.534,53.011,53.011,0,0,1,4.094,5.842,12,12,0,0,0-4.094,3.174q-1.449-2.484-3.036-4.83a30.55,30.55,0,0,1-4.6,4.83,19.466,19.466,0,0,0-4.186-3.036v4.141H80.137V20.518l5.06.276c.92.046,1.1.184,1.1.506,0,.506-.736.782-1.1.921V42.554h-5.06v-1.61H63.851v1.61H58.7V20.61l5.29.138c.368,0,.828.092.828.552,0,.414-.321.552-.965.736v9.8a27.962,27.962,0,0,0,5.7-5.7M70.89.643a40.791,40.791,0,0,1,4.646,11.134,28.549,28.549,0,0,0-5.061,2.07A46.714,46.714,0,0,0,65.921,2.576ZM86.163,3.45c.276.092.6.23.6.552,0,.507-.46.644-1.334.782a65.6,65.6,0,0,1-5.659,12.054,22.86,22.86,0,0,0-4.876-1.794A50.252,50.252,0,0,0,80.458,1.656Z" fill="#222"/>
        <path id="パス_7488" data-name="パス 7488" d="M119.512,11.317l6.625,2.346c.414.138.644.276.644.644,0,.552-.6.6-1.012.6a45.925,45.925,0,0,1-2.07,9.017,33.122,33.122,0,0,1,7.085,4.922,56.917,56.917,0,0,0-3.773,5.614A35.955,35.955,0,0,0,121.306,30a32.429,32.429,0,0,1-10.4,12.283,18.54,18.54,0,0,0-5.061-4.187c4.14-1.885,8.28-6.992,10.259-11.041a43.535,43.535,0,0,0-9.385-3.22c-3.358,7.13-5.153,10.259-6.717,12.007a5.817,5.817,0,0,1-4.692,2.208c-3.865,0-6.717-3.5-6.717-7.314a12.519,12.519,0,0,1,6.3-10.443,14.59,14.59,0,0,1,8.28-2.025c1.15-2.99,2.439-6.211,3.727-9.293a76.453,76.453,0,0,1-10.581,1.979L94.992,4.416c4.83,0,12.512-.69,16.837-2.806l4,3.358a35.18,35.18,0,0,0-3.082,5.061,62.711,62.711,0,0,0-3.772,8.511,45.317,45.317,0,0,1,9.2,2.852,36.95,36.95,0,0,0,1.334-10.075M93.933,30.731c0,.69.276,1.656,1.15,1.656.829,0,2.163-2.024,2.945-3.312a39.953,39.953,0,0,0,2.576-5.061,6.743,6.743,0,0,0-6.671,6.717" fill="#222"/>
        <path id="パス_7489" data-name="パス 7489" d="M153.183,11.409v1.933a10.484,10.484,0,0,0,5.751-7.407h-4.463V1.7H174.3l-.046,4.187c0,2.391-.275,6.762-1.931,8.6-1.611,1.795-4.28,2.162-6.534,2.162h-.643a10.135,10.135,0,0,0-2.025-5.29,19.6,19.6,0,0,0,3.5.414c1.334,0,2.347,0,2.439-5.842h-4.923c-1.2,5.336-3.45,8.373-7.545,11.823a10.31,10.31,0,0,0-3.4-3.635V37.494c0,4.692-3.4,5.2-7.223,5.291a15.456,15.456,0,0,0-1.7-5.153c.874.092,2.116.184,2.99.184,1.38,0,1.518-.644,1.518-1.932V31.237h-9.247a29.788,29.788,0,0,1-3.542,11.64,14.253,14.253,0,0,0-4.416-2.576c2.99-4.417,3.634-10.858,3.634-16.057V14.859a12.566,12.566,0,0,0-3.956-1.885A34.5,34.5,0,0,0,139.059.138L143.751,1.2c.414.092.828.23.828.69,0,.414-.321.552-.874.69a3.941,3.941,0,0,0-.506.966h6.856l1.84,1.473a67.518,67.518,0,0,1-3.635,6.394Zm-8.65-3.589h-3.5a35.741,35.741,0,0,1-2.208,3.589H142.6a28.314,28.314,0,0,0,1.931-3.589m-4.784,11.686h2.53V15.964h-2.53Zm2.531,3.957h-2.53V27h2.53Zm3.864-3.957h2.622V15.964h-2.622Zm0,7.5h2.622V23.463h-2.622Zm16.7-6.257V16.7l4.692.414c.645.046,1.288.138,1.288.69,0,.322-.229.46-.965.782v2.162h6.211v4.417h-6.211v4.094h7.222v4.417h-7.222V42.6h-5.015V33.676h-7.959V29.259h7.959V25.165h-3.772a24.062,24.062,0,0,1-1.749,2.99,10.394,10.394,0,0,0-4-2.07c1.749-2.484,3.634-5.751,4.14-8.741l3.865.874c.644.137.874.322.874.644s-.322.46-.92.69a7.479,7.479,0,0,1-.322,1.2Z" fill="#222"/>
        <path id="パス_7490" data-name="パス 7490" d="M186.992,17.3a48.908,48.908,0,0,0-3.266,4.233,53.716,53.716,0,0,0-7.039-5.383l3.036-4.233a48.762,48.762,0,0,1,7.269,5.383m-2.806,7.775A13.3,13.3,0,0,0,188.6,28.11a82.9,82.9,0,0,1-6.118,13.479,1.55,1.55,0,0,1,.229.782.57.57,0,0,1-.551.6c-.185,0-.277-.046-.691-.322L176.916,39.7c2.485-3.267,6.3-10.673,7.27-14.63M189.8,5.107a49.472,49.472,0,0,0-3.22,4.463,46.158,46.158,0,0,0-7.269-5.475L182.253,0A46.286,46.286,0,0,1,189.8,5.107m30.318,15.136V25.3H206.682c2.715,5.8,8,10.213,13.8,12.7a13.149,13.149,0,0,0-3.313,4.877c-5.383-1.932-10.949-8.1-13.939-12.836a25.678,25.678,0,0,1-14.354,13.066,11.814,11.814,0,0,0-3.818-4.555c6.671-1.84,12.514-6.256,14.216-13.249H188.648v-5.06h11.363c.046-.552.093-1.334.093-2.025V12.974h-9.432V8.1H200.1V.23l5.658.322c.414,0,.828.046.828.506,0,.414-.322.645-.69.828a.462.462,0,0,0-.184.231V8.1h11.455V20.243Zm-8.557-7.269h-5.843v4.968c0,.782-.046,1.656-.092,2.3h5.935Z" fill="#222"/>
      </g>
    </g>
    <g id="グループ_609" data-name="グループ 609" transform="translate(730 163)">
      <g id="グループ_606" data-name="グループ 606">
        <g id="グループ_605" data-name="グループ 605" clip-path="url(#clip-path-4)">
          <path id="パス_7523" data-name="パス 7523" d="M36.24,0c19.882,0,36,16.342,36,36.5S56.122,73,36.24,73,.24,56.658.24,36.5,16.358,0,36.24,0" fill="#fff"/>
          <path id="パス_7524" data-name="パス 7524" d="M100.24,1a36,36,0,1,1-36,36,36,36,0,0,1,36-36" fill="#fff"/>
          <path id="パス_7525" data-name="パス 7525" d="M52.081,51.837l-3.026,2.987-4.913-4.481a16.082,16.082,0,0,1-8.372,2.32c-9.511,0-15.444-7.153-15.444-16.349S26.26,19.965,35.77,19.965s15.446,7.153,15.446,16.349A17.5,17.5,0,0,1,47.4,47.594ZM45.2,36.314c0-2.987-.472-5.62-2.358-8.017a8.534,8.534,0,0,0-7.074-3.34A8.635,8.635,0,0,0,28.7,28.3c-1.847,2.358-2.318,5.069-2.318,8.017,0,2.987.471,5.62,2.318,8.017a8.586,8.586,0,0,0,7.074,3.34,9.365,9.365,0,0,0,4.363-1.022l-4.991-4.558L38.129,39.1l5.149,4.676A12.741,12.741,0,0,0,45.2,36.314" fill="#789a7b"/>
        </g>
      </g>
      <path id="パス_7526" data-name="パス 7526" d="M104.016,20.267l11.761,30.994H109.64l-2.163-6.214H93.828l-2.2,6.214h-6.1L97.25,20.267ZM95.323,40.8h10.62l-5.31-14.986Z" fill="#789a7b"/>
      <g id="グループ_608" data-name="グループ 608">
        <g id="グループ_607" data-name="グループ 607" clip-path="url(#clip-path-4)">
          <path id="パス_7527" data-name="パス 7527" d="M61.96,61.192A35.3,35.3,0,1,1,68.4,21.407c.2-.41.41-.813.623-1.215a36.471,36.471,0,1,0-6.2,41.692,5.376,5.376,0,0,1-.862-.693"/>
          <path id="パス_7528" data-name="パス 7528" d="M72.357,56.253a6.527,6.527,0,0,0,1.227-2.42h2.33a10.5,10.5,0,0,1-2.275,3.825L76.3,60.483h-3L72.039,59.13a8.59,8.59,0,0,1-5.084,1.735c-2.524,0-4.782-1.318-4.781-4.09,0-2.384,1.542-3.419,3.489-4.313-.964-.966-1.647-1.65-1.646-2.913a2.962,2.962,0,0,1,1.1-2.3,4.914,4.914,0,0,1,3.139-.982c2.12,0,4.257,1.036,4.257,3.441,0,1.841-1.719,2.858-3.245,3.4Zm-7.765.454a2.01,2.01,0,0,0,.927,1.755,4.2,4.2,0,0,0,1.859.369,5.681,5.681,0,0,0,3.361-1.14l-3.623-3.847c-1.28.508-2.524,1.332-2.524,2.859M70.43,49.46c0-1.122-1.137-1.6-2.1-1.6-1.175,0-2.156.647-2.156,1.559a2.473,2.473,0,0,0,1,1.6c.124.121.561.508.772.684.946-.386,2.489-1.035,2.489-2.245" fill="#fff"/>
          <path id="パス_7529" data-name="パス 7529" d="M72.357,56.253a6.527,6.527,0,0,0,1.227-2.42h2.33a10.5,10.5,0,0,1-2.275,3.825L76.3,60.483h-3L72.039,59.13a8.59,8.59,0,0,1-5.084,1.735c-2.524,0-4.782-1.318-4.781-4.09,0-2.384,1.542-3.419,3.489-4.313-.964-.966-1.647-1.65-1.646-2.913a2.962,2.962,0,0,1,1.1-2.3,4.914,4.914,0,0,1,3.139-.982c2.12,0,4.257,1.036,4.257,3.441,0,1.841-1.719,2.858-3.245,3.4Zm-7.765.454a2.01,2.01,0,0,0,.927,1.755,4.2,4.2,0,0,0,1.859.369,5.681,5.681,0,0,0,3.361-1.14l-3.623-3.847c-1.28.508-2.524,1.332-2.524,2.859M70.43,49.46c0-1.122-1.137-1.6-2.1-1.6-1.175,0-2.156.647-2.156,1.559a2.473,2.473,0,0,0,1,1.6c.124.121.561.508.772.684.946-.386,2.489-1.035,2.489-2.245" fill="none" stroke="#557c59" stroke-width="0.75"/>
          <path id="パス_7530" data-name="パス 7530" d="M126.1,11.191A36.408,36.408,0,0,0,64.79,45.125a9.529,9.529,0,0,1,1.042-.354,35.417,35.417,0,1,1,10.18,17.765c-.472.012-1,.021-1.57.027A36.427,36.427,0,1,0,126.1,11.191"/>
          <path id="パス_7531" data-name="パス 7531" d="M70.946,44.741A9.815,9.815,0,0,1,72,45.084a36.266,36.266,0,0,0-2.344-23.742c-.217.431-.424.869-.623,1.31a35.293,35.293,0,0,1,1.918,22.089"/>
        </g>
      </g>
    </g>
  </g>
</svg>
