<svg xmlns="http://www.w3.org/2000/svg" width="295.271" height="32.153" viewBox="0 0 295.271 32.153">
  <g id="グループ_779" data-name="グループ 779" transform="translate(-97.505 -9315.939)">
    <g id="グループ_446" data-name="グループ 446" transform="translate(34.505 9314.791)">
      <g id="グループ_447" data-name="グループ 447" transform="translate(0 1)">
        <path id="パス_2844" data-name="パス 2844" d="M197.963,23.385H89.225a3.53,3.53,0,0,1-3.316-3.71V.169H201.291V19.662a3.542,3.542,0,0,1-3.328,3.723" fill="#fff"/>
        <path id="パス_2845" data-name="パス 2845" d="M151.392,31.364l-.61.79c-.12-.09-5.422-4.5-9.5-8.154H89.74a5.008,5.008,0,0,1-5-5V1H63V0H85.74V19a4.046,4.046,0,0,0,.09.86l.01.01A3.991,3.991,0,0,0,89.74,23h51.93l.14.13c3.91,3.55,9.462,8.144,9.582,8.234" transform="translate(0 0.149)" fill="#222"/>
        <path id="パス_2846" data-name="パス 2846" d="M358.271,0V1H204.82V19c0,2.76-1.927,5-4.3,5H155.99V23h44.528a3.751,3.751,0,0,0,3.442-4V0Z" transform="translate(0 0.149)" fill="#222"/>
      </g>
    </g>
    <path id="パス_8340" data-name="パス 8340" d="M9.058-.1q0,.126-.21.126A2.047,2.047,0,0,1,8.6.014L6.818-.014,5.04.014a1.487,1.487,0,0,1-.21.014q-.28,0-.28-.14t.378-.154Q6.16-.28,6.16-.518A.839.839,0,0,0,6.132-.63L6.02-1.008l-.07-.2q-.126-.434-.616-1.918h-3A15.082,15.082,0,0,0,1.5-.546a.216.216,0,0,0,.168.238q.042.014.7.056.406.014.406.14t-.364.14q-.644,0-1.5-.056Q.7-.042.476-.042a3.282,3.282,0,0,0-.434.028A1.531,1.531,0,0,1-.14,0q-.2,0-.2-.126T.1-.266A1.366,1.366,0,0,0,.742-.4.8.8,0,0,0,1.05-.854Q2.856-6.006,3.99-9.128A1.857,1.857,0,0,1,4.1-9.506l.07-.252q.042-.154.112-.154.042,0,.07.084.182.546.826,2.282.5,1.358,2.506,6.818a.654.654,0,0,0,.287.392,2.1,2.1,0,0,0,.721.1Q9.058-.224,9.058-.1ZM5.25-3.444,4.508-5.53,3.836-7.448q-.588,1.54-1.414,4Zm12.614-1.4a4.628,4.628,0,0,1-1.722,3.836A5.247,5.247,0,0,1,12.768,0q-.056,0-.5-.014T10.99-.028h-.7L9.184-.014A1.487,1.487,0,0,1,8.974,0q-.266,0-.266-.14t.448-.126q.574,0,.714-.21a1.44,1.44,0,0,0,.056-.532V-8.554a1.623,1.623,0,0,0-.105-.8q-.1-.112-.721-.112-.322,0-.322-.154,0-.112.238-.112l.308.014q.322.014.63.014h1.5a12.631,12.631,0,0,1,3.57.35A3.813,3.813,0,0,1,17.08-7.693,5.214,5.214,0,0,1,17.864-4.844ZM16.3-4.9a5.251,5.251,0,0,0-.91-3.409,3.5,3.5,0,0,0-2.842-1.085,1.93,1.93,0,0,0-1.134.2,1.446,1.446,0,0,0-.084.672v7.448a2.95,2.95,0,0,0,.021.476.228.228,0,0,0,.119.14,3.769,3.769,0,0,0,1.414.168,3.069,3.069,0,0,0,2.436-1.064A5.3,5.3,0,0,0,16.3-4.9ZM27.608-9.618q0,.112-.266.126a1.468,1.468,0,0,0-.826.182,1.892,1.892,0,0,0-.434.784l-.476,1.3Q23.884-2.506,23.184.014q-.042.168-.14.168t-.462-1.05q-.63-1.918-.98-2.884-.378-1.064-1.12-3.178L19.81-8.82a1.179,1.179,0,0,0-.308-.525.972.972,0,0,0-.56-.147q-.462-.014-.553-.028a.1.1,0,0,1-.091-.112q0-.126.28-.126H18.7q.252,0,.875.021t.889.021q.07,0,.539-.021t1.337-.021h.2q.252,0,.252.14t-.5.168l-.854.028q-.294.014-.294.182a.458.458,0,0,0,.028.112l.112.364q.028.112,1.358,3.948l.854,2.506Q25.8-8.848,25.8-9.184t-.686-.308l-.434.014q-.168,0-.168-.112,0-.14.42-.14h.476q.392.014.574.014h.448l.924-.014Q27.608-9.73,27.608-9.618ZM31.346-.112q0,.112-.168.112h-.14a17.921,17.921,0,0,0-1.9-.042q-.35,0-.7.028Q28.252,0,27.874,0q-.182,0-.182-.126t.364-.126q.56-.014.658-.133a1.78,1.78,0,0,0,.1-.805V-8.554a2.073,2.073,0,0,0-.07-.77q-.084-.14-.77-.168-.266-.014-.266-.112,0-.126.168-.126l1.89.028q.21,0,.812-.014l.532-.014q.224,0,.224.126t-.616.14q-.35.014-.427.126a1.316,1.316,0,0,0-.077.588v7.476a2.473,2.473,0,0,0,.07.868,1.653,1.653,0,0,0,.91.182Q31.346-.224,31.346-.112Zm8.876-3.01q0-.028-.028.378-.056.812-.056,1.568,0,.084.028.343a5.913,5.913,0,0,1,.028.623v.126q0,.182-.112.182t-.2-.21a1.44,1.44,0,0,0-.392-.6,3.553,3.553,0,0,1-2.422.882,4.482,4.482,0,0,1-3.409-1.435,5.071,5.071,0,0,1-1.351-3.619,5.2,5.2,0,0,1,1.239-3.591,4.084,4.084,0,0,1,3.2-1.393,4.4,4.4,0,0,1,1.141.119,4.82,4.82,0,0,1,1.057.483,1.059,1.059,0,0,0,.462.182q.126,0,.238-.224.182-.392.294-.392a.1.1,0,0,1,.112.112.958.958,0,0,1-.028.182,13.416,13.416,0,0,0-.154,2.52.6.6,0,0,1-.042.308.151.151,0,0,1-.112.042q-.14,0-.182-.266a4.736,4.736,0,0,0-.518-1.666,2.345,2.345,0,0,0-2.156-1.12,2.253,2.253,0,0,0-1.792.756,5.866,5.866,0,0,0-1.19,3.976,5.879,5.879,0,0,0,.98,3.626,2.711,2.711,0,0,0,2.268,1.12,2.559,2.559,0,0,0,1.33-.357,2.408,2.408,0,0,0,.924-.973A5.64,5.64,0,0,0,39.9-3q.056-.336.182-.336T40.222-3.122Zm8.5.854q0,.056-.028.686t-.028,1.2V.084q-1.372-.07-5.432-.07-.49,0-.966.014h-.784q-.266,0-.266-.126A.09.09,0,0,1,41.3-.2q.042,0,.532-.042.364-.028.441-.154a1.636,1.636,0,0,0,.077-.658V-8.918q0-.406-.119-.483a2.038,2.038,0,0,0-.763-.077q-.224,0-.224-.126t.308-.126l2.394.014,1.582-.014h1.96a4.89,4.89,0,0,0,.77-.056q.028.6.126,1.666l.056.6a.96.96,0,0,1,.014.182q0,.14-.126.14-.154,0-.224-.35a2.266,2.266,0,0,0-.868-1.6,6.335,6.335,0,0,0-2.352-.252H43.736v4.1h.336a4.389,4.389,0,0,0,1.911-.238q.343-.238.469-1.386.028-.294.154-.294.154,0,.154.252t-.028.742q-.028.49-.028.742,0,1.5.056,2.058.014.14.014.238,0,.182-.154.182-.1,0-.133-.119t-.119-.777a1.113,1.113,0,0,0-.686-1.022A5.837,5.837,0,0,0,44.366-5h-.63v4.7A26.686,26.686,0,0,0,47.348-.42q.924-.21,1.05-1.792.028-.35.182-.35T48.72-2.268Z" transform="translate(154.5 9328.939)" fill="#222"/>
  </g>
</svg>
