<svg xmlns="http://www.w3.org/2000/svg" width="901.99" height="33.74" viewBox="0 0 901.99 33.74">
  <g id="グループ_440" data-name="グループ 440" transform="translate(-298.005 41)">
    <g id="グループ_446" data-name="グループ 446" transform="translate(286.005 -42.149)">
      <g id="グループ_447" data-name="グループ 447" transform="translate(0 1)">
        <path id="パス_2844" data-name="パス 2844" d="M208.107,23.385H89.525a3.664,3.664,0,0,1-3.616-3.71V.169H211.736V19.662a3.677,3.677,0,0,1-3.629,3.723" fill="#fff"/>
        <path id="パス_2845" data-name="パス 2845" d="M153.98,32.95l-.61.79c-.12-.09-8.01-6.09-12.09-9.74H89.74a5.008,5.008,0,0,1-5-5V1H12V0H85.74V19a4.046,4.046,0,0,0,.09.86l.01.01A3.991,3.991,0,0,0,89.74,23h51.93l.14.13c3.91,3.55,12.05,9.73,12.17,9.82" transform="translate(0 0.149)" fill="#222"/>
        <path id="パス_2846" data-name="パス 2846" d="M913.99,0V1H212.74V19a5,5,0,0,1-5,5H155.99V23h51.75a4,4,0,0,0,4-4V0Z" transform="translate(0 0.149)" fill="#222"/>
      </g>
    </g>
    <path id="パス_7542" data-name="パス 7542" d="M10.352-.112q0,.144-.24.144A2.339,2.339,0,0,1,9.824.016L7.792-.016,5.76.016a1.7,1.7,0,0,1-.24.016q-.32,0-.32-.16Q5.2-.3,5.632-.3,7.04-.32,7.04-.592A.959.959,0,0,0,7.008-.72L6.88-1.152,6.8-1.376q-.144-.5-.7-2.192H2.672a17.236,17.236,0,0,0-.96,2.944A.246.246,0,0,0,1.9-.352q.048.016.8.064.464.016.464.16,0,.16-.416.16-.736,0-1.712-.064Q.8-.048.544-.048a3.751,3.751,0,0,0-.5.032A1.75,1.75,0,0,1-.16,0Q-.384,0-.384-.144T.12-.3A1.562,1.562,0,0,0,.848-.456.917.917,0,0,0,1.2-.976q2.064-5.888,3.36-9.456a2.122,2.122,0,0,1,.128-.432l.08-.288q.048-.176.128-.176.048,0,.08.1.208.624.944,2.608Q6.5-7.072,8.784-.832a.748.748,0,0,0,.328.448,2.4,2.4,0,0,0,.824.112Q10.352-.256,10.352-.112ZM6-3.936,5.152-6.32,4.384-8.512q-.672,1.76-1.616,4.576Zm14.416-1.6a5.289,5.289,0,0,1-1.968,4.384A6,6,0,0,1,14.592,0q-.064,0-.568-.016T12.56-.032h-.8L10.5-.016a1.7,1.7,0,0,1-.24.016q-.3,0-.3-.16,0-.144.512-.144.656,0,.816-.24a1.646,1.646,0,0,0,.064-.608V-9.776a1.854,1.854,0,0,0-.12-.912q-.12-.128-.824-.128-.368,0-.368-.176,0-.128.272-.128l.352.016q.368.016.72.016h1.712a14.435,14.435,0,0,1,4.08.4,4.357,4.357,0,0,1,2.352,1.9A5.959,5.959,0,0,1,20.416-5.536ZM18.624-5.6a6,6,0,0,0-1.04-3.9,4,4,0,0,0-3.248-1.24,2.206,2.206,0,0,0-1.3.224,1.652,1.652,0,0,0-.1.768v8.512a3.371,3.371,0,0,0,.024.544.261.261,0,0,0,.136.16,4.307,4.307,0,0,0,1.616.192A3.507,3.507,0,0,0,17.5-1.552,6.057,6.057,0,0,0,18.624-5.6Zm12.928-5.392q0,.128-.3.144a1.677,1.677,0,0,0-.944.208,2.163,2.163,0,0,0-.5.9l-.544,1.488Q27.3-2.864,26.5.016q-.048.192-.16.192-.128,0-.528-1.2-.72-2.192-1.12-3.3Q24.256-5.5,23.408-7.92l-.768-2.16a1.347,1.347,0,0,0-.352-.6,1.111,1.111,0,0,0-.64-.168q-.528-.016-.632-.032a.114.114,0,0,1-.1-.128q0-.144.32-.144h.144q.288,0,1,.024t1.016.024q.08,0,.616-.024t1.528-.024h.224q.288,0,.288.16,0,.176-.576.192l-.976.032q-.336.016-.336.208a.524.524,0,0,0,.032.128l.128.416q.032.128,1.552,4.512l.976,2.864q2.64-7.472,2.64-7.856t-.784-.352l-.5.016q-.192,0-.192-.128,0-.16.48-.16h.544q.448.016.656.016h.512l1.056-.016Q31.552-11.12,31.552-10.992ZM35.824-.128q0,.128-.192.128h-.16A20.481,20.481,0,0,0,33.3-.048q-.4,0-.8.032Q32.288,0,31.856,0q-.208,0-.208-.144,0-.128.416-.144.64-.016.752-.152a2.035,2.035,0,0,0,.112-.92V-9.776a2.369,2.369,0,0,0-.08-.88q-.1-.16-.88-.192-.3-.016-.3-.128,0-.144.192-.144l2.16.032q.24,0,.928-.016l.608-.016q.256,0,.256.144,0,.128-.7.16-.4.016-.488.144a1.5,1.5,0,0,0-.088.672v8.544a2.826,2.826,0,0,0,.08.992,1.889,1.889,0,0,0,1.04.208Q35.824-.256,35.824-.128Zm10.144-3.44q0-.032-.032.432-.064.928-.064,1.792,0,.1.032.392a6.756,6.756,0,0,1,.032.712V-.1q0,.208-.128.208t-.224-.24a1.646,1.646,0,0,0-.448-.688A4.061,4.061,0,0,1,42.368.192a5.123,5.123,0,0,1-3.9-1.64,5.8,5.8,0,0,1-1.544-4.136,5.944,5.944,0,0,1,1.416-4.1A4.668,4.668,0,0,1,42-11.28a5.027,5.027,0,0,1,1.3.136,5.509,5.509,0,0,1,1.208.552,1.21,1.21,0,0,0,.528.208q.144,0,.272-.256.208-.448.336-.448a.113.113,0,0,1,.128.128,1.1,1.1,0,0,1-.032.208,15.333,15.333,0,0,0-.176,2.88.688.688,0,0,1-.048.352.173.173,0,0,1-.128.048q-.16,0-.208-.3a5.412,5.412,0,0,0-.592-1.9,2.679,2.679,0,0,0-2.464-1.28,2.575,2.575,0,0,0-2.048.864,6.7,6.7,0,0,0-1.36,4.544,6.719,6.719,0,0,0,1.12,4.144,3.1,3.1,0,0,0,2.592,1.28,2.924,2.924,0,0,0,1.52-.408,2.752,2.752,0,0,0,1.056-1.112A6.446,6.446,0,0,0,45.6-3.424q.064-.384.208-.384Q45.968-3.808,45.968-3.568Zm9.712.976q0,.064-.032.784T55.616-.432V.1q-1.568-.08-6.208-.08-.56,0-1.1.016h-.9q-.3,0-.3-.144a.1.1,0,0,1,.1-.112q.048,0,.608-.048.416-.032.5-.176A1.869,1.869,0,0,0,48.4-1.2v-8.992q0-.464-.136-.552a2.329,2.329,0,0,0-.872-.088q-.256,0-.256-.144t.352-.144l2.736.016,1.808-.016h2.24a5.589,5.589,0,0,0,.88-.064q.032.688.144,1.9l.064.688a1.1,1.1,0,0,1,.016.208q0,.16-.144.16-.176,0-.256-.4a2.59,2.59,0,0,0-.992-1.824,7.24,7.24,0,0,0-2.688-.288H49.984v4.688h.384a5.016,5.016,0,0,0,2.184-.272q.392-.272.536-1.584.032-.336.176-.336.176,0,.176.288t-.032.848q-.032.56-.032.848,0,1.712.064,2.352.016.16.016.272,0,.208-.176.208-.112,0-.152-.136t-.136-.888a1.272,1.272,0,0,0-.784-1.168,6.671,6.671,0,0,0-1.5-.1h-.72V-.336A30.5,30.5,0,0,0,54.112-.48q1.056-.24,1.2-2.048.032-.4.208-.4Q55.68-2.928,55.68-2.592Z" transform="translate(406 -28)" fill="#222"/>
  </g>
</svg>
