<svg xmlns="http://www.w3.org/2000/svg" width="180" height="46" viewBox="0 0 180 46">
  <g id="more" transform="translate(-600 -3626)">
    <g id="長方形_7437" data-name="長方形 7437" transform="translate(600 3626)" fill="#222" stroke="#222" stroke-width="1">
      <rect width="180" height="46" stroke="none"/>
      <rect x="0.5" y="0.5" width="179" height="45" fill="none"/>
    </g>
    <path id="keyboard_arrow_down_24dp_5F6368_FILL0_wght400_GRAD0_opsz24" d="M246.39-632.119l-6.39-6.39L241.491-640l4.9,4.9,4.9-4.9,1.491,1.491Z" transform="translate(476.859 4286.06)" fill="#fff"/>
    <path id="パス_8339" data-name="パス 8339" d="M1.18-11.477H3.406l3.3,9.7,3.273-9.7h2.2V0H10.7V-6.773q0-.352.016-1.164t.016-1.742L7.461,0H5.922l-3.3-9.68v.352q0,.422.02,1.285t.02,1.27V0H1.18Zm18.32-.312A5.254,5.254,0,0,1,24-9.836a6.329,6.329,0,0,1,1.141,3.9,6.822,6.822,0,0,1-1.3,4.273,5.174,5.174,0,0,1-4.367,2A5.22,5.22,0,0,1,15.3-1.414,6.608,6.608,0,0,1,13.953-5.68a6.784,6.784,0,0,1,1.156-3.984A5.009,5.009,0,0,1,19.5-11.789Zm.156,10.734a3.237,3.237,0,0,0,2.973-1.473,6.268,6.268,0,0,0,.918-3.387,4.831,4.831,0,0,0-1.059-3.258,3.613,3.613,0,0,0-2.895-1.234,3.769,3.769,0,0,0-2.906,1.223,5.153,5.153,0,0,0-1.125,3.605,5.268,5.268,0,0,0,.965,3.215A3.629,3.629,0,0,0,19.656-1.055ZM32.328-6.219a3.013,3.013,0,0,0,1.73-.437A1.781,1.781,0,0,0,34.7-8.234,1.693,1.693,0,0,0,33.8-9.906a2.911,2.911,0,0,0-1.273-.234h-3.8v3.922ZM27.18-11.477h5.313a5.3,5.3,0,0,1,2.164.383,2.71,2.71,0,0,1,1.617,2.711A3.048,3.048,0,0,1,35.848-6.7a3.077,3.077,0,0,1-1.191,1.055,2.348,2.348,0,0,1,1.012.719,2.581,2.581,0,0,1,.379,1.445L36.1-1.937a4.731,4.731,0,0,0,.109.977.96.96,0,0,0,.5.7V0H34.8a1.434,1.434,0,0,1-.125-.383,7.348,7.348,0,0,1-.078-.906L34.508-3.2a1.608,1.608,0,0,0-.836-1.508,3.458,3.458,0,0,0-1.4-.211H28.734V0H27.18Zm11.516,0h8.367v1.406H40.211v3.484h6.336v1.328H40.211v3.891H47.18V0H38.7Z" transform="translate(659 3655)" fill="#fff"/>
  </g>
</svg>
