<svg xmlns="http://www.w3.org/2000/svg" width="100" height="100" viewBox="0 0 100 100">
  <g id="グループ_457" data-name="グループ 457" transform="translate(-253 -2330)">
    <g id="楕円形_19" data-name="楕円形 19" transform="translate(253 2330)" fill="#fff" stroke="#727272" stroke-width="1">
      <circle cx="50" cy="50" r="50" stroke="none"/>
      <circle cx="50" cy="50" r="49.5" fill="none"/>
    </g>
    <path id="パス_8351" data-name="パス 8351" d="M-29.808.348a3.335,3.335,0,0,0-.258-.33,1.426,1.426,0,0,0-.318-.282,8.049,8.049,0,0,0,2.2-1.458A9.721,9.721,0,0,0-26.46-3.84,9.33,9.33,0,0,0-25.4-6.3h-5.628v.66q0,.384.006.774t.012.708q.006.318.018.486h-.8v-3.4l.768.03q.492.018,1.1.024t1.26.006V-9.5h.792V-7q.648-.012,1.224-.018t1-.018q.426-.012.618-.036l.528.276a9.492,9.492,0,0,1-.684,2.226,10.1,10.1,0,0,1-1.188,2A10.811,10.811,0,0,1-27.954-.888,9.13,9.13,0,0,1-29.808.348Zm6.1-7.2a5.215,5.215,0,0,0-.408-.558q-.252-.306-.522-.588a6.086,6.086,0,0,0-.486-.462l.408-.336a5.493,5.493,0,0,1,.486.468q.282.3.552.612a5.57,5.57,0,0,1,.414.528Zm.972-.852a3.941,3.941,0,0,0-.42-.546q-.264-.294-.546-.57a4.942,4.942,0,0,0-.51-.444l.408-.348a5.287,5.287,0,0,1,.5.45q.294.294.576.6a5.368,5.368,0,0,1,.426.51Zm5.9,7.944V-4.068A16.522,16.522,0,0,1-18.42-3.06q-.816.456-1.6.8a3.373,3.373,0,0,0-.18-.312,1.086,1.086,0,0,0-.228-.264,12.059,12.059,0,0,0,1.56-.72,16.411,16.411,0,0,0,1.608-1A14.422,14.422,0,0,0-15.81-5.712,7.239,7.239,0,0,0-14.748-6.9l.54.408a9.733,9.733,0,0,1-.9.99,14.116,14.116,0,0,1-1.068.93V.24Zm7.908-.792-.42-.756a12.26,12.26,0,0,0,1.77-.66,18.467,18.467,0,0,0,1.818-.96q.9-.54,1.716-1.146A16.235,16.235,0,0,0-2.568-5.3a11.179,11.179,0,0,0,1.1-1.188q.024.06.1.228t.168.33a2.421,2.421,0,0,1,.114.222A11.268,11.268,0,0,1-2.532-4.26,21.128,21.128,0,0,1-4.488-2.79,21.482,21.482,0,0,1-6.7-1.494,16.352,16.352,0,0,1-8.928-.552Zm1.584-5.364a4.109,4.109,0,0,0-.4-.36q-.276-.228-.612-.48t-.642-.456a3.474,3.474,0,0,0-.5-.288l.5-.648a5.377,5.377,0,0,1,.516.324q.312.216.648.456t.612.456a4.719,4.719,0,0,1,.4.336ZM2.688.18q-.036-.06-.138-.2t-.2-.282a1.071,1.071,0,0,0-.162-.186,5.042,5.042,0,0,0,2.472-1.74,5.131,5.131,0,0,0,.816-2.844L3.93-5.052q-.75.012-1.362.018t-1,.018Q1.188-5,1.128-5L1.1-5.76h.438q.39,0,1.02-.012t1.4-.018q.774-.006,1.6-.018l1.6-.024,1.41-.024q.636-.012,1.026-.024l.438-.012.012.756L9.45-5.13l-1.386.018-1.8.024a5.872,5.872,0,0,1-.918,3.246A5.9,5.9,0,0,1,2.688.18Zm.084-8.028L2.736-8.6,3.2-8.61l1.038-.018q.624-.012,1.314-.03t1.308-.03Q7.476-8.7,7.89-8.712l.462-.012.012.744L7.9-7.974,6.87-7.956q-.618.012-1.3.03t-1.3.03q-.618.012-1.026.024T2.772-7.848Zm9.312,3.7v-.78q.42,0,1.188.006L15-4.914q.96.006,1.98.006h1.968q.948,0,1.692-.006t1.128-.018v.78q-.4-.012-1.134-.018l-1.668-.012q-.93-.006-1.932-.006t-1.956.006l-1.734.012Q12.564-4.164,12.084-4.152ZM25.176-.3l-.408-.756A15.186,15.186,0,0,0,27-1.98a19.965,19.965,0,0,0,2.2-1.3A19.731,19.731,0,0,0,31.14-4.764a10.79,10.79,0,0,0,1.44-1.5,1.351,1.351,0,0,0,.084.246q.072.174.156.336t.12.222a12.645,12.645,0,0,1-1.47,1.446A21.182,21.182,0,0,1,29.562-2.58,23.272,23.272,0,0,1,27.4-1.3,18.959,18.959,0,0,1,25.176-.3Zm2.28-6.336a3.792,3.792,0,0,0-.36-.294q-.264-.2-.6-.42t-.63-.4a3.085,3.085,0,0,0-.45-.24l.432-.684q.192.108.492.3t.618.408q.318.216.582.4t.4.294Zm-1.536,2.4a3.412,3.412,0,0,0-.414-.282q-.27-.162-.6-.336t-.63-.312a4.328,4.328,0,0,0-.492-.2l.384-.708q.216.084.528.24t.636.33q.324.174.594.324a4.177,4.177,0,0,1,.4.246Zm5.592-2.736a5.181,5.181,0,0,0-.414-.54q-.258-.3-.54-.576a4.942,4.942,0,0,0-.51-.444l.408-.36a6.555,6.555,0,0,1,.492.462q.288.294.57.6a5.368,5.368,0,0,1,.426.51Zm.948-.876a5.319,5.319,0,0,0-.438-.534q-.27-.294-.558-.558a6.416,6.416,0,0,0-.516-.432l.384-.36a5.435,5.435,0,0,1,.516.438q.3.282.588.576a4.3,4.3,0,0,1,.432.5Z" transform="translate(303 2399)" fill="#222"/>
    <path id="パス_8350" data-name="パス 8350" d="M2.125-11.477,5.422-1.7,8.68-11.477h1.742L6.234,0H4.586L.406-11.477Zm10.117,0h1.57V0h-1.57Zm4.094,0h1.836l5.8,9.3v-9.3h1.477V0H23.7L17.82-9.289V0H16.336Zm19.906,0v1.367H32.375V0H30.8V-10.109H26.93v-1.367ZM42.375-4.7l-1.742-5.07L38.781-4.7ZM39.82-11.477h1.758L45.742,0h-1.7L42.875-3.437H38.336L37.094,0H35.5Zm12.3-.3a5.9,5.9,0,0,1,2.8.625A4.078,4.078,0,0,1,57.008-8H55.469A2.8,2.8,0,0,0,54.3-9.832a4.007,4.007,0,0,0-2.227-.574,3.489,3.489,0,0,0-2.684,1.2A5.13,5.13,0,0,0,48.3-5.648a5.692,5.692,0,0,0,.9,3.332,3.321,3.321,0,0,0,2.93,1.285,3.741,3.741,0,0,0,2.574-.9A3.777,3.777,0,0,0,55.75-4.852H52.156V-6.141H57.2V0h-1L55.82-1.477a5.894,5.894,0,0,1-1.4,1.2A5.242,5.242,0,0,1,51.82.3a5.069,5.069,0,0,1-3.508-1.32,6.266,6.266,0,0,1-1.6-4.547,6.521,6.521,0,0,1,1.563-4.586A4.967,4.967,0,0,1,52.117-11.773Zm7.633.3h8.367v1.406H61.266v3.484H67.6v1.328H61.266v3.891h6.969V0H59.75Z" transform="translate(268 2380)" fill="#222"/>
  </g>
</svg>
