<svg xmlns="http://www.w3.org/2000/svg" width="100" height="100" viewBox="0 0 100 100">
  <g id="グループ_253" data-name="グループ 253" transform="translate(-254 -2330)">
    <g id="楕円形_19" data-name="楕円形 19" transform="translate(254 2330)" fill="#fff" stroke="#727272" stroke-width="1">
      <circle cx="50" cy="50" r="50" stroke="none"/>
      <circle cx="50" cy="50" r="49.5" fill="none"/>
    </g>
    <path id="パス_8340" data-name="パス 8340" d="M-19.92-.3l-.408-.756A15.186,15.186,0,0,0-18.1-1.98a19.965,19.965,0,0,0,2.2-1.3A19.161,19.161,0,0,0-13.956-4.77a11.035,11.035,0,0,0,1.44-1.506q.024.072.1.246t.156.342q.084.168.108.228a12.645,12.645,0,0,1-1.47,1.446A21.182,21.182,0,0,1-15.534-2.58,23.272,23.272,0,0,1-17.694-1.3,18.959,18.959,0,0,1-19.92-.3Zm2.28-6.336A3.792,3.792,0,0,0-18-6.93q-.264-.2-.6-.42t-.63-.408A2.877,2.877,0,0,0-19.68-8l.432-.684q.192.108.492.306t.618.414q.318.216.582.4t.4.282Zm-1.536,2.388a3.412,3.412,0,0,0-.414-.282q-.27-.162-.594-.336t-.624-.312a3.869,3.869,0,0,0-.5-.2l.4-.7q.216.084.522.24l.63.324q.324.168.594.324l.414.24Zm10.248,3.7-.42-.756a12.26,12.26,0,0,0,1.77-.66,18.467,18.467,0,0,0,1.818-.96q.9-.54,1.716-1.146A16.235,16.235,0,0,0-2.568-5.3a11.179,11.179,0,0,0,1.1-1.188q.024.06.1.228t.168.33a2.421,2.421,0,0,1,.114.222A11.268,11.268,0,0,1-2.532-4.26,21.128,21.128,0,0,1-4.488-2.79,21.482,21.482,0,0,1-6.7-1.494,16.352,16.352,0,0,1-8.928-.552Zm1.584-5.364a4.109,4.109,0,0,0-.4-.36q-.276-.228-.612-.48t-.642-.456a3.474,3.474,0,0,0-.5-.288l.5-.648a5.377,5.377,0,0,1,.516.324q.312.216.648.456t.612.456a4.719,4.719,0,0,1,.4.336ZM2.88-.3a1.8,1.8,0,0,0-.114-.21,3.438,3.438,0,0,0-.2-.294A1.155,1.155,0,0,0,2.4-1a10.1,10.1,0,0,0,3.858-2.34,8.371,8.371,0,0,0,2.154-3.8l-1.194.03-1.512.036q-.8.018-1.554.042T2.8-7q-.594.012-.882.024l-.06-.852q.276.012.822.024t1.254.006q.708-.006,1.458-.018L6.84-7.836q.7-.012,1.224-.036T8.82-7.92l.516.288A9.62,9.62,0,0,1,7.08-3.09,10.714,10.714,0,0,1,2.88-.3Zm7.536-7.284A1.111,1.111,0,0,1,9.6-7.92a1.111,1.111,0,0,1-.336-.816A1.125,1.125,0,0,1,9.6-9.564a1.111,1.111,0,0,1,.816-.336,1.125,1.125,0,0,1,.828.336,1.125,1.125,0,0,1,.336.828,1.111,1.111,0,0,1-.336.816A1.125,1.125,0,0,1,10.416-7.584Zm0-.372a.772.772,0,0,0,.558-.228.742.742,0,0,0,.234-.552.742.742,0,0,0-.234-.552.772.772,0,0,0-.558-.228.752.752,0,0,0-.552.228.752.752,0,0,0-.228.552.752.752,0,0,0,.228.552A.752.752,0,0,0,10.416-7.956Zm7.068,6.9L17.052-1.4q.012-.18.018-.63t.006-1.014v-2q0-.444-.006-.99T17.064-7.1q0-.516-.012-.852h.8q0,.18-.006.534t-.012.786q-.006.432-.006.846v3.726q.5-.216,1.146-.552t1.29-.72q.648-.384,1.176-.738a5.434,5.434,0,0,0,.792-.618,1.394,1.394,0,0,0,.042.27q.042.186.1.354t.066.216a7.944,7.944,0,0,1-.792.576q-.48.312-1.05.642T19.452-2q-.576.306-1.086.552T17.484-1.056Zm-5.268.5a1.606,1.606,0,0,0-.144-.186q-.108-.126-.222-.252a1.12,1.12,0,0,0-.186-.174A5.879,5.879,0,0,0,13.65-2.79,4.663,4.663,0,0,0,14.52-4.9a8.588,8.588,0,0,0-.036-2.592l.744-.072a7.691,7.691,0,0,1-.318,4.092A6.132,6.132,0,0,1,12.216-.552Z" transform="translate(304 2399)" fill="#222"/>
    <path id="パス_8339" data-name="パス 8339" d="M-25.415-3.472a2.94,2.94,0,0,0,.432,1.487A2.864,2.864,0,0,0-22.427-.916a4.524,4.524,0,0,0,1.494-.234,1.66,1.66,0,0,0,1.3-1.626,1.4,1.4,0,0,0-.549-1.252,5.547,5.547,0,0,0-1.743-.637L-23.379-5a6.6,6.6,0,0,1-2.021-.71A2.251,2.251,0,0,1-26.426-7.72a3.1,3.1,0,0,1,1-2.38,4.026,4.026,0,0,1,2.842-.93,4.936,4.936,0,0,1,2.875.817A2.947,2.947,0,0,1-18.523-7.6h-1.37a2.7,2.7,0,0,0-.469-1.326,2.723,2.723,0,0,0-2.263-.842,2.618,2.618,0,0,0-1.853.542,1.7,1.7,0,0,0-.564,1.26,1.23,1.23,0,0,0,.659,1.157,9.673,9.673,0,0,0,1.956.586l1.509.344a4.623,4.623,0,0,1,1.685.681,2.551,2.551,0,0,1,1.025,2.19,2.734,2.734,0,0,1-1.3,2.556,5.822,5.822,0,0,1-3.021.769A4.518,4.518,0,0,1-25.671-.71a3.46,3.46,0,0,1-1.113-2.761Zm9.382-7.288h1.472V0h-1.472Zm3.8,0h2.087l3.091,9.1,3.069-9.1h2.065V0H-3.3V-6.35q0-.33.015-1.091t.015-1.633L-6.343,0H-7.786l-3.091-9.075v.33q0,.4.018,1.2t.018,1.19V0h-1.392Zm12.671,0H5.281A3.282,3.282,0,0,1,7.6-9.95a2.937,2.937,0,0,1,.879,2.274A3.306,3.306,0,0,1,7.69-5.482a2.969,2.969,0,0,1-2.41.934H1.9V0H.439ZM7-7.668A1.619,1.619,0,0,0,6.123-9.28,3.173,3.173,0,0,0,4.8-9.507H1.9v3.728H4.8A2.772,2.772,0,0,0,6.39-6.2,1.654,1.654,0,0,0,7-7.668Zm3.3-3.091h1.458v9.478h5.449V0H10.305Zm8.481,0h7.844v1.318H20.208v3.267h5.94v1.245h-5.94v3.647h6.533V0H18.787Z" transform="translate(303 2380)" fill="#222"/>
  </g>
</svg>
