<svg xmlns="http://www.w3.org/2000/svg" width="100" height="100" viewBox="0 0 100 100">
  <g id="グループ_251" data-name="グループ 251" transform="translate(-253 -2330)">
    <g id="楕円形_19" data-name="楕円形 19" transform="translate(253 2330)" fill="#fff" stroke="#727272" stroke-width="1">
      <circle cx="50" cy="50" r="50" stroke="none"/>
      <circle cx="50" cy="50" r="49.5" fill="none"/>
    </g>
    <path id="パス_8344" data-name="パス 8344" d="M-22.008-.84A2.174,2.174,0,0,1-23.226-1.1a1.092,1.092,0,0,1-.378-.96V-4.236h-1.134q-.618,0-1.194.006t-.96.006h-.444v-.744l.462.006.954.012q.564.006,1.182.006H-23.6V-7.02q-.492,0-1.026.006t-.924.006A4.224,4.224,0,0,0-26-7V-7.74l.36.006q.312.006.75.006t.906.006q.468.006.84.006h1.05q.354,0,.792-.006t.852-.006q.414,0,.7-.006l.33-.006V-7L-19.758-7q-.282-.006-.69-.006t-.84-.006q-.432-.006-.792-.006h-.744v2.076h1.662q.5,0,1.014-.006t.972-.006q.456,0,.75-.006l.33-.006v.744l-.342-.006q-.294-.006-.744-.006h-3.642V-2.28a.656.656,0,0,0,.186.528,1.3,1.3,0,0,0,.774.156q.48,0,1.02-.024t1.02-.072q.48-.048.78-.108a2.082,2.082,0,0,0-.03.216q-.018.168-.036.33t-.018.222q-.324.06-.828.1t-1.05.066Q-21.552-.84-22.008-.84Zm7.62.144q-.036-.06-.144-.2t-.216-.294a1.1,1.1,0,0,0-.168-.2A10.989,10.989,0,0,0-12.81-2.616a11.885,11.885,0,0,0,1.8-1.638A12.643,12.643,0,0,0-9.594-6.168,9.818,9.818,0,0,0-8.652-8.22l.78.288A12.066,12.066,0,0,1-9.342-5.07,13.6,13.6,0,0,1-11.58-2.556,12.317,12.317,0,0,1-14.388-.7ZM-1,.18v-9.3h.768V.18Zm4.32-3.66q-.348-.156-.828-.414t-1-.558q-.516-.3-.966-.594T-.2-5.556L.24-6.168q.288.216.738.5t.954.564q.5.282,1,.528t.864.39a1.578,1.578,0,0,0-.15.2q-.1.15-.192.3Zm3.12-.672v-.78q.42,0,1.188.006l1.728.012q.96.006,1.98.006h1.968q.948,0,1.692-.006t1.128-.018v.78q-.4-.012-1.134-.018l-1.668-.012q-.93-.006-1.932-.006t-1.956.006L7.7-4.17Q6.924-4.164,6.444-4.152Zm12.828,3.6-.42-.756a12.26,12.26,0,0,0,1.77-.66,18.467,18.467,0,0,0,1.818-.96q.9-.54,1.716-1.146A16.235,16.235,0,0,0,25.632-5.3a11.179,11.179,0,0,0,1.1-1.188q.024.06.1.228t.168.33a2.42,2.42,0,0,1,.114.222A11.268,11.268,0,0,1,25.668-4.26a21.128,21.128,0,0,1-1.956,1.47,21.482,21.482,0,0,1-2.214,1.3A16.352,16.352,0,0,1,19.272-.552Zm1.584-5.364a4.109,4.109,0,0,0-.4-.36q-.276-.228-.612-.48t-.642-.456a3.474,3.474,0,0,0-.5-.288l.5-.648a5.377,5.377,0,0,1,.516.324q.312.216.648.456t.612.456a4.719,4.719,0,0,1,.4.336Z" transform="translate(303 2399)" fill="#222"/>
    <path id="パス_8343" data-name="パス 8343" d="M-42.429-11.477H-40.2l3.3,9.7,3.273-9.7h2.2V0h-1.477V-6.773q0-.352.016-1.164t.016-1.742L-36.148,0h-1.539l-3.3-9.68v.352q0,.422.02,1.285t.02,1.27V0h-1.484Zm17.36-.312a5.254,5.254,0,0,1,4.5,1.953,6.329,6.329,0,0,1,1.141,3.9,6.822,6.822,0,0,1-1.3,4.273,5.174,5.174,0,0,1-4.367,2,5.22,5.22,0,0,1-4.164-1.75A6.608,6.608,0,0,1-30.616-5.68a6.784,6.784,0,0,1,1.156-3.984A5.009,5.009,0,0,1-25.069-11.789Zm.156,10.734A3.237,3.237,0,0,0-21.94-2.527a6.268,6.268,0,0,0,.918-3.387A4.831,4.831,0,0,0-22.08-9.172a3.613,3.613,0,0,0-2.895-1.234,3.769,3.769,0,0,0-2.906,1.223,5.153,5.153,0,0,0-1.125,3.605,5.268,5.268,0,0,0,.965,3.215A3.629,3.629,0,0,0-24.912-1.055Zm6.376-10.422H-16.7l5.8,9.3v-9.3h1.477V0h-1.742l-5.883-9.289V0h-1.484Zm15.548-.312a5.254,5.254,0,0,1,4.5,1.953,6.329,6.329,0,0,1,1.141,3.9,6.822,6.822,0,0,1-1.3,4.273,5.174,5.174,0,0,1-4.367,2,5.22,5.22,0,0,1-4.164-1.75A6.608,6.608,0,0,1-8.536-5.68,6.784,6.784,0,0,1-7.379-9.664,5.009,5.009,0,0,1-2.989-11.789Zm.156,10.734A3.237,3.237,0,0,0,.14-2.527a6.268,6.268,0,0,0,.918-3.387A4.831,4.831,0,0,0,0-9.172,3.613,3.613,0,0,0-2.9-10.406,3.769,3.769,0,0,0-5.8-9.184,5.153,5.153,0,0,0-6.926-5.578a5.268,5.268,0,0,0,.965,3.215A3.629,3.629,0,0,0-2.833-1.055ZM11.9-11.477v1.367H8.028V0H6.45V-10.109H2.583v-1.367Zm5.134-.312a5.254,5.254,0,0,1,4.5,1.953,6.329,6.329,0,0,1,1.141,3.9,6.822,6.822,0,0,1-1.3,4.273A5.174,5.174,0,0,1,17,.336a5.22,5.22,0,0,1-4.164-1.75A6.608,6.608,0,0,1,11.482-5.68a6.784,6.784,0,0,1,1.156-3.984A5.009,5.009,0,0,1,17.029-11.789Zm.156,10.734a3.237,3.237,0,0,0,2.973-1.473,6.268,6.268,0,0,0,.918-3.387,4.831,4.831,0,0,0-1.059-3.258,3.613,3.613,0,0,0-2.895-1.234,3.769,3.769,0,0,0-2.906,1.223,5.153,5.153,0,0,0-1.125,3.605,5.268,5.268,0,0,0,.965,3.215A3.629,3.629,0,0,0,17.185-1.055Zm6.376-10.422H25.4l5.8,9.3v-9.3H32.67V0H30.928L25.045-9.289V0H23.561Zm10.743,0h8.367v1.406H35.82v3.484h6.336v1.328H35.82v3.891h6.969V0H34.3Z" transform="translate(303 2380)" fill="#222"/>
  </g>
</svg>
