<svg xmlns="http://www.w3.org/2000/svg" width="100" height="100" viewBox="0 0 100 100">
  <g id="グループ_255" data-name="グループ 255" transform="translate(-253 -2330)">
    <g id="楕円形_19" data-name="楕円形 19" transform="translate(253 2330)" fill="#fff" stroke="#727272" stroke-width="1">
      <circle cx="50" cy="50" r="50" stroke="none"/>
      <circle cx="50" cy="50" r="49.5" fill="none"/>
    </g>
    <path id="パス_8356" data-name="パス 8356" d="M-4.86-.444V-8.28H-.612V-.444ZM-8.388.864V-4.452a12.632,12.632,0,0,1-.678,1.1q-.378.552-.768,1.032a9.222,9.222,0,0,1-.738.816.934.934,0,0,0-.162-.144q-.126-.1-.252-.2a1.241,1.241,0,0,0-.174-.126,5.76,5.76,0,0,0,.756-.75q.4-.462.78-1a12,12,0,0,0,.7-1.1,7.67,7.67,0,0,0,.492-1.038h-2.436v-.708h2.484V-8.388a19.217,19.217,0,0,1-2.052.372,1.289,1.289,0,0,0-.072-.2l-.12-.288a1.391,1.391,0,0,0-.084-.18,10.542,10.542,0,0,0,1.086-.15q.618-.114,1.26-.27t1.206-.342a5.033,5.033,0,0,0,.9-.378l.444.624a8.4,8.4,0,0,1-.81.318q-.474.162-1,.306v2.016H-5.5v.708H-7.632v.624a8.233,8.233,0,0,0,.612.762q.36.4.78.786a7.722,7.722,0,0,0,.84.672l-.156.156q-.12.12-.228.24t-.144.168a10.7,10.7,0,0,1-.9-.828,8.855,8.855,0,0,1-.8-.948V.864Zm4.3-2.028H-1.38V-7.548H-4.092ZM8.388.564Q8.28.336,8.112.042t-.36-.594q-.468.084-1.164.192t-1.452.2q-.756.1-1.428.174T2.616.132L2.424-.576Q2.832-.588,3.582-.66T5.148-.816V-2.64H3.132V-5.832H5.148V-6.924q-.564.084-1.1.138t-.972.078q-.012-.06-.054-.2t-.084-.282a.838.838,0,0,0-.066-.18q.744-.024,1.608-.126t1.668-.252a13.64,13.64,0,0,0,1.368-.318l.42.612q-.408.12-.966.228t-1.158.2v1.188h1.98V-2.64H5.808V-.9l.846-.114q.4-.054.726-.1-.168-.24-.324-.45a4.5,4.5,0,0,0-.288-.354l.588-.336q.24.276.564.726t.618.918A8.64,8.64,0,0,1,9,.2a.791.791,0,0,0-.174.09Q8.7.372,8.568.45T8.388.564ZM.624.828A1.247,1.247,0,0,0,.45.7L.2.528A1.186,1.186,0,0,0,.012.42,6.582,6.582,0,0,0,.726-.618,5.987,5.987,0,0,0,1.218-1.83a8.8,8.8,0,0,0,.288-1.59q.09-.912.09-2.172,0-.684-.024-1.416T1.518-8.4q-.03-.66-.066-1.1h8.04q-.048.648-.084,1.788T9.372-5.148A13.745,13.745,0,0,0,9.654-2.13a5.172,5.172,0,0,0,.8,1.926,6.771,6.771,0,0,0,.312-.672,7.128,7.128,0,0,0,.252-.72q.048.024.18.1l.258.138q.126.066.162.09-.156.528-.354,1.02a6.731,6.731,0,0,1-.414.864.416.416,0,0,1-.336.252A.522.522,0,0,1,10.1.648,5.647,5.647,0,0,1,9.06-1.494a13.273,13.273,0,0,1-.42-3.654q0-1.284.018-2.184T8.7-8.82H2.22q.024.312.042.882t.03,1.212q.012.642.012,1.17A22,22,0,0,1,2.2-3.21,9.657,9.657,0,0,1,1.872-1.5,6.2,6.2,0,0,1,1.344-.228,7.692,7.692,0,0,1,.624.828ZM3.78-3.288H5.148v-1.9H3.78Zm2.028,0H7.14v-1.9H5.808Z" transform="translate(303 2409)" fill="#222"/>
    <path id="パス_8354" data-name="パス 8354" d="M-34.352-3.422a4.86,4.86,0,0,1-.43,2.258A3.132,3.132,0,0,1-37.812.3a3.519,3.519,0,0,1-2.2-.7,2.956,2.956,0,0,1-.914-2.488V-3.7h1.461v.82a2.073,2.073,0,0,0,.418,1.41A1.649,1.649,0,0,0-37.75-1a1.592,1.592,0,0,0,1.625-.852,5.543,5.543,0,0,0,.234-1.977v-7.648h1.539ZM-26.094-4.7l-1.742-5.07L-29.687-4.7Zm-2.555-6.773h1.758L-22.727,0h-1.7l-1.164-3.437h-4.539L-31.375,0h-1.594Zm7.484,0H-16a3.5,3.5,0,0,1,2.469.863,3.133,3.133,0,0,1,.938,2.426,3.527,3.527,0,0,1-.836,2.34,3.167,3.167,0,0,1-2.57,1h-3.609V0h-1.555Zm7,3.3A1.727,1.727,0,0,0-15.1-9.9a3.385,3.385,0,0,0-1.414-.242h-3.094v3.977h3.094a2.957,2.957,0,0,0,1.7-.445A1.765,1.765,0,0,0-14.164-8.18ZM-5.93-4.7l-1.742-5.07L-9.523-4.7Zm-2.555-6.773h1.758L-2.562,0h-1.7L-5.43-3.437H-9.969L-11.211,0H-12.8Zm7.336,0H.688l5.8,9.3v-9.3H7.961V0H6.219L.336-9.289V0H-1.148Zm11.7,0h8.367v1.406H12.07v3.484h6.336v1.328H12.07v3.891h6.969V0H10.555ZM22.094-3.7a3.136,3.136,0,0,0,.461,1.586A3.055,3.055,0,0,0,25.281-.977a4.826,4.826,0,0,0,1.594-.25,1.771,1.771,0,0,0,1.391-1.734A1.5,1.5,0,0,0,27.68-4.3a5.916,5.916,0,0,0-1.859-.68l-1.555-.352a7.04,7.04,0,0,1-2.156-.758,2.4,2.4,0,0,1-1.094-2.148,3.308,3.308,0,0,1,1.07-2.539,4.294,4.294,0,0,1,3.031-.992,5.265,5.265,0,0,1,3.066.871,3.144,3.144,0,0,1,1.262,2.785H27.984a2.876,2.876,0,0,0-.5-1.414,2.9,2.9,0,0,0-2.414-.9,2.793,2.793,0,0,0-1.977.578,1.809,1.809,0,0,0-.6,1.344,1.312,1.312,0,0,0,.7,1.234,10.318,10.318,0,0,0,2.086.625l1.609.367a4.931,4.931,0,0,1,1.8.727,2.721,2.721,0,0,1,1.094,2.336A2.916,2.916,0,0,1,28.395-.484a6.21,6.21,0,0,1-3.223.82A4.819,4.819,0,0,1,21.82-.758,3.69,3.69,0,0,1,20.633-3.7Zm9.8-7.773h8.367v1.406H33.414v3.484H39.75v1.328H33.414v3.891h6.969V0H31.9Z" transform="translate(303 2374)" fill="#222"/>
    <path id="パス_8355" data-name="パス 8355" d="M-23.109-3.7a3.136,3.136,0,0,0,.461,1.586A3.055,3.055,0,0,0-19.922-.977a4.826,4.826,0,0,0,1.594-.25,1.771,1.771,0,0,0,1.391-1.734A1.5,1.5,0,0,0-17.523-4.3a5.916,5.916,0,0,0-1.859-.68l-1.555-.352a7.04,7.04,0,0,1-2.156-.758,2.4,2.4,0,0,1-1.094-2.148,3.308,3.308,0,0,1,1.07-2.539,4.294,4.294,0,0,1,3.031-.992,5.265,5.265,0,0,1,3.066.871,3.144,3.144,0,0,1,1.262,2.785h-1.461a2.876,2.876,0,0,0-.5-1.414,2.9,2.9,0,0,0-2.414-.9,2.793,2.793,0,0,0-1.977.578,1.809,1.809,0,0,0-.6,1.344,1.312,1.312,0,0,0,.7,1.234,10.318,10.318,0,0,0,2.086.625l1.609.367a4.931,4.931,0,0,1,1.8.727,2.721,2.721,0,0,1,1.094,2.336A2.916,2.916,0,0,1-16.809-.484a6.21,6.21,0,0,1-3.223.82A4.819,4.819,0,0,1-23.383-.758,3.69,3.69,0,0,1-24.57-3.7ZM-5.1-11.477v1.367H-8.969V0h-1.578V-10.109h-3.867v-1.367Zm.531,0h1.813l3.3,5.516,3.3-5.516h1.82L1.32-4.625V0H-.234V-4.625Zm11.563,0H8.547V-1.367h5.813V0H6.992Zm9.047,0h8.367v1.406H17.555v3.484h6.336v1.328H17.555v3.891h6.969V0H16.039Z" transform="translate(303 2390)" fill="#222"/>
  </g>
</svg>
