<svg xmlns="http://www.w3.org/2000/svg" width="100" height="100" viewBox="0 0 100 100">
  <g id="グループ_250" data-name="グループ 250" transform="translate(-253 -2330)">
    <g id="楕円形_19" data-name="楕円形 19" transform="translate(253 2330)" fill="#fff" stroke="#727272" stroke-width="1">
      <circle cx="50" cy="50" r="50" stroke="none"/>
      <circle cx="50" cy="50" r="49.5" fill="none"/>
    </g>
    <path id="パス_8346" data-name="パス 8346" d="M-25.824.18a.95.95,0,0,0-.12-.21l-.192-.276a.943.943,0,0,0-.156-.186,5.82,5.82,0,0,0,2.676-1.842,5.243,5.243,0,0,0,.948-3.078h-2.97q-.63,0-1.014.006L-27.1-5.4l-.024-.768.45.006q.39.006,1.02.006h2.982V-9.1h.792v2.94h1.8q.84,0,1.386-.006l.618-.006V-5.4q-.06-.012-.606-.012h-3.21A6.028,6.028,0,0,1-22.9-1.992,6.527,6.527,0,0,1-25.824.18Zm11.28-.252a1.744,1.744,0,0,0-.1-.222q-.078-.15-.168-.294a1.218,1.218,0,0,0-.138-.192,5.338,5.338,0,0,0,2.664-1.434,3.793,3.793,0,0,0,.984-2.43q-.852.012-1.674.03l-1.488.03q-.666.012-1.086.024t-.48.012l-.06-.744a4.406,4.406,0,0,0,.48.006l1.1-.018L-13-5.334q.834-.018,1.71-.03V-7.536q-.756.12-1.524.2t-1.44.114a1.994,1.994,0,0,0-.06-.228q-.048-.156-.1-.306a.765.765,0,0,0-.084-.2q.72,0,1.554-.078t1.668-.216q.834-.138,1.566-.324a9.03,9.03,0,0,0,1.248-.4l.3.684a9.854,9.854,0,0,1-1.074.336q-.606.156-1.278.288v2.292q1-.024,1.866-.042t1.422-.036q.552-.018.612-.03v.768h-.45q-.39,0-1.026.012l-1.4.024q-.252.012-.51.018t-.522.006a4.508,4.508,0,0,1-1.11,2.886A6.1,6.1,0,0,1-14.544-.072ZM-3.624-1.32v-.648a3.393,3.393,0,0,0,.4.012q.336,0,.816.006t.99.006H.8L1.128-4.5q-.336.012-.822.024l-.99.024-.912.024q-.408.012-.6.012l-.036-.66q.168.012.582.018t.948,0Q-.168-5.064.36-5.076t.942-.03q.414-.018.57-.03l-.4,3.192q.48-.012.954-.012t.81-.006l.384-.006v.648a2.785,2.785,0,0,0-.366-.012q-.318,0-.774-.006t-.942-.006H-1.38q-.516,0-1.008.006t-.84.006A3.194,3.194,0,0,0-3.624-1.32ZM8.88.1a1.56,1.56,0,0,0-.114-.2q-.09-.144-.18-.294a1.16,1.16,0,0,0-.15-.21A9.3,9.3,0,0,0,12.12-2.574a7.01,7.01,0,0,0,1.992-3.078q-.5.024-1.224.066t-1.524.078L9.8-5.436q-.762.036-1.344.06L7.6-5.34l-.072-.8q.264.012.828.006t1.3-.03q.732-.024,1.518-.054t1.488-.06q.7-.03,1.212-.066t.678-.06L15-6.132A7.739,7.739,0,0,1,12.966-2.34,10.027,10.027,0,0,1,8.88.1ZM8.652-8.04V-8.8q.612.012,1.3.012h1.314q.6,0,1.29-.006T14-8.8v.756q-.756-.012-1.428-.012h-2.6Q9.252-8.052,8.652-8.04ZM23.124-1.056,22.692-1.4q.012-.18.018-.63t.006-1.014v-2q0-.444-.006-.99T22.7-7.1q0-.516-.012-.852h.8q0,.18-.006.534t-.012.786q-.006.432-.006.846v3.726q.5-.216,1.146-.552t1.29-.72q.648-.384,1.176-.738a5.434,5.434,0,0,0,.792-.618,1.394,1.394,0,0,0,.042.27q.042.186.1.354t.066.216a7.944,7.944,0,0,1-.792.576q-.48.312-1.05.642T25.092-2q-.576.306-1.086.552T23.124-1.056Zm-5.268.5a1.606,1.606,0,0,0-.144-.186Q17.6-.864,17.49-.99a1.12,1.12,0,0,0-.186-.174A5.879,5.879,0,0,0,19.29-2.79,4.663,4.663,0,0,0,20.16-4.9a8.587,8.587,0,0,0-.036-2.592l.744-.072a7.691,7.691,0,0,1-.318,4.092A6.132,6.132,0,0,1,17.856-.552Z" transform="translate(303 2399)" fill="#222"/>
    <path id="パス_8345" data-name="パス 8345" d="M-35.531-11.477H-33.7l5.8,9.3v-9.3h1.477V0h-1.742l-5.883-9.289V0h-1.484ZM-18.086-4.7l-1.742-5.07L-21.68-4.7Zm-2.555-6.773h1.758L-14.719,0h-1.7l-1.164-3.437h-4.539L-23.367,0h-1.594Zm14.508,0v1.367H-10V0h-1.578V-10.109h-3.867v-1.367Zm3.109,0v7.094A4.173,4.173,0,0,0-2.555-2.3,2.463,2.463,0,0,0-.211-1.055,2.753,2.753,0,0,0,2.477-2.406a4.3,4.3,0,0,0,.383-1.977v-7.094H4.438v6.445a7.457,7.457,0,0,1-.57,3.258Q2.82.3-.086.3T-4.031-1.773A7.457,7.457,0,0,1-4.6-5.031v-6.445Zm15.2,5.258a3.013,3.013,0,0,0,1.73-.437,1.781,1.781,0,0,0,.637-1.578,1.693,1.693,0,0,0-.891-1.672,2.911,2.911,0,0,0-1.273-.234h-3.8v3.922ZM7.031-11.477h5.313a5.3,5.3,0,0,1,2.164.383,2.71,2.71,0,0,1,1.617,2.711A3.049,3.049,0,0,1,15.7-6.7a3.077,3.077,0,0,1-1.191,1.055,2.348,2.348,0,0,1,1.012.719A2.581,2.581,0,0,1,15.9-3.477l.055,1.539a4.731,4.731,0,0,0,.109.977.96.96,0,0,0,.5.7V0H14.656a1.434,1.434,0,0,1-.125-.383,7.348,7.348,0,0,1-.078-.906L14.359-3.2a1.608,1.608,0,0,0-.836-1.508,3.458,3.458,0,0,0-1.4-.211H8.586V0H7.031ZM24.289-4.7l-1.742-5.07L20.7-4.7Zm-2.555-6.773h1.758L27.656,0h-1.7L24.789-3.437H20.25L19.008,0H17.414Zm7.336,0h1.555V-1.367h5.813V0H29.07Z" transform="translate(303 2380)" fill="#222"/>
  </g>
</svg>
