<svg xmlns="http://www.w3.org/2000/svg" width="98.336" height="97.089" viewBox="0 0 98.336 97.089">
  <g id="グループ_254" data-name="グループ 254" transform="translate(-254.266 -2330.211)">
    <g id="楕円形_19" data-name="楕円形 19" transform="translate(254.266 2330.211)" fill="#fff" stroke="#727272" stroke-width="1">
      <ellipse cx="49.168" cy="48.545" rx="49.168" ry="48.545" stroke="none"/>
      <ellipse cx="49.168" cy="48.545" rx="48.668" ry="48.045" fill="none"/>
    </g>
    <path id="パス_8353" data-name="パス 8353" d="M-24.12-.252a.883.883,0,0,0-.048-.228q-.048-.156-.1-.318a1.269,1.269,0,0,0-.09-.222,2.869,2.869,0,0,0,1.1-.162.619.619,0,0,0,.306-.618V-5.724h-.828q-.48,0-1,.006t-.972.006q-.456,0-.756.006l-.348.006v-.744l.348.006q.3.006.756.006h2.8V-8.7h.78v2.268h.8q.486,0,1.014-.006t1-.006h1.146V-5.7l-.366-.006q-.318-.006-.786-.006t-1-.006q-.528-.006-1.008-.006h-.8v4.032a1.589,1.589,0,0,1-.18.81,1.058,1.058,0,0,1-.6.45A4.386,4.386,0,0,1-24.12-.252Zm-2.808-1.26a1.225,1.225,0,0,0-.15-.18q-.114-.12-.234-.234a.7.7,0,0,0-.18-.138,5.869,5.869,0,0,0,.894-.672,7.222,7.222,0,0,0,.8-.846,5.548,5.548,0,0,0,.576-.858l.66.372a6.264,6.264,0,0,1-.624.924,8.537,8.537,0,0,1-.84.906A7.385,7.385,0,0,1-26.928-1.512Zm8.412-.108a9.239,9.239,0,0,0-.588-.81q-.36-.45-.768-.87a7.531,7.531,0,0,0-.78-.708l.54-.468a10.208,10.208,0,0,1,.8.726q.426.426.816.864a8.833,8.833,0,0,1,.618.762.908.908,0,0,0-.192.132l-.264.216Q-18.468-1.668-18.516-1.62Zm-.516-5.568a4.383,4.383,0,0,0-.4-.564q-.252-.312-.522-.6a5.607,5.607,0,0,0-.486-.468L-20-9.132a6.529,6.529,0,0,1,.474.474q.282.306.546.618a4.48,4.48,0,0,1,.4.528Zm.972-.828a4.823,4.823,0,0,0-.408-.552q-.252-.3-.528-.582a4.279,4.279,0,0,0-.5-.45l.42-.336a6.555,6.555,0,0,1,.492.462q.288.294.558.606t.414.516ZM-15.192.3a1.82,1.82,0,0,0-.126-.228L-15.492-.2a.7.7,0,0,0-.132-.168,13.654,13.654,0,0,0,2.73-1.458A13.639,13.639,0,0,0-10.608-3.8q-.444-.312-.894-.57t-.834-.438L-11.9-5.4q.42.192.882.462t.906.57a10.789,10.789,0,0,0,.888-1.254,11.5,11.5,0,0,0,.7-1.338l-.882.03-1.026.036-.93.03q-.414.012-.582.012a11.487,11.487,0,0,1-1.26,1.608,10.618,10.618,0,0,1-1.56,1.368q-.048-.06-.162-.174t-.222-.228a.934.934,0,0,0-.168-.15,9.665,9.665,0,0,0,1.608-1.38,10.584,10.584,0,0,0,1.308-1.71,8.5,8.5,0,0,0,.864-1.854l.744.24q-.156.408-.336.8t-.4.78q.4,0,.9-.012t1.014-.03q.51-.018.936-.036t.654-.042l.48.276a12.037,12.037,0,0,1-.84,1.812A14.291,14.291,0,0,1-9.48-3.936q.492.348.93.7a9.6,9.6,0,0,1,.75.666,1.731,1.731,0,0,0-.168.162q-.12.126-.228.258l-.156.192q-.312-.312-.738-.678t-.894-.714a13.013,13.013,0,0,1-2.352,2.076A16.393,16.393,0,0,1-15.192.3Zm10.74-2.532v-.8l.36.006q.3.006.756.006t.978.006q.522.006,1.014.006H1.422q.474,0,.966-.006t.924-.006q.432,0,.72-.006l.324-.006v.8l-.438-.006q-.39-.006-.948-.006T1.824-2.25Q1.236-2.256.756-2.256H-1.3q-.5,0-1.026.006t-1,.006q-.468,0-.774.006Zm1.236-4.14v-.8a2.629,2.629,0,0,0,.354.012q.306,0,.75.006t.9.006H.624q.336,0,.75-.006t.8-.006q.39,0,.66-.006l.306-.006v.8l-.312-.006q-.264-.006-.648-.006T1.392-6.39Q.984-6.4.648-6.4h-1q-.366,0-.828.006t-.912.006q-.45,0-.762.006ZM7.392-.2a2.755,2.755,0,0,0-.24-.336,1.548,1.548,0,0,0-.312-.3,6.54,6.54,0,0,0,2.6-1.92A7.4,7.4,0,0,0,10.86-5.916l-3.636.108-.072-.744.384-.006.876-.018,1.212-.03q.672-.018,1.38-.03.084-.576.126-1.2t.03-1.308l.792.012q0,.66-.036,1.278a11.235,11.235,0,0,1-.132,1.194q.876-.024,1.644-.048l1.266-.042q.5-.018.546-.018-.012.468-.078,1.116T15-4.308q-.1.7-.192,1.3t-.18.96a2.786,2.786,0,0,1-.474,1.158A1.43,1.43,0,0,1,13.3-.4a6.9,6.9,0,0,1-1.446.1,3.054,3.054,0,0,0-.1-.4,1.682,1.682,0,0,0-.168-.4,7.305,7.305,0,0,0,1.236-.024,1.073,1.073,0,0,0,.678-.318,1.844,1.844,0,0,0,.366-.81q.072-.3.156-.756t.162-.984q.078-.528.138-1.062t.1-.978l-2.76.084A8.675,8.675,0,0,1,10.17-2.472,7.664,7.664,0,0,1,7.392-.2Zm15.732-.852L22.692-1.4q.012-.18.018-.63t.006-1.014v-2q0-.444-.006-.99T22.7-7.1q0-.516-.012-.852h.8q0,.18-.006.534t-.012.786q-.006.432-.006.846v3.726q.5-.216,1.146-.552t1.29-.72q.648-.384,1.176-.738a5.434,5.434,0,0,0,.792-.618,1.394,1.394,0,0,0,.042.27q.042.186.1.354t.066.216a7.944,7.944,0,0,1-.792.576q-.48.312-1.05.642T25.092-2q-.576.306-1.086.552T23.124-1.056Zm-5.268.5a1.606,1.606,0,0,0-.144-.186Q17.6-.864,17.49-.99a1.12,1.12,0,0,0-.186-.174A5.879,5.879,0,0,0,19.29-2.79,4.663,4.663,0,0,0,20.16-4.9a8.587,8.587,0,0,0-.036-2.592l.744-.072a7.691,7.691,0,0,1-.318,4.092A6.132,6.132,0,0,1,17.856-.552Z" transform="translate(303 2399)" fill="#222"/>
    <path id="パス_8352" data-name="パス 8352" d="M-35.383-6.625A3.487,3.487,0,0,0-33.851-6.9a1.575,1.575,0,0,0,.859-1.547,1.491,1.491,0,0,0-.914-1.516,4.108,4.108,0,0,0-1.531-.219h-2.773v3.555Zm.523,5.3a2.365,2.365,0,0,0,2.039-.828,2.085,2.085,0,0,0,.383-1.266,1.684,1.684,0,0,0-1.117-1.7,4.229,4.229,0,0,0-1.57-.242h-3.086v4.039Zm-4.875-10.148h4.93a3.268,3.268,0,0,1,2.867,1.2,2.78,2.78,0,0,1,.5,1.641,2.583,2.583,0,0,1-.617,1.781,3.016,3.016,0,0,1-.922.672,3.9,3.9,0,0,1,1.32.758,2.75,2.75,0,0,1,.773,2.07,3.2,3.2,0,0,1-.7,2.008A3.916,3.916,0,0,1-34.883,0h-4.852Zm14.7-.312a5.254,5.254,0,0,1,4.5,1.953,6.329,6.329,0,0,1,1.141,3.9,6.822,6.822,0,0,1-1.3,4.273,5.174,5.174,0,0,1-4.367,2,5.22,5.22,0,0,1-4.164-1.75A6.608,6.608,0,0,1-30.577-5.68a6.784,6.784,0,0,1,1.156-3.984A5.009,5.009,0,0,1-25.03-11.789Zm.156,10.734A3.237,3.237,0,0,0-21.9-2.527a6.268,6.268,0,0,0,.918-3.387,4.831,4.831,0,0,0-1.059-3.258,3.613,3.613,0,0,0-2.895-1.234,3.769,3.769,0,0,0-2.906,1.223,5.153,5.153,0,0,0-1.125,3.605A5.268,5.268,0,0,0-28-2.363,3.629,3.629,0,0,0-24.874-1.055Zm14.727-10.422v1.367h-3.867V0h-1.578V-10.109h-3.867v-1.367ZM-4.974-4.7l-1.742-5.07L-8.567-4.7Zm-2.555-6.773H-5.77L-1.606,0h-1.7L-4.474-3.437H-9.013L-10.255,0h-1.594Zm6.376,0H.684l5.8,9.3v-9.3H7.957V0H6.215L.332-9.289V0H-1.152Zm10.946,0h1.57V0H9.794Zm7.97-.312a4.7,4.7,0,0,1,3.383,1.148,4.056,4.056,0,0,1,1.336,2.609H20.967a3.154,3.154,0,0,0-1.027-1.758,3.256,3.256,0,0,0-2.16-.648,3.464,3.464,0,0,0-2.738,1.191A5.431,5.431,0,0,0,14-5.594a5.3,5.3,0,0,0,.941,3.27A3.289,3.289,0,0,0,17.748-1.07a2.967,2.967,0,0,0,2.617-1.32,5.021,5.021,0,0,0,.711-1.828h1.516A5.179,5.179,0,0,1,21.248-1.18,4.781,4.781,0,0,1,17.56.3,4.867,4.867,0,0,1,14.2-.914a6.31,6.31,0,0,1-1.789-4.945,6.317,6.317,0,0,1,1.344-4.164A4.908,4.908,0,0,1,17.764-11.789ZM29.413-4.7l-1.742-5.07L25.819-4.7Zm-2.555-6.773h1.758L32.78,0h-1.7L29.913-3.437H25.374L24.132,0H22.538Zm6.376,0h1.555V-1.367H40.6V0H33.234Z" transform="translate(304 2380)" fill="#222"/>
  </g>
</svg>
