<svg xmlns="http://www.w3.org/2000/svg" width="82" height="82" viewBox="0 0 82 82">
  <g id="FREE" transform="translate(-100 -6559)">
    <path id="パス_2797" data-name="パス 2797" d="M41,0,31.936,7.184,20.5,5.488,16.251,16.25,5.489,20.5,7.183,31.937,0,41l7.183,9.063L5.488,61.5l10.763,4.245,4.243,10.762,11.442-1.695L41,82l9.063-7.184,11.441,1.7,4.244-10.763L76.51,61.505,74.816,50.063,82,41l-7.184-9.063L76.511,20.5,65.749,16.251,61.505,5.489,50.063,7.184Z" transform="translate(100 6559)" fill="#6393a8"/>
    <path id="パス_8338" data-name="パス 8338" d="M9.383-9.477H3.609v2.648H8.664v2H3.609V0H1.219V-11.5H9.383Zm6.5,4.961H13.4V0H11.047V-11.516H16.7a5.262,5.262,0,0,1,1.863.3,2.911,2.911,0,0,1,1.105.8,3.565,3.565,0,0,1,.594.969,3.157,3.157,0,0,1,.219,1.211,3.45,3.45,0,0,1-.414,1.613A2.314,2.314,0,0,1,18.7-5.5a2.15,2.15,0,0,1,1.129.91,3.789,3.789,0,0,1,.332,1.8v.773a5.916,5.916,0,0,0,.063,1.07.961.961,0,0,0,.438.656V0H18.008q-.109-.383-.156-.617a5.671,5.671,0,0,1-.1-.992l-.016-1.07a2.091,2.091,0,0,0-.4-1.469A2.135,2.135,0,0,0,15.883-4.516Zm1.461-2.094a1.283,1.283,0,0,0,.719-1.3,1.431,1.431,0,0,0-.7-1.406,2.628,2.628,0,0,0-1.172-.2H13.4v3.094h2.727A3.039,3.039,0,0,0,17.344-6.609ZM30.563-5.031H24.969V-2.07h6.375V0H22.617V-11.516h8.445v2.039H24.969v2.445h5.594Zm10.672,0H35.641V-2.07h6.375V0H33.289V-11.516h8.445v2.039H35.641v2.445h5.594Z" transform="translate(120 6606)" fill="#fff"/>
  </g>
</svg>
