<svg xmlns="http://www.w3.org/2000/svg" width="100" height="100" viewBox="0 0 100 100">
  <g id="グループ_257" data-name="グループ 257" transform="translate(-256 -2333)">
    <g id="楕円形_19" data-name="楕円形 19" transform="translate(256 2333)" fill="#fff" stroke="#727272" stroke-width="1">
      <circle cx="50" cy="50" r="50" stroke="none"/>
      <circle cx="50" cy="50" r="49.5" fill="none"/>
    </g>
    <path id="パス_8343" data-name="パス 8343" d="M-34.272.072V-5.76a23.469,23.469,0,0,1-2.142,1.374q-1.11.63-2.166,1.1a3.183,3.183,0,0,0-.228-.354,2.209,2.209,0,0,0-.288-.33,15.343,15.343,0,0,0,1.65-.732q.87-.444,1.734-1t1.662-1.17A15.773,15.773,0,0,0-32.6-8.13,9.07,9.07,0,0,0-31.524-9.4l.648.468A12.737,12.737,0,0,1-32.058-7.6a16.844,16.844,0,0,1-1.434,1.254V.072Zm6.384-.624-.42-.756a12.26,12.26,0,0,0,1.77-.66,18.467,18.467,0,0,0,1.818-.96q.9-.54,1.716-1.146A16.235,16.235,0,0,0-21.528-5.3a11.179,11.179,0,0,0,1.1-1.188q.024.06.1.228t.168.33a2.421,2.421,0,0,1,.114.222A11.268,11.268,0,0,1-21.492-4.26a21.128,21.128,0,0,1-1.956,1.47,21.482,21.482,0,0,1-2.214,1.3A16.352,16.352,0,0,1-27.888-.552ZM-26.3-5.916a4.109,4.109,0,0,0-.4-.36q-.276-.228-.612-.48t-.642-.456a3.474,3.474,0,0,0-.5-.288l.5-.648a5.377,5.377,0,0,1,.516.324q.312.216.648.456t.612.456a4.719,4.719,0,0,1,.4.336ZM-18.78.36a1.82,1.82,0,0,0-.126-.228l-.174-.276a.7.7,0,0,0-.132-.168,14.32,14.32,0,0,0,2.73-1.464A13.427,13.427,0,0,0-14.2-3.744q-.444-.312-.894-.576a8.019,8.019,0,0,0-.834-.432l.432-.6A15.632,15.632,0,0,1-13.7-4.32a11.074,11.074,0,0,0,.888-1.248,10.686,10.686,0,0,0,.7-1.344l-.882.03-1.026.036-.93.03q-.414.012-.582.012A11.487,11.487,0,0,1-16.8-5.2a11.188,11.188,0,0,1-1.56,1.38q-.048-.06-.162-.18l-.222-.234a.582.582,0,0,0-.168-.138A9.52,9.52,0,0,0-17.3-5.754,10.808,10.808,0,0,0-16-7.47a8.5,8.5,0,0,0,.864-1.854l.744.252q-.156.408-.336.8t-.4.78q.4,0,.9-.012t1.014-.03q.51-.018.936-.042l.654-.036.48.276a12.037,12.037,0,0,1-.84,1.812,13.486,13.486,0,0,1-1.092,1.632q.492.36.93.714a9.6,9.6,0,0,1,.75.666,1.731,1.731,0,0,0-.168.162q-.12.126-.228.258l-.156.192a9.887,9.887,0,0,0-.738-.684q-.426-.36-.894-.708a13.013,13.013,0,0,1-2.352,2.076A16.393,16.393,0,0,1-18.78.36ZM-9.264-7.9a4.492,4.492,0,0,0-.414-.552q-.258-.3-.534-.576a4.552,4.552,0,0,0-.5-.444l.408-.348a6.555,6.555,0,0,1,.492.462q.288.294.57.6a5.368,5.368,0,0,1,.426.51Zm-.972.84a4.383,4.383,0,0,0-.4-.564q-.252-.312-.522-.594a6.086,6.086,0,0,0-.486-.462L-11.22-9q.192.168.474.468t.546.612a6.068,6.068,0,0,1,.408.528Zm1.32,6.528q-.036-.06-.126-.2T-9.234-1a.8.8,0,0,0-.174-.186A12.278,12.278,0,0,0-7.524-2.226,14.791,14.791,0,0,0-5.718-3.642,14.147,14.147,0,0,0-4.164-5.31,9.4,9.4,0,0,0-3.036-7.1q-.516.036-1.218.078L-5.7-6.942q-.744.042-1.386.072t-1.038.054l-.1-.792q.276,0,.846-.018t1.29-.048q.72-.03,1.428-.066t1.272-.078q.564-.042.828-.078l.516.324a8.82,8.82,0,0,1-.768,1.6A12.373,12.373,0,0,1-3.9-4.452q.384.312.846.72t.924.852q.462.444.858.858t.66.738a1.888,1.888,0,0,0-.2.162l-.252.228a2,2,0,0,0-.186.186,8.3,8.3,0,0,0-.624-.756q-.384-.42-.828-.864t-.888-.858q-.444-.414-.8-.714A15.988,15.988,0,0,1-6.57-1.956,14.122,14.122,0,0,1-8.916-.528ZM3.924.18v-9.3h.768V.18Zm4.32-3.66q-.348-.156-.828-.414t-1-.558q-.516-.3-.966-.594t-.738-.51l.444-.612q.288.216.738.5t.954.564q.5.282,1,.528t.864.39a1.578,1.578,0,0,0-.15.2q-.1.15-.192.3ZM12.936.288a1.094,1.094,0,0,0-.126-.2q-.1-.138-.216-.276a1.414,1.414,0,0,0-.174-.186A6.114,6.114,0,0,0,15.21-2.6a6.571,6.571,0,0,0,.918-3.636V-7.554q0-.354-.006-.7t-.006-.588v-.294h.8V-6.24a8.512,8.512,0,0,1-.426,2.814A5.706,5.706,0,0,1,15.186-1.3,8.257,8.257,0,0,1,12.936.288ZM12.6-3.672a3.272,3.272,0,0,0,.006-.426q-.006-.39-.006-.984t-.006-1.254q-.006-.66-.018-1.248t-.018-.978q-.006-.39-.006-.426h.78v.432q0,.384.006.972t.012,1.236q.006.648.012,1.236t.018.978q.012.39.012.45Zm13.608-.84A1.457,1.457,0,0,0,25.95-4.8a2.005,2.005,0,0,0-.318-.24,7.038,7.038,0,0,0,.882-.726q.474-.45.924-.96a11.846,11.846,0,0,0,.774-.966l-1.17.03q-.7.018-1.518.048T23.88-7.56l-1.572.048-1.284.042q-.54.018-.78.03l-.024-.816q.336.012,1.02.012t1.566-.012q.882-.012,1.824-.036l1.8-.048q.858-.024,1.494-.054t.888-.066l.48.384a7.522,7.522,0,0,1-.594.93q-.366.5-.8,1t-.87.924A8.6,8.6,0,0,1,26.208-4.512ZM21.744.264A2.216,2.216,0,0,0,21.5-.042a1.746,1.746,0,0,0-.33-.282A5.786,5.786,0,0,0,23.484-2.9a8.771,8.771,0,0,0,.684-3.708h.792a9.677,9.677,0,0,1-.786,4.05A6.724,6.724,0,0,1,21.744.264ZM35-1.056,34.572-1.4q.012-.18.018-.63T34.6-3.048v-2q0-.444-.006-.99T34.584-7.1q0-.516-.012-.852h.8q0,.18-.006.534t-.012.786q-.006.432-.006.846v3.726q.5-.216,1.146-.552t1.29-.72q.648-.384,1.176-.738a5.434,5.434,0,0,0,.792-.618,1.394,1.394,0,0,0,.042.27q.042.186.1.354t.066.216a7.944,7.944,0,0,1-.792.576q-.48.312-1.05.642T36.972-2q-.576.306-1.086.552T35-1.056Zm-5.268.5a1.606,1.606,0,0,0-.144-.186q-.108-.126-.222-.252a1.12,1.12,0,0,0-.186-.174A5.879,5.879,0,0,0,31.17-2.79,4.663,4.663,0,0,0,32.04-4.9,8.588,8.588,0,0,0,32-7.488l.744-.072a7.691,7.691,0,0,1-.318,4.092A6.132,6.132,0,0,1,29.736-.552Z" transform="translate(306 2402)" fill="#222"/>
    <path id="パス_8342" data-name="パス 8342" d="M-41.672-11.477h1.57V0h-1.57Zm3.134,0H-36.7l5.8,9.3v-9.3h1.477V0h-1.742l-5.883-9.289V0h-1.484Zm15,10.148a4.3,4.3,0,0,0,1.3-.164,2.852,2.852,0,0,0,1.484-1.172,4.8,4.8,0,0,0,.664-1.781,6.794,6.794,0,0,0,.117-1.2,5.6,5.6,0,0,0-.848-3.312,3.131,3.131,0,0,0-2.73-1.18h-2.758v8.813Zm-4.336-10.148h4.648A4.381,4.381,0,0,1-19.553-9.8a6.193,6.193,0,0,1,1.164,3.883,7.736,7.736,0,0,1-.687,3.3A4.242,4.242,0,0,1-23.241,0h-4.633Zm12.212,0v7.094A4.173,4.173,0,0,0-15.193-2.3a2.463,2.463,0,0,0,2.344,1.25,2.753,2.753,0,0,0,2.688-1.352,4.3,4.3,0,0,0,.383-1.977v-7.094H-8.2v6.445a7.457,7.457,0,0,1-.57,3.258Q-9.818.3-12.724.3t-3.945-2.078a7.457,7.457,0,0,1-.57-3.258v-6.445ZM-5.739-3.7a3.136,3.136,0,0,0,.461,1.586A3.055,3.055,0,0,0-2.551-.977a4.826,4.826,0,0,0,1.594-.25A1.771,1.771,0,0,0,.433-2.961,1.5,1.5,0,0,0-.153-4.3a5.916,5.916,0,0,0-1.859-.68l-1.555-.352a7.04,7.04,0,0,1-2.156-.758A2.4,2.4,0,0,1-6.817-8.234a3.308,3.308,0,0,1,1.07-2.539,4.294,4.294,0,0,1,3.031-.992,5.265,5.265,0,0,1,3.066.871A3.144,3.144,0,0,1,1.613-8.109H.152a2.876,2.876,0,0,0-.5-1.414,2.9,2.9,0,0,0-2.414-.9,2.793,2.793,0,0,0-1.977.578A1.809,1.809,0,0,0-5.34-8.5a1.312,1.312,0,0,0,.7,1.234,10.318,10.318,0,0,0,2.086.625l1.609.367a4.931,4.931,0,0,1,1.8.727A2.721,2.721,0,0,1,1.949-3.211,2.916,2.916,0,0,1,.562-.484a6.21,6.21,0,0,1-3.223.82A4.819,4.819,0,0,1-6.012-.758,3.69,3.69,0,0,1-7.2-3.7Zm17.048-7.773v1.367H7.442V0H5.864V-10.109H2v-1.367Zm5.8,5.258a3.013,3.013,0,0,0,1.73-.437,1.781,1.781,0,0,0,.637-1.578,1.693,1.693,0,0,0-.891-1.672,2.911,2.911,0,0,0-1.273-.234h-3.8v3.922Zm-5.148-5.258h5.313a5.3,5.3,0,0,1,2.164.383,2.71,2.71,0,0,1,1.617,2.711A3.049,3.049,0,0,1,20.626-6.7a3.077,3.077,0,0,1-1.191,1.055,2.348,2.348,0,0,1,1.012.719,2.581,2.581,0,0,1,.379,1.445l.055,1.539a4.731,4.731,0,0,0,.109.977.96.96,0,0,0,.5.7V0H19.583a1.434,1.434,0,0,1-.125-.383,7.348,7.348,0,0,1-.078-.906L19.287-3.2a1.608,1.608,0,0,0-.836-1.508,3.458,3.458,0,0,0-1.4-.211H13.513V0H11.958Zm10.759,0h1.57V0h-1.57ZM31.742-4.7,30-9.773,28.148-4.7Zm-2.555-6.773h1.758L35.109,0h-1.7L32.242-3.437H27.7L26.46,0H24.867Zm6.376,0h1.555V-1.367H42.93V0H35.563Z" transform="translate(306 2383)" fill="#222"/>
  </g>
</svg>
