<svg xmlns="http://www.w3.org/2000/svg" width="100" height="100" viewBox="0 0 100 100">
  <g id="グループ_259" data-name="グループ 259" transform="translate(-363 -2330)">
    <g id="楕円形_20" data-name="楕円形 20" transform="translate(363 2330)" fill="#fff" stroke="#727272" stroke-width="1">
      <circle cx="50" cy="50" r="50" stroke="none"/>
      <circle cx="50" cy="50" r="49.5" fill="none"/>
    </g>
    <path id="パス_8341" data-name="パス 8341" d="M-9.276.468a1.409,1.409,0,0,1-.8-.192A.754.754,0,0,1-10.356-.4v-9.4h.768v3.936q.516-.252,1.11-.588t1.128-.7a8.24,8.24,0,0,0,.87-.66l.564.564a8.68,8.68,0,0,1-.738.546Q-7.092-6.4-7.6-6.1t-1.02.552q-.51.258-.966.438V-.7a.44.44,0,0,0,.108.324.58.58,0,0,0,.408.108h1.44A1.189,1.189,0,0,0-7-.408a.924.924,0,0,0,.342-.57,6.746,6.746,0,0,0,.162-1.266,2.331,2.331,0,0,0,.348.174q.216.09.372.138A5.727,5.727,0,0,1-6.06-.384,1.2,1.2,0,0,1-6.612.3a1.949,1.949,0,0,1-.852.168ZM-13,.684V-2.04q-.336.156-.792.354t-.936.39q-.48.192-.924.366t-.756.282l-.312-.7q.324-.1.822-.276t1.05-.4q.552-.222,1.044-.438t.8-.384V-5.952h-3.36V-6.72H-13V-9.792h.78V.684ZM-5.064-.444v-8.88H-.2v.708h-4.14v7.452H-.252v.72ZM-.9.936Q-.936.888-1.044.774T-1.266.546A.827.827,0,0,0-1.428.408,5.547,5.547,0,0,0,.858-1.8a6.724,6.724,0,0,0,.834-3.408V-6.564h.72v1.356a6.482,6.482,0,0,0,.852,3.384A5.709,5.709,0,0,0,5.568.36a1.865,1.865,0,0,0-.162.15A3.078,3.078,0,0,0,5.19.75a1.885,1.885,0,0,0-.138.186A6.468,6.468,0,0,1,3.09-.822a6.66,6.66,0,0,1-1.038-2.2,6.6,6.6,0,0,1-1.014,2.2A6.368,6.368,0,0,1-.9.936ZM3.7-4.356l-.186-.1q-.138-.072-.27-.144a.806.806,0,0,0-.192-.084q.192-.324.42-.762t.426-.864q.2-.426.318-.7H1.068A11.823,11.823,0,0,1,.534-5.76,9.51,9.51,0,0,1-.084-4.692,2.014,2.014,0,0,0-.27-4.806q-.138-.078-.276-.144a1,1,0,0,0-.2-.078,5.4,5.4,0,0,0,.618-1A14.454,14.454,0,0,0,.45-7.368q.27-.72.456-1.416A7.4,7.4,0,0,0,1.14-10.02l.756.132q-.108.516-.252,1.068T1.332-7.728H4.908l.3.252q-.156.42-.42.99t-.552,1.14Q3.948-4.776,3.7-4.356Zm-7.4,2.484q-.048-.036-.168-.12t-.24-.162a.708.708,0,0,0-.168-.09,10.186,10.186,0,0,0,.9-1.2A13.359,13.359,0,0,0-2.568-4.9a16.852,16.852,0,0,0-1.74-2.256l.528-.408q.372.408.762.918t.762,1.05q.264-.636.462-1.284a11.532,11.532,0,0,0,.318-1.308l.672.192A15.135,15.135,0,0,1-1.812-4.944q.456.7.852,1.338T-.3-2.484l-.156.1q-.12.078-.234.162t-.174.132q-.312-.576-.642-1.122t-.642-1.05q-.336.624-.72,1.224A12.977,12.977,0,0,1-3.708-1.872ZM14.028.564Q13.92.336,13.752.042t-.36-.594q-.468.084-1.164.192t-1.452.2q-.756.1-1.428.174T8.256.132L8.064-.576Q8.472-.588,9.222-.66t1.566-.156V-2.64H8.772V-5.832h2.016V-6.924q-.564.084-1.1.138t-.972.078q-.012-.06-.054-.2t-.084-.282a.838.838,0,0,0-.066-.18q.744-.024,1.608-.126t1.668-.252a13.64,13.64,0,0,0,1.368-.318l.42.612q-.408.12-.966.228t-1.158.2v1.188h1.98V-2.64h-1.98V-.9l.846-.114q.4-.054.726-.1-.168-.24-.324-.45a4.5,4.5,0,0,0-.288-.354L13-2.256q.24.276.564.726t.618.918A8.64,8.64,0,0,1,14.64.2a.791.791,0,0,0-.174.09q-.126.078-.258.156T14.028.564ZM6.264.828A1.247,1.247,0,0,0,6.09.7L5.838.528A1.186,1.186,0,0,0,5.652.42,6.582,6.582,0,0,0,6.366-.618,5.987,5.987,0,0,0,6.858-1.83a8.8,8.8,0,0,0,.288-1.59q.09-.912.09-2.172,0-.684-.024-1.416T7.158-8.4q-.03-.66-.066-1.1h8.04q-.048.648-.084,1.788t-.036,2.568a13.745,13.745,0,0,0,.282,3.018,5.172,5.172,0,0,0,.8,1.926A6.77,6.77,0,0,0,16.4-.876a7.128,7.128,0,0,0,.252-.72q.048.024.18.1l.258.138q.126.066.162.09Q17.1-.744,16.9-.252a6.731,6.731,0,0,1-.414.864.416.416,0,0,1-.336.252.522.522,0,0,1-.408-.216A5.647,5.647,0,0,1,14.7-1.494a13.273,13.273,0,0,1-.42-3.654q0-1.284.018-2.184T14.34-8.82H7.86q.024.312.042.882t.03,1.212q.012.642.012,1.17A22,22,0,0,1,7.836-3.21,9.657,9.657,0,0,1,7.512-1.5,6.2,6.2,0,0,1,6.984-.228,7.692,7.692,0,0,1,6.264.828ZM9.42-3.288h1.368v-1.9H9.42Zm2.028,0H12.78v-1.9H11.448Z" transform="translate(413 2409)" fill="#222"/>
    <path id="パス_8339" data-name="パス 8339" d="M-30.336-11.477H-28.5l5.8,9.3v-9.3h1.477V0h-1.742l-5.883-9.289V0h-1.484Zm16.508-.312a5.254,5.254,0,0,1,4.5,1.953,6.329,6.329,0,0,1,1.141,3.9,6.822,6.822,0,0,1-1.3,4.273,5.174,5.174,0,0,1-4.367,2,5.22,5.22,0,0,1-4.164-1.75A6.608,6.608,0,0,1-19.375-5.68a6.784,6.784,0,0,1,1.156-3.984A5.009,5.009,0,0,1-13.828-11.789Zm.156,10.734A3.237,3.237,0,0,0-10.7-2.527a6.268,6.268,0,0,0,.918-3.387A4.831,4.831,0,0,0-10.84-9.172a3.613,3.613,0,0,0-2.895-1.234,3.769,3.769,0,0,0-2.906,1.223,5.153,5.153,0,0,0-1.125,3.605A5.268,5.268,0,0,0-16.8-2.363,3.629,3.629,0,0,0-13.672-1.055ZM-1-6.219A3.013,3.013,0,0,0,.73-6.656a1.781,1.781,0,0,0,.637-1.578A1.693,1.693,0,0,0,.477-9.906,2.911,2.911,0,0,0-.8-10.141h-3.8v3.922Zm-5.148-5.258H-.836a5.3,5.3,0,0,1,2.164.383A2.71,2.71,0,0,1,2.945-8.383,3.049,3.049,0,0,1,2.52-6.7,3.077,3.077,0,0,1,1.328-5.641a2.348,2.348,0,0,1,1.012.719,2.581,2.581,0,0,1,.379,1.445l.055,1.539a4.731,4.731,0,0,0,.109.977.96.96,0,0,0,.5.7V0H1.477a1.434,1.434,0,0,1-.125-.383,7.348,7.348,0,0,1-.078-.906L1.18-3.2A1.608,1.608,0,0,0,.344-4.711a3.458,3.458,0,0,0-1.4-.211H-4.594V0H-6.148ZM9.625-1.328a4.3,4.3,0,0,0,1.3-.164,2.852,2.852,0,0,0,1.484-1.172,4.8,4.8,0,0,0,.664-1.781,6.794,6.794,0,0,0,.117-1.2,5.6,5.6,0,0,0-.848-3.312,3.131,3.131,0,0,0-2.73-1.18H6.852v8.813ZM5.289-11.477H9.938A4.381,4.381,0,0,1,13.609-9.8a6.193,6.193,0,0,1,1.164,3.883,7.736,7.736,0,0,1-.687,3.3A4.242,4.242,0,0,1,9.922,0H5.289Zm11.836,0H18.7V0h-1.57Zm8.93-.312a4.7,4.7,0,0,1,3.383,1.148,4.056,4.056,0,0,1,1.336,2.609H29.258A3.154,3.154,0,0,0,28.23-9.789a3.256,3.256,0,0,0-2.16-.648,3.464,3.464,0,0,0-2.738,1.191,5.431,5.431,0,0,0-1.043,3.652,5.3,5.3,0,0,0,.941,3.27A3.289,3.289,0,0,0,26.039-1.07a2.967,2.967,0,0,0,2.617-1.32,5.021,5.021,0,0,0,.711-1.828h1.516A5.179,5.179,0,0,1,29.539-1.18,4.781,4.781,0,0,1,25.852.3,4.867,4.867,0,0,1,22.492-.914,6.31,6.31,0,0,1,20.7-5.859a6.317,6.317,0,0,1,1.344-4.164A4.908,4.908,0,0,1,26.055-11.789Z" transform="translate(413 2374)" fill="#222"/>
    <path id="パス_8340" data-name="パス 8340" d="M-21.189-3.7a3.136,3.136,0,0,0,.461,1.586A3.055,3.055,0,0,0-18-.977a4.826,4.826,0,0,0,1.594-.25,1.771,1.771,0,0,0,1.391-1.734A1.5,1.5,0,0,0-15.6-4.3a5.916,5.916,0,0,0-1.859-.68l-1.555-.352a7.04,7.04,0,0,1-2.156-.758,2.4,2.4,0,0,1-1.094-2.148,3.308,3.308,0,0,1,1.07-2.539,4.294,4.294,0,0,1,3.031-.992,5.265,5.265,0,0,1,3.066.871,3.144,3.144,0,0,1,1.262,2.785H-15.3a2.876,2.876,0,0,0-.5-1.414,2.9,2.9,0,0,0-2.414-.9,2.793,2.793,0,0,0-1.977.578,1.809,1.809,0,0,0-.6,1.344,1.312,1.312,0,0,0,.7,1.234A10.318,10.318,0,0,0-18-6.641l1.609.367a4.931,4.931,0,0,1,1.8.727A2.721,2.721,0,0,1-13.5-3.211,2.916,2.916,0,0,1-14.889-.484a6.21,6.21,0,0,1-3.223.82A4.819,4.819,0,0,1-21.463-.758,3.69,3.69,0,0,1-22.65-3.7Zm17.048-7.773v1.367H-8.009V0H-9.587V-10.109h-3.867v-1.367Zm-.429,0h1.813l3.3,5.516,3.3-5.516h1.82L1.32-4.625V0H-.234V-4.625Zm10.6,0H7.587V-1.367H13.4V0H6.032Zm8.087,0h8.367v1.406H15.635v3.484h6.336v1.328H15.635v3.891H22.6V0H14.119Z" transform="translate(413 2390)" fill="#222"/>
  </g>
</svg>
