<svg xmlns="http://www.w3.org/2000/svg" width="100" height="100" viewBox="0 0 100 100">
  <g id="グループ_249" data-name="グループ 249" transform="translate(-253 -2330)">
    <g id="楕円形_19" data-name="楕円形 19" transform="translate(253 2330)" fill="#fff" stroke="#727272" stroke-width="1">
      <circle cx="50" cy="50" r="50" stroke="none"/>
      <circle cx="50" cy="50" r="49.5" fill="none"/>
    </g>
    <path id="パス_8342" data-name="パス 8342" d="M-10.728-.84A2.174,2.174,0,0,1-11.946-1.1a1.092,1.092,0,0,1-.378-.96V-4.236h-1.134q-.618,0-1.194.006t-.96.006h-.444v-.744l.462.006.954.012q.564.006,1.182.006h1.134V-7.02q-.492,0-1.026.006t-.924.006a4.224,4.224,0,0,0-.45.012V-7.74l.36.006q.312.006.75.006t.906.006q.468.006.84.006h1.05q.354,0,.792-.006t.852-.006q.414,0,.7-.006l.33-.006V-7L-8.478-7q-.282-.006-.69-.006t-.84-.006q-.432-.006-.792-.006h-.744v2.076h1.662q.5,0,1.014-.006t.972-.006q.456,0,.75-.006l.33-.006v.744l-.342-.006q-.294-.006-.744-.006h-3.642V-2.28a.656.656,0,0,0,.186.528,1.3,1.3,0,0,0,.774.156q.48,0,1.02-.024t1.02-.072q.48-.048.78-.108a2.083,2.083,0,0,0-.03.216q-.018.168-.036.33t-.018.222q-.324.06-.828.1t-1.05.066Q-10.272-.84-10.728-.84ZM-4.02.36A1.82,1.82,0,0,0-4.146.132L-4.32-.144a.7.7,0,0,0-.132-.168,14.32,14.32,0,0,0,2.73-1.464A13.427,13.427,0,0,0,.564-3.744Q.12-4.056-.33-4.32a8.019,8.019,0,0,0-.834-.432l.432-.6A15.632,15.632,0,0,1,1.056-4.32a11.074,11.074,0,0,0,.888-1.248,10.686,10.686,0,0,0,.7-1.344l-.882.03L.732-6.846l-.93.03Q-.612-6.8-.78-6.8A11.487,11.487,0,0,1-2.04-5.2,11.188,11.188,0,0,1-3.6-3.816q-.048-.06-.162-.18l-.222-.234a.582.582,0,0,0-.168-.138A9.52,9.52,0,0,0-2.544-5.754,10.809,10.809,0,0,0-1.236-7.47,8.5,8.5,0,0,0-.372-9.324l.744.252q-.156.408-.336.8t-.4.78q.4,0,.9-.012t1.014-.03q.51-.018.936-.042l.654-.036.48.276a12.037,12.037,0,0,1-.84,1.812A13.486,13.486,0,0,1,1.692-3.888q.492.36.93.714a9.6,9.6,0,0,1,.75.666,1.731,1.731,0,0,0-.168.162q-.12.126-.228.258L2.82-1.9a9.887,9.887,0,0,0-.738-.684q-.426-.36-.894-.708A13.013,13.013,0,0,1-1.164-1.212,16.393,16.393,0,0,1-4.02.36ZM5.5-7.9a4.492,4.492,0,0,0-.414-.552q-.258-.3-.534-.576a4.552,4.552,0,0,0-.5-.444l.408-.348a6.555,6.555,0,0,1,.492.462q.288.294.57.6a5.368,5.368,0,0,1,.426.51Zm-.972.84a4.383,4.383,0,0,0-.4-.564q-.252-.312-.522-.594a6.086,6.086,0,0,0-.486-.462L3.54-9q.192.168.474.468t.546.612a6.068,6.068,0,0,1,.408.528Zm3.468,6.5-.42-.756a12.26,12.26,0,0,0,1.77-.66,18.467,18.467,0,0,0,1.818-.96q.9-.54,1.716-1.146A16.235,16.235,0,0,0,14.352-5.3a11.179,11.179,0,0,0,1.1-1.188q.024.06.1.228t.168.33a2.421,2.421,0,0,1,.114.222A11.268,11.268,0,0,1,14.388-4.26a21.128,21.128,0,0,1-1.956,1.47,21.482,21.482,0,0,1-2.214,1.3A16.352,16.352,0,0,1,7.992-.552ZM9.576-5.916a4.109,4.109,0,0,0-.4-.36Q8.9-6.5,8.568-6.756t-.642-.456a3.474,3.474,0,0,0-.5-.288l.5-.648a5.377,5.377,0,0,1,.516.324q.312.216.648.456t.612.456a4.719,4.719,0,0,1,.4.336Z" transform="translate(303 2398)" fill="#222"/>
    <path id="パス_8341" data-name="パス 8341" d="M-32.227-10.759h2.087l3.091,9.1,3.069-9.1h2.065V0H-23.3V-6.35q0-.33.015-1.091t.015-1.633L-26.338,0h-1.443l-3.091-9.075v.33q0,.4.018,1.2t.018,1.19V0h-1.392Zm17.175-.293a4.926,4.926,0,0,1,4.219,1.831A5.934,5.934,0,0,1-9.763-5.566,6.4,6.4,0,0,1-10.986-1.56,4.851,4.851,0,0,1-15.081.315a4.894,4.894,0,0,1-3.9-1.641,6.2,6.2,0,0,1-1.267-4A6.36,6.36,0,0,1-19.167-9.06,4.7,4.7,0,0,1-15.051-11.052ZM-14.9-.989a3.034,3.034,0,0,0,2.787-1.381,5.876,5.876,0,0,0,.861-3.175A4.529,4.529,0,0,0-12.25-8.6a3.387,3.387,0,0,0-2.714-1.157A3.534,3.534,0,0,0-17.688-8.61a4.831,4.831,0,0,0-1.055,3.38,4.938,4.938,0,0,0,.9,3.014A3.4,3.4,0,0,0-14.9-.989ZM-3.9-1.245A4.028,4.028,0,0,0-2.681-1.4,2.674,2.674,0,0,0-1.289-2.5a4.5,4.5,0,0,0,.623-1.67A6.37,6.37,0,0,0-.557-5.3,5.253,5.253,0,0,0-1.351-8.4a2.936,2.936,0,0,0-2.56-1.106H-6.5v8.262Zm-4.065-9.514H-3.6A4.108,4.108,0,0,1-.161-9.185,5.806,5.806,0,0,1,.93-5.544a7.253,7.253,0,0,1-.645,3.1A3.977,3.977,0,0,1-3.618,0H-7.961Zm10.906,0h7.844v1.318H4.365v3.267h5.94v1.245H4.365v3.647H10.9V0H2.944ZM17.813-5.83a2.825,2.825,0,0,0,1.622-.41,1.67,1.67,0,0,0,.6-1.479A1.587,1.587,0,0,0,19.2-9.287,2.729,2.729,0,0,0,18-9.507h-3.56V-5.83Zm-4.827-4.929h4.98A4.967,4.967,0,0,1,20-10.4a2.541,2.541,0,0,1,1.516,2.542,2.858,2.858,0,0,1-.4,1.582A2.884,2.884,0,0,1,20-5.288a2.2,2.2,0,0,1,.948.674A2.42,2.42,0,0,1,21.3-3.259l.051,1.443a4.436,4.436,0,0,0,.1.916.9.9,0,0,0,.469.659V0H20.134a1.344,1.344,0,0,1-.117-.359,6.889,6.889,0,0,1-.073-.85L19.856-3a1.508,1.508,0,0,0-.784-1.414,3.241,3.241,0,0,0-1.311-.2H14.443V0H12.986Zm10.657,0h1.721L30.8-2.043v-8.716h1.384V0H30.549L25.034-8.708V0H23.643Z" transform="translate(303 2380)" fill="#222"/>
  </g>
</svg>
