<svg xmlns="http://www.w3.org/2000/svg" width="517.137" height="83.308" viewBox="0 0 517.137 83.308">
  <g id="h2" transform="translate(-435 -1805)">
    <g id="グループ_499" data-name="グループ 499" transform="translate(425 1805)">
      <g id="グループ_526" data-name="グループ 526" transform="translate(5)">
        <path id="パス_2929" data-name="パス 2929" d="M77.3,6.447c2.99,0,6.23,1.547,6.23,4.933,0,3.511-3.258,5.077-6.23,5.707a8,8,0,0,0-1.332-1.855c2.017-.378,5.077-1.367,5.077-3.889a2.58,2.58,0,0,0-2.016-2.52,18.185,18.185,0,0,1-3.385,4.844c.108.34.216.647.342.953-.936.54-1.278.757-1.981,1.224a5.012,5.012,0,0,1-.289-.7,6,6,0,0,1-3.186,1.1c-1.6,0-2.322-1.153-2.322-2.649,0-2.844,2.2-5.076,4.663-6.156.036-.577.09-1.152.18-1.73-.54.037-1.08.054-1.512.054a13.453,13.453,0,0,1-1.909-.126L69.7,3.493a13.6,13.6,0,0,0,2.575.2c.36,0,.738,0,1.116-.018.234-1.044.505-2.088.829-3.114l2.394.755c.18.054.306.091.306.252,0,.2-.27.234-.414.252-.234.522-.432,1.063-.612,1.6A19.276,19.276,0,0,0,80.7,2.143l.4,2.142a31.322,31.322,0,0,1-5.744,1.224c-.072.361-.144.792-.2,1.17A10.764,10.764,0,0,1,77.3,6.447m-4.465,3.24c-1.1.756-2.395,2.2-2.395,3.618,0,.434.163.829.666.829a3.883,3.883,0,0,0,2.071-.972,24.714,24.714,0,0,1-.342-3.475m2.125-.666a16.887,16.887,0,0,0,.144,2.142,13.552,13.552,0,0,0,1.62-2.628,8.275,8.275,0,0,0-1.764.252Z" fill="#222"/>
        <path id="パス_2930" data-name="パス 2930" d="M94.939,2.592c-.018.343-.018.559-.018.792A14.007,14.007,0,0,0,94.993,4.9a28.219,28.219,0,0,1-3.025.649,38.52,38.52,0,0,1-4.087,8.66,13.978,13.978,0,0,0-2.269-.936,27.817,27.817,0,0,0,3.763-7.4c-.954.071-1.674.09-2.952.108L86.134,3.6a14.312,14.312,0,0,0,1.945.143c.666,0,1.35-.054,1.98-.109.27-1.024.505-2.07.685-3.132l2.412.756c.181.054.324.126.324.271s-.143.2-.36.215c-.126.4-.288.972-.432,1.5a19.816,19.816,0,0,0,2.251-.65M97.64,8.3a2.542,2.542,0,0,0-.738,1.819,11.233,11.233,0,0,0,.2,1.908,19.5,19.5,0,0,1,3.889,2.306,17.694,17.694,0,0,0-1.4,1.836,16.17,16.17,0,0,0-2.412-1.711c-.235,1.946-1.837,2.359-3.512,2.359-1.782,0-4.015-.685-4.015-2.826,0-1.928,1.729-2.737,3.421-2.737a9.13,9.13,0,0,1,1.566.143,14.822,14.822,0,0,1-.125-1.548,3.5,3.5,0,0,1,1.26-2.664Zm-4.394,4.773c-.54,0-1.386.252-1.386.918,0,.755,1.008.918,1.585.918,1.044,0,1.458-.378,1.512-1.405a3.767,3.767,0,0,0-1.711-.431M101.4,6.1a21.5,21.5,0,0,0-1.369,1.98,12.787,12.787,0,0,0-4.573-2.323L96.7,3.782A14.493,14.493,0,0,1,101.4,6.1" fill="#222"/>
        <path id="パス_2931" data-name="パス 2931" d="M108.491.63l2.629.612c.162.036.342.072.342.252s-.216.252-.36.271c-.162.612-.36,1.423-.5,2.052a14.119,14.119,0,0,0,3.313-.919l.288,2.4a28.484,28.484,0,0,1-4.232.882,41.754,41.754,0,0,1-4.789,10.713,18.819,18.819,0,0,0-2.3-1.17,29.265,29.265,0,0,0,4.573-9.183c-.99.09-2.107.126-3.565.144l-.18-2.521c.486.036,1.26.072,1.8.072.828,0,1.674-.036,2.52-.108.2-1.152.36-2.322.468-3.493m10.317,14.3a7.289,7.289,0,0,0,.108,1.26,21.97,21.97,0,0,1-3.763.324c-1.98,0-5.365-.2-5.365-2.881a5.117,5.117,0,0,1,.792-2.359l2,.739a2.287,2.287,0,0,0-.612,1.314c0,.937,2.071.972,3.025.972A13.706,13.706,0,0,0,118.9,13.7a9.348,9.348,0,0,0-.09,1.225m-.468-5.51a11.917,11.917,0,0,0-2.646-.288,30.994,30.994,0,0,0-3.89.306V7.166a23.3,23.3,0,0,1,4.034-.324,14.634,14.634,0,0,1,2.664.2,21.09,21.09,0,0,0-.162,2.377" fill="#222"/>
        <path id="パス_2932" data-name="パス 2932" d="M128.94,14.3a6.871,6.871,0,0,0,3.889-2.034,6,6,0,0,0,1.459-3.835,4.626,4.626,0,0,0-2.017-3.907,4.816,4.816,0,0,0-2.574-.792,23.648,23.648,0,0,1-2.539,9.183c-.5.917-1.369,2.358-2.557,2.358-1.476,0-3.781-2.467-3.781-5.491a8.319,8.319,0,0,1,2.7-5.87,8.5,8.5,0,0,1,5.906-2.377c4.015,0,7.274,2.755,7.274,6.9a8.07,8.07,0,0,1-2.125,5.455,9.6,9.6,0,0,1-4.051,2.558A10.829,10.829,0,0,0,128.94,14.3m-4.591-8.03a5.722,5.722,0,0,0-1.242,3.35c0,1.332.7,2.718,1.368,2.718.324,0,.541-.306.684-.558A17.31,17.31,0,0,0,126.2,9.309a17.3,17.3,0,0,0,.937-5.149,5.424,5.424,0,0,0-2.791,2.106" fill="#222"/>
        <path id="パス_2933" data-name="パス 2933" d="M142.061,12.027c.09.036.234.162.234.271,0,.179-.18.234-.486.252a19.085,19.085,0,0,1-2.359,4.015,7.141,7.141,0,0,0-1.818-1.171,11.07,11.07,0,0,0,2.376-4.231ZM139.81,1.1h13.144V9.561H139.81ZM145.3,2.845h-3.151V4.5H145.3Zm0,3.349h-3.151V7.868H145.3Zm-.486,4.717c.27.019.432.072.432.2s-.09.2-.432.378V14.1c0,.738.018.971.99.971h2.161c.954,0,1.188-.252,1.53-1.782a5.094,5.094,0,0,0,1.927.9,4.553,4.553,0,0,1-1.026,2.233,2.238,2.238,0,0,1-1.675.522h-3.907a2.573,2.573,0,0,1-1.657-.486,1.863,1.863,0,0,1-.5-1.513V10.713Zm3.151,2.665a11.488,11.488,0,0,0-2.575-2.539l1.4-1.386a19.968,19.968,0,0,1,2.718,2.521c-.54.468-1.044.918-1.548,1.4m2.79-10.731H147.48V4.5h3.277Zm-3.276,5.023h3.277V6.194h-3.277Zm7.526,6.338a10.685,10.685,0,0,0-1.566,1.566,13.848,13.848,0,0,0-2.917-3.457l1.656-1.35a16.064,16.064,0,0,1,2.827,3.241" fill="#222"/>
        <path id="パス_2934" data-name="パス 2934" d="M160.043,2.413c.27.071.378.126.378.288,0,.217-.216.252-.378.269a15.975,15.975,0,0,0-.954,5.367,7.429,7.429,0,0,0,.972,4.015.813.813,0,0,0,.577.4c.629,0,1.494-1.945,1.926-3.006a7.194,7.194,0,0,0,1.62,1.6c-.54,1.332-2.106,4.627-3.781,4.627a2.657,2.657,0,0,1-1.765-1.116,10.428,10.428,0,0,1-1.926-6.536,31.535,31.535,0,0,1,.846-6.626Zm8.949.233a17.99,17.99,0,0,1,3.6,9.129c-.81.307-1.675.7-2.5,1.117a16.131,16.131,0,0,0-3.1-8.984Z" fill="#222"/>
        <path id="パス_2935" data-name="パス 2935" d="M176.962.649,179.177.7c.2,0,.36.018.36.215,0,.145-.054.181-.4.379V3.692H180.6V2.738h2.3V.649l2.233.09c.144,0,.306.036.306.215,0,.163-.216.252-.45.325V2.738h1.837V.63L189.08.7c.144,0,.324.036.324.215,0,.235-.324.325-.5.379V2.738h2.413V4.592H188.9V6.285h-2.07V4.592h-1.837V6.285H182.9V4.592h-2.142V5.6h-1.621V8.139c.558-.2,1.081-.4,1.621-.648-.036.4-.054.9-.054,1.26,0,.234.018.5.036.7a16.316,16.316,0,0,1-1.6.755v4.682c0,1.98-1.188,2.179-2.863,2.179a2.176,2.176,0,0,1-.36-.019,6.258,6.258,0,0,0-.792-2.232,5.159,5.159,0,0,0,1.225.2c.593,0,.611-.252.611-.45V11.11c-.359.162-.936.414-1.3.54-.054.234-.126.54-.36.54-.18,0-.234-.162-.27-.342l-.414-2.215c.558-.126,1.782-.54,2.34-.738V5.6H174.91V3.692h2.052ZM183.3,17.087h-2.142V6.968h9.561V17.087h-2.071v-.738H183.3Zm1.729-8.264H183.3V10.7h1.729Zm0,3.745H183.3v1.891h1.729Zm3.619-3.745h-1.692V10.7h1.692Zm-1.692,5.635h1.692V12.567h-1.692Z" fill="#222"/>
        <path id="パス_2936" data-name="パス 2936" d="M204.686,1.854c.144.109.234.2.234.289,0,.144-.126.2-.252.2a2.222,2.222,0,0,1-.324-.036c-.468.4-1.494,1.279-2.16,1.873-.937.846-3.025,2.522-4.34,3.566-.432.34-.774.666-.774.883,0,.178.2.3,1.134.917a33.9,33.9,0,0,1,7.04,5.87,10.894,10.894,0,0,0-1.818,2.052c-1.423-2.125-5.96-5.725-7.868-6.915-1.4-.863-1.765-1.169-1.765-1.818a1.209,1.209,0,0,1,.5-.953c.45-.4.918-.775,1.387-1.134A44.661,44.661,0,0,0,202.507.2Z" fill="#222"/>
        <path id="パス_2937" data-name="パス 2937" d="M217.573,16.745H214.98V8.192a33.388,33.388,0,0,1-5.51,2.755,7.565,7.565,0,0,0-1.836-2.16A25.084,25.084,0,0,0,220.13.378l2.16,1.657a.35.35,0,0,1,.162.252c0,.162-.18.233-.324.233a1.018,1.018,0,0,1-.324-.053,30.123,30.123,0,0,1-4.231,3.924Z" fill="#222"/>
        <path id="パス_2938" data-name="パス 2938" d="M231.6,4.375A19.633,19.633,0,0,0,230.1,6.464,18.227,18.227,0,0,0,225.365,3.4l1.512-2.125a21.364,21.364,0,0,1,4.718,3.1m7.526-.216a10.467,10.467,0,0,0,1.566,2.106,25.134,25.134,0,0,1-13.053,9.957c-.036.235-.108.4-.288.4a.366.366,0,0,1-.288-.216L225.6,13.936a21.349,21.349,0,0,0,13.522-9.777" fill="#222"/>
        <path id="パス_2939" data-name="パス 2939" d="M249.6,14.3a9.159,9.159,0,0,1-4,2.558,7.986,7.986,0,0,0-1.819-1.909,7.945,7.945,0,0,0,4.267-2.575A6.635,6.635,0,0,0,249.2,8.463h-6.824v-2.2h15.3v2.2h-6.05A8.473,8.473,0,0,1,249.6,14.3m5.617-10.532H244.931V1.549h10.281Z" fill="#222"/>
        <path id="パス_2940" data-name="パス 2940" d="M263.886,1.332c.27.019.36.036.36.181,0,.126-.109.233-.36.342V10.57h-2.521V1.225Zm8.354-.323c.27.018.36.054.36.18,0,.2-.2.288-.36.341V7.364a9.954,9.954,0,0,1-1.422,5.492,11.281,11.281,0,0,1-5.564,4.16,4.573,4.573,0,0,0-1.584-1.963,9.286,9.286,0,0,0,4.735-3.062,7.242,7.242,0,0,0,1.278-4.609V.883Z" fill="#222"/>
        <path id="パス_2941" data-name="パス 2941" d="M289.556,2.107a2.755,2.755,0,0,0,1.008-.163l1.693,1.567c-.2.253-.342.45-.522.721a35.927,35.927,0,0,1-5.2,6.049,8.274,8.274,0,0,0-1.764-1.692,16.525,16.525,0,0,0,3.889-4.178H276.25v-2.3ZM284.875,5.42c.18.018.306.054.306.18,0,.162-.18.288-.306.36a17.588,17.588,0,0,1-.918,5.294,10.927,10.927,0,0,1-4.61,5.329,13.977,13.977,0,0,0-2.124-1.6,11.152,11.152,0,0,0,3.511-2.9,10.261,10.261,0,0,0,1.566-5.96c0-.288-.017-.666-.036-.864Z" fill="#222"/>
        <path id="パス_2942" data-name="パス 2942" d="M301.975,14.3a6.871,6.871,0,0,0,3.889-2.034,6,6,0,0,0,1.459-3.835,4.626,4.626,0,0,0-2.017-3.907,4.816,4.816,0,0,0-2.574-.792,23.648,23.648,0,0,1-2.539,9.183c-.5.917-1.369,2.358-2.557,2.358-1.476,0-3.781-2.467-3.781-5.491a8.319,8.319,0,0,1,2.7-5.87,8.5,8.5,0,0,1,5.906-2.377c4.015,0,7.274,2.755,7.274,6.9a8.07,8.07,0,0,1-2.125,5.455,9.6,9.6,0,0,1-4.051,2.558,10.83,10.83,0,0,0-1.585-2.144m-4.591-8.03a5.722,5.722,0,0,0-1.242,3.35c0,1.332.7,2.718,1.368,2.718.324,0,.54-.306.685-.558a17.423,17.423,0,0,0,1.043-2.467,17.3,17.3,0,0,0,.937-5.149,5.424,5.424,0,0,0-2.791,2.106" fill="#222"/>
        <path id="パス_2943" data-name="パス 2943" d="M312.467,14.584V12.226h10.75V5.51h-10.75V3.151h13.36V15.467h-2.61v-.883Z" fill="#222"/>
        <path id="パス_2944" data-name="パス 2944" d="M336.031,4.375a19.629,19.629,0,0,0-1.495,2.089A18.227,18.227,0,0,0,329.8,3.4l1.512-2.125a21.364,21.364,0,0,1,4.718,3.1m7.526-.216a10.467,10.467,0,0,0,1.566,2.106,25.134,25.134,0,0,1-13.053,9.957c-.036.235-.108.4-.288.4a.366.366,0,0,1-.288-.216l-1.459-2.467a21.349,21.349,0,0,0,13.522-9.777" fill="#222"/>
        <path id="パス_2945" data-name="パス 2945" d="M351.1,1.1l2.485.126c.252.018.36.054.36.2,0,.18-.2.252-.36.306V5.8l5.906-.738a4.42,4.42,0,0,0,1.3-.324l1.6,1.459a10.348,10.348,0,0,0-1.333,1.674C359.937,9.49,359,10.7,357.992,11.92a11.716,11.716,0,0,0-2.088-1.278,15.735,15.735,0,0,0,2.646-3.134l-4.969.631v4.195c0,1.477.378,1.71,2.088,1.71a46.283,46.283,0,0,0,5.744-.3,12.984,12.984,0,0,0-.27,2.5c-.792.017-3.043.053-4.807.053-.99,0-1.963-.017-2.161-.036a3.541,3.541,0,0,1-2.251-.792,3.623,3.623,0,0,1-.828-2.808v-4.2L346.955,9l-.216-2.358L351.1,6.1Z" fill="#222"/>
        <path id="パス_2946" data-name="パス 2946" d="M376.37,2.917a5.712,5.712,0,0,0,1.243-.126l1.8,1.494a3.343,3.343,0,0,0-.558.991c-2.467,5.887-4.249,8.444-10.011,11.451a9.225,9.225,0,0,0-1.872-1.872,15.2,15.2,0,0,0,9.146-9.687H364.793V2.917Zm4.862-1.242a1.675,1.675,0,0,1-3.349,0,1.674,1.674,0,1,1,3.349,0m-2.5,0a.837.837,0,1,0,.828-.847.838.838,0,0,0-.828.847" fill="#222"/>
        <path id="パス_2947" data-name="パス 2947" d="M388.339,5.636a27.4,27.4,0,0,1,6.5,4.357c-.612.649-1.188,1.3-1.729,1.963a25.273,25.273,0,0,0-5.689-4.033v8.786h-2.557V.918l2.557.145c.2.017.342.036.342.2,0,.144-.144.216-.342.27v5.4Z" fill="#222"/>
        <path id="パス_2948" data-name="パス 2948" d="M400.578,1.944a.253.253,0,0,1,.217.252c0,.217-.343.27-.505.288a26.692,26.692,0,0,0-1.026,7.148,16.628,16.628,0,0,0,.126,2.125c.306-.594.684-1.314.972-1.818a6.861,6.861,0,0,0,1.153,1.53,8.957,8.957,0,0,0-1.5,4.681l-2.053.4a25.643,25.643,0,0,1-.936-7.112,33.854,33.854,0,0,1,1.045-8.282Zm5.888-.846,2.737.45c.108.018.252.072.252.234,0,.2-.288.234-.432.253a23.5,23.5,0,0,0-.18,2.358,19.688,19.688,0,0,0,2.827-.7V6.013c-.954.235-1.909.433-2.881.595a34.046,34.046,0,0,0,.27,4.519,11.536,11.536,0,0,1,3.583,1.945,19.7,19.7,0,0,0-1.062,2.142,7.882,7.882,0,0,0-2.287-1.548c0,2.016-1.872,2.629-3.565,2.629-1.729,0-3.529-.865-3.529-2.828s2.017-2.79,3.709-2.79c.144,0,.45.018.756.054-.09-1.188-.18-2.593-.2-3.817-.846.072-1.692.126-2.539.126-.359,0-.936-.018-1.26-.036V4.591a19.507,19.507,0,0,0,2.251.126c.5,0,1.008-.018,1.53-.054,0-1.494,0-2.628.018-3.565m-.792,11.469c-.558,0-1.458.181-1.458.9,0,.631.738.865,1.26.865.72,0,1.512-.306,1.512-1.153a2.246,2.246,0,0,0-.036-.378,3.116,3.116,0,0,0-1.278-.234" fill="#222"/>
        <path id="パス_2949" data-name="パス 2949" d="M427.167,3.835l.955,2.683a23.8,23.8,0,0,0-6.338,1.819c-1.549.648-4.43,2.107-4.43,4.07a1.425,1.425,0,0,0,.991,1.349,10.65,10.65,0,0,0,3.709.469,18.607,18.607,0,0,0,6.032-.955,8.3,8.3,0,0,0-.235,1.873c0,.36,0,.594.019.847a33.554,33.554,0,0,1-6,.54,11.429,11.429,0,0,1-5.258-.937,3.421,3.421,0,0,1-1.909-3.043c0-2.358,2.053-3.925,3.908-5.006-.918-.918-1.117-2.25-1.332-4.05a8.842,8.842,0,0,0-.469-2.215L419.857.63a15.063,15.063,0,0,0-.108,1.837,8.419,8.419,0,0,0,.865,4.051c2.322-1.08,4.176-1.782,6.553-2.683m.7-1.17a4.9,4.9,0,0,0-1.3.81,11.14,11.14,0,0,0-1.26-1.89l1.224-.829a10.11,10.11,0,0,1,1.333,1.909m2.106-.522a4.529,4.529,0,0,0-1.278.811,11.006,11.006,0,0,0-1.279-1.873l1.225-.846a9.31,9.31,0,0,1,1.332,1.908" fill="#222"/>
        <path id="パス_2950" data-name="パス 2950" d="M437.083,4.051l1.08.865a4.18,4.18,0,0,0-.5,1.206c1.008-1.045,2.809-2.467,4.321-2.467a2.345,2.345,0,0,1,2.3,2.54,31.367,31.367,0,0,1-.4,3.654,19.533,19.533,0,0,0-.2,2.485c0,.432.126.99.684.99.81,0,1.836-1.062,2.323-1.656a12.436,12.436,0,0,0,.882,2.359,5.948,5.948,0,0,1-3.565,1.926c-1.872,0-2.7-1.638-2.7-3.3,0-.955.252-3.025.342-3.745.072-.576.162-1.549.162-1.926,0-.487-.18-.829-.7-.829-1.3,0-3.367,2.4-4.2,3.349a66.019,66.019,0,0,0,.288,7.292l-2.665.126c.126-1.242.126-2.538.126-3.8v-.7c-.828,1.278-1.368,2.089-1.908,2.863l-1.855-1.89a52.737,52.737,0,0,0,3.835-5.06l.018-.829a17.549,17.549,0,0,1-3.061.7l-.522-2.557a14.628,14.628,0,0,0,3.637-.594c.018-1.17.018-2.3.018-2.863,0-.378,0-.846-.018-1.476l2.287.2c.414.036.5.145.5.252,0,.181-.108.253-.4.324-.072.9-.126,1.6-.18,2.593Z" fill="#222"/>
        <path id="パス_2951" data-name="パス 2951" d="M449.646,3.061a5.642,5.642,0,0,1,4.61-1.926,5.814,5.814,0,0,1,3.853,1.224,3.306,3.306,0,0,1,1.116,2.467c0,1.6-1.134,2.521-2.323,3.367-1.1.774-1.836,1.314-1.836,2.593v.45h-2.449V10.192c0-1.5.684-2.035,2.467-3.367.612-.469,1.368-1.135,1.368-1.945,0-1.243-1.35-1.459-2.322-1.459-1.675,0-2.413.576-2.5,2.269h-2.791a4.677,4.677,0,0,1,.81-2.629m5.564,12.658h-2.737V12.892h2.737Z" fill="#222"/>
      </g>
      <g id="グループ_527" data-name="グループ 527" transform="translate(10)">
        <rect id="長方形_7576" data-name="長方形 7576" width="41.543" height="6.257" transform="translate(0 59.063)" fill="#222"/>
        <path id="パス_2952" data-name="パス 2952" d="M69.785,83.308H63.942V72.45a48.324,48.324,0,0,1-14.905,9.845,19.693,19.693,0,0,0-4.049-4.462,47.212,47.212,0,0,0,15.688-8.281H45.862V64.583h18.08V60.12l5.889.323c.368,0,1.058.046,1.058.551,0,.323-.138.414-1.1.967v2.622H88v4.969H73.281a40.2,40.2,0,0,0,15.136,7.774,10.294,10.294,0,0,0-3.174,4.693,41.861,41.861,0,0,1-15.458-9.845ZM88.187,58c-1.15,1.749-2.07,2.807-2.392,4.969-6.533-1.012-12.56-2.484-18.4-5.658a51.9,51.9,0,0,1-19.414,5.428,12.736,12.736,0,0,0-2.806-4.6,49.785,49.785,0,0,0,17.482-3.727,37.409,37.409,0,0,1-4.923-4,38.885,38.885,0,0,1-6.946,4.647,17.9,17.9,0,0,0-4.049-3.4c4.877-1.978,11.318-6.855,14.308-11.179l4.646,1.242c.368.092.736.275.736.644,0,.736-.92.782-1.426.782a7.168,7.168,0,0,1-.736.92H80l1.84,1.84a44.6,44.6,0,0,1-9.477,8.419A52.16,52.16,0,0,0,88.187,58m-15.5-9.661H62.608a37.844,37.844,0,0,0,4.969,3.589,39.216,39.216,0,0,0,5.106-3.589" fill="#222"/>
        <path id="パス_2953" data-name="パス 2953" d="M113.392,76.084a17.571,17.571,0,0,0,9.937-5.2,15.344,15.344,0,0,0,3.727-9.8A11.821,11.821,0,0,0,121.9,51.1a12.3,12.3,0,0,0-6.578-2.024c-.737,8.005-2.577,16.378-6.487,23.463-1.288,2.346-3.5,6.026-6.533,6.026-3.772,0-9.661-6.3-9.661-14.031a21.261,21.261,0,0,1,6.9-15,21.726,21.726,0,0,1,15.089-6.073c10.259,0,18.587,7.039,18.587,17.621a20.636,20.636,0,0,1-5.429,13.939c-2.9,3.312-6.349,4.969-10.351,6.532a27.675,27.675,0,0,0-4.049-5.474M101.661,55.566a14.606,14.606,0,0,0-3.174,8.557c0,3.4,1.794,6.946,3.5,6.946.828,0,1.38-.781,1.748-1.426a45.965,45.965,0,0,0,5.061-19.46,13.88,13.88,0,0,0-7.131,5.383" fill="#222"/>
        <path id="パス_2954" data-name="パス 2954" d="M163.349,82.341h-6.625V60.488a85.476,85.476,0,0,1-14.078,7.04,19.321,19.321,0,0,0-4.692-5.521,64.088,64.088,0,0,0,31.928-21.484l5.52,4.232a.894.894,0,0,1,.414.644c0,.414-.46.6-.828.6a2.632,2.632,0,0,1-.828-.137,76.97,76.97,0,0,1-10.811,10.028Z" fill="#6393a8"/>
        <path id="パス_2955" data-name="パス 2955" d="M199.183,50.736a49.639,49.639,0,0,0-3.819,5.337,46.637,46.637,0,0,0-12.1-7.822l3.864-5.428a54.5,54.5,0,0,1,12.054,7.913m19.23-.552a26.855,26.855,0,0,0,4,5.383c-8.189,12.467-19.46,20.426-33.354,25.44-.091.6-.275,1.012-.736,1.012a.934.934,0,0,1-.736-.552l-3.726-6.3c14.4-3.036,26.913-12.559,34.55-24.98" fill="#6393a8"/>
        <path id="パス_2956" data-name="パス 2956" d="M245.182,76.084a23.388,23.388,0,0,1-10.213,6.534,20.322,20.322,0,0,0-4.646-4.877c4-1.1,8.373-3.174,10.9-6.579,2.162-2.852,2.852-6.441,2.944-9.983H226.734V55.567h39.1v5.612H250.381c-.092,5.475-1.38,10.812-5.2,14.9m14.354-26.913H233.267V43.513h26.269Z" fill="#6393a8"/>
        <path id="パス_2957" data-name="パス 2957" d="M279.267,42.961c.69.046.92.092.92.46,0,.321-.276.6-.92.874V66.562h-6.441V42.685Zm21.347-.828c.69.046.92.138.92.46,0,.506-.506.735-.92.874V58.372c0,4.923-.92,9.846-3.635,14.032-3.4,5.336-8.511,8.235-14.215,10.627a11.689,11.689,0,0,0-4.049-5.014c4.693-1.519,9.064-3.819,12.1-7.822,2.668-3.5,3.266-7.544,3.266-11.777V41.811Z" fill="#6393a8"/>
        <path id="パス_2958" data-name="パス 2958" d="M344.038,44.938a7.043,7.043,0,0,0,2.577-.414l4.324,4c-.506.644-.874,1.15-1.334,1.84a91.864,91.864,0,0,1-13.3,15.458A21.143,21.143,0,0,0,331.8,61.5c4.37-3.635,6.763-5.843,9.937-10.674h-31.7V44.938ZM332.077,53.4c.46.047.782.139.782.461,0,.414-.46.735-.782.92a44.913,44.913,0,0,1-2.346,13.525,27.906,27.906,0,0,1-11.778,13.617,35.652,35.652,0,0,0-5.428-4.093,28.488,28.488,0,0,0,8.971-7.408c3.082-4.094,4-10.167,4-15.227,0-.736-.046-1.7-.092-2.209Z" fill="#6393a8"/>
        <path id="パス_2959" data-name="パス 2959" d="M392.891,75.532c-1.794,1.887-3.5,3.772-4.738,5.245a62.654,62.654,0,0,0-13.066-13.71c-4.37,5.521-11.915,11.593-18.4,14.354a17.076,17.076,0,0,0-4.37-5.383A40.8,40.8,0,0,0,377.3,50.413H356.547V44.57h23.371a12.273,12.273,0,0,0,3.174-.367l3.129,3.358a14.782,14.782,0,0,0-2.071,3.726,74.294,74.294,0,0,1-5.613,10.949,100.947,100.947,0,0,1,14.354,13.3" fill="#6393a8"/>
        <path id="パス_2960" data-name="パス 2960" d="M428.4,71.116c-1.242,1.518-2.76,3.542-3.865,5.2a36.219,36.219,0,0,0-4.462-5.106,45.2,45.2,0,0,1-17.666,11.685,27.662,27.662,0,0,0-4.233-5.337,38.977,38.977,0,0,0,17.3-10.305,78.126,78.126,0,0,0-8.28-5.475l3.726-4.232a90.966,90.966,0,0,1,8.051,5.06,37.981,37.981,0,0,0,3.956-8.419H410.92a51.856,51.856,0,0,1-10.167,10.858,30.465,30.465,0,0,0-4.877-4.187c7.131-4.646,12.1-11.915,15.182-19.69l6.165,1.978c.6.184.827.277.827.552,0,.414-.321.553-1.1.645q-1.172,2.207-2.484,4.416h10.95a8.8,8.8,0,0,0,3.082-.46l2.852,2.484a19.5,19.5,0,0,0-1.15,2.393c-1.978,4.922-3.5,8.741-6.4,13.157a32.207,32.207,0,0,1,4.6,4.785" fill="#6393a8"/>
        <path id="パス_2961" data-name="パス 2961" d="M460,82.341h-6.625V60.488a85.506,85.506,0,0,1-14.077,7.04,19.34,19.34,0,0,0-4.693-5.521,64.088,64.088,0,0,0,31.928-21.484l5.52,4.232a.9.9,0,0,1,.414.644c0,.414-.46.6-.828.6a2.632,2.632,0,0,1-.828-.137A76.969,76.969,0,0,1,460,55.888Z" fill="#6393a8"/>
        <path id="パス_2962" data-name="パス 2962" d="M489.488,44.663c.69.046,1.058.184,1.058.6,0,.506-.46.736-.828.874V57.406c0,10.213-3.634,15.688-11.455,21.807a21.532,21.532,0,0,0-5.2-4.278,25.22,25.22,0,0,0,7.5-6.948c1.886-2.944,2.484-6.072,2.484-10.167V44.341Zm11.409-.414c.645.046.875.138.875.506s-.277.552-.875.874V69.735A47.188,47.188,0,0,0,514.055,56.9a18.064,18.064,0,0,0,3.082,5.7,69.537,69.537,0,0,1-15.964,14.953,20.834,20.834,0,0,0-2.622,2.07l-4.233-2.761c.093-1.057.184-2.438.184-3.634V43.927Z" fill="#6393a8"/>
      </g>
    </g>
  </g>
</svg>
