<svg xmlns="http://www.w3.org/2000/svg" xmlns:xlink="http://www.w3.org/1999/xlink" width="407.681" height="108.212" viewBox="0 0 407.681 108.212">
  <defs>
    <clipPath id="clip-path">
      <rect id="長方形_7619" data-name="長方形 7619" width="407.681" height="44.212" transform="translate(0 0)" fill="none"/>
    </clipPath>
    <clipPath id="clip-path-2">
      <rect id="長方形_7622" data-name="長方形 7622" width="161.537" height="17.052" transform="translate(0 0)" fill="none"/>
    </clipPath>
  </defs>
  <g id="グループ_753" data-name="グループ 753" transform="translate(-443.552 -5436)">
    <g id="グループ_500" data-name="グループ 500" transform="translate(329.552 5502)">
      <g id="グループ_602" data-name="グループ 602" transform="translate(114 -2)">
        <g id="グループ_601" data-name="グループ 601" clip-path="url(#clip-path)">
          <path id="パス_7504" data-name="パス 7504" d="M11.179,25.81C9.661,27.1,6.395,30.18,6.395,32.25a2.28,2.28,0,0,0,1.15,2.071c2.3,1.15,7.177,1.334,9.8,1.334a62.4,62.4,0,0,0,17.527-2.3,38.542,38.542,0,0,0,1.288,6.486,92.792,92.792,0,0,1-18.908,1.841c-4.094,0-9.753-.276-13.387-2.255A6.992,6.992,0,0,1,0,32.941c0-4.233,3.865-8.005,6.9-10.581ZM16.47,5.429A73.123,73.123,0,0,0,29.9,4.417l3.174,4.876a54.821,54.821,0,0,0-14.722,9.478c-1.15-1.38-2.484-2.9-3.542-4,1.1-.921,3.175-2.577,4.877-3.865-3.313.23-6.625.368-9.938.368-2.024,0-4-.046-5.98-.23L3.4,4.6a81.706,81.706,0,0,0,13.065.828" fill="#222"/>
          <path id="パス_7505" data-name="パス 7505" d="M55.064,1.656,61.735,3.22c.368.092.828.231.828.645,0,.46-.46.644-.828.689-.46,1.8-.92,3.635-1.289,5.246a36.19,36.19,0,0,0,8.465-2.347l.737,6.119a72.821,72.821,0,0,1-10.812,2.254A106.723,106.723,0,0,1,46.6,43.2a46.447,46.447,0,0,0-5.889-2.99A74.781,74.781,0,0,0,52.4,16.746c-2.669.23-6.257.368-9.11.368l-.46-6.44c1.335.091,3.221.183,4.6.183,2.116,0,4.278-.092,6.441-.275.506-2.945.92-5.936,1.2-8.926M81.425,38.323A19.572,19.572,0,0,0,81.7,41.4a56.15,56.15,0,0,1-9.615.828c-5.061,0-13.71-.506-13.71-7.361A13.052,13.052,0,0,1,60.4,28.845l5.106,1.886a5.849,5.849,0,0,0-1.564,3.359c0,2.392,5.291,2.484,7.729,2.484a35.021,35.021,0,0,0,9.983-1.518,25.985,25.985,0,0,0-.23,3.267m-1.2-14.216a30.462,30.462,0,0,0-6.763-.736,79.611,79.611,0,0,0-9.937.782v-5.8a59.6,59.6,0,0,1,10.305-.828,37.415,37.415,0,0,1,6.809.506,53.868,53.868,0,0,0-.414,6.073m-1.15-13.525A13.187,13.187,0,0,0,76,12.744,53.314,53.314,0,0,0,71.81,7.775l2.852-2.162a34.772,34.772,0,0,1,4.417,4.969m4.554-3.175c-1.1.782-1.932,1.426-2.806,2.162A33.882,33.882,0,0,0,76.5,4.6l2.807-2.023a28.952,28.952,0,0,1,4.324,4.83" fill="#222"/>
          <path id="パス_7506" data-name="パス 7506" d="M103.916,8.281,106.86,11.5a16.225,16.225,0,0,0-2.392,3.5,18.416,18.416,0,0,1,10.305-3.313,13.53,13.53,0,0,1,8.695,2.945c3.083,2.53,4.233,6.165,4.233,10.121,0,10.674-8.143,15.135-17.574,16.516a16.771,16.771,0,0,0-3.175-5.659c6.487-.414,14.722-2.53,14.722-10.535,0-4.646-2.9-7.821-7.637-7.821-4.371,0-8.741,2.623-11.961,5.383v10.3c0,3.266,0,6.487.046,9.753l-6.487.506c.184-3.5.322-8.234.46-13.848-1.518,2.025-3.266,4.463-4.784,6.579L86.8,31.513A64.972,64.972,0,0,0,96.463,18.77V16.792A61.255,61.255,0,0,1,89.01,19.23l-1.1-6.579a43.4,43.4,0,0,0,8.741-1.517c0-3.129-.092-6.257-.23-9.385l6.027.414c.782.046,1.38.138,1.38.643,0,.414-.368.6-1.012.691-.184,1.426-.368,3.68-.46,5.566a12.393,12.393,0,0,0,1.564-.782" fill="#222"/>
          <path id="パス_7507" data-name="パス 7507" d="M140.256,3.588c.828.184,1.242.369,1.242.783,0,.551-.644.689-1.058.782a38.97,38.97,0,0,0-1.978,11.915,25.647,25.647,0,0,0,.506,4.969c.919-2.071,1.886-4.049,2.99-6.028a25.058,25.058,0,0,0,4,3.313,31.235,31.235,0,0,0-4.83,12.054l-5.521.644a45.927,45.927,0,0,1-3.128-16.471A51.562,51.562,0,0,1,133.953,4c.138-.6.23-1.151.322-1.794ZM161.51,2.024c.736.046,1.1.185,1.1.645s-.414.6-.782.689c.092,2.209.322,5.7.506,8.235.184,2.622.276,4.6.276,6.671,0,6.947-.966,12.652-5.244,18.31a27.054,27.054,0,0,1-8.88,7.407,16.521,16.521,0,0,0-5.014-4.6c8.833-4.048,12.652-10.857,12.652-20.518a84.533,84.533,0,0,0-1.657-17.067Z" fill="#222"/>
          <path id="パス_7508" data-name="パス 7508" d="M177.869,3.451c.69.046.92.092.92.46,0,.321-.276.6-.92.874V27.052h-6.441V3.175Zm21.347-.828c.69.046.92.138.92.46,0,.506-.506.735-.92.874v14.9c0,4.923-.92,9.846-3.635,14.032-3.4,5.336-8.511,8.235-14.215,10.627a11.689,11.689,0,0,0-4.049-5.014c4.693-1.519,9.064-3.819,12.1-7.822,2.668-3.5,3.266-7.544,3.266-11.777V2.3Z" fill="#6393a8"/>
          <path id="パス_7509" data-name="パス 7509" d="M214.393,31.192c.138,4.325.644,4.462,8.557,4.462a157.851,157.851,0,0,0,18.08-.874,30.372,30.372,0,0,0-.874,6.3c-1.15,0-5.015.046-8.051.092-3.128.046-6.165.046-7.913.046-3.312,0-7.223,0-9.063-.23-2.162-.322-3.911-.736-5.52-2.392-1.519-1.611-1.657-4-1.657-6.119V2.577l6.671.367c.644.047.874.185.874.553s-.322.6-1.1.92V17.988c6.165-1.011,15.688-4.462,20.518-8.465l5.245,4.279a.756.756,0,0,1,.368.552c0,.506-.69.552-1.058.552a4.051,4.051,0,0,1-.782-.092,66.356,66.356,0,0,1-24.291,8.879ZM236.8,3.4a40.4,40.4,0,0,1,4.738,4.555,31.338,31.338,0,0,0-2.944,2.576,41.421,41.421,0,0,0-4.831-4.554Zm4-3.4a33.419,33.419,0,0,1,4.738,4.463A38.878,38.878,0,0,0,242.5,7.177a32.2,32.2,0,0,0-4.785-4.6Z" fill="#6393a8"/>
          <path id="パス_7510" data-name="パス 7510" d="M264.3,11.226a49.643,49.643,0,0,0-3.819,5.337,46.636,46.636,0,0,0-12.1-7.822l3.864-5.428A54.5,54.5,0,0,1,264.3,11.226m19.23-.552a26.853,26.853,0,0,0,4,5.383c-8.189,12.467-19.46,20.426-33.354,25.44-.091.6-.275,1.012-.736,1.012a.933.933,0,0,1-.736-.552l-3.726-6.3c14.4-3.036,26.913-12.559,34.55-24.98" fill="#6393a8"/>
          <path id="パス_7511" data-name="パス 7511" d="M318.908,8.926a7.435,7.435,0,0,0,3.174-.691l3.313,2.9a65.849,65.849,0,0,0-3.128,6.486C316.285,32.112,308.556,39.7,298.62,44.212A24.337,24.337,0,0,0,293.7,39.7a40.811,40.811,0,0,0,15.871-11.548,46.049,46.049,0,0,0,7.086-13.571H303.865a63.7,63.7,0,0,1-10.813,12.237,25.214,25.214,0,0,0-4.784-4.232c6.716-5.475,12.468-12.514,15.412-20.7L309.339,4.6c.321.138.643.322.643.69,0,.414-.643.552-1.1.6-.507,1.058-1.059,2.116-1.565,3.037ZM317.113.507a38.707,38.707,0,0,1,4.37,4.324,16.767,16.767,0,0,0-3.358,2.3A30.561,30.561,0,0,0,313.893,2.9ZM324.29,0a38.759,38.759,0,0,1,4.371,4.739c-1.2.736-2.3,1.472-3.359,2.254a24.735,24.735,0,0,0-4.048-4.738Z" fill="#6393a8"/>
          <path id="パス_7512" data-name="パス 7512" d="M340.723,8.976A7.758,7.758,0,0,0,339.4,13.9h-7.661A20.6,20.6,0,0,1,332.8,8a13.293,13.293,0,0,1,3.168-4.521,11.035,11.035,0,0,1,3.83-2.247,16.591,16.591,0,0,1,5.443-.777,14.494,14.494,0,0,1,9.663,3.095,10.316,10.316,0,0,1,3.671,8.309,9.19,9.19,0,0,1-2.188,6.221,7.48,7.48,0,0,1-2.88,2.16q1.123,0,3.225,1.929a10.306,10.306,0,0,1,3.139,7.95,13.389,13.389,0,0,1-3.672,9.316q-3.67,4.017-10.871,4.018-8.871,0-12.326-5.789a17.172,17.172,0,0,1-2.016-8.064h8.064a9.383,9.383,0,0,0,.806,4.147q1.5,3.024,5.443,3.024a6.031,6.031,0,0,0,4.219-1.656,6.154,6.154,0,0,0,1.8-4.767q0-4.117-3.341-5.5a16.965,16.965,0,0,0-5.99-.778V18.192a15.506,15.506,0,0,0,5.587-.778q2.736-1.209,2.736-4.895a5.467,5.467,0,0,0-1.4-3.888,5.11,5.11,0,0,0-3.931-1.5,4.934,4.934,0,0,0-4.262,1.843" fill="#6393a8"/>
          <path id="パス_7513" data-name="パス 7513" d="M389.048,19.047c0,.275-.276.459-.782.6V21.07h5.153V18.908c-1.7-.368-2.163-1.84-2.163-3.4V8.143H399.4V6.119h-8.281V2.346h13.2V12.651h-1.795a11.018,11.018,0,0,0,3.911,1.887c-.782,2.852-1.932,4.509-5.153,4.509h-2.208c0,.5-.552.6-.92.643v1.38H405.1v3.819h-6.947V27.6h8.051V31.33h-8.557a48.413,48.413,0,0,0,7.177,4.14,9.389,9.389,0,0,0-3.082,3.082c1.978-.046,3.956-.183,5.934-.368a12.3,12.3,0,0,0-1.656,4.877H383.3a22.88,22.88,0,0,1-6.855-1.013,10.948,10.948,0,0,1-4.692-3.312,42.3,42.3,0,0,1-4.462,3.589,1.415,1.415,0,0,1,.046.414.8.8,0,0,1-.644.874c-.323,0-.69-.46-.829-.736l-2.392-4.922A26.885,26.885,0,0,0,369.22,34.6V24.2H364.3V19.23h10.259V33.675a5.438,5.438,0,0,0,3.359,4.141,12.284,12.284,0,0,0,4.646.736c4.371.138,7.867.138,13.158.138,1.84,0,3.956-.046,5.52-.092a47.312,47.312,0,0,1-8.51-5.52l1.932-1.748h-7.729l2.438,1.794c.368.276.46.414.46.6,0,.322-.368.506-.69.506a2.3,2.3,0,0,1-.966-.23,39.709,39.709,0,0,1-7.729,4.325,9.387,9.387,0,0,0-3.588-3.635,26.765,26.765,0,0,0,7.59-3.358H376.4V27.6H383.2V24.889h-5.842V21.07H383.2V19.047h-3.22c-2.346,0-3.45-.967-3.45-3.359V8.143h8.051V6.119h-8.144V2.346h12.606V12.651h-1.886a10.657,10.657,0,0,0,3.772,1.841,8.285,8.285,0,0,1-2.3,4.1c.184.091.414.229.414.46M375.017,9.339c-1.473,1.243-2.761,2.346-4.141,3.726a52.992,52.992,0,0,0-6.625-7.683l3.865-3.358a47.356,47.356,0,0,1,6.9,7.315m9.569,3.312v-.874h-3.4v2.3c0,1.057.46,1.15,1.334,1.15h2.715c1.242,0,1.518-1.242,1.748-2.577Zm3.68,14.952h5.153V24.889h-5.153ZM399.4,12.651v-.874h-3.312v2.438c0,.829,0,1.013,1.242,1.013h3.082c1.381,0,1.795-1.518,1.979-2.577Z" fill="#6393a8"/>
        </g>
      </g>
    </g>
    <g id="グループ_517" data-name="グループ 517">
      <g id="グループ_482" data-name="グループ 482" transform="translate(24 22)">
        <path id="パス_7522" data-name="パス 7522" d="M1,0H253.218V35H1Z" transform="translate(493.334 5414)" fill="#fff"/>
        <g id="グループ_604" data-name="グループ 604" transform="translate(539.552 5423)">
          <g id="グループ_603" data-name="グループ 603" clip-path="url(#clip-path-2)">
            <path id="パス_7514" data-name="パス 7514" d="M11.578,2.953a5.71,5.71,0,0,0,1.242-.126l1.8,1.494a3.343,3.343,0,0,0-.558.991C11.6,11.2,9.813,13.756,4.051,16.763a9.225,9.225,0,0,0-1.872-1.872A15.2,15.2,0,0,0,11.325,5.2H0V2.953Zm4.861-1.242a1.675,1.675,0,0,1-3.349,0,1.674,1.674,0,1,1,3.349,0m-2.5,0a.838.838,0,0,0,1.675,0,.846.846,0,0,0-.847-.847.83.83,0,0,0-.828.847" fill="#222"/>
            <path id="パス_7515" data-name="パス 7515" d="M21.025,14.656v.757H18.468V2.935H31.882V15.413h-2.5v-.757Zm8.354-9.434H21.025v7.185h8.354Z" fill="#222"/>
            <path id="パス_7516" data-name="パス 7516" d="M39.529.648,42.1,1.44c.2.055.342.109.342.252,0,.235-.306.288-.468.307-.162.846-.324,1.6-.522,2.394.144-.017.432-.036.612-.036,3.025,0,3.727,2.431,3.727,4.988A11.163,11.163,0,0,1,44.661,14.3a3.508,3.508,0,0,1-3.457,2.25,7.163,7.163,0,0,1-1.639-.2V15.7a8.037,8.037,0,0,0-.216-1.98,3.707,3.707,0,0,0,1.638.378c.919,0,1.369-.2,1.891-1.441a9.967,9.967,0,0,0,.594-3.493c0-1.171-.216-2.593-1.71-2.593a7.454,7.454,0,0,0-.9.09,27.83,27.83,0,0,1-4.555,9.723,9.98,9.98,0,0,0-2.269-1.17,22.166,22.166,0,0,0,4.34-8.085,23.062,23.062,0,0,0-3.115.972l-.775-2.52c.6-.072,1.261-.2,1.945-.343.936-.2,1.891-.395,2.539-.5A31.383,31.383,0,0,0,39.529.648m7.04,2.845A18.037,18.037,0,0,1,49.5,6.986a4.644,4.644,0,0,1,.811,2.359c0,1.333-1.549,1.89-2.755,2.287A14.157,14.157,0,0,0,46.389,9.6c.81-.18,1.315-.325,1.315-.955,0-1.1-2.053-3.4-2.827-4.176Zm1.062-2.106A13.48,13.48,0,0,1,49.18,3.2a10.926,10.926,0,0,0-1.153.864A17.14,17.14,0,0,0,46.461,2.2ZM49.36.288a11.833,11.833,0,0,1,1.584,1.854c-.4.252-.954.649-1.3.919A8.386,8.386,0,0,0,48.153,1.08Z" fill="#222"/>
            <path id="パス_7517" data-name="パス 7517" d="M52.65,14.62V12.262H63.4V5.546H52.65V3.187H66.01V15.5H63.4V14.62Z" fill="#222"/>
            <rect id="長方形_7620" data-name="長方形 7620" width="15.539" height="2.557" transform="translate(68.904 7.652)" fill="#222"/>
            <path id="パス_7518" data-name="パス 7518" d="M94.178,14.333a9.151,9.151,0,0,1-4,2.557,7.966,7.966,0,0,0-1.819-1.909,7.952,7.952,0,0,0,4.268-2.574A6.643,6.643,0,0,0,93.782,8.5H86.958V6.3h15.305V8.5h-6.05a8.477,8.477,0,0,1-2.035,5.833M99.652,3.8H89.371V1.585H99.652Zm1.3-1.638a16.746,16.746,0,0,1,1.819,1.764c-.378.414-.739.846-1.08,1.279a14.179,14.179,0,0,0-1.855-1.891Zm2.719-.307a8.186,8.186,0,0,0-1.081,1.152,12.6,12.6,0,0,0-1.836-1.836L101.794,0a18.213,18.213,0,0,1,1.873,1.854" fill="#222"/>
            <path id="パス_7519" data-name="パス 7519" d="M110.685,16.6h-2.25V10.011a30.061,30.061,0,0,1-4.124,2.017,7.006,7.006,0,0,0-1.53-1.8,19.7,19.7,0,0,0,9.885-6.662l1.818,1.422a.272.272,0,0,1,.126.217c0,.162-.126.179-.252.179a1,1,0,0,1-.234-.036,28.213,28.213,0,0,1-3.439,3.133Z" fill="#222"/>
            <path id="パス_7520" data-name="パス 7520" d="M124.814,17.052h-2.466V12.01a23.484,23.484,0,0,1-5.2,2.5,9.311,9.311,0,0,0-1.315-2.07,20.355,20.355,0,0,0,9.381-5.618h-7.544V4.646h9.507a3.891,3.891,0,0,0,1.1-.18l1.3,1.3a9.007,9.007,0,0,0-1.063.883c-1.782,1.855-2.178,2.269-3.691,3.654Zm1.765-14.728a21.787,21.787,0,0,0-1.188,1.98,21.367,21.367,0,0,0-4.97-2.178l1.206-1.8a26.824,26.824,0,0,1,4.952,2M131.35,12.73c-.432.522-1.044,1.333-1.422,1.873a24.187,24.187,0,0,0-4.519-3.439l1.512-1.638a32.645,32.645,0,0,1,4.429,3.2" fill="#222"/>
            <rect id="長方形_7621" data-name="長方形 7621" width="15.539" height="2.557" transform="translate(132.713 7.652)" fill="#222"/>
            <path id="パス_7521" data-name="パス 7521" d="M155.037,5.672a27.4,27.4,0,0,1,6.5,4.357c-.612.649-1.188,1.3-1.729,1.963a25.274,25.274,0,0,0-5.689-4.033v8.786h-2.557V.954l2.557.145c.2.017.342.036.342.2,0,.144-.144.216-.342.27v5.4Z" fill="#222"/>
          </g>
        </g>
      </g>
      <g id="グループ_515" data-name="グループ 515" transform="translate(550.552 5470.495)">
        <path id="パス_2801" data-name="パス 2801" d="M88.791,10.485,97.4.264" transform="translate(0.564 0.528)" fill="none" stroke="#222" stroke-width="1"/>
      </g>
    </g>
    <line id="線_628" data-name="線 628" x2="120" transform="translate(518.052 5471.5)" fill="none" stroke="#222" stroke-width="1"/>
    <line id="線_629" data-name="線 629" x2="100" transform="translate(648.052 5471.5)" fill="none" stroke="#222" stroke-width="1"/>
  </g>
</svg>
