<svg xmlns="http://www.w3.org/2000/svg" xmlns:xlink="http://www.w3.org/1999/xlink" width="241.022" height="79.652" viewBox="0 0 241.022 79.652">
  <defs>
    <clipPath id="clip-path">
      <rect id="長方形_7651" data-name="長方形 7651" width="241.022" height="26.527" transform="translate(0 0)" fill="none"/>
    </clipPath>
    <clipPath id="clip-path-2">
      <rect id="長方形_7654" data-name="長方形 7654" width="128.162" height="13.266" transform="translate(0 0)" fill="none"/>
    </clipPath>
  </defs>
  <g id="グループ_783" data-name="グループ 783" transform="translate(-112.541 -5396.875)">
    <g id="グループ_500" data-name="グループ 500" transform="translate(-20.539 5491)">
      <g id="グループ_602" data-name="グループ 602" transform="translate(114 -2)">
        <g id="グループ_695" data-name="グループ 695" transform="translate(19.08 -39)">
          <g id="グループ_694" data-name="グループ 694" clip-path="url(#clip-path)">
            <path id="パス_8095" data-name="パス 8095" d="M6.708,15.486c-.911.772-2.871,2.622-2.871,3.864a1.367,1.367,0,0,0,.69,1.242c1.381.69,4.306.8,5.879.8a37.421,37.421,0,0,0,10.517-1.38A23.194,23.194,0,0,0,21.7,23.9a55.656,55.656,0,0,1-11.345,1.105c-2.456,0-5.851-.166-8.032-1.353A4.2,4.2,0,0,1,0,19.764c0-2.539,2.319-4.8,4.14-6.349ZM9.882,3.257a43.849,43.849,0,0,0,8.06-.607l1.905,2.926a32.87,32.87,0,0,0-8.834,5.686c-.689-.828-1.49-1.739-2.125-2.4.663-.553,1.905-1.546,2.926-2.319-1.987.138-3.975.221-5.962.221-1.215,0-2.4-.028-3.588-.138L2.043,2.76a49.019,49.019,0,0,0,7.839.5" fill="#222"/>
            <path id="パス_8096" data-name="パス 8096" d="M32.431.993l4,.939c.22.055.5.138.5.387,0,.276-.277.386-.5.413-.277,1.077-.552,2.181-.774,3.148a21.768,21.768,0,0,0,5.079-1.408l.442,3.671a43.68,43.68,0,0,1-6.486,1.352,64.029,64.029,0,0,1-7.343,16.424,27.82,27.82,0,0,0-3.533-1.794A44.857,44.857,0,0,0,30.83,10.047c-1.6.139-3.753.221-5.466.221L25.089,6.4c.8.055,1.932.11,2.76.11,1.27,0,2.567-.055,3.865-.165.3-1.767.552-3.561.717-5.356m15.817,22a11.793,11.793,0,0,0,.165,1.849,33.7,33.7,0,0,1-5.769.5c-3.036,0-8.226-.3-8.226-4.417a7.832,7.832,0,0,1,1.216-3.616L38.7,18.439a3.509,3.509,0,0,0-.938,2.015c0,1.435,3.174,1.49,4.637,1.49a21.03,21.03,0,0,0,5.99-.91,15.532,15.532,0,0,0-.138,1.96m-.718-8.53a18.313,18.313,0,0,0-4.058-.442,47.669,47.669,0,0,0-5.962.47V11.014a35.7,35.7,0,0,1,6.184-.5,22.48,22.48,0,0,1,4.085.3,32.093,32.093,0,0,0-.249,3.644m-.69-8.115a7.943,7.943,0,0,0-1.849,1.3,31.873,31.873,0,0,0-2.513-2.981l1.713-1.3A20.882,20.882,0,0,1,46.84,6.349m2.733-1.905c-.663.469-1.16.855-1.684,1.3a20.335,20.335,0,0,0-2.6-2.981l1.684-1.214a17.415,17.415,0,0,1,2.6,2.9" fill="#222"/>
            <path id="パス_8097" data-name="パス 8097" d="M61.19,4.969,62.957,6.9A9.748,9.748,0,0,0,61.521,9,11.054,11.054,0,0,1,67.7,7.012a8.122,8.122,0,0,1,5.217,1.766,7.472,7.472,0,0,1,2.54,6.073c0,6.4-4.886,9.081-10.544,9.91a10.074,10.074,0,0,0-1.9-3.4c3.891-.248,8.833-1.518,8.833-6.321a4.348,4.348,0,0,0-4.582-4.693c-2.622,0-5.245,1.574-7.177,3.23v6.184c0,1.959,0,3.891.028,5.851l-3.892.3c.11-2.1.193-4.941.275-8.309-.91,1.215-1.959,2.678-2.87,3.948l-2.706-2.651a39,39,0,0,0,5.8-7.645V10.075a36.957,36.957,0,0,1-4.472,1.464l-.663-3.948a26.082,26.082,0,0,0,5.245-.91c0-1.878-.055-3.755-.138-5.631l3.616.248c.469.028.828.083.828.386,0,.249-.221.359-.608.414-.11.856-.22,2.208-.275,3.34a7.456,7.456,0,0,0,.938-.469" fill="#222"/>
            <path id="パス_8098" data-name="パス 8098" d="M82.938,2.154c.5.11.745.221.745.469,0,.331-.386.414-.634.469a23.4,23.4,0,0,0-1.187,7.149,15.337,15.337,0,0,0,.3,2.982c.552-1.243,1.131-2.43,1.794-3.617a15,15,0,0,0,2.4,1.988,18.739,18.739,0,0,0-2.9,7.232l-3.313.387A27.569,27.569,0,0,1,78.273,9.33,31.024,31.024,0,0,1,79.156,2.4c.084-.359.139-.69.194-1.076Zm12.753-.939c.442.028.663.111.663.387s-.249.358-.47.413c.055,1.326.193,3.423.3,4.942.111,1.573.166,2.76.166,4,0,4.168-.58,7.591-3.147,10.986a16.228,16.228,0,0,1-5.328,4.444,9.909,9.909,0,0,0-3.008-2.76c5.3-2.429,7.591-6.515,7.591-12.311a50.731,50.731,0,0,0-.994-10.241Z" fill="#222"/>
            <path id="パス_8099" data-name="パス 8099" d="M105.295,2.071c.414.027.552.055.552.276,0,.193-.166.358-.552.524v13.36h-3.864V1.9Zm12.808-.5c.414.028.552.083.552.276,0,.3-.3.441-.552.524v8.944a15.257,15.257,0,0,1-2.181,8.419c-2.042,3.2-5.106,4.941-8.529,6.376a7.027,7.027,0,0,0-2.429-3.009,14.251,14.251,0,0,0,7.26-4.692,11.111,11.111,0,0,0,1.959-7.067V1.381Z" fill="#6393a8"/>
            <path id="パス_8100" data-name="パス 8100" d="M126.657,18.715c.082,2.595.386,2.678,5.134,2.678a94.851,94.851,0,0,0,10.848-.525,18.193,18.193,0,0,0-.525,3.782c-.69,0-3.008.027-4.83.055-1.877.027-3.7.027-4.747.027-1.988,0-4.334,0-5.439-.137a5.18,5.18,0,0,1-3.312-1.436,5.208,5.208,0,0,1-.994-3.671V1.546l4,.221c.387.028.525.11.525.331s-.193.359-.662.552v8.143c3.7-.607,9.413-2.677,12.311-5.079l3.146,2.567a.454.454,0,0,1,.222.332c0,.3-.415.331-.635.331a2.484,2.484,0,0,1-.47-.055,39.832,39.832,0,0,1-14.574,5.327ZM140.1,2.043a24.266,24.266,0,0,1,2.843,2.732,18.8,18.8,0,0,0-1.767,1.546,24.793,24.793,0,0,0-2.9-2.732ZM142.5,0a20.042,20.042,0,0,1,2.843,2.678,23.406,23.406,0,0,0-1.822,1.628,19.361,19.361,0,0,0-2.87-2.76Z" fill="#6393a8"/>
            <path id="パス_8101" data-name="パス 8101" d="M156.052,6.735a29.709,29.709,0,0,0-2.291,3.2,27.987,27.987,0,0,0-7.26-4.693l2.319-3.257a32.71,32.71,0,0,1,7.232,4.748M167.59,6.4a16.1,16.1,0,0,0,2.4,3.23c-4.913,7.48-11.676,12.255-20.012,15.264-.055.359-.165.607-.442.607a.565.565,0,0,1-.442-.331l-2.235-3.782A32.724,32.724,0,0,0,167.59,6.4" fill="#6393a8"/>
            <path id="パス_8102" data-name="パス 8102" d="M188.261,5.355a4.462,4.462,0,0,0,1.9-.414l1.987,1.739a39.811,39.811,0,0,0-1.877,3.892c-3.588,8.7-8.226,13.25-14.188,15.955a14.607,14.607,0,0,0-2.953-2.7,24.5,24.5,0,0,0,9.523-6.929,27.618,27.618,0,0,0,4.251-8.143h-7.673a38.2,38.2,0,0,1-6.488,7.343,15.113,15.113,0,0,0-2.87-2.54,29.192,29.192,0,0,0,9.247-12.421l3.4,1.628c.193.084.386.194.386.415,0,.248-.386.331-.662.358-.3.635-.635,1.27-.939,1.822ZM187.185.3A23.281,23.281,0,0,1,189.807,2.9a10.015,10.015,0,0,0-2.014,1.38,18.421,18.421,0,0,0-2.54-2.54Zm4.306-.3a23.269,23.269,0,0,1,2.623,2.844c-.719.441-1.381.883-2.016,1.352a14.907,14.907,0,0,0-2.429-2.843Z" fill="#6393a8"/>
            <path id="パス_8103" data-name="パス 8103" d="M229.842,11.428c0,.166-.165.276-.469.359v.855h3.092v-1.3c-1.022-.221-1.3-1.1-1.3-2.042V4.886h4.886V3.672h-4.969V1.408h7.922V7.591H237.93a6.611,6.611,0,0,0,2.346,1.132c-.469,1.712-1.159,2.705-3.092,2.705H235.86c0,.3-.332.359-.552.386v.828h4.168v2.292h-4.168v1.628h4.83V18.8H235a29,29,0,0,0,4.306,2.485,5.647,5.647,0,0,0-1.85,1.849c1.188-.028,2.375-.11,3.562-.221a7.36,7.36,0,0,0-.994,2.926H226.392a13.712,13.712,0,0,1-4.113-.608,6.565,6.565,0,0,1-2.816-1.987,25.236,25.236,0,0,1-2.677,2.153.871.871,0,0,1,.027.249.478.478,0,0,1-.386.524c-.193,0-.414-.276-.5-.442l-1.435-2.953a16.084,16.084,0,0,0,3.45-2.015V14.52h-2.953V11.538h6.155v8.668a3.262,3.262,0,0,0,2.015,2.484,7.385,7.385,0,0,0,2.788.442c2.622.082,4.721.082,7.9.082,1.1,0,2.373-.027,3.312-.055a28.344,28.344,0,0,1-5.107-3.312l1.16-1.049h-4.638l1.463,1.077c.221.165.276.248.276.359,0,.193-.221.3-.414.3a1.374,1.374,0,0,1-.579-.138,23.8,23.8,0,0,1-4.638,2.595,5.632,5.632,0,0,0-2.153-2.181,16.052,16.052,0,0,0,4.555-2.015h-4.831V16.562h4.085V14.934h-3.505V12.642h3.505V11.428H224.4c-1.408,0-2.071-.58-2.071-2.015V4.886h4.83V3.672h-4.885V1.408h7.563V7.591H228.71a6.382,6.382,0,0,0,2.264,1.1,4.967,4.967,0,0,1-1.38,2.457c.11.055.248.138.248.276M221.423,5.6c-.883.745-1.656,1.408-2.484,2.235a31.847,31.847,0,0,0-3.975-4.609l2.319-2.015a28.363,28.363,0,0,1,4.14,4.389m5.741,1.987V7.067h-2.042v1.38c0,.635.276.69.8.69h1.629c.745,0,.911-.745,1.049-1.546Zm2.209,8.971h3.092V14.934h-3.092Zm6.68-8.971V7.067h-1.988V8.53c0,.5,0,.607.746.607h1.849c.829,0,1.077-.911,1.187-1.546Z" fill="#6393a8"/>
            <path id="パス_8104" data-name="パス 8104" d="M200.861,5.812a4.555,4.555,0,0,0-.777,2.889H195.59a12.1,12.1,0,0,1,.625-3.463,7.787,7.787,0,0,1,1.859-2.653,6.472,6.472,0,0,1,2.247-1.318,9.721,9.721,0,0,1,3.193-.455,8.5,8.5,0,0,1,5.667,1.815A6.05,6.05,0,0,1,211.335,7.5a5.385,5.385,0,0,1-1.284,3.649,4.375,4.375,0,0,1-1.689,1.267,3.479,3.479,0,0,1,1.892,1.132,6.044,6.044,0,0,1,1.84,4.663,7.852,7.852,0,0,1-2.153,5.465q-2.152,2.356-6.377,2.357-5.205,0-7.231-3.4a10.1,10.1,0,0,1-1.183-4.73h4.731a5.492,5.492,0,0,0,.473,2.432,3.241,3.241,0,0,0,3.193,1.775,3.533,3.533,0,0,0,2.474-.972,3.605,3.605,0,0,0,1.056-2.8,3.151,3.151,0,0,0-1.959-3.227,9.945,9.945,0,0,0-3.513-.456V11.218a9.12,9.12,0,0,0,3.277-.456,2.817,2.817,0,0,0,1.6-2.872,3.208,3.208,0,0,0-.82-2.281,3,3,0,0,0-2.306-.878,2.894,2.894,0,0,0-2.5,1.081" fill="#6393a8"/>
          </g>
        </g>
      </g>
    </g>
    <g id="グループ_782" data-name="グループ 782">
      <g id="グループ_517" data-name="グループ 517" transform="translate(-410 -31.508)">
        <g id="グループ_482" data-name="グループ 482" transform="translate(26.377 14.383)">
          <path id="パス_7522" data-name="パス 7522" d="M1,0H199.492V31.617H1Z" transform="translate(522.682 5414)" fill="#fff"/>
          <g id="グループ_697" data-name="グループ 697" transform="translate(552.174 5423.192)">
            <g id="グループ_696" data-name="グループ 696" clip-path="url(#clip-path-2)">
              <path id="パス_8105" data-name="パス 8105" d="M9.008,2.3a4.449,4.449,0,0,0,.966-.1l1.4,1.163a2.576,2.576,0,0,0-.434.771C9.022,8.713,7.635,10.7,3.153,13.041A7.205,7.205,0,0,0,1.7,11.585,11.826,11.826,0,0,0,8.811,4.049H0V2.3Zm3.781-.967a1.3,1.3,0,0,1-2.6,0,1.3,1.3,0,1,1,2.6,0m-1.947,0a.652.652,0,1,0,.645-.658.646.646,0,0,0-.645.658" fill="#2e2e2e"/>
              <path id="パス_8106" data-name="パス 8106" d="M16.074,11.4v.588h-1.99V2.284H24.52v9.707H22.573V11.4Zm6.5-7.34h-6.5V9.652h6.5Z" fill="#2e2e2e"/>
              <path id="パス_8107" data-name="パス 8107" d="M30.747.5l2,.616c.153.042.265.084.265.2,0,.181-.237.223-.363.237-.126.659-.252,1.247-.407,1.863.113-.013.338-.028.476-.028,2.354,0,2.9,1.892,2.9,3.881a8.692,8.692,0,0,1-.883,3.851,2.728,2.728,0,0,1-2.69,1.751,5.5,5.5,0,0,1-1.274-.154v-.5a6.267,6.267,0,0,0-.168-1.541,2.867,2.867,0,0,0,1.274.294c.715,0,1.064-.153,1.471-1.12a7.755,7.755,0,0,0,.462-2.718c0-.91-.168-2.016-1.33-2.016a5.726,5.726,0,0,0-.7.069,21.638,21.638,0,0,1-3.545,7.564,7.8,7.8,0,0,0-1.764-.91,17.223,17.223,0,0,0,3.375-6.29,17.947,17.947,0,0,0-2.424.757l-.6-1.961c.463-.056.98-.154,1.512-.266.729-.155,1.471-.308,1.976-.392A24.973,24.973,0,0,0,30.747.5m5.475,2.213a14.022,14.022,0,0,1,2.284,2.718,3.6,3.6,0,0,1,.631,1.835c0,1.036-1.206,1.471-2.143,1.778a11.208,11.208,0,0,0-.911-1.583c.63-.139,1.022-.252,1.022-.742,0-.854-1.6-2.647-2.2-3.25Zm.827-1.639a10.468,10.468,0,0,1,1.205,1.415,8.305,8.305,0,0,0-.9.672,13.536,13.536,0,0,0-1.219-1.457ZM38.4.225a9.039,9.039,0,0,1,1.231,1.442c-.307.2-.741.5-1.007.715A6.557,6.557,0,0,0,37.457.841Z" fill="#2e2e2e"/>
              <path id="パス_8108" data-name="パス 8108" d="M41.23,11.374V9.539h8.363V4.314H41.23V2.479h10.4v9.582H49.593v-.687Z" fill="#2e2e2e"/>
              <rect id="長方形_7652" data-name="長方形 7652" width="12.089" height="1.989" transform="translate(53.872 5.954)" fill="#2e2e2e"/>
              <path id="パス_8109" data-name="パス 8109" d="M73.531,11.15a7.108,7.108,0,0,1-3.109,1.989,6.236,6.236,0,0,0-1.415-1.485,6.172,6.172,0,0,0,3.319-2,5.168,5.168,0,0,0,.9-3.04H67.914V4.9H79.82V6.611H75.114a6.6,6.6,0,0,1-1.583,4.539m4.258-8.194h-8V1.232h8ZM78.8,1.68a13.387,13.387,0,0,1,1.414,1.373c-.294.323-.574.659-.84.995A11.092,11.092,0,0,0,77.93,2.577Zm2.115-.237a6.274,6.274,0,0,0-.842.9A9.735,9.735,0,0,0,78.644.911L79.457,0a14.178,14.178,0,0,1,1.457,1.443" fill="#2e2e2e"/>
              <path id="パス_8110" data-name="パス 8110" d="M87.21,12.915H85.459V7.788a23.251,23.251,0,0,1-3.207,1.569,5.494,5.494,0,0,0-1.191-1.4,15.321,15.321,0,0,0,7.69-5.183L90.166,3.88a.214.214,0,0,1,.1.169c0,.126-.1.139-.2.139a.757.757,0,0,1-.182-.028A22.022,22.022,0,0,1,87.21,6.6Z" fill="#2e2e2e"/>
              <path id="パス_8111" data-name="パス 8111" d="M98.76,13.265H96.842V9.342a18.257,18.257,0,0,1-4.049,1.948,7.332,7.332,0,0,0-1.022-1.611,15.838,15.838,0,0,0,7.3-4.37H93.2V3.614h7.4a2.986,2.986,0,0,0,.853-.141l1.009,1.009a7.014,7.014,0,0,0-.826.687c-1.387,1.442-1.694,1.764-2.872,2.843Zm1.373-11.458a17.232,17.232,0,0,0-.924,1.54,16.61,16.61,0,0,0-3.867-1.694l.94-1.4a20.913,20.913,0,0,1,3.851,1.555m3.712,8.1c-.336.406-.812,1.037-1.106,1.457a18.844,18.844,0,0,0-3.516-2.676L100.4,7.41A25.348,25.348,0,0,1,103.845,9.9" fill="#2e2e2e"/>
              <rect id="長方形_7653" data-name="長方形 7653" width="12.089" height="1.989" transform="translate(105.462 5.954)" fill="#2e2e2e"/>
              <path id="パス_8112" data-name="パス 8112" d="M123.105,4.413a21.246,21.246,0,0,1,5.058,3.39c-.476.5-.924,1.007-1.345,1.526a19.724,19.724,0,0,0-4.426-3.138v6.836H120.4V.742l1.99.112c.153.015.267.029.267.155s-.114.168-.267.21v4.2Z" fill="#2e2e2e"/>
            </g>
          </g>
        </g>
        <g id="グループ_515" data-name="グループ 515" transform="translate(550.552 5459.495)">
          <path id="パス_2801" data-name="パス 2801" d="M88.791,10.485,97.4.264" transform="translate(0.564 0.528)" fill="none" stroke="#222" stroke-width="1"/>
        </g>
      </g>
      <path id="パス_8113" data-name="パス 8113" d="M28,0h88" transform="translate(112.052 5428.992)" fill="none" stroke="#222" stroke-width="1"/>
      <line id="線_629" data-name="線 629" x2="66" transform="translate(238.052 5428.992)" fill="none" stroke="#222" stroke-width="1"/>
    </g>
  </g>
</svg>
