<svg xmlns="http://www.w3.org/2000/svg" xmlns:xlink="http://www.w3.org/1999/xlink" width="310.282" height="51.629" viewBox="0 0 310.282 51.629">
  <defs>
    <clipPath id="clip-path">
      <rect id="長方形_7645" data-name="長方形 7645" width="310.282" height="25.699" transform="translate(0 0)" fill="none"/>
    </clipPath>
    <clipPath id="clip-path-2">
      <rect id="長方形_7646" data-name="長方形 7646" width="303.4" height="13.587" transform="translate(0 0)" fill="none"/>
    </clipPath>
  </defs>
  <g id="h2" transform="translate(-445.218 -1804.636)">
    <g id="グループ_670" data-name="グループ 670" transform="translate(465.5 1809.375)">
      <g id="グループ_686" data-name="グループ 686" transform="translate(-20.282 21.191)">
        <rect id="長方形_7644" data-name="長方形 7644" width="24.926" height="3.754" transform="translate(0 11.152)" fill="#222"/>
        <g id="グループ_685" data-name="グループ 685">
          <g id="グループ_684" data-name="グループ 684" clip-path="url(#clip-path)">
            <path id="パス_8040" data-name="パス 8040" d="M41.871,25.7h-3.5V19.184a28.987,28.987,0,0,1-8.944,5.907,11.808,11.808,0,0,0-2.429-2.677,28.316,28.316,0,0,0,9.413-4.969H27.518V14.464H38.366V11.786l3.533.194c.22,0,.635.027.635.331,0,.193-.083.248-.663.58v1.573H52.8v2.981H43.969A24.117,24.117,0,0,0,53.05,22.11a6.178,6.178,0,0,0-1.9,2.815,25.124,25.124,0,0,1-9.275-5.906ZM52.912,10.517A6.673,6.673,0,0,0,51.477,13.5a32.918,32.918,0,0,1-11.041-3.4A31.144,31.144,0,0,1,28.787,13.36,7.644,7.644,0,0,0,27.1,10.6,29.893,29.893,0,0,0,37.592,8.364a22.481,22.481,0,0,1-2.953-2.4A23.262,23.262,0,0,1,30.471,8.75a10.7,10.7,0,0,0-2.429-2.042A22.249,22.249,0,0,0,36.627,0l2.787.746c.221.055.442.165.442.386,0,.442-.552.469-.856.469a4.236,4.236,0,0,1-.441.552H48l1.1,1.1a26.792,26.792,0,0,1-5.686,5.051,31.33,31.33,0,0,0,9.495,2.208m-9.3-5.8H37.565a22.69,22.69,0,0,0,2.981,2.153A23.52,23.52,0,0,0,43.61,4.72" fill="#222"/>
            <path id="パス_8041" data-name="パス 8041" d="M68.036,21.365A10.548,10.548,0,0,0,74,18.246a9.213,9.213,0,0,0,2.236-5.88,7.1,7.1,0,0,0-3.092-5.99,7.377,7.377,0,0,0-3.947-1.214A36.242,36.242,0,0,1,65.3,19.239c-.773,1.408-2.1,3.616-3.92,3.616-2.263,0-5.8-3.781-5.8-8.419a12.757,12.757,0,0,1,4.14-9,13.039,13.039,0,0,1,9.054-3.644c6.155,0,11.152,4.224,11.152,10.572a12.384,12.384,0,0,1-3.257,8.364,14.733,14.733,0,0,1-6.211,3.919,16.622,16.622,0,0,0-2.429-3.284M61,9.054a8.765,8.765,0,0,0-1.905,5.134c0,2.043,1.077,4.168,2.1,4.168.5,0,.828-.469,1.049-.856a26.838,26.838,0,0,0,1.6-3.781,26.587,26.587,0,0,0,1.436-7.895A8.332,8.332,0,0,0,61,9.054" fill="#222"/>
            <path id="パス_8042" data-name="パス 8042" d="M98.009,25.119H94.035V12.007a51.367,51.367,0,0,1-8.447,4.224,11.6,11.6,0,0,0-2.816-3.312A38.454,38.454,0,0,0,101.929.028l3.313,2.539a.538.538,0,0,1,.248.387c0,.248-.276.359-.5.359a1.565,1.565,0,0,1-.5-.083,46.209,46.209,0,0,1-6.487,6.017Z" fill="#6393a8"/>
            <path id="パス_8043" data-name="パス 8043" d="M119.51,6.155a29.708,29.708,0,0,0-2.291,3.2,27.986,27.986,0,0,0-7.26-4.693l2.319-3.257a32.71,32.71,0,0,1,7.232,4.748m11.538-.331a16.1,16.1,0,0,0,2.4,3.23c-4.913,7.48-11.676,12.255-20.012,15.264-.055.359-.165.607-.442.607a.562.562,0,0,1-.441-.331l-2.236-3.782a32.724,32.724,0,0,0,20.73-14.988" fill="#6393a8"/>
            <path id="パス_8044" data-name="パス 8044" d="M147.109,21.365a14.028,14.028,0,0,1-6.127,3.92,12.221,12.221,0,0,0-2.788-2.926,12.2,12.2,0,0,0,6.542-3.947,10.183,10.183,0,0,0,1.766-5.99H136.041V9.054H159.5v3.368h-9.274c-.056,3.284-.828,6.487-3.12,8.943m8.613-16.148H139.961V1.822h15.761Z" fill="#6393a8"/>
            <path id="パス_8045" data-name="パス 8045" d="M167.561,1.491c.414.027.552.055.552.276,0,.193-.166.358-.552.524v13.36H163.7V1.325Zm12.808-.5c.414.028.552.083.552.276,0,.3-.3.441-.552.524v8.944a15.257,15.257,0,0,1-2.181,8.419c-2.042,3.2-5.106,4.941-8.529,6.376a7.02,7.02,0,0,0-2.429-3.009,14.236,14.236,0,0,0,7.259-4.693,11.1,11.1,0,0,0,1.96-7.066V.8Z" fill="#6393a8"/>
            <path id="パス_8046" data-name="パス 8046" d="M206.423,2.677a4.231,4.231,0,0,0,1.546-.248l2.594,2.4c-.3.387-.524.691-.8,1.1a55.115,55.115,0,0,1-7.978,9.275,12.647,12.647,0,0,0-2.705-2.594,25.346,25.346,0,0,0,5.963-6.4H186.024V2.677Zm-7.177,5.079c.276.028.469.083.469.277,0,.248-.276.441-.469.552a26.923,26.923,0,0,1-1.408,8.115,16.748,16.748,0,0,1-7.066,8.17,21.468,21.468,0,0,0-3.257-2.456,17.081,17.081,0,0,0,5.382-4.445c1.85-2.456,2.4-6.1,2.4-9.136,0-.442-.028-1.021-.056-1.325Z" fill="#6393a8"/>
            <path id="パス_8047" data-name="パス 8047" d="M235.734,21.033c-1.076,1.132-2.1,2.263-2.843,3.147a37.576,37.576,0,0,0-7.839-8.226,31.722,31.722,0,0,1-11.042,8.612,10.221,10.221,0,0,0-2.622-3.229A24.485,24.485,0,0,0,226.377,5.962H213.928V2.456H227.95a7.371,7.371,0,0,0,1.9-.22l1.877,2.015a8.818,8.818,0,0,0-1.242,2.235,44.6,44.6,0,0,1-3.368,6.569,60.624,60.624,0,0,1,8.612,7.978" fill="#6393a8"/>
            <path id="パス_8048" data-name="パス 8048" d="M257.041,18.384c-.745.911-1.656,2.125-2.319,3.119a21.725,21.725,0,0,0-2.677-3.064,27.126,27.126,0,0,1-10.6,7.011,16.621,16.621,0,0,0-2.539-3.2,23.386,23.386,0,0,0,10.378-6.183,46.866,46.866,0,0,0-4.968-3.285l2.236-2.539a54.387,54.387,0,0,1,4.83,3.036,22.771,22.771,0,0,0,2.374-5.051h-7.2a31.108,31.108,0,0,1-6.1,6.514,18.229,18.229,0,0,0-2.926-2.512A24.735,24.735,0,0,0,246.634.414l3.7,1.187c.359.11.5.166.5.331,0,.248-.193.332-.662.387q-.7,1.324-1.491,2.649h6.57a5.276,5.276,0,0,0,1.849-.276l1.712,1.491a11.712,11.712,0,0,0-.691,1.436,40.888,40.888,0,0,1-3.836,7.894,19.419,19.419,0,0,1,2.76,2.871" fill="#6393a8"/>
            <path id="パス_8049" data-name="パス 8049" d="M276,25.119h-3.975V12.007a51.318,51.318,0,0,1-8.446,4.224,11.6,11.6,0,0,0-2.816-3.312A38.458,38.458,0,0,0,279.922.028l3.312,2.539a.538.538,0,0,1,.248.387c0,.248-.276.359-.5.359a1.564,1.564,0,0,1-.5-.083A46.211,46.211,0,0,1,276,9.247Z" fill="#6393a8"/>
            <path id="パス_8050" data-name="パス 8050" d="M293.693,2.511c.413.028.634.111.634.359,0,.3-.276.442-.5.524v6.763c0,6.128-2.18,9.413-6.873,13.084a12.926,12.926,0,0,0-3.119-2.567,15.147,15.147,0,0,0,4.5-4.168,10.625,10.625,0,0,0,1.49-6.1V2.318Zm6.845-.248c.387.028.525.083.525.3s-.166.331-.525.524V17.555a28.33,28.33,0,0,0,7.9-7.7,10.813,10.813,0,0,0,1.849,3.422,41.746,41.746,0,0,1-9.578,8.972,12.383,12.383,0,0,0-1.574,1.242l-2.539-1.657c.055-.634.11-1.463.11-2.18V2.07Z" fill="#6393a8"/>
          </g>
        </g>
      </g>
    </g>
    <g id="グループ_672" data-name="グループ 672" transform="translate(460.848 1809.376)">
      <g id="グループ_688" data-name="グループ 688" transform="translate(-10.547 -4.74)">
        <g id="グループ_687" data-name="グループ 687" clip-path="url(#clip-path-2)">
          <path id="パス_8051" data-name="パス 8051" d="M7.074,5.015c2.325,0,4.846,1.2,4.846,3.838,0,2.731-2.535,3.95-4.846,4.44a6.182,6.182,0,0,0-1.036-1.442c1.569-.294,3.949-1.064,3.949-3.026A2.007,2.007,0,0,0,8.419,6.864a14.135,14.135,0,0,1-2.634,3.768c.084.266.168.5.266.742-.728.42-.994.588-1.54.953a3.725,3.725,0,0,1-.224-.546,4.678,4.678,0,0,1-2.48.854C.561,12.635,0,11.739,0,10.576c0-2.213,1.709-3.951,3.628-4.79.028-.449.07-.9.14-1.345-.42.028-.84.042-1.177.042a10.569,10.569,0,0,1-1.484-.1l.056-1.667a10.641,10.641,0,0,0,2,.154c.28,0,.574,0,.868-.014.182-.813.393-1.625.645-2.423l1.863.588c.14.042.238.07.238.2,0,.154-.21.182-.322.2a13.262,13.262,0,0,0-.476,1.247,15.058,15.058,0,0,0,3.739-.995l.308,1.667a24.4,24.4,0,0,1-4.468.953c-.056.28-.112.616-.154.91a8.327,8.327,0,0,1,1.667-.182M3.6,7.537a3.991,3.991,0,0,0-1.863,2.815c0,.336.126.645.518.645a3.016,3.016,0,0,0,1.611-.757,19.214,19.214,0,0,1-.266-2.7m1.653-.519a13.146,13.146,0,0,0,.112,1.667A10.546,10.546,0,0,0,6.626,6.64a6.486,6.486,0,0,0-1.373.2Z" fill="#222"/>
          <path id="パス_8052" data-name="パス 8052" d="M20.794,2.017c-.013.266-.013.434-.013.617a11.1,11.1,0,0,0,.055,1.176,21.95,21.95,0,0,1-2.353.5,29.954,29.954,0,0,1-3.18,6.738,10.841,10.841,0,0,0-1.765-.729,21.653,21.653,0,0,0,2.928-5.757c-.742.056-1.3.071-2.3.084L13.945,2.8a11.146,11.146,0,0,0,1.512.111c.519,0,1.051-.042,1.541-.084.21-.8.392-1.61.533-2.436L19.407.98c.141.042.253.1.253.21s-.112.155-.28.168c-.1.309-.224.757-.337,1.163a15.509,15.509,0,0,0,1.751-.5m2.1,4.44a1.976,1.976,0,0,0-.575,1.415,8.757,8.757,0,0,0,.154,1.485A15.256,15.256,0,0,1,25.5,11.15a13.791,13.791,0,0,0-1.093,1.429,12.532,12.532,0,0,0-1.877-1.331c-.182,1.513-1.428,1.835-2.731,1.835-1.387,0-3.124-.532-3.124-2.2,0-1.5,1.345-2.129,2.662-2.129a7.038,7.038,0,0,1,1.218.112,11.339,11.339,0,0,1-.1-1.2,2.724,2.724,0,0,1,.981-2.073Zm-3.418,3.712c-.421,0-1.079.2-1.079.715,0,.588.784.715,1.233.715.812,0,1.134-.3,1.176-1.093a2.928,2.928,0,0,0-1.33-.337m6.345-5.421a16.724,16.724,0,0,0-1.064,1.541A9.979,9.979,0,0,0,21.2,4.482l.967-1.541a11.318,11.318,0,0,1,3.656,1.807" fill="#222"/>
          <path id="パス_8053" data-name="パス 8053" d="M31.054.49,33.1.967c.126.027.266.055.266.195s-.168.2-.28.211c-.126.475-.28,1.106-.392,1.6a11.046,11.046,0,0,0,2.577-.715l.224,1.863A22.171,22.171,0,0,1,32.2,4.8a32.544,32.544,0,0,1-3.726,8.333,14.959,14.959,0,0,0-1.793-.91,22.758,22.758,0,0,0,3.558-7.143c-.771.069-1.639.1-2.774.111l-.14-1.961c.378.029.981.057,1.4.057.644,0,1.3-.028,1.961-.084.154-.9.28-1.808.364-2.718M39.08,11.612a5.781,5.781,0,0,0,.084.981,17.1,17.1,0,0,1-2.927.252c-1.541,0-4.174-.155-4.174-2.242a3.982,3.982,0,0,1,.616-1.835l1.555.575a1.773,1.773,0,0,0-.476,1.022c0,.729,1.61.757,2.353.757a10.674,10.674,0,0,0,3.04-.462,7.248,7.248,0,0,0-.071.952m-.364-4.286A9.278,9.278,0,0,0,36.657,7.1a24.246,24.246,0,0,0-3.025.239V5.575a18.015,18.015,0,0,1,3.137-.252,11.392,11.392,0,0,1,2.073.153,16.44,16.44,0,0,0-.126,1.85" fill="#222"/>
          <path id="パス_8054" data-name="パス 8054" d="M47.267,11.122a5.356,5.356,0,0,0,3.026-1.583,4.676,4.676,0,0,0,1.134-2.983,3.6,3.6,0,0,0-1.568-3.04,3.754,3.754,0,0,0-2-.617,18.374,18.374,0,0,1-1.974,7.144c-.393.715-1.065,1.835-1.99,1.835-1.148,0-2.941-1.919-2.941-4.272a6.475,6.475,0,0,1,2.1-4.567A6.618,6.618,0,0,1,47.645,1.19,5.359,5.359,0,0,1,53.3,6.556,6.286,6.286,0,0,1,51.652,10.8,7.483,7.483,0,0,1,48.5,12.789a8.46,8.46,0,0,0-1.233-1.667M43.695,4.875a4.446,4.446,0,0,0-.966,2.6c0,1.038.546,2.116,1.064,2.116.253,0,.421-.238.532-.434a13.484,13.484,0,0,0,.813-1.919,13.491,13.491,0,0,0,.728-4.007,4.23,4.23,0,0,0-2.171,1.64" fill="#222"/>
          <path id="パス_8055" data-name="パス 8055" d="M57.78,9.358c.07.027.182.126.182.21,0,.139-.14.181-.379.2a14.823,14.823,0,0,1-1.835,3.123,5.551,5.551,0,0,0-1.414-.91,8.623,8.623,0,0,0,1.849-3.292ZM56.029.855H66.255V7.438H56.029ZM60.3,2.213H57.85V3.5H60.3Zm0,2.606H57.85v1.3H60.3Zm-.378,3.67c.21.014.336.056.336.154s-.07.154-.336.294v2.031c0,.574.014.757.77.757h1.681c.743,0,.925-.2,1.191-1.387a3.973,3.973,0,0,0,1.5.7,3.543,3.543,0,0,1-.8,1.737,1.739,1.739,0,0,1-1.3.406H59.923a2,2,0,0,1-1.289-.378,1.448,1.448,0,0,1-.392-1.177V8.334Zm2.451,2.073a8.916,8.916,0,0,0-2-1.975l1.093-1.079a15.541,15.541,0,0,1,2.115,1.961c-.42.364-.812.715-1.2,1.093m2.171-8.349H62V3.5h2.549ZM62,6.121h2.549v-1.3H62Zm5.855,4.931a8.323,8.323,0,0,0-1.218,1.219,10.72,10.72,0,0,0-2.27-2.69l1.289-1.05a12.476,12.476,0,0,1,2.2,2.521" fill="#222"/>
          <path id="パス_8056" data-name="パス 8056" d="M71.765,1.877c.211.056.295.1.295.224,0,.169-.168.2-.295.211a12.419,12.419,0,0,0-.742,4.174,5.783,5.783,0,0,0,.756,3.124.637.637,0,0,0,.448.307c.491,0,1.163-1.512,1.5-2.338a5.578,5.578,0,0,0,1.26,1.246c-.42,1.037-1.639,3.6-2.942,3.6a2.064,2.064,0,0,1-1.372-.868,8.114,8.114,0,0,1-1.5-5.085,24.513,24.513,0,0,1,.658-5.155Zm6.962.182a14,14,0,0,1,2.8,7.1,21.08,21.08,0,0,0-1.948.868,12.558,12.558,0,0,0-2.409-6.991Z" fill="#222"/>
          <path id="パス_8057" data-name="パス 8057" d="M84.645.5l1.723.042c.154,0,.28.015.28.168,0,.112-.042.141-.308.295V2.871h1.135V2.129h1.793V.5L91,.574c.112,0,.238.029.238.168s-.168.2-.35.252V2.129h1.429V.49l1.751.056c.112,0,.252.028.252.168,0,.183-.252.253-.392.295v1.12h1.877V3.572H93.932V4.889H92.321V3.572H90.892V4.889H89.268V3.572H87.6v.785H86.34V6.331a13.464,13.464,0,0,0,1.261-.5c-.029.308-.042.7-.042.981,0,.181.013.392.027.546a12.68,12.68,0,0,1-1.246.588v3.642c0,1.541-.925,1.7-2.228,1.7a1.778,1.778,0,0,1-.279-.014,4.88,4.88,0,0,0-.617-1.737,4.029,4.029,0,0,0,.952.155c.463,0,.477-.2.477-.351V8.643c-.28.126-.728.322-1.009.42-.042.182-.1.42-.28.42-.14,0-.182-.125-.21-.266l-.322-1.723c.434-.1,1.386-.42,1.821-.574V4.357h-1.6V2.871h1.6Zm4.931,12.789H87.909V5.421h7.438v7.872H93.736v-.574h-4.16Zm1.344-6.43H89.575V8.32H90.92Zm0,2.914H89.575v1.471H90.92Zm2.816-2.914H92.419V8.32h1.317Zm-1.317,4.385h1.317V9.777H92.419Z" fill="#222"/>
          <path id="パス_8058" data-name="パス 8058" d="M106.21,1.442c.112.084.182.154.182.225,0,.112-.1.154-.2.154a1.728,1.728,0,0,1-.252-.028c-.364.307-1.163.994-1.681,1.457-.728.658-2.353,1.961-3.376,2.773-.336.266-.6.518-.6.687,0,.139.154.237.883.713a26.375,26.375,0,0,1,5.476,4.567,8.513,8.513,0,0,0-1.415,1.6c-1.106-1.653-4.636-4.455-6.121-5.379-1.092-.672-1.373-.911-1.373-1.414a.949.949,0,0,1,.392-.744c.351-.307.715-.6,1.079-.881A34.7,34.7,0,0,0,104.515.154Z" fill="#222"/>
          <path id="パス_8059" data-name="パス 8059" d="M115.952,13.027h-2.017V6.373a25.987,25.987,0,0,1-4.286,2.143,5.887,5.887,0,0,0-1.429-1.68A19.523,19.523,0,0,0,117.941.294l1.681,1.289a.272.272,0,0,1,.126.2c0,.126-.14.182-.252.182a.793.793,0,0,1-.252-.042,23.391,23.391,0,0,1-3.292,3.053Z" fill="#222"/>
          <path id="パス_8060" data-name="パス 8060" d="M126.577,3.4a15.124,15.124,0,0,0-1.163,1.625,14.188,14.188,0,0,0-3.684-2.381L122.907.994a16.634,16.634,0,0,1,3.67,2.409m5.855-.168a8.17,8.17,0,0,0,1.219,1.64A19.576,19.576,0,0,1,123.5,12.621c-.028.181-.084.307-.224.307a.283.283,0,0,1-.224-.168l-1.135-1.919a16.605,16.605,0,0,0,10.52-7.606" fill="#222"/>
          <path id="パス_8061" data-name="パス 8061" d="M140.577,11.122a7.114,7.114,0,0,1-3.109,1.989,6.236,6.236,0,0,0-1.415-1.485,6.185,6.185,0,0,0,3.32-2,5.167,5.167,0,0,0,.9-3.04H134.96V4.875h11.907V6.583H142.16a6.593,6.593,0,0,1-1.583,4.539m4.371-8.194h-8V1.2h8Z" fill="#222"/>
          <path id="パス_8062" data-name="パス 8062" d="M151.79,1.036c.21.015.28.028.28.141,0,.1-.084.181-.28.265v6.78h-1.961V.952Zm6.5-.252c.21.015.28.042.28.141,0,.153-.154.223-.28.265V5.728A7.741,7.741,0,0,1,157.183,10a8.77,8.77,0,0,1-4.328,3.236,3.558,3.558,0,0,0-1.233-1.527,7.219,7.219,0,0,0,3.684-2.381,5.634,5.634,0,0,0,.995-3.586V.686Z" fill="#222"/>
          <path id="パス_8063" data-name="パス 8063" d="M171.506,1.639a2.151,2.151,0,0,0,.785-.126l1.316,1.219c-.154.2-.266.35-.406.56A28.03,28.03,0,0,1,169.153,8a6.439,6.439,0,0,0-1.373-1.316,12.873,12.873,0,0,0,3.026-3.25h-9.651V1.639Zm-3.642,2.577c.14.015.238.042.238.141,0,.126-.14.223-.238.28a13.684,13.684,0,0,1-.714,4.118,8.5,8.5,0,0,1-3.586,4.146,11,11,0,0,0-1.653-1.247A8.677,8.677,0,0,0,164.642,9.4a7.98,7.98,0,0,0,1.219-4.637c0-.225-.014-.519-.028-.673Z" fill="#222"/>
          <path id="パス_8064" data-name="パス 8064" d="M180.855,11.122a5.356,5.356,0,0,0,3.026-1.583,4.676,4.676,0,0,0,1.134-2.983,3.6,3.6,0,0,0-1.568-3.04,3.754,3.754,0,0,0-2-.617,18.374,18.374,0,0,1-1.974,7.144c-.393.715-1.065,1.835-1.99,1.835-1.148,0-2.941-1.919-2.941-4.272a6.475,6.475,0,0,1,2.1-4.567,6.618,6.618,0,0,1,4.594-1.849,5.359,5.359,0,0,1,5.659,5.366A6.286,6.286,0,0,1,185.24,10.8a7.483,7.483,0,0,1-3.152,1.989,8.46,8.46,0,0,0-1.233-1.667m-3.572-6.247a4.446,4.446,0,0,0-.966,2.6c0,1.038.546,2.116,1.064,2.116.253,0,.421-.238.532-.434a13.482,13.482,0,0,0,.813-1.919,13.491,13.491,0,0,0,.728-4.007,4.23,4.23,0,0,0-2.171,1.64" fill="#222"/>
          <path id="パス_8065" data-name="パス 8065" d="M189.2,11.346V9.511h8.362V4.286H189.2V2.451h10.394v9.582h-2.032v-.687Z" fill="#222"/>
          <path id="パス_8066" data-name="パス 8066" d="M206.938,3.4a15.137,15.137,0,0,0-1.164,1.625,14.171,14.171,0,0,0-3.684-2.381L203.268.994a16.681,16.681,0,0,1,3.67,2.409m5.854-.168a8.208,8.208,0,0,0,1.219,1.64,19.572,19.572,0,0,1-10.156,7.746c-.028.181-.084.307-.223.307a.281.281,0,0,1-.224-.168l-1.136-1.919a16.6,16.6,0,0,0,10.52-7.606" fill="#222"/>
          <path id="パス_8067" data-name="パス 8067" d="M218.934.854l1.933.1c.2.014.28.042.28.154,0,.14-.154.2-.28.238V4.51l4.594-.575a3.406,3.406,0,0,0,1.009-.252l1.247,1.135a8.123,8.123,0,0,0-1.037,1.3c-.868,1.26-1.6,2.2-2.381,3.151a9.183,9.183,0,0,0-1.625-.994,12.24,12.24,0,0,0,2.059-2.438l-3.866.491V9.594c0,1.15.294,1.331,1.625,1.331a35.809,35.809,0,0,0,4.468-.238,10.106,10.106,0,0,0-.21,1.947c-.616.014-2.367.042-3.74.042-.77,0-1.527-.013-1.68-.028a2.747,2.747,0,0,1-1.751-.616,2.816,2.816,0,0,1-.645-2.185V6.583L215.712,7l-.168-1.835,3.39-.42Z" fill="#222"/>
          <path id="パス_8068" data-name="パス 8068" d="M238.593,2.27a4.436,4.436,0,0,0,.966-.1l1.4,1.163a2.6,2.6,0,0,0-.434.771c-1.919,4.58-3.306,6.569-7.788,8.908a7.205,7.205,0,0,0-1.457-1.456A11.827,11.827,0,0,0,238.4,4.021h-8.811V2.27Zm3.782-.967a1.3,1.3,0,0,1-2.606,0,1.3,1.3,0,0,1,2.606,0m-1.947,0a.652.652,0,1,0,.644-.658.645.645,0,0,0-.644.658" fill="#222"/>
          <path id="パス_8069" data-name="パス 8069" d="M247.2,4.385a21.261,21.261,0,0,1,5.057,3.39c-.476.5-.925,1.007-1.345,1.526a19.724,19.724,0,0,0-4.426-3.138V13H244.5V.714l1.99.112c.153.015.266.029.266.155s-.113.168-.266.21v4.2Z" fill="#222"/>
          <path id="パス_8070" data-name="パス 8070" d="M257.378,1.512a.2.2,0,0,1,.168.2c0,.168-.266.21-.392.223a20.78,20.78,0,0,0-.8,5.562,13.109,13.109,0,0,0,.1,1.652c.239-.462.533-1.022.757-1.414a5.316,5.316,0,0,0,.9,1.191,6.967,6.967,0,0,0-1.162,3.641l-1.6.309a19.934,19.934,0,0,1-.729-5.534A26.385,26.385,0,0,1,255.431.9Zm4.58-.658,2.13.35c.084.014.2.056.2.182,0,.155-.224.182-.337.2-.069.5-.111,1.078-.14,1.835a15.306,15.306,0,0,0,2.2-.547V4.678c-.743.182-1.485.336-2.242.462a26.5,26.5,0,0,0,.21,3.516,8.968,8.968,0,0,1,2.788,1.513,15.319,15.319,0,0,0-.826,1.667,6.15,6.15,0,0,0-1.78-1.205c0,1.569-1.456,2.045-2.773,2.045-1.345,0-2.745-.672-2.745-2.2s1.568-2.171,2.885-2.171c.112,0,.35.014.589.042-.07-.925-.141-2.017-.155-2.969-.658.055-1.316.1-1.974.1-.281,0-.729-.013-.981-.027V3.572a15.4,15.4,0,0,0,1.751.1c.392,0,.784-.014,1.191-.042,0-1.163,0-2.045.013-2.774m-.616,8.923c-.434,0-1.135.14-1.135.7,0,.49.575.673.981.673.56,0,1.176-.238,1.176-.9a1.757,1.757,0,0,0-.027-.3,2.419,2.419,0,0,0-.995-.182" fill="#222"/>
          <path id="パス_8071" data-name="パス 8071" d="M278.549,2.983l.743,2.087a18.6,18.6,0,0,0-4.931,1.415c-1.2.5-3.445,1.639-3.445,3.166a1.111,1.111,0,0,0,.77,1.051,8.3,8.3,0,0,0,2.885.363,14.466,14.466,0,0,0,4.693-.742,6.442,6.442,0,0,0-.182,1.457c0,.281,0,.462.014.658a25.951,25.951,0,0,1-4.665.42,8.9,8.9,0,0,1-4.09-.727,2.662,2.662,0,0,1-1.484-2.367c0-1.836,1.6-3.054,3.039-3.895-.714-.715-.869-1.751-1.036-3.151a6.86,6.86,0,0,0-.365-1.724l2.367-.5a11.913,11.913,0,0,0-.084,1.429,6.556,6.556,0,0,0,.673,3.151c1.807-.84,3.25-1.386,5.1-2.087m.547-.91a3.853,3.853,0,0,0-1.008.63,8.781,8.781,0,0,0-.981-1.471l.952-.644A7.842,7.842,0,0,1,279.1,2.073m1.639-.406a3.525,3.525,0,0,0-.995.63,8.625,8.625,0,0,0-.994-1.456L279.7.182a7.212,7.212,0,0,1,1.037,1.485" fill="#222"/>
          <path id="パス_8072" data-name="パス 8072" d="M286.359,3.151l.84.673a3.251,3.251,0,0,0-.392.938c.784-.812,2.185-1.919,3.362-1.919a1.825,1.825,0,0,1,1.793,1.975,24.209,24.209,0,0,1-.309,2.844,15.163,15.163,0,0,0-.153,1.932c0,.337.1.771.532.771.63,0,1.429-.826,1.807-1.288a9.68,9.68,0,0,0,.686,1.835,4.627,4.627,0,0,1-2.773,1.5c-1.457,0-2.1-1.275-2.1-2.563,0-.743.2-2.353.266-2.914.056-.448.126-1.2.126-1.5,0-.378-.141-.644-.546-.644-1.009,0-2.62,1.863-3.264,2.605a51.4,51.4,0,0,0,.224,5.674l-2.073.1c.1-.967.1-1.975.1-2.956V9.665c-.644.995-1.065,1.625-1.485,2.227l-1.443-1.47a41.069,41.069,0,0,0,2.984-3.937l.014-.645a13.688,13.688,0,0,1-2.381.547L281.764,4.4a11.342,11.342,0,0,0,2.83-.463c.014-.91.014-1.793.014-2.226,0-.294,0-.659-.014-1.149l1.779.153c.322.029.392.113.392.2,0,.14-.084.2-.308.252-.056.7-.1,1.247-.14,2.017Z" fill="#222"/>
          <path id="パス_8073" data-name="パス 8073" d="M295.948,2.381a4.385,4.385,0,0,1,3.586-1.5,4.514,4.514,0,0,1,3,.952,2.569,2.569,0,0,1,.869,1.919c0,1.247-.882,1.961-1.807,2.619-.855.6-1.429,1.023-1.429,2.018V8.74h-1.9V7.928c0-1.162.533-1.582,1.919-2.619.476-.365,1.065-.882,1.065-1.513,0-.967-1.051-1.135-1.807-1.135-1.3,0-1.877.448-1.947,1.766h-2.172a3.641,3.641,0,0,1,.631-2.046m4.328,9.848h-2.129v-2.2h2.129Z" fill="#222"/>
        </g>
      </g>
    </g>
  </g>
</svg>
