<svg width="108" height="25" viewBox="0 0 108 25" fill="none" xmlns="http://www.w3.org/2000/svg">
<path d="M1.29064 19.5V18.7452C1.88419 18.7194 2.32289 18.6677 2.60677 18.5903C2.90354 18.5 3.09709 18.3452 3.18741 18.1258C3.29064 17.8935 3.34225 17.5452 3.34225 17.0806L3.34225 8.21613C3.34225 7.75161 3.29064 7.40968 3.18741 7.19032C3.09709 6.95807 2.90354 6.79677 2.60677 6.70645C2.32289 6.61613 1.88419 6.56452 1.29064 6.55161V5.79677C1.45838 5.80968 1.68419 5.82258 1.96806 5.83548C2.25193 5.83548 2.60677 5.83548 3.03257 5.83548C3.47128 5.83548 3.98096 5.83548 4.5616 5.83548C5.41322 5.83548 6.11644 5.83548 6.67128 5.83548C7.23902 5.82258 7.67128 5.81613 7.96806 5.81613C9.7616 5.81613 11.1293 6.16452 12.0713 6.86129C13.0132 7.54516 13.4842 8.53871 13.4842 9.84194C13.4842 10.7452 13.2519 11.5194 12.7874 12.1645C12.3229 12.8097 11.6519 13.3065 10.7745 13.6548C9.89709 13.9903 8.83902 14.1581 7.60031 14.1581C7.32935 14.1581 7.05838 14.1516 6.78741 14.1387C6.51644 14.1129 6.26483 14.0806 6.03257 14.0419C5.80031 13.9903 5.60031 13.9452 5.43257 13.9065V13.1516C5.67773 13.229 5.95515 13.2935 6.26483 13.3452C6.58741 13.3839 6.92289 13.4032 7.27128 13.4032C8.35515 13.4032 9.1487 13.1258 9.65193 12.571C10.1552 12.0032 10.4068 11.1194 10.4068 9.91935C10.4068 8.75806 10.181 7.90645 9.72935 7.36452C9.29064 6.82258 8.60031 6.55161 7.65838 6.55161H6.28419L6.28419 17.0226C6.28419 17.5 6.34225 17.8613 6.45838 18.1065C6.58741 18.3387 6.83902 18.5 7.21322 18.5903C7.60031 18.6806 8.17451 18.7323 8.9358 18.7452V19.5C8.69064 19.4871 8.36806 19.4806 7.96806 19.4806C7.56806 19.4677 7.10354 19.4613 6.57451 19.4613C6.05838 19.4484 5.49709 19.4419 4.89064 19.4419C4.11644 19.4419 3.43257 19.4484 2.83902 19.4613C2.24548 19.4742 1.72935 19.4871 1.29064 19.5ZM20.2743 19.771C19.3066 19.771 18.4485 19.5839 17.7001 19.2097C16.9517 18.8226 16.3646 18.2419 15.9388 17.4677C15.513 16.6806 15.3001 15.6935 15.3001 14.5065C15.3001 13.3194 15.513 12.3323 15.9388 11.5452C16.3646 10.7581 16.9517 10.1774 17.7001 9.80323C18.4485 9.41613 19.3066 9.22258 20.2743 9.22258C21.255 9.22258 22.113 9.41613 22.8485 9.80323C23.584 10.1774 24.1646 10.7581 24.5904 11.5452C25.0163 12.3323 25.2292 13.3194 25.2292 14.5065C25.2292 15.6935 25.0163 16.6806 24.5904 17.4677C24.1646 18.2419 23.584 18.8226 22.8485 19.2097C22.113 19.5839 21.255 19.771 20.2743 19.771ZM20.2743 19.0161C20.8937 19.0161 21.4033 18.6613 21.8033 17.9516C22.2163 17.229 22.4227 16.0806 22.4227 14.5065C22.4227 12.9065 22.2163 11.7516 21.8033 11.0419C21.4033 10.3194 20.8937 9.95806 20.2743 9.95806C19.6421 9.95806 19.1259 10.3194 18.7259 11.0419C18.3259 11.7516 18.1259 12.9065 18.1259 14.5065C18.1259 16.0806 18.3259 17.229 18.7259 17.9516C19.1259 18.6613 19.6421 19.0161 20.2743 19.0161ZM27.3472 19.5V18.7452C28.0311 18.7323 28.5085 18.629 28.7795 18.4355C29.0504 18.2419 29.1859 17.8806 29.1859 17.3516V11.9516C29.1859 11.371 29.0504 10.9516 28.7795 10.6935C28.5214 10.4226 28.044 10.2742 27.3472 10.2484V9.49355C27.6053 9.50645 27.8698 9.51936 28.1408 9.53226C28.4117 9.54516 28.6827 9.55161 28.9537 9.55161C29.5085 9.55161 30.0246 9.53226 30.502 9.49355C30.9924 9.44194 31.444 9.37097 31.8569 9.28065V17.3516C31.8569 17.8806 31.9924 18.2419 32.2633 18.4355C32.5343 18.629 33.0117 18.7323 33.6956 18.7452V19.5C33.502 19.4871 33.2311 19.4806 32.8827 19.4806C32.5472 19.4677 32.173 19.4548 31.7601 19.4419C31.3601 19.429 30.9601 19.4226 30.5601 19.4226C29.9537 19.4226 29.3408 19.4355 28.7214 19.4613C28.115 19.4742 27.6569 19.4871 27.3472 19.5ZM30.444 7.5C30.0182 7.5 29.6375 7.36452 29.302 7.09355C28.9795 6.82258 28.8182 6.45484 28.8182 5.99032C28.8182 5.5129 28.9795 5.13871 29.302 4.86774C29.6375 4.59677 30.0182 4.46129 30.444 4.46129C30.8698 4.46129 31.244 4.59677 31.5666 4.86774C31.902 5.13871 32.0698 5.50645 32.0698 5.97097C32.0698 6.44839 31.902 6.82258 31.5666 7.09355C31.244 7.36452 30.8698 7.5 30.444 7.5ZM42.1156 19.5V18.7452C42.593 18.7323 42.9156 18.629 43.0834 18.4355C43.264 18.229 43.3543 17.8677 43.3543 17.3516V12.5516C43.3543 11.8548 43.2124 11.3323 42.9285 10.9839C42.6576 10.6355 42.2511 10.4613 41.7092 10.4613C41.2834 10.4613 40.8898 10.5839 40.5285 10.829C40.1672 11.0742 39.8576 11.429 39.5995 11.8935V11.0419C39.9221 10.4613 40.3608 10.0161 40.9156 9.70645C41.4834 9.38387 42.1285 9.22258 42.8511 9.22258C43.8834 9.22258 44.6705 9.53226 45.2124 10.1516C45.7543 10.7581 46.0253 11.6355 46.0253 12.7839V17.3516C46.0253 17.8677 46.1608 18.229 46.4317 18.4355C46.7027 18.629 47.1801 18.7323 47.864 18.7452V19.5C47.6705 19.4871 47.3995 19.4806 47.0511 19.4806C46.7156 19.4677 46.3414 19.4548 45.9285 19.4419C45.5285 19.429 45.135 19.4226 44.7479 19.4226C44.2446 19.4226 43.7414 19.4355 43.2382 19.4613C42.735 19.4742 42.3608 19.4871 42.1156 19.5ZM35.1866 19.5V18.7452C35.8834 18.7323 36.3608 18.629 36.6188 18.4355C36.8898 18.229 37.0253 17.8677 37.0253 17.3516V11.9516C37.0253 11.3452 36.8834 10.9194 36.5995 10.6742C36.3285 10.4161 35.8576 10.2742 35.1866 10.2484V9.49355C35.4576 9.50645 35.7285 9.51936 35.9995 9.53226C36.2705 9.54516 36.5479 9.55161 36.8317 9.55161C37.3866 9.55161 37.9027 9.53226 38.3801 9.49355C38.8576 9.44194 39.2963 9.37097 39.6963 9.28065V17.3516C39.6963 17.8677 39.7866 18.229 39.9672 18.4355C40.1479 18.629 40.4705 18.7323 40.935 18.7452V19.5C40.664 19.4871 40.2963 19.4742 39.8317 19.4613C39.3672 19.4355 38.8834 19.4226 38.3801 19.4226C37.8124 19.4226 37.2253 19.4355 36.6188 19.4613C36.0253 19.4742 35.5479 19.4871 35.1866 19.5ZM53.7098 19.771C52.7034 19.771 51.9485 19.4935 51.4453 18.9387C50.9421 18.371 50.6905 17.5323 50.6905 16.4226V10.2484H48.5808V9.49355H50.6905V6.6871C51.1937 6.6871 51.6647 6.65484 52.1034 6.59032C52.5421 6.52581 52.9614 6.43548 53.3614 6.31935V9.49355H56.2647V10.2484H53.3614V17.0613C53.3614 17.5516 53.4582 17.9194 53.6518 18.1645C53.8582 18.3968 54.1614 18.5129 54.5614 18.5129C54.9356 18.5129 55.2518 18.3968 55.5098 18.1645C55.7679 17.9194 55.9808 17.5645 56.1485 17.1L56.7485 17.3516C56.4776 18.1903 56.1034 18.8032 55.626 19.1903C55.1485 19.5774 54.5098 19.771 53.7098 19.771Z" fill="white"/>
<path d="M74.088 24.48C72.7653 24.48 71.528 24.064 70.376 23.232C69.224 22.4 68.2853 21.088 67.56 19.296C66.8347 17.4827 66.472 15.136 66.472 12.256C66.472 9.376 66.8347 7.05067 67.56 5.28C68.2853 3.488 69.224 2.176 70.376 1.344C71.528 0.511999 72.7653 0.0959988 74.088 0.0959988C75.4107 0.0959988 76.648 0.511999 77.8 1.344C78.952 2.176 79.88 3.488 80.584 5.28C81.3093 7.05067 81.672 9.376 81.672 12.256C81.672 15.136 81.3093 17.4827 80.584 19.296C79.88 21.088 78.952 22.4 77.8 23.232C76.648 24.064 75.4107 24.48 74.088 24.48ZM74.088 23.456C74.6427 23.456 75.1867 23.2747 75.72 22.912C76.2747 22.5493 76.7653 21.9413 77.192 21.088C77.6187 20.2347 77.96 19.0827 78.216 17.632C78.472 16.1813 78.6 14.3893 78.6 12.256C78.6 10.1227 78.472 8.34133 78.216 6.912C77.96 5.48267 77.6187 4.352 77.192 3.52C76.7653 2.66667 76.2747 2.05867 75.72 1.696C75.1867 1.33333 74.6427 1.152 74.088 1.152C73.4907 1.152 72.9253 1.33333 72.392 1.696C71.8587 2.05867 71.3787 2.66667 70.952 3.52C70.5253 4.352 70.184 5.48267 69.928 6.912C69.6933 8.34133 69.576 10.1227 69.576 12.256C69.576 14.3893 69.6933 16.1813 69.928 17.632C70.184 19.0827 70.5253 20.2347 70.952 21.088C71.3787 21.9413 71.8587 22.5493 72.392 22.912C72.9253 23.2747 73.4907 23.456 74.088 23.456ZM97.9082 24.48C95.9669 24.48 94.4096 24.0747 93.2362 23.264C92.0629 22.4533 91.3162 21.28 90.9962 19.744C91.1456 19.3813 91.3482 19.1147 91.6042 18.944C91.8602 18.752 92.1482 18.656 92.4682 18.656C92.9162 18.656 93.2682 18.7947 93.5242 19.072C93.7802 19.328 93.9829 19.808 94.1322 20.512L94.9962 23.584L93.6522 22.56C94.1856 22.8587 94.7082 23.0827 95.2202 23.232C95.7536 23.3813 96.3509 23.456 97.0122 23.456C98.7616 23.456 100.106 22.9653 101.044 21.984C102.004 20.9813 102.484 19.616 102.484 17.888C102.484 16.1173 102.015 14.752 101.076 13.792C100.138 12.8107 98.7296 12.32 96.8523 12.32H95.4443V11.168H96.6922C98.2069 11.168 99.4442 10.72 100.404 9.824C101.386 8.90667 101.876 7.57333 101.876 5.824C101.876 4.33067 101.503 3.17867 100.756 2.368C100.031 1.536 98.9856 1.12 97.6202 1.12C97.0656 1.12 96.5109 1.184 95.9562 1.312C95.4016 1.41866 94.8042 1.632 94.1642 1.952L95.6683 1.056L94.8362 4C94.6869 4.59733 94.4629 5.01333 94.1642 5.248C93.8869 5.48267 93.5349 5.6 93.1082 5.6C92.8096 5.6 92.5429 5.52533 92.3082 5.376C92.0736 5.22667 91.9029 5.01333 91.7962 4.736C91.9669 3.62667 92.3616 2.74133 92.9802 2.08C93.6202 1.39733 94.4096 0.895999 95.3482 0.575998C96.3082 0.255999 97.3216 0.0959988 98.3883 0.0959988C100.543 0.0959988 102.186 0.618666 103.316 1.664C104.468 2.70933 105.044 4.064 105.044 5.728C105.044 6.752 104.788 7.70133 104.276 8.576C103.786 9.45067 103.039 10.176 102.036 10.752C101.034 11.328 99.7429 11.712 98.1643 11.904V11.52C99.9349 11.6053 101.375 11.9253 102.484 12.48C103.594 13.0347 104.415 13.7813 104.948 14.72C105.482 15.6587 105.748 16.7467 105.748 17.984C105.748 19.2853 105.418 20.4267 104.756 21.408C104.095 22.368 103.178 23.1253 102.004 23.68C100.831 24.2133 99.4656 24.48 97.9082 24.48Z" fill="white"/>
</svg>
