<svg width="109" height="25" viewBox="0 0 109 25" fill="none" xmlns="http://www.w3.org/2000/svg">
<path d="M1.79064 19.5V18.7452C2.38419 18.7194 2.82289 18.6677 3.10677 18.5903C3.40354 18.5 3.59709 18.3452 3.68741 18.1258C3.79064 17.8935 3.84225 17.5452 3.84225 17.0806L3.84225 8.21613C3.84225 7.75161 3.79064 7.40968 3.68741 7.19032C3.59709 6.95807 3.40354 6.79677 3.10677 6.70645C2.82289 6.61613 2.38419 6.56452 1.79064 6.55161V5.79677C1.95838 5.80968 2.18419 5.82258 2.46806 5.83548C2.75193 5.83548 3.10677 5.83548 3.53257 5.83548C3.97128 5.83548 4.48096 5.83548 5.0616 5.83548C5.91322 5.83548 6.61644 5.83548 7.17128 5.83548C7.73902 5.82258 8.17128 5.81613 8.46806 5.81613C10.2616 5.81613 11.6293 6.16452 12.5713 6.86129C13.5132 7.54516 13.9842 8.53871 13.9842 9.84194C13.9842 10.7452 13.7519 11.5194 13.2874 12.1645C12.8229 12.8097 12.1519 13.3065 11.2745 13.6548C10.3971 13.9903 9.33902 14.1581 8.10031 14.1581C7.82935 14.1581 7.55838 14.1516 7.28741 14.1387C7.01644 14.1129 6.76483 14.0806 6.53257 14.0419C6.30031 13.9903 6.10031 13.9452 5.93257 13.9065V13.1516C6.17773 13.229 6.45515 13.2935 6.76483 13.3452C7.08741 13.3839 7.42289 13.4032 7.77128 13.4032C8.85515 13.4032 9.6487 13.1258 10.1519 12.571C10.6552 12.0032 10.9068 11.1194 10.9068 9.91935C10.9068 8.75806 10.681 7.90645 10.2293 7.36452C9.79064 6.82258 9.10031 6.55161 8.15838 6.55161H6.78419L6.78419 17.0226C6.78419 17.5 6.84225 17.8613 6.95838 18.1065C7.08741 18.3387 7.33902 18.5 7.71322 18.5903C8.10031 18.6806 8.67451 18.7323 9.4358 18.7452V19.5C9.19064 19.4871 8.86806 19.4806 8.46806 19.4806C8.06806 19.4677 7.60354 19.4613 7.07451 19.4613C6.55838 19.4484 5.99709 19.4419 5.39064 19.4419C4.61644 19.4419 3.93257 19.4484 3.33902 19.4613C2.74548 19.4742 2.22935 19.4871 1.79064 19.5ZM20.7743 19.771C19.8066 19.771 18.9485 19.5839 18.2001 19.2097C17.4517 18.8226 16.8646 18.2419 16.4388 17.4677C16.013 16.6806 15.8001 15.6935 15.8001 14.5065C15.8001 13.3194 16.013 12.3323 16.4388 11.5452C16.8646 10.7581 17.4517 10.1774 18.2001 9.80323C18.9485 9.41613 19.8066 9.22258 20.7743 9.22258C21.755 9.22258 22.613 9.41613 23.3485 9.80323C24.084 10.1774 24.6646 10.7581 25.0904 11.5452C25.5163 12.3323 25.7292 13.3194 25.7292 14.5065C25.7292 15.6935 25.5163 16.6806 25.0904 17.4677C24.6646 18.2419 24.084 18.8226 23.3485 19.2097C22.613 19.5839 21.755 19.771 20.7743 19.771ZM20.7743 19.0161C21.3937 19.0161 21.9033 18.6613 22.3033 17.9516C22.7163 17.229 22.9227 16.0806 22.9227 14.5065C22.9227 12.9065 22.7163 11.7516 22.3033 11.0419C21.9033 10.3194 21.3937 9.95806 20.7743 9.95806C20.1421 9.95806 19.6259 10.3194 19.2259 11.0419C18.8259 11.7516 18.6259 12.9065 18.6259 14.5065C18.6259 16.0806 18.8259 17.229 19.2259 17.9516C19.6259 18.6613 20.1421 19.0161 20.7743 19.0161ZM27.8472 19.5V18.7452C28.5311 18.7323 29.0085 18.629 29.2795 18.4355C29.5504 18.2419 29.6859 17.8806 29.6859 17.3516V11.9516C29.6859 11.371 29.5504 10.9516 29.2795 10.6935C29.0214 10.4226 28.544 10.2742 27.8472 10.2484V9.49355C28.1053 9.50645 28.3698 9.51936 28.6408 9.53226C28.9117 9.54516 29.1827 9.55161 29.4537 9.55161C30.0085 9.55161 30.5246 9.53226 31.002 9.49355C31.4924 9.44194 31.944 9.37097 32.3569 9.28065V17.3516C32.3569 17.8806 32.4924 18.2419 32.7633 18.4355C33.0343 18.629 33.5117 18.7323 34.1956 18.7452V19.5C34.002 19.4871 33.7311 19.4806 33.3827 19.4806C33.0472 19.4677 32.673 19.4548 32.2601 19.4419C31.8601 19.429 31.4601 19.4226 31.0601 19.4226C30.4537 19.4226 29.8408 19.4355 29.2214 19.4613C28.615 19.4742 28.1569 19.4871 27.8472 19.5ZM30.944 7.5C30.5182 7.5 30.1375 7.36452 29.802 7.09355C29.4795 6.82258 29.3182 6.45484 29.3182 5.99032C29.3182 5.5129 29.4795 5.13871 29.802 4.86774C30.1375 4.59677 30.5182 4.46129 30.944 4.46129C31.3698 4.46129 31.744 4.59677 32.0666 4.86774C32.402 5.13871 32.5698 5.50645 32.5698 5.97097C32.5698 6.44839 32.402 6.82258 32.0666 7.09355C31.744 7.36452 31.3698 7.5 30.944 7.5ZM42.6156 19.5V18.7452C43.093 18.7323 43.4156 18.629 43.5834 18.4355C43.764 18.229 43.8543 17.8677 43.8543 17.3516V12.5516C43.8543 11.8548 43.7124 11.3323 43.4285 10.9839C43.1576 10.6355 42.7511 10.4613 42.2092 10.4613C41.7834 10.4613 41.3898 10.5839 41.0285 10.829C40.6672 11.0742 40.3576 11.429 40.0995 11.8935V11.0419C40.4221 10.4613 40.8608 10.0161 41.4156 9.70645C41.9834 9.38387 42.6285 9.22258 43.3511 9.22258C44.3834 9.22258 45.1705 9.53226 45.7124 10.1516C46.2543 10.7581 46.5253 11.6355 46.5253 12.7839V17.3516C46.5253 17.8677 46.6608 18.229 46.9317 18.4355C47.2027 18.629 47.6801 18.7323 48.364 18.7452V19.5C48.1705 19.4871 47.8995 19.4806 47.5511 19.4806C47.2156 19.4677 46.8414 19.4548 46.4285 19.4419C46.0285 19.429 45.635 19.4226 45.2479 19.4226C44.7446 19.4226 44.2414 19.4355 43.7382 19.4613C43.235 19.4742 42.8608 19.4871 42.6156 19.5ZM35.6866 19.5V18.7452C36.3834 18.7323 36.8608 18.629 37.1188 18.4355C37.3898 18.229 37.5253 17.8677 37.5253 17.3516V11.9516C37.5253 11.3452 37.3834 10.9194 37.0995 10.6742C36.8285 10.4161 36.3576 10.2742 35.6866 10.2484V9.49355C35.9576 9.50645 36.2285 9.51936 36.4995 9.53226C36.7705 9.54516 37.0479 9.55161 37.3317 9.55161C37.8866 9.55161 38.4027 9.53226 38.8801 9.49355C39.3576 9.44194 39.7963 9.37097 40.1963 9.28065V17.3516C40.1963 17.8677 40.2866 18.229 40.4672 18.4355C40.6479 18.629 40.9705 18.7323 41.435 18.7452V19.5C41.164 19.4871 40.7963 19.4742 40.3317 19.4613C39.8672 19.4355 39.3834 19.4226 38.8801 19.4226C38.3124 19.4226 37.7253 19.4355 37.1188 19.4613C36.5253 19.4742 36.0479 19.4871 35.6866 19.5ZM54.2098 19.771C53.2034 19.771 52.4485 19.4935 51.9453 18.9387C51.4421 18.371 51.1905 17.5323 51.1905 16.4226V10.2484H49.0808V9.49355H51.1905V6.6871C51.6937 6.6871 52.1647 6.65484 52.6034 6.59032C53.0421 6.52581 53.4614 6.43548 53.8614 6.31935V9.49355H56.7647V10.2484H53.8614V17.0613C53.8614 17.5516 53.9582 17.9194 54.1518 18.1645C54.3582 18.3968 54.6614 18.5129 55.0614 18.5129C55.4356 18.5129 55.7518 18.3968 56.0098 18.1645C56.2679 17.9194 56.4808 17.5645 56.6485 17.1L57.2485 17.3516C56.9776 18.1903 56.6034 18.8032 56.126 19.1903C55.6485 19.5774 55.0098 19.771 54.2098 19.771Z" fill="white"/>
<path d="M74.588 24.48C73.2653 24.48 72.028 24.064 70.876 23.232C69.724 22.4 68.7853 21.088 68.06 19.296C67.3347 17.4827 66.972 15.136 66.972 12.256C66.972 9.376 67.3347 7.05067 68.06 5.28C68.7853 3.488 69.724 2.176 70.876 1.344C72.028 0.511999 73.2653 0.0959988 74.588 0.0959988C75.9107 0.0959988 77.148 0.511999 78.3 1.344C79.452 2.176 80.38 3.488 81.084 5.28C81.8093 7.05067 82.172 9.376 82.172 12.256C82.172 15.136 81.8093 17.4827 81.084 19.296C80.38 21.088 79.452 22.4 78.3 23.232C77.148 24.064 75.9107 24.48 74.588 24.48ZM74.588 23.456C75.1427 23.456 75.6867 23.2747 76.22 22.912C76.7747 22.5493 77.2653 21.9413 77.692 21.088C78.1187 20.2347 78.46 19.0827 78.716 17.632C78.972 16.1813 79.1 14.3893 79.1 12.256C79.1 10.1227 78.972 8.34133 78.716 6.912C78.46 5.48267 78.1187 4.352 77.692 3.52C77.2653 2.66667 76.7747 2.05867 76.22 1.696C75.6867 1.33333 75.1427 1.152 74.588 1.152C73.9907 1.152 73.4253 1.33333 72.892 1.696C72.3587 2.05867 71.8787 2.66667 71.452 3.52C71.0253 4.352 70.684 5.48267 70.428 6.912C70.1933 8.34133 70.076 10.1227 70.076 12.256C70.076 14.3893 70.1933 16.1813 70.428 17.632C70.684 19.0827 71.0253 20.2347 71.452 21.088C71.8787 21.9413 72.3587 22.5493 72.892 22.912C73.4253 23.2747 73.9907 23.456 74.588 23.456ZM100.84 24.576V17.28V16.8V2.304H100.456L101.608 1.856L97.0002 8.992L92.1682 16.512L92.4242 15.392V15.872H107.432V17.984H91.1442V16.288L101.576 0.223999H103.688V24.576H100.84Z" fill="white"/>
</svg>
