<svg xmlns="http://www.w3.org/2000/svg" width="17.645" height="20.105" viewBox="0 0 17.645 20.105">
  <path id="event_available_24dp_5F6368_FILL0_wght200_GRAD0_opsz24" d="M167.665-832.853,164.513-836l.793-.793,2.358,2.358,4.674-4.674.793.793Zm-5.883,3.728a1.726,1.726,0,0,1-1.272-.51,1.726,1.726,0,0,1-.51-1.271v-14.082a1.726,1.726,0,0,1,.51-1.272,1.726,1.726,0,0,1,1.272-.51h1.951v-2.46h1.188v2.46h7.889v-2.46h1.1v2.46h1.951a1.726,1.726,0,0,1,1.272.51,1.726,1.726,0,0,1,.51,1.272v14.082a1.726,1.726,0,0,1-.51,1.271,1.726,1.726,0,0,1-1.272.51Zm0-1.1h14.082a.648.648,0,0,0,.467-.212.648.648,0,0,0,.212-.467v-9.671H161.1v9.671a.649.649,0,0,0,.212.467A.649.649,0,0,0,161.782-830.228ZM161.1-841.68h15.439v-3.308a.649.649,0,0,0-.212-.467.649.649,0,0,0-.467-.212H161.782a.649.649,0,0,0-.467.212.649.649,0,0,0-.212.467Zm0,0v0Z" transform="translate(-160 849.23)" fill="#fff"/>
</svg>
