<svg xmlns="http://www.w3.org/2000/svg" width="26.497" height="18.293" viewBox="0 0 26.497 18.293">
  <path id="menu_book_24dp_5F6368_FILL0_wght200_GRAD0_opsz24" d="M95.745-755.4v-1.233a9.679,9.679,0,0,1,2.287-.81,11.54,11.54,0,0,1,2.5-.27,10.2,10.2,0,0,1,1.409.094q.675.094,1.394.268v1.2a7.655,7.655,0,0,0-1.352-.307,11.324,11.324,0,0,0-1.451-.085,10.858,10.858,0,0,0-2.507.289A9.5,9.5,0,0,0,95.745-755.4Zm0,7.236v-1.284a8.739,8.739,0,0,1,2.274-.81,11.948,11.948,0,0,1,2.516-.27,10.185,10.185,0,0,1,1.409.094q.675.094,1.394.267v1.2a7.7,7.7,0,0,0-1.352-.307,11.323,11.323,0,0,0-1.451-.085,10.128,10.128,0,0,0-2.507.311,9.967,9.967,0,0,0-2.283.881Zm0-3.592v-1.284a9.7,9.7,0,0,1,2.287-.81,11.547,11.547,0,0,1,2.5-.27,10.2,10.2,0,0,1,1.409.094q.675.094,1.394.268v1.2a7.688,7.688,0,0,0-1.352-.307,11.346,11.346,0,0,0-1.451-.085,10.022,10.022,0,0,0-2.507.315A10.337,10.337,0,0,0,95.745-751.762Zm-9.783,4.9a14.226,14.226,0,0,1,3.374.4,12.93,12.93,0,0,1,3.25,1.3v-13a10.567,10.567,0,0,0-3.162-1.536,12.128,12.128,0,0,0-3.463-.512,13.416,13.416,0,0,0-2.088.143,11.415,11.415,0,0,0-1.989.53.8.8,0,0,0-.433.293.74.74,0,0,0-.128.42v11.944a.578.578,0,0,0,.255.522.571.571,0,0,0,.561.038,10.159,10.159,0,0,1,1.678-.393A14.079,14.079,0,0,1,85.962-746.865Zm7.949,1.7a12.929,12.929,0,0,1,3.25-1.3,14.225,14.225,0,0,1,3.374-.4,14.079,14.079,0,0,1,2.144.148,10.159,10.159,0,0,1,1.678.393.571.571,0,0,0,.561-.038.578.578,0,0,0,.255-.522v-11.944a.683.683,0,0,0-.128-.408.98.98,0,0,0-.433-.306,11.414,11.414,0,0,0-1.989-.53,13.416,13.416,0,0,0-2.088-.143,12.128,12.128,0,0,0-3.463.512,10.567,10.567,0,0,0-3.162,1.536Zm-.662,1.921a13.273,13.273,0,0,0-3.47-1.7,12.445,12.445,0,0,0-3.817-.594,11.856,11.856,0,0,0-2.032.173,9.505,9.505,0,0,0-1.943.555,1.33,1.33,0,0,1-1.354-.173A1.489,1.489,0,0,1,80-746.258v-12.805a1.708,1.708,0,0,1,.259-.912,1.363,1.363,0,0,1,.725-.586,10.853,10.853,0,0,1,2.428-.747,14.079,14.079,0,0,1,2.55-.232,13.035,13.035,0,0,1,3.8.56,13.515,13.515,0,0,1,3.489,1.631,13.515,13.515,0,0,1,3.489-1.631,13.035,13.035,0,0,1,3.8-.56,14.079,14.079,0,0,1,2.55.232,10.853,10.853,0,0,1,2.428.747,1.363,1.363,0,0,1,.725.586,1.708,1.708,0,0,1,.259.912v12.805a1.4,1.4,0,0,1-.684,1.248,1.562,1.562,0,0,1-1.456.148,9.534,9.534,0,0,0-1.879-.517,11.758,11.758,0,0,0-1.943-.16,12.445,12.445,0,0,0-3.817.594A13.269,13.269,0,0,0,93.249-743.247ZM86.955-752.857Z" transform="translate(-80 761.54)" fill="#fff"/>
</svg>
