<svg xmlns="http://www.w3.org/2000/svg" width="23.239" height="16.268" viewBox="0 0 23.239 16.268">
  <path id="tablet_24dp_5F6368_FILL0_wght200_GRAD0_opsz24" d="M81.877-743.732a1.81,1.81,0,0,1-1.329-.548A1.81,1.81,0,0,1,80-745.61v-12.513a1.81,1.81,0,0,1,.548-1.329A1.81,1.81,0,0,1,81.877-760h19.485a1.81,1.81,0,0,1,1.329.548,1.81,1.81,0,0,1,.548,1.329v12.513a1.81,1.81,0,0,1-.548,1.329,1.81,1.81,0,0,1-1.329.548ZM82.9-758.838H81.877a.7.7,0,0,0-.514.2.7.7,0,0,0-.2.514v12.513a.7.7,0,0,0,.2.514.7.7,0,0,0,.514.2H82.9Zm1.162,13.944H99.173v-13.944H84.067Zm16.268-13.944v13.944h1.028a.7.7,0,0,0,.514-.2.7.7,0,0,0,.2-.514v-12.513a.7.7,0,0,0-.2-.514.7.7,0,0,0-.514-.2Zm0,0h0Zm-17.43,0h0Z" transform="translate(-80 760)" fill="#fff"/>
</svg>
