<svg xmlns="http://www.w3.org/2000/svg" width="40.163" height="41" viewBox="0 0 40.163 41">
  <g id="FREE" transform="translate(-100 -6555)">
    <path id="パス_2797" data-name="パス 2797" d="M20.082,0l-4.44,3.592-5.6-.848L7.96,8.125,2.689,10.248l.83,5.721L0,20.5l3.518,4.531-.83,5.72L7.96,32.875l2.078,5.381,5.6-.847L20.082,41l4.439-3.592,5.6.848L32.2,32.875l5.271-2.122-.83-5.721L40.164,20.5l-3.519-4.531.83-5.72L32.2,8.126,30.125,2.745l-5.6.847Z" transform="translate(100 6555)" fill="#6393a8"/>
    <path id="パス_8353" data-name="パス 8353" d="M5.864-5.923H2.256v1.655H5.415v1.25H2.256V0H.762V-7.187h5.1Zm4.063,3.1H8.374V0H6.9V-7.2h3.53a3.289,3.289,0,0,1,1.165.186,1.819,1.819,0,0,1,.691.5,2.228,2.228,0,0,1,.371.605,1.973,1.973,0,0,1,.137.757,2.156,2.156,0,0,1-.259,1.008,1.446,1.446,0,0,1-.854.7,1.344,1.344,0,0,1,.706.569A2.368,2.368,0,0,1,12.6-1.743v.483a3.7,3.7,0,0,0,.039.669.6.6,0,0,0,.273.41V0H11.255q-.068-.239-.1-.386a3.544,3.544,0,0,1-.063-.62l-.01-.669a1.307,1.307,0,0,0-.251-.918A1.334,1.334,0,0,0,9.927-2.822Zm.913-1.309a.8.8,0,0,0,.449-.811.9.9,0,0,0-.435-.879,1.642,1.642,0,0,0-.732-.127H8.374v1.934h1.7A1.9,1.9,0,0,0,10.84-4.131Zm8.262.986h-3.5v1.851H19.59V0H14.136V-7.2h5.278v1.274H15.605v1.528h3.5Zm6.67,0h-3.5v1.851H26.26V0H20.806V-7.2h5.278v1.274H22.275v1.528h3.5Z" transform="translate(107 6579)" fill="#fff"/>
  </g>
</svg>
