<svg width="26" height="20" viewBox="0 0 26 20" fill="none" xmlns="http://www.w3.org/2000/svg">
<path d="M2.85557 19.9859V9.07811H0V7.83955H4.9687C4.35475 7.83955 3.85502 7.6425 3.45524 7.26249C3.05546 6.8684 2.86985 6.37579 2.86985 5.77058V0H10.1516V5.78466C10.1516 6.38987 9.95168 6.88248 9.53762 7.27657C9.12356 7.67065 8.62383 7.85362 8.05272 7.85362H20.6886V3.63125C20.6886 2.98381 20.4602 2.42083 20.0033 1.94229C19.5464 1.47783 18.9896 1.23856 18.3471 1.23856C17.7046 1.23856 17.1192 1.46376 16.6623 1.92822C16.2054 2.39268 15.9769 2.95566 15.9769 3.63125H14.6919C14.7348 2.61787 15.106 1.7734 15.7913 1.06967C16.4767 0.365939 17.3191 0.0140746 18.3328 0.0140746C19.3465 0.0140746 20.2032 0.365939 20.8885 1.06967C21.5881 1.7734 21.9308 2.63195 21.9308 3.63125V7.85362H26V9.09219H23.1444V20H2.86985L2.85557 19.9859ZM4.11203 6.65728H8.89512V1.23856H4.11203V6.65728ZM4.11203 18.7614H12.3932V9.07811H4.11203V18.7614ZM13.6354 18.7614H21.888V9.07811H13.6354V18.7614Z" fill="#643C28"/>
</svg>
