<svg width="22" height="24" viewBox="0 0 22 24" fill="none" xmlns="http://www.w3.org/2000/svg">
<path d="M9.45667 13.5819C9.81981 13.5819 10.1073 13.4788 10.3343 13.2581C10.5612 13.0374 10.6671 12.7725 10.6671 12.4488C10.6671 12.0956 10.5461 11.8161 10.3191 11.5953C10.0922 11.3746 9.80468 11.2716 9.44154 11.2716C9.10867 11.2716 8.83632 11.3893 8.60936 11.6101C8.3824 11.8308 8.26135 12.1104 8.26135 12.4635C8.26135 12.7872 8.36726 13.0521 8.59422 13.2728C8.82118 13.4936 9.09354 13.6113 9.42641 13.6113L9.45667 13.5819ZM3.43466 23.9853V22.6904L14.707 21.7339V4.38504C14.707 3.69344 14.4801 3.10484 14.0413 2.64868C13.6025 2.19252 13.0578 1.92765 12.392 1.88351L4.62999 1.29491V0L12.619 0.66217C13.5722 0.735745 14.3893 1.13305 15.0399 1.83936C15.6905 2.54568 16.0234 3.38443 16.0234 4.3409V22.9258L3.41954 24L3.43466 23.9853ZM0 23.9853V22.6904H2.1183V2.4721C2.1183 1.80993 2.37552 1.23605 2.87483 0.735745C3.37414 0.250153 3.96424 0 4.66025 0H17.3398C18.0206 0 18.6107 0.250153 19.1252 0.735745C19.6245 1.22134 19.8817 1.79522 19.8817 2.4721V22.7051H22V24H0.0151339L0 23.9853ZM3.43466 22.7051H18.5351V2.4721C18.5351 2.13366 18.414 1.83936 18.1871 1.61864C17.9601 1.39792 17.6726 1.2802 17.3095 1.2802H4.62999C4.28198 1.2802 3.97937 1.39792 3.75241 1.61864C3.52545 1.83936 3.4044 2.11895 3.4044 2.4721V22.7051H3.43466Z" fill="#643C28"/>
</svg>
