<svg width="26" height="20" viewBox="0 0 26 20" fill="none" xmlns="http://www.w3.org/2000/svg">
<path d="M25.6674 18.7491L13.4435 9.87084V7.81781L13.6237 7.79062C14.6077 7.66825 15.4531 7.24677 16.1183 6.53977C16.7836 5.84636 17.1162 5.0034 17.1162 4.05167C17.1162 2.90959 16.7281 1.94426 15.952 1.16927C15.1759 0.394289 14.1919 0 13.0277 0C11.8635 0 10.8795 0.380693 10.0896 1.14208C9.35501 1.84908 8.95309 2.73283 8.91151 3.76615H10.339C10.3806 3.14072 10.6578 2.59687 11.1429 2.1346C11.6834 1.63154 12.3209 1.38681 13.0416 1.38681C13.7623 1.38681 14.4136 1.65874 14.9264 2.17539C15.4392 2.70564 15.7026 3.33107 15.7026 4.03807C15.7026 4.74507 15.4115 5.39769 14.8294 5.88715C14.2612 6.37661 13.5959 6.62135 12.8614 6.62135C12.6951 6.62135 12.5704 6.68933 12.4595 6.82529C12.3348 6.97485 12.2793 7.138 12.2793 7.34194V9.96601L12.1962 10.0204L0.291045 18.7627C0.207889 18.8443 0.124733 18.9395 0.0692964 19.0347C0.0138593 19.1162 0 19.1978 0 19.293C0 19.4833 0.0692964 19.6465 0.221748 19.7825C0.3742 19.9184 0.540512 20 0.734541 20H25.2655C25.4595 20 25.6258 19.932 25.7783 19.7825C25.9168 19.6465 26 19.4833 26 19.2794C26 19.1978 25.9723 19.1162 25.9307 19.0347C25.8753 18.9395 25.7921 18.8443 25.6951 18.7491H25.6674ZM3.00746 18.5588L12.9168 11.2984L22.9371 18.5588H3.00746Z" fill="#643C28"/>
</svg>
