<svg xmlns="http://www.w3.org/2000/svg" viewBox="0 0 99.21 48.23"><defs><style>.cls-1{fill:#231815;}.cls-2{fill:#fff;}.cls-3{fill:#d7000f;}.cls-4{fill:#009140;}</style></defs><g id="レイヤー_2" data-name="レイヤー 2"><g id="レイヤー_1-2" data-name="レイヤー 1"><path class="cls-1" d="M29.45,8.49a4.93,4.93,0,0,1-2.38-2.58l1.81-1.08-.38-.65,0,0-1.69,1a7.48,7.48,0,0,1-.35-1.65h1.63l.05-.74-6,0-.05.73,1.69,0A16.58,16.58,0,0,1,21,5.12l0,0,.3.65,0,0,.05,0A16.28,16.28,0,0,0,24,4.23c.1.15.2.31.29.47A17.79,17.79,0,0,1,21,6.75l0,0,.31.64,0,0,.05,0a18.15,18.15,0,0,0,3.35-2c.08.18.15.35.21.52a16.15,16.15,0,0,1-4.16,2.49l0,0L21,9.1v.05l.05,0a16.78,16.78,0,0,0,4.07-2.38c0,.12,0,.22,0,.34a3.77,3.77,0,0,1-.32,1.49l-1,0-.05.72,1.57.05a3,3,0,0,0,.5-1.15A5.55,5.55,0,0,0,25.94,7a4.37,4.37,0,0,0-.43-1.72,9.3,9.3,0,0,0-.81-1.53l.3-.26.66,0a7.09,7.09,0,0,0,1,3.31,5.43,5.43,0,0,0,2.49,2.42l.05,0,.31-.69,0-.05ZM22.12,3.38Zm1.7,5.84Zm.05-.62ZM21.59,1.86h.06l7,0-.05,1.17.81,0v0h0V1.19l-3.92-.05.05-1L24.72.09l-.06,1.1-3.87-.05-.05,2,.8.05Zm7,1.17ZM25.49.19h0v0Zm-.72,0h0Zm-3.93,1Z"/><path class="cls-1" d="M35.93,5.68c0-1.19.07-2.62.19-4.29v0l-.77-.07h-.06v.05c-.13,1.68-.19,3.1-.19,4.26a11.42,11.42,0,0,0,.26,2.9l0,0,.74-.24,0,0v0a10.54,10.54,0,0,1-.22-2.55M43,7.11a5.78,5.78,0,0,0-2-1.4l0-2.25h0a14.53,14.53,0,0,0,1.71,0h0l0-.76c-.46,0-1,0-1.78,0h0c0-.66,0-1.19,0-1.55l-.76,0a14.37,14.37,0,0,0,0,1.68c-1,0-1.9,0-2.52,0l0,.77c.7,0,1.56,0,2.65,0V5.48a3,3,0,0,0-.45,0,2.55,2.55,0,0,0-1.39.38A1.34,1.34,0,0,0,37.65,7a1.28,1.28,0,0,0,.63,1.12,2.11,2.11,0,0,0,1.24.37,1.72,1.72,0,0,0,1.11-.36,1.28,1.28,0,0,0,.44-1c0-.12,0-.29,0-.5a5.56,5.56,0,0,1,1.38,1l0,0L43,7.19l0,0ZM37.62,3.52h0v0Zm2.6-2.37h0Zm.05,6c0,.4-.22.58-.72.59a1.55,1.55,0,0,1-.71-.17.55.55,0,0,1-.38-.5.67.67,0,0,1,.48-.63,2,2,0,0,1,.86-.17,1.5,1.5,0,0,1,.48.08c0,.41,0,.69,0,.8"/><polygon class="cls-1" points="48.9 8.3 46.93 6.32 46.37 6.87 46.33 6.91 48.36 8.92 48.9 8.38 48.94 8.34 48.9 8.3"/><path class="cls-1" d="M61.36,8.25l0-2.2h0l2.1,0,.05-.75-2.24-.06,0-2,2.26,0,0-.76-2.36,0,0-2.26L60.63.18l-.05,2.36h0l-1.33,0c.13-.34.28-.8.44-1.37V1.07L59,.85h-.05V.89a24.07,24.07,0,0,1-1.16,3.27l0,0,.7.3,0,0,0,0c.16-.34.32-.75.49-1.23l1.66,0-.05,2.05-2.24-.06L58.29,6l2.34.06-.05,2.2h0l-2.73-.05,0,.75,6.11.05V9H64V8.3ZM58.34,6h0V6Zm0-.65ZM60.68.23ZM58,3.45l0-.05L57.39,2l-.67.28,0,0V.14L55.9.09l0,9.18.79.05V9.27h0V2.36l.6,1.4L58,3.47Zm-2.1,5.77h0v0Zm-.54-6.81-.69,0-.22,2.79.75.1V5.19l.2-2.72h-.05Zm-.85,2.71h0v0Zm.2-2.7Z"/><path class="cls-1" d="M77,8.46,74.84,8.4l0-1.31,2.87-.92-.24-.69,0-.05-2.61.88V5l-.77-.06-.05,3.55a.71.71,0,0,0,.24.53.83.83,0,0,0,.56.21h2.51l.39-.35,0,0h0v-1l-.75,0ZM74.84,5h0V5Zm2.24,2.8h0ZM77,3,77,3.68h0l-2.16-.06v0l.05-1.15L77.75,1.4,77.49.71l0,0-2.6,1V.25l-.76,0v0h0l0,3.41a.76.76,0,0,0,.21.54.66.66,0,0,0,.52.23h2.6l.39-.36,0,0h.05V3Zm0,0ZM69,9.29l.75.05,0-2h0l2.52,0,0,1.15-.64,0-.06.73,1.1,0,.38-.35,0,0h0V3.51l-4,0Zm2.67-.13Zm0-.63ZM69.83,4.19l2.56,0,0,.83H69.78Zm0,1.59,2.56,0,0,.8H69.78Zm-.75,3.46h0v0ZM72.35.66,71.71,1l0,0,.54.87-2,.18,1-1.71L70.49,0l0,0L69.15,2.23l-.48,0h0l.06.72V3l4-.36.18.36,0,0,.64-.38,0,0,0,0Z"/><path class="cls-1" d="M83.67,6.58a1.35,1.35,0,0,0-1-.4,1.37,1.37,0,0,0-1,2.33,1.31,1.31,0,0,0,1,.4h0a1.35,1.35,0,0,0,1-.4,1.33,1.33,0,0,0,.4-1,1.37,1.37,0,0,0-.4-1m-.2,1a.76.76,0,0,1-.23.53.68.68,0,0,1-.53.23A.77.77,0,0,1,82,7.55.75.75,0,0,1,82.17,7a.77.77,0,0,1,.54-.22.75.75,0,0,1,.53.22.8.8,0,0,1,.23.54"/><rect class="cls-2" y="14.71" width="99.21" height="33.52"/><rect class="cls-3" y="14.71" width="99.21" height="5.39"/><rect class="cls-4" y="42.84" width="99.21" height="5.39"/><path class="cls-1" d="M2.85,28.17a7.19,7.19,0,0,1,2.6-.46c1.15-.06,1.35-.14,1.94-.16s5.07.56,6.41.65a28.74,28.74,0,0,1,3,.68,6.88,6.88,0,0,0,1.54.15c.24,0,1.35-.1.76.68a9.39,9.39,0,0,1-1.8,1.72c-.27.18-.25.45-2.12-.17a12.13,12.13,0,0,0-4.68-.63,10.18,10.18,0,0,0-3.64.43,3.55,3.55,0,0,1-2.14.41c-1.24,0-1.7.14-2.06-.06-.14-.08-.34-.27-.55-.41s-.25-.29-.1-.74.21-1.08.28-1.28a1.32,1.32,0,0,1,.57-.81"/><path class="cls-1" d="M26.1,22.46c.36-.17.82-.37,1.7.44.46.41.6.23.84.23a14,14,0,0,1,3,.22,3.26,3.26,0,0,0,.9.14c.55,0,2.22-.12,2.39,1,.16,1-.33,1.37-1.09,1.62s-1.34.28-1.44.8.95,1.17,1.34,1.54a7.72,7.72,0,0,0,3,1.88,18.17,18.17,0,0,0,1.94.3c.44,0,1.35.36.3.83s-1.56.82-1.84,1a1.81,1.81,0,0,1-1.52,0,11.52,11.52,0,0,1-1.81-1.74c-.53-.62-1.72-1.82-2.85-1.78-.69,0-1,.1-1.13.29s-.17.3.21.39,1.39.56,1.42,1,0,.66.31.76a3.49,3.49,0,0,0,1.12.27c.57,0,1,.26,1,.7s0,.68-.58.72-1.46,0-1.79,0-.42.2-.48.65-.08.75-.12,1,0,3.84,0,4.46a8.49,8.49,0,0,1-.1,1.18c0,.24,0,.66-.19.72a1.06,1.06,0,0,1-.86-.36,3.07,3.07,0,0,1-.1-.93,7.91,7.91,0,0,1,.15-1.05,6.3,6.3,0,0,0,0-1.92.87.87,0,0,1,0-.66c.1-.25,0-.29,0-.67a3.52,3.52,0,0,0-.2-.87,4.11,4.11,0,0,1-.1-1c0-.27-.16-.3-.26-.33a2.65,2.65,0,0,0-1.38,0,1.53,1.53,0,0,1-1.23-.07.64.64,0,0,1-.24-1,.54.54,0,0,0,.1-.53c-.09-.12-.56,0-.78.1A2.39,2.39,0,0,1,24,32a2,2,0,0,1-1.19-.91c-.45-.82-.45-.93.42-1,1.07,0,1.61,0,2.1-.39a8.41,8.41,0,0,1,1.48-1c.64-.38.64-.61.64-.77s-.14-.38-.44-.66-.55-.39-.95-.09-1.46.93-1.68,1.1a2.49,2.49,0,0,1-1.67.08c-.43-.12-.71-.65-1-1s-.76-.9.2-.81a3.42,3.42,0,0,0,2.58-1,5.56,5.56,0,0,0,.93-1,4,4,0,0,0,0-1.23.91.91,0,0,1,.59-1m.63,11.74c-.17.08-.55.12-1,.32a2.27,2.27,0,0,0-1.06.94,1.37,1.37,0,0,0,0,.8c0,.22.79.72,1,.72a2.46,2.46,0,0,0,.61,0c.18-.06.14,0,.34-.34a6.41,6.41,0,0,1,.75-.79,1.4,1.4,0,0,0,.26-1c0-.52,0-.64-.22-.74s-.46.09-.6.14m2.56-8.67c.14.1.57.44.75.44s.4-.22.54-.38.16-.35-.1-.46a4,4,0,0,0-1.25,0c-.26.06-.08.3.06.4m-.57,5.68c.22-.07.52-.68.61-1.29s-.18-.46-.67-.22A6,6,0,0,0,27,31.06c-.24.33,0,.43.23.37s1.22-.13,1.48-.22m4,2.76c-.19.19.06.53.28.94a5.78,5.78,0,0,0,1.3,1.91,1.74,1.74,0,0,0,2.06-.12,1,1,0,0,0,.58-1c0-.63-.82-.84-1.2-.9s-2-.7-2.31-.77-.52-.24-.71-.05"/><path class="cls-1" d="M44.26,24.44a33.14,33.14,0,0,1,5.35,0,29.28,29.28,0,0,1,3.09.63,2.5,2.5,0,0,1,1.25.36c.32.26.35.5.11,1s-.38.92-1.36.83A16.22,16.22,0,0,0,51,27.1a.69.69,0,0,0-.51.26c-.15.12-.48,0-.83.06s-.48.39-.24.72a12.1,12.1,0,0,0,1.36,1.63A1.13,1.13,0,0,1,51,31.11c-.19.44-.69,1.08.29,1.35a14.4,14.4,0,0,1,2,.78,6.12,6.12,0,0,0,2.29.55c.9-.11,1.54.11,1.12.87a3.65,3.65,0,0,1-1.45,1.52,1.23,1.23,0,0,1-1.43,0,5,5,0,0,0-2.37-.6c-.39,0-1.15.12-1.56-.12a3.27,3.27,0,0,0-1.59-.15,16,16,0,0,0-1.95.2c-.26,0-1.56,0-2,0a5.3,5.3,0,0,0-2,.54c-.53.32-.89.59-1.1.2a2,2,0,0,1,0-2,3.69,3.69,0,0,1,3-1.48,8.16,8.16,0,0,0,3.15-.74,3.24,3.24,0,0,0,1.07-.85c.32-.42.4-.8,0-1.19s-.78-.34-.84-1.7-1.22-1.3-2-1.15-2,.55-2.62.07-.81-.73-.3-1.75a2.12,2.12,0,0,1,1.52-1"/><path class="cls-1" d="M63.15,23.29a3.28,3.28,0,0,1,1.68.58c.69.42,1.73,1.09,1.73,2s-.5.85-.76,1.17a.64.64,0,0,0,0,1c.4.3.79.54,1.11.74a2.65,2.65,0,0,1,.85.85c.14.28.38.25.68.12a1,1,0,0,0,.45-.3c.16-.15.32-.29,0-.57a1.76,1.76,0,0,1-.65-1.29c0-.54-.06-.59-.38-.85s-.61-.64-.39-1.6a3,3,0,0,1,1.34-1.77c.38-.26,1.37-.57,1.75,0s.24,1.35.61,1.57.63,0,1,.08,2.14-.22,2.47.25.66,1.1,0,1.15-1.82-.1-2.24.34-.42.42-.42,1-.12,1.25.24,1.54,1.37,1.33,1.82,1.67a1.68,1.68,0,0,0,1.07.41,4.28,4.28,0,0,1,2.18.62c.46.45.83.86-.14,1.09a6.15,6.15,0,0,1-2.83,0,16.71,16.71,0,0,0-2.6-2.59c-.85-.43-1-.64-1.62-.42s-.79.3-.72.48.13.16.37.46a5,5,0,0,0,.61.65c.18.16.43.12.75.12a1.16,1.16,0,0,1,1.33.91,1.72,1.72,0,0,0,.6.55c.29.2.49.38.43,1.25s-.34,1.42-.36,1.94A3.7,3.7,0,0,1,72.65,38c-.15.2-.35.41-.69.09s-.67-.57-.89-.83-.49-.63.1-.93.81-.27.83-1,0-1.35-.44-1.29-1,.61-1.32,1.05-1.3,1.21-1.7,1.6-.64.6-1.26.27a3.09,3.09,0,0,0-.94-.35c-.36-.1-.58-.53.08-.51a.94.94,0,0,0,1-.44c.22-.24.76-.83,1-1.09s.33-.43.11-.75-.12-.28-.26-.52-.26-.19-.18-.73a7.57,7.57,0,0,0,0-1.23c0-.23,0-.29-.51-.55s-.63-.4-1-.28a2.39,2.39,0,0,0-1.15.67c-.42.42-.46.3-.32.72a3.6,3.6,0,0,1,.24,1.64A23.24,23.24,0,0,1,64.93,37c-.17.59-.55,1.3-1,1.32s-.87-.45-.87-1.34a3.18,3.18,0,0,1,.34-1.8c.24-.32.69-.74.37-1.23s-.55-.6-1-.1A7.17,7.17,0,0,1,61.69,35,1.32,1.32,0,0,1,60.46,35a4,4,0,0,1-.83-.91c-.24-.36-.52-.8.23-.81A3.35,3.35,0,0,0,62,32.68a4.48,4.48,0,0,0,1.29-1.39,1,1,0,0,1,1-.47c.47,0,.47,0,.78-.24a7.55,7.55,0,0,1,.67-.55c.21-.16.43-.44,0-.56a1.38,1.38,0,0,0-1.31.08c-.6.34-1.69.95-2,1.19s-1.29.45-1.66.06a1.17,1.17,0,0,1-.28-1.59A1.2,1.2,0,0,1,62,28.9a1.76,1.76,0,0,0,1.22,0c.31-.08.33-.4.33-.88,0-.69-.35-.9-.88-1.51s-.89-1.14-.81-1.67.2-1.52,1.27-1.57m7.16,4.4c.13.16.28.11.41-.05s0-.32-.16-.37a.43.43,0,0,0-.36.06c-.16.1,0,.2.11.36"/><path class="cls-1" d="M86.3,22.52a4.69,4.69,0,0,1,1.64.82c.5.33.68.55.74,1a3,3,0,0,0,.37,1.23c.26.48.34.32.93.3a11,11,0,0,1,1.61.08,4.75,4.75,0,0,1,2.12.51c.76.52,0,1.13-.26,1.41s-1.21.29-1.83.29-1.33-.12-1.72-.15a5.65,5.65,0,0,0-1.34.14c-.5.07-.38.12-.16.57a4.52,4.52,0,0,0,1,1.27,1.23,1.23,0,0,0,1,.37c.65,0,1.5.46,2.42.63s1.56.44,2.15.5a2.59,2.59,0,0,0,1.41-.42c.26-.11.61-.27.85,0s-.31.9-.67,1.2a1.75,1.75,0,0,1-1.09.45c-.42,0-.81-.16-1.17-.16s-.77.1-1.31.08-.83-.18-1.25-.22a11.66,11.66,0,0,0-1.44,0c-.46,0-.5.32-.48.66s-.08.55.5.53a12.65,12.65,0,0,1,2.3.16,2.85,2.85,0,0,1,1.48.79c.36.4.1.87-.06,1.36s-.37.56-.43,1.1a3.49,3.49,0,0,1-.5,1.4A.9.9,0,0,1,92,39c-.4,0-1.48-.14-2-.24a2.36,2.36,0,0,0-1.41.15,3,3,0,0,1-1.51.33,1.86,1.86,0,0,1-1.56-.5,3.77,3.77,0,0,1-.63-1.94,11.17,11.17,0,0,0-.68-1.82c-.2-.56-.12-.68.5-.95a4.35,4.35,0,0,1,2.15-.34c1.15,0,.78-.43.68-1.13a8.44,8.44,0,0,0-.86-2c-.27-.63-.13-.81.07-1s.41-.43.75-.79,0-.48-.42-.51a3.14,3.14,0,0,0-.93,0c-.51,0-.57.13-.71.43a2.7,2.7,0,0,0-.12,1.19A2.14,2.14,0,0,1,84.9,31a13.17,13.17,0,0,0-.8,1.3,2.88,2.88,0,0,1-1.52,1.21,4.64,4.64,0,0,0-1.49,1.29c-.29.3-.43,1.17-1,1.6a1.53,1.53,0,0,1-1.76-.08c-.42-.29-.48-.63-.06-1a7.39,7.39,0,0,0,1.25-.87,12.9,12.9,0,0,1,2.07-1.84,4.2,4.2,0,0,0,1.77-2.89c.13-1-.36-.93-1-1.13s-.6-.89-.57-1.33a1,1,0,0,1,.61-.93,5.33,5.33,0,0,0,.89-.16A1.38,1.38,0,0,1,84,26c.36,0,1,0,1.45-.09s.62-.12.3-.51A3.9,3.9,0,0,1,85.16,24a1.19,1.19,0,0,1,.15-1.25c.22-.3.41-.36,1-.24M86.44,36c-.5.27-.14.65.51.67.43,0,.56.32,1.13.3s1.09,0,1.55,0a12.31,12.31,0,0,0,1.56-.06c.3-.06.36-.3.43-.6s0-.57-.39-.55-1.7,0-2.06,0a8.14,8.14,0,0,0-2.73.24"/></g></g></svg>