<svg xmlns="http://www.w3.org/2000/svg" width="18.281" height="196.148" viewBox="0 0 18.281 196.148">
  <path id="パス_7536" data-name="パス 7536" d="M1.547-17.273H5.133V0H1.547ZM22.465,0H18.855L11.8-12.27V0H8.438V-17.273h3.785L19.1-5.215V-17.273h3.363ZM38.379-17.273v3.059H33.211V0H29.578V-14.215H24.387v-3.059ZM52.512-7.547H44.121v4.441h9.563V0H40.594V-17.273H53.262v3.059H44.121v3.668h8.391Zm11.32.773H60.105V0H56.578V-17.273h8.473a7.893,7.893,0,0,1,2.795.445A4.366,4.366,0,0,1,69.5-15.621a5.348,5.348,0,0,1,.891,1.453,4.736,4.736,0,0,1,.328,1.816,5.175,5.175,0,0,1-.621,2.42A3.471,3.471,0,0,1,68.051-8.25a3.225,3.225,0,0,1,1.693,1.365,5.683,5.683,0,0,1,.5,2.7v1.16a8.874,8.874,0,0,0,.094,1.605,1.442,1.442,0,0,0,.656.984V0H67.02q-.164-.574-.234-.926a8.506,8.506,0,0,1-.152-1.488L66.609-4.02a3.137,3.137,0,0,0-.6-2.2A3.2,3.2,0,0,0,63.832-6.773Zm2.191-3.141A1.924,1.924,0,0,0,67.1-11.859a2.147,2.147,0,0,0-1.043-2.109,3.942,3.942,0,0,0-1.758-.3h-4.2v4.641H64.2A4.558,4.558,0,0,0,66.023-9.914Zm7.523-7.359h3.586V0H73.547ZM88.137.48a7.532,7.532,0,0,1-5.66-2.016Q79.852-4.008,79.852-8.66q0-4.746,2.625-7.125a7.532,7.532,0,0,1,5.66-2.016,7.532,7.532,0,0,1,5.66,2.016Q96.41-13.406,96.41-8.66q0,4.652-2.613,7.125A7.532,7.532,0,0,1,88.137.48Zm3.41-4.641A7.093,7.093,0,0,0,92.8-8.66a7.074,7.074,0,0,0-1.26-4.494,4.117,4.117,0,0,0-3.4-1.588,4.172,4.172,0,0,0-3.422,1.582,7,7,0,0,0-1.277,4.5,7,7,0,0,0,1.277,4.5,4.172,4.172,0,0,0,3.422,1.582A4.139,4.139,0,0,0,91.547-4.16ZM106.5-6.773h-3.727V0H99.246V-17.273h8.473a7.893,7.893,0,0,1,2.795.445,4.366,4.366,0,0,1,1.658,1.207,5.348,5.348,0,0,1,.891,1.453,4.736,4.736,0,0,1,.328,1.816,5.175,5.175,0,0,1-.621,2.42,3.471,3.471,0,0,1-2.051,1.682,3.225,3.225,0,0,1,1.693,1.365,5.683,5.683,0,0,1,.5,2.7v1.16A8.874,8.874,0,0,0,113-1.418a1.442,1.442,0,0,0,.656.984V0h-3.973q-.164-.574-.234-.926a8.506,8.506,0,0,1-.152-1.488l-.023-1.605a3.137,3.137,0,0,0-.6-2.2A3.2,3.2,0,0,0,106.5-6.773Zm2.191-3.141a1.924,1.924,0,0,0,1.078-1.945,2.147,2.147,0,0,0-1.043-2.109,3.942,3.942,0,0,0-1.758-.3h-4.2v4.641h4.09A4.558,4.558,0,0,0,108.691-9.914ZM129.434-2.5a6.356,6.356,0,0,0,2.074-.281,2,2,0,0,0,1.512-2,1.479,1.479,0,0,0-.75-1.324,8.065,8.065,0,0,0-2.355-.809l-1.828-.41a11.552,11.552,0,0,1-3.727-1.324,4.212,4.212,0,0,1-1.746-3.738,4.992,4.992,0,0,1,1.688-3.855,7.135,7.135,0,0,1,4.957-1.535,7.537,7.537,0,0,1,4.658,1.447,5.167,5.167,0,0,1,2.021,4.2h-3.469a2.478,2.478,0,0,0-1.359-2.215,4.559,4.559,0,0,0-2.1-.434,3.916,3.916,0,0,0-2.227.563,1.791,1.791,0,0,0-.832,1.57,1.486,1.486,0,0,0,.82,1.383,10.041,10.041,0,0,0,2.25.715L132-9.832a7.7,7.7,0,0,1,2.953,1.254A4.223,4.223,0,0,1,136.5-5.051a4.978,4.978,0,0,1-1.811,3.932A7.586,7.586,0,0,1,129.574.445,8.3,8.3,0,0,1,124.266-1.1a5.121,5.121,0,0,1-1.934-4.236h3.445a3.547,3.547,0,0,0,.645,1.77A3.709,3.709,0,0,0,129.434-2.5Zm22.289-14.777v3.059h-5.168V0h-3.633V-14.215H137.73v-3.059Zm16.055,0L162-6.492V0h-3.609V-6.492l-5.977-10.781h4.254l3.586,7.523,3.434-7.523Zm2.063,0h3.609V-3.105H182V0H169.84Zm26.684,9.727h-8.391v4.441H197.7V0h-13.09V-17.273h12.668v3.059h-9.141v3.668h8.391Z" transform="translate(0.48 -1.547) rotate(90)" fill="#222"/>
</svg>
