<svg xmlns="http://www.w3.org/2000/svg" width="100.188" height="25.704" viewBox="0 0 100.188 25.704">
  <path id="パス_8361" data-name="パス 8361" d="M28.368-.252q0,.36-.72.36H27.4q-.792,0-2.79-.036T21.636.036q-.4,0-1.656.036H15.768q-.5,0-.5-.324t.5-.324l1.224.036q1.656.036,2.016-.576a9.83,9.83,0,0,0,.108-2.16L19.08-22.788q-1.152,2.988-3.024,9.5L12.924-2.268q-.576,2.016-.936,2.016-.4,0-.72-1.008l-2.3-6.912q-.828-2.484-4.5-13.932V-3.492q0,1.62.036,1.926a.753.753,0,0,0,.324.522A2.7,2.7,0,0,0,6.66-.612q1.3-.036,1.3.4,0,.252-.54.252l-3.2-.072A17.574,17.574,0,0,0,2.3,0Q.864.072.36.072-.4.072-.4-.252-.4-.54.216-.54q1.44,0,1.728-.036Q3.06-.72,3.24-1.4a9.288,9.288,0,0,0,.108-1.8V-20.376a8.74,8.74,0,0,0-.342-3.366q-.342-.486-2.574-.486-.576,0-.576-.324,0-.36.612-.324l.972.036,6.8-.036a3.832,3.832,0,0,1,.4.036q3.06,9.972,5.184,16.56l4.86-16.6h.756l4.752.036H24.8q.54-.036.972-.036h1.656q.72,0,.72.324,0,.36-.432.324l-.828-.036a3.616,3.616,0,0,0-2.034.288,1.6,1.6,0,0,0-.522,1.4q0,.288.036,1.26t.036,9.036V-2.232q0,1.3.666,1.494a6.764,6.764,0,0,0,1.98.162Q28.368-.612,28.368-.252ZM52.956-.36a.311.311,0,0,1-.27.342A10.06,10.06,0,0,1,51.3.036q-.288,0-1.62-.036-2.664-.072-3.672-.072-1.188,0-2.088.036-1.8.072-2.448.072-.972,0-.972-.36t2.052-.4a2.952,2.952,0,0,0,.756-.072q.576-.072.576-.432a10.618,10.618,0,0,0-.432-1.512L42.7-5.076q-.216-.792-.936-2.916h-.648L38.3-8.028q-1.512-.036-3.2.036-.324.72-1.224,3.24l-.792,2.34a2.906,2.906,0,0,0-.18.864q0,.612.792.792.18.036,1.764.144.5.036.5.324,0,.324-.648.324L29.376,0a2.851,2.851,0,0,1-.468.036q-.5,0-.5-.36,0-.216,1.116-.288a2.662,2.662,0,0,0,1.836-.54,13.56,13.56,0,0,0,1.3-3.024q.684-1.8,1.98-5.328l4.356-11.988q.324-.792.9-2.484.4-1.224.612-1.224t.792,1.656q.72,2.124,6.336,16.776.72,1.872,1.44,3.816A4,4,0,0,0,50.292-.936a5.047,5.047,0,0,0,2.232.252Q52.956-.684,52.956-.36ZM41.508-8.784q-.036-.108-.252-.684-1.44-4.176-2.088-5.868-.18-.468-.5-1.368l-.216-.648Q37.8-15.8,36.864-13.068q-1.044,3.06-1.512,4.284.324,0,.792-.036h2.808Q39.78-8.82,41.508-8.784Zm37.08,8.46q0,.36-1.332.36Q76.1.036,73.908,0q-1.62-.036-2.232,0L69.66.072,68.04.108q-.792,0-.792-.324,0-.252.2-.288t1.278-.072q.576,0,.576-.36a30.082,30.082,0,0,0-1.98-2.916l-5.292-7.416a7.7,7.7,0,0,1-.684-.756V-2.88a3.83,3.83,0,0,0,.27,1.926q.27.306,1.818.378.9.036.9.36t-.648.324L61.416.072Q59.148.036,56.772.036q-.36,0-1.1.036T54.108.108H53.64q-.576,0-.576-.324t1.206-.36A2.414,2.414,0,0,0,55.746-.9a2.771,2.771,0,0,0,.27-1.584V-23.256a.791.791,0,0,0-.252-.684,3.529,3.529,0,0,0-1.548-.216q-1.044,0-1.044-.324,0-.288.5-.288l4.356.072h.432q.4-.036.72-.036l2.232-.036h1.476q.4-.036.864-.036.432,0,.432.324,0,.252-.864.288a4.4,4.4,0,0,0-1.71.27q-.27.2-.27,1.278v9.5q.972-.792,6.552-7.092Q70.38-23.04,70.38-23.8q0-.252-.324-.306a17.011,17.011,0,0,0-1.836-.054q-.5,0-.5-.324,0-.36.864-.324l1.584.036h.324a5.279,5.279,0,0,1,.576-.036h3.708q.5,0,.5.324,0,.36-.576.36a6.07,6.07,0,0,0-1.818.18,3.621,3.621,0,0,0-1.17.864q-3.348,3.492-6.984,7.74.612.864,3.456,4.5,1.98,2.484,5.652,7.236A20.157,20.157,0,0,0,75.96-1.026a2.278,2.278,0,0,0,1.476.414Q78.588-.612,78.588-.324Zm21.2-12.1a13.12,13.12,0,0,1-3.366,9.126A10.705,10.705,0,0,1,88.164.432a10.691,10.691,0,0,1-8.208-3.78,13.1,13.1,0,0,1-3.42-9.108,12.941,12.941,0,0,1,3.4-9.144,11.042,11.042,0,0,1,8.442-3.672,10.441,10.441,0,0,1,8.136,3.69A13.3,13.3,0,0,1,99.792-12.42Zm-6.336.576q0-7.164-1.692-10.584a3.7,3.7,0,0,0-3.528-2.232q-2.448,0-3.906,3.132a20.127,20.127,0,0,0-1.458,8.388q0,7.632,2.592,11.412A3.556,3.556,0,0,0,88.6-.144a3.4,3.4,0,0,0,3.348-2.268A24.353,24.353,0,0,0,93.456-11.844Z" transform="translate(0.396 25.272)" fill="#222"/>
</svg>
