<svg xmlns="http://www.w3.org/2000/svg" width="294" height="104.682" viewBox="0 0 294 104.682">
  <g id="グループ_707" data-name="グループ 707" transform="translate(-1 3)">
    <g id="グループ_733" data-name="グループ 733" transform="translate(0 -3)">
      <g id="グループ_732" data-name="グループ 732" transform="translate(1.876)">
        <path id="パス_8119" data-name="パス 8119" d="M15.177,8.837c4.211,0,8.776,2.182,8.776,6.95,0,4.948-4.592,7.154-8.776,8.042A11.211,11.211,0,0,0,13.3,21.216c2.841-.533,7.153-1.928,7.153-5.479a3.634,3.634,0,0,0-2.841-3.551,25.6,25.6,0,0,1-4.768,6.824c.152.481.305.912.482,1.344-1.319.761-1.8,1.065-2.79,1.725a6.657,6.657,0,0,1-.407-.989,8.459,8.459,0,0,1-4.489,1.547c-2.258,0-3.272-1.624-3.272-3.728,0-4.008,3.095-7.154,6.569-8.675.052-.812.127-1.624.254-2.435-.761.051-1.522.075-2.13.075A19.032,19.032,0,0,1,4.371,7.7l.1-3.018A19.254,19.254,0,0,0,8.1,4.957c.508,0,1.041,0,1.574-.025.33-1.471.71-2.943,1.166-4.389l3.374,1.065c.254.076.431.127.431.355,0,.279-.381.33-.583.355-.33.736-.609,1.5-.863,2.258a27.267,27.267,0,0,0,6.773-1.8l.557,3.019a44.184,44.184,0,0,1-8.092,1.725c-.1.507-.2,1.115-.278,1.648a15.062,15.062,0,0,1,3.018-.33M8.887,13.4C7.338,14.469,5.513,16.5,5.513,18.5c0,.61.228,1.168.938,1.168A5.458,5.458,0,0,0,9.369,18.3,34.533,34.533,0,0,1,8.887,13.4m2.993-.939a23.963,23.963,0,0,0,.2,3.019,19.16,19.16,0,0,0,2.283-3.7,11.708,11.708,0,0,0-2.486.354Z" transform="translate(-2.367 -0.113)" fill="#222"/>
        <path id="パス_8120" data-name="パス 8120" d="M46.611,3.391c-.026.482-.026.786-.026,1.115a19.739,19.739,0,0,0,.1,2.131,39.658,39.658,0,0,1-4.262.913c-1.242,3.653-3.525,9.082-5.757,12.2a19.857,19.857,0,0,0-3.2-1.319,39.238,39.238,0,0,0,5.3-10.425c-1.344.1-2.359.127-4.16.152L34.206,4.81a19.923,19.923,0,0,0,2.74.2c.939,0,1.9-.077,2.79-.152.381-1.447.71-2.917.964-4.414l3.4,1.065c.254.076.457.178.457.381s-.2.279-.507.3c-.178.557-.406,1.369-.609,2.106a28.23,28.23,0,0,0,3.171-.913m3.805,8.041a3.582,3.582,0,0,0-1.041,2.562,15.765,15.765,0,0,0,.28,2.688,27.648,27.648,0,0,1,5.479,3.247,24.782,24.782,0,0,0-1.979,2.588,22.768,22.768,0,0,0-3.4-2.41c-.33,2.74-2.587,3.323-4.947,3.323-2.511,0-5.656-.964-5.656-3.983,0-2.714,2.435-3.856,4.82-3.856a12.753,12.753,0,0,1,2.207.2A20.476,20.476,0,0,1,46,13.612a4.933,4.933,0,0,1,1.776-3.754Zm-6.19,6.722c-.761,0-1.953.355-1.953,1.294,0,1.065,1.421,1.294,2.232,1.294,1.472,0,2.055-.533,2.132-1.979a5.309,5.309,0,0,0-2.41-.609M55.717,8.337a30.277,30.277,0,0,0-1.928,2.79,18.024,18.024,0,0,0-6.443-3.272l1.75-2.79a20.45,20.45,0,0,1,6.621,3.272" transform="translate(-8.813 -0.093)" fill="#222"/>
        <path id="パス_8121" data-name="パス 8121" d="M72.234.671l3.7.863c.228.051.481.1.481.355s-.3.355-.507.381c-.228.863-.507,2-.71,2.892a19.927,19.927,0,0,0,4.667-1.294l.407,3.373a40.166,40.166,0,0,1-5.961,1.243,58.817,58.817,0,0,1-6.748,15.093,26.5,26.5,0,0,0-3.246-1.649A41.215,41.215,0,0,0,70.763,8.991c-1.4.128-2.969.178-5.023.2l-.254-3.551c.686.051,1.777.1,2.538.1,1.166,0,2.358-.051,3.551-.152.28-1.624.507-3.272.66-4.921m14.535,20.14a10.344,10.344,0,0,0,.151,1.776,30.95,30.95,0,0,1-5.3.457c-2.79,0-7.559-.279-7.559-4.059a7.2,7.2,0,0,1,1.116-3.322L77.992,16.7a3.228,3.228,0,0,0-.863,1.852c0,1.319,2.917,1.371,4.261,1.371a19.307,19.307,0,0,0,5.5-.838,13.176,13.176,0,0,0-.127,1.725m-.66-7.762a16.794,16.794,0,0,0-3.729-.406,43.878,43.878,0,0,0-5.479.431v-3.2a32.8,32.8,0,0,1,5.682-.457,20.624,20.624,0,0,1,3.754.279,29.709,29.709,0,0,0-.228,3.349" transform="translate(-15.207 -0.139)" fill="#222"/>
        <path id="パス_8122" data-name="パス 8122" d="M105.581,6.136a.351.351,0,0,1,.278.33c0,.3-.3.354-.532.354a23.174,23.174,0,0,0-1.75,5.3,12.637,12.637,0,0,1,7.838-2.892c3.6,0,6.418,2.334,6.418,6.038a7,7,0,0,1-4.11,6.265,20.628,20.628,0,0,1-8.827,1.725c-.583,0-1.471-.025-1.928-.051a9.318,9.318,0,0,0-.989-3.6,20.178,20.178,0,0,0,3.5.3c2.917,0,8.8-.684,8.8-4.591,0-2.08-1.471-3.044-3.4-3.044-3.4,0-6.215,2.08-8.4,4.515l-3.095-1.117a64.779,64.779,0,0,1,2.562-10.678ZM113.14,3.4a28.186,28.186,0,0,0-1.928,3.146A22.661,22.661,0,0,0,103.3,3.371L104.414.479A25.886,25.886,0,0,1,113.14,3.4" transform="translate(-22.476 -0.099)" fill="#222"/>
        <path id="パス_8123" data-name="パス 8123" d="M132.946,1.677c.406.051.583.127.583.355,0,.178-.177.3-.558.431a73.452,73.452,0,0,0-.735,11.592,14.139,14.139,0,0,0,.482,4.414,2.143,2.143,0,0,0,2.308,1.445c2.157,0,4.566-1.521,6.012-3.043a18.247,18.247,0,0,0,3.146-4.338,19.679,19.679,0,0,0,2.561,2.84c-2.613,4.211-6.823,8.118-12.073,8.118a5.116,5.116,0,0,1-5.327-3.931,26.3,26.3,0,0,1-.609-6.621c0-1.243.025-2.765.1-4.135.076-1.547.178-4.21.178-5.961,0-.583,0-1.167-.05-1.725Z" transform="translate(-28.557 -0.232)" fill="#222"/>
        <path id="パス_8124" data-name="パス 8124" d="M160.245,3.574c.38.1.533.178.533.406,0,.3-.305.355-.533.381a22.469,22.469,0,0,0-1.345,7.559,10.461,10.461,0,0,0,1.37,5.657,1.155,1.155,0,0,0,.812.558c.888,0,2.106-2.74,2.714-4.236a10.111,10.111,0,0,0,2.283,2.258c-.761,1.877-2.968,6.52-5.327,6.52a3.734,3.734,0,0,1-2.485-1.574,14.685,14.685,0,0,1-2.714-9.208,44.38,44.38,0,0,1,1.192-9.335Zm12.606.33a25.341,25.341,0,0,1,5.073,12.861c-1.141.431-2.358.989-3.525,1.573a22.736,22.736,0,0,0-4.363-12.658Z" transform="translate(-34.116 -0.53)" fill="#222"/>
        <path id="パス_8125" data-name="パス 8125" d="M200.562,23.282H196.91V11.233a47.307,47.307,0,0,1-7.763,3.88,10.672,10.672,0,0,0-2.588-3.044A35.324,35.324,0,0,0,204.164.224l3.044,2.333a.5.5,0,0,1,.228.356c0,.228-.253.33-.457.33a1.429,1.429,0,0,1-.456-.077,42.443,42.443,0,0,1-5.961,5.53Z" transform="translate(-40.542 -0.047)" fill="#222"/>
        <path id="パス_8126" data-name="パス 8126" d="M227.912,6.186a27.438,27.438,0,0,0-2.106,2.943,25.707,25.707,0,0,0-6.671-4.313l2.13-2.993a30.069,30.069,0,0,1,6.646,4.363m10.6-.3a14.816,14.816,0,0,0,2.206,2.968c-4.515,6.875-10.729,11.262-18.39,14.027-.051.33-.151.558-.406.558a.513.513,0,0,1-.405-.3l-2.055-3.475a30.079,30.079,0,0,0,19.05-13.774" transform="translate(-47.294 -0.378)" fill="#222"/>
        <path id="パス_8127" data-name="パス 8127" d="M260.188,20.263a12.888,12.888,0,0,1-5.632,3.6,11.223,11.223,0,0,0-2.561-2.688,11.2,11.2,0,0,0,6.011-3.628,9.355,9.355,0,0,0,1.624-5.5h-9.614V8.949h21.561v3.094h-8.523a11.942,11.942,0,0,1-2.867,8.219M268.1,5.423H253.617V2.3H268.1Z" transform="translate(-53.694 -0.477)" fill="#222"/>
        <path id="パス_8128" data-name="パス 8128" d="M287.551,1.753c.381.025.507.051.507.254,0,.178-.152.33-.507.482V14.766H284V1.6Zm11.77-.457c.38.025.507.076.507.254,0,.279-.279.406-.507.482v8.218a14.018,14.018,0,0,1-2,7.736c-1.877,2.943-4.692,4.541-7.838,5.86a6.452,6.452,0,0,0-2.232-2.765,13.1,13.1,0,0,0,6.671-4.312,10.211,10.211,0,0,0,1.8-6.494V1.119Z" transform="translate(-60.737 -0.232)" fill="#222"/>
        <path id="パス_8129" data-name="パス 8129" d="M329.912,3.236a3.894,3.894,0,0,0,1.421-.228l2.385,2.206c-.278.355-.481.634-.736,1.015a50.63,50.63,0,0,1-7.33,8.524,11.638,11.638,0,0,0-2.485-2.385,23.309,23.309,0,0,0,5.479-5.885H311.168V3.236ZM323.318,7.9c.254.025.431.076.431.254,0,.228-.253.406-.431.507a24.753,24.753,0,0,1-1.294,7.457,15.389,15.389,0,0,1-6.493,7.509,19.61,19.61,0,0,0-2.993-2.258,15.7,15.7,0,0,0,4.947-4.084c1.7-2.258,2.207-5.605,2.207-8.4,0-.406-.025-.939-.051-1.218Z" transform="translate(-66.368 -0.623)" fill="#222"/>
        <path id="パス_8130" data-name="パス 8130" d="M349.817.507l3.628,1.116c.279.076.482.152.482.355,0,.33-.431.406-.66.431-.228,1.191-.456,2.257-.736,3.373.2-.025.61-.051.862-.051,4.262,0,5.251,3.425,5.251,7.026a15.716,15.716,0,0,1-1.6,6.976c-1.091,2.131-2.435,3.171-4.87,3.171a10.077,10.077,0,0,1-2.308-.279v-.913a11.34,11.34,0,0,0-.3-2.79,5.217,5.217,0,0,0,2.308.533c1.294,0,1.929-.279,2.664-2.029a14.033,14.033,0,0,0,.837-4.921c0-1.649-.3-3.653-2.41-3.653a10.5,10.5,0,0,0-1.268.127c-1.521,5.225-3.119,9.309-6.417,13.7a14.154,14.154,0,0,0-3.2-1.649,31.209,31.209,0,0,0,6.112-11.389,32.318,32.318,0,0,0-4.388,1.37l-1.091-3.551c.837-.1,1.777-.279,2.74-.482,1.318-.279,2.664-.558,3.577-.71a44.094,44.094,0,0,0,.786-5.758m9.919,4.007a25.464,25.464,0,0,1,4.134,4.921,6.533,6.533,0,0,1,1.142,3.322c0,1.877-2.182,2.664-3.88,3.222a20.056,20.056,0,0,0-1.649-2.867c1.141-.254,1.852-.457,1.852-1.344,0-1.547-2.892-4.795-3.983-5.885Zm1.5-2.967a19.151,19.151,0,0,1,2.182,2.562,15.07,15.07,0,0,0-1.624,1.217,24.414,24.414,0,0,0-2.207-2.637ZM363.667,0A16.623,16.623,0,0,1,365.9,2.612c-.558.356-1.345.914-1.826,1.294a11.887,11.887,0,0,0-2.106-2.79Z" transform="translate(-72.775)" fill="#222"/>
      </g>
      <g id="グループ_731" data-name="グループ 731" transform="translate(1 40.357)">
        <path id="パス_8131" data-name="パス 8131" d="M24.326,63.61V66.5h-2V82.153a3.368,3.368,0,0,1-1.242,2.79c-.813.559-2.435.66-3.957.685a6.508,6.508,0,0,0-1.344-3.222,19.1,19.1,0,0,0,2.334.228c1.142,0,1.218-.457,1.218-1.5V66.5H8.472V63.864l-.128.025c-.405.786-.481.939-.811,1.649-.558,1.192-.863,1.8-1.4,2.74l.482.051c.228.025.507.076.507.3,0,.178-.279.33-.507.431V85.552H3.576V72.209A15.923,15.923,0,0,1,2.1,73.935,7.4,7.4,0,0,0,0,71.779a25.375,25.375,0,0,0,5.656-9.64l2.867.964c.228.076.457.178.457.431,0,.025-.025.051-.025.076Zm-7.154,5.86v9.562h-5.5v2.055H8.8V69.47Zm-5.5,6.823h2.663V72.285H11.668Z" transform="translate(0 -61.988)" fill="#222"/>
        <path id="パス_8132" data-name="パス 8132" d="M45.918,76.436c2.435.381,7.2,2.841,9.182,4.363a26.915,26.915,0,0,0-2.284,3.019A21.677,21.677,0,0,0,46.2,79.886a3.994,3.994,0,0,1,.025.457c0,3.3-2.714,4.515-5.632,4.515a9.5,9.5,0,0,1-3.981-.811,4.271,4.271,0,0,1-2.689-3.78c0-3.4,4.693-4.49,7.357-4.49a7.627,7.627,0,0,1,1.091.076c-.1-1.648-.229-4.363-.229-6.214,0-1.877,0-3.628-.052-4.515a18.634,18.634,0,0,0-.33-2.664l4.111.686c.277.05.507.1.507.354,0,.305-.3.381-.534.431-.126,1.218-.2,2.461-.253,3.653a28.207,28.207,0,0,0,8.218-1.268,29.654,29.654,0,0,0-.2,3.349v.355a38.991,38.991,0,0,1-8.065.989,31.628,31.628,0,0,0,.38,5.429m-5.047,2.283c-1.015,0-3.425.3-3.425,1.7,0,1.268,1.775,1.521,2.74,1.521a2.859,2.859,0,0,0,1.953-.608,1.839,1.839,0,0,0,.532-1.6c0-.254,0-.457-.025-.786a6.941,6.941,0,0,0-1.774-.228" transform="translate(-7.03 -62.054)" fill="#222"/>
        <path id="パス_8133" data-name="パス 8133" d="M69.661,63.512c.457.1.685.2.685.431,0,.3-.355.381-.583.431a21.481,21.481,0,0,0-1.09,6.569,14.2,14.2,0,0,0,.278,2.74c.507-1.142,1.04-2.232,1.649-3.322a13.882,13.882,0,0,0,2.207,1.826,17.22,17.22,0,0,0-2.664,6.646l-3.044.355a25.323,25.323,0,0,1-1.724-9.082,28.48,28.48,0,0,1,.811-6.367c.077-.33.127-.634.178-.989ZM81.38,62.65c.406.025.609.1.609.355s-.228.33-.431.381c.051,1.218.178,3.146.279,4.541.1,1.445.152,2.536.152,3.678,0,3.83-.533,6.975-2.892,10.1a14.913,14.913,0,0,1-4.9,4.083,9.113,9.113,0,0,0-2.764-2.537c4.871-2.232,6.976-5.986,6.976-11.313a46.606,46.606,0,0,0-.914-9.411Z" transform="translate(-13.55 -62.067)" fill="#222"/>
        <path id="パス_8134" data-name="パス 8134" d="M97.722,71.536c.228.051.481.1.481.381,0,.228-.151.33-.684.431a33.536,33.536,0,0,1-1.674,4.971,17.857,17.857,0,0,1-1.8,3.272A9.172,9.172,0,0,0,90.72,79.4a22.386,22.386,0,0,0,3.754-8.7ZM102.186,69c.1,0,.583,0,.583.406,0,.279-.355.355-.583.406v11.11c0,.887.228,1.217,1.369,1.217H106.4c.887,0,1.775-.1,2.308-3.322a6.551,6.551,0,0,0,2.841,1.5,8.232,8.232,0,0,1-1.623,3.652,4.237,4.237,0,0,1-3.272,1.091h-4.439c-2,0-3.322-.964-3.322-3.069V68.771Zm5.808-3.3a19.538,19.538,0,0,0-1.826,2.714,30.739,30.739,0,0,0-6.875-3.78l1.574-2.688a35.99,35.99,0,0,1,7.128,3.754m7.229,11.491c-.989.457-2.156,1.015-3.069,1.547a29.054,29.054,0,0,0-4.9-7.99l2.562-1.6a28.723,28.723,0,0,1,5.4,8.041" transform="translate(-18.802 -61.948)" fill="#222"/>
        <path id="パス_8135" data-name="パス 8135" d="M131.79,69.15v2.765H129.3V79.5c.989-.28,1.9-.558,2.892-.888a13.356,13.356,0,0,0-.253,2.257c0,.254,0,.381.025.736-1.344.534-6.011,2.029-7.483,2.435-.1.482-.2.71-.406.71-.254,0-.33-.3-.381-.507l-.786-3.044c1.091-.2,2.182-.481,3.272-.786v-8.5h-2.74V69.15h2.74V62.961l3.4.2c.127,0,.407.152.407.33s-.305.3-.686.406v5.25Zm6.341,1.142V62.555l3.121.2c.2.025.456.127.456.3s-.126.279-.609.457v5.555l3.678-1.521,1.37.659v8.777c0,1.243-.229,2.257-1.573,2.664a7.042,7.042,0,0,0,2.714,1.673c-.2,1.065-.634,2.689-1.547,3.349a5.814,5.814,0,0,1-3.146.634h-5.352a4.154,4.154,0,0,1-2.892-.837,3.169,3.169,0,0,1-.837-2.41V75.289L131,76.329l-1.014-2.637,3.525-1.472V64.331l3.272.228c.228.025.457.076.457.279,0,.152-.1.228-.66.457v5.656Zm-1.547,10.882c0,.812.178,1.319,1.421,1.319h4.058c1.8,0,2.308-.481,2.435-2.816a10.362,10.362,0,0,1-2.182.178,11.231,11.231,0,0,0-1.091-3.095,5.066,5.066,0,0,0,1.04.127c.786,0,.888-.33.888-1.015V71.255l-2.055.862v8.015h-2.968V73.362l-1.547.66Z" transform="translate(-25.475 -62.074)" fill="#222"/>
        <path id="パス_8136" data-name="パス 8136" d="M168.222,76.436c2.435.381,7.2,2.841,9.182,4.363a26.908,26.908,0,0,0-2.283,3.019,21.68,21.68,0,0,0-6.62-3.932,3.872,3.872,0,0,1,.025.457c0,3.3-2.714,4.515-5.632,4.515a9.5,9.5,0,0,1-3.982-.811,4.272,4.272,0,0,1-2.689-3.78c0-3.4,4.693-4.49,7.357-4.49a7.619,7.619,0,0,1,1.091.076c-.1-1.648-.228-4.363-.228-6.214,0-1.877,0-3.628-.052-4.515a18.861,18.861,0,0,0-.33-2.664l4.11.686c.278.05.507.1.507.354,0,.305-.3.381-.533.431-.127,1.218-.2,2.461-.254,3.653a28.2,28.2,0,0,0,8.218-1.268,29.656,29.656,0,0,0-.2,3.349v.355a38.978,38.978,0,0,1-8.065.989,31.629,31.629,0,0,0,.38,5.429m-5.047,2.283c-1.015,0-3.425.3-3.425,1.7,0,1.268,1.776,1.521,2.74,1.521a2.86,2.86,0,0,0,1.953-.608,1.839,1.839,0,0,0,.532-1.6c0-.254,0-.457-.025-.786a6.947,6.947,0,0,0-1.775-.228" transform="translate(-32.379 -62.054)" fill="#222"/>
        <path id="パス_8137" data-name="パス 8137" d="M191.445,65.33c.38.1.533.178.533.406,0,.3-.305.355-.533.381a22.489,22.489,0,0,0-1.345,7.559,10.461,10.461,0,0,0,1.37,5.657,1.155,1.155,0,0,0,.812.558c.888,0,2.105-2.74,2.714-4.236a10.111,10.111,0,0,0,2.283,2.258c-.761,1.877-2.968,6.52-5.327,6.52a3.734,3.734,0,0,1-2.485-1.574,14.685,14.685,0,0,1-2.714-9.208,44.38,44.38,0,0,1,1.192-9.335Zm12.606.33a25.342,25.342,0,0,1,5.073,12.861c-1.141.431-2.358.989-3.525,1.573a22.736,22.736,0,0,0-4.363-12.658Z" transform="translate(-38.706 -62.439)" fill="#222"/>
      </g>
      <g id="グループ_730" data-name="グループ 730" transform="translate(1.065 80.611)">
        <path id="パス_8138" data-name="パス 8138" d="M14.483,140.638H22.9v2.612H14.483v4.059H11.262V143.25H2.992v-2.612h8.27v-2.156H1.851V135.92H7.711c-.405-.761-.634-1.167-1.421-2.41L7.736,133H1.344v-2.587h9.918v-1.725H3.55v-2.562h7.712v-2.106l3.374.1c.025,0,.431.051.431.381,0,.2-.406.381-.584.457v1.167H22.3v2.562H14.483v1.725h10.07V133H19.531l.431.076c.126.025.482.127.482.33,0,.33-.609.431-.863.457q-.495,1.065-1.065,2.055h5.5v2.562H14.483Zm-3.627-5.2-1.4.482h5.682A20.57,20.57,0,0,0,16.563,133H9.512a20.556,20.556,0,0,1,1.344,2.435" transform="translate(-1.344 -123.82)" fill="#222"/>
        <path id="パス_8139" data-name="パス 8139" d="M47.522,124.567l3.678.533c.33.051.533.1.533.33,0,.2-.128.3-.431.406v.558c0,.634.05,2.562.1,3.855,1.572-.228,3.551-.481,4.946-.609v3.551c-.254-.025-.888-.051-1.218-.051a35.344,35.344,0,0,0-3.652.254v.989c0,2.182-.228,4.008-.939,4.947-.862,1.091-2.485,1.243-3.856,1.243-.38,0-.786,0-1.192-.025a19.522,19.522,0,0,0-.862-3.2,10.825,10.825,0,0,0,1.572.128c.812,0,1.294-.1,1.523-.558a8.587,8.587,0,0,0,.431-3.095c-1.9.3-3.881.685-5.784,1.065-.052,1.091-.052,1.7-.052,2.359a37.362,37.362,0,0,0,.127,3.8,2.2,2.2,0,0,0,.71,1.447c.813.71,2.385.735,3.424.735A33.363,33.363,0,0,0,54.8,142.2a18.641,18.641,0,0,0-.456,3.551,63.187,63.187,0,0,1-8.22.609c-1.9,0-4.058-.178-5.5-1.573s-1.444-3.932-1.444-6.113c0-.964.024-2.258.05-3.146-1.75.355-3.4.71-5.1,1.167l-.3-3.805a37.6,37.6,0,0,0,5.3-.709,58.637,58.637,0,0,0-.253-6.012l3.728.457c.482.051.66.152.66.381,0,.254-.33.355-.533.406-.1,1.42-.177,2.816-.228,4.211,1.8-.305,3.729-.61,5.605-.889a33.384,33.384,0,0,0-.583-6.164" transform="translate(-8.075 -123.933)" fill="#222"/>
        <path id="パス_8140" data-name="パス 8140" d="M78.611,126.9c-.026.482-.026.786-.026,1.115a19.737,19.737,0,0,0,.1,2.131,39.655,39.655,0,0,1-4.262.913c-1.242,3.653-3.525,9.082-5.757,12.2a19.854,19.854,0,0,0-3.2-1.319,39.238,39.238,0,0,0,5.3-10.425c-1.344.1-2.359.127-4.16.152l-.407-3.349a19.924,19.924,0,0,0,2.74.2c.939,0,1.9-.077,2.79-.152.381-1.447.71-2.917.964-4.414l3.4,1.065c.254.076.457.178.457.381s-.2.279-.507.3c-.178.557-.406,1.369-.609,2.106a28.227,28.227,0,0,0,3.171-.913m3.805,8.041a3.582,3.582,0,0,0-1.041,2.562,15.764,15.764,0,0,0,.28,2.688,27.649,27.649,0,0,1,5.479,3.247,24.781,24.781,0,0,0-1.979,2.587,22.765,22.765,0,0,0-3.4-2.41c-.33,2.74-2.587,3.323-4.947,3.323-2.511,0-5.656-.964-5.656-3.983,0-2.714,2.435-3.856,4.82-3.856a12.751,12.751,0,0,1,2.207.2A20.476,20.476,0,0,1,78,137.123a4.932,4.932,0,0,1,1.776-3.754Zm-6.19,6.722c-.761,0-1.953.355-1.953,1.294,0,1.065,1.421,1.294,2.232,1.294,1.472,0,2.055-.533,2.132-1.979a5.309,5.309,0,0,0-2.41-.609m11.491-9.817a30.279,30.279,0,0,0-1.928,2.79,18.023,18.023,0,0,0-6.443-3.272l1.75-2.79a20.45,20.45,0,0,1,6.621,3.272" transform="translate(-14.635 -123.807)" fill="#222"/>
        <path id="パス_8141" data-name="パス 8141" d="M104.913,126.155v17.021h-2.866v-.964H99.992v2.08H97.151V126.155Zm-2.866,2.689H99.992v3.906h2.055Zm-2.055,10.7h2.055v-4.083H99.992Zm16.944-4.844c.254.025.533.051.533.28,0,.2-.3.354-.456.43v1.522H119.6v2.739h-2.587v4.9c0,2.765-2.08,2.866-4.288,2.866-.33,0-.66,0-.963-.025a5.947,5.947,0,0,0-1.117-3.246,17.564,17.564,0,0,0,2.283.228c.787,0,.888-.356.888-1.041v-3.678h-5.123a21.322,21.322,0,0,1,2.765,3.247,25.274,25.274,0,0,0-2.41,2.08,18.3,18.3,0,0,0-2.967-3.729l1.953-1.6H105.9v-2.739h7.914V134.6h-8.294v-2.765h5.149v-2.055h-4.515v-2.764h4.515v-2.867l3.551.127c.077,0,.355.051.355.3,0,.228-.152.3-.633.457v1.979h4.971v2.764h-4.971v2.055h5.885V134.6h-4.16Z" transform="translate(-21.201 -123.847)" fill="#222"/>
        <path id="パス_8142" data-name="パス 8142" d="M139.222,124.759v8.447h-6.95v14.205h-2.993V124.759Zm-2.943,2.029h-4.008v1.243h4.008Zm-4.007,4.338h4.008v-1.37h-4.008Zm13.114,12.987h-7.711v.964h-2.79V134.753h10.5Zm-2.765-7.077h-4.946v1.344h4.946Zm-4.946,4.794h4.946v-1.4h-4.946Zm13.292-17.071V144.57c0,2.562-1.725,3.07-3.957,3.07a4.5,4.5,0,0,1-.583-.025,7.35,7.35,0,0,0-1.446-3.349,7.292,7.292,0,0,0,1.953.3c.989,0,1.091-.457,1.091-1.319V133.206h-7v-8.447Zm-3.019,1.979h-3.983v1.243h3.983Zm-3.983,4.287h3.983v-1.268h-3.983Z" transform="translate(-27.86 -123.973)" fill="#222"/>
        <path id="パス_8143" data-name="パス 8143" d="M169.111,123.767l3.247.685c.228.051.507.127.507.406,0,.152-.127.381-.608.406-.228.482-.534,1.116-.761,1.573a29.277,29.277,0,0,0,5.732-1.268l.025,3.247c-2.334.431-4.921.863-7.407,1.09-.457.812-.888,1.547-1.319,2.258a4.973,4.973,0,0,1,2.41-.583,4.2,4.2,0,0,1,3.83,2.334c1.826-.812,3.881-1.725,5.378-2.511l1.268,3.45c-2.029.634-4.11,1.294-5.987,2.08.076.837.1,1.7.1,2.536s-.025,1.674-.076,2.511c-.761-.025-1.7-.025-2.156-.025-.405,0-.836,0-1.243.025a28.947,28.947,0,0,0,.127-3.5c-1.242.684-3.805,2.1-3.805,3.7,0,1.547,2.816,1.547,4.287,1.547a29.22,29.22,0,0,0,7.965-1.167,14.872,14.872,0,0,0-.405,3.5,32.4,32.4,0,0,1-7,.686c-2.893,0-8.118-.457-8.118-4.388,0-3.171,4.287-5.733,6.772-7.027a2,2,0,0,0-2.1-1.37c-2.765,0-4.947,3.348-6.24,5.454l-3.019-1.777a48.79,48.79,0,0,0,5.581-7.457c-.761.025-1.952.051-2.841.051h-1.218v-3.17c1.345.127,2.714.2,4.084.2.507,0,1.116-.025,1.547-.051a21.583,21.583,0,0,0,1.446-3.45" transform="translate(-34.332 -123.767)" fill="#222"/>
        <path id="パス_8144" data-name="パス 8144" d="M197.062,139.323v3.044c0,1.572.2,1.725,1.928,1.725h8.65c1.192,0,2.588-.153,2.588-3.475a5.321,5.321,0,0,0,2.993,1.091,8.852,8.852,0,0,1-1.421,4.083,3.786,3.786,0,0,1-3.2,1.091h-10.02c-2.993,0-4.565-.177-4.565-3.628v-6.747h7.991v-2.942h-7.737v-1.9a17.521,17.521,0,0,1-2.1,2.84,10.726,10.726,0,0,0-2.791-1.673,17.294,17.294,0,0,0,5.048-9.031l3.019.558c.228.051.481.128.481.33,0,.3-.431.431-.735.482l-.3.989H211.47c0,2.841-.151,9.74-.786,12.277a4.089,4.089,0,0,1-1.953,2.74,6.569,6.569,0,0,1-2.637.431,4.3,4.3,0,0,1-.558-.025,8.668,8.668,0,0,0-.71-2.258Zm9.462-.685c1.37,0,1.5-.863,1.673-2.41a65.619,65.619,0,0,0,.356-7.407H195.819a19.84,19.84,0,0,1-1.091,2.055h10.425v7.61a8.8,8.8,0,0,0,1.37.151" transform="translate(-40.315 -123.774)" fill="#222"/>
        <path id="パス_8145" data-name="パス 8145" d="M239.766,130.208l3.652,1.294c.229.076.356.152.356.355,0,.3-.33.33-.558.33a25.274,25.274,0,0,1-1.142,4.972,18.243,18.243,0,0,1,3.907,2.714,31.326,31.326,0,0,0-2.08,3.095,19.8,19.8,0,0,0-3.146-2.461,17.879,17.879,0,0,1-5.732,6.772,10.211,10.211,0,0,0-2.79-2.308c2.282-1.04,4.565-3.856,5.656-6.088a24.054,24.054,0,0,0-5.174-1.776c-1.852,3.932-2.841,5.657-3.7,6.621a3.209,3.209,0,0,1-2.588,1.218,3.9,3.9,0,0,1-3.7-4.033,6.906,6.906,0,0,1,3.475-5.758,8.056,8.056,0,0,1,4.566-1.115c.633-1.649,1.344-3.425,2.054-5.124A42.123,42.123,0,0,1,226.982,130l-.736-3.6c2.664,0,6.9-.381,9.284-1.547l2.207,1.852a19.392,19.392,0,0,0-1.7,2.79,34.429,34.429,0,0,0-2.079,4.693,25.039,25.039,0,0,1,5.073,1.573,20.373,20.373,0,0,0,.736-5.556m-14.1,10.7c0,.381.152.913.634.913.457,0,1.192-1.116,1.624-1.826a21.973,21.973,0,0,0,1.421-2.791,3.718,3.718,0,0,0-3.678,3.7" transform="translate(-47.226 -123.993)" fill="#222"/>
        <path id="パス_8146" data-name="パス 8146" d="M261.474,146.8a7.884,7.884,0,0,1-5.023-1.5,3.258,3.258,0,0,1-1.268-2.511c0-3.044,4.134-3.907,6.493-3.907.481,0,1.065.025,1.421.051,0-.583,0-.964-.025-2.029-.584.025-.964.025-1.345.025-.3,0-.76,0-1.318-.025-1.471-.052-4.617-.228-4.617-2.182,0-1.091.685-1.826,1.8-2.993l2.435.633c-.558.533-.71.736-.71.989,0,.558.888.66,1.877.66.862,0,1.446,0,1.826-.025l-.05-3.374c-2.765.1-5.479.38-8.218.71v-3.4c1.979-.178,3.83-.254,8.193-.431v-.888c0-.761-.051-1.624-.128-2.359l3.881.609c.152.025.355.1.355.33s-.151.33-.457.431c-.05.507-.1,1.142-.126,1.725,1.42-.051,2.714-.076,3.322-.076.786,0,2.638.051,3.957.178v3.221c-1.876-.152-3.525-.2-5.3-.2-.684,0-1.4,0-2.079.026v3.3a33.586,33.586,0,0,0,6.721-1.167v3.247a43.527,43.527,0,0,1-6.645.837c0,.583.025,1.624.075,2.714a24.177,24.177,0,0,1,8.447,3.449c-.736.761-1.573,1.75-2.359,2.741a17.477,17.477,0,0,0-5.911-3.349,5.7,5.7,0,0,1,.025.659c0,3.2-2.561,3.881-5.25,3.881m.2-5.4c-.862,0-3.019.151-3.019,1.37,0,.963,1.6,1.141,2.308,1.141,1.37,0,2.181-.431,2.181-1.928a3.411,3.411,0,0,0-.025-.431,7,7,0,0,0-1.446-.151" transform="translate(-53.865 -123.867)" fill="#222"/>
        <path id="パス_8147" data-name="パス 8147" d="M292.884,124.055l3.678.457c.431.05.583.127.583.279,0,.228-.152.3-.406.43a18.116,18.116,0,0,0-.1,2.03c3.425-.128,5.911-.229,8.548-.381a15.4,15.4,0,0,0-.076,1.7,13.5,13.5,0,0,0,.1,1.776c-2.385-.1-4.844-.152-6.417-.152-.71,0-1.446,0-2.156.051v1.573c0,.482.025,1.268.051,1.725a8.006,8.006,0,0,1,1.294,4.616,11.463,11.463,0,0,1-6.062,9.74,15.909,15.909,0,0,0-3.095-2.257c2.131-.862,4.186-2.106,5.074-4.338a3.569,3.569,0,0,1-2.436.888c-2.714,0-3.652-2.486-3.652-4.82,0-2.739,1.446-5.174,4.439-5.174a5.558,5.558,0,0,1,1.065.1c.026-.66.026-1.421.026-1.928a88.805,88.805,0,0,0-10.4,1.218l-.254-3.628c2.156,0,6.8-.3,10.553-.558a29.549,29.549,0,0,0-.356-3.348m-2.232,13.19c0,.965.33,2.36,1.572,2.36s1.675-1.675,1.675-2.689c0-.888-.407-1.979-1.472-1.979-1.294,0-1.775,1.192-1.775,2.308" transform="translate(-59.654 -123.827)" fill="#222"/>
      </g>
    </g>
  </g>
</svg>
