<svg xmlns="http://www.w3.org/2000/svg" width="164.538" height="376.481" viewBox="0 0 164.538 376.481">
  <g id="グループ_577" data-name="グループ 577" transform="translate(3)">
    <g id="グループ_585" data-name="グループ 585">
      <path id="パス_7443" data-name="パス 7443" d="M148.419,10.623c5.312,0,11.071,2.752,11.071,8.766,0,6.241-5.792,9.024-11.071,10.144a14.143,14.143,0,0,0-2.368-3.3c3.584-.672,9.023-2.432,9.023-6.911a4.584,4.584,0,0,0-3.584-4.48,32.3,32.3,0,0,1-6.015,8.608c.192.607.385,1.151.608,1.695-1.664.96-2.271,1.344-3.519,2.176a8.4,8.4,0,0,1-.513-1.247,10.671,10.671,0,0,1-5.663,1.951c-2.848,0-4.128-2.048-4.128-4.7,0-5.056,3.9-9.024,8.287-10.943.065-1.025.16-2.048.32-3.073-.96.065-1.92.1-2.687.1a24.009,24.009,0,0,1-3.392-.225l.128-3.807a24.288,24.288,0,0,0,4.575.352c.641,0,1.313,0,1.985-.032.416-1.856.9-3.712,1.471-5.536L147.2,1.5c.32.1.544.159.544.447,0,.352-.48.416-.736.448-.416.928-.768,1.888-1.088,2.848a34.4,34.4,0,0,0,8.544-2.272l.7,3.808a55.735,55.735,0,0,1-10.207,2.176c-.128.639-.256,1.408-.351,2.08a19,19,0,0,1,3.807-.416m-7.935,5.76c-1.953,1.343-4.256,3.9-4.256,6.43,0,.769.288,1.473,1.183,1.473a6.885,6.885,0,0,0,3.681-1.729,43.563,43.563,0,0,1-.608-6.174m3.775-1.185a30.228,30.228,0,0,0,.256,3.808,24.169,24.169,0,0,0,2.88-4.671,14.769,14.769,0,0,0-3.136.447Z" fill="#222"/>
      <path id="パス_7444" data-name="パス 7444" d="M148.419,35.775c-.033.607-.033.992-.033,1.408a24.891,24.891,0,0,0,.128,2.687,49.785,49.785,0,0,1-5.376,1.152c-1.567,4.608-4.447,11.456-7.262,15.391a25.049,25.049,0,0,0-4.032-1.664A49.5,49.5,0,0,0,138.531,41.6c-1.7.128-2.976.16-5.247.192l-.513-4.223a25.13,25.13,0,0,0,3.456.256c1.184,0,2.4-.1,3.52-.193.48-1.823.9-3.679,1.216-5.567l4.288,1.344c.32.1.576.224.576.48s-.256.352-.64.384c-.224.7-.512,1.727-.768,2.655a35.606,35.606,0,0,0,4-1.151m4.8,10.143a4.519,4.519,0,0,0-1.313,3.232,19.887,19.887,0,0,0,.353,3.391,34.875,34.875,0,0,1,6.911,4.1,31.26,31.26,0,0,0-2.5,3.264,28.72,28.72,0,0,0-4.288-3.04c-.416,3.456-3.263,4.192-6.24,4.192-3.167,0-7.135-1.216-7.135-5.024,0-3.423,3.072-4.864,6.08-4.864a16.087,16.087,0,0,1,2.784.256,25.833,25.833,0,0,1-.225-2.752,6.222,6.222,0,0,1,2.24-4.735ZM145.411,54.4c-.96,0-2.464.448-2.464,1.632,0,1.344,1.792,1.632,2.815,1.632,1.857,0,2.592-.672,2.689-2.5a6.7,6.7,0,0,0-3.04-.768m14.5-12.383a38.2,38.2,0,0,0-2.432,3.52,22.734,22.734,0,0,0-8.128-4.127l2.208-3.521a25.819,25.819,0,0,1,8.352,4.128" fill="#222"/>
      <path id="パス_7445" data-name="パス 7445" d="M141.155,64.287l4.672,1.088c.288.064.607.129.607.448s-.383.448-.639.48c-.288,1.088-.64,2.528-.9,3.648a25.136,25.136,0,0,0,5.887-1.632l.513,4.256a50.79,50.79,0,0,1-7.52,1.567,74.2,74.2,0,0,1-8.512,19.039,33.429,33.429,0,0,0-4.1-2.08A52,52,0,0,0,139.3,74.783c-1.76.159-3.745.223-6.336.256l-.321-4.481c.865.065,2.241.129,3.2.129,1.471,0,2.975-.064,4.479-.192.353-2.048.64-4.128.832-6.208M159.49,89.693a13.049,13.049,0,0,0,.191,2.24,39.032,39.032,0,0,1-6.687.576c-3.52,0-9.535-.352-9.535-5.12a9.076,9.076,0,0,1,1.408-4.191l3.552,1.311a4.072,4.072,0,0,0-1.088,2.336c0,1.664,3.68,1.729,5.375,1.729a24.354,24.354,0,0,0,6.944-1.057,16.619,16.619,0,0,0-.16,2.176m-.832-9.791a21.185,21.185,0,0,0-4.7-.512,55.366,55.366,0,0,0-6.911.544V75.9a41.38,41.38,0,0,1,7.167-.575,26.015,26.015,0,0,1,4.736.351,37.476,37.476,0,0,0-.288,4.224" fill="#222"/>
      <path id="パス_7446" data-name="パス 7446" d="M142.692,103.231a.442.442,0,0,1,.351.415c0,.385-.383.448-.671.448a29.249,29.249,0,0,0-2.208,6.688,15.947,15.947,0,0,1,9.887-3.648c4.544,0,8.1,2.944,8.1,7.616a8.828,8.828,0,0,1-5.184,7.9,26.021,26.021,0,0,1-11.135,2.176c-.736,0-1.856-.032-2.432-.064a11.754,11.754,0,0,0-1.248-4.544,25.453,25.453,0,0,0,4.416.384c3.68,0,11.1-.863,11.1-5.791,0-2.624-1.855-3.84-4.287-3.84-4.288,0-7.84,2.624-10.591,5.7l-3.9-1.409a81.718,81.718,0,0,1,3.232-13.47Zm9.535-3.456a35.459,35.459,0,0,0-2.432,3.968,28.586,28.586,0,0,0-9.983-4L141.22,96.1a32.654,32.654,0,0,1,11.007,3.68" fill="#222"/>
      <path id="パス_7447" data-name="パス 7447" d="M142.02,129.439c.511.064.735.16.735.448,0,.224-.224.384-.7.544a92.648,92.648,0,0,0-.927,14.623,17.837,17.837,0,0,0,.608,5.568,2.7,2.7,0,0,0,2.911,1.823c2.72,0,5.759-1.919,7.584-3.839a23.019,23.019,0,0,0,3.968-5.472,24.707,24.707,0,0,0,3.231,3.583c-3.3,5.312-8.608,10.24-15.231,10.24a6.455,6.455,0,0,1-6.72-4.959,33.174,33.174,0,0,1-.767-8.352c0-1.568.032-3.488.127-5.216.1-1.952.224-5.311.224-7.519,0-.736,0-1.472-.062-2.176Z" fill="#222"/>
      <path id="パス_7448" data-name="パス 7448" d="M138.084,162.431c.479.128.672.225.672.512,0,.384-.385.448-.672.48a28.369,28.369,0,0,0-1.7,9.535,13.2,13.2,0,0,0,1.728,7.136,1.456,1.456,0,0,0,1.024.7c1.12,0,2.656-3.456,3.424-5.344a12.755,12.755,0,0,0,2.88,2.848c-.96,2.368-3.744,8.224-6.72,8.224-1.216,0-2.4-1.088-3.135-1.985-2.592-3.263-3.424-7.55-3.424-11.615a55.966,55.966,0,0,1,1.5-11.774Zm15.9.416a31.967,31.967,0,0,1,6.4,16.223c-1.439.544-2.975,1.248-4.447,1.984a28.68,28.68,0,0,0-5.5-15.967Z" fill="#222"/>
      <path id="パス_7449" data-name="パス 7449" d="M148.835,218.878h-4.607v-15.2a59.638,59.638,0,0,1-9.792,4.9,13.462,13.462,0,0,0-3.264-3.84,44.566,44.566,0,0,0,22.207-14.942l3.839,2.943a.622.622,0,0,1,.288.449c0,.288-.319.416-.576.416a1.8,1.8,0,0,1-.575-.1,53.6,53.6,0,0,1-7.52,6.976Z" fill="#222"/>
      <path id="パス_7450" data-name="パス 7450" d="M144.323,228.223a34.5,34.5,0,0,0-2.656,3.711,32.429,32.429,0,0,0-8.415-5.44l2.687-3.775a37.893,37.893,0,0,1,8.384,5.5m13.375-.385a18.662,18.662,0,0,0,2.783,3.744c-5.7,8.672-13.534,14.207-23.2,17.694-.064.416-.191.705-.512.705a.648.648,0,0,1-.511-.384l-2.592-4.384a37.936,37.936,0,0,0,24.03-17.375" fill="#222"/>
      <path id="パス_7451" data-name="パス 7451" d="M144.963,277.567a16.27,16.27,0,0,1-7.1,4.543,14.124,14.124,0,0,0-3.231-3.392c2.783-.767,5.823-2.208,7.583-4.575a11.8,11.8,0,0,0,2.048-6.944H132.132v-3.9h27.2v3.9H148.579c-.064,3.808-.96,7.519-3.616,10.368m9.983-18.719H136.675v-3.937h18.271Z" fill="#222"/>
      <path id="パス_7452" data-name="パス 7452" d="M140.515,286.208c.48.032.64.065.64.32,0,.224-.192.416-.64.608v15.487h-4.479V286.017Zm14.847-.576c.479.032.64.1.64.32,0,.353-.352.512-.64.609v10.367a17.683,17.683,0,0,1-2.528,9.759c-2.368,3.712-5.919,5.727-9.887,7.391a8.137,8.137,0,0,0-2.815-3.487,16.526,16.526,0,0,0,8.415-5.439c1.855-2.433,2.271-5.249,2.271-8.192V285.408Z" fill="#222"/>
      <path id="パス_7453" data-name="パス 7453" d="M156.13,319.52a4.875,4.875,0,0,0,1.792-.288l3.008,2.784c-.351.449-.608.8-.929,1.281a63.936,63.936,0,0,1-9.246,10.751,14.7,14.7,0,0,0-3.135-3.008,29.42,29.42,0,0,0,6.911-7.424H132.484v-4.1Zm-8.319,5.888c.32.032.544.1.544.32,0,.288-.319.512-.544.64a31.256,31.256,0,0,1-1.633,9.407,19.412,19.412,0,0,1-8.19,9.472,24.786,24.786,0,0,0-3.776-2.848,19.807,19.807,0,0,0,6.24-5.152c2.142-2.848,2.784-7.071,2.784-10.591,0-.512-.032-1.184-.065-1.536Z" fill="#222"/>
      <path id="パス_7454" data-name="パス 7454" d="M141.251,348.227l4.576,1.407c.352.1.608.192.608.448,0,.416-.544.512-.832.544-.287,1.5-.575,2.848-.928,4.256.256-.032.769-.065,1.088-.065,5.376,0,6.624,4.321,6.624,8.864a19.824,19.824,0,0,1-2.016,8.8c-1.376,2.687-3.072,4-6.143,4a12.659,12.659,0,0,1-2.912-.353v-1.151a14.315,14.315,0,0,0-.384-3.521,6.581,6.581,0,0,0,2.911.673c1.632,0,2.433-.353,3.36-2.561a17.7,17.7,0,0,0,1.056-6.207c0-2.08-.384-4.607-3.04-4.607a13.2,13.2,0,0,0-1.6.159c-1.919,6.592-3.935,11.743-8.1,17.279a17.936,17.936,0,0,0-4.031-2.08,39.359,39.359,0,0,0,7.71-14.367,40.8,40.8,0,0,0-5.535,1.729l-1.376-4.481c1.056-.128,2.241-.351,3.456-.607,1.663-.353,3.36-.7,4.512-.9a55.605,55.605,0,0,0,.991-7.262m12.512,5.055a32.145,32.145,0,0,1,5.215,6.207,8.245,8.245,0,0,1,1.44,4.192c0,2.368-2.752,3.36-4.9,4.064a25.234,25.234,0,0,0-2.08-3.616c1.439-.32,2.336-.576,2.336-1.7,0-1.952-3.648-6.048-5.024-7.424Zm1.888-3.744a24.218,24.218,0,0,1,2.752,3.232,18.889,18.889,0,0,0-2.048,1.536,30.9,30.9,0,0,0-2.784-3.328Zm3.071-1.952a20.93,20.93,0,0,1,2.816,3.3c-.7.448-1.7,1.152-2.3,1.632a15.021,15.021,0,0,0-2.657-3.52Z" fill="#222"/>
    </g>
    <g id="グループ_583" data-name="グループ 583">
      <path id="パス_7455" data-name="パス 7455" d="M94.781,1.855V5.5H92.253V25.246a4.249,4.249,0,0,1-1.567,3.519c-1.025.7-3.073.832-4.993.863A8.2,8.2,0,0,0,84,25.565a24.071,24.071,0,0,0,2.943.288c1.441,0,1.537-.576,1.537-1.888V5.5h-13.7V2.175l-.16.032c-.512.992-.607,1.184-1.023,2.08-.7,1.5-1.088,2.271-1.76,3.456l.607.063c.288.032.641.1.641.385,0,.224-.353.415-.641.544v20.8h-3.84V12.7a20.05,20.05,0,0,1-1.855,2.176,9.381,9.381,0,0,0-2.655-2.72C67.231,9.119,69.887,4.126,71.23,0l3.617,1.215c.288.1.576.224.576.544,0,.032-.032.064-.032.1ZM85.758,9.247V21.309H78.814V23.9H75.2V9.247Zm-6.944,8.607h3.359V12.8H78.814Z" fill="#222"/>
      <path id="パス_7456" data-name="パス 7456" d="M82.59,49.95c3.072.481,9.088,3.584,11.583,5.5a33.944,33.944,0,0,0-2.88,3.808,27.348,27.348,0,0,0-8.351-4.96,4.883,4.883,0,0,1,.032.576c0,4.159-3.424,5.7-7.1,5.7a11.984,11.984,0,0,1-5.023-1.023,5.389,5.389,0,0,1-3.392-4.768c0-4.288,5.92-5.664,9.28-5.664a9.609,9.609,0,0,1,1.376.1c-.128-2.079-.288-5.5-.288-7.839,0-2.368,0-4.576-.065-5.695a23.81,23.81,0,0,0-.416-3.361l5.185.865c.351.063.639.127.639.448,0,.384-.383.479-.672.544-.16,1.535-.255,3.1-.32,4.607a35.611,35.611,0,0,0,10.367-1.6,37.374,37.374,0,0,0-.256,4.223v.447A49.1,49.1,0,0,1,82.111,43.1a39.9,39.9,0,0,0,.479,6.848m-6.367,2.88c-1.28,0-4.32.384-4.32,2.144,0,1.6,2.24,1.919,3.456,1.919a3.608,3.608,0,0,0,2.464-.767,2.319,2.319,0,0,0,.671-2.016c0-.32,0-.576-.032-.992a8.764,8.764,0,0,0-2.239-.288" fill="#222"/>
      <path id="パス_7457" data-name="パス 7457" d="M75.038,65.952c.576.128.864.256.864.544,0,.384-.448.479-.736.544a27.093,27.093,0,0,0-1.375,8.287,17.912,17.912,0,0,0,.351,3.456c.64-1.44,1.312-2.816,2.08-4.192a17.458,17.458,0,0,0,2.784,2.3,21.729,21.729,0,0,0-3.36,8.384l-3.84.448a31.935,31.935,0,0,1-2.175-11.455,35.926,35.926,0,0,1,1.023-8.032c.1-.415.16-.8.225-1.247Zm14.783-1.088c.512.031.768.128.768.447s-.288.416-.544.481c.064,1.535.224,3.968.352,5.727.128,1.824.192,3.2.192,4.64,0,4.831-.672,8.8-3.648,12.735a18.8,18.8,0,0,1-6.176,5.152,11.486,11.486,0,0,0-3.487-3.2c6.144-2.815,8.8-7.55,8.8-14.27A58.79,58.79,0,0,0,84.925,64.7Z" fill="#222"/>
      <path id="パス_7458" data-name="パス 7458" d="M73.343,108.222c.288.065.607.128.607.481,0,.288-.191.416-.863.544a42.3,42.3,0,0,1-2.112,6.271,22.526,22.526,0,0,1-2.272,4.128,11.569,11.569,0,0,0-4.192-1.5,28.238,28.238,0,0,0,4.736-10.975Zm5.632-3.2c.128,0,.735,0,.735.512,0,.351-.448.448-.735.511v14.016c0,1.119.287,1.535,1.727,1.535h3.584c1.119,0,2.239-.128,2.911-4.191a8.264,8.264,0,0,0,3.584,1.888,10.385,10.385,0,0,1-2.047,4.607,5.344,5.344,0,0,1-4.128,1.376h-5.6c-2.527,0-4.191-1.216-4.191-3.871V104.735Zm7.327-4.16a24.647,24.647,0,0,0-2.3,3.424,38.776,38.776,0,0,0-8.672-4.768l1.985-3.391a45.451,45.451,0,0,1,8.991,4.735m9.119,14.5c-1.248.576-2.72,1.28-3.872,1.952-1.375-3.807-3.711-6.943-6.175-10.079l3.232-2.017a36.251,36.251,0,0,1,6.815,10.144" fill="#222"/>
      <path id="パス_7459" data-name="パス 7459" d="M75.9,137.055v3.487H72.766v9.568c1.248-.353,2.4-.7,3.648-1.12a16.846,16.846,0,0,0-.319,2.847c0,.321,0,.481.031.928-1.7.673-7.583,2.56-9.439,3.072-.129.608-.257.9-.512.9-.32,0-.416-.384-.48-.64l-.992-3.84c1.376-.256,2.752-.607,4.128-.992V140.542H65.375v-3.487h3.456v-7.808l4.287.256c.16,0,.513.192.513.416s-.385.384-.865.512v6.624Zm8,1.439v-9.759l3.937.257c.256.031.575.159.575.383s-.159.352-.768.576v7.007l4.64-1.92,1.728.832v11.072c0,1.568-.289,2.847-1.984,3.36a8.884,8.884,0,0,0,3.424,2.111c-.256,1.344-.8,3.392-1.952,4.224a7.334,7.334,0,0,1-3.968.8H82.782a5.24,5.24,0,0,1-3.648-1.056,4,4,0,0,1-1.056-3.04V144.8L74.91,146.11l-1.279-3.327,4.447-1.857v-9.951l4.128.288c.288.032.576.1.576.352,0,.192-.128.288-.832.576v7.135ZM81.95,152.221c0,1.024.224,1.664,1.792,1.664h5.119c2.272,0,2.912-.607,3.072-3.552a13.071,13.071,0,0,1-2.752.225,14.165,14.165,0,0,0-1.376-3.9,6.392,6.392,0,0,0,1.312.16c.992,0,1.12-.416,1.12-1.28V139.71L87.645,140.8v10.111H83.9v-8.542l-1.951.832Z" fill="#222"/>
      <path id="パス_7460" data-name="パス 7460" d="M82.59,178.27c3.072.481,9.088,3.584,11.583,5.5a33.944,33.944,0,0,0-2.88,3.808,27.348,27.348,0,0,0-8.351-4.96,4.884,4.884,0,0,1,.032.576c0,4.159-3.424,5.7-7.1,5.7a11.985,11.985,0,0,1-5.023-1.023,5.389,5.389,0,0,1-3.392-4.768c0-4.288,5.92-5.664,9.28-5.664a9.61,9.61,0,0,1,1.376.1c-.128-2.079-.288-5.5-.288-7.839,0-2.368,0-4.576-.065-5.7a23.81,23.81,0,0,0-.416-3.361l5.185.865c.351.063.639.127.639.448,0,.384-.383.479-.672.544-.16,1.535-.255,3.1-.32,4.607a35.611,35.611,0,0,0,10.367-1.6,37.373,37.373,0,0,0-.256,4.223v.447a49.1,49.1,0,0,1-10.174,1.248,39.9,39.9,0,0,0,.479,6.848m-6.367,2.88c-1.28,0-4.32.384-4.32,2.144,0,1.6,2.24,1.919,3.456,1.919a3.608,3.608,0,0,0,2.464-.767,2.319,2.319,0,0,0,.671-2.016c0-.32,0-.576-.032-.992a8.764,8.764,0,0,0-2.239-.288" fill="#222"/>
      <path id="パス_7461" data-name="パス 7461" d="M72.287,194.752c.479.128.673.225.673.512,0,.384-.385.448-.673.48a28.394,28.394,0,0,0-1.7,9.535,13.205,13.205,0,0,0,1.728,7.136,1.458,1.458,0,0,0,1.024.7c1.121,0,2.656-3.456,3.424-5.344a12.776,12.776,0,0,0,2.88,2.848c-.959,2.368-3.744,8.224-6.72,8.224-1.216,0-2.4-1.088-3.135-1.985-2.591-3.263-3.423-7.55-3.423-11.615a55.964,55.964,0,0,1,1.5-11.774Zm15.9.416a31.959,31.959,0,0,1,6.4,16.223c-1.44.544-2.975,1.248-4.447,1.984a28.674,28.674,0,0,0-5.5-15.967Z" fill="#222"/>
    </g>
    <g id="グループ_584" data-name="グループ 584" transform="translate(-3)">
      <path id="パス_7462" data-name="パス 7462" d="M17.343,21.086H27.966v3.3H17.343V29.5H13.28v-5.12H2.848v-3.3H13.28v-2.72H1.409V15.134H8.8c-.511-.96-.8-1.472-1.792-3.04l1.824-.639H.769V8.191H13.28V6.014H3.552V2.783H13.28V.128l4.256.127c.032,0,.544.064.544.48,0,.256-.512.48-.737.576V2.783H27.2V6.014H17.343V8.191h12.7v3.264H23.711l.544.1c.159.033.608.161.608.416,0,.416-.768.544-1.088.577q-.624,1.342-1.344,2.591h6.943v3.232H17.343Zm-4.575-6.56-1.76.608h7.167a25.99,25.99,0,0,0,1.792-3.679H11.072a25.84,25.84,0,0,1,1.7,3.071" fill="#222"/>
      <path id="パス_7463" data-name="パス 7463" d="M18.527,32.671l4.64.672c.416.063.672.128.672.416,0,.256-.161.384-.544.512v.7c0,.8.063,3.231.128,4.863,1.983-.288,4.479-.607,6.239-.768v4.48c-.321-.032-1.12-.065-1.536-.065a44.608,44.608,0,0,0-4.608.321v1.248c0,2.752-.288,5.055-1.183,6.239-1.088,1.376-3.136,1.568-4.865,1.568-.479,0-.991,0-1.5-.032A24.49,24.49,0,0,0,14.879,48.8a13.666,13.666,0,0,0,1.984.16c1.023,0,1.632-.128,1.92-.7.288-.544.447-1.6.544-3.9-2.4.384-4.9.864-7.3,1.343-.064,1.376-.064,2.144-.064,2.976a47.159,47.159,0,0,0,.16,4.8,2.774,2.774,0,0,0,.9,1.824c1.024.9,3.008.928,4.319.928A42.046,42.046,0,0,0,27.71,54.909a23.527,23.527,0,0,0-.576,4.48,79.878,79.878,0,0,1-10.367.767c-2.4,0-5.12-.223-6.944-1.983S8,53.213,8,50.461c0-1.216.031-2.848.063-3.968-2.208.449-4.287.9-6.432,1.473l-.383-4.8a47.413,47.413,0,0,0,6.687-.9,73.937,73.937,0,0,0-.319-7.583l4.7.576c.608.063.832.191.832.479,0,.321-.416.449-.672.512-.128,1.792-.223,3.552-.288,5.312,2.272-.384,4.7-.768,7.071-1.12a42.019,42.019,0,0,0-.735-7.775" fill="#222"/>
      <path id="パス_7464" data-name="パス 7464" d="M17.951,67.775c-.033.607-.033.992-.033,1.408a24.892,24.892,0,0,0,.128,2.687,49.82,49.82,0,0,1-5.375,1.152C11.1,77.63,8.223,84.478,5.408,88.413a25.048,25.048,0,0,0-4.032-1.664A49.467,49.467,0,0,0,8.063,73.6c-1.695.128-2.976.16-5.247.192L2.3,69.567a25.142,25.142,0,0,0,3.456.256c1.184,0,2.4-.1,3.52-.193.48-1.823.9-3.679,1.216-5.567l4.288,1.344c.32.1.576.224.576.48s-.256.352-.641.384c-.223.7-.511,1.727-.767,2.655a35.606,35.606,0,0,0,4-1.151m4.8,10.143a4.519,4.519,0,0,0-1.313,3.232,19.789,19.789,0,0,0,.354,3.391,34.9,34.9,0,0,1,6.91,4.1,31.26,31.26,0,0,0-2.5,3.264,28.72,28.72,0,0,0-4.288-3.04c-.416,3.456-3.263,4.192-6.24,4.192-3.167,0-7.135-1.216-7.135-5.024,0-3.423,3.072-4.864,6.08-4.864a16.088,16.088,0,0,1,2.784.256,26.1,26.1,0,0,1-.225-2.752,6.22,6.22,0,0,1,2.241-4.735ZM14.943,86.4c-.96,0-2.464.448-2.464,1.632,0,1.344,1.792,1.632,2.815,1.632,1.858,0,2.592-.672,2.689-2.5a6.7,6.7,0,0,0-3.04-.768M29.438,74.014A38.6,38.6,0,0,0,27,77.534a22.721,22.721,0,0,0-8.127-4.127l2.208-3.521a25.809,25.809,0,0,1,8.352,4.128" fill="#222"/>
      <path id="パス_7465" data-name="パス 7465" d="M11.327,98.783v21.471H7.712v-1.216H5.12v2.624H1.536V98.783Zm-3.615,3.391H5.12V107.1H7.712Zm-2.592,13.5H7.712v-5.151H5.12Zm21.374-6.111c.32.032.672.064.672.353,0,.255-.384.447-.575.543v1.92h3.263v3.455H26.591v6.176c0,3.488-2.624,3.615-5.409,3.615-.416,0-.832,0-1.215-.031a7.5,7.5,0,0,0-1.409-4.1,22.156,22.156,0,0,0,2.88.288c.993,0,1.12-.449,1.12-1.313v-4.64H16.095a26.9,26.9,0,0,1,3.488,4.1,31.88,31.88,0,0,0-3.04,2.624,23.087,23.087,0,0,0-3.743-4.7l2.464-2.016H12.575v-3.455h9.983v-2.944H12.1v-3.487h6.495v-2.592H12.9V99.871h5.7V96.255l4.479.16c.1,0,.448.064.448.384,0,.288-.192.384-.8.576v2.5H28.99v3.488H22.719v2.592h7.423v3.487H24.894Z" fill="#222"/>
      <path id="パス_7466" data-name="パス 7466" d="M14.207,128.863v10.655H5.439v17.919H1.664V128.863Zm-3.712,2.559H5.439v1.568h5.056Zm-5.056,5.472h5.056v-1.728H5.439Zm16.543,16.383H12.256v1.216H8.735V141.47H21.982ZM18.5,144.35H12.256v1.695H18.5ZM12.256,150.4H18.5v-1.76H12.256Zm16.766-21.534v24.99c0,3.231-2.175,3.872-4.992,3.872a5.647,5.647,0,0,1-.735-.032,9.293,9.293,0,0,0-1.824-4.224,9.2,9.2,0,0,0,2.464.384c1.248,0,1.376-.576,1.376-1.664V139.518H16.479V128.863Zm-3.807,2.5H20.191v1.567h5.024Zm-5.025,5.407h5.024v-1.6H20.19Z" fill="#222"/>
      <path id="パス_7467" data-name="パス 7467" d="M12.928,159.871l4.1.864c.288.065.639.16.639.512,0,.192-.16.48-.767.513-.288.607-.673,1.407-.96,1.983a36.857,36.857,0,0,0,7.231-1.6l.032,4.1c-2.944.544-6.208,1.088-9.343,1.376-.576,1.024-1.12,1.951-1.664,2.848a6.274,6.274,0,0,1,3.04-.737,5.293,5.293,0,0,1,4.831,2.945c2.3-1.025,4.9-2.176,6.784-3.168l1.6,4.351c-2.56.8-5.184,1.632-7.552,2.624.1,1.056.128,2.144.128,3.2s-.032,2.112-.1,3.168c-.96-.033-2.144-.033-2.72-.033-.511,0-1.055,0-1.568.033a36.5,36.5,0,0,0,.16-4.415c-1.567.863-4.8,2.655-4.8,4.67,0,1.953,3.552,1.953,5.408,1.953a36.86,36.86,0,0,0,10.047-1.472A18.747,18.747,0,0,0,26.943,188a40.867,40.867,0,0,1-8.831.864c-3.649,0-10.24-.576-10.24-5.535,0-4,5.408-7.231,8.543-8.863a2.524,2.524,0,0,0-2.655-1.729c-3.488,0-6.24,4.224-7.872,6.88l-3.808-2.24a61.549,61.549,0,0,0,7.04-9.407c-.96.032-2.463.064-3.584.064H4v-4c1.7.16,3.424.256,5.152.256.64,0,1.408-.032,1.952-.063a27.267,27.267,0,0,0,1.824-4.353" fill="#222"/>
      <path id="パス_7468" data-name="パス 7468" d="M9.695,211.486v3.84c0,1.983.256,2.176,2.432,2.176H23.039c1.5,0,3.264-.193,3.264-4.384a6.712,6.712,0,0,0,3.775,1.376,11.167,11.167,0,0,1-1.792,5.151c-1.023,1.248-2.527,1.376-4.031,1.376H11.615c-3.775,0-5.759-.223-5.759-4.576v-8.511h10.08v-3.711H6.176v-2.4a22.186,22.186,0,0,1-2.655,3.583A13.558,13.558,0,0,0,0,203.295,21.815,21.815,0,0,0,6.368,191.9l3.808.7c.288.065.607.161.607.416,0,.384-.544.544-.927.609l-.384,1.247h18.4c0,3.584-.191,12.287-.992,15.487a5.158,5.158,0,0,1-2.464,3.456,8.286,8.286,0,0,1-3.327.544,5.425,5.425,0,0,1-.7-.032,10.935,10.935,0,0,0-.9-2.848Zm11.936-.864c1.728,0,1.888-1.088,2.111-3.04a82.78,82.78,0,0,0,.449-9.343H8.128a25.127,25.127,0,0,1-1.376,2.592H19.9v9.6a11.1,11.1,0,0,0,1.728.191" fill="#222"/>
      <path id="パス_7469" data-name="パス 7469" d="M22.847,231.71l4.607,1.632c.289.1.449.192.449.448,0,.384-.416.416-.7.416a31.88,31.88,0,0,1-1.44,6.272,23.015,23.015,0,0,1,4.928,3.423,39.516,39.516,0,0,0-2.624,3.9,24.971,24.971,0,0,0-3.968-3.1,22.553,22.553,0,0,1-7.231,8.543,12.88,12.88,0,0,0-3.52-2.911c2.879-1.312,5.759-4.864,7.135-7.68a30.342,30.342,0,0,0-6.527-2.24c-2.336,4.96-3.584,7.136-4.672,8.352A4.048,4.048,0,0,1,6.016,250.3a4.919,4.919,0,0,1-4.672-5.088,8.711,8.711,0,0,1,4.384-7.264,10.154,10.154,0,0,1,5.76-1.407c.8-2.08,1.7-4.32,2.591-6.464a53.13,53.13,0,0,1-7.359,1.376l-.928-4.544c3.36,0,8.7-.479,11.711-1.952l2.784,2.336a24.542,24.542,0,0,0-2.144,3.521,43.367,43.367,0,0,0-2.623,5.919,31.587,31.587,0,0,1,6.4,1.984,25.7,25.7,0,0,0,.928-7.008m-17.791,13.5c0,.48.192,1.152.8,1.152.576,0,1.5-1.408,2.048-2.3A27.708,27.708,0,0,0,9.7,240.541a4.691,4.691,0,0,0-4.64,4.672" fill="#222"/>
      <path id="パス_7470" data-name="パス 7470" d="M11.68,284.8a9.943,9.943,0,0,1-6.336-1.888,4.11,4.11,0,0,1-1.6-3.167c0-3.84,5.215-4.928,8.191-4.928.607,0,1.344.031,1.791.064,0-.736,0-1.216-.031-2.56-.738.032-1.217.032-1.7.032-.382,0-.958,0-1.663-.032-1.856-.065-5.823-.288-5.823-2.752,0-1.376.864-2.3,2.273-3.775l3.071.8c-.7.672-.9.928-.9,1.248,0,.7,1.12.832,2.368.832,1.087,0,1.823,0,2.3-.032l-.062-4.256c-3.488.128-6.911.481-10.367.9v-4.288c2.5-.224,4.83-.321,10.335-.544v-1.12c0-.96-.064-2.048-.161-2.976l4.9.768c.191.032.448.128.448.416s-.191.416-.577.544c-.062.64-.128,1.44-.159,2.175,1.791-.063,3.425-.1,4.191-.1.993,0,3.329.064,4.992.223v4.065c-2.367-.193-4.447-.256-6.687-.256-.864,0-1.76,0-2.624.031v4.16a42.351,42.351,0,0,0,8.478-1.471v4.1a54.9,54.9,0,0,1-8.382,1.056c0,.735.032,2.048.1,3.424A30.5,30.5,0,0,1,28.7,279.837c-.928.96-1.983,2.208-2.975,3.457a22.057,22.057,0,0,0-7.456-4.224,7.447,7.447,0,0,1,.031.831c0,4.032-3.231,4.9-6.622,4.9m.256-6.815c-1.089,0-3.808.191-3.808,1.728,0,1.215,2.016,1.439,2.912,1.439,1.727,0,2.751-.544,2.751-2.432a4.31,4.31,0,0,0-.031-.544,8.831,8.831,0,0,0-1.824-.191" fill="#222"/>
      <path id="パス_7471" data-name="パス 7471" d="M13.823,288.158l4.64.577c.544.064.736.16.736.352,0,.287-.192.384-.512.544a22.834,22.834,0,0,0-.128,2.56c4.32-.161,7.456-.289,10.783-.481a19.467,19.467,0,0,0-.1,2.145,17.02,17.02,0,0,0,.128,2.239c-3.008-.128-6.111-.192-8.1-.192-.9,0-1.824,0-2.72.064v1.984c0,.608.032,1.6.064,2.176a10.1,10.1,0,0,1,1.632,5.823,14.459,14.459,0,0,1-7.647,12.287,20.071,20.071,0,0,0-3.9-2.847c2.688-1.088,5.28-2.656,6.4-5.472a4.5,4.5,0,0,1-3.073,1.12c-3.423,0-4.607-3.136-4.607-6.08,0-3.455,1.824-6.527,5.6-6.527a7.009,7.009,0,0,1,1.343.128c.033-.832.033-1.792.033-2.432a112.02,112.02,0,0,0-13.12,1.536l-.32-4.576c2.72,0,8.575-.384,13.312-.7a37.323,37.323,0,0,0-.449-4.224M11.008,304.8c0,1.217.416,2.977,1.983,2.977s2.113-2.113,2.113-3.392c0-1.12-.513-2.5-1.857-2.5-1.632,0-2.239,1.5-2.239,2.911" fill="#222"/>
    </g>
  </g>
</svg>
