<svg xmlns="http://www.w3.org/2000/svg" width="243" height="27.492" viewBox="0 0 243 27.492">
  <g id="グループ_751" data-name="グループ 751" transform="translate(0 0)">
    <path id="パス_8148" data-name="パス 8148" d="M2.711,9.882A3.689,3.689,0,0,1,1.3,9.812a1.915,1.915,0,0,1-.957-.555A1.4,1.4,0,0,1,0,8.289a2.327,2.327,0,0,1,.619-1.5,4.469,4.469,0,0,1,1.7-1.2V3.966c-.394.028-.776.05-1.146.064s-.712.014-1.027,0L.086,2.793a7.871,7.871,0,0,0,1,.027q.592-.017,1.237-.081V1.007l1.194.011V2.6q.538-.085,1.006-.188a5.082,5.082,0,0,0,.769-.22l.129,1.183a6.373,6.373,0,0,1-.871.247q-.495.108-1.033.194V5.224A6.644,6.644,0,0,1,4.3,5.095a8.119,8.119,0,0,1,.85-.043,4.389,4.389,0,0,1,1.759.317,2.57,2.57,0,0,1,1.1.85,2.03,2.03,0,0,1,.376,1.2,2.133,2.133,0,0,1-.624,1.625,2.316,2.316,0,0,1-1.688.58,2.285,2.285,0,0,1-1.393-.414,2.291,2.291,0,0,1-.813-1.232,5.5,5.5,0,0,0,.6-.231,3.539,3.539,0,0,0,.56-.3,1.053,1.053,0,0,0,1.032.893.923.923,0,0,0,.721-.274.982.982,0,0,0,.247-.684,1.051,1.051,0,0,0-.473-.877,2.386,2.386,0,0,0-1.42-.35,5.965,5.965,0,0,0-1.624.216V9.053a.815.815,0,0,1-.183.587,1.031,1.031,0,0,1-.624.241m-.775-1.14a.549.549,0,0,0,.3-.044A.2.2,0,0,0,2.324,8.5V6.859a3.061,3.061,0,0,0-.785.656,1.123,1.123,0,0,0-.29.71.43.43,0,0,0,.182.376.921.921,0,0,0,.506.14M8.186,4.9a5.146,5.146,0,0,0-.7-.564q-.441-.307-.9-.581a5.561,5.561,0,0,0-.828-.414l.677-.968a6.8,6.8,0,0,1,.85.408q.463.258.9.549a6.426,6.426,0,0,1,.742.56q-.108.117-.264.323c-.1.136-.2.269-.29.4s-.152.226-.188.29" transform="translate(0 -0.405)" fill="#222"/>
    <path id="パス_8149" data-name="パス 8149" d="M17.626,4.116q-.205-.194-.452-.393a2.952,2.952,0,0,0-.56-.35,7.284,7.284,0,0,0,.915-.984,7.7,7.7,0,0,0,.752-1.173,5.636,5.636,0,0,0,.473-1.2L19.949.34a3.08,3.08,0,0,1-.107.328q-.065.168-.14.339h6.293v1H19.218a11.081,11.081,0,0,1-.742,1.146,6.872,6.872,0,0,1-.85.963m.064,5.937a4.872,4.872,0,0,0-.307-.554,2.718,2.718,0,0,0-.425-.543,7.977,7.977,0,0,0,1.512-.592,9.611,9.611,0,0,0,1.372-.85q-.431-.344-.856-.634a4.685,4.685,0,0,0-.8-.452l.775-.861a7.1,7.1,0,0,1,.9.506q.458.3.92.645a6.367,6.367,0,0,0,1.1-1.452H17.6V4.213h7.444c-.022.186-.04.418-.054.694s-.022.575-.022.9a6.909,6.909,0,0,0,.145,1.505,3.786,3.786,0,0,0,.4,1.087c.1-.216.192-.423.274-.624s.137-.348.167-.441a2.188,2.188,0,0,0,.274.172c.118.064.247.127.387.188a2.66,2.66,0,0,0,.371.135c-.036.115-.09.259-.161.435s-.149.359-.232.549-.163.364-.241.522a2.489,2.489,0,0,1-.215.366.716.716,0,0,1-.447.323.687.687,0,0,1-.489-.075,2.137,2.137,0,0,1-.769-.877,5.563,5.563,0,0,1-.506-1.507,9.967,9.967,0,0,1-.177-1.952V5.266H21.929l1.054.592a9.179,9.179,0,0,1-1.27,1.624q.41.367.77.731t.65.711q-.247.193-.516.446c-.179.168-.333.325-.462.468-.158-.209-.356-.445-.592-.711s-.5-.53-.786-.8a10.877,10.877,0,0,1-1.484,1,9.6,9.6,0,0,1-1.6.721m1.818-7.476h5.411v.979H19.508Z" transform="translate(-6.685 -0.007)" fill="#222"/>
    <path id="パス_8150" data-name="パス 8150" d="M36.722,9.929A10.748,10.748,0,0,1,36.6,8.847q-.043-.64-.059-1.4t0-1.565q.016-.807.064-1.576t.129-1.425a10.89,10.89,0,0,1,.189-1.119l1.259.258a6.7,6.7,0,0,0-.2,1.006q-.085.619-.139,1.355t-.07,1.511q-.017.775,0,1.506t.075,1.323a7.15,7.15,0,0,0,.14.957Zm4.571-.581q-1.861-.054-2.108-1.216a2.306,2.306,0,0,1-.043-.645A3.191,3.191,0,0,1,39.3,6.7l1.13.28a1.189,1.189,0,0,0-.081.366.828.828,0,0,0,.037.29q.141.387,1.141.42a9.528,9.528,0,0,0,1.038-.038c.369-.032.731-.081,1.086-.145a8.88,8.88,0,0,0,.931-.215c-.014.1-.031.237-.048.409s-.031.346-.038.522-.007.321,0,.436a9.207,9.207,0,0,1-1.08.2q-.576.075-1.13.1t-1,.016M39.68,4.1,39.6,2.775a9.107,9.107,0,0,0,1,.065c.394.007.8,0,1.231-.016s.836-.05,1.226-.1a6.7,6.7,0,0,0,.974-.177l-.054,1.3q-.429.075-1,.134c-.379.039-.773.07-1.177.091s-.792.034-1.162.038-.69,0-.962-.016" transform="translate(-14.702 -0.71)" fill="#222"/>
    <path id="パス_8151" data-name="パス 8151" d="M53.338,10.287a3.591,3.591,0,0,0-.371-.581,3.1,3.1,0,0,0-.479-.5A7.55,7.55,0,0,0,54.7,7.694a6.936,6.936,0,0,0,1.4-2,8.044,8.044,0,0,0,.672-2.344l.764.128q-.043-.365-.071-.742c-.018-.251-.023-.509-.016-.775h-2.5V.756H58.77a12.525,12.525,0,0,0,.183,3.453,6.845,6.845,0,0,0,1.265,2.8,8.365,8.365,0,0,0,2.641,2.184,3.654,3.654,0,0,0-.517.506,6.43,6.43,0,0,0-.463.592,10.463,10.463,0,0,1-2.506-2.27,8.58,8.58,0,0,1-1.571-3.2,8.442,8.442,0,0,1-.941,2.211,8.666,8.666,0,0,1-3.524,3.254" transform="translate(-21.121 -0.304)" fill="#222"/>
    <path id="パス_8152" data-name="パス 8152" d="M76.28,10.132a3.366,3.366,0,0,0-.43-.565,3.462,3.462,0,0,0-.537-.49,4.823,4.823,0,0,0,2.275-1.743,4.884,4.884,0,0,0,.8-2.84,2.161,2.161,0,0,0-.36-1.425,1.025,1.025,0,0,0-.866-.371,1.043,1.043,0,0,0-.743.446,2.782,2.782,0,0,0-.5,1.221,6.012,6.012,0,0,0,.005,1.946c-.1.008-.231.026-.393.054s-.315.061-.462.1a2.787,2.787,0,0,0-.328.1,9.526,9.526,0,0,1-.124-1q-.049-.6-.075-1.3t-.033-1.4q-.005-.7.016-1.291c.015-.394.036-.714.065-.958L75.9.73q-.053.258-.1.662t-.081.855q-.032.452-.043.871a2.9,2.9,0,0,1,.715-1.124,1.517,1.517,0,0,1,1.039-.457,2.079,2.079,0,0,1,1.173.317,2.227,2.227,0,0,1,.818.99,3.994,3.994,0,0,1,.3,1.651,6.059,6.059,0,0,1-.91,3.437,6.622,6.622,0,0,1-2.533,2.2" transform="translate(-29.982 -0.246)" fill="#222"/>
    <path id="パス_8153" data-name="パス 8153" d="M93.878,10.06a2.066,2.066,0,0,0-.161-.409,3.756,3.756,0,0,0-.274-.457,2.3,2.3,0,0,0-.307-.36,4.051,4.051,0,0,0,2.243-.963,2.489,2.489,0,0,0,.812-1.738,2.66,2.66,0,0,0-.291-1.42,2.8,2.8,0,0,0-2.172-1.473A15.2,15.2,0,0,1,93.4,5.284a10.763,10.763,0,0,1-.639,1.958,5.657,5.657,0,0,1-.985,1.549,1.625,1.625,0,0,1-.855.549,1.535,1.535,0,0,1-.877-.119,2.088,2.088,0,0,1-.8-.613,2.972,2.972,0,0,1-.528-1,3.477,3.477,0,0,1-.151-1.232,4.456,4.456,0,0,1,1.56-3.194,4.709,4.709,0,0,1,1.581-.893,5.066,5.066,0,0,1,1.9-.247,4.268,4.268,0,0,1,1.538.366,4.016,4.016,0,0,1,2.1,2.194A3.741,3.741,0,0,1,97.5,6.231,3.707,3.707,0,0,1,96.47,8.7a5,5,0,0,1-2.592,1.361m-3.5-2.173a.413.413,0,0,0,.247.086.375.375,0,0,0,.258-.129,3.8,3.8,0,0,0,.715-1.1,8.956,8.956,0,0,0,.548-1.6,10.653,10.653,0,0,0,.286-1.818A3.344,3.344,0,0,0,90.21,5.042a3.411,3.411,0,0,0-.376,1.4,2.019,2.019,0,0,0,.134.877,1.322,1.322,0,0,0,.414.565" transform="translate(-35.64 -0.82)" fill="#222"/>
    <path id="パス_8154" data-name="パス 8154" d="M110.931,9.678V5.02q-.818.559-1.673,1.038a18.676,18.676,0,0,1-1.673.834,3.771,3.771,0,0,0-.237-.376q-.151-.215-.317-.42a1.838,1.838,0,0,0-.328-.323A14.1,14.1,0,0,0,108.64,4.9a18.771,18.771,0,0,0,1.931-1.194,16.216,16.216,0,0,0,1.7-1.377A8.608,8.608,0,0,0,113.535.9l1.119.764a11.055,11.055,0,0,1-1.071,1.21,17.158,17.158,0,0,1-1.307,1.156V9.678Z" transform="translate(-42.937 -0.362)" fill="#222"/>
    <path id="パス_8155" data-name="パス 8155" d="M126.633,5.127a3.862,3.862,0,0,0-.393-.355c-.169-.136-.355-.28-.56-.43s-.4-.289-.6-.414a3.88,3.88,0,0,0-.506-.285l.861-1.086c.143.079.311.179.5.3s.393.255.6.4.4.285.576.425a4.762,4.762,0,0,1,.43.371Zm-1.152,4.744-.731-1.323a8.323,8.323,0,0,0,1.609-.532,16.4,16.4,0,0,0,1.694-.871,17.2,17.2,0,0,0,1.614-1.076A15.51,15.51,0,0,0,131.048,4.9a8.258,8.258,0,0,0,1.006-1.129,3.714,3.714,0,0,0,.145.452c.068.179.142.353.221.522a4.09,4.09,0,0,0,.2.393,10.074,10.074,0,0,1-1.318,1.372,16.66,16.66,0,0,1-1.748,1.333,18.945,18.945,0,0,1-2,1.168,14.474,14.474,0,0,1-2.077.861" transform="translate(-50.129 -1.029)" fill="#222"/>
    <path id="パス_8156" data-name="パス 8156" d="M142.918,10.3a2.594,2.594,0,0,0-.226-.376c-.1-.143-.209-.281-.323-.414a2.89,2.89,0,0,0-.313-.318,4.649,4.649,0,0,0,2.125-1.415,3.98,3.98,0,0,0,.748-2.211l-1.63.022q-.78.012-1.328.027c-.366.011-.61.02-.732.027l-.064-1.259q.128.011.613.011t1.194-.005q.71-.005,1.544-.016l1.662-.021q.828-.012,1.544-.027t1.2-.032c.326-.01.533-.02.619-.027l.011,1.269h-1.592q-.614,0-1.334.011h-.365a5.313,5.313,0,0,1-.92,2.888,5.958,5.958,0,0,1-2.436,1.866m-.2-7.25-.075-1.269h.537q.409,0,.979-.011l1.194-.022q.624-.01,1.194-.027l.973-.027c.269-.007.443-.014.522-.022l.022,1.259q-.14-.012-.543-.006l-.957.016-1.162.022q-.607.011-1.167.027c-.373.011-.693.022-.962.032s-.454.02-.554.027" transform="translate(-56.807 -0.674)" fill="#222"/>
    <path id="パス_8157" data-name="パス 8157" d="M162.385,6.318c.008-.065.009-.224.006-.478s-.008-.565-.011-.931-.009-.749-.016-1.151-.017-.785-.027-1.151-.02-.675-.027-.93-.014-.414-.021-.479h1.333v.495q0,.376.005.91c0,.354.01.726.016,1.113s.017.762.027,1.124.021.675.032.936.02.44.027.532Zm.893,3.722a2.788,2.788,0,0,0-.221-.355c-.1-.136-.2-.273-.317-.408a2.969,2.969,0,0,0-.323-.334,6.444,6.444,0,0,0,1.828-1.107,4,4,0,0,0,1.076-1.576,6.231,6.231,0,0,0,.356-2.221V3.543c0-.158,0-.362-.006-.613s-.007-.51-.011-.775-.007-.506-.01-.721-.01-.37-.017-.463h1.388V4.038a7.8,7.8,0,0,1-.4,2.619A5.135,5.135,0,0,1,165.4,8.593a7.761,7.761,0,0,1-2.119,1.447" transform="translate(-65.304 -0.391)" fill="#222"/>
    <path id="パス_8158" data-name="パス 8158" d="M183.206,6.129a2.094,2.094,0,0,0-.274-.29c-.118-.108-.241-.211-.371-.312a2.587,2.587,0,0,0-.355-.237c.194-.151.405-.333.635-.549s.459-.448.688-.7.442-.5.635-.753q-.592.011-1.361.038t-1.581.059l-1.565.065c-.5.022-.947.039-1.334.054s-.674.029-.86.043l-.054-1.355c.237.014.562.024.974.027s.875,0,1.387,0,1.042-.011,1.587-.022,1.07-.025,1.575-.043.958-.041,1.356-.07.7-.057.908-.086l.85.656a9.443,9.443,0,0,1-.58.914q-.344.484-.737.963t-.785.893a9.251,9.251,0,0,1-.737.7m-4.152,4.292a4.176,4.176,0,0,0-.259-.328c-.107-.125-.222-.247-.344-.366a1.758,1.758,0,0,0-.355-.274,4.9,4.9,0,0,0,1.593-1.366,5.087,5.087,0,0,0,.839-1.829,8.14,8.14,0,0,0,.2-2.205h1.345a8.838,8.838,0,0,1-.737,3.77,6.255,6.255,0,0,1-2.285,2.6" transform="translate(-71.387 -0.804)" fill="#222"/>
    <path id="パス_8159" data-name="パス 8159" d="M201.716,10.063a4.8,4.8,0,0,1-1.979-.657,3.776,3.776,0,0,1-1.447-4.862,4.107,4.107,0,0,1,1.113-1.43q-.861.14-1.716.3t-1.549.3q-.694.14-1.07.236l-.29-1.387q.355-.022.984-.1t1.42-.189q.791-.113,1.636-.247t1.634-.274q.791-.139,1.42-.274t.984-.241l.345,1.312c-.115.008-.253.022-.415.044l-.543.075a3.2,3.2,0,0,0-1.129.366,3.666,3.666,0,0,0-.963.753,3.593,3.593,0,0,0-.672,1.054,3.285,3.285,0,0,0-.247,1.281,2.2,2.2,0,0,0,.42,1.377,2.755,2.755,0,0,0,1.146.855,6,6,0,0,0,1.63.415,2.24,2.24,0,0,0-.312.4,3.889,3.889,0,0,0-.258.485,1.973,1.973,0,0,0-.14.4m.9-4.121a4.83,4.83,0,0,0-.538-.721,6.07,6.07,0,0,0-.613-.613l.592-.473a3.5,3.5,0,0,1,.387.376q.226.247.446.5c.147.172.259.316.339.431Zm.968-.817a4.911,4.911,0,0,0-.543-.71,5.564,5.564,0,0,0-.619-.6l.581-.485a4.1,4.1,0,0,1,.393.377c.154.164.306.332.457.5a3.665,3.665,0,0,1,.344.435Z" transform="translate(-78.377 -0.5)" fill="#222"/>
    <path id="パス_8160" data-name="パス 8160" d="M217.9,9.984a13.709,13.709,0,0,1-1.92-.114,4.938,4.938,0,0,1-1.3-.344,2.845,2.845,0,0,1-.86-.576c-.13.1-.287.213-.473.339s-.377.249-.57.372-.366.225-.516.311l-.495-1.215q.183-.065.451-.183c.179-.079.357-.163.533-.253a3.277,3.277,0,0,0,.414-.242V5.358h-1.183V4.239h2.367V7.919a1.35,1.35,0,0,0,1.059.737,11.278,11.278,0,0,0,2.49.21q1.377,0,2.367-.044t1.6-.129a2.392,2.392,0,0,0-.118.361c-.044.161-.079.326-.108.494a4.106,4.106,0,0,0-.054.414c-.2,0-.463,0-.785.005l-1.027.011q-.544.005-1.038.005Zm-4.034-6.939a5.715,5.715,0,0,0-.483-.6q-.3-.333-.635-.65a5.355,5.355,0,0,0-.613-.512l.85-.8a5.171,5.171,0,0,1,.619.485c.232.207.457.425.672.65s.383.418.506.575a3.382,3.382,0,0,0-.291.237c-.122.108-.24.219-.355.333s-.2.209-.269.28M219.515,8.4a2.546,2.546,0,0,0-.059-.4c-.033-.146-.066-.284-.1-.414h-2.592V5.132h2.807V7.295h.237q.386,0,.387-.323V4.681h-4.034V8.36h-1.2V3.712h.806V.5h4.808V3.712h.807V7.359a.99.99,0,0,1-.291.79,1.39,1.39,0,0,1-.924.253Zm-2.624-4.69h.678V1.969h1.871V1.432h-2.549Zm.828,3.077h.9V5.929h-.9Zm.914-3.077h.807v-.86h-.807Z" transform="translate(-85.215 -0.195)" fill="#222"/>
    <path id="パス_8161" data-name="パス 8161" d="M235.206,9.052a4.81,4.81,0,0,1-1.285-.156,2.151,2.151,0,0,1-.968-.559,2.961,2.961,0,0,1-.662-1.146l1.14-.624a1.39,1.39,0,0,0,.571.85,2.133,2.133,0,0,0,1.2.29q.688,0,1.42-.065T238,7.46a6.975,6.975,0,0,0,1.065-.27c0,.115.009.266.027.452s.043.369.075.549.062.319.091.42a6.74,6.74,0,0,1-1.1.237q-.667.1-1.435.151t-1.522.054m-1.689-6.325-.011-1.3a4.383,4.383,0,0,0,.78.151c.312.036.649.058,1.011.065s.726,0,1.092-.016.7-.047,1.011-.086a4.351,4.351,0,0,0,.763-.156V2.694a3.962,3.962,0,0,1-.731.14q-.463.054-1.012.081t-1.107.016q-.559-.01-1.033-.065a4.614,4.614,0,0,1-.763-.14m6.088.237a4.75,4.75,0,0,0-.549-.71,8.069,8.069,0,0,0-.613-.613l.581-.473a4.08,4.08,0,0,1,.393.376c.154.166.307.332.457.5a3.665,3.665,0,0,1,.344.436Zm.958-.818a4.6,4.6,0,0,0-.549-.7,6.211,6.211,0,0,0-.624-.6l.591-.484a4.149,4.149,0,0,1,.393.371c.154.161.307.327.457.495a3.642,3.642,0,0,1,.344.436Z" transform="translate(-93.472 -0.145)" fill="#222"/>
    <path id="パス_8162" data-name="パス 8162" d="M251.322,10.088q-.13-.215-.344-.516a2.458,2.458,0,0,0-.5-.517,5.969,5.969,0,0,0,1.754-.748,2.283,2.283,0,0,0,.85-1.005,1.53,1.53,0,0,1-.689.172,1.863,1.863,0,0,1-1.318-.463,1.715,1.715,0,0,1-.532-1.247,1.785,1.785,0,0,1,.215-.963,1.748,1.748,0,0,1,.666-.672,1.936,1.936,0,0,1,.979-.247c.057,0,.107,0,.15.005s.09.009.14.016c-.014-.129-.028-.261-.042-.4a3.942,3.942,0,0,1-.022-.43q-.871.032-1.7.1t-1.516.145a10.315,10.315,0,0,0-1.141.188l-.183-1.248q.388-.032,1.087-.069t1.6-.081l1.856-.085V.5h1.248V1.967l1.6-.06q.764-.026,1.366-.042t.947-.006l-.087,1.259q-.623-.075-1.651-.092t-2.178.005c0,.259.008.52.026.786s.034.52.049.764a2.483,2.483,0,0,1,.527,1.656,3.585,3.585,0,0,1-.828,2.4,4.907,4.907,0,0,1-2.334,1.447m1.086-3.69a.686.686,0,0,0,.473-.2.659.659,0,0,0,.172-.473,1.482,1.482,0,0,0-.016-.209c-.011-.075-.023-.156-.038-.243a.724.724,0,0,0-.57-.258.7.7,0,0,0-.5.194.621.621,0,0,0-.194.495.713.713,0,0,0,.188.511.613.613,0,0,0,.49.188" transform="translate(-99.831 -0.203)" fill="#222"/>
    <path id="パス_8163" data-name="パス 8163" d="M268,14.432a5.546,5.546,0,0,0-.543-.742q-.339-.4-.71-.758a6.08,6.08,0,0,0-.7-.6l.818-.742a4.975,4.975,0,0,1,.538.414c.193.169.391.348.591.538s.386.375.555.554.307.337.414.473Z" transform="translate(-107.052 -4.665)" fill="#222"/>
    <path id="パス_8164" data-name="パス 8164" d="M282.9,9.918V6.046h-4.238V4.808H282.9V2.7h-1.71a9.613,9.613,0,0,1-1.441,1.786,2.432,2.432,0,0,0-.318-.3c-.133-.107-.265-.21-.4-.306a2.063,2.063,0,0,0-.339-.21,6.058,6.058,0,0,0,.732-.785,10.172,10.172,0,0,0,.661-.953,9.658,9.658,0,0,0,.538-1,7.1,7.1,0,0,0,.36-.93l1.312.387c-.065.18-.134.359-.209.538s-.154.359-.232.538h5.712V2.7h-3.281V4.808h4.174V6.046h-4.174V9.918Z" transform="translate(-112.129 0)" fill="#222"/>
    <path id="パス_8165" data-name="パス 8165" d="M297.67,9.871V5.762q-.195.141-.383.28c-.125.093-.252.179-.381.259-.115-.166-.253-.35-.415-.555a2.137,2.137,0,0,0-.446-.446,11.478,11.478,0,0,0,1.157-.823,11.046,11.046,0,0,0,1.113-1.022,6.989,6.989,0,0,0,.85-1.07l1.033.7a11.067,11.067,0,0,1-1.28,1.538V9.871Zm-.559-6.691a4.224,4.224,0,0,0-.36-.495,3.062,3.062,0,0,0-.468-.463,7.249,7.249,0,0,0,.709-.414,8.859,8.859,0,0,0,.759-.554q.371-.3.678-.6a4.244,4.244,0,0,0,.478-.532l.947.752a10.224,10.224,0,0,1-.823.839q-.467.43-.962.807a10.979,10.979,0,0,1-.957.656m2.646,6.831a5.264,5.264,0,0,0-.209-.555,2.418,2.418,0,0,0-.307-.543,7.785,7.785,0,0,0,1.275-.344A8.522,8.522,0,0,0,301.779,8c-.123-.128-.238-.264-.35-.4s-.217-.286-.317-.436a7.3,7.3,0,0,1-.565.587,5.69,5.69,0,0,1-.586.478,2.923,2.923,0,0,0-.4-.425,3.907,3.907,0,0,0-.452-.349A7.6,7.6,0,0,0,300.3,6.408a8.5,8.5,0,0,0,1.006-1.291c-.344.029-.657.052-.936.07s-.5.027-.668.027l-.2-1.108q.279,0,.677-.016l.861-.038q.118-.118.274-.28c.1-.107.213-.226.328-.354q-.269-.248-.619-.527c-.232-.187-.466-.365-.7-.533a4.754,4.754,0,0,0-.629-.393l.721-.871q.151.087.307.194l.327.226q.258-.344.538-.753t.462-.742l1.022.56c-.151.236-.335.5-.554.785s-.428.545-.629.775l.269.21c.085.068.168.134.247.2q.484-.57.93-1.146t.682-.942l1.033.6q-.281.366-.7.871t-.883,1.038q-.462.532-.892.974.42-.032.817-.07l.742-.07a4.586,4.586,0,0,0-.441-.409l.818-.71a5.855,5.855,0,0,1,.672.581q.361.354.684.725a6.867,6.867,0,0,1,.516.662,3.281,3.281,0,0,0-.3.21q-.189.146-.371.3c-.122.1-.215.182-.28.247-.064-.1-.139-.209-.226-.323s-.179-.237-.28-.366c-.279.05-.622.1-1.027.145s-.826.092-1.265.134c-.05.093-.1.185-.155.274s-.11.185-.167.286h2.42l.528.462a8.959,8.959,0,0,1-.71,1.07,7.137,7.137,0,0,1-.85.92,7.284,7.284,0,0,0,2.689.786,4.3,4.3,0,0,0-.339.6q-.156.333-.241.57a8.733,8.733,0,0,1-1.63-.436,6.892,6.892,0,0,1-1.457-.748,9.2,9.2,0,0,1-1.361.71,10.014,10.014,0,0,1-1.609.517m2.97-2.647q.247-.2.457-.414a2.666,2.666,0,0,0,.36-.446h-1.624a4.356,4.356,0,0,0,.807.86" transform="translate(-119.126 -0.007)" fill="#222"/>
    <path id="パス_8166" data-name="パス 8166" d="M320.678,10.06a2.07,2.07,0,0,0-.161-.409,3.609,3.609,0,0,0-.274-.457,2.3,2.3,0,0,0-.307-.36,4.047,4.047,0,0,0,2.243-.963,2.487,2.487,0,0,0,.812-1.738,2.654,2.654,0,0,0-.291-1.42,2.8,2.8,0,0,0-2.172-1.473,15.185,15.185,0,0,1-.323,2.044,10.717,10.717,0,0,1-.64,1.958,5.657,5.657,0,0,1-.984,1.549,1.63,1.63,0,0,1-.855.549,1.537,1.537,0,0,1-.877-.119,2.088,2.088,0,0,1-.8-.613,2.97,2.97,0,0,1-.527-1,3.448,3.448,0,0,1-.151-1.232,4.45,4.45,0,0,1,1.56-3.194,4.706,4.706,0,0,1,1.581-.893,5.068,5.068,0,0,1,1.9-.247,4.272,4.272,0,0,1,1.538.366,4.018,4.018,0,0,1,2.1,2.194,3.724,3.724,0,0,1,.242,1.624A3.707,3.707,0,0,1,323.27,8.7a5.007,5.007,0,0,1-2.592,1.361m-3.5-2.173a.415.415,0,0,0,.247.086.374.374,0,0,0,.258-.129,3.8,3.8,0,0,0,.715-1.1,8.916,8.916,0,0,0,.549-1.6,10.654,10.654,0,0,0,.285-1.818,3.341,3.341,0,0,0-2.227,1.716,3.42,3.42,0,0,0-.376,1.4,2.027,2.027,0,0,0,.134.877,1.327,1.327,0,0,0,.414.565" transform="translate(-126.902 -0.82)" fill="#222"/>
    <path id="パス_8167" data-name="パス 8167" d="M337.125,9.966a2.789,2.789,0,0,1-2.071-.742,2.864,2.864,0,0,1-.736-2.108,5.206,5.206,0,0,1,.42-2.012,11.433,11.433,0,0,1,1.022-1.925,7.821,7.821,0,0,1-1.043.365,7.19,7.19,0,0,1-.915.194l-.279-1.173a6.7,6.7,0,0,0,.887-.14,9.089,9.089,0,0,0,.968-.269,6.249,6.249,0,0,0,.856-.355,1.62,1.62,0,0,0,.537-.4l1.043.828a9.9,9.9,0,0,0-1.172,1.544,8.137,8.137,0,0,0-.785,1.651,5,5,0,0,0-.28,1.6,1.6,1.6,0,0,0,.415,1.21,1.58,1.58,0,0,0,1.134.393,1.85,1.85,0,0,0,1.173-.377,2.513,2.513,0,0,0,.763-1.043,5.115,5.115,0,0,0,.355-1.55,8.917,8.917,0,0,0-.054-1.893,11.2,11.2,0,0,0-.473-2.065l1.269-.409a4.46,4.46,0,0,0,.63,1.506,5.909,5.909,0,0,0,1,1.173,7.592,7.592,0,0,0,1.037.8,1.867,1.867,0,0,0-.285.317,3.909,3.909,0,0,0-.264.414,2.419,2.419,0,0,0-.172.376,5.2,5.2,0,0,1-.78-.64,7.6,7.6,0,0,1-.823-.962,9.138,9.138,0,0,1-.022,2.269,5.288,5.288,0,0,1-.57,1.807,2.985,2.985,0,0,1-2.786,1.614" transform="translate(-134.206 -0.522)" fill="#222"/>
    <path id="パス_8168" data-name="パス 8168" d="M359.438,9.489a19.6,19.6,0,0,1-1.969.237,10.427,10.427,0,0,1-1.786-.022,5.061,5.061,0,0,1-1.452-.35,2.308,2.308,0,0,1-.973-.731,1.9,1.9,0,0,1-.349-1.167,2.147,2.147,0,0,1,.65-1.576,5.551,5.551,0,0,1,1.749-1.125,6.892,6.892,0,0,1-.3-1.113,10.9,10.9,0,0,1-.167-1.42q-.042-.77-.01-1.576h1.388a8.952,8.952,0,0,0-.044,1.275q.022.683.1,1.306A7.5,7.5,0,0,0,356.49,4.3q.539-.171,1.135-.333t1.221-.323l.258,1.345a12.682,12.682,0,0,0-1.819.338,9.661,9.661,0,0,0-1.559.549,4,4,0,0,0-1.092.7,1.108,1.108,0,0,0-.4.8.818.818,0,0,0,.43.721,2.893,2.893,0,0,0,1.184.36,8.061,8.061,0,0,0,1.727,0,13.145,13.145,0,0,0,2.06-.371,2.762,2.762,0,0,0-.157.689,4.79,4.79,0,0,0-.037.709" transform="translate(-142.007 -0.261)" fill="#222"/>
    <path id="パス_8169" data-name="パス 8169" d="M375.637,9.489a19.608,19.608,0,0,1-1.969.237,10.425,10.425,0,0,1-1.786-.022,5.051,5.051,0,0,1-1.452-.35,2.3,2.3,0,0,1-.974-.731,1.9,1.9,0,0,1-.35-1.167,2.145,2.145,0,0,1,.651-1.576,5.541,5.541,0,0,1,1.748-1.125,6.9,6.9,0,0,1-.3-1.113,10.889,10.889,0,0,1-.167-1.42q-.042-.77-.01-1.576h1.388a9.042,9.042,0,0,0-.043,1.275q.021.683.1,1.306a7.434,7.434,0,0,0,.21,1.076q.538-.171,1.135-.333t1.221-.323l.258,1.345a12.672,12.672,0,0,0-1.818.338,9.646,9.646,0,0,0-1.559.549,4.016,4.016,0,0,0-1.092.7,1.107,1.107,0,0,0-.4.8.816.816,0,0,0,.43.721,2.888,2.888,0,0,0,1.183.36,8.061,8.061,0,0,0,1.726,0,13.134,13.134,0,0,0,2.06-.371,2.759,2.759,0,0,0-.157.689,4.786,4.786,0,0,0-.037.709" transform="translate(-148.526 -0.261)" fill="#222"/>
    <path id="パス_8170" data-name="パス 8170" d="M390.684,9.945a9.878,9.878,0,0,1-2.3-.124,3.008,3.008,0,0,1-1.532-.7,1.834,1.834,0,0,1-.543-1.4,1.524,1.524,0,0,1,.28-.908,2.069,2.069,0,0,1,.764-.64,3.446,3.446,0,0,1,1.113-.333,5.093,5.093,0,0,1,1.329,0c-.115-.151-.226-.309-.333-.473s-.212-.334-.312-.506q-1.011.173-1.974.274a13.938,13.938,0,0,1-1.652.092l-.247-1.141a11.9,11.9,0,0,0,1.484-.059q.882-.081,1.818-.231-.226-.463-.409-.914-.646.086-1.254.139t-1.059.065l-.247-1.119c.294.007.629,0,1.006-.027s.762-.063,1.156-.114a8,8,0,0,1-.323-1.2l1.269-.151a6.011,6.011,0,0,0,.28,1.173c.4-.072.783-.152,1.146-.243a7.684,7.684,0,0,0,.908-.274l.323,1.1a7.307,7.307,0,0,1-.871.247q-.515.119-1.107.226c.057.143.12.289.188.436s.138.292.21.435q.785-.16,1.436-.35a5.9,5.9,0,0,0,1.027-.381l.42,1.065a6.99,6.99,0,0,1-.995.376q-.6.183-1.3.333a10.486,10.486,0,0,0,.726,1.039,5.139,5.139,0,0,0,.78.8l-.8.85a3.791,3.791,0,0,0-1.221-.446,3.6,3.6,0,0,0-1.114-.027,1.878,1.878,0,0,0-.812.291.622.622,0,0,0-.307.516.8.8,0,0,0,.457.742,3.1,3.1,0,0,0,1.242.3,13.33,13.33,0,0,0,1.775-.011,2.011,2.011,0,0,0-.2.4c-.061.162-.113.321-.156.479a2.083,2.083,0,0,0-.075.4" transform="translate(-155.03 -0.189)" fill="#222"/>
    <path id="パス_8171" data-name="パス 8171" d="M402.917,14.276a1.509,1.509,0,0,1-.785-.21,1.608,1.608,0,0,1-.57-.57,1.608,1.608,0,0,1-.005-1.6,1.572,1.572,0,0,1,1.361-.775,1.535,1.535,0,0,1,.8.215,1.608,1.608,0,0,1,.57.57,1.517,1.517,0,0,1,.21.785,1.534,1.534,0,0,1-.215.8,1.6,1.6,0,0,1-.576.57,1.539,1.539,0,0,1-.791.21m0-.6a.944.944,0,0,0,.694-.285.932.932,0,0,0,.285-.683.948.948,0,0,0-.285-.688.967.967,0,0,0-1.377-.006.944.944,0,0,0-.285.694.973.973,0,0,0,.968.968" transform="translate(-161.498 -4.476)" fill="#222"/>
    <g id="グループ_750" data-name="グループ 750" transform="translate(0 -10)">
      <path id="パス_8172" data-name="パス 8172" d="M6.2,55.907a9.879,9.879,0,0,1-2.3-.124,3.008,3.008,0,0,1-1.532-.7,1.834,1.834,0,0,1-.543-1.4,1.523,1.523,0,0,1,.28-.908,2.069,2.069,0,0,1,.764-.64A3.446,3.446,0,0,1,3.982,51.8a5.092,5.092,0,0,1,1.328,0c-.115-.151-.226-.309-.333-.473s-.212-.334-.312-.506q-1.011.173-1.974.274a13.939,13.939,0,0,1-1.652.092L.793,50.044a11.9,11.9,0,0,0,1.484-.059Q3.16,49.9,4.1,49.754q-.226-.463-.409-.914-.646.086-1.254.139t-1.059.065l-.247-1.119c.294.007.629,0,1.006-.027s.762-.063,1.156-.114a8,8,0,0,1-.323-1.2l1.269-.151a6.01,6.01,0,0,0,.28,1.173c.4-.072.783-.152,1.146-.243a7.686,7.686,0,0,0,.908-.274l.323,1.1a7.308,7.308,0,0,1-.871.247q-.515.119-1.107.226c.057.143.12.289.188.436s.138.292.21.435q.785-.16,1.436-.35A5.906,5.906,0,0,0,7.774,48.8l.42,1.065a6.99,6.99,0,0,1-1,.376q-.6.183-1.3.333a10.494,10.494,0,0,0,.726,1.039,5.141,5.141,0,0,0,.78.8l-.8.85a3.79,3.79,0,0,0-1.221-.446,3.6,3.6,0,0,0-1.114-.027,1.877,1.877,0,0,0-.812.291.622.622,0,0,0-.307.516.8.8,0,0,0,.457.742,3.1,3.1,0,0,0,1.242.3,13.33,13.33,0,0,0,1.775-.011,2.013,2.013,0,0,0-.2.4c-.061.162-.113.321-.156.479a2.085,2.085,0,0,0-.075.4" transform="translate(-0.319 -18.683)" fill="#222"/>
      <path id="パス_8173" data-name="パス 8173" d="M20.3,57.65a4.736,4.736,0,0,0-.215-.575,2.762,2.762,0,0,0-.29-.522,7.354,7.354,0,0,0,2.5-.538,1.238,1.238,0,0,0,.866-1.183q-.032-1.108-1.624-1.043a6.3,6.3,0,0,0-.866.1q-.5.086-1.032.215t-1.012.269a7.792,7.792,0,0,0-.791.269,1.846,1.846,0,0,0-.07-.177q-.07-.167-.156-.387l-.151-.387a.664.664,0,0,0-.075-.167q.323-.065.861-.177T19.4,53.11q.613-.118,1.178-.209a7.409,7.409,0,0,1,.93-.1,3.028,3.028,0,0,1,2.065.5,1.946,1.946,0,0,1,.721,1.49,2.038,2.038,0,0,1-.463,1.452,3.28,3.28,0,0,1-1.4.914,10.062,10.062,0,0,1-2.125.495" transform="translate(-6.997 -21.244)" fill="#222"/>
      <path id="パス_8174" data-name="パス 8174" d="M40.837,55.451a19.61,19.61,0,0,1-1.969.237,10.425,10.425,0,0,1-1.786-.022,5.05,5.05,0,0,1-1.452-.35,2.3,2.3,0,0,1-.974-.731,1.9,1.9,0,0,1-.35-1.167,2.145,2.145,0,0,1,.651-1.576,5.541,5.541,0,0,1,1.748-1.125,6.9,6.9,0,0,1-.3-1.113,10.9,10.9,0,0,1-.167-1.42q-.042-.77-.01-1.576h1.388a9.044,9.044,0,0,0-.043,1.275q.021.683.1,1.306a7.419,7.419,0,0,0,.21,1.076q.538-.171,1.135-.333t1.221-.323l.258,1.345a12.673,12.673,0,0,0-1.818.338,9.647,9.647,0,0,0-1.559.549,4.017,4.017,0,0,0-1.092.7,1.107,1.107,0,0,0-.4.8.816.816,0,0,0,.43.721,2.887,2.887,0,0,0,1.183.36,8.061,8.061,0,0,0,1.726,0,13.135,13.135,0,0,0,2.06-.371,2.761,2.761,0,0,0-.157.689,4.783,4.783,0,0,0-.037.709" transform="translate(-13.805 -18.755)" fill="#222"/>
      <path id="パス_8175" data-name="パス 8175" d="M52,60.394a5.55,5.55,0,0,0-.543-.742q-.339-.4-.71-.758a6.076,6.076,0,0,0-.7-.6l.818-.742a4.972,4.972,0,0,1,.538.414c.193.169.391.348.591.538s.386.375.555.554.307.337.414.473Z" transform="translate(-20.136 -23.159)" fill="#222"/>
      <path id="パス_8176" data-name="パス 8176" d="M70.635,56a9.013,9.013,0,0,1-2.458-1.1A5.436,5.436,0,0,1,66.4,53.04,4.532,4.532,0,0,1,64.81,54.88a8.078,8.078,0,0,1-2.684,1.108c-.065-.143-.158-.322-.28-.532a2.763,2.763,0,0,0-.376-.522,7.439,7.439,0,0,0,2.415-.855,3.4,3.4,0,0,0,1.393-1.511H61.534V51.459H65.6q.022-.161.032-.339t.011-.36q-1.259.1-2.463.1-.043-.215-.145-.559a2.9,2.9,0,0,0-.221-.559q.592.022,1.345,0t1.56-.086q.807-.065,1.544-.183a9.64,9.64,0,0,0,1.3-.29q-.075-.247-.177-.516t-.2-.473H67.6q-.226.366-.468.683a5.5,5.5,0,0,1-.479.554,4.015,4.015,0,0,0-.468-.333,2.436,2.436,0,0,0-.543-.269,2.7,2.7,0,0,0,.274-.3l.274-.339H64.955q.118.258.215.532t.151.479a2.827,2.827,0,0,0-.635.086q-.366.086-.581.151-.065-.269-.172-.613t-.226-.635h-.333a6.969,6.969,0,0,1-1,1.248,3.624,3.624,0,0,0-.511-.328,2.522,2.522,0,0,0-.553-.231,4.231,4.231,0,0,0,.548-.6q.28-.366.538-.78a8.3,8.3,0,0,0,.446-.807,5.032,5.032,0,0,0,.274-.672l1.216.269q-.075.2-.161.425a3.68,3.68,0,0,1-.2.436H66.31v.861a7.723,7.723,0,0,0,.586-1.033,5.859,5.859,0,0,0,.36-.936l1.226.258c-.043.136-.091.277-.145.42a4.479,4.479,0,0,1-.188.43h3v1.043H69.505q.118.269.231.549t.167.463q-.183.043-.436.113T69,49.458l.581.678q-.57.161-1.259.29t-1.42.215c-.015.287-.036.559-.065.818H71.2v1.108H67.386a4.709,4.709,0,0,0,1.086,1.043,6.716,6.716,0,0,0,1.4.748,8.163,8.163,0,0,0,1.517.436,2.409,2.409,0,0,0-.29.366c-.1.151-.192.3-.274.452a3.678,3.678,0,0,0-.188.387" transform="translate(-24.67 -18.517)" fill="#222"/>
      <path id="パス_8177" data-name="パス 8177" d="M80.006,55.934a4.342,4.342,0,0,0-.543-.269,4.792,4.792,0,0,0-.532-.194,6.452,6.452,0,0,0,.549-1.71,13.032,13.032,0,0,0,.172-2.291q0-.57-.016-1.113t-.038-.823h.829q-.055-.248-.146-.576a4.77,4.77,0,0,0-.177-.533l1.1-.194q.085.247.188.63t.177.672h.549q.1-.281.215-.672a5.737,5.737,0,0,0,.161-.641l1.086.194c-.043.151-.1.331-.167.543s-.138.4-.21.576h.979v.978H83.147l.473.538a8.259,8.259,0,0,1-1.081.8q-.619.387-1.167.666-.108-.194-.291-.457a2.5,2.5,0,0,0-.323-.393,16.786,16.786,0,0,1-.167,2.329,6.721,6.721,0,0,1-.586,1.942m4.335.118a3.746,3.746,0,0,0-.344-.43,4.418,4.418,0,0,0-.42-.408,4.564,4.564,0,0,0,.678-.388,6.682,6.682,0,0,0,.7-.543,5.2,5.2,0,0,0,.549-.554h-1v-5.5H85.75q.065-.171.13-.376t.107-.376h-1.85v.656H79.393v-.979H81.2V46.124h1.226v1.032H84.05v-.7h5.056v1.022H87.245q-.054.173-.118.371T87,48.232h1.71v5.5H87.589a5.145,5.145,0,0,0,.559.538,6.79,6.79,0,0,0,.694.51,6.239,6.239,0,0,0,.672.382,2.79,2.79,0,0,0-.409.435q-.2.264-.333.457a8.194,8.194,0,0,1-2.055-1.743l.732-.581h-1.8l.753.581a6.717,6.717,0,0,1-.963.963,8.1,8.1,0,0,1-1.1.78m-3.109-.108a4.6,4.6,0,0,0-.28-.468,2.205,2.205,0,0,0-.312-.392,7.69,7.69,0,0,0,1.033-.452A12.556,12.556,0,0,0,82.759,54a5.733,5.733,0,0,0,.861-.667l.688.721a8.1,8.1,0,0,1-.941.759,10.2,10.2,0,0,1-1.086.661,8.875,8.875,0,0,1-1.049.473m.1-1.764a2.877,2.877,0,0,0-.269-.457,3.028,3.028,0,0,0-.312-.393,7.192,7.192,0,0,0,.844-.387,10.687,10.687,0,0,0,.92-.549,6.791,6.791,0,0,0,.774-.592l.7.688a7.612,7.612,0,0,1-.8.624q-.453.313-.936.586t-.925.479m-.57-2.527a7.179,7.179,0,0,0,.656-.3q.355-.183.71-.4a7.462,7.462,0,0,0,.635-.436h-2Zm4.927-1.829h1.85V49.2h-1.85Zm0,1.453h1.85v-.624h-1.85Zm0,1.484h1.85V52.1h-1.85Z" transform="translate(-31.761 -18.56)" fill="#222"/>
      <path id="パス_8178" data-name="パス 8178" d="M103.6,56.022a2.072,2.072,0,0,0-.161-.409,3.611,3.611,0,0,0-.274-.457,2.3,2.3,0,0,0-.307-.36,4.047,4.047,0,0,0,2.243-.963,2.487,2.487,0,0,0,.812-1.738,2.654,2.654,0,0,0-.291-1.42,2.8,2.8,0,0,0-2.172-1.473,15.2,15.2,0,0,1-.323,2.044,10.718,10.718,0,0,1-.64,1.958,5.656,5.656,0,0,1-.984,1.549,1.63,1.63,0,0,1-.855.549,1.537,1.537,0,0,1-.877-.119,2.088,2.088,0,0,1-.8-.613,2.971,2.971,0,0,1-.527-1,3.45,3.45,0,0,1-.151-1.232,4.45,4.45,0,0,1,1.56-3.194,4.706,4.706,0,0,1,1.581-.893,5.068,5.068,0,0,1,1.9-.247,4.272,4.272,0,0,1,1.538.366,4.018,4.018,0,0,1,2.1,2.194,4.025,4.025,0,0,1-.791,4.092,5.007,5.007,0,0,1-2.592,1.361m-3.5-2.173a.415.415,0,0,0,.247.086.374.374,0,0,0,.258-.129,3.8,3.8,0,0,0,.715-1.1,8.909,8.909,0,0,0,.549-1.6,10.653,10.653,0,0,0,.285-1.818A3.341,3.341,0,0,0,99.93,51a3.42,3.42,0,0,0-.376,1.4,2.028,2.028,0,0,0,.134.877,1.327,1.327,0,0,0,.414.565" transform="translate(-39.551 -19.315)" fill="#222"/>
      <path id="パス_8179" data-name="パス 8179" d="M121.624,55.942a3.087,3.087,0,0,0-.182-.549,2.128,2.128,0,0,0-.323-.549,3.684,3.684,0,0,0,2.022-.79,1.952,1.952,0,0,0,.668-1.5,1.582,1.582,0,0,0-.264-.92,1.761,1.761,0,0,0-.736-.6,11,11,0,0,1-1.883,2.572c.044.136.088.267.134.392s.1.249.145.371a2.352,2.352,0,0,0-.387.14c-.144.064-.284.131-.42.2a2.417,2.417,0,0,0-.323.188c-.028-.071-.057-.145-.086-.22s-.057-.149-.086-.221a4.343,4.343,0,0,1-1.15.576,2.445,2.445,0,0,1-1.087.1,1.192,1.192,0,0,1-.672-.382,1.418,1.418,0,0,1-.317-1.017,3.184,3.184,0,0,1,.344-1.463,4.116,4.116,0,0,1,.941-1.211,4.889,4.889,0,0,1,1.361-.855c0-.216,0-.428.016-.641s.02-.421.027-.629c-.43.028-.83.047-1.2.053a6.864,6.864,0,0,1-.92-.032l-.1-1.162q.42.044,1.022.054c.4.008.832,0,1.291-.032.036-.258.07-.506.1-.743s.07-.458.113-.666l1.194.226q-.108.495-.194,1.086.8-.085,1.522-.225a9.506,9.506,0,0,0,1.232-.312l.107,1.129a12.027,12.027,0,0,1-1.334.3q-.8.14-1.657.226-.022.247-.032.506t-.022.516a5.129,5.129,0,0,1,1-.1c.108,0,.213,0,.318.011s.206.018.306.032q.086-.2.161-.415t.14-.425l1.173.323q-.075.205-.151.4t-.161.388a3.036,3.036,0,0,1,1.339.974,2.415,2.415,0,0,1,.489,1.511,3.073,3.073,0,0,1-.425,1.619,3.269,3.269,0,0,1-1.2,1.151,5.276,5.276,0,0,1-1.856.607M118.483,53.9a2.033,2.033,0,0,0,.5-.215,4.22,4.22,0,0,0,.6-.42q-.085-.452-.145-.936t-.081-.979a3.353,3.353,0,0,0-1.07.957,2.039,2.039,0,0,0-.4,1.194c0,.223.053.357.161.4a.679.679,0,0,0,.441-.005m2.151-1.656q.258-.313.516-.678a8.376,8.376,0,0,0,.485-.775h-.14a4.655,4.655,0,0,0-.5.027,4.119,4.119,0,0,0-.485.081q.032.678.129,1.345" transform="translate(-46.949 -18.676)" fill="#222"/>
      <path id="パス_8180" data-name="パス 8180" d="M135.151,54.024a3.539,3.539,0,0,0-.495-.344,3.411,3.411,0,0,0-.592-.29,8.824,8.824,0,0,0,1.195-1.791,13.39,13.39,0,0,0,.871-2.135q-.538.075-1,.129t-.742.075l-.161-1.194q.376,0,.974-.054t1.253-.151q.118-.506.183-1t.085-.952l1.194.172q-.085.807-.226,1.571c.252-.05.494-.1.727-.156s.443-.106.629-.156l.162,1.129q-.334.1-.8.194c-.313.065-.644.125-1,.183a14.694,14.694,0,0,1-.947,2.56,14.143,14.143,0,0,1-1.312,2.205m2.968,1.882a1.905,1.905,0,0,1-1.3-.516,1.533,1.533,0,0,1-.463-1.151,1.339,1.339,0,0,1,.555-1.065,2.267,2.267,0,0,1,1.522-.4c.1.007.2.013.3.016a2.631,2.631,0,0,1,.291.027V50.377h1.226V53.11a6.219,6.219,0,0,1,1.167.527,9.174,9.174,0,0,1,1.071.731,2.719,2.719,0,0,0-.415.495,3.507,3.507,0,0,0-.327.57,8.722,8.722,0,0,0-.721-.586,5.416,5.416,0,0,0-.785-.479q-.107,1.635-2.119,1.538m.1-1.076a.856.856,0,0,0,.608-.188.89.89,0,0,0,.2-.662v-.075a4.311,4.311,0,0,0-.689-.1,1.091,1.091,0,0,0-.586.118.429.429,0,0,0-.231.366.452.452,0,0,0,.172.387.811.811,0,0,0,.527.151m3.766-4.238a4.089,4.089,0,0,0-.462-.409c-.195-.151-.4-.3-.624-.452s-.443-.287-.662-.409a3.718,3.718,0,0,0-.575-.269l.635-.947q.259.108.6.285t.7.4q.355.221.656.436a4.743,4.743,0,0,1,.495.4Z" transform="translate(-53.946 -18.64)" fill="#222"/>
      <path id="パス_8181" data-name="パス 8181" d="M152.811,55.861a4.061,4.061,0,0,0-.613-.307,4.146,4.146,0,0,0-.657-.221,7.5,7.5,0,0,0,.581-1.017q.3-.619.6-1.377t.581-1.581q.281-.823.506-1.619-.614.054-1.157.075c-.362.014-.661.014-.9,0l-.118-1.291a10.312,10.312,0,0,0,1.113.032q.672-.011,1.393-.075.141-.559.221-1.033a7.792,7.792,0,0,0,.1-.84l1.345.183c-.028.208-.072.439-.128.694s-.123.529-.194.823c.295-.05.57-.106.828-.167a5.992,5.992,0,0,0,.657-.189l.193,1.205q-.334.108-.865.221t-1.157.2q-.236.849-.527,1.748t-.6,1.748q-.313.85-.619,1.565t-.586,1.221m7.293-.452a8.777,8.777,0,0,1-2.189.086,5.967,5.967,0,0,1-1.785-.42,2.768,2.768,0,0,1-1.135-.806l.656-.968a2.722,2.722,0,0,0,1.06.629,5.462,5.462,0,0,0,1.6.28,8.955,8.955,0,0,0,2.006-.167,3.017,3.017,0,0,0-.167.678,3.954,3.954,0,0,0-.048.688m-.323-3.808a6.855,6.855,0,0,0-.817-.21q-.463-.091-.974-.145c-.34-.036-.674-.059-1-.07s-.622-.01-.887.005l.161-1.259a8.829,8.829,0,0,1,.91.006q.521.026,1.086.081t1.076.134c.341.053.633.109.877.167Z" transform="translate(-60.979 -18.755)" fill="#222"/>
      <path id="パス_8182" data-name="パス 8182" d="M169.872,55.805a2.137,2.137,0,0,0-.3-.237q-.2-.14-.419-.258a1.847,1.847,0,0,0-.366-.161,7.123,7.123,0,0,0,.871-1.178,15.243,15.243,0,0,0,.8-1.511,16.978,16.978,0,0,0,.667-1.679q-.549.065-1.06.151c-.341.057-.622.115-.844.172q-.011-.139-.054-.376c-.029-.158-.062-.314-.1-.468a1.646,1.646,0,0,0-.108-.339l.645-.059.882-.086q.484-.048.968-.081.194-.678.317-1.328a10.9,10.9,0,0,0,.166-1.21l1.269.226q-.053.495-.172,1.06t-.29,1.156q.215-.011.387-.016c.115,0,.216-.005.3-.005a2.071,2.071,0,0,1,.769.134,1.1,1.1,0,0,1,.543.473,2.03,2.03,0,0,1,.237.936,6.669,6.669,0,0,1-.14,1.522,9.227,9.227,0,0,1-.49,1.818,1.974,1.974,0,0,1-.682.925,1.868,1.868,0,0,1-1.043.269,2.543,2.543,0,0,1-1.129-.237c.007-.172.007-.379,0-.624a3.273,3.273,0,0,0-.065-.6,2.6,2.6,0,0,0,1.054.237.708.708,0,0,0,.446-.145,1.38,1.38,0,0,0,.361-.581,8.158,8.158,0,0,0,.344-1.285,4.524,4.524,0,0,0,.129-1.167.649.649,0,0,0-.2-.5.743.743,0,0,0-.431-.118q-.3,0-.72.032-.334,1-.758,1.969t-.882,1.791a10.414,10.414,0,0,1-.9,1.382m7.841-2.8a7.491,7.491,0,0,0-.473-.688q-.3-.4-.656-.8t-.689-.742a4.331,4.331,0,0,0-.58-.511l.947-.8a6.95,6.95,0,0,1,.6.522q.343.328.71.715t.678.764a6.126,6.126,0,0,1,.484.656Zm-.247-3.4a4.927,4.927,0,0,0-.7-.549,6.069,6.069,0,0,0-.748-.43l.452-.6a4.99,4.99,0,0,1,.468.263q.285.178.565.366a4.7,4.7,0,0,1,.441.328Zm.731-1.033a5.217,5.217,0,0,0-.715-.543,5.4,5.4,0,0,0-.748-.415l.452-.613c.122.057.277.143.468.258s.38.235.57.36a4.5,4.5,0,0,1,.446.328Z" transform="translate(-67.918 -18.915)" fill="#222"/>
      <path id="パス_8183" data-name="パス 8183" d="M194.265,55.929a5.326,5.326,0,0,1-1.985-.242,2.939,2.939,0,0,1-1.355-.888,2.184,2.184,0,0,1-.489-1.441,2.271,2.271,0,0,1,.226-1.011,2.771,2.771,0,0,1,.624-.828q-.721.151-1.409.323t-1.242.344a6.576,6.576,0,0,0-.887.334l-.473-1.205q.129-.021.387-.075t.71-.151a2.554,2.554,0,0,0,.9-.43,9,9,0,0,0,1.006-.823,11.978,11.978,0,0,0,.952-1,9.432,9.432,0,0,0,.731-.974q-.42.1-.909.194t-.936.161q-.446.065-.748.085l-.376-1.193q.4,0,.936-.048t1.086-.124q.549-.075,1.011-.183a4.786,4.786,0,0,0,.721-.215l1.076.688a7.737,7.737,0,0,1-.645,1.055,11.369,11.369,0,0,1-.974,1.183,10.092,10.092,0,0,1-1.21,1.1q.85-.172,1.673-.345l1.463-.306q.64-.134.941-.189l.2,1.248q-.2,0-.495.021t-.635.075a3.509,3.509,0,0,0-1.167.35,2.389,2.389,0,0,0-.882.748,1.906,1.906,0,0,0-.339,1.14.988.988,0,0,0,.376.8,2.246,2.246,0,0,0,1.043.436,5.9,5.9,0,0,0,1.517.059,2.615,2.615,0,0,0-.29.667,3.354,3.354,0,0,0-.14.667" transform="translate(-75.357 -18.727)" fill="#222"/>
      <path id="パス_8184" data-name="パス 8184" d="M208.206,55.7a4.81,4.81,0,0,1-1.285-.156,2.133,2.133,0,0,1-.968-.564,3.024,3.024,0,0,1-.662-1.14l1.14-.624a1.392,1.392,0,0,0,.571.85,2.137,2.137,0,0,0,1.2.29q.688,0,1.42-.064T211,54.109a6.981,6.981,0,0,0,1.065-.269c0,.114.009.265.027.452s.043.369.075.549.062.319.091.42a6.731,6.731,0,0,1-1.1.236q-.667.1-1.435.151t-1.522.054m-1.689-6.325-.011-1.3a4.279,4.279,0,0,0,.78.151q.468.055,1.011.065c.362.007.725,0,1.092-.017s.7-.047,1.011-.085a4.4,4.4,0,0,0,.763-.157v1.312a4.005,4.005,0,0,1-.731.14c-.308.035-.645.063-1.012.08s-.734.023-1.107.017-.717-.029-1.033-.065a4.49,4.49,0,0,1-.763-.14" transform="translate(-82.607 -19.327)" fill="#222"/>
      <path id="パス_8185" data-name="パス 8185" d="M222.122,55.891A10.743,10.743,0,0,1,222,54.809q-.043-.64-.059-1.4t0-1.565q.016-.807.064-1.576t.129-1.425a10.884,10.884,0,0,1,.189-1.119l1.259.258a6.706,6.706,0,0,0-.2,1.006q-.085.619-.139,1.355t-.07,1.511q-.017.775,0,1.506t.075,1.323a7.154,7.154,0,0,0,.14.957Zm4.571-.581q-1.861-.054-2.108-1.216a2.307,2.307,0,0,1-.043-.645,3.193,3.193,0,0,1,.161-.786l1.13.28a1.189,1.189,0,0,0-.081.366.827.827,0,0,0,.037.29q.141.387,1.141.42a9.528,9.528,0,0,0,1.038-.038c.369-.032.732-.081,1.086-.145a8.882,8.882,0,0,0,.931-.215c-.014.1-.031.237-.048.409s-.031.346-.038.522-.007.321,0,.436a9.206,9.206,0,0,1-1.08.2q-.576.075-1.13.1t-1,.016M225.08,50.06,225,48.737a9.106,9.106,0,0,0,1,.065c.394.007.8,0,1.231-.016s.836-.05,1.226-.1a6.705,6.705,0,0,0,.974-.177l-.054,1.3q-.429.075-1,.134c-.379.039-.773.07-1.177.091s-.792.034-1.162.038-.69,0-.962-.016" transform="translate(-89.305 -19.205)" fill="#222"/>
      <path id="パス_8186" data-name="パス 8186" d="M240.36,56.147V52.63h2.216v-.99h-2.689a11.365,11.365,0,0,1-.425,2.436,7.944,7.944,0,0,1-.866,1.963,1.867,1.867,0,0,0-.328-.2c-.14-.072-.284-.139-.435-.2a2.318,2.318,0,0,0-.377-.124,7.62,7.62,0,0,0,.883-2.092,11.08,11.08,0,0,0,.311-2.8V46.735H246.7v2.926h-2.744v.968h3.615V51.64h-3.615v.99h2.324v3.518Zm-.441-7.551h5.5v-.785h-5.5Zm0,2.034h2.657v-.968h-2.657Zm1.754,4.421h3.292V53.727h-3.292Z" transform="translate(-95.55 -18.806)" fill="#222"/>
      <path id="パス_8187" data-name="パス 8187" d="M260.4,55.94a2.11,2.11,0,0,1-1.42-.506,1.505,1.505,0,0,1-.495-1.173,1.345,1.345,0,0,1,.3-.828,1.891,1.891,0,0,1,.807-.57,2.85,2.85,0,0,1,1.194-.172,3.453,3.453,0,0,1,.35.017c.111.01.224.023.339.037l-.032-1.237q-.183.011-.371.011H260.7a3.974,3.974,0,0,1-1.017-.1,1.214,1.214,0,0,1-.592-.344,2.988,2.988,0,0,1-.435-.672l1.011-.5a.731.731,0,0,0,.355.371,2.111,2.111,0,0,0,.7.081c.107,0,.221,0,.339-.005s.238-.009.36-.016c-.007-.194-.013-.391-.017-.592s-.008-.4-.016-.592q-.785.044-1.484.059c-.467.011-.828.013-1.087.005L258.76,48q.377.031,1.087.026t1.517-.038q-.012-.387-.011-.742v-.656H262.6v.624q0,.333.011.7.731-.054,1.344-.124a7.194,7.194,0,0,0,.9-.145v1.183a8.06,8.06,0,0,1-.9.124q-.608.059-1.339.113c.007.194.013.389.017.586s.008.393.016.586q.635-.065,1.2-.156a6.333,6.333,0,0,0,.9-.2v1.259c-.265.057-.579.111-.941.161s-.744.093-1.146.129c.014.287.023.563.027.829s.009.512.016.742a8.565,8.565,0,0,1,1.506.559,11.87,11.87,0,0,1,1.334.753,1.869,1.869,0,0,0-.307.317q-.167.21-.306.425a3.845,3.845,0,0,0-.216.366,7.4,7.4,0,0,0-1.979-1.2,1.646,1.646,0,0,1-.565,1.285,2.577,2.577,0,0,1-1.791.436m.043-1.151a1.293,1.293,0,0,0,.807-.161.573.573,0,0,0,.247-.484v-.3q-.226-.043-.446-.065c-.147-.014-.293-.022-.436-.022a1.288,1.288,0,0,0-.688.151.433.433,0,0,0-.237.366q0,.484.754.516" transform="translate(-104.01 -18.748)" fill="#222"/>
      <path id="パス_8188" data-name="パス 8188" d="M276.521,56.05q-.129-.215-.344-.516a2.44,2.44,0,0,0-.495-.517,5.965,5.965,0,0,0,1.753-.748,2.275,2.275,0,0,0,.85-1.005,1.528,1.528,0,0,1-.688.172,1.861,1.861,0,0,1-1.318-.463,1.718,1.718,0,0,1-.533-1.247,1.8,1.8,0,0,1,.215-.963,1.75,1.75,0,0,1,.667-.672,1.934,1.934,0,0,1,.979-.247q.086,0,.151.005c.043,0,.09.009.14.016-.014-.129-.029-.261-.043-.4a4.11,4.11,0,0,1-.022-.43q-.871.032-1.7.1t-1.517.145a10.324,10.324,0,0,0-1.14.188l-.183-1.248q.387-.032,1.087-.069t1.6-.081l1.856-.085V46.466h1.248v1.463l1.6-.06q.764-.026,1.367-.042t.947-.006l-.087,1.259q-.624-.075-1.651-.092t-2.178.005c0,.259.009.52.027.786s.034.52.048.764a2.48,2.48,0,0,1,.527,1.656,3.583,3.583,0,0,1-.828,2.4,4.9,4.9,0,0,1-2.334,1.447m1.086-3.69a.688.688,0,0,0,.473-.2.662.662,0,0,0,.172-.473,1.486,1.486,0,0,0-.016-.209c-.011-.075-.023-.156-.038-.243a.725.725,0,0,0-.57-.258.7.7,0,0,0-.506.194.619.619,0,0,0-.194.495.713.713,0,0,0,.188.511.611.611,0,0,0,.489.188" transform="translate(-109.971 -18.698)" fill="#222"/>
      <path id="パス_8189" data-name="パス 8189" d="M293.116,60.238a1.509,1.509,0,0,1-.785-.21,1.608,1.608,0,0,1-.57-.57,1.608,1.608,0,0,1-.005-1.6,1.572,1.572,0,0,1,1.361-.775,1.535,1.535,0,0,1,.8.215,1.609,1.609,0,0,1,.57.57,1.517,1.517,0,0,1,.21.785,1.533,1.533,0,0,1-.215.8,1.6,1.6,0,0,1-.576.57,1.539,1.539,0,0,1-.791.21m0-.6a.944.944,0,0,0,.694-.285.932.932,0,0,0,.285-.683.948.948,0,0,0-.285-.688.967.967,0,0,0-1.377-.006.944.944,0,0,0-.285.694.973.973,0,0,0,.968.968" transform="translate(-117.315 -22.971)" fill="#222"/>
    </g>
  </g>
</svg>
