<svg width="15" height="94" viewBox="0 0 15 94" fill="none" xmlns="http://www.w3.org/2000/svg">
<path d="M0.729032 5.38977C0.729032 4.62848 0.806452 3.98332 0.96129 3.45428C1.11613 2.93816 1.26452 2.51235 1.40645 2.17686C1.56129 1.85428 1.63871 1.58977 1.63871 1.38332C1.63871 1.22848 1.57419 1.09945 1.44516 0.99622C1.31613 0.905897 1.10968 0.834929 0.825806 0.783316V0.00912297C1.14839 0.0349294 1.52903 0.0478326 1.96774 0.0478326C2.40645 0.0607359 2.96129 0.0671875 3.63226 0.0671875C4.31613 0.0800907 5.17419 0.0865423 6.20645 0.0865423V0.860736C4.70968 1.01557 3.55484 1.46074 2.74194 2.19622C1.94194 2.9317 1.54194 3.89945 1.54194 5.09945C1.54194 5.91235 1.73548 6.55106 2.12258 7.01557C2.50968 7.48009 3.04516 7.71235 3.72903 7.71235C4.16774 7.71235 4.56129 7.59622 4.90968 7.36396C5.25806 7.14461 5.58065 6.78332 5.87742 6.28009C6.1871 5.77687 6.49677 5.11235 6.80645 4.28654C7.15484 3.3317 7.54194 2.55106 7.96774 1.94461C8.39355 1.35106 8.87097 0.912349 9.4 0.628478C9.92903 0.344607 10.5226 0.202671 11.1806 0.202671C11.9548 0.202671 12.6258 0.383317 13.1935 0.744607C13.7613 1.1059 14.2 1.61557 14.5097 2.27364C14.8194 2.9317 14.9742 3.69945 14.9742 4.57686C14.9742 5.28654 14.8968 5.86719 14.7419 6.3188C14.6 6.78332 14.4516 7.16396 14.2968 7.46074C14.1419 7.77041 14.0645 8.02848 14.0645 8.23493C14.0645 8.40267 14.129 8.5317 14.2581 8.62203C14.3871 8.72525 14.5935 8.80267 14.8774 8.85428V9.62848C14.5806 9.60267 14.2516 9.57686 13.8903 9.55106C13.529 9.53816 13.0645 9.52525 12.4968 9.51235C11.929 9.51235 11.1935 9.51235 10.2903 9.51235L10.2903 8.73816C11.4645 8.59622 12.4065 8.17686 13.1161 7.48009C13.8258 6.78332 14.1806 5.9188 14.1806 4.88654C14.1806 4.17686 14.0065 3.62203 13.6581 3.22203C13.3097 2.82203 12.8258 2.62203 12.2065 2.62203C11.7935 2.62203 11.4258 2.7317 11.1032 2.95106C10.7806 3.18332 10.4645 3.56396 10.1548 4.09299C9.85806 4.62203 9.53548 5.33816 9.1871 6.24138C8.65806 7.67364 8.03871 8.69945 7.32903 9.3188C6.63226 9.95106 5.77419 10.2672 4.75484 10.2672C3.51613 10.2672 2.53548 9.82848 1.8129 8.95106C1.09032 8.08654 0.729032 6.89945 0.729032 5.38977ZM0.729032 20.3961C0.729032 19.0671 1.0129 17.9122 1.58065 16.9316C2.16129 15.951 2.97419 15.1897 4.01935 14.6477C5.06452 14.1187 6.29677 13.8542 7.71613 13.8542C9.16129 13.8542 10.4258 14.1316 11.5097 14.6864C12.6065 15.2413 13.4581 16.009 14.0645 16.9897C14.671 17.9832 14.9742 19.1316 14.9742 20.4348C14.9742 21.08 14.9097 21.6284 14.7806 22.08C14.6645 22.5445 14.5161 22.9381 14.3355 23.2606C14.1677 23.5832 14.0194 23.8606 13.8903 24.0929C13.7742 24.3381 13.7161 24.5574 13.7161 24.751C13.7161 24.9445 13.8065 25.0929 13.9871 25.1961C14.1677 25.3122 14.4645 25.3961 14.8774 25.4477V26.2219C14.4516 26.209 14.0065 26.1961 13.5419 26.1832C13.0903 26.1703 12.5548 26.1574 11.9355 26.1445C11.329 26.1445 10.5613 26.1445 9.63226 26.1445V25.3703C10.5742 25.2284 11.3742 24.9639 12.0323 24.5768C12.6903 24.2026 13.1935 23.7252 13.5419 23.1445C13.8903 22.5639 14.0645 21.8993 14.0645 21.151C14.0645 19.8219 13.5226 18.7832 12.4387 18.0348C11.3548 17.2993 9.83226 16.9316 7.87097 16.9316C5.89677 16.9316 4.35484 17.3058 3.24516 18.0542C2.14839 18.8026 1.6 19.8413 1.6 21.1703C1.6 21.9187 1.77419 22.5832 2.12258 23.1639C2.48387 23.7574 3 24.2413 3.67097 24.6155C4.34194 24.9897 5.14194 25.2413 6.07097 25.3703V26.1445C5.18065 26.1445 4.42581 26.1445 3.80645 26.1445C3.1871 26.1574 2.64516 26.1703 2.18065 26.1832C1.71613 26.1961 1.26452 26.209 0.825806 26.2219V25.4477C1.25161 25.3961 1.54839 25.3187 1.71613 25.2155C1.88387 25.1122 1.96774 24.9574 1.96774 24.751C1.96774 24.5445 1.90323 24.3252 1.77419 24.0929C1.65806 23.8606 1.51613 23.5832 1.34839 23.2606C1.18065 22.9381 1.03871 22.5445 0.922581 22.08C0.793548 21.6155 0.729032 21.0542 0.729032 20.3961ZM1 29.8606H1.75484C1.78065 30.4542 1.83226 30.8929 1.90968 31.1768C2 31.4735 2.15484 31.6671 2.37419 31.7574C2.60645 31.8606 2.95484 31.9122 3.41935 31.9122H12.2839C12.7484 31.9122 13.0903 31.8606 13.3097 31.7574C13.5419 31.6671 13.7032 31.4735 13.7935 31.1768C13.8839 30.8929 13.9355 30.4542 13.9484 29.8606H14.7032C14.6903 30.0929 14.6774 30.48 14.6645 31.0219C14.6645 31.5768 14.6645 32.2477 14.6645 33.0348C14.6645 33.4864 14.6645 33.8864 14.6645 34.2348C14.6645 34.5832 14.6645 34.8929 14.6645 35.1639C14.6774 35.4477 14.6839 35.6993 14.6839 35.9187C14.6968 36.151 14.7032 36.351 14.7032 36.5187C14.7032 38.3122 14.4129 39.6671 13.8323 40.5832C13.2516 41.4993 12.4 41.9574 11.2774 41.9574C10.5032 41.9574 9.83871 41.7252 9.28387 41.2606C8.72903 40.7961 8.30323 40.1252 8.00645 39.2477C7.70968 38.3832 7.56129 37.3252 7.56129 36.0735V33.5381H8.06452V36.0929C8.06452 37.0993 8.30968 37.8477 8.8 38.3381C9.30323 38.8284 10.0645 39.0735 11.0839 39.0735C12.0516 39.0735 12.7677 38.8413 13.2323 38.3768C13.7097 37.9252 13.9484 37.2219 13.9484 36.2671L13.9484 34.8542H3.41935C2.96774 34.8542 2.62581 34.8993 2.39355 34.9897C2.16129 35.0929 2 35.2929 1.90968 35.5897C1.83226 35.8864 1.78065 36.3252 1.75484 36.9058H1C1.03871 36.2606 1.05806 35.0929 1.05806 33.4026C1.05806 31.6864 1.03871 30.5058 1 29.8606ZM0.729032 41.5703C0.729032 40.7445 0.916129 40.1187 1.29032 39.6929C1.67742 39.28 2.32258 38.9832 3.22581 38.8026L5.27742 38.3961C5.80645 38.28 6.2129 38.1316 6.49677 37.951C6.79355 37.7832 7.00645 37.551 7.13548 37.2542C7.26452 36.9703 7.32903 36.5832 7.32903 36.0929V33.6735H7.83226V35.9187C7.83226 37.1703 7.73548 38.1703 7.54194 38.9187C7.34839 39.6671 7.01935 40.2413 6.55484 40.6413C6.09032 41.0413 5.43871 41.3445 4.6 41.551L3.38065 41.8413C2.89032 41.9574 2.54194 42.0993 2.33548 42.2671C2.12903 42.4348 2.03226 42.6606 2.04516 42.9445C2.04516 43.0993 2.07097 43.2348 2.12258 43.351C2.1871 43.48 2.28387 43.609 2.4129 43.7381L1.85161 44.1058C1.46452 43.7703 1.18065 43.4026 1 43.0026C0.819355 42.6026 0.729032 42.1252 0.729032 41.5703ZM0.729032 53.2871C0.729032 51.8677 1.01935 50.6226 1.6 49.5516C2.19355 48.4935 3.01935 47.6677 4.07742 47.0742C5.13548 46.4806 6.38065 46.1839 7.8129 46.1839C9.23226 46.1839 10.4774 46.4806 11.5484 47.0742C12.6194 47.6806 13.4581 48.5129 14.0645 49.571C14.671 50.6419 14.9742 51.8871 14.9742 53.3065C14.9742 54.7258 14.6774 55.971 14.0839 57.0419C13.5032 58.1129 12.6839 58.9387 11.6258 59.5194C10.5677 60.1129 9.32258 60.4097 7.89032 60.4097C6.48387 60.4097 5.23871 60.1129 4.15484 59.5194C3.08387 58.9258 2.24516 58.0935 1.63871 57.0226C1.03226 55.9516 0.729032 54.7065 0.729032 53.2871ZM1.44516 53.3258C1.44516 54.1 1.70968 54.7903 2.23871 55.3968C2.78065 56.0032 3.52903 56.4742 4.48387 56.8097C5.45161 57.1581 6.58065 57.3323 7.87097 57.3323C9.17419 57.3323 10.3032 57.1516 11.2581 56.7903C12.2129 56.429 12.9484 55.9387 13.4645 55.3194C13.9935 54.7129 14.2581 54.029 14.2581 53.2677C14.2581 52.4935 13.9871 51.8032 13.4452 51.1968C12.9161 50.5903 12.1677 50.1129 11.2 49.7645C10.2452 49.429 9.12258 49.2613 7.83226 49.2613C6.52903 49.2613 5.4 49.4419 4.44516 49.8032C3.49032 50.1645 2.74839 50.6548 2.21935 51.2742C1.70323 51.8935 1.44516 52.5774 1.44516 53.3258ZM0.729032 71.1512C0.729032 69.7318 1.01935 68.4866 1.6 67.4157C2.19355 66.3576 3.01935 65.5318 4.07742 64.9383C5.13548 64.3447 6.38065 64.0479 7.8129 64.0479C9.23226 64.0479 10.4774 64.3447 11.5484 64.9383C12.6194 65.5447 13.4581 66.377 14.0645 67.435C14.671 68.506 14.9742 69.7512 14.9742 71.1705C14.9742 72.5899 14.6774 73.835 14.0839 74.906C13.5032 75.977 12.6839 76.8028 11.6258 77.3834C10.5677 77.977 9.32258 78.2737 7.89032 78.2737C6.48387 78.2737 5.23871 77.977 4.15484 77.3834C3.08387 76.7899 2.24516 75.9576 1.63871 74.8866C1.03226 73.8157 0.729032 72.5705 0.729032 71.1512ZM1.44516 71.1899C1.44516 71.9641 1.70968 72.6544 2.23871 73.2608C2.78065 73.8673 3.52903 74.3383 4.48387 74.6737C5.45161 75.0221 6.58065 75.1963 7.87097 75.1963C9.17419 75.1963 10.3032 75.0157 11.2581 74.6544C12.2129 74.2931 12.9484 73.8028 13.4645 73.1834C13.9935 72.577 14.2581 71.8931 14.2581 71.1318C14.2581 70.3576 13.9871 69.6673 13.4452 69.0608C12.9161 68.4544 12.1677 67.977 11.2 67.6286C10.2452 67.2931 9.12258 67.1254 7.83226 67.1254C6.52903 67.1254 5.4 67.306 4.44516 67.6673C3.49032 68.0286 2.74839 68.5189 2.21935 69.1383C1.70323 69.7576 1.44516 70.4415 1.44516 71.1899ZM1 81.3434H1.75484C1.78065 81.9499 1.83226 82.3951 1.90968 82.6789C2 82.9757 2.16129 83.1693 2.39355 83.2596C2.62581 83.3499 2.96774 83.3951 3.41935 83.3951H12.2839C12.7613 83.3951 13.1097 83.3434 13.329 83.2402C13.5613 83.1499 13.7161 82.9564 13.7935 82.6596C13.8839 82.3757 13.9355 81.937 13.9484 81.3434H14.7032C14.6903 81.808 14.6774 82.3434 14.6645 82.9499C14.6516 83.5693 14.6452 84.2273 14.6452 84.9241C14.6452 85.8402 14.6516 86.6338 14.6645 87.3047C14.6774 87.9757 14.6903 88.5176 14.7032 88.9305H13.9484C13.9355 88.1693 13.8839 87.6015 13.7935 87.2273C13.7161 86.866 13.5613 86.6273 13.329 86.5112C13.0968 86.3951 12.7484 86.337 12.2839 86.337H3.20645C2.81935 86.337 2.52258 86.3628 2.31613 86.4144C2.12258 86.4789 1.9871 86.608 1.90968 86.8015C1.84516 87.008 1.8129 87.3176 1.8129 87.7305V88.2531C1.8129 88.808 1.89032 89.3047 2.04516 89.7434C2.2129 90.1951 2.47097 90.5886 2.81935 90.9241C3.16774 91.2725 3.60645 91.5822 4.13548 91.8531C4.67742 92.137 5.32258 92.3951 6.07097 92.6273V93.4209C5.19355 93.3176 4.32903 93.2402 3.47742 93.1886C2.63871 93.1499 1.8129 93.137 1 93.1499C1.02581 92.5951 1.03871 91.9241 1.03871 91.137C1.05161 90.3499 1.05806 89.3951 1.05806 88.2725C1.05806 86.737 1.05161 85.3822 1.03871 84.208C1.03871 83.0338 1.02581 82.0789 1 81.3434Z" fill="#3C1400"/>
</svg>
