<svg id="グループ_574" data-name="グループ 574" xmlns="http://www.w3.org/2000/svg" xmlns:xlink="http://www.w3.org/1999/xlink" width="61.536" height="418.788" viewBox="0 0 61.536 418.788">
  <defs>
    <clipPath id="clip-path">
      <rect id="長方形_7602" data-name="長方形 7602" width="61.536" height="418.788" fill="none"/>
    </clipPath>
  </defs>
  <g id="グループ_573" data-name="グループ 573" clip-path="url(#clip-path)">
    <path id="パス_7401" data-name="パス 7401" d="M50.034,14.85a6.192,6.192,0,0,1-2.358-.117,3.2,3.2,0,0,1-1.6-.927,2.35,2.35,0,0,1-.576-1.62,3.894,3.894,0,0,1,1.035-2.512,7.487,7.487,0,0,1,2.853-2.006V4.951c-.66.046-1.3.084-1.917.106s-1.191.025-1.718,0l-.109-2.069a13.15,13.15,0,0,0,1.674.046c.66-.02,1.351-.064,2.07-.136V0l2,.018V2.664c.6-.1,1.162-.2,1.683-.315a8.377,8.377,0,0,0,1.287-.369l.216,1.98a10.665,10.665,0,0,1-1.458.414q-.828.181-1.728.325V7.056A11.117,11.117,0,0,1,52.7,6.84a13.585,13.585,0,0,1,1.422-.072,7.345,7.345,0,0,1,2.943.53A4.309,4.309,0,0,1,58.908,8.72a3.4,3.4,0,0,1,.63,2.008,3.57,3.57,0,0,1-1.044,2.719,3.875,3.875,0,0,1-2.825.971,3.58,3.58,0,0,1-3.691-2.754,9.23,9.23,0,0,0,1.008-.387,5.847,5.847,0,0,0,.937-.494,1.761,1.761,0,0,0,1.727,1.493,1.547,1.547,0,0,0,1.206-.458,1.645,1.645,0,0,0,.414-1.145,1.757,1.757,0,0,0-.792-1.466A3.992,3.992,0,0,0,54.1,8.621a9.943,9.943,0,0,0-2.718.362v4.481a1.36,1.36,0,0,1-.306.981,1.725,1.725,0,0,1-1.044.405m-1.3-1.907a.928.928,0,0,0,.5-.073.342.342,0,0,0,.153-.324V9.792a5.14,5.14,0,0,0-1.314,1.1,1.88,1.88,0,0,0-.485,1.189.718.718,0,0,0,.3.629,1.533,1.533,0,0,0,.846.236M59.2,6.516a8.611,8.611,0,0,0-1.17-.944q-.738-.514-1.512-.973a9.42,9.42,0,0,0-1.385-.693l1.133-1.62a11.259,11.259,0,0,1,1.422.684q.774.432,1.512.918a10.871,10.871,0,0,1,1.242.936c-.12.132-.267.311-.441.541s-.336.45-.486.666-.254.378-.315.485" fill="#222"/>
    <path id="パス_7402" data-name="パス 7402" d="M45.805,23.868c-.229-.216-.481-.434-.756-.657a4.89,4.89,0,0,0-.937-.585,12.2,12.2,0,0,0,1.531-1.648A12.918,12.918,0,0,0,46.9,19.017a9.473,9.473,0,0,0,.792-2.007l2,.54a5.076,5.076,0,0,1-.179.549c-.073.186-.151.376-.235.567H59.809V20.34H48.469a18.652,18.652,0,0,1-1.242,1.917,11.481,11.481,0,0,1-1.422,1.611m.107,9.936a8.068,8.068,0,0,0-.513-.927,4.491,4.491,0,0,0-.711-.909,13.393,13.393,0,0,0,2.53-.991,15.988,15.988,0,0,0,2.3-1.421q-.721-.576-1.432-1.062a7.978,7.978,0,0,0-1.341-.756l1.3-1.44a11.863,11.863,0,0,1,1.5.845q.766.505,1.539,1.081a10.676,10.676,0,0,0,1.836-2.43H45.769V24.03H58.225q-.055.468-.09,1.161c-.025.462-.036.963-.036,1.5a11.577,11.577,0,0,0,.243,2.52,6.358,6.358,0,0,0,.675,1.818q.252-.54.459-1.044t.279-.738a3.442,3.442,0,0,0,.459.288c.2.107.414.213.647.314a4.451,4.451,0,0,0,.621.226q-.09.288-.269.729t-.388.918q-.206.477-.4.873a4.276,4.276,0,0,1-.36.612,1.2,1.2,0,0,1-.748.54,1.15,1.15,0,0,1-.819-.126,3.563,3.563,0,0,1-1.286-1.467,9.288,9.288,0,0,1-.847-2.52,16.688,16.688,0,0,1-.3-3.267v-.576H53.005l1.764.99A15.405,15.405,0,0,1,52.645,29.5q.684.612,1.287,1.224t1.089,1.188q-.416.324-.865.747c-.3.281-.557.543-.773.783q-.4-.522-.99-1.188t-1.315-1.332A18.294,18.294,0,0,1,48.6,32.6,16.151,16.151,0,0,1,45.912,33.8m3.042-12.51h9.055v1.638H48.954Z" fill="#222"/>
    <path id="パス_7403" data-name="パス 7403" d="M46.345,50.418a17.983,17.983,0,0,1-.2-1.809q-.072-1.071-.1-2.341t0-2.618q.027-1.35.107-2.637t.216-2.385a18.223,18.223,0,0,1,.316-1.872l2.106.432a11.216,11.216,0,0,0-.343,1.683q-.143,1.035-.233,2.268T48.1,43.668q-.028,1.3.008,2.52t.126,2.214a11.963,11.963,0,0,0,.235,1.6Zm7.649-.972q-3.114-.09-3.527-2.034a3.859,3.859,0,0,1-.072-1.08,5.34,5.34,0,0,1,.269-1.315l1.891.469a1.99,1.99,0,0,0-.135.612,1.385,1.385,0,0,0,.062.486q.236.648,1.909.7a15.944,15.944,0,0,0,1.737-.063c.617-.054,1.224-.135,1.817-.243a14.858,14.858,0,0,0,1.558-.36c-.024.168-.052.4-.081.684s-.052.579-.064.873-.011.537,0,.729a15.407,15.407,0,0,1-1.808.342q-.964.126-1.891.171t-1.665.027m-2.7-8.784-.126-2.214a15.24,15.24,0,0,0,1.674.108c.659.012,1.347,0,2.06-.027s1.4-.084,2.052-.162a11.219,11.219,0,0,0,1.63-.3l-.091,2.178q-.719.126-1.674.225c-.635.066-1.293.117-1.97.153s-1.326.057-1.945.063-1.155,0-1.61-.027" fill="#222"/>
    <path id="パス_7404" data-name="パス 7404" d="M45.408,69.7a6.008,6.008,0,0,0-.621-.973,5.18,5.18,0,0,0-.8-.845,12.633,12.633,0,0,0,3.7-2.52,11.606,11.606,0,0,0,2.34-3.349,13.46,13.46,0,0,0,1.125-3.923l1.279.215q-.072-.61-.118-1.242c-.03-.42-.039-.851-.027-1.3H48.108V53.748H54.5a20.959,20.959,0,0,0,.306,5.778,11.455,11.455,0,0,0,2.116,4.68,14,14,0,0,0,4.419,3.654,6.114,6.114,0,0,0-.865.846,10.759,10.759,0,0,0-.774.99,17.508,17.508,0,0,1-4.193-3.8,14.357,14.357,0,0,1-2.628-5.347,14.126,14.126,0,0,1-1.575,3.7,14.5,14.5,0,0,1-5.9,5.445" fill="#222"/>
    <path id="パス_7405" data-name="パス 7405" d="M51.33,87.534a5.632,5.632,0,0,0-.72-.945,5.793,5.793,0,0,0-.9-.82,8.07,8.07,0,0,0,3.807-2.916,8.173,8.173,0,0,0,1.34-4.752,3.617,3.617,0,0,0-.6-2.384,1.715,1.715,0,0,0-1.449-.621,1.746,1.746,0,0,0-1.243.747,4.655,4.655,0,0,0-.837,2.043,10.06,10.06,0,0,0,.009,3.257c-.168.013-.386.043-.657.091s-.527.1-.773.161a4.664,4.664,0,0,0-.549.162,15.939,15.939,0,0,1-.207-1.673q-.083-1.008-.126-2.178t-.055-2.34q-.009-1.17.027-2.16c.025-.66.06-1.194.109-1.6l2.195.2q-.089.432-.171,1.107t-.135,1.431q-.054.756-.072,1.458a4.861,4.861,0,0,1,1.2-1.881,2.538,2.538,0,0,1,1.738-.765,3.479,3.479,0,0,1,1.962.53,3.726,3.726,0,0,1,1.368,1.657,6.683,6.683,0,0,1,.5,2.762,10.138,10.138,0,0,1-1.522,5.751,11.08,11.08,0,0,1-4.239,3.682" fill="#222"/>
    <path id="パス_7406" data-name="パス 7406" d="M54.031,104.378a3.467,3.467,0,0,0-.27-.685,6.04,6.04,0,0,0-.459-.764,3.841,3.841,0,0,0-.514-.6,6.772,6.772,0,0,0,3.754-1.611A4.161,4.161,0,0,0,57.9,97.807a4.442,4.442,0,0,0-.487-2.376,4.686,4.686,0,0,0-3.635-2.465,25.424,25.424,0,0,1-.54,3.42,17.935,17.935,0,0,1-1.071,3.276,9.464,9.464,0,0,1-1.647,2.592,2.727,2.727,0,0,1-1.431.918,2.571,2.571,0,0,1-1.468-.2,3.494,3.494,0,0,1-1.331-1.025,4.971,4.971,0,0,1-.882-1.665,5.772,5.772,0,0,1-.252-2.062,7.446,7.446,0,0,1,2.61-5.345,7.876,7.876,0,0,1,2.645-1.494,8.48,8.48,0,0,1,3.187-.414,7.148,7.148,0,0,1,2.574.612,6.723,6.723,0,0,1,3.519,3.672,6.736,6.736,0,0,1-1.323,6.848,8.378,8.378,0,0,1-4.338,2.278m-5.85-3.636a.694.694,0,0,0,.414.144.626.626,0,0,0,.432-.216,6.352,6.352,0,0,0,1.2-1.836,14.908,14.908,0,0,0,.918-2.683,17.825,17.825,0,0,0,.477-3.042,5.591,5.591,0,0,0-3.726,2.871,5.723,5.723,0,0,0-.63,2.35,3.393,3.393,0,0,0,.225,1.467,2.22,2.22,0,0,0,.693.945" fill="#222"/>
    <path id="パス_7407" data-name="パス 7407" d="M52.356,122.58v-7.794q-1.368.936-2.8,1.737a31.25,31.25,0,0,1-2.8,1.395,6.313,6.313,0,0,0-.4-.63q-.252-.36-.531-.7a3.075,3.075,0,0,0-.549-.54,23.6,23.6,0,0,0,3.24-1.458,31.409,31.409,0,0,0,3.231-2,27.134,27.134,0,0,0,2.853-2.3,14.4,14.4,0,0,0,2.106-2.394l1.873,1.278a18.5,18.5,0,0,1-1.792,2.025,28.711,28.711,0,0,1-2.187,1.935v9.45Z" fill="#222"/>
    <path id="パス_7408" data-name="パス 7408" d="M49.675,131.85a6.462,6.462,0,0,0-.657-.594c-.283-.228-.594-.468-.937-.72s-.675-.483-1-.693a6.492,6.492,0,0,0-.847-.477l1.441-1.818c.239.133.521.3.845.5s.658.426,1,.666.664.477.963.711a7.965,7.965,0,0,1,.72.621Zm-1.927,7.938-1.224-2.214a13.927,13.927,0,0,0,2.692-.891,27.442,27.442,0,0,0,2.835-1.458,28.784,28.784,0,0,0,2.7-1.8,25.954,25.954,0,0,0,2.312-1.953,13.818,13.818,0,0,0,1.683-1.89,6.22,6.22,0,0,0,.243.756c.114.3.238.591.369.873a6.854,6.854,0,0,0,.342.657,16.853,16.853,0,0,1-2.205,2.295,27.874,27.874,0,0,1-2.925,2.231,31.705,31.705,0,0,1-3.347,1.954,24.22,24.22,0,0,1-3.475,1.44" fill="#222"/>
    <path id="パス_7409" data-name="パス 7409" d="M48.469,159.1a4.339,4.339,0,0,0-.378-.63c-.169-.239-.349-.471-.54-.692a4.834,4.834,0,0,0-.523-.532,7.778,7.778,0,0,0,3.556-2.367,6.66,6.66,0,0,0,1.251-3.7l-2.728.036q-1.3.02-2.222.045c-.612.019-1.021.033-1.225.045l-.107-2.106q.214.018,1.025.018t2-.009q1.188-.009,2.583-.027l2.781-.035q1.386-.02,2.583-.046t2.016-.054c.546-.017.892-.033,1.035-.045l.019,2.124H56.929q-1.028,0-2.233.018h-.611a8.89,8.89,0,0,1-1.539,4.833,9.97,9.97,0,0,1-4.077,3.123m-.342-12.132L48,144.846h.9q.684,0,1.638-.018l2-.036q1.044-.017,2-.045l1.629-.045c.45-.011.741-.024.873-.036l.036,2.107q-.234-.02-.909-.01l-1.6.027q-.928.018-1.945.036t-1.953.045c-.624.018-1.16.037-1.61.054s-.759.033-.927.045" fill="#222"/>
    <path id="パス_7410" data-name="パス 7410" d="M48.828,170.91c.013-.108.015-.375.01-.8s-.013-.946-.019-1.558-.015-1.254-.026-1.926-.028-1.314-.046-1.926-.033-1.13-.045-1.557-.024-.693-.035-.8H50.9v.828q0,.63.009,1.522c.006.593.016,1.215.027,1.862s.028,1.275.045,1.881.036,1.129.054,1.566.033.736.045.891Zm1.494,6.228a4.672,4.672,0,0,0-.369-.594c-.161-.228-.339-.456-.53-.683a4.967,4.967,0,0,0-.54-.559,10.784,10.784,0,0,0,3.059-1.853,6.689,6.689,0,0,0,1.8-2.638,10.427,10.427,0,0,0,.6-3.717v-.828c0-.264,0-.606-.01-1.025s-.012-.853-.018-1.3-.011-.847-.017-1.206-.016-.619-.028-.775h2.323v5.13a13.042,13.042,0,0,1-.666,4.383,8.593,8.593,0,0,1-2.053,3.24,12.988,12.988,0,0,1-3.546,2.421" fill="#222"/>
    <path id="パス_7411" data-name="パス 7411" d="M55.488,187.9a3.5,3.5,0,0,0-.459-.486c-.2-.18-.4-.353-.621-.522a4.328,4.328,0,0,0-.594-.4c.325-.252.678-.558,1.063-.918s.768-.75,1.151-1.17.739-.84,1.063-1.26q-.99.018-2.278.063t-2.645.1q-1.359.054-2.619.108c-.841.036-1.584.066-2.233.09s-1.128.048-1.439.072l-.091-2.268c.4.024.94.04,1.63.045s1.464.006,2.321,0,1.743-.018,2.656-.036,1.791-.042,2.636-.072,1.6-.069,2.269-.117,1.173-.1,1.52-.144l1.422,1.1a15.8,15.8,0,0,1-.971,1.53q-.576.81-1.234,1.611t-1.313,1.494a15.487,15.487,0,0,1-1.234,1.179m-6.947,7.182c-.108-.156-.253-.339-.433-.549s-.372-.414-.576-.612a2.941,2.941,0,0,0-.594-.459,8.2,8.2,0,0,0,2.665-2.286,8.513,8.513,0,0,0,1.4-3.06,13.621,13.621,0,0,0,.342-3.69H53.6a14.788,14.788,0,0,1-1.234,6.309,10.466,10.466,0,0,1-3.824,4.347" fill="#222"/>
    <path id="パス_7412" data-name="パス 7412" d="M56.766,212.994a8.03,8.03,0,0,1-3.312-1.1,6.319,6.319,0,0,1-2.421-8.136,6.873,6.873,0,0,1,1.863-2.393q-1.44.234-2.871.5t-2.592.5q-1.161.234-1.791.4l-.486-2.321q.594-.037,1.647-.162t2.376-.316q1.323-.189,2.737-.414t2.735-.459q1.323-.232,2.376-.459t1.647-.4l.577,2.2c-.193.013-.424.036-.694.073s-.573.078-.909.126a5.356,5.356,0,0,0-1.89.612,6.135,6.135,0,0,0-1.611,1.26,6.012,6.012,0,0,0-1.125,1.763,5.5,5.5,0,0,0-.414,2.143,3.685,3.685,0,0,0,.7,2.3,4.609,4.609,0,0,0,1.917,1.43,10.035,10.035,0,0,0,2.727.694,3.751,3.751,0,0,0-.522.674,6.5,6.5,0,0,0-.431.811,3.3,3.3,0,0,0-.235.675m1.512-6.9a8.082,8.082,0,0,0-.9-1.206,10.16,10.16,0,0,0-1.026-1.025l.99-.792a5.856,5.856,0,0,1,.648.63q.378.414.747.845c.246.288.434.529.567.721Zm1.62-1.367a8.218,8.218,0,0,0-.909-1.188,9.308,9.308,0,0,0-1.035-1.008l.972-.811a6.852,6.852,0,0,1,.658.631c.257.275.512.555.764.837a6.135,6.135,0,0,1,.576.728Z" fill="#222"/>
    <path id="パス_7413" data-name="パス 7413" d="M54.408,231.372a22.957,22.957,0,0,1-3.213-.189,8.259,8.259,0,0,1-2.169-.576,4.742,4.742,0,0,1-1.439-.964q-.326.253-.792.568t-.954.621q-.486.306-.864.521l-.829-2.033c.205-.072.456-.174.756-.306s.6-.273.892-.423a5.472,5.472,0,0,0,.692-.406v-4.553H44.509V221.76h3.96v6.156a2.256,2.256,0,0,0,1.772,1.233,18.811,18.811,0,0,0,4.167.351q2.3,0,3.96-.072t2.683-.216a4.02,4.02,0,0,0-.2.6c-.073.27-.132.546-.18.827a6.876,6.876,0,0,0-.09.694c-.337,0-.774,0-1.314.009l-1.719.018q-.91.009-1.737.009Zm-6.75-11.61a9.572,9.572,0,0,0-.809-1.008q-.5-.558-1.063-1.089a8.961,8.961,0,0,0-1.025-.856l1.422-1.332a8.762,8.762,0,0,1,1.035.811q.583.522,1.125,1.089t.845.963a6,6,0,0,0-.486.4c-.2.18-.4.366-.594.558s-.341.348-.45.468m9.45,8.964a4.36,4.36,0,0,0-.1-.675c-.055-.245-.112-.477-.171-.693H52.5v-4.1h4.7v3.618h.4q.646,0,.647-.54V222.5h-6.75v6.156H49.477v-7.776h1.349V215.5h8.046v5.382h1.351v6.1a1.661,1.661,0,0,1-.487,1.323,2.328,2.328,0,0,1-1.548.423Zm-4.391-7.848h1.134v-2.916h3.131v-.9H52.717Zm1.386,5.148h1.512v-1.44H54.1Zm1.53-5.148h1.35v-1.439h-1.35Z" fill="#222"/>
    <path id="パス_7414" data-name="パス 7414" d="M51.547,247.9a8.048,8.048,0,0,1-2.151-.261,3.6,3.6,0,0,1-1.62-.936,4.956,4.956,0,0,1-1.107-1.917l1.907-1.044a2.326,2.326,0,0,0,.955,1.422,3.568,3.568,0,0,0,2.016.486q1.152,0,2.376-.108t2.3-.3a11.671,11.671,0,0,0,1.782-.451c0,.192.015.445.045.756s.072.618.126.918.1.534.153.7a11.279,11.279,0,0,1-1.837.4q-1.116.162-2.4.252t-2.547.09m-2.826-10.584-.019-2.178a7.334,7.334,0,0,0,1.306.252c.522.06,1.086.1,1.691.108s1.215,0,1.828-.027,1.175-.078,1.692-.144a7.281,7.281,0,0,0,1.277-.261v2.2a6.63,6.63,0,0,1-1.223.234q-.774.09-1.693.135t-1.853.027q-.936-.017-1.729-.108a7.72,7.72,0,0,1-1.277-.234m10.187.4a7.952,7.952,0,0,0-.918-1.188,13.51,13.51,0,0,0-1.025-1.026l.972-.792a6.824,6.824,0,0,1,.657.63c.258.277.513.555.765.837a6.133,6.133,0,0,1,.576.73Zm1.6-1.368a7.7,7.7,0,0,0-.918-1.179,10.389,10.389,0,0,0-1.044-1l.989-.81a6.943,6.943,0,0,1,.658.621c.257.27.513.547.765.828a6.088,6.088,0,0,1,.575.729Z" fill="#222"/>
    <path id="パス_7415" data-name="パス 7415" d="M49.872,267.534q-.216-.36-.576-.864a4.082,4.082,0,0,0-.828-.865,9.981,9.981,0,0,0,2.934-1.251,3.807,3.807,0,0,0,1.422-1.682,2.556,2.556,0,0,1-1.152.288,3.115,3.115,0,0,1-2.205-.775,2.874,2.874,0,0,1-.891-2.087,3.005,3.005,0,0,1,.36-1.612,2.927,2.927,0,0,1,1.116-1.125,3.236,3.236,0,0,1,1.638-.413q.144,0,.252.009c.072.006.15.015.234.026-.024-.216-.048-.437-.072-.666a6.864,6.864,0,0,1-.036-.719q-1.458.054-2.844.162t-2.538.243a17.279,17.279,0,0,0-1.908.314l-.306-2.088q.648-.054,1.819-.116t2.672-.136q1.5-.07,3.1-.143V251.5h2.088v2.448q1.4-.054,2.682-.1t2.287-.071q1.007-.027,1.584-.01l-.145,2.107q-1.044-.126-2.763-.154t-3.645.009c0,.433.015.87.045,1.315s.057.87.081,1.278a4.149,4.149,0,0,1,.882,2.771,6,6,0,0,1-1.386,4.024,8.206,8.206,0,0,1-3.906,2.421m1.818-6.174a1.151,1.151,0,0,0,.792-.343,1.107,1.107,0,0,0,.288-.792,2.49,2.49,0,0,0-.027-.35c-.018-.126-.039-.261-.063-.406a1.212,1.212,0,0,0-.954-.431,1.179,1.179,0,0,0-.846.324,1.036,1.036,0,0,0-.324.828,1.194,1.194,0,0,0,.315.855,1.022,1.022,0,0,0,.819.315" fill="#222"/>
    <path id="パス_7416" data-name="パス 7416" d="M58.908,274.356a9.187,9.187,0,0,0-.9-1.233q-.558-.657-1.189-1.27a9.047,9.047,0,0,0-1.187-.989l1.385-1.261a10.569,10.569,0,0,1,.9.712q.485.422.989.891t.928.918c.281.3.512.564.692.792Z" fill="#222"/>
    <path id="パス_7417" data-name="パス 7417" d="M51.528,303.588v-6.479H44.436v-2.071h7.092V291.51H48.667a16.082,16.082,0,0,1-2.412,2.988,4.072,4.072,0,0,0-.532-.5c-.222-.179-.444-.351-.666-.512a3.453,3.453,0,0,0-.567-.352,10.131,10.131,0,0,0,1.225-1.313,17.019,17.019,0,0,0,1.106-1.594,16.181,16.181,0,0,0,.9-1.674,11.879,11.879,0,0,0,.6-1.557l2.2.648c-.108.3-.224.6-.35.9s-.256.6-.388.9H59.34v2.069H53.85v3.528h6.985v2.071H53.85v6.479Z" fill="#222"/>
    <path id="パス_7418" data-name="パス 7418" d="M46.543,321.5v-6.876q-.325.235-.64.468c-.21.156-.422.3-.638.433-.193-.277-.423-.586-.694-.928a3.577,3.577,0,0,0-.747-.747,19.21,19.21,0,0,0,1.936-1.377,18.5,18.5,0,0,0,1.862-1.71,11.7,11.7,0,0,0,1.423-1.791l1.728,1.17a18.519,18.519,0,0,1-2.142,2.574V321.5Zm-.936-11.2a7.06,7.06,0,0,0-.6-.828,5.122,5.122,0,0,0-.783-.774,12.126,12.126,0,0,0,1.187-.693,14.819,14.819,0,0,0,1.27-.927q.621-.5,1.134-1a7.1,7.1,0,0,0,.8-.89L50.2,306.45a17.112,17.112,0,0,1-1.377,1.4q-.781.72-1.61,1.35a18.369,18.369,0,0,1-1.6,1.1m4.427,11.431a8.788,8.788,0,0,0-.35-.928,4.048,4.048,0,0,0-.513-.909,13.026,13.026,0,0,0,2.133-.575,14.259,14.259,0,0,0,2.115-.955c-.2-.215-.4-.441-.585-.674s-.363-.478-.531-.73a12.224,12.224,0,0,1-.946.982,9.526,9.526,0,0,1-.98.8,4.9,4.9,0,0,0-.666-.711,6.548,6.548,0,0,0-.757-.584,12.717,12.717,0,0,0,1.989-1.747,14.216,14.216,0,0,0,1.684-2.16c-.576.048-1.1.087-1.566.117s-.84.045-1.117.045L49.6,311.85q.467,0,1.133-.026c.445-.019.924-.04,1.441-.064q.2-.2.459-.468c.174-.179.356-.378.549-.593q-.45-.416-1.036-.882c-.389-.313-.78-.61-1.169-.892a7.957,7.957,0,0,0-1.053-.657l1.206-1.458q.252.146.513.324l.548.378q.432-.576.9-1.26t.773-1.242l1.71.937c-.252.4-.56.834-.927,1.313s-.716.912-1.052,1.3q.233.18.45.352c.143.114.281.224.414.333q.81-.954,1.557-1.917t1.142-1.576l1.729,1.008q-.469.612-1.17,1.458t-1.477,1.737q-.772.891-1.493,1.629.7-.054,1.367-.117l1.242-.117a7.682,7.682,0,0,0-.738-.684l1.368-1.188a9.8,9.8,0,0,1,1.125.973q.6.593,1.144,1.214a11.484,11.484,0,0,1,.863,1.107,5.482,5.482,0,0,0-.494.351q-.316.245-.621.5c-.2.168-.36.305-.469.414-.107-.168-.233-.349-.378-.54s-.3-.4-.468-.613c-.467.084-1.041.165-1.718.243s-1.383.154-2.116.225c-.084.156-.17.31-.26.459s-.184.31-.28.478h4.05l.883.773a14.99,14.99,0,0,1-1.188,1.791,11.951,11.951,0,0,1-1.422,1.539,12.189,12.189,0,0,0,4.5,1.315,7.192,7.192,0,0,0-.568,1.007q-.261.558-.4.954a14.615,14.615,0,0,1-2.728-.729A11.53,11.53,0,0,1,55,319.68a15.406,15.406,0,0,1-2.277,1.188,16.76,16.76,0,0,1-2.692.865M55,317.3q.413-.342.765-.692a4.461,4.461,0,0,0,.6-.747H53.652A7.284,7.284,0,0,0,55,317.3" fill="#222"/>
    <path id="パス_7419" data-name="パス 7419" d="M54.031,338.378a3.468,3.468,0,0,0-.27-.685,6.04,6.04,0,0,0-.459-.764,3.842,3.842,0,0,0-.514-.6,6.772,6.772,0,0,0,3.754-1.611,4.161,4.161,0,0,0,1.359-2.908,4.442,4.442,0,0,0-.487-2.376,4.686,4.686,0,0,0-3.635-2.465,25.424,25.424,0,0,1-.54,3.42,17.935,17.935,0,0,1-1.071,3.276,9.464,9.464,0,0,1-1.647,2.592,2.727,2.727,0,0,1-1.431.918,2.571,2.571,0,0,1-1.468-.2,3.494,3.494,0,0,1-1.331-1.025,4.971,4.971,0,0,1-.882-1.665,5.772,5.772,0,0,1-.252-2.062,7.446,7.446,0,0,1,2.61-5.345,7.876,7.876,0,0,1,2.645-1.494,8.48,8.48,0,0,1,3.187-.414,7.149,7.149,0,0,1,2.574.612,6.723,6.723,0,0,1,3.519,3.672,6.736,6.736,0,0,1-1.323,6.848,8.378,8.378,0,0,1-4.338,2.278m-5.85-3.636a.694.694,0,0,0,.414.144.626.626,0,0,0,.432-.216,6.352,6.352,0,0,0,1.2-1.836,14.908,14.908,0,0,0,.918-2.683,17.825,17.825,0,0,0,.477-3.042,5.59,5.59,0,0,0-3.726,2.871,5.723,5.723,0,0,0-.63,2.35,3.393,3.393,0,0,0,.225,1.467,2.22,2.22,0,0,0,.693.945" fill="#222"/>
    <path id="パス_7420" data-name="パス 7420" d="M51.33,356.8a4.667,4.667,0,0,1-3.465-1.242,4.792,4.792,0,0,1-1.232-3.528,8.711,8.711,0,0,1,.7-3.366,19.138,19.138,0,0,1,1.71-3.221,13.081,13.081,0,0,1-1.746.611,12.03,12.03,0,0,1-1.531.324l-.467-1.962a11.213,11.213,0,0,0,1.484-.234,15.219,15.219,0,0,0,1.62-.45,10.459,10.459,0,0,0,1.432-.594,2.712,2.712,0,0,0,.9-.666l1.746,1.386a16.559,16.559,0,0,0-1.962,2.583,13.616,13.616,0,0,0-1.314,2.763,8.365,8.365,0,0,0-.468,2.682,2.368,2.368,0,0,0,2.592,2.683,3.1,3.1,0,0,0,1.963-.631,4.206,4.206,0,0,0,1.277-1.745,8.558,8.558,0,0,0,.594-2.593,14.916,14.916,0,0,0-.09-3.168,18.744,18.744,0,0,0-.792-3.456l2.124-.684a7.463,7.463,0,0,0,1.054,2.52,9.887,9.887,0,0,0,1.674,1.962A12.706,12.706,0,0,0,60.87,348.1a3.127,3.127,0,0,0-.477.531,6.537,6.537,0,0,0-.441.693,4.052,4.052,0,0,0-.288.63,8.7,8.7,0,0,1-1.305-1.071,12.713,12.713,0,0,1-1.377-1.61,15.3,15.3,0,0,1-.036,3.8,8.849,8.849,0,0,1-.954,3.024,4.994,4.994,0,0,1-4.662,2.7" fill="#222"/>
    <path id="パス_7421" data-name="パス 7421" d="M57.973,374.435a32.8,32.8,0,0,1-3.294.4,17.447,17.447,0,0,1-2.988-.036,8.451,8.451,0,0,1-2.43-.585,3.849,3.849,0,0,1-1.629-1.223,3.174,3.174,0,0,1-.585-1.953,3.59,3.59,0,0,1,1.089-2.637,9.273,9.273,0,0,1,2.925-1.882,11.54,11.54,0,0,1-.495-1.862,18.236,18.236,0,0,1-.28-2.376q-.071-1.289-.017-2.638h2.322a15.134,15.134,0,0,0-.072,2.134q.034,1.143.171,2.186a12.415,12.415,0,0,0,.351,1.8q.9-.287,1.9-.557t2.043-.54l.431,2.25a21.21,21.21,0,0,0-3.042.566,16.142,16.142,0,0,0-2.609.919,6.721,6.721,0,0,0-1.827,1.17,1.853,1.853,0,0,0-.675,1.341,1.366,1.366,0,0,0,.72,1.206,4.832,4.832,0,0,0,1.98.6,13.49,13.49,0,0,0,2.889,0A21.981,21.981,0,0,0,58.3,372.1a4.62,4.62,0,0,0-.262,1.153,8.006,8.006,0,0,0-.062,1.187" fill="#222"/>
    <path id="パス_7422" data-name="パス 7422" d="M57.973,392.435a32.8,32.8,0,0,1-3.294.4,17.447,17.447,0,0,1-2.988-.036,8.451,8.451,0,0,1-2.43-.585,3.849,3.849,0,0,1-1.629-1.223,3.174,3.174,0,0,1-.585-1.953,3.59,3.59,0,0,1,1.089-2.637,9.273,9.273,0,0,1,2.925-1.882,11.54,11.54,0,0,1-.495-1.862,18.236,18.236,0,0,1-.28-2.376q-.071-1.289-.017-2.638h2.322a15.134,15.134,0,0,0-.072,2.134q.034,1.143.171,2.186a12.415,12.415,0,0,0,.351,1.8q.9-.287,1.9-.557t2.043-.54l.431,2.25a21.21,21.21,0,0,0-3.042.566,16.142,16.142,0,0,0-2.609.919,6.721,6.721,0,0,0-1.827,1.17,1.853,1.853,0,0,0-.675,1.341,1.366,1.366,0,0,0,.72,1.206,4.832,4.832,0,0,0,1.98.6,13.49,13.49,0,0,0,2.889,0A21.981,21.981,0,0,0,58.3,390.1a4.62,4.62,0,0,0-.262,1.153,8.006,8.006,0,0,0-.062,1.187" fill="#222"/>
    <path id="パス_7423" data-name="パス 7423" d="M55.345,411.318a16.528,16.528,0,0,1-3.853-.207,5.033,5.033,0,0,1-2.564-1.17,3.07,3.07,0,0,1-.909-2.35,2.549,2.549,0,0,1,.468-1.52A3.462,3.462,0,0,1,49.765,405a5.766,5.766,0,0,1,1.863-.558,8.523,8.523,0,0,1,2.223,0c-.193-.252-.378-.517-.558-.792s-.354-.559-.522-.847q-1.692.289-3.3.459a23.316,23.316,0,0,1-2.764.154l-.413-1.909a19.914,19.914,0,0,0,2.484-.1q1.476-.135,3.042-.387-.378-.775-.684-1.53-1.082.144-2.1.233t-1.772.109l-.414-1.872c.492.011,1.053,0,1.683-.045s1.275-.1,1.935-.19a13.394,13.394,0,0,1-.54-2.015l2.124-.252a10.057,10.057,0,0,0,.468,1.962c.672-.121,1.31-.255,1.917-.406a12.862,12.862,0,0,0,1.52-.459l.54,1.836a12.235,12.235,0,0,1-1.458.414q-.862.2-1.853.378c.1.24.2.484.315.73s.231.489.351.728q1.314-.269,2.4-.585a9.885,9.885,0,0,0,1.719-.638l.7,1.782a11.7,11.7,0,0,1-1.665.63q-1,.306-2.169.557a17.561,17.561,0,0,0,1.215,1.738,8.6,8.6,0,0,0,1.305,1.34l-1.332,1.422a6.343,6.343,0,0,0-2.043-.747,6.021,6.021,0,0,0-1.864-.045,3.141,3.141,0,0,0-1.358.487,1.041,1.041,0,0,0-.513.864,1.332,1.332,0,0,0,.765,1.242,5.182,5.182,0,0,0,2.079.5,22.306,22.306,0,0,0,2.97-.019,3.368,3.368,0,0,0-.333.675c-.1.271-.189.537-.261.8a3.489,3.489,0,0,0-.126.666" fill="#222"/>
    <path id="パス_7424" data-name="パス 7424" d="M57.937,418.788a2.512,2.512,0,0,1-1.333-.361,2.7,2.7,0,0,1-.944-.954,2.522,2.522,0,0,1-.351-1.313,2.567,2.567,0,0,1,.359-1.351,2.723,2.723,0,0,1,.955-.944,2.627,2.627,0,0,1,2.627,0,2.723,2.723,0,0,1,.955.944,2.7,2.7,0,0,1,.009,2.674,2.625,2.625,0,0,1-.945.953,2.56,2.56,0,0,1-1.332.352m0-1.008a1.563,1.563,0,0,0,1.16-.486,1.588,1.588,0,0,0,.478-1.153A1.556,1.556,0,0,0,59.1,415a1.578,1.578,0,0,0-1.16-.477,1.627,1.627,0,0,0-1.62,1.619,1.6,1.6,0,0,0,.468,1.153,1.535,1.535,0,0,0,1.152.486" fill="#222"/>
    <path id="パス_7425" data-name="パス 7425" d="M11.557,17.623A16.53,16.53,0,0,1,7.7,17.416a5.033,5.033,0,0,1-2.564-1.17,3.07,3.07,0,0,1-.909-2.35,2.549,2.549,0,0,1,.468-1.52,3.463,3.463,0,0,1,1.278-1.071,5.766,5.766,0,0,1,1.863-.558,8.521,8.521,0,0,1,2.223,0c-.193-.252-.378-.517-.558-.792s-.354-.559-.522-.847q-1.692.289-3.3.459a23.324,23.324,0,0,1-2.764.154L2.5,7.812a19.919,19.919,0,0,0,2.484-.1q1.476-.135,3.042-.387-.378-.776-.684-1.53-1.081.144-2.1.233t-1.772.109L3.061,4.267c.492.011,1.053,0,1.683-.045s1.275-.105,1.935-.19a13.394,13.394,0,0,1-.54-2.015l2.124-.252a10.057,10.057,0,0,0,.468,1.962c.672-.121,1.31-.255,1.917-.406a12.86,12.86,0,0,0,1.52-.459l.54,1.836a12.23,12.23,0,0,1-1.458.414q-.862.2-1.853.378c.1.24.2.484.315.73s.231.489.351.728q1.314-.268,2.4-.585a9.883,9.883,0,0,0,1.719-.638l.7,1.782a11.7,11.7,0,0,1-1.665.63q-1,.306-2.169.557a17.56,17.56,0,0,0,1.215,1.738,8.6,8.6,0,0,0,1.305,1.34l-1.332,1.422a6.343,6.343,0,0,0-2.043-.747A6.021,6.021,0,0,0,8.334,12.4a3.142,3.142,0,0,0-1.358.487,1.041,1.041,0,0,0-.513.864,1.332,1.332,0,0,0,.765,1.242,5.182,5.182,0,0,0,2.079.5,22.3,22.3,0,0,0,2.97-.019,3.368,3.368,0,0,0-.333.675c-.1.271-.189.537-.261.8a3.49,3.49,0,0,0-.126.666" fill="#222"/>
    <path id="パス_7426" data-name="パス 7426" d="M9.757,32.192a9.467,9.467,0,0,0-.36-.954,4.652,4.652,0,0,0-.487-.882,12.4,12.4,0,0,0,4.167-.891,2.1,2.1,0,0,0,1.468-1.989,1.574,1.574,0,0,0-.7-1.349,3.527,3.527,0,0,0-2.034-.378,10.228,10.228,0,0,0-1.449.162c-.558.1-1.134.213-1.728.35s-1.155.285-1.684.442-.971.305-1.332.449c-.143-.371-.263-.681-.359-.927s-.184-.462-.262-.647a2.854,2.854,0,0,1-.116-.3c.359-.071.837-.171,1.431-.3s1.232-.255,1.917-.387,1.341-.246,1.97-.341a13.381,13.381,0,0,1,1.558-.163,5.139,5.139,0,0,1,3.465.829,3.18,3.18,0,0,1,1.2,2.5,3.381,3.381,0,0,1-.773,2.421,5.606,5.606,0,0,1-2.34,1.531,15.617,15.617,0,0,1-3.546.818" fill="#222"/>
    <path id="パス_7427" data-name="パス 7427" d="M14.185,52.74a32.813,32.813,0,0,1-3.294.4A17.445,17.445,0,0,1,7.9,53.1a8.451,8.451,0,0,1-2.43-.585,3.849,3.849,0,0,1-1.629-1.223,3.174,3.174,0,0,1-.585-1.953A3.59,3.59,0,0,1,4.348,46.7,9.273,9.273,0,0,1,7.273,44.82a11.539,11.539,0,0,1-.495-1.862,18.235,18.235,0,0,1-.28-2.376q-.07-1.289-.017-2.638H8.8a15.134,15.134,0,0,0-.072,2.134q.034,1.143.171,2.186a12.415,12.415,0,0,0,.351,1.8q.9-.286,1.9-.557t2.043-.54l.431,2.25a21.206,21.206,0,0,0-3.042.566,16.143,16.143,0,0,0-2.609.919,6.721,6.721,0,0,0-1.827,1.17,1.853,1.853,0,0,0-.675,1.341,1.366,1.366,0,0,0,.72,1.206,4.832,4.832,0,0,0,1.98.6,13.489,13.489,0,0,0,2.889,0,21.979,21.979,0,0,0,3.447-.621,4.62,4.62,0,0,0-.262,1.153,8.006,8.006,0,0,0-.062,1.187" fill="#222"/>
    <path id="パス_7428" data-name="パス 7428" d="M15.12,60.661a9.185,9.185,0,0,0-.9-1.233q-.558-.657-1.189-1.27a9.048,9.048,0,0,0-1.187-.989l1.385-1.261a10.568,10.568,0,0,1,.9.712q.485.422.989.891t.928.918c.281.3.512.564.692.792Z" fill="#222"/>
    <path id="パス_7429" data-name="パス 7429" d="M15.984,90.055a15.082,15.082,0,0,1-4.113-1.845,9.1,9.1,0,0,1-2.979-3.1,7.583,7.583,0,0,1-2.655,3.078,13.516,13.516,0,0,1-4.491,1.854c-.108-.24-.264-.538-.468-.891a4.624,4.624,0,0,0-.63-.873,12.449,12.449,0,0,0,4.041-1.431A5.685,5.685,0,0,0,7.02,84.313H.756V82.459h6.8q.036-.27.054-.567t.018-.6q-2.106.162-4.122.162-.072-.36-.243-.936a4.846,4.846,0,0,0-.369-.936q.99.036,2.25,0t2.61-.144q1.35-.108,2.583-.306a16.13,16.13,0,0,0,2.169-.486q-.126-.414-.3-.864t-.333-.792h-.972q-.378.612-.783,1.143a9.205,9.205,0,0,1-.8.927,6.717,6.717,0,0,0-.783-.558,4.076,4.076,0,0,0-.909-.45,4.519,4.519,0,0,0,.459-.5l.459-.567H6.48q.2.432.36.891t.252.8a4.731,4.731,0,0,0-1.062.144q-.612.144-.972.252-.108-.45-.288-1.026t-.378-1.062H3.834A11.66,11.66,0,0,1,2.16,79.075a6.064,6.064,0,0,0-.855-.549,4.22,4.22,0,0,0-.926-.387A7.079,7.079,0,0,0,1.3,77.131q.468-.612.9-1.305a13.893,13.893,0,0,0,.747-1.35A8.419,8.419,0,0,0,3.4,73.351l2.034.45q-.126.342-.27.711a6.156,6.156,0,0,1-.342.729H8.748v1.44a12.927,12.927,0,0,0,.981-1.728,9.8,9.8,0,0,0,.6-1.566l2.052.432c-.072.228-.153.463-.243.7a7.5,7.5,0,0,1-.315.72h5.022v1.746H14.094q.2.45.387.918t.279.774q-.306.072-.729.189t-.783.243l.972,1.134q-.954.27-2.106.486t-2.376.36c-.025.48-.06.936-.108,1.368h7.308v1.854h-6.39a7.88,7.88,0,0,0,1.818,1.746,11.238,11.238,0,0,0,2.34,1.251,13.658,13.658,0,0,0,2.538.729,4.031,4.031,0,0,0-.486.612c-.169.252-.321.5-.459.756a6.153,6.153,0,0,0-.315.648" fill="#222"/>
    <path id="パス_7430" data-name="パス 7430" d="M1.8,107.875a7.551,7.551,0,0,0-.909-.45A7.8,7.8,0,0,0,0,107.1a10.778,10.778,0,0,0,.918-2.863,21.8,21.8,0,0,0,.288-3.834q0-.954-.026-1.862c-.019-.607-.039-1.066-.064-1.377H2.5c-.061-.276-.142-.6-.243-.963a7.959,7.959,0,0,0-.3-.892L3.8,94.986q.144.416.314,1.054c.115.426.213.8.3,1.125h.918q.163-.47.36-1.125a9.638,9.638,0,0,0,.27-1.071l1.818.324q-.108.378-.279.909c-.114.354-.23.675-.351.963H8.784V98.8H7.057l.792.9a13.9,13.9,0,0,1-1.81,1.332q-1.034.648-1.952,1.115-.18-.324-.486-.764a4.261,4.261,0,0,0-.54-.658,28.232,28.232,0,0,1-.28,3.9,11.277,11.277,0,0,1-.98,3.249m7.254.2a6.381,6.381,0,0,0-.576-.72,7.513,7.513,0,0,0-.7-.683,7.548,7.548,0,0,0,1.134-.649,11.179,11.179,0,0,0,1.17-.909,8.613,8.613,0,0,0,.918-.927H9.324v-9.2h2.088c.072-.191.145-.4.217-.63s.132-.437.18-.63h-3.1v1.1H.774V93.186H3.8V91.459H5.851v1.727H8.568V92.017h8.46v1.709H13.914q-.09.29-.2.622c-.072.222-.145.435-.217.638h2.862v9.2H14.49a8.532,8.532,0,0,0,.937.9,11.2,11.2,0,0,0,1.161.854,10.443,10.443,0,0,0,1.125.64,4.679,4.679,0,0,0-.685.729c-.227.293-.414.548-.557.764a13.739,13.739,0,0,1-3.439-2.916l1.225-.972H11.25l1.261.972a11.3,11.3,0,0,1-1.612,1.611,13.465,13.465,0,0,1-1.844,1.305m-5.2-.18a8.2,8.2,0,0,0-.468-.783,3.724,3.724,0,0,0-.523-.656,12.759,12.759,0,0,0,1.729-.757q.935-.484,1.817-1.061a9.672,9.672,0,0,0,1.441-1.117L9,104.725a13.648,13.648,0,0,1-1.574,1.269A17.259,17.259,0,0,1,5.607,107.1a15.063,15.063,0,0,1-1.754.791m.162-2.952a4.921,4.921,0,0,0-.451-.764,4.984,4.984,0,0,0-.522-.658,11.961,11.961,0,0,0,1.413-.647,17.484,17.484,0,0,0,1.539-.918,11.275,11.275,0,0,0,1.3-.99l1.17,1.151a12.736,12.736,0,0,1-1.331,1.044q-.758.524-1.567.982c-.54.305-1.055.573-1.547.8m-.954-4.229a12,12,0,0,0,1.1-.5c.4-.2.792-.43,1.189-.676A12.7,12.7,0,0,0,6.408,98.8H3.061Zm8.244-3.061h3.1V96.606h-3.1Zm0,2.431h3.1V99.037h-3.1Zm0,2.483h3.1v-1.1h-3.1Z" fill="#222"/>
    <path id="パス_7431" data-name="パス 7431" d="M10.243,124.683a3.467,3.467,0,0,0-.27-.685,6.04,6.04,0,0,0-.459-.764,3.841,3.841,0,0,0-.514-.6,6.772,6.772,0,0,0,3.754-1.611,4.161,4.161,0,0,0,1.359-2.908,4.441,4.441,0,0,0-.487-2.376,4.686,4.686,0,0,0-3.635-2.465,25.424,25.424,0,0,1-.54,3.42,17.935,17.935,0,0,1-1.071,3.276,9.464,9.464,0,0,1-1.647,2.592,2.727,2.727,0,0,1-1.431.918,2.571,2.571,0,0,1-1.468-.2A3.494,3.494,0,0,1,2.5,122.253a4.971,4.971,0,0,1-.882-1.665,5.772,5.772,0,0,1-.252-2.062,7.446,7.446,0,0,1,2.61-5.345,7.876,7.876,0,0,1,2.645-1.494,8.48,8.48,0,0,1,3.187-.414,7.148,7.148,0,0,1,2.574.612,6.723,6.723,0,0,1,3.519,3.672,6.736,6.736,0,0,1-1.323,6.848,8.378,8.378,0,0,1-4.338,2.278m-5.85-3.636a.694.694,0,0,0,.414.144.626.626,0,0,0,.432-.216,6.352,6.352,0,0,0,1.2-1.836,14.908,14.908,0,0,0,.918-2.683,17.825,17.825,0,0,0,.477-3.042,5.591,5.591,0,0,0-3.726,2.871,5.723,5.723,0,0,0-.63,2.35A3.393,3.393,0,0,0,3.7,120.1a2.22,2.22,0,0,0,.693.945" fill="#222"/>
    <path id="パス_7432" data-name="パス 7432" d="M10.026,143.694a5.164,5.164,0,0,0-.305-.918,3.559,3.559,0,0,0-.54-.918,6.164,6.164,0,0,0,3.383-1.322,3.266,3.266,0,0,0,1.117-2.512,2.647,2.647,0,0,0-.442-1.539,2.947,2.947,0,0,0-1.232-1,18.4,18.4,0,0,1-3.151,4.3c.073.228.147.447.225.656s.159.417.243.621a3.937,3.937,0,0,0-.647.235c-.241.107-.475.219-.7.333a4.041,4.041,0,0,0-.54.314c-.047-.119-.1-.242-.144-.368s-.1-.249-.144-.369a7.267,7.267,0,0,1-1.925.963,4.092,4.092,0,0,1-1.819.171,1.994,1.994,0,0,1-1.125-.639,2.373,2.373,0,0,1-.531-1.7,5.328,5.328,0,0,1,.576-2.448A6.888,6.888,0,0,1,3.9,135.531a8.181,8.181,0,0,1,2.278-1.43c0-.361.008-.717.026-1.072s.033-.7.045-1.052c-.72.047-1.389.078-2.007.089a11.485,11.485,0,0,1-1.539-.053l-.162-1.945q.7.074,1.71.09c.672.013,1.393-.006,2.16-.053.061-.432.117-.846.171-1.243s.117-.767.189-1.115l2,.378q-.18.828-.324,1.817,1.332-.143,2.547-.377a15.907,15.907,0,0,0,2.062-.522l.179,1.89a20.12,20.12,0,0,1-2.232.5q-1.332.234-2.772.378-.036.414-.053.846t-.036.863a8.583,8.583,0,0,1,1.673-.162c.18,0,.357.007.532.019s.344.03.512.054q.144-.342.27-.694t.234-.711l1.962.54q-.126.343-.252.666t-.269.649a5.081,5.081,0,0,1,2.24,1.629,4.041,4.041,0,0,1,.819,2.529,5.142,5.142,0,0,1-.711,2.709,5.47,5.47,0,0,1-2.015,1.926,8.828,8.828,0,0,1-3.106,1.016m-5.256-3.42a3.4,3.4,0,0,0,.837-.359,7.062,7.062,0,0,0,1-.7q-.142-.756-.243-1.566t-.135-1.638a5.611,5.611,0,0,0-1.791,1.6,3.411,3.411,0,0,0-.674,2c0,.373.089.6.269.675a1.136,1.136,0,0,0,.738-.009m3.6-2.771q.432-.523.864-1.134a14.024,14.024,0,0,0,.811-1.3H9.81a7.791,7.791,0,0,0-.845.046,6.892,6.892,0,0,0-.811.135q.054,1.134.216,2.25" fill="#222"/>
    <path id="パス_7433" data-name="パス 7433" d="M3.312,158.545a5.859,5.859,0,0,0-.828-.576,5.737,5.737,0,0,0-.99-.486,14.8,14.8,0,0,0,2-3,22.313,22.313,0,0,0,1.458-3.573q-.9.126-1.674.216c-.515.06-.93.1-1.242.126l-.27-2q.63,0,1.629-.09t2.1-.252q.2-.846.307-1.665t.143-1.593l2,.288q-.144,1.35-.378,2.628c.42-.083.826-.171,1.215-.261s.741-.177,1.053-.261l.27,1.89q-.558.162-1.34.324t-1.665.306a24.753,24.753,0,0,1-1.584,4.284,23.672,23.672,0,0,1-2.2,3.69M8.28,161.7a3.191,3.191,0,0,1-2.178-.864,2.56,2.56,0,0,1-.774-1.926,2.243,2.243,0,0,1,.928-1.782,3.794,3.794,0,0,1,2.547-.666c.168.012.335.021.5.027a4.383,4.383,0,0,1,.486.045v-4.086h2.053v4.572a10.436,10.436,0,0,1,1.953.882,15.337,15.337,0,0,1,1.791,1.224,4.509,4.509,0,0,0-.694.828,5.961,5.961,0,0,0-.549.954,14.577,14.577,0,0,0-1.206-.981,9.12,9.12,0,0,0-1.314-.8q-.18,2.736-3.546,2.574m.162-1.8a1.434,1.434,0,0,0,1.017-.315,1.488,1.488,0,0,0,.333-1.107v-.126a7.2,7.2,0,0,0-1.152-.162,1.824,1.824,0,0,0-.981.2.716.716,0,0,0-.387.612.756.756,0,0,0,.288.648,1.355,1.355,0,0,0,.882.252m6.3-7.092a6.84,6.84,0,0,0-.773-.684c-.325-.253-.673-.5-1.044-.756s-.742-.48-1.108-.684a6.264,6.264,0,0,0-.963-.45l1.062-1.584q.432.18,1.009.477t1.17.666q.592.369,1.1.729a7.938,7.938,0,0,1,.828.666Z" fill="#222"/>
    <path id="パス_7434" data-name="パス 7434" d="M3.456,179.425a6.8,6.8,0,0,0-1.025-.513,6.935,6.935,0,0,0-1.1-.369,12.56,12.56,0,0,0,.973-1.7q.5-1.036,1.007-2.3t.972-2.646q.47-1.377.847-2.709-1.027.09-1.936.126c-.606.024-1.106.024-1.5,0l-.2-2.16a17.255,17.255,0,0,0,1.863.054q1.125-.018,2.331-.126.235-.936.369-1.728a13.039,13.039,0,0,0,.171-1.4l2.25.307c-.047.348-.12.735-.215,1.161s-.2.885-.325,1.377c.493-.084.954-.178,1.386-.279a10.029,10.029,0,0,0,1.1-.316l.323,2.017q-.558.18-1.448.369t-1.936.333q-.395,1.421-.882,2.925t-1.007,2.925q-.523,1.422-1.036,2.619t-.981,2.043m12.2-.756a14.687,14.687,0,0,1-3.663.144,9.984,9.984,0,0,1-2.987-.7,4.631,4.631,0,0,1-1.9-1.349l1.1-1.62a4.554,4.554,0,0,0,1.773,1.052,9.14,9.14,0,0,0,2.682.469,14.986,14.986,0,0,0,3.357-.279,5.045,5.045,0,0,0-.279,1.134,6.614,6.614,0,0,0-.081,1.152m-.54-6.372a11.471,11.471,0,0,0-1.367-.352q-.776-.152-1.63-.242c-.569-.06-1.128-.1-1.674-.117s-1.041-.016-1.484.009l.269-2.107a14.773,14.773,0,0,1,1.522.01q.872.043,1.817.135t1.8.225c.57.089,1.059.183,1.468.279Z" fill="#222"/>
    <path id="パス_7435" data-name="パス 7435" d="M2.755,197.065a3.574,3.574,0,0,0-.505-.4q-.34-.234-.7-.432a3.091,3.091,0,0,0-.612-.27A11.919,11.919,0,0,0,2.395,194a25.507,25.507,0,0,0,1.332-2.529,28.4,28.4,0,0,0,1.116-2.809q-.918.109-1.773.253c-.571.1-1.041.192-1.413.287q-.018-.232-.09-.629c-.048-.264-.1-.525-.162-.783a2.756,2.756,0,0,0-.18-.567c.275-.024.636-.057,1.08-.1s.936-.09,1.476-.144,1.08-.1,1.62-.135q.324-1.134.531-2.223a18.239,18.239,0,0,0,.278-2.025l2.124.378q-.089.828-.287,1.773t-.486,1.935q.36-.018.647-.027c.193-.006.361-.009.505-.009a3.467,3.467,0,0,1,1.287.225,1.841,1.841,0,0,1,.909.792,3.4,3.4,0,0,1,.4,1.566,11.217,11.217,0,0,1-.234,2.547,15.44,15.44,0,0,1-.82,3.042,3.3,3.3,0,0,1-1.142,1.548,3.126,3.126,0,0,1-1.746.45,4.255,4.255,0,0,1-1.89-.4c.012-.288.012-.635,0-1.044a5.473,5.473,0,0,0-.108-1.008,4.357,4.357,0,0,0,1.764.4,1.184,1.184,0,0,0,.746-.243,2.309,2.309,0,0,0,.6-.972,13.652,13.652,0,0,0,.576-2.151,7.571,7.571,0,0,0,.216-1.953,1.085,1.085,0,0,0-.342-.837,1.243,1.243,0,0,0-.721-.2q-.5,0-1.205.054-.559,1.674-1.269,3.294t-1.476,3a17.423,17.423,0,0,1-1.5,2.313m13.121-4.68a12.541,12.541,0,0,0-.792-1.152q-.5-.666-1.1-1.341t-1.153-1.242a7.248,7.248,0,0,0-.971-.855l1.584-1.332a11.631,11.631,0,0,1,1.008.873q.575.549,1.188,1.2t1.134,1.279a10.25,10.25,0,0,1,.81,1.1Zm-.413-5.688a8.243,8.243,0,0,0-1.179-.918,10.153,10.153,0,0,0-1.251-.72l.756-1.008a8.357,8.357,0,0,1,.783.44q.477.3.945.613a7.856,7.856,0,0,1,.738.549Zm1.224-1.728a8.729,8.729,0,0,0-1.2-.909,9.037,9.037,0,0,0-1.251-.694l.756-1.025c.2.1.464.24.783.432s.635.393.954.6a7.519,7.519,0,0,1,.747.549Z" fill="#222"/>
    <path id="パス_7436" data-name="パス 7436" d="M13.482,215.587a8.912,8.912,0,0,1-3.321-.4A4.918,4.918,0,0,1,7.893,213.7a3.655,3.655,0,0,1-.819-2.411,3.8,3.8,0,0,1,.378-1.692A4.637,4.637,0,0,1,8.5,208.207q-1.206.252-2.358.54t-2.079.575a11,11,0,0,0-1.485.559l-.792-2.017q.216-.034.648-.126t1.188-.252a4.273,4.273,0,0,0,1.512-.719,15.054,15.054,0,0,0,1.683-1.377,20.044,20.044,0,0,0,1.593-1.674,15.784,15.784,0,0,0,1.224-1.629q-.7.16-1.521.324t-1.566.27q-.747.108-1.251.143l-.63-2q.666,0,1.566-.081t1.818-.207q.918-.126,1.692-.306a8.008,8.008,0,0,0,1.206-.36l1.8,1.151a12.948,12.948,0,0,1-1.08,1.765,19.028,19.028,0,0,1-1.629,1.98A16.889,16.889,0,0,1,8.01,206.6q1.422-.288,2.8-.577t2.448-.512q1.071-.225,1.575-.316l.342,2.089q-.342,0-.828.035t-1.062.126a5.871,5.871,0,0,0-1.953.586,4,4,0,0,0-1.476,1.251,3.19,3.19,0,0,0-.567,1.907,1.652,1.652,0,0,0,.63,1.332,3.759,3.759,0,0,0,1.746.73,9.879,9.879,0,0,0,2.538.1,4.376,4.376,0,0,0-.486,1.116,5.612,5.612,0,0,0-.234,1.116" fill="#222"/>
    <path id="パス_7437" data-name="パス 7437" d="M7.759,232.2a8.048,8.048,0,0,1-2.151-.261,3.568,3.568,0,0,1-1.62-.944,5.06,5.06,0,0,1-1.107-1.908l1.907-1.044a2.329,2.329,0,0,0,.955,1.422,3.577,3.577,0,0,0,2.016.485q1.152,0,2.376-.107t2.3-.306a11.683,11.683,0,0,0,1.782-.45c0,.191.015.444.045.756s.072.618.126.918.1.534.153.7a11.265,11.265,0,0,1-1.837.4q-1.116.163-2.4.252t-2.547.09M4.933,221.616l-.019-2.178a7.161,7.161,0,0,0,1.306.252q.783.092,1.692.109c.606.011,1.214,0,1.827-.028s1.175-.078,1.692-.143a7.365,7.365,0,0,0,1.277-.262v2.2a6.7,6.7,0,0,1-1.223.235c-.516.059-1.08.1-1.693.134s-1.229.039-1.853.028-1.2-.048-1.729-.109a7.516,7.516,0,0,1-1.277-.234" fill="#222"/>
    <path id="パス_7438" data-name="パス 7438" d="M2.557,250.723a17.983,17.983,0,0,1-.2-1.809q-.072-1.071-.1-2.341t0-2.618q.027-1.35.107-2.637t.216-2.385a18.221,18.221,0,0,1,.316-1.872l2.106.432a11.216,11.216,0,0,0-.343,1.683q-.143,1.035-.233,2.268t-.117,2.529q-.028,1.3.008,2.52t.126,2.214a11.964,11.964,0,0,0,.235,1.6Zm7.649-.972q-3.114-.09-3.527-2.034a3.859,3.859,0,0,1-.072-1.08,5.34,5.34,0,0,1,.269-1.315l1.891.469a1.99,1.99,0,0,0-.135.612,1.385,1.385,0,0,0,.062.486q.235.648,1.909.7a15.946,15.946,0,0,0,1.737-.063c.617-.054,1.224-.135,1.817-.243a14.858,14.858,0,0,0,1.558-.36c-.024.168-.052.4-.081.684s-.052.579-.064.873-.011.537,0,.729a15.408,15.408,0,0,1-1.808.342q-.964.126-1.891.171t-1.665.027m-2.7-8.784-.126-2.214a15.238,15.238,0,0,0,1.674.108c.659.012,1.347,0,2.06-.027s1.4-.084,2.052-.162a11.22,11.22,0,0,0,1.63-.3l-.091,2.178q-.719.126-1.674.225c-.635.066-1.293.117-1.97.153s-1.326.057-1.945.063-1.155,0-1.61-.027" fill="#222"/>
    <path id="パス_7439" data-name="パス 7439" d="M4.986,269.82v-5.886H8.694v-1.656h-4.5a19.009,19.009,0,0,1-.711,4.077,13.3,13.3,0,0,1-1.449,3.286,3.064,3.064,0,0,0-.549-.342c-.234-.12-.476-.232-.728-.333a3.88,3.88,0,0,0-.631-.207,12.749,12.749,0,0,0,1.477-3.5,18.541,18.541,0,0,0,.521-4.69v-6.5H15.589v4.9H11v1.62h6.049v1.691H11v1.656h3.889v5.886Zm-.738-12.636h9.2v-1.313h-9.2Zm0,3.4H8.694v-1.62H4.248Zm2.935,7.4h5.508V265.77H7.183Z" fill="#222"/>
    <path id="パス_7440" data-name="パス 7440" d="M6.355,287.568a3.526,3.526,0,0,1-2.376-.845,2.521,2.521,0,0,1-.828-1.963,2.253,2.253,0,0,1,.5-1.386,3.162,3.162,0,0,1,1.35-.953,4.754,4.754,0,0,1,2-.288,5.5,5.5,0,0,1,.585.028c.186.017.374.039.567.062L8.1,280.152q-.306.02-.621.019H6.859a6.6,6.6,0,0,1-1.7-.172,2.038,2.038,0,0,1-.99-.575,5,5,0,0,1-.728-1.125l1.692-.845a1.222,1.222,0,0,0,.594.62,3.566,3.566,0,0,0,1.17.134c.179,0,.369,0,.567-.008s.4-.015.6-.027c-.012-.325-.022-.654-.028-.991s-.014-.666-.026-.989c-.876.049-1.7.08-2.484.1s-1.386.021-1.819.009l-.09-2.015q.63.051,1.819.043t2.538-.063q-.02-.646-.019-1.241v-1.1h2.089v1.045q0,.557.018,1.17,1.223-.09,2.25-.207a12.238,12.238,0,0,0,1.511-.243v1.98a13.733,13.733,0,0,1-1.5.207q-1.017.1-2.242.188c.012.325.022.651.028.982s.014.658.027.981q1.062-.109,2.016-.261a10.751,10.751,0,0,0,1.511-.333v2.105q-.664.145-1.574.271t-1.917.216c.024.48.038.942.045,1.386s.015.858.026,1.241a14.423,14.423,0,0,1,2.521.936,20.156,20.156,0,0,1,2.231,1.26,3.14,3.14,0,0,0-.512.532q-.281.351-.513.71a6.914,6.914,0,0,0-.36.612,12.39,12.39,0,0,0-3.312-2.015,2.755,2.755,0,0,1-.945,2.151,4.313,4.313,0,0,1-3,.728m.072-1.925a2.162,2.162,0,0,0,1.35-.271.957.957,0,0,0,.414-.809v-.5c-.252-.049-.5-.084-.747-.108a7.217,7.217,0,0,0-.729-.036,2.155,2.155,0,0,0-1.152.252.724.724,0,0,0-.4.612q0,.809,1.261.864" fill="#222"/>
    <path id="パス_7441" data-name="パス 7441" d="M6.084,305.839q-.216-.36-.576-.864a4.083,4.083,0,0,0-.828-.865,9.981,9.981,0,0,0,2.934-1.251,3.807,3.807,0,0,0,1.422-1.682,2.556,2.556,0,0,1-1.152.288,3.115,3.115,0,0,1-2.2-.775,2.874,2.874,0,0,1-.891-2.087,3.005,3.005,0,0,1,.36-1.612,2.927,2.927,0,0,1,1.116-1.125,3.236,3.236,0,0,1,1.638-.413q.144,0,.252.009c.072.006.15.015.234.026-.024-.216-.048-.437-.072-.666a6.864,6.864,0,0,1-.036-.719q-1.458.054-2.844.162t-2.538.243a17.279,17.279,0,0,0-1.908.314l-.306-2.088q.648-.054,1.819-.116t2.672-.136q1.5-.07,3.1-.143V289.8h2.088v2.448q1.4-.054,2.682-.1t2.287-.071q1.006-.027,1.584-.01l-.145,2.107q-1.044-.126-2.763-.154t-3.645.009c0,.433.015.87.045,1.315s.057.87.081,1.278a4.149,4.149,0,0,1,.882,2.771,6,6,0,0,1-1.386,4.024,8.206,8.206,0,0,1-3.906,2.421M7.9,299.665a1.151,1.151,0,0,0,.792-.343,1.107,1.107,0,0,0,.288-.792,2.49,2.49,0,0,0-.027-.35c-.018-.126-.039-.261-.063-.406a1.212,1.212,0,0,0-.954-.431,1.179,1.179,0,0,0-.846.324,1.036,1.036,0,0,0-.324.828,1.194,1.194,0,0,0,.315.855,1.022,1.022,0,0,0,.819.315" fill="#222"/>
    <path id="パス_7442" data-name="パス 7442" d="M14.148,313.093a2.511,2.511,0,0,1-1.332-.361,2.7,2.7,0,0,1-.945-.954,2.531,2.531,0,0,1-.351-1.313,2.559,2.559,0,0,1,.36-1.351,2.712,2.712,0,0,1,.954-.944,2.628,2.628,0,0,1,2.628,0,2.72,2.72,0,0,1,.954.944,2.559,2.559,0,0,1,.36,1.351,2.585,2.585,0,0,1-.351,1.323,2.617,2.617,0,0,1-.945.953,2.56,2.56,0,0,1-1.332.352m0-1.008a1.565,1.565,0,0,0,1.161-.486,1.591,1.591,0,0,0,.477-1.153,1.559,1.559,0,0,0-.477-1.142,1.58,1.58,0,0,0-1.161-.477,1.629,1.629,0,0,0-1.62,1.619A1.607,1.607,0,0,0,13,311.6a1.536,1.536,0,0,0,1.152.486" fill="#222"/>
  </g>
</svg>
