<svg xmlns="http://www.w3.org/2000/svg" width="523.782" height="120.512" viewBox="0 0 523.782 120.512">
  <g id="グループ_605" data-name="グループ 605" transform="translate(-86.372 -200.79)">
    <path id="パス_7524" data-name="パス 7524" d="M-260.631-46.782h9.712V0h-9.712Zm56,46.782H-214.4L-233.51-33.23V0h-9.109V-46.782h10.251l18.63,32.659V-46.782h9.109Zm42.451-46.782V-38.5h-14V0h-9.839V-38.5h-14.06v-8.284Zm37.626,26.343h-22.725V-8.411h25.9V0h-35.452V-46.782h34.309V-38.5h-24.756v9.934h22.725Zm30.009,2.095h-10.093V0h-9.553V-46.782h22.947a21.378,21.378,0,0,1,7.57,1.206,11.826,11.826,0,0,1,4.491,3.269,14.485,14.485,0,0,1,2.412,3.936,12.827,12.827,0,0,1,.889,4.919A14.016,14.016,0,0,1-77.562-26.9a9.4,9.4,0,0,1-5.554,4.554,8.735,8.735,0,0,1,4.586,3.7q1.349,2.4,1.349,7.316v3.142a24.034,24.034,0,0,0,.254,4.348A3.905,3.905,0,0,0-75.15-1.174V0H-85.909q-.444-1.555-.635-2.507a23.036,23.036,0,0,1-.413-4.031l-.063-4.348q-.063-4.475-1.635-5.967T-94.542-18.345Zm5.935-8.506q2.92-1.333,2.92-5.269,0-4.253-2.825-5.713a10.675,10.675,0,0,0-4.761-.825h-11.362v12.568h11.077A12.345,12.345,0,0,0-88.607-26.851Zm19.726-19.932h9.712V0h-9.712ZM-30.017,1.3q-10.029,0-15.33-5.459-7.109-6.7-7.109-19.3,0-12.854,7.109-19.3,5.3-5.459,15.33-5.459t15.33,5.459q7.078,6.443,7.078,19.3,0,12.6-7.078,19.3Q-19.987,1.3-30.017,1.3Zm9.236-12.568q3.4-4.285,3.4-12.187,0-7.871-3.412-12.172a11.15,11.15,0,0,0-9.22-4.3,11.3,11.3,0,0,0-9.268,4.285q-3.459,4.285-3.459,12.188t3.459,12.188a11.3,11.3,0,0,0,9.268,4.285A11.21,11.21,0,0,0-20.781-11.267Zm39.848-7.078H8.974V0H-.579V-46.782H22.368a21.378,21.378,0,0,1,7.57,1.206,11.826,11.826,0,0,1,4.491,3.269,14.485,14.485,0,0,1,2.412,3.936,12.827,12.827,0,0,1,.889,4.919A14.016,14.016,0,0,1,36.047-26.9a9.4,9.4,0,0,1-5.554,4.554,8.735,8.735,0,0,1,4.586,3.7q1.349,2.4,1.349,7.316v3.142a24.034,24.034,0,0,0,.254,4.348,3.905,3.905,0,0,0,1.777,2.666V0H27.7q-.444-1.555-.635-2.507a23.037,23.037,0,0,1-.413-4.031l-.063-4.348q-.063-4.475-1.635-5.967T19.067-18.345ZM25-26.851q2.92-1.333,2.92-5.269,0-4.253-2.825-5.713a10.675,10.675,0,0,0-4.761-.825H8.974v12.568H20.051A12.345,12.345,0,0,0,25-26.851ZM79.879-6.76A17.214,17.214,0,0,0,85.5-7.522q4.094-1.46,4.094-5.427a4,4,0,0,0-2.031-3.586,21.843,21.843,0,0,0-6.379-2.19l-4.951-1.111q-7.3-1.65-10.093-3.586-4.729-3.237-4.729-10.125a13.52,13.52,0,0,1,4.57-10.442q4.57-4.158,13.425-4.158a20.412,20.412,0,0,1,12.616,3.92q5.221,3.92,5.475,11.378H88.1a6.711,6.711,0,0,0-3.682-6,12.347,12.347,0,0,0-5.681-1.174,10.607,10.607,0,0,0-6.03,1.523,4.851,4.851,0,0,0-2.253,4.253A4.025,4.025,0,0,0,72.674-30.5a27.2,27.2,0,0,0,6.094,1.936l8.062,1.936a20.842,20.842,0,0,1,8,3.4q4.189,3.3,4.189,9.553a13.482,13.482,0,0,1-4.9,10.648Q89.21,1.206,80.26,1.206q-9.141,0-14.377-4.174a13.869,13.869,0,0,1-5.237-11.473h9.331a9.606,9.606,0,0,0,1.746,4.792Q74.1-6.76,79.879-6.76ZM139.6-46.782V-38.5h-14V0H115.76V-38.5H101.7v-8.284Zm42.831,0-15.647,29.2V0H157V-17.583l-16.187-29.2h11.521l9.712,20.376,9.3-20.376Zm4.936,0h9.775V-8.411h23.169V0H187.363Zm71.618,26.343H236.256V-8.411h25.9V0H226.7V-46.782h34.309V-38.5H236.256v9.934h22.725Z" transform="translate(348 320)" fill="#222"/>
    <path id="パス_7523" data-name="パス 7523" d="M-137.461-38.5h-23.455v10.759h20.535v8.125h-20.535V0h-9.712V-46.719h33.167Zm5.126-8.284h9.712V0h-9.712ZM-76.332,0h-9.775l-19.106-33.23V0h-9.109V-46.782h10.251l18.63,32.659V-46.782h9.109Zm28.613,0H-67.873V-46.782h20.154a24.588,24.588,0,0,1,7.236,1.016,15.444,15.444,0,0,1,7.966,5.935,20.819,20.819,0,0,1,3.333,7.554,36.262,36.262,0,0,1,.889,7.744q0,9.331-3.745,15.806Q-37.119,0-47.719,0Zm7.268-34.849q-2.253-3.809-8.918-3.809h-9.014V-8.125h9.014q6.919,0,9.648-6.824a24.068,24.068,0,0,0,1.492-8.918Q-38.229-31.008-40.451-34.849Zm72.9-11.934-15.647,29.2V0H7.031V-17.583l-16.187-29.2H2.365l9.712,20.376,9.3-20.376ZM58.082,1.3q-10.029,0-15.33-5.459-7.109-6.7-7.109-19.3,0-12.854,7.109-19.3,5.3-5.459,15.33-5.459t15.33,5.459q7.078,6.443,7.078,19.3,0,12.6-7.078,19.3Q68.112,1.3,58.082,1.3Zm9.236-12.568q3.4-4.285,3.4-12.187,0-7.871-3.412-12.172a11.15,11.15,0,0,0-9.22-4.3,11.3,11.3,0,0,0-9.268,4.285q-3.459,4.285-3.459,12.188t3.459,12.188a11.3,11.3,0,0,0,9.268,4.285A11.21,11.21,0,0,0,67.318-11.267Zm47.656-6.76V-46.782h9.934v28.755q0,7.458-2.317,11.616-4.316,7.617-16.472,7.617t-16.5-7.617Q87.3-10.569,87.3-18.027V-46.782h9.934v28.755q0,4.824,1.143,7.046,1.777,3.936,7.744,3.936,5.935,0,7.712-3.936Q114.974-13.2,114.974-18.027Zm38.483-.317H143.364V0h-9.553V-46.782h22.947a21.378,21.378,0,0,1,7.57,1.206,11.826,11.826,0,0,1,4.491,3.269,14.485,14.485,0,0,1,2.412,3.936,12.827,12.827,0,0,1,.889,4.919,14.016,14.016,0,0,1-1.682,6.554,9.4,9.4,0,0,1-5.554,4.554,8.735,8.735,0,0,1,4.586,3.7q1.349,2.4,1.349,7.316v3.142a24.034,24.034,0,0,0,.254,4.348,3.905,3.905,0,0,0,1.777,2.666V0H162.09q-.444-1.555-.635-2.507a23.037,23.037,0,0,1-.413-4.031l-.063-4.348q-.063-4.475-1.635-5.967T153.457-18.345Zm5.935-8.506q2.92-1.333,2.92-5.269,0-4.253-2.825-5.713a10.675,10.675,0,0,0-4.761-.825H143.364v12.568h11.077A12.345,12.345,0,0,0,159.392-26.851Z" transform="translate(257 249)" fill="#222"/>
  </g>
</svg>
