<svg xmlns="http://www.w3.org/2000/svg" width="253.194" height="59.613" viewBox="0 0 253.194 59.613">
  <g id="グループ_778" data-name="グループ 778" transform="translate(-20.694 -32.007)">
    <path id="パス_8342" data-name="パス 8342" d="M-126.161-22.312h4.632V0h-4.632ZM-99.142,0H-103.8l-9.112-15.848V0h-4.344V-22.312h4.889l8.885,15.576V-22.312h4.344Zm20.556-22.312v3.951h-6.675V0h-4.692V-18.361h-6.706v-3.951ZM-60.331-9.748H-71.169v5.737h12.352V0H-75.725V-22.312h16.363v3.951H-71.169v4.738h10.838Zm14.622,1h-4.813V0h-4.556V-22.312h10.944a10.2,10.2,0,0,1,3.61.575,5.64,5.64,0,0,1,2.142,1.559,6.908,6.908,0,0,1,1.15,1.877,6.118,6.118,0,0,1,.424,2.346,6.684,6.684,0,0,1-.8,3.126,4.484,4.484,0,0,1-2.649,2.172,4.166,4.166,0,0,1,2.187,1.763A7.341,7.341,0,0,1-37.429-5.4v1.5a11.462,11.462,0,0,0,.121,2.074A1.863,1.863,0,0,0-36.461-.56V0h-5.131q-.212-.742-.3-1.2a10.987,10.987,0,0,1-.2-1.922l-.03-2.074a4.052,4.052,0,0,0-.78-2.846A4.136,4.136,0,0,0-45.709-8.749Zm2.831-4.057a2.486,2.486,0,0,0,1.393-2.513,2.773,2.773,0,0,0-1.347-2.725,5.091,5.091,0,0,0-2.271-.394h-5.419v5.994h5.283A5.888,5.888,0,0,0-42.879-12.806Zm9.718-9.506h4.632V0h-4.632ZM-14.316.621q-4.783,0-7.311-2.6-3.391-3.194-3.391-9.2,0-6.13,3.391-9.2,2.528-2.6,7.311-2.6T-7-20.389q3.375,3.073,3.375,9.2,0,6.009-3.375,9.2Q-9.533.621-14.316.621Zm4.4-5.994a9.162,9.162,0,0,0,1.62-5.812,9.137,9.137,0,0,0-1.627-5.8,5.318,5.318,0,0,0-4.4-2.051A5.389,5.389,0,0,0-18.736-17a9.041,9.041,0,0,0-1.65,5.813,9.041,9.041,0,0,0,1.65,5.813,5.389,5.389,0,0,0,4.42,2.043A5.347,5.347,0,0,0-9.911-5.374Zm19-3.375H4.28V0H-.276V-22.312H10.668a10.2,10.2,0,0,1,3.61.575,5.64,5.64,0,0,1,2.142,1.559A6.908,6.908,0,0,1,17.57-18.3a6.117,6.117,0,0,1,.424,2.346,6.685,6.685,0,0,1-.8,3.126,4.484,4.484,0,0,1-2.649,2.172A4.166,4.166,0,0,1,16.73-8.893,7.341,7.341,0,0,1,17.373-5.4v1.5a11.462,11.462,0,0,0,.121,2.074A1.863,1.863,0,0,0,18.342-.56V0H13.211q-.212-.742-.3-1.2a10.987,10.987,0,0,1-.2-1.922l-.03-2.074a4.052,4.052,0,0,0-.78-2.846A4.136,4.136,0,0,0,9.094-8.749Zm2.831-4.057a2.486,2.486,0,0,0,1.393-2.513,2.773,2.773,0,0,0-1.347-2.725A5.091,5.091,0,0,0,9.7-18.437H4.28v5.994H9.563A5.888,5.888,0,0,0,11.924-12.806ZM38.716-3.224A8.21,8.21,0,0,0,41.4-3.587a2.589,2.589,0,0,0,1.953-2.588,1.91,1.91,0,0,0-.969-1.71,10.417,10.417,0,0,0-3.042-1.044l-2.361-.53a14.922,14.922,0,0,1-4.813-1.71A5.44,5.44,0,0,1,29.907-16a6.448,6.448,0,0,1,2.18-4.98q2.18-1.983,6.4-1.983a9.735,9.735,0,0,1,6.017,1.869,6.675,6.675,0,0,1,2.611,5.427h-4.48a3.2,3.2,0,0,0-1.756-2.861,5.889,5.889,0,0,0-2.709-.56,5.059,5.059,0,0,0-2.876.727,2.314,2.314,0,0,0-1.075,2.028,1.92,1.92,0,0,0,1.06,1.786,12.97,12.97,0,0,0,2.906.923l3.845.923a9.94,9.94,0,0,1,3.814,1.62,5.455,5.455,0,0,1,2,4.556A6.43,6.43,0,0,1,45.5-1.446,9.8,9.8,0,0,1,38.9.575a10.717,10.717,0,0,1-6.857-1.99,6.614,6.614,0,0,1-2.5-5.472h4.45A4.582,4.582,0,0,0,34.826-4.6Q35.961-3.224,38.716-3.224Zm28.79-19.087v3.951H60.831V0H56.138V-18.361H49.433v-3.951Zm20.737,0L80.781-8.386V0H76.119V-8.386L68.4-22.312h5.495l4.632,9.718,4.435-9.718Zm2.664,0H95.57v18.3h11.05V0H90.908ZM125.374-9.748H114.536v5.737h12.352V0H109.98V-22.312h16.363v3.951H114.536v4.738h10.838Z" transform="translate(147 91)" fill="#222"/>
    <path id="パス_8341" data-name="パス 8341" d="M-66.488-18.361H-77.674v5.131h9.793v3.875h-9.793V0h-4.632V-22.281h15.818Zm2.755-3.951H-59.1V0h-4.632ZM-36.714,0h-4.662l-9.112-15.848V0h-4.344V-22.312h4.889l8.885,15.576V-22.312h4.344Zm13.956,0H-32.37V-22.312h9.612a11.727,11.727,0,0,1,3.451.484A7.366,7.366,0,0,1-15.508-19a9.929,9.929,0,0,1,1.589,3.6,17.294,17.294,0,0,1,.424,3.693,14.83,14.83,0,0,1-1.786,7.538A8.059,8.059,0,0,1-22.758,0Zm3.466-16.62q-1.075-1.816-4.253-1.816h-4.3V-3.875h4.3a4.643,4.643,0,0,0,4.6-3.254,11.478,11.478,0,0,0,.711-4.253A10.579,10.579,0,0,0-19.292-16.62ZM16.1-22.312,8.635-8.386V0H3.973V-8.386l-7.72-13.926H1.748L6.38-12.594l4.435-9.718ZM28.011.621q-4.783,0-7.311-2.6-3.391-3.194-3.391-9.2,0-6.13,3.391-9.2,2.528-2.6,7.311-2.6t7.311,2.6q3.375,3.073,3.375,9.2,0,6.009-3.375,9.2Q32.794.621,28.011.621Zm4.4-5.994a9.162,9.162,0,0,0,1.62-5.812,9.137,9.137,0,0,0-1.627-5.8,5.318,5.318,0,0,0-4.4-2.051A5.389,5.389,0,0,0,23.591-17a9.041,9.041,0,0,0-1.65,5.813,9.041,9.041,0,0,0,1.65,5.813,5.389,5.389,0,0,0,4.42,2.043A5.347,5.347,0,0,0,32.416-5.374ZM55.454-8.6V-22.312h4.738V-8.6a11.487,11.487,0,0,1-1.1,5.54Q57.028.575,51.231.575T43.359-3.058a11.487,11.487,0,0,1-1.1-5.54V-22.312h4.738V-8.6a7.744,7.744,0,0,0,.545,3.36q.848,1.877,3.693,1.877,2.831,0,3.678-1.877A7.744,7.744,0,0,0,55.454-8.6Zm18.664-.151H69.3V0H64.748V-22.312H75.691a10.2,10.2,0,0,1,3.61.575,5.64,5.64,0,0,1,2.142,1.559,6.908,6.908,0,0,1,1.15,1.877,6.117,6.117,0,0,1,.424,2.346,6.685,6.685,0,0,1-.8,3.126,4.484,4.484,0,0,1-2.649,2.172,4.166,4.166,0,0,1,2.187,1.763A7.341,7.341,0,0,1,82.4-5.4v1.5a11.463,11.463,0,0,0,.121,2.074A1.863,1.863,0,0,0,83.366-.56V0H78.234q-.212-.742-.3-1.2a10.987,10.987,0,0,1-.2-1.922L77.7-5.192a4.052,4.052,0,0,0-.78-2.846A4.136,4.136,0,0,0,74.117-8.749Zm2.831-4.057a2.486,2.486,0,0,0,1.393-2.513,2.773,2.773,0,0,0-1.347-2.725,5.091,5.091,0,0,0-2.271-.394H69.3v5.994h5.283A5.888,5.888,0,0,0,76.948-12.806Z" transform="translate(103 55)" fill="#222"/>
  </g>
</svg>
