<svg xmlns="http://www.w3.org/2000/svg" width="18.281" height="176.121" viewBox="0 0 18.281 176.121">
  <path id="パス_7542" data-name="パス 7542" d="M14.379-17.273v3.059H9.211V0H5.578V-14.215H.387v-3.059ZM26.789,0V-7.711h-6.75V0H16.465V-17.273h3.574v6.586h6.75v-6.586h3.586V0ZM41.156-6.773H37.43V0H33.9V-17.273h8.473a7.893,7.893,0,0,1,2.795.445,4.366,4.366,0,0,1,1.658,1.207,5.348,5.348,0,0,1,.891,1.453,4.736,4.736,0,0,1,.328,1.816,5.175,5.175,0,0,1-.621,2.42A3.471,3.471,0,0,1,45.375-8.25a3.225,3.225,0,0,1,1.693,1.365,5.683,5.683,0,0,1,.5,2.7v1.16a8.874,8.874,0,0,0,.094,1.605,1.442,1.442,0,0,0,.656.984V0H44.344q-.164-.574-.234-.926a8.506,8.506,0,0,1-.152-1.488L43.934-4.02a3.137,3.137,0,0,0-.6-2.2A3.2,3.2,0,0,0,41.156-6.773Zm2.191-3.141a1.924,1.924,0,0,0,1.078-1.945,2.147,2.147,0,0,0-1.043-2.109,3.942,3.942,0,0,0-1.758-.3h-4.2v4.641h4.09A4.558,4.558,0,0,0,43.348-9.914ZM63.176-7.547H54.785v4.441h9.563V0H51.258V-17.273H63.926v3.059H54.785v3.668h8.391Zm16.008,0H70.793v4.441h9.563V0H67.266V-17.273H79.934v3.059H70.793v3.668h8.391ZM97.172-6.211H93.5V0H89.918V-17.273h7.523a6.128,6.128,0,0,1,4.148,1.336,5.176,5.176,0,0,1,1.547,4.137q0,3.059-1.547,4.324A6.812,6.812,0,0,1,97.172-6.211Zm1.688-3.6a2.5,2.5,0,0,0,.7-1.969,2.338,2.338,0,0,0-.709-1.922,3.077,3.077,0,0,0-1.986-.574H93.5v5.086h3.363A2.939,2.939,0,0,0,98.859-9.809ZM113.484.48a7.532,7.532,0,0,1-5.66-2.016Q105.2-4.008,105.2-8.66q0-4.746,2.625-7.125a7.532,7.532,0,0,1,5.66-2.016,7.532,7.532,0,0,1,5.66,2.016q2.613,2.379,2.613,7.125,0,4.652-2.613,7.125A7.532,7.532,0,0,1,113.484.48Zm3.41-4.641a7.093,7.093,0,0,0,1.254-4.5,7.074,7.074,0,0,0-1.26-4.494,4.117,4.117,0,0,0-3.4-1.588,4.172,4.172,0,0,0-3.422,1.582,7,7,0,0,0-1.277,4.5,7,7,0,0,0,1.277,4.5,4.172,4.172,0,0,0,3.422,1.582A4.139,4.139,0,0,0,116.895-4.16Zm7.336-13.113h3.586V0H124.23ZM145.148,0h-3.609l-7.055-12.27V0h-3.363V-17.273h3.785l6.879,12.059V-17.273h3.363Zm15.914-17.273v3.059h-5.168V0h-3.633V-14.215H147.07v-3.059ZM169.441-2.5a6.356,6.356,0,0,0,2.074-.281,2,2,0,0,0,1.512-2,1.479,1.479,0,0,0-.75-1.324,8.065,8.065,0,0,0-2.355-.809l-1.828-.41a11.552,11.552,0,0,1-3.727-1.324,4.212,4.212,0,0,1-1.746-3.738,4.992,4.992,0,0,1,1.688-3.855,7.135,7.135,0,0,1,4.957-1.535,7.537,7.537,0,0,1,4.658,1.447,5.167,5.167,0,0,1,2.021,4.2h-3.469a2.478,2.478,0,0,0-1.359-2.215,4.559,4.559,0,0,0-2.1-.434,3.916,3.916,0,0,0-2.227.563,1.791,1.791,0,0,0-.832,1.57,1.486,1.486,0,0,0,.82,1.383,10.041,10.041,0,0,0,2.25.715l2.977.715a7.7,7.7,0,0,1,2.953,1.254,4.223,4.223,0,0,1,1.547,3.527A4.978,4.978,0,0,1,174.7-1.119,7.586,7.586,0,0,1,169.582.445,8.3,8.3,0,0,1,164.273-1.1a5.121,5.121,0,0,1-1.934-4.236h3.445a3.547,3.547,0,0,0,.645,1.77A3.709,3.709,0,0,0,169.441-2.5Z" transform="translate(0.48 -0.387) rotate(90)" fill="#222"/>
</svg>
