<svg xmlns="http://www.w3.org/2000/svg" width="76.969" height="50.118" viewBox="0 0 76.969 50.118">
  <g id="グループ_354" data-name="グループ 354" transform="translate(-511.272 -3102.888)">
    <path id="合体_19" data-name="合体 19" d="M-338.531-2824.478l-.368.4.368-.4-12.368-10.676,12.368,10.676,21.631-23.6-21.631,23.6.465.4Z" transform="translate(883.399 5976.093)" fill="none" stroke="#222" stroke-width="2"/>
    <path id="パス_7539" data-name="パス 7539" d="M-38.228,0h.912V-12.16h3.572c2.565,0,3.895,1.216,3.895,3.325,0,2.261-1.349,3.344-4.066,3.344h-2.47V0h.893V-4.693h1.672c3.116,0,4.883-1.406,4.883-4.123,0-2.508-1.615-4.142-4.6-4.142h-4.693Zm1.843-6.327h2.394c2.185,0,3.192-.76,3.192-2.508,0-1.71-1.045-2.489-3.192-2.489h-2.394Zm.893-.779v-3.42h1.5c1.767,0,2.3.646,2.3,1.672,0,1.064-.456,1.748-2.3,1.748ZM-21.033.171c4.5,0,7.125-3.211,7.125-6.669a6.677,6.677,0,0,0-7.03-6.631,6.617,6.617,0,0,0-6.954,6.688A6.6,6.6,0,0,0-21.033.171Zm.019-.8A5.751,5.751,0,0,1-26.98-6.422a5.783,5.783,0,0,1,6.061-5.909,5.833,5.833,0,0,1,6.1,5.852A5.834,5.834,0,0,1-21.014-.627Zm.038-.779c2.793,0,5.225-1.691,5.225-5.092a5.052,5.052,0,0,0-5.13-5.054,4.915,4.915,0,0,0-5.168,5.13A5,5,0,0,0-20.976-1.406Zm.019-.8a4.116,4.116,0,0,1-4.18-4.256,4.048,4.048,0,0,1,4.256-4.294A4.147,4.147,0,0,1-16.663-6.5,4.056,4.056,0,0,1-20.957-2.2ZM-12.084,0h.912V-12.958h-.912Zm1.824,0h.912V-12.958h-.912Zm3.344,0H-6V-12.16h1.178L4.123-1.786V-12.958H3.211v8.873L-4.37-12.958H-6.916Zm1.805,0h.893V-8.892L3.363,0H5.928V-12.958H5.016V-.8h-1.2l-8.93-10.336ZM7.182-12.16h11.4v-.8H7.182ZM11.476,0h.912V-11.324H7.182v.8h4.294Zm1.843,0h.893V-10.526h4.37v-.8H13.319Zm10.7.171c2.679,0,4.674-2.584,4.674-6.669,0-3.857-1.881-6.631-4.617-6.631-2.508,0-4.731,2.356-4.731,6.65C19.342-2.527,21.223.171,24.016.171Zm0-.8c-2.261,0-3.762-2.356-3.762-5.852,0-3.8,1.8-5.852,3.819-5.852,2.2,0,3.7,2.451,3.7,5.833C27.778-2.888,26.163-.627,24.016-.627ZM24-1.368c1.786,0,2.888-1.843,2.888-5.092,0-3.363-1.14-5.13-2.888-5.13-1.653,0-2.85,1.748-2.85,5.092C21.147-3.211,22.23-1.368,24-1.368Zm0-.8c-1.2,0-1.938-1.558-1.938-4.332,0-2.812.836-4.294,1.938-4.294,1.159,0,1.995,1.5,1.995,4.332C25.992-3.724,25.213-2.166,24-2.166Zm8.968.551h5.776v-.8H34.713c1.862-2.166,3.135-4.123,3.135-6.593a4,4,0,0,0-4.2-4.123,5.113,5.113,0,0,0-3.5,1.159v.912A4.864,4.864,0,0,1,33.5-12.35a3.271,3.271,0,0,1,3.439,3.439C36.936-6.422,35.454-4.256,32.965-1.615ZM29.773,0h8.968V-.8H31.122C33.364-3.04,36.043-6,36.043-8.683a2.624,2.624,0,0,0-2.831-2.793,4.258,4.258,0,0,0-3.059,1.349v.912A3.891,3.891,0,0,1,33.136-10.7a1.911,1.911,0,0,1,1.995,2.128c0,2.812-3.648,6.384-5.358,8.075Z" transform="translate(549.5 3116.017)" fill="#222"/>
  </g>
</svg>
