<svg xmlns="http://www.w3.org/2000/svg" width="73.112" height="51.619" viewBox="0 0 73.112 51.619">
  <g id="グループ_361" data-name="グループ 361" transform="translate(-527.453 -3093.789)">
    <path id="合体_18" data-name="合体 18" d="M-339.531-2811.477l-.368.4.368-.4-12.368-10.676,12.368,10.676,21.631-23.6-21.631,23.6.465.4Z" transform="translate(899.399 5955.494)" fill="none" stroke="#222" stroke-width="2"/>
    <path id="パス_7538" data-name="パス 7538" d="M-36.546,0h.912V-12.16h3.572c2.565,0,3.9,1.216,3.9,3.325,0,2.261-1.349,3.344-4.066,3.344H-34.7V0h.893V-4.693h1.672c3.116,0,4.883-1.406,4.883-4.123,0-2.508-1.615-4.142-4.6-4.142h-4.693ZM-34.7-6.327h2.394c2.185,0,3.192-.76,3.192-2.508,0-1.71-1.045-2.489-3.192-2.489H-34.7Zm.893-.779v-3.42h1.5c1.767,0,2.3.646,2.3,1.672,0,1.064-.456,1.748-2.3,1.748ZM-19.351.171c4.5,0,7.125-3.211,7.125-6.669a6.677,6.677,0,0,0-7.03-6.631A6.617,6.617,0,0,0-26.21-6.441,6.6,6.6,0,0,0-19.351.171Zm.019-.8A5.751,5.751,0,0,1-25.3-6.422a5.783,5.783,0,0,1,6.061-5.909,5.833,5.833,0,0,1,6.1,5.852A5.834,5.834,0,0,1-19.332-.627Zm.038-.779c2.793,0,5.225-1.691,5.225-5.092a5.052,5.052,0,0,0-5.13-5.054,4.915,4.915,0,0,0-5.168,5.13A5,5,0,0,0-19.294-1.406Zm.019-.8a4.116,4.116,0,0,1-4.18-4.256A4.048,4.048,0,0,1-19.2-10.754,4.147,4.147,0,0,1-14.981-6.5,4.056,4.056,0,0,1-19.275-2.2ZM-10.4,0h.912V-12.958H-10.4Zm1.824,0h.912V-12.958h-.912Zm3.344,0h.912V-12.16h1.178L5.8-1.786V-12.958H4.893v8.873l-7.581-8.873H-5.234Zm1.805,0h.893V-8.892L5.045,0H7.61V-12.958H6.7V-.8H5.5l-8.93-10.336ZM8.864-12.16h11.4v-.8H8.864ZM13.158,0h.912V-11.324H8.864v.8h4.294ZM15,0h.893V-10.526h4.37v-.8H15ZM25.7.171c2.679,0,4.674-2.584,4.674-6.669,0-3.857-1.881-6.631-4.617-6.631-2.508,0-4.731,2.356-4.731,6.65C21.024-2.527,22.9.171,25.7.171Zm0-.8c-2.261,0-3.762-2.356-3.762-5.852,0-3.8,1.8-5.852,3.819-5.852,2.2,0,3.7,2.451,3.7,5.833C29.459-2.888,27.844-.627,25.7-.627Zm-.019-.741c1.786,0,2.888-1.843,2.888-5.092,0-3.363-1.14-5.13-2.888-5.13-1.653,0-2.85,1.748-2.85,5.092C22.829-3.211,23.912-1.368,25.679-1.368Zm0-.8c-1.2,0-1.938-1.558-1.938-4.332,0-2.812.836-4.294,1.938-4.294,1.159,0,1.995,1.5,1.995,4.332C27.674-3.724,26.895-2.166,25.679-2.166ZM35.653,0h.912V-12.958h-1.5L30.923-9.576l.475.57,3.857-3.173h.4ZM33.848,0h.912V-10.64L31.91-8.3l.475.551,1.463-1.159Z" transform="translate(564 3106.918)" fill="#222"/>
  </g>
</svg>
