<svg xmlns="http://www.w3.org/2000/svg" width="75.791" height="51.619" viewBox="0 0 75.791 51.619">
  <g id="グループ_360" data-name="グループ 360" transform="translate(-542.228 -3097.789)">
    <path id="合体_20" data-name="合体 20" d="M-338.531-2824.478l-.368.4.368-.4-12.368-10.676,12.368,10.676,21.631-23.6-21.631,23.6.465.4Z" transform="translate(914.399 5972.494)" fill="none" stroke="#222" stroke-width="2"/>
    <path id="パス_7540" data-name="パス 7540" d="M-37.772,0h.912V-12.16h3.572c2.565,0,3.9,1.216,3.9,3.325,0,2.261-1.349,3.344-4.066,3.344h-2.47V0h.893V-4.693h1.672c3.116,0,4.883-1.406,4.883-4.123,0-2.508-1.615-4.142-4.6-4.142h-4.693Zm1.843-6.327h2.394c2.185,0,3.192-.76,3.192-2.508,0-1.71-1.045-2.489-3.192-2.489h-2.394Zm.893-.779v-3.42h1.5c1.767,0,2.3.646,2.3,1.672,0,1.064-.456,1.748-2.3,1.748ZM-20.577.171c4.5,0,7.125-3.211,7.125-6.669a6.677,6.677,0,0,0-7.03-6.631,6.617,6.617,0,0,0-6.954,6.688A6.6,6.6,0,0,0-20.577.171Zm.019-.8a5.751,5.751,0,0,1-5.966-5.795,5.783,5.783,0,0,1,6.061-5.909,5.833,5.833,0,0,1,6.1,5.852A5.834,5.834,0,0,1-20.558-.627Zm.038-.779C-17.727-1.406-15.3-3.1-15.3-6.5a5.052,5.052,0,0,0-5.13-5.054,4.915,4.915,0,0,0-5.168,5.13A5,5,0,0,0-20.52-1.406Zm.019-.8a4.116,4.116,0,0,1-4.18-4.256,4.048,4.048,0,0,1,4.256-4.294A4.147,4.147,0,0,1-16.207-6.5,4.056,4.056,0,0,1-20.5-2.2ZM-11.628,0h.912V-12.958h-.912ZM-9.8,0h.912V-12.958H-9.8ZM-6.46,0h.912V-12.16H-4.37L4.579-1.786V-12.958H3.667v8.873l-7.581-8.873H-6.46Zm1.805,0h.893V-8.892L3.819,0H6.384V-12.958H5.472V-.8h-1.2l-8.93-10.336ZM7.638-12.16h11.4v-.8H7.638ZM11.932,0h.912V-11.324H7.638v.8h4.294Zm1.843,0h.893V-10.526h4.37v-.8H13.775Zm10.7.171c2.679,0,4.674-2.584,4.674-6.669,0-3.857-1.881-6.631-4.617-6.631-2.508,0-4.731,2.356-4.731,6.65C19.8-2.527,21.679.171,24.472.171Zm0-.8c-2.261,0-3.762-2.356-3.762-5.852,0-3.8,1.8-5.852,3.819-5.852,2.2,0,3.7,2.451,3.7,5.833C28.234-2.888,26.619-.627,24.472-.627Zm-.019-.741c1.786,0,2.888-1.843,2.888-5.092,0-3.363-1.14-5.13-2.888-5.13C22.8-11.59,21.6-9.842,21.6-6.5,21.6-3.211,22.686-1.368,24.453-1.368Zm0-.8c-1.2,0-1.938-1.558-1.938-4.332,0-2.812.836-4.294,1.938-4.294,1.159,0,1.995,1.5,1.995,4.332C26.448-3.724,25.669-2.166,24.453-2.166ZM33.877.171a3.824,3.824,0,0,0,4.142-3.914,2.988,2.988,0,0,0-1.862-3.04,3.016,3.016,0,0,0,1.615-2.793c0-2.223-1.539-3.553-4.066-3.553a6.115,6.115,0,0,0-2.774.608v.741a5.688,5.688,0,0,1,2.66-.627c2.109,0,3.325,1.045,3.325,2.869a2.729,2.729,0,0,1-2.223,2.793v.114A2.6,2.6,0,0,1,37.164-3.8,3.158,3.158,0,0,1,33.782-.551a7.2,7.2,0,0,1-3.154-.817v.779A7.245,7.245,0,0,0,33.877.171Zm-.228-1.558a2.286,2.286,0,0,0,2.565-2.394c0-1.577-.969-2.489-2.793-2.546v-.7c1.71-.133,2.622-.988,2.622-2.375,0-1.368-.912-2.28-2.641-2.28a5.317,5.317,0,0,0-2.47.589v.76a4.787,4.787,0,0,1,2.318-.627c1.33,0,1.976.646,1.976,1.634,0,1.083-.874,1.653-2.622,1.653v1.938c1.9,0,2.755.7,2.755,1.919a1.607,1.607,0,0,1-1.786,1.71,5.757,5.757,0,0,1-2.945-.931v.817A6.448,6.448,0,0,0,33.649-1.387Z" transform="translate(580 3110.918)" fill="#222"/>
  </g>
</svg>
