<svg xmlns="http://www.w3.org/2000/svg" width="45.21" height="51.062" viewBox="0 0 45.21 51.062">
  <g id="グループ_67" data-name="グループ 67" transform="translate(-287.454 -2100.386)">
    <path id="パス_7535" data-name="パス 7535" d="M-11.792.738q-5.681,0-7.967-3.979t-2.287-11.341q0-7.362,2.287-11.361t7.967-4q5.681,0,7.978,4,2.276,4,2.276,11.361T-3.825-3.24Q-6.111.738-11.792.738Zm3.425-7.485a29.258,29.258,0,0,0,.8-7.834,28.7,28.7,0,0,0-.81-7.957,3.309,3.309,0,0,0-3.415-2.584,3.357,3.357,0,0,0-3.445,2.584,27.7,27.7,0,0,0-.841,7.957,28.01,28.01,0,0,0,.841,7.844A3.385,3.385,0,0,0-11.792-4.02,3.356,3.356,0,0,0-8.367-6.747ZM14.6-23.687a3.684,3.684,0,0,0-2.994-1.251,3.652,3.652,0,0,0-3.63,1.989,9.866,9.866,0,0,0-.656,3.65H1.641A14.366,14.366,0,0,1,3.015-25.43q2.338-4.45,8.306-4.45a10.532,10.532,0,0,1,7.506,2.615,9.041,9.041,0,0,1,2.789,6.921,9.37,9.37,0,0,1-1.969,5.865A19.614,19.614,0,0,1,15.4-10.685L13.063-9.023q-2.194,1.559-3,2.256A6.611,6.611,0,0,0,8.7-5.147H21.677V0H1.313A13.973,13.973,0,0,1,2.687-5.845q1.251-2.974,5.906-6.3a43.313,43.313,0,0,0,5.229-4.143,6.122,6.122,0,0,0,1.825-4.266A4.726,4.726,0,0,0,14.6-23.687Z" transform="translate(310 2150.21)" fill="#222" stroke="#222" stroke-width="1"/>
    <path id="パス_7534" data-name="パス 7534" d="M-21.672,0V-11.52h4.208a5.65,5.65,0,0,1,1.848.256,2.858,2.858,0,0,1,1.152.7,2.479,2.479,0,0,1,.592,1.032A4.406,4.406,0,0,1-13.7-8.3,2.93,2.93,0,0,1-14.1-6.72a2.893,2.893,0,0,1-1.016.984,4.376,4.376,0,0,1-1.416.5,8.882,8.882,0,0,1-1.592.144h-2.464V0Zm3.584-6.016a8.885,8.885,0,0,0,1.376-.1,2.744,2.744,0,0,0,1.032-.36,1.783,1.783,0,0,0,.656-.72,2.634,2.634,0,0,0,.232-1.192,1.97,1.97,0,0,0-.712-1.648,3.668,3.668,0,0,0-2.264-.56h-2.816v4.576Zm5.472.272a7.919,7.919,0,0,1,.344-2.368,5.7,5.7,0,0,1,1.016-1.928,4.832,4.832,0,0,1,1.664-1.3,5.192,5.192,0,0,1,2.288-.48,5.548,5.548,0,0,1,2.36.472,4.769,4.769,0,0,1,1.7,1.3A5.607,5.607,0,0,1-2.224-8.12,8,8,0,0,1-1.88-5.744,7.785,7.785,0,0,1-2.224-3.4,5.706,5.706,0,0,1-3.24-1.48a4.792,4.792,0,0,1-1.68,1.3A5.375,5.375,0,0,1-7.256.3a5.375,5.375,0,0,1-2.336-.48,4.792,4.792,0,0,1-1.68-1.3A5.6,5.6,0,0,1-12.28-3.4,7.957,7.957,0,0,1-12.616-5.744ZM-7.24-.624a4.1,4.1,0,0,0,1.928-.424A3.846,3.846,0,0,0-3.984-2.176a4.8,4.8,0,0,0,.768-1.632,7.467,7.467,0,0,0,.248-1.936,7.239,7.239,0,0,0-.3-2.152A4.668,4.668,0,0,0-4.12-9.52a3.673,3.673,0,0,0-1.36-1.024A4.4,4.4,0,0,0-7.272-10.9a4,4,0,0,0-1.912.432A3.889,3.889,0,0,0-10.512-9.32a4.892,4.892,0,0,0-.768,1.64,7.467,7.467,0,0,0-.248,1.936,7.53,7.53,0,0,0,.248,1.952,4.8,4.8,0,0,0,.768,1.632A3.769,3.769,0,0,0-9.184-1.04,4.2,4.2,0,0,0-7.24-.624ZM.344,0V-11.52H1.432V0ZM5.176-10.048H5.144V0H4.056V-11.52H5.288L11.944-1.456h.032V-11.52h1.088V0H11.8Zm9.1-1.472h8.384v.928H19.016V0H17.928V-10.592H14.28Z" transform="translate(310 2112.21)" fill="#222"/>
  </g>
</svg>
