<svg xmlns="http://www.w3.org/2000/svg" width="45.21" height="51.062" viewBox="0 0 45.21 51.062">
  <g id="グループ_67" data-name="グループ 67" transform="translate(-284.454 -2094.886)">
    <path id="パス_7537" data-name="パス 7537" d="M-11.792.738q-5.681,0-7.967-3.979t-2.287-11.341q0-7.362,2.287-11.361t7.967-4q5.681,0,7.978,4,2.276,4,2.276,11.361T-3.825-3.24Q-6.111.738-11.792.738Zm3.425-7.485a29.258,29.258,0,0,0,.8-7.834,28.7,28.7,0,0,0-.81-7.957,3.309,3.309,0,0,0-3.415-2.584,3.357,3.357,0,0,0-3.445,2.584,27.7,27.7,0,0,0-.841,7.957,28.01,28.01,0,0,0,.841,7.844A3.385,3.385,0,0,0-11.792-4.02,3.356,3.356,0,0,0-8.367-6.747ZM8.039-23.81A5.527,5.527,0,0,0,7.1-20.3H1.641a14.668,14.668,0,0,1,.759-4.2,9.463,9.463,0,0,1,2.256-3.22,7.859,7.859,0,0,1,2.728-1.6,11.8,11.8,0,0,1,3.876-.554,10.315,10.315,0,0,1,6.88,2.2,7.343,7.343,0,0,1,2.615,5.917,6.541,6.541,0,0,1-1.559,4.43,5.322,5.322,0,0,1-2.051,1.538,4.218,4.218,0,0,1,2.3,1.374,7.338,7.338,0,0,1,2.235,5.66,9.533,9.533,0,0,1-2.615,6.634Q16.447.738,11.32.738,5,.738,2.543-3.384A12.234,12.234,0,0,1,1.107-9.126H6.85a6.686,6.686,0,0,0,.574,2.953A3.935,3.935,0,0,0,11.3-4.02a4.3,4.3,0,0,0,3-1.179,4.382,4.382,0,0,0,1.282-3.394,3.824,3.824,0,0,0-2.379-3.917,12.076,12.076,0,0,0-4.266-.554v-4.184A11.067,11.067,0,0,0,12.92-17.8a3.42,3.42,0,0,0,1.948-3.486,3.9,3.9,0,0,0-.995-2.769,3.64,3.64,0,0,0-2.8-1.066A3.514,3.514,0,0,0,8.039-23.81Z" transform="translate(307 2144.71)" fill="#222" stroke="#222" stroke-width="1"/>
    <path id="パス_7536" data-name="パス 7536" d="M-21.672,0V-11.52h4.208a5.65,5.65,0,0,1,1.848.256,2.858,2.858,0,0,1,1.152.7,2.479,2.479,0,0,1,.592,1.032A4.406,4.406,0,0,1-13.7-8.3,2.93,2.93,0,0,1-14.1-6.72a2.893,2.893,0,0,1-1.016.984,4.376,4.376,0,0,1-1.416.5,8.882,8.882,0,0,1-1.592.144h-2.464V0Zm3.584-6.016a8.885,8.885,0,0,0,1.376-.1,2.744,2.744,0,0,0,1.032-.36,1.783,1.783,0,0,0,.656-.72,2.634,2.634,0,0,0,.232-1.192,1.97,1.97,0,0,0-.712-1.648,3.668,3.668,0,0,0-2.264-.56h-2.816v4.576Zm5.472.272a7.919,7.919,0,0,1,.344-2.368,5.7,5.7,0,0,1,1.016-1.928,4.832,4.832,0,0,1,1.664-1.3,5.192,5.192,0,0,1,2.288-.48,5.548,5.548,0,0,1,2.36.472,4.769,4.769,0,0,1,1.7,1.3A5.607,5.607,0,0,1-2.224-8.12,8,8,0,0,1-1.88-5.744,7.785,7.785,0,0,1-2.224-3.4,5.706,5.706,0,0,1-3.24-1.48a4.792,4.792,0,0,1-1.68,1.3A5.375,5.375,0,0,1-7.256.3a5.375,5.375,0,0,1-2.336-.48,4.792,4.792,0,0,1-1.68-1.3A5.6,5.6,0,0,1-12.28-3.4,7.957,7.957,0,0,1-12.616-5.744ZM-7.24-.624a4.1,4.1,0,0,0,1.928-.424A3.846,3.846,0,0,0-3.984-2.176a4.8,4.8,0,0,0,.768-1.632,7.467,7.467,0,0,0,.248-1.936,7.239,7.239,0,0,0-.3-2.152A4.668,4.668,0,0,0-4.12-9.52a3.673,3.673,0,0,0-1.36-1.024A4.4,4.4,0,0,0-7.272-10.9a4,4,0,0,0-1.912.432A3.889,3.889,0,0,0-10.512-9.32a4.892,4.892,0,0,0-.768,1.64,7.467,7.467,0,0,0-.248,1.936,7.53,7.53,0,0,0,.248,1.952,4.8,4.8,0,0,0,.768,1.632A3.769,3.769,0,0,0-9.184-1.04,4.2,4.2,0,0,0-7.24-.624ZM.344,0V-11.52H1.432V0ZM5.176-10.048H5.144V0H4.056V-11.52H5.288L11.944-1.456h.032V-11.52h1.088V0H11.8Zm9.1-1.472h8.384v.928H19.016V0H17.928V-10.592H14.28Z" transform="translate(307 2106.71)" fill="#222"/>
  </g>
</svg>
