<svg width="74" height="46" viewBox="0 0 74 46" fill="none" xmlns="http://www.w3.org/2000/svg">
<path d="M14.497 45.9C12.017 45.9 9.69703 45.12 7.53703 43.56C5.37703 42 3.61703 39.54 2.25703 36.18C0.897032 32.78 0.217031 28.38 0.217031 22.98C0.217031 17.58 0.897032 13.22 2.25703 9.9C3.61703 6.54 5.37703 4.08 7.53703 2.52C9.69703 0.959998 12.017 0.179998 14.497 0.179998C16.977 0.179998 19.297 0.959998 21.457 2.52C23.617 4.08 25.357 6.54 26.677 9.9C28.037 13.22 28.717 17.58 28.717 22.98C28.717 28.38 28.037 32.78 26.677 36.18C25.357 39.54 23.617 42 21.457 43.56C19.297 45.12 16.977 45.9 14.497 45.9ZM14.497 43.98C15.537 43.98 16.557 43.64 17.557 42.96C18.597 42.28 19.517 41.14 20.317 39.54C21.117 37.94 21.757 35.78 22.237 33.06C22.717 30.34 22.957 26.98 22.957 22.98C22.957 18.98 22.717 15.64 22.237 12.96C21.757 10.28 21.117 8.16 20.317 6.6C19.517 5 18.597 3.86 17.557 3.18C16.557 2.5 15.537 2.16 14.497 2.16C13.377 2.16 12.317 2.5 11.317 3.18C10.317 3.86 9.41703 5 8.61703 6.6C7.81703 8.16 7.17703 10.28 6.69703 12.96C6.25703 15.64 6.03703 18.98 6.03703 22.98C6.03703 26.98 6.25703 30.34 6.69703 33.06C7.17703 35.78 7.81703 37.94 8.61703 39.54C9.41703 41.14 10.317 42.28 11.317 42.96C12.317 43.64 13.377 43.98 14.497 43.98ZM59.16 45.9C55.52 45.9 52.6 45.14 50.4 43.62C48.2 42.1 46.8 39.9 46.2 37.02C46.48 36.34 46.86 35.84 47.34 35.52C47.82 35.16 48.36 34.98 48.96 34.98C49.8 34.98 50.46 35.24 50.94 35.76C51.42 36.24 51.8 37.14 52.08 38.46L53.7 44.22L51.18 42.3C52.18 42.86 53.16 43.28 54.12 43.56C55.12 43.84 56.24 43.98 57.48 43.98C60.76 43.98 63.28 43.06 65.04 41.22C66.84 39.34 67.74 36.78 67.74 33.54C67.74 30.22 66.86 27.66 65.1 25.86C63.34 24.02 60.7 23.1 57.18 23.1H54.54V20.94H56.88C59.72 20.94 62.04 20.1 63.84 18.42C65.68 16.7 66.6 14.2 66.6 10.92C66.6 8.12 65.9 5.96 64.5 4.44C63.14 2.88 61.18 2.1 58.62 2.1C57.58 2.1 56.54 2.22 55.5 2.46C54.46 2.66 53.34 3.06 52.14 3.66L54.96 1.98L53.4 7.5C53.12 8.62 52.7 9.4 52.14 9.84C51.62 10.28 50.96 10.5 50.16 10.5C49.6 10.5 49.1 10.36 48.66 10.08C48.22 9.8 47.9 9.4 47.7 8.88C48.02 6.8 48.76 5.14 49.92 3.9C51.12 2.62 52.6 1.68 54.36 1.08C56.16 0.479997 58.06 0.179998 60.06 0.179998C64.1 0.179998 67.18 1.16 69.3 3.12C71.46 5.08 72.54 7.62 72.54 10.74C72.54 12.66 72.06 14.44 71.1 16.08C70.18 17.72 68.78 19.08 66.9 20.16C65.02 21.24 62.6 21.96 59.64 22.32V21.6C62.96 21.76 65.66 22.36 67.74 23.4C69.82 24.44 71.36 25.84 72.36 27.6C73.36 29.36 73.86 31.4 73.86 33.72C73.86 36.16 73.24 38.3 72 40.14C70.76 41.94 69.04 43.36 66.84 44.4C64.64 45.4 62.08 45.9 59.16 45.9Z" fill="#D2C8BE"/>
</svg>
