<svg width="75" height="46" viewBox="0 0 75 46" fill="none" xmlns="http://www.w3.org/2000/svg">
<path d="M14.4384 45.9C11.9584 45.9 9.63844 45.12 7.47844 43.56C5.31844 42 3.55844 39.54 2.19844 36.18C0.838438 32.78 0.158438 28.38 0.158438 22.98C0.158438 17.58 0.838438 13.22 2.19844 9.9C3.55844 6.54 5.31844 4.08 7.47844 2.52C9.63844 0.959998 11.9584 0.179998 14.4384 0.179998C16.9184 0.179998 19.2384 0.959998 21.3984 2.52C23.5584 4.08 25.2984 6.54 26.6184 9.9C27.9784 13.22 28.6584 17.58 28.6584 22.98C28.6584 28.38 27.9784 32.78 26.6184 36.18C25.2984 39.54 23.5584 42 21.3984 43.56C19.2384 45.12 16.9184 45.9 14.4384 45.9ZM14.4384 43.98C15.4784 43.98 16.4984 43.64 17.4984 42.96C18.5384 42.28 19.4584 41.14 20.2584 39.54C21.0584 37.94 21.6984 35.78 22.1784 33.06C22.6584 30.34 22.8984 26.98 22.8984 22.98C22.8984 18.98 22.6584 15.64 22.1784 12.96C21.6984 10.28 21.0584 8.16 20.2584 6.6C19.4584 5 18.5384 3.86 17.4984 3.18C16.4984 2.5 15.4784 2.16 14.4384 2.16C13.3184 2.16 12.2584 2.5 11.2584 3.18C10.2584 3.86 9.35844 5 8.55844 6.6C7.75844 8.16 7.11844 10.28 6.63844 12.96C6.19844 15.64 5.97844 18.98 5.97844 22.98C5.97844 26.98 6.19844 30.34 6.63844 33.06C7.11844 35.78 7.75844 37.94 8.55844 39.54C9.35844 41.14 10.2584 42.28 11.2584 42.96C12.2584 43.64 13.3184 43.98 14.4384 43.98ZM47.2214 45V41.34C49.1814 39.1 51.0814 36.88 52.9214 34.68C54.7614 32.48 56.4214 30.54 57.9014 28.86C60.0614 26.3 61.8014 24.08 63.1214 22.2C64.4414 20.28 65.4214 18.48 66.0614 16.8C66.7014 15.12 67.0214 13.36 67.0214 11.52C67.0214 8.48 66.2814 6.16 64.8014 4.56C63.3614 2.92 61.3214 2.1 58.6814 2.1C57.6414 2.1 56.5814 2.24 55.5014 2.52C54.4614 2.8 53.3414 3.3 52.1414 4.02L54.7214 2.28L53.1614 8.28C52.8414 9.6 52.4014 10.52 51.8414 11.04C51.2814 11.52 50.6614 11.76 49.9814 11.76C49.3014 11.76 48.7214 11.58 48.2414 11.22C47.7614 10.82 47.4214 10.32 47.2214 9.72C47.5014 7.6 48.2814 5.84 49.5614 4.44C50.8814 3.04 52.5014 1.98 54.4214 1.26C56.3414 0.539998 58.3614 0.179998 60.4814 0.179998C64.6814 0.179998 67.8014 1.22 69.8414 3.3C71.9214 5.38 72.9614 8.2 72.9614 11.76C72.9614 13.64 72.5014 15.48 71.5814 17.28C70.6614 19.04 69.2014 21.02 67.2014 23.22C65.2414 25.38 62.6814 28.02 59.5214 31.14C58.8414 31.74 58.0014 32.58 57.0014 33.66C56.0014 34.7 54.8814 35.88 53.6414 37.2C52.4014 38.48 51.1414 39.8 49.8614 41.16L50.4014 39.24V40.2H74.7014V45H47.2214Z" fill="#D2C8BE"/>
</svg>
