<svg width="70" height="46" viewBox="0 0 70 46" fill="none" xmlns="http://www.w3.org/2000/svg">
<path d="M14.456 45.9C11.976 45.9 9.65602 45.12 7.49602 43.56C5.33602 42 3.57602 39.54 2.21602 36.18C0.856016 32.78 0.176016 28.38 0.176016 22.98C0.176016 17.58 0.856016 13.22 2.21602 9.9C3.57602 6.54 5.33602 4.08 7.49602 2.52C9.65602 0.959998 11.976 0.179998 14.456 0.179998C16.936 0.179998 19.256 0.959998 21.416 2.52C23.576 4.08 25.316 6.54 26.636 9.9C27.996 13.22 28.676 17.58 28.676 22.98C28.676 28.38 27.996 32.78 26.636 36.18C25.316 39.54 23.576 42 21.416 43.56C19.256 45.12 16.936 45.9 14.456 45.9ZM14.456 43.98C15.496 43.98 16.516 43.64 17.516 42.96C18.556 42.28 19.476 41.14 20.276 39.54C21.076 37.94 21.716 35.78 22.196 33.06C22.676 30.34 22.916 26.98 22.916 22.98C22.916 18.98 22.676 15.64 22.196 12.96C21.716 10.28 21.076 8.16 20.276 6.6C19.476 5 18.556 3.86 17.516 3.18C16.516 2.5 15.496 2.16 14.456 2.16C13.336 2.16 12.276 2.5 11.276 3.18C10.276 3.86 9.37602 5 8.57602 6.6C7.77602 8.16 7.13602 10.28 6.65602 12.96C6.21602 15.64 5.99602 18.98 5.99602 22.98C5.99602 26.98 6.21602 30.34 6.65602 33.06C7.13602 35.78 7.77602 37.94 8.57602 39.54C9.37602 41.14 10.276 42.28 11.276 42.96C12.276 43.64 13.336 43.98 14.456 43.98ZM47.659 45V43.32L56.119 42.3H61.339L69.139 43.38V45.06L47.659 45ZM55.579 45C55.699 40.36 55.759 35.74 55.759 31.14V4.38L47.419 5.76V3.84L60.919 0.479997L61.819 1.14L61.579 10.62V31.14C61.579 33.38 61.599 35.68 61.639 38.04C61.679 40.36 61.719 42.68 61.759 45H55.579Z" fill="#D2C8BE"/>
</svg>
