<svg xmlns="http://www.w3.org/2000/svg" width="217.826" height="66.96" viewBox="0 0 217.826 66.96">
  <g id="h2" transform="translate(-413.1 -2493)">
    <g id="グループ_335" data-name="グループ 335" transform="translate(413.1 2517.147)">
      <g id="長方形_7509" data-name="長方形 7509" transform="translate(0 -0.187)" fill="#fff" stroke="#222" stroke-width="1">
        <rect width="42" height="43" stroke="none"/>
        <rect x="0.5" y="0.5" width="41" height="42" fill="none"/>
      </g>
      <line id="線_613" data-name="線 613" x2="30" transform="translate(6 20.813)" fill="none" stroke="#222" stroke-width="0.5"/>
      <g id="グループ_493" data-name="グループ 493" transform="translate(7.471 8.094)">
        <g id="グループ_494" data-name="グループ 494" transform="translate(0 0)">
          <path id="パス_2923" data-name="パス 2923" d="M7.449,1.614a3.2,3.2,0,0,0,.688-.069l1,.827a1.876,1.876,0,0,0-.309.548C7.459,6.179,6.472,7.594,3.284,9.258A5.127,5.127,0,0,0,2.247,8.221,8.412,8.412,0,0,0,7.31,2.86H1.041V1.614ZM10.14.926a.927.927,0,0,1-1.854,0,.927.927,0,0,1,1.854,0m-1.386,0a.464.464,0,0,0,.927,0A.468.468,0,0,0,9.212.458a.459.459,0,0,0-.458.468" transform="translate(-1.015)" fill="#2e2e2e"/>
          <path id="パス_2924" data-name="パス 2924" d="M18.232,9.064v.419H16.817V2.577h7.424V9.483H22.857V9.064Zm4.625-5.222H18.232V7.819h4.625Z" transform="translate(-6.969 -0.973)" fill="#2e2e2e"/>
          <path id="パス_2925" data-name="パス 2925" d="M34.288.423l1.425.438c.11.031.189.06.189.14,0,.129-.169.159-.259.169-.09.468-.18.887-.289,1.325.08-.01.238-.02.339-.02,1.674,0,2.063,1.345,2.063,2.761a6.174,6.174,0,0,1-.628,2.74,1.941,1.941,0,0,1-1.913,1.246,3.927,3.927,0,0,1-.907-.11V8.755a4.462,4.462,0,0,0-.12-1.1,2.05,2.05,0,0,0,.907.209c.508,0,.757-.109,1.046-.8a5.519,5.519,0,0,0,.329-1.933c0-.647-.12-1.435-.947-1.435a4.115,4.115,0,0,0-.5.05A15.41,15.41,0,0,1,32.5,9.134a5.547,5.547,0,0,0-1.256-.648,12.267,12.267,0,0,0,2.4-4.475,12.679,12.679,0,0,0-1.723.538l-.429-1.4c.329-.039.7-.11,1.076-.189.518-.109,1.046-.219,1.405-.279A17.377,17.377,0,0,0,34.288.423M38.185,2A10.045,10.045,0,0,1,39.81,3.932a2.568,2.568,0,0,1,.448,1.306c0,.737-.857,1.046-1.525,1.266a7.753,7.753,0,0,0-.647-1.127c.449-.1.728-.179.728-.527,0-.608-1.136-1.884-1.565-2.312ZM38.773.832a7.513,7.513,0,0,1,.857,1.007,5.911,5.911,0,0,0-.638.478,9.681,9.681,0,0,0-.867-1.036Zm.956-.608a6.586,6.586,0,0,1,.877,1.027c-.219.139-.528.359-.717.509a4.672,4.672,0,0,0-.827-1.1Z" transform="translate(-12.416 -0.085)" fill="#2e2e2e"/>
          <path id="パス_2926" data-name="パス 2926" d="M7.7,31.975a6.813,6.813,0,0,0,1.664,1.544,7.191,7.191,0,0,0-.747.908,8.829,8.829,0,0,1-1.655-1.565,7.12,7.12,0,0,1-2.311,1.5,3.74,3.74,0,0,0-.738-1.027,5.424,5.424,0,0,0,2.4-1.455A6.507,6.507,0,0,1,5.55,29.8c-.11.16-.228.309-.349.469a3.829,3.829,0,0,0-.757-.748l.2.269a10.058,10.058,0,0,1-1.325,1.365v.11c.568-.04,1.166-.09,1.7-.139a4.582,4.582,0,0,0-.159.927c-.508.08-1.026.129-1.545.179v1.1a.932.932,0,0,1-.349.827,2.64,2.64,0,0,1-1.355.249,3.608,3.608,0,0,0-.339-1.116,4.658,4.658,0,0,0,.638.08c.24,0,.279-.08.279-.339v-.717c-.408.03-.817.05-1.225.05H.778c-.04.149-.08.229-.19.229-.129,0-.149-.149-.159-.24l-.1-1.006c.329.01.449.01.677.01.4,0,.8-.01,1.186-.03v-.738l.309.06a2.56,2.56,0,0,0,.388-.469H2.253A6.6,6.6,0,0,1,.638,31.227,2.862,2.862,0,0,0,0,30.4a8.265,8.265,0,0,0,2.531-1.764H.279V27.7H1.873v-.647H.618v-.927H1.873v-.967l1.256.08c.09.01.169.031.169.11s-.08.129-.169.159a.279.279,0,0,0-.08.04v.578h.8v.787a11.042,11.042,0,0,0,.727-1.355l1.007.468a.159.159,0,0,1,.1.129c0,.1-.08.129-.29.179A13.458,13.458,0,0,1,4.554,27.7h.459v.837a8.808,8.808,0,0,0,1.1-3.379l1.316.249a.13.13,0,0,1,.1.13c0,.11-.1.149-.279.2-.12.428-.239.847-.379,1.266H9.4v1.056H8.909A7.8,7.8,0,0,1,7.7,31.975M3.049,27.052V27.7h.27c.16-.209.309-.429.448-.647Zm.788,1.584c-.169.2-.349.4-.539.588h.916l.17.229a5.738,5.738,0,0,0,.568-.817Zm2.62-.578a1.563,1.563,0,0,1-.08.2,6.15,6.15,0,0,0,.667,2.661,6.469,6.469,0,0,0,.718-2.86Z" transform="translate(0 -7.627)" fill="#2e2e2e"/>
          <path id="パス_2927" data-name="パス 2927" d="M17.524,27.972a12.761,12.761,0,0,0,4.793-.907l.807.937a19.741,19.741,0,0,0-2.352,2.312.635.635,0,0,1,.24-.04.757.757,0,0,1,.8.708,5.353,5.353,0,0,1-.079.677,5.182,5.182,0,0,0-.07.687c0,.578.29.618.788.618a6.52,6.52,0,0,0,2.232-.369c0,.588.02,1.056.05,1.375a13.765,13.765,0,0,1-2.391.239,2.664,2.664,0,0,1-1.605-.388,1.015,1.015,0,0,1-.359-.9,4.531,4.531,0,0,1,.03-.488c.01-.09.04-.419.04-.549,0-.209-.02-.488-.3-.488-.2,0-.458.239-.817.608-.678.708-1.207,1.306-1.974,2.2l-1.066-.967c.618-.568,1.445-1.365,2.023-1.973.768-.817,1.5-1.664,2.222-2.531a18.715,18.715,0,0,1-3.308.558l-.239-1.336c.269.011.408.011.538.011M21.35,25.69c.19,0,.489-.01.628-.019a5.742,5.742,0,0,0-.159,1.235c-.08.01-.289.02-.4.02a16.138,16.138,0,0,1-2.94-.279l.12-1.3a9.822,9.822,0,0,0,2.75.339" transform="translate(-6.147 -7.7)" fill="#2e2e2e"/>
          <path id="パス_2928" data-name="パス 2928" d="M32.363,26.129a15.549,15.549,0,0,0,4.615-.618l.687.916c-.558.429-2.142,1.893-2.64,2.422a4.147,4.147,0,0,1,1.3-.22A2.575,2.575,0,0,1,39.15,31.2c0,2.053-1.923,3.1-3.767,3.1a2.51,2.51,0,0,1-2.183-.936,1.38,1.38,0,0,1-.209-.738,1.646,1.646,0,0,1,1.824-1.495,2.068,2.068,0,0,1,2.112,1.575,1.458,1.458,0,0,0,.887-1.385,1.565,1.565,0,0,0-.5-1.166,1.981,1.981,0,0,0-1.335-.418c-1.535,0-2.621.886-4.115,2.5l-1.017-1a33.1,33.1,0,0,0,4.344-4.166,27.315,27.315,0,0,1-3.019.379l-.22-1.335c.17.01.309.01.408.01m2.372,6.089c-.279,0-.549.149-.549.448,0,.458.678.618,1.037.618a2.465,2.465,0,0,0,.6-.08,1.069,1.069,0,0,0-1.086-.986" transform="translate(-11.643 -7.76)" fill="#2e2e2e"/>
        </g>
      </g>
    </g>
    <g id="グループ_487" data-name="グループ 487" transform="translate(457.364 2520.098)">
      <g id="グループ_690" data-name="グループ 690" transform="translate(6.206 6.707)">
        <g id="グループ_693" data-name="グループ 693">
          <path id="パス_8074" data-name="パス 8074" d="M8.889,32.533a9.134,9.134,0,0,1-5.528-1.692A9.43,9.43,0,0,1,0,25.856l4.421-1.49a8.661,8.661,0,0,0,.722,1.466,4.778,4.778,0,0,0,1.4,1.466A3.842,3.842,0,0,0,8.8,27.93,5.528,5.528,0,0,0,12.452,26.8a4.682,4.682,0,0,0,1.355-3.791,5.383,5.383,0,0,0-1.355-3.837,5.062,5.062,0,0,0-3.88-1.443H6.316V13.311H8.572a4.051,4.051,0,0,0,3.339-1.332,5.014,5.014,0,0,0,1.083-3.271,3.653,3.653,0,0,0-1.286-3.18A4.866,4.866,0,0,0,8.8,4.6a3.07,3.07,0,0,0-1.987.654,5.955,5.955,0,0,0-1.331,1.49,7.866,7.866,0,0,0-.744,1.466L.36,6.452a10.348,10.348,0,0,1,3.452-4.76A8.31,8.31,0,0,1,8.889,0a10.353,10.353,0,0,1,4.806,1.06,7.916,7.916,0,0,1,3.2,2.955,8.448,8.448,0,0,1,1.151,4.467,7.478,7.478,0,0,1-1.241,4.22,7.382,7.382,0,0,1-3.137,2.729,7.7,7.7,0,0,1,3.678,2.933,8.341,8.341,0,0,1,1.422,4.829,9.078,9.078,0,0,1-2.595,6.813q-2.6,2.527-7.288,2.527" transform="translate(-3.296 -4.712)" fill="#6393a8"/>
          <path id="パス_8075" data-name="パス 8075" d="M22.4,7.9c6.542-1.794,8.06-2.07,10.9-2.07,5.493,0,9.247,3.45,9.247,9.026,0,4.169-2.208,7.094-5.879,8.861-3.313,1.6-7.37,2.07-10.986,2.263A15.2,15.2,0,0,0,24.442,22.2a31.13,31.13,0,0,0,9.329-1.132c3.009-1.021,4.941-2.65,4.941-6.045,0-3.782-2.318-5.769-5.989-5.769-3.92,0-10.49,2.457-13.94,4.361L17.209,9.032A32.343,32.343,0,0,0,22.4,7.9" fill="#6393a8"/>
          <path id="パス_8076" data-name="パス 8076" d="M58.059,24.269a10.551,10.551,0,0,0,5.962-3.119,9.213,9.213,0,0,0,2.236-5.88,7.1,7.1,0,0,0-3.092-5.99,7.377,7.377,0,0,0-3.947-1.214,36.242,36.242,0,0,1-3.892,14.077c-.773,1.408-2.1,3.616-3.92,3.616-2.263,0-5.8-3.781-5.8-8.419a12.758,12.758,0,0,1,4.141-9A13.039,13.039,0,0,1,58.8,4.7c6.155,0,11.152,4.224,11.152,10.572A12.384,12.384,0,0,1,66.7,23.634a14.732,14.732,0,0,1-6.211,3.919,16.622,16.622,0,0,0-2.429-3.284M51.02,11.958a8.765,8.765,0,0,0-1.9,5.134c0,2.043,1.076,4.168,2.1,4.168.5,0,.828-.469,1.049-.856a26.838,26.838,0,0,0,1.6-3.781A26.619,26.619,0,0,0,55.3,8.728a8.328,8.328,0,0,0-4.279,3.23" fill="#222"/>
          <path id="パス_8077" data-name="パス 8077" d="M81.048,16.9c.139.082.36.276.36.441,0,.221-.221.3-.415.3a1.112,1.112,0,0,1-.3-.028,35.081,35.081,0,0,1-5.714,7.2A22,22,0,0,0,71.8,22.474a20.874,20.874,0,0,0,6.045-7.452ZM82.788,3.87l3.671.138c.221,0,.607.028.607.3,0,.221-.165.332-.469.442V9.777h9.275v3.367H86.6V23.579a4.524,4.524,0,0,1-.746,3.064c-.772.855-2.594,1.1-3.7,1.1-.608,0-1.3-.055-1.877-.111a11.839,11.839,0,0,0-1.187-3.7,18.847,18.847,0,0,0,2.484.249c1.215,0,1.215-.442,1.215-1.988V13.144h-9.3V9.777h9.3Zm14.3,18.052a35.309,35.309,0,0,0-2.843,2.512,36.685,36.685,0,0,0-5.6-7.425l2.76-2.153a37.532,37.532,0,0,1,5.686,7.066M97.114,5.14a2.554,2.554,0,1,1-2.567-2.568A2.539,2.539,0,0,1,97.114,5.14m-3.837,0a1.284,1.284,0,1,0,1.27-1.3,1.284,1.284,0,0,0-1.27,1.3" fill="#222"/>
          <path id="パス_8078" data-name="パス 8078" d="M114.473,28.023H110.5V14.911a51.318,51.318,0,0,1-8.446,4.224,11.6,11.6,0,0,0-2.816-3.312A38.451,38.451,0,0,0,118.392,2.932l3.313,2.539a.538.538,0,0,1,.248.387c0,.248-.276.359-.5.359a1.575,1.575,0,0,1-.5-.083,46.145,46.145,0,0,1-6.486,6.017Z" fill="#222"/>
          <path id="パス_8079" data-name="パス 8079" d="M134.87,9.059a29.711,29.711,0,0,0-2.291,3.2,27.986,27.986,0,0,0-7.26-4.693l2.318-3.257a32.693,32.693,0,0,1,7.233,4.748m11.538-.331a16.1,16.1,0,0,0,2.4,3.23c-4.913,7.48-11.676,12.255-20.012,15.264-.055.359-.166.607-.442.607a.563.563,0,0,1-.442-.331l-2.235-3.782a32.727,32.727,0,0,0,20.73-14.988" fill="#222"/>
          <path id="パス_8080" data-name="パス 8080" d="M157.392,10.992a41.958,41.958,0,0,1,9.964,6.68c-.938.993-1.821,1.987-2.649,3.008a38.748,38.748,0,0,0-8.723-6.182v13.47h-3.92V3.76l3.92.221c.3.027.524.055.524.3,0,.221-.22.331-.524.414v8.281Z" fill="#222"/>
        </g>
      </g>
    </g>
    <g id="グループ_700" data-name="グループ 700" transform="translate(416.605 2493)">
      <path id="パス_8081" data-name="パス 8081" d="M7.731,13.056H5.714V6.4A25.987,25.987,0,0,1,1.428,8.545,5.884,5.884,0,0,0,0,6.865,19.525,19.525,0,0,0,9.72.323L11.4,1.612a.27.27,0,0,1,.127.2c0,.126-.141.182-.253.182a.793.793,0,0,1-.252-.042A23.39,23.39,0,0,1,7.731,5Z" fill="#2e2e2e"/>
      <path id="パス_8082" data-name="パス 8082" d="M18.637,3.432a15.278,15.278,0,0,0-1.164,1.625A14.165,14.165,0,0,0,13.79,2.676l1.177-1.653a16.634,16.634,0,0,1,3.67,2.409m5.855-.168A8.17,8.17,0,0,0,25.711,4.9,19.574,19.574,0,0,1,15.554,12.65c-.027.181-.083.307-.223.307a.284.284,0,0,1-.225-.168L13.971,10.87A16.607,16.607,0,0,0,24.492,3.264" fill="#2e2e2e"/>
      <path id="パス_8083" data-name="パス 8083" d="M32.917,11.15a7.131,7.131,0,0,1-3.109,1.99,6.26,6.26,0,0,0-1.415-1.486,6.177,6.177,0,0,0,3.319-2,5.158,5.158,0,0,0,.9-3.04H27.3V4.9H39.206V6.611H34.5a6.6,6.6,0,0,1-1.583,4.539m4.37-8.194h-8V1.232h8Z" fill="#2e2e2e"/>
      <path id="パス_8084" data-name="パス 8084" d="M43.85,1.065c.21.015.28.028.28.141,0,.1-.084.181-.28.265v6.78H41.889V.981Zm6.5-.252c.21.015.279.042.279.141,0,.153-.153.223-.279.265V5.757a7.741,7.741,0,0,1-1.107,4.273,8.769,8.769,0,0,1-4.329,3.236,3.549,3.549,0,0,0-1.232-1.527,7.219,7.219,0,0,0,3.684-2.381,5.64,5.64,0,0,0,.995-3.586V.715Z" fill="#2e2e2e"/>
      <path id="パス_8085" data-name="パス 8085" d="M63.286,1.667a2.151,2.151,0,0,0,.785-.126L65.387,2.76c-.154.2-.266.35-.406.56a28.076,28.076,0,0,1-4.048,4.706A6.463,6.463,0,0,0,59.56,6.71a12.851,12.851,0,0,0,3.025-3.25H52.934V1.667ZM59.644,4.244c.14.015.238.042.238.141,0,.126-.14.223-.238.28a13.654,13.654,0,0,1-.715,4.118,8.488,8.488,0,0,1-3.586,4.146,10.945,10.945,0,0,0-1.652-1.247,8.688,8.688,0,0,0,2.731-2.254,7.98,7.98,0,0,0,1.219-4.637c0-.225-.015-.519-.028-.673Z" fill="#2e2e2e"/>
      <path id="パス_8086" data-name="パス 8086" d="M66.977,11.374V9.539h8.362V4.314H66.977V2.479H77.371v9.582H75.339v-.687Z" fill="#2e2e2e"/>
      <rect id="長方形_7648" data-name="長方形 7648" width="12.089" height="1.989" transform="translate(79.618 5.953)" fill="#2e2e2e"/>
      <path id="パス_8087" data-name="パス 8087" d="M99.277,11.15a7.114,7.114,0,0,1-3.109,1.989,6.236,6.236,0,0,0-1.415-1.485,6.179,6.179,0,0,0,3.319-2,5.168,5.168,0,0,0,.9-3.04H93.66V4.9h11.906V6.611H100.86a6.6,6.6,0,0,1-1.583,4.539m4.258-8.194h-8V1.232h8Zm1.009-1.276a13.3,13.3,0,0,1,1.415,1.373c-.294.323-.574.659-.841.995a11.023,11.023,0,0,0-1.442-1.471Zm2.115-.237a6.266,6.266,0,0,0-.841.9A9.742,9.742,0,0,0,104.389.911L105.2,0a13.979,13.979,0,0,1,1.457,1.443" fill="#2e2e2e"/>
      <path id="パス_8088" data-name="パス 8088" d="M112.955,12.915H111.2V7.788A23.252,23.252,0,0,1,108,9.357a5.51,5.51,0,0,0-1.19-1.4A15.318,15.318,0,0,0,114.5,2.773l1.415,1.107a.214.214,0,0,1,.1.169c0,.126-.1.139-.2.139a.765.765,0,0,1-.182-.028A22.022,22.022,0,0,1,112.955,6.6Z" fill="#2e2e2e"/>
      <path id="パス_8089" data-name="パス 8089" d="M124.212,13.265h-1.919V9.342a18.215,18.215,0,0,1-4.049,1.948,7.3,7.3,0,0,0-1.022-1.611,15.833,15.833,0,0,0,7.3-4.37h-5.87V3.614h7.4a2.993,2.993,0,0,0,.854-.141l1.008,1.009a7.014,7.014,0,0,0-.826.687c-1.387,1.442-1.694,1.764-2.871,2.843Zm1.372-11.458a17.474,17.474,0,0,0-.924,1.54,16.622,16.622,0,0,0-3.866-1.694l.939-1.4a20.913,20.913,0,0,1,3.851,1.555M129.3,9.9c-.336.406-.812,1.037-1.106,1.457a18.845,18.845,0,0,0-3.516-2.676l1.177-1.274A25.4,25.4,0,0,1,129.3,9.9" fill="#2e2e2e"/>
      <rect id="長方形_7649" data-name="長方形 7649" width="12.089" height="1.989" transform="translate(130.899 5.953)" fill="#2e2e2e"/>
      <path id="パス_8090" data-name="パス 8090" d="M148.823,4.413A21.261,21.261,0,0,1,153.88,7.8c-.476.5-.924,1.007-1.345,1.526a19.7,19.7,0,0,0-4.426-3.138v6.836H146.12V.742l1.989.112c.153.015.266.029.266.155s-.113.168-.266.21v4.2Z" fill="#2e2e2e"/>
      <path id="パス_8091" data-name="パス 8091" d="M158.426,1.5c.238.083.322.139.322.238,0,.126-.141.181-.351.2a18.2,18.2,0,0,0-.923,5.813,8.1,8.1,0,0,0,.126,1.541,13.98,13.98,0,0,1,.685-1.457,3.429,3.429,0,0,0,.953,1,8.1,8.1,0,0,0-.953,3.515l-1.681.477a14.671,14.671,0,0,1-.938-5.436A28.093,28.093,0,0,1,156.549.8Zm3.67,6.541a3.718,3.718,0,0,0-.351,1.2c0,.84,1.093.84,2.172.84a14.866,14.866,0,0,0,3.516-.378,7.571,7.571,0,0,0-.168,1.695v.252a25.172,25.172,0,0,1-3.25.2c-1.387,0-3.979-.07-3.979-1.989a5.031,5.031,0,0,1,.505-2.115Zm.154-5.687a17.289,17.289,0,0,0,4.244-.448,14.506,14.506,0,0,0,.182,1.821,22.076,22.076,0,0,1-4.4.406c-.574,0-1.133-.014-1.694-.056V2.284c.561.042,1.106.07,1.667.07" fill="#2e2e2e"/>
      <path id="パス_8092" data-name="パス 8092" d="M172.006,4.567c.111.028.322.1.322.252s-.154.211-.421.3a12.233,12.233,0,0,1-1.667,4.145,3.438,3.438,0,0,0-1.652-.643,11.267,11.267,0,0,0,1.764-4.456ZM178.981.953l1.779.7c.07.027.182.07.182.181,0,.183-.21.2-.434.21-1.288,3.4-2.8,6.066-5.9,8.125v.63c0,.715.363.729.952.729h1.485c.967,0,1.009-.266,1.331-1.807a4.866,4.866,0,0,0,1.554.868c-.448,1.877-.587,2.493-2.674,2.493h-2.634c-1.667,0-1.751-.994-1.821-1.877a19.476,19.476,0,0,1-2.62,1.121,3.5,3.5,0,0,0-1.218-1.6,12.425,12.425,0,0,0,3.824-1.388V3.4l1.919.168c.056,0,.28,0,.28.223,0,.112-.057.141-.378.267V8.125a13.541,13.541,0,0,0,4.37-7.172m-1.709,1.288a9.074,9.074,0,0,0-.966,1.458,14.253,14.253,0,0,0-3.32-2.074l.855-1.3a14.71,14.71,0,0,1,3.431,1.918m4.847,7.229a7.246,7.246,0,0,0-1.485,1.036,12.285,12.285,0,0,0-2.171-3.474l1.3-1.008a17.422,17.422,0,0,1,2.354,3.446" fill="#2e2e2e"/>
      <path id="パス_8093" data-name="パス 8093" d="M193.191,9.049c0,.154-.336.21-.5.225a8.333,8.333,0,0,1-1.149,1.274,21.763,21.763,0,0,1,3.643,1.429,7.973,7.973,0,0,0-1.135,1.443,20.6,20.6,0,0,0-3.937-1.85,15.449,15.449,0,0,1-6.149,1.751,2.98,2.98,0,0,0-.882-1.568h.42a11.962,11.962,0,0,0,4.608-.785c-.49-.14-1.008-.279-1.512-.406l-.365.364a6.461,6.461,0,0,0-1.667-.7,13.034,13.034,0,0,0,1.5-1.288h-3.083V7.565h4.3a9.991,9.991,0,0,0,.63-.883h-3.781V2.941H187.1V2.228h-4.1V.9h12.7V2.228h-4.019v.713h2.913V6.682h-4.426c.042.042.042.056.042.084,0,.2-.309.224-.448.238-.1.154-.267.393-.393.561h6.3V8.938h-2.522a.214.214,0,0,1,.042.111m-7.423-3.613h1.33V4.217h-1.33Zm2.451,3.5a5.867,5.867,0,0,1-.645.671c.715.113,1.429.267,2.144.449a5.973,5.973,0,0,0,1.177-1.12Zm.462-6h1.331V2.227h-1.331Zm0,2.495h1.331V4.217h-1.331Zm3,0h1.274V4.217h-1.274Z" fill="#2e2e2e"/>
      <path id="パス_8094" data-name="パス 8094" d="M204.292,2.045c-.014.266-.014.434-.014.617a10.907,10.907,0,0,0,.056,1.176,21.967,21.967,0,0,1-2.354.5,29.954,29.954,0,0,1-3.18,6.738,10.867,10.867,0,0,0-1.764-.729,21.683,21.683,0,0,0,2.928-5.757c-.743.056-1.3.071-2.3.084l-.224-1.848a11.161,11.161,0,0,0,1.513.111c.518,0,1.051-.042,1.541-.084.21-.8.391-1.61.532-2.436l1.877.587c.14.042.252.1.252.21s-.112.155-.28.168c-.1.309-.224.757-.336,1.163a15.63,15.63,0,0,0,1.751-.5m2.1,4.44a1.976,1.976,0,0,0-.575,1.415,8.757,8.757,0,0,0,.154,1.485A15.227,15.227,0,0,1,209,11.178a13.642,13.642,0,0,0-1.092,1.429,12.635,12.635,0,0,0-1.877-1.331c-.183,1.513-1.429,1.835-2.731,1.835-1.387,0-3.124-.532-3.124-2.2,0-1.5,1.344-2.129,2.661-2.129a7.029,7.029,0,0,1,1.218.112,11.342,11.342,0,0,1-.1-1.205,2.723,2.723,0,0,1,.98-2.073ZM202.975,10.2c-.421,0-1.079.2-1.079.715,0,.588.784.715,1.233.715.812,0,1.134-.3,1.176-1.093a2.922,2.922,0,0,0-1.33-.337m6.345-5.421a16.725,16.725,0,0,0-1.064,1.541A9.983,9.983,0,0,0,204.7,4.51l.967-1.541a11.323,11.323,0,0,1,3.655,1.807" fill="#2e2e2e"/>
    </g>
  </g>
</svg>
