<svg xmlns="http://www.w3.org/2000/svg" width="334.99" height="46.938" viewBox="0 0 334.99 46.938">
  <g id="グループ_622" data-name="グループ 622" transform="translate(-351.005 55.914)">
    <g id="グループ_446" data-name="グループ 446" transform="translate(286.005 -42.149)">
      <g id="グループ_447" data-name="グループ 447" transform="translate(0 1)">
        <path id="パス_2844" data-name="パス 2844" d="M208.107,23.385H89.525a3.664,3.664,0,0,1-3.616-3.71V.169H211.736V19.662a3.677,3.677,0,0,1-3.629,3.723" fill="#fff"/>
        <path id="パス_2845" data-name="パス 2845" d="M151.187,31.233l-.61.79c-.12-.09-5.217-4.373-9.3-8.023H89.74a5.008,5.008,0,0,1-5-5V1H65V0H85.74V19a4.046,4.046,0,0,0,.09.86l.01.01A3.991,3.991,0,0,0,89.74,23h51.93l.14.13c3.91,3.55,9.257,8.013,9.377,8.1" transform="translate(0 0.149)" fill="#222"/>
        <path id="パス_2846" data-name="パス 2846" d="M399.99,0V1H212.74V19a5,5,0,0,1-5,5H155.99V23h51.75a4,4,0,0,0,4-4V0Z" transform="translate(0 0.149)" fill="#222"/>
      </g>
    </g>
    <path id="パス_8352" data-name="パス 8352" d="M10.458-.112q0,.14-.294.14H10.01q-.2,0-.714-.014T8.5,0q-.42,0-.98.014H6.664q-.294,0-.294-.126t.406-.14a1.457,1.457,0,0,0,.868-.154,2.842,2.842,0,0,0,.07-.938V-8.6q0,.014-.154.49Q7-6.412,5.936-3.01L5.278-.784q-.2.658-.28.658t-.21-.336q-.406-1.274-2.3-6.356l-.56-1.5q.014.266.014.728v4.55q0,2.562.042,2.59.1.182.672.182.462,0,.462.126T2.828,0q-.182,0-.336-.014-.2-.014-.35-.014L.532.014Q.28.014.28-.112t.8-.154q.336,0,.392-.112a2.508,2.508,0,0,0,.056-.728V-7.812q0-1.162-.028-1.26a.38.38,0,0,0-.238-.266A3.369,3.369,0,0,0,.476-9.45Q.252-9.464.252-9.576q0-.154.406-.154.056,0,.238.014h.728q.826,0,1.162-.014.07.182.826,2.2.322.84,1.806,4.9.266-.91.546-1.792L7.448-9.058q.126-.406.224-.672l2.1-.014A1.712,1.712,0,0,1,10.3-9.7a.138.138,0,0,1,.07.126q0,.14-.238.14a3.26,3.26,0,0,0-.532.028.7.7,0,0,0-.462.224,8.28,8.28,0,0,0-.07,1.638v6.51q0,.56.112.658a1.971,1.971,0,0,0,.91.126h.084Q10.458-.252,10.458-.112Zm9.17.014q0,.126-.21.126a2.047,2.047,0,0,1-.252-.014L17.388-.014,15.61.014a1.487,1.487,0,0,1-.21.014q-.28,0-.28-.14T15.5-.266Q16.73-.28,16.73-.518A.839.839,0,0,0,16.7-.63l-.112-.378-.07-.2q-.126-.434-.616-1.918h-3a15.082,15.082,0,0,0-.84,2.576.216.216,0,0,0,.168.238q.042.014.7.056.406.014.406.14t-.364.14q-.644,0-1.5-.056-.21-.014-.434-.014a3.282,3.282,0,0,0-.434.028A1.531,1.531,0,0,1,10.43,0q-.2,0-.2-.126t.441-.14A1.366,1.366,0,0,0,11.312-.4a.8.8,0,0,0,.308-.455q1.806-5.152,2.94-8.274a1.857,1.857,0,0,1,.112-.378l.07-.252q.042-.154.112-.154.042,0,.07.084.182.546.826,2.282.5,1.358,2.506,6.818a.654.654,0,0,0,.287.392,2.1,2.1,0,0,0,.721.1Q19.628-.224,19.628-.1ZM15.82-3.444,15.078-5.53l-.672-1.918q-.588,1.54-1.414,4ZM28.714-.112q0,.126-.2.126h-.112L26.726,0,25.088.014a1.109,1.109,0,0,1-.182.014q-.266,0-.266-.112t.35-.14q.728-.07.728-.238A58.331,58.331,0,0,0,21.9-5.012V-.966q0,.49.154.609a1.685,1.685,0,0,0,.826.119q.154,0,.154.14t-.2.126a2.047,2.047,0,0,1-.252-.014L20.636-.014q-.182,0-.427.021t-.5.021h-.126q-.21,0-.21-.126t.518-.154q.476-.014.56-.21a4.176,4.176,0,0,0,.042-.882l-.014-7.8q-.014-.294-.756-.294-.336,0-.336-.154,0-.126.238-.126a1.532,1.532,0,0,1,.182.014q.224.028,1.246.028,1.092,0,1.386-.028.154-.014.322-.014.252,0,.252.154a.1.1,0,0,1-.077.105,3.381,3.381,0,0,1-.483.035q-.406.014-.483.112a1.408,1.408,0,0,0-.077.63v3.416l1.19-1.19a37.813,37.813,0,0,0,2.7-2.814q0-.182-.658-.168-.42.014-.42-.14,0-.1.2-.112T26.264-9.7h.77a5.512,5.512,0,0,1,.56.014q.14.028.14.14,0,.154-.308.154a4.41,4.41,0,0,0-.826.028.776.776,0,0,0-.364.224q-.91.952-2.772,2.856l-.364.364-.182.2q.084.1.7.756,1.176,1.218,3.374,3.906a3.964,3.964,0,0,0,.637.672,1.558,1.558,0,0,0,.679.14Q28.714-.224,28.714-.112Zm9.1-4.69a5.191,5.191,0,0,1-1.253,3.528A3.919,3.919,0,0,1,33.488.168,4.2,4.2,0,0,1,30.24-1.3,5.194,5.194,0,0,1,28.924-4.9a5.111,5.111,0,0,1,1.267-3.577A4.185,4.185,0,0,1,33.432-9.87a3.966,3.966,0,0,1,3.122,1.456A5.325,5.325,0,0,1,37.814-4.8Zm-1.568.07a6.627,6.627,0,0,0-1.05-3.99,2.146,2.146,0,0,0-1.834-.9,2.213,2.213,0,0,0-1.736.686,6.053,6.053,0,0,0-1.134,4.1,6.523,6.523,0,0,0,.791,3.5A2.49,2.49,0,0,0,33.5-.084a2.169,2.169,0,0,0,2-1.176A7,7,0,0,0,36.246-4.732ZM42.112-9.3a2,2,0,0,1-.56,1.078,11.64,11.64,0,0,0-1.386,2.226q-.168.35-.308.35-.2,0-.2-.168a.423.423,0,0,1,.042-.14,13.511,13.511,0,0,0,.84-2.478,3.9,3.9,0,0,1,.413-1.148.677.677,0,0,1,.6-.294A.5.5,0,0,1,42.112-9.3Zm7.84,6.566a2.69,2.69,0,0,1-.917,2.051,3.135,3.135,0,0,1-2.2.847,4.632,4.632,0,0,1-1.806-.462A1.161,1.161,0,0,0,44.6-.42q-.168,0-.21.406Q44.38.2,44.212.2q-.14,0-.14-.168a.746.746,0,0,1,.014-.168A12.223,12.223,0,0,0,44.2-1.722q0-.14-.028-.784a1.422,1.422,0,0,1-.014-.224q0-.21.168-.21.14,0,.2.336.364,2.492,2.366,2.492A1.759,1.759,0,0,0,48.209-.6a1.879,1.879,0,0,0,.469-1.365A2.036,2.036,0,0,0,48.223-3.3a4.747,4.747,0,0,0-1.561-1.1A5.824,5.824,0,0,1,44.814-5.67,2.29,2.29,0,0,1,44.3-7.2a2.612,2.612,0,0,1,.749-1.918,2.558,2.558,0,0,1,1.9-.756,3.984,3.984,0,0,1,1.316.322,1.389,1.389,0,0,0,.434.112.27.27,0,0,0,.2-.056.731.731,0,0,0,.091-.294.149.149,0,0,1,.154-.14q.14,0,.14.168a.746.746,0,0,1-.014.168,6.68,6.68,0,0,0-.042.812,6.348,6.348,0,0,0,.07,1.064l.014.224q.014.154-.126.154t-.21-.322a2.5,2.5,0,0,0-.728-1.379,1.813,1.813,0,0,0-1.288-.553,1.44,1.44,0,0,0-1.113.448,1.727,1.727,0,0,0-.413,1.218,1.853,1.853,0,0,0,.6,1.442,7.356,7.356,0,0,0,1.456.868,5.972,5.972,0,0,1,1.89,1.337A2.33,2.33,0,0,1,49.952-2.73ZM9.058,16.9q0,.126-.21.126a2.047,2.047,0,0,1-.252-.014l-1.778-.028-1.778.028a1.487,1.487,0,0,1-.21.014q-.28,0-.28-.14t.378-.154q1.232-.014,1.232-.252a.839.839,0,0,0-.028-.112l-.112-.378-.07-.2q-.126-.434-.616-1.918h-3a15.082,15.082,0,0,0-.84,2.576.216.216,0,0,0,.168.238q.042.014.7.056.406.014.406.14t-.364.14q-.644,0-1.5-.056-.21-.014-.434-.014a3.282,3.282,0,0,0-.434.028A1.532,1.532,0,0,1-.14,17q-.2,0-.2-.126t.441-.14A1.366,1.366,0,0,0,.742,16.6a.8.8,0,0,0,.308-.455q1.806-5.152,2.94-8.274A1.857,1.857,0,0,1,4.1,7.494l.07-.252q.042-.154.112-.154.042,0,.07.084.182.546.826,2.282.5,1.358,2.506,6.818a.654.654,0,0,0,.287.392,2.1,2.1,0,0,0,.721.1Q9.058,16.776,9.058,16.9ZM5.25,13.556,4.508,11.47,3.836,9.552q-.588,1.54-1.414,4Zm12.614-1.4a4.628,4.628,0,0,1-1.722,3.836A5.247,5.247,0,0,1,12.768,17q-.056,0-.5-.014t-1.281-.014h-.7l-1.106.014a1.487,1.487,0,0,1-.21.014q-.266,0-.266-.14t.448-.126q.574,0,.714-.21a1.44,1.44,0,0,0,.056-.532V8.446a1.623,1.623,0,0,0-.105-.8q-.1-.112-.721-.112-.322,0-.322-.154,0-.112.238-.112l.308.014q.322.014.63.014h1.5a12.631,12.631,0,0,1,3.57.35A3.813,3.813,0,0,1,17.08,9.307,5.214,5.214,0,0,1,17.864,12.156ZM16.3,12.1a5.251,5.251,0,0,0-.91-3.409,3.5,3.5,0,0,0-2.842-1.085,1.93,1.93,0,0,0-1.134.2,1.446,1.446,0,0,0-.084.672v7.448a2.95,2.95,0,0,0,.021.476.228.228,0,0,0,.119.14,3.769,3.769,0,0,0,1.414.168,3.069,3.069,0,0,0,2.436-1.064A5.3,5.3,0,0,0,16.3,12.1ZM27.608,7.382q0,.112-.266.126a1.468,1.468,0,0,0-.826.182,1.892,1.892,0,0,0-.434.784l-.476,1.3q-1.722,4.718-2.422,7.238-.042.168-.14.168t-.462-1.05q-.63-1.918-.98-2.884-.378-1.064-1.12-3.178L19.81,8.18a1.179,1.179,0,0,0-.308-.525.972.972,0,0,0-.56-.147q-.462-.014-.553-.028a.1.1,0,0,1-.091-.112q0-.126.28-.126H18.7q.252,0,.875.021t.889.021q.07,0,.539-.021t1.337-.021h.2q.252,0,.252.14t-.5.168l-.854.028q-.294.014-.294.182a.458.458,0,0,0,.028.112l.112.364q.028.112,1.358,3.948l.854,2.506Q25.8,8.152,25.8,7.816t-.686-.308l-.434.014q-.168,0-.168-.112,0-.14.42-.14h.476q.392.014.574.014h.448l.924-.014Q27.608,7.27,27.608,7.382Zm3.738,9.506q0,.112-.168.112h-.14a17.921,17.921,0,0,0-1.9-.042q-.35,0-.7.028-.182.014-.56.014-.182,0-.182-.126t.364-.126q.56-.014.658-.133a1.78,1.78,0,0,0,.1-.805V8.446a2.073,2.073,0,0,0-.07-.77q-.084-.14-.77-.168-.266-.014-.266-.112,0-.126.168-.126l1.89.028q.21,0,.812-.014l.532-.014q.224,0,.224.126t-.616.14q-.35.014-.427.126a1.316,1.316,0,0,0-.077.588v7.476a2.473,2.473,0,0,0,.07.868,1.653,1.653,0,0,0,.91.182Q31.346,16.776,31.346,16.888Zm8.876-3.01q0-.028-.028.378-.056.812-.056,1.568,0,.084.028.343a5.913,5.913,0,0,1,.028.623v.126q0,.182-.112.182t-.2-.21a1.44,1.44,0,0,0-.392-.6,3.553,3.553,0,0,1-2.422.882,4.482,4.482,0,0,1-3.409-1.435,5.071,5.071,0,0,1-1.351-3.619,5.2,5.2,0,0,1,1.239-3.591,4.084,4.084,0,0,1,3.2-1.393,4.4,4.4,0,0,1,1.141.119,4.82,4.82,0,0,1,1.057.483,1.059,1.059,0,0,0,.462.182q.126,0,.238-.224.182-.392.294-.392a.1.1,0,0,1,.112.112.958.958,0,0,1-.028.182,13.416,13.416,0,0,0-.154,2.52.6.6,0,0,1-.042.308.151.151,0,0,1-.112.042q-.14,0-.182-.266a4.736,4.736,0,0,0-.518-1.666,2.345,2.345,0,0,0-2.156-1.12,2.253,2.253,0,0,0-1.792.756,5.866,5.866,0,0,0-1.19,3.976,5.879,5.879,0,0,0,.98,3.626,2.711,2.711,0,0,0,2.268,1.12,2.559,2.559,0,0,0,1.33-.357,2.408,2.408,0,0,0,.924-.973A5.64,5.64,0,0,0,39.9,14q.056-.336.182-.336T40.222,13.878Zm8.5.854q0,.056-.028.686t-.028,1.2v.462q-1.372-.07-5.432-.07-.49,0-.966.014h-.784q-.266,0-.266-.126a.09.09,0,0,1,.084-.1q.042,0,.532-.042.364-.028.441-.154a1.636,1.636,0,0,0,.077-.658V8.082q0-.406-.119-.483a2.038,2.038,0,0,0-.763-.077q-.224,0-.224-.126t.308-.126l2.394.014,1.582-.014h1.96a4.89,4.89,0,0,0,.77-.056q.028.6.126,1.666l.056.6a.96.96,0,0,1,.014.182q0,.14-.126.14-.154,0-.224-.35a2.266,2.266,0,0,0-.868-1.6,6.335,6.335,0,0,0-2.352-.252H43.736v4.1h.336a4.389,4.389,0,0,0,1.911-.238q.343-.238.469-1.386.028-.294.154-.294.154,0,.154.252t-.028.742q-.028.49-.028.742,0,1.5.056,2.058.014.14.014.238,0,.182-.154.182-.1,0-.133-.119t-.119-.777a1.113,1.113,0,0,0-.686-1.022A5.837,5.837,0,0,0,44.366,12h-.63v4.7a26.686,26.686,0,0,0,3.612-.126q.924-.21,1.05-1.792.028-.35.182-.35T48.72,14.732Z" transform="translate(386 -45.988)" fill="#222"/>
  </g>
</svg>
