<svg xmlns="http://www.w3.org/2000/svg" width="901.99" height="33.74" viewBox="0 0 901.99 33.74">
  <g id="グループ_440" data-name="グループ 440" transform="translate(-298.005 41)">
    <g id="グループ_446" data-name="グループ 446" transform="translate(286.005 -42.149)">
      <g id="グループ_447" data-name="グループ 447" transform="translate(0 1)">
        <path id="パス_2844" data-name="パス 2844" d="M252.358,23.385H90.834c-2.72,0-4.925-1.661-4.925-3.71V.169H257.3V19.662c0,2.056-2.213,3.723-4.943,3.723" transform="translate(-12.279)" fill="#fff"/>
        <path id="パス_2845" data-name="パス 2845" d="M153.98,32.95l-.61.79c-.12-.09-8.01-6.09-12.09-9.74H77.74a5.008,5.008,0,0,1-5-5V1H12V0H73.74V19a7.671,7.671,0,0,0,.09.86A4.009,4.009,0,0,0,77.74,23h63.93l.14.13c3.91,3.55,12.05,9.73,12.17,9.82" transform="translate(0 0.149)" fill="#222"/>
        <path id="パス_2846" data-name="パス 2846" d="M913.99,0V1H245.74V19a5,5,0,0,1-5,5H155.99V23h84.75a4,4,0,0,0,4-4V0Z" transform="translate(0 0.149)" fill="#222"/>
      </g>
    </g>
    <path id="パス_8352" data-name="パス 8352" d="M11.952-.128q0,.16-.336.16H11.44q-.224,0-.816-.016T9.712,0q-.48,0-1.12.016H7.616q-.336,0-.336-.144,0-.16.464-.16a1.665,1.665,0,0,0,.992-.176,3.248,3.248,0,0,0,.08-1.072V-9.824q0,.016-.176.56Q8-7.328,6.784-3.44L6.032-.9q-.224.752-.32.752-.112,0-.24-.384Q5.008-1.984,2.848-7.792L2.208-9.5q.016.3.016.832v5.2q0,2.928.048,2.96Q2.384-.3,3.04-.3q.528,0,.528.144,0,.16-.336.16-.208,0-.384-.016-.224-.016-.4-.016L.608.016Q.32.016.32-.128q0-.16.912-.176.384,0,.448-.128a2.866,2.866,0,0,0,.064-.832V-8.928q0-1.328-.032-1.44a.435.435,0,0,0-.272-.3,3.85,3.85,0,0,0-.9-.128q-.256-.016-.256-.144,0-.176.464-.176.064,0,.272.016h.832q.944,0,1.328-.016.08.208.944,2.512.368.96,2.064,5.6.3-1.04.624-2.048l1.7-5.3q.144-.464.256-.768l2.4-.016a1.956,1.956,0,0,1,.608.048.157.157,0,0,1,.08.144q0,.16-.272.16a3.725,3.725,0,0,0-.608.032.8.8,0,0,0-.528.256,9.462,9.462,0,0,0-.08,1.872v7.44q0,.64.128.752a2.252,2.252,0,0,0,1.04.144h.1Q11.952-.288,11.952-.128Zm10.48.016q0,.144-.24.144A2.339,2.339,0,0,1,21.9.016L19.872-.016,17.84.016a1.7,1.7,0,0,1-.24.016q-.32,0-.32-.16,0-.176.432-.176Q19.12-.32,19.12-.592a.959.959,0,0,0-.032-.128l-.128-.432-.08-.224q-.144-.5-.7-2.192H14.752a17.236,17.236,0,0,0-.96,2.944.246.246,0,0,0,.192.272q.048.016.8.064.464.016.464.16,0,.16-.416.16-.736,0-1.712-.064-.24-.016-.5-.016a3.751,3.751,0,0,0-.5.032A1.75,1.75,0,0,1,11.92,0Q11.7,0,11.7-.144t.5-.16a1.562,1.562,0,0,0,.728-.152.917.917,0,0,0,.352-.52q2.064-5.888,3.36-9.456a2.122,2.122,0,0,1,.128-.432l.08-.288q.048-.176.128-.176.048,0,.08.1.208.624.944,2.608.576,1.552,2.864,7.792a.748.748,0,0,0,.328.448,2.4,2.4,0,0,0,.824.112Q22.432-.256,22.432-.112ZM18.08-3.936,17.232-6.32l-.768-2.192q-.672,1.76-1.616,4.576ZM32.816-.128q0,.144-.224.144h-.128L30.544,0,28.672.016a1.267,1.267,0,0,1-.208.016q-.3,0-.3-.128t.4-.16q.832-.08.832-.272a66.664,66.664,0,0,0-4.368-5.2V-1.1q0,.56.176.7a1.926,1.926,0,0,0,.944.136q.176,0,.176.16,0,.144-.224.144a2.339,2.339,0,0,1-.288-.016L23.584-.016q-.208,0-.488.024t-.568.024h-.144q-.24,0-.24-.144,0-.16.592-.176.544-.016.64-.24a4.773,4.773,0,0,0,.048-1.008l-.016-8.912q-.016-.336-.864-.336-.384,0-.384-.176,0-.144.272-.144a1.75,1.75,0,0,1,.208.016q.256.032,1.424.032,1.248,0,1.584-.032.176-.016.368-.016.288,0,.288.176a.112.112,0,0,1-.088.12,3.864,3.864,0,0,1-.552.04q-.464.016-.552.128a1.61,1.61,0,0,0-.088.72v3.9l1.36-1.36a43.214,43.214,0,0,0,3.088-3.216q0-.208-.752-.192-.48.016-.48-.16,0-.112.224-.128t1.552-.016h.88a6.3,6.3,0,0,1,.64.016q.16.032.16.16,0,.176-.352.176a5.04,5.04,0,0,0-.944.032.886.886,0,0,0-.416.256q-1.04,1.088-3.168,3.264l-.416.416-.208.224q.1.112.8.864,1.344,1.392,3.856,4.464a4.53,4.53,0,0,0,.728.768,1.781,1.781,0,0,0,.776.16Q32.816-.256,32.816-.128Zm10.4-5.36a5.933,5.933,0,0,1-1.432,4.032A4.478,4.478,0,0,1,38.272.192,4.8,4.8,0,0,1,34.56-1.48a5.936,5.936,0,0,1-1.5-4.12A5.841,5.841,0,0,1,34.5-9.688a4.783,4.783,0,0,1,3.7-1.592,4.533,4.533,0,0,1,3.568,1.664A6.085,6.085,0,0,1,43.216-5.488Zm-1.792.08a7.574,7.574,0,0,0-1.2-4.56,2.453,2.453,0,0,0-2.1-1.024,2.529,2.529,0,0,0-1.984.784q-1.3,1.44-1.3,4.688a7.455,7.455,0,0,0,.9,4A2.846,2.846,0,0,0,38.288-.1,2.479,2.479,0,0,0,40.576-1.44,8,8,0,0,0,41.424-5.408Zm6.7-5.216a2.283,2.283,0,0,1-.64,1.232A13.3,13.3,0,0,0,45.9-6.848q-.192.4-.352.4-.224,0-.224-.192a.484.484,0,0,1,.048-.16,15.441,15.441,0,0,0,.96-2.832,4.458,4.458,0,0,1,.472-1.312.774.774,0,0,1,.68-.336A.573.573,0,0,1,48.128-10.624Zm8.96,7.5A3.075,3.075,0,0,1,56.04-.776a3.583,3.583,0,0,1-2.52.968,5.293,5.293,0,0,1-2.064-.528,1.326,1.326,0,0,0-.48-.144q-.192,0-.24.464-.016.24-.208.24-.16,0-.16-.192a.853.853,0,0,1,.016-.192,13.968,13.968,0,0,0,.128-1.808q0-.16-.032-.9a1.626,1.626,0,0,1-.016-.256q0-.24.192-.24.16,0,.224.384.416,2.848,2.7,2.848A2.01,2.01,0,0,0,55.1-.68a2.147,2.147,0,0,0,.536-1.56,2.327,2.327,0,0,0-.52-1.528,5.425,5.425,0,0,0-1.784-1.256A6.657,6.657,0,0,1,51.216-6.48a2.617,2.617,0,0,1-.592-1.744,2.985,2.985,0,0,1,.856-2.192,2.924,2.924,0,0,1,2.168-.864,4.553,4.553,0,0,1,1.5.368,1.588,1.588,0,0,0,.5.128.309.309,0,0,0,.232-.064.835.835,0,0,0,.1-.336.17.17,0,0,1,.176-.16q.16,0,.16.192a.853.853,0,0,1-.016.192,7.634,7.634,0,0,0-.048.928,7.255,7.255,0,0,0,.08,1.216l.016.256q.016.176-.144.176-.176,0-.24-.368a2.856,2.856,0,0,0-.832-1.576,2.071,2.071,0,0,0-1.472-.632,1.646,1.646,0,0,0-1.272.512,1.974,1.974,0,0,0-.472,1.392,2.118,2.118,0,0,0,.688,1.648,8.407,8.407,0,0,0,1.664.992,6.825,6.825,0,0,1,2.16,1.528A2.662,2.662,0,0,1,57.088-3.12ZM70.88-.112q0,.144-.24.144a2.339,2.339,0,0,1-.288-.016L68.32-.016,66.288.016a1.7,1.7,0,0,1-.24.016q-.32,0-.32-.16,0-.176.432-.176,1.408-.016,1.408-.288a.959.959,0,0,0-.032-.128l-.128-.432-.08-.224q-.144-.5-.7-2.192H63.2a17.236,17.236,0,0,0-.96,2.944.246.246,0,0,0,.192.272q.048.016.8.064.464.016.464.16,0,.16-.416.16-.736,0-1.712-.064-.24-.016-.5-.016a3.751,3.751,0,0,0-.5.032A1.75,1.75,0,0,1,60.368,0q-.224,0-.224-.144t.5-.16a1.562,1.562,0,0,0,.728-.152.917.917,0,0,0,.352-.52q2.064-5.888,3.36-9.456a2.122,2.122,0,0,1,.128-.432l.08-.288q.048-.176.128-.176.048,0,.08.1.208.624.944,2.608.576,1.552,2.864,7.792a.748.748,0,0,0,.328.448,2.4,2.4,0,0,0,.824.112Q70.88-.256,70.88-.112ZM66.528-3.936,65.68-6.32l-.768-2.192Q64.24-6.752,63.3-3.936Zm14.416-1.6a5.289,5.289,0,0,1-1.968,4.384A6,6,0,0,1,75.12,0q-.064,0-.568-.016T73.088-.032h-.8l-1.264.016a1.7,1.7,0,0,1-.24.016q-.3,0-.3-.16,0-.144.512-.144.656,0,.816-.24a1.646,1.646,0,0,0,.064-.608V-9.776a1.855,1.855,0,0,0-.12-.912q-.12-.128-.824-.128-.368,0-.368-.176,0-.128.272-.128l.352.016q.368.016.72.016h1.712a14.435,14.435,0,0,1,4.08.4,4.357,4.357,0,0,1,2.352,1.9A5.959,5.959,0,0,1,80.944-5.536ZM79.152-5.6a6,6,0,0,0-1.04-3.9,4,4,0,0,0-3.248-1.24,2.206,2.206,0,0,0-1.3.224,1.652,1.652,0,0,0-.1.768v8.512a3.371,3.371,0,0,0,.024.544.261.261,0,0,0,.136.16,4.307,4.307,0,0,0,1.616.192,3.507,3.507,0,0,0,2.784-1.216A6.057,6.057,0,0,0,79.152-5.6ZM92.08-10.992q0,.128-.3.144a1.677,1.677,0,0,0-.944.208,2.163,2.163,0,0,0-.5.9l-.544,1.488Q87.824-2.864,87.024.016q-.048.192-.16.192-.128,0-.528-1.2-.72-2.192-1.12-3.3Q84.784-5.5,83.936-7.92l-.768-2.16a1.347,1.347,0,0,0-.352-.6,1.111,1.111,0,0,0-.64-.168q-.528-.016-.632-.032a.114.114,0,0,1-.1-.128q0-.144.32-.144H81.9q.288,0,1,.024t1.016.024q.08,0,.616-.024t1.528-.024h.224q.288,0,.288.16,0,.176-.576.192l-.976.032q-.336.016-.336.208a.523.523,0,0,0,.032.128l.128.416Q84.88-9.888,86.4-5.5l.976,2.864q2.64-7.472,2.64-7.856t-.784-.352l-.5.016q-.192,0-.192-.128,0-.16.48-.16h.544q.448.016.656.016h.512l1.056-.016Q92.08-11.12,92.08-10.992ZM96.352-.128q0,.128-.192.128H96a20.481,20.481,0,0,0-2.176-.048q-.4,0-.8.032Q92.816,0,92.384,0q-.208,0-.208-.144,0-.128.416-.144.64-.016.752-.152a2.035,2.035,0,0,0,.112-.92V-9.776a2.369,2.369,0,0,0-.08-.88q-.1-.16-.88-.192-.3-.016-.3-.128,0-.144.192-.144l2.16.032q.24,0,.928-.016l.608-.016q.256,0,.256.144,0,.128-.7.16-.4.016-.488.144a1.5,1.5,0,0,0-.088.672v8.544a2.826,2.826,0,0,0,.08.992,1.889,1.889,0,0,0,1.04.208Q96.352-.256,96.352-.128ZM106.5-3.568q0-.032-.032.432-.064.928-.064,1.792,0,.1.032.392a6.757,6.757,0,0,1,.032.712V-.1q0,.208-.128.208t-.224-.24a1.646,1.646,0,0,0-.448-.688A4.061,4.061,0,0,1,102.9.192,5.123,5.123,0,0,1,99-1.448a5.8,5.8,0,0,1-1.544-4.136,5.944,5.944,0,0,1,1.416-4.1,4.668,4.668,0,0,1,3.656-1.592,5.027,5.027,0,0,1,1.3.136,5.509,5.509,0,0,1,1.208.552,1.21,1.21,0,0,0,.528.208q.144,0,.272-.256.208-.448.336-.448a.113.113,0,0,1,.128.128,1.1,1.1,0,0,1-.032.208,15.333,15.333,0,0,0-.176,2.88.688.688,0,0,1-.048.352.173.173,0,0,1-.128.048q-.16,0-.208-.3a5.412,5.412,0,0,0-.592-1.9,2.679,2.679,0,0,0-2.464-1.28,2.575,2.575,0,0,0-2.048.864,6.7,6.7,0,0,0-1.36,4.544,6.719,6.719,0,0,0,1.12,4.144,3.1,3.1,0,0,0,2.592,1.28,2.924,2.924,0,0,0,1.52-.408,2.752,2.752,0,0,0,1.056-1.112,6.446,6.446,0,0,0,.592-1.776q.064-.384.208-.384Q106.5-3.808,106.5-3.568Zm9.712.976q0,.064-.032.784t-.032,1.376V.1q-1.568-.08-6.208-.08-.56,0-1.1.016h-.9q-.3,0-.3-.144a.1.1,0,0,1,.1-.112q.048,0,.608-.048.416-.032.5-.176a1.87,1.87,0,0,0,.088-.752v-8.992q0-.464-.136-.552a2.329,2.329,0,0,0-.872-.088q-.256,0-.256-.144t.352-.144l2.736.016,1.808-.016h2.24a5.588,5.588,0,0,0,.88-.064q.032.688.144,1.9l.064.688a1.1,1.1,0,0,1,.016.208q0,.16-.144.16-.176,0-.256-.4a2.59,2.59,0,0,0-.992-1.824,7.24,7.24,0,0,0-2.688-.288h-1.312v4.688h.384a5.016,5.016,0,0,0,2.184-.272q.392-.272.536-1.584.032-.336.176-.336.176,0,.176.288t-.032.848q-.032.56-.032.848,0,1.712.064,2.352.016.16.016.272,0,.208-.176.208-.112,0-.152-.136t-.136-.888a1.272,1.272,0,0,0-.784-1.168,6.671,6.671,0,0,0-1.5-.1h-.72V-.336A30.5,30.5,0,0,0,114.64-.48q1.056-.24,1.2-2.048.032-.4.208-.4Q116.208-2.928,116.208-2.592Z" transform="translate(387 -28)" fill="#222"/>
  </g>
</svg>
