<svg xmlns="http://www.w3.org/2000/svg" xmlns:xlink="http://www.w3.org/1999/xlink" width="364.926" height="94" viewBox="0 0 364.926 94">
  <defs>
    <clipPath id="clip-path">
      <rect id="長方形_7608" data-name="長方形 7608" width="269.754" height="17.249" transform="translate(0 0)" fill="none"/>
    </clipPath>
  </defs>
  <g id="h2" transform="translate(-419 -2496)">
    <g id="グループ_335" data-name="グループ 335" transform="translate(-38 684)">
      <g id="長方形_7509" data-name="長方形 7509" transform="translate(457 1838)" fill="#fff" stroke="#222" stroke-width="1">
        <rect width="68" height="68" stroke="none"/>
        <rect x="0.5" y="0.5" width="67" height="67" fill="none"/>
      </g>
      <line id="線_613" data-name="線 613" x2="48" transform="translate(467 1872)" fill="none" stroke="#222" stroke-width="0.5"/>
      <g id="グループ_493" data-name="グループ 493" transform="translate(469 1852)">
        <g id="グループ_494" data-name="グループ 494">
          <path id="パス_2923" data-name="パス 2923" d="M11.333,2.592a5.134,5.134,0,0,0,1.1-.111l1.6,1.328a3.013,3.013,0,0,0-.5.88C11.349,9.924,9.765,12.2,4.643,14.87A8.235,8.235,0,0,0,2.978,13.2,13.511,13.511,0,0,0,11.11,4.593H1.041v-2Zm4.323-1.1a1.489,1.489,0,0,1-2.978,0,1.489,1.489,0,0,1,2.978,0m-2.226,0a.745.745,0,0,0,1.489,0,.752.752,0,0,0-.753-.752.738.738,0,0,0-.736.752" transform="translate(-1 -1)" fill="#2e2e2e"/>
          <path id="パス_2924" data-name="パス 2924" d="M19.09,13v.673H16.817V2.577H28.742V13.67H26.518V13Zm7.428-8.388H19.09V11h7.428Z" transform="translate(-1 -1)" fill="#2e2e2e"/>
          <path id="パス_2925" data-name="パス 2925" d="M36.131.544l2.289.7c.176.049.3.1.3.225,0,.208-.272.256-.416.272-.144.752-.289,1.424-.464,2.129.128-.016.383-.032.544-.032C41.077,3.842,41.7,6,41.7,8.276a9.916,9.916,0,0,1-1.008,4.4,3.117,3.117,0,0,1-3.073,2,6.307,6.307,0,0,1-1.457-.176v-.576a7.166,7.166,0,0,0-.192-1.761,3.293,3.293,0,0,0,1.457.336c.816,0,1.216-.175,1.68-1.28a8.865,8.865,0,0,0,.529-3.1c0-1.04-.193-2.305-1.521-2.305a6.609,6.609,0,0,0-.8.08,24.751,24.751,0,0,1-4.049,8.644,8.91,8.91,0,0,0-2.017-1.041,19.7,19.7,0,0,0,3.857-7.187,20.366,20.366,0,0,0-2.768.864L31.649,4.93c.529-.063,1.12-.176,1.729-.3.832-.175,1.68-.352,2.257-.448a27.911,27.911,0,0,0,.5-3.634m6.259,2.53A16.134,16.134,0,0,1,45,6.179a4.124,4.124,0,0,1,.72,2.1c0,1.184-1.376,1.68-2.45,2.033a12.452,12.452,0,0,0-1.04-1.81c.721-.16,1.169-.288,1.169-.847,0-.977-1.825-3.026-2.513-3.714ZM43.334,1.2a12.067,12.067,0,0,1,1.377,1.617,9.494,9.494,0,0,0-1.025.767,15.55,15.55,0,0,0-1.392-1.664ZM44.87.224a10.578,10.578,0,0,1,1.409,1.649c-.352.224-.848.577-1.152.817A7.5,7.5,0,0,0,43.8.929Z" transform="translate(-1 -1)" fill="#2e2e2e"/>
          <path id="パス_2926" data-name="パス 2926" d="M12.373,36.107a10.943,10.943,0,0,0,2.673,2.48,11.551,11.551,0,0,0-1.2,1.458,14.181,14.181,0,0,1-2.658-2.514,11.435,11.435,0,0,1-3.712,2.417A6.007,6.007,0,0,0,6.29,38.3a8.712,8.712,0,0,0,3.857-2.337,10.452,10.452,0,0,1-1.232-3.345c-.176.257-.367.5-.56.753a6.15,6.15,0,0,0-1.216-1.2l.32.432A16.154,16.154,0,0,1,5.33,34.794v.176c.913-.064,1.873-.144,2.737-.224a7.36,7.36,0,0,0-.256,1.489c-.816.128-1.648.208-2.481.288v1.761a1.5,1.5,0,0,1-.56,1.328,4.24,4.24,0,0,1-2.177.4,5.8,5.8,0,0,0-.544-1.793,7.482,7.482,0,0,0,1.024.128c.385,0,.448-.128.448-.544V36.651c-.656.048-1.312.08-1.968.08h-.3c-.065.24-.129.368-.3.368-.208,0-.24-.24-.256-.385L.528,35.1c.529.016.721.016,1.088.016.641,0,1.281-.016,1.9-.048V33.881l.5.1a4.112,4.112,0,0,0,.624-.753H3.618a10.6,10.6,0,0,1-2.594,1.681A4.6,4.6,0,0,0,0,33.578a13.276,13.276,0,0,0,4.065-2.833H.448V29.24H3.009V28.2H.992V26.711H3.009V25.158l2.017.128c.144.016.272.049.272.176s-.128.208-.272.256a.448.448,0,0,0-.129.065v.928H6.179v1.264A17.736,17.736,0,0,0,7.347,25.8l1.617.752a.256.256,0,0,1,.16.208c0,.161-.129.208-.465.288A21.616,21.616,0,0,1,7.315,29.24h.737v1.345a14.148,14.148,0,0,0,1.759-5.427l2.114.4a.208.208,0,0,1,.16.208c0,.176-.16.24-.448.321-.193.688-.384,1.36-.609,2.033H15.1v1.7H14.31a12.522,12.522,0,0,1-1.937,6.291M4.9,28.2v1.04H5.33c.257-.336.5-.689.72-1.04Zm1.266,2.545c-.272.319-.561.639-.865.944H6.77l.273.368a9.216,9.216,0,0,0,.912-1.312Zm4.209-.929a2.511,2.511,0,0,1-.128.32,9.878,9.878,0,0,0,1.072,4.274,10.391,10.391,0,0,0,1.154-4.594Z" transform="translate(0 2)" fill="#2e2e2e"/>
          <path id="パス_2927" data-name="パス 2927" d="M18.273,29.561a20.5,20.5,0,0,0,7.7-1.457l1.3,1.5a31.708,31.708,0,0,0-3.778,3.714,1.02,1.02,0,0,1,.385-.065A1.216,1.216,0,0,1,25.155,34.4a8.6,8.6,0,0,1-.127,1.088,8.322,8.322,0,0,0-.113,1.1c0,.929.465.993,1.266.993a10.472,10.472,0,0,0,3.585-.592c0,.944.032,1.7.08,2.209A22.11,22.11,0,0,1,26,39.581a4.279,4.279,0,0,1-2.578-.624,1.631,1.631,0,0,1-.576-1.441,7.277,7.277,0,0,1,.048-.784c.016-.145.064-.673.064-.881,0-.336-.032-.784-.48-.784-.32,0-.736.384-1.312.976-1.089,1.137-1.938,2.1-3.17,3.538l-1.713-1.553c.992-.912,2.321-2.193,3.25-3.169,1.233-1.313,2.416-2.673,3.569-4.066a30.06,30.06,0,0,1-5.314.9l-.384-2.146c.432.017.656.017.864.017M24.419,25.9c.305,0,.785-.016,1.009-.031a9.223,9.223,0,0,0-.256,1.984c-.128.016-.464.032-.64.032a25.921,25.921,0,0,1-4.722-.448L20,25.351a15.776,15.776,0,0,0,4.417.544" transform="translate(0 2)" fill="#2e2e2e"/>
          <path id="パス_2928" data-name="パス 2928" d="M33.281,26.5a24.975,24.975,0,0,0,7.412-.992l1.1,1.472c-.9.689-3.441,3.041-4.241,3.89a6.662,6.662,0,0,1,2.1-.353c2.5,0,4.53,1.505,4.53,4.13,0,3.3-3.089,4.978-6.05,4.978a4.031,4.031,0,0,1-3.506-1.5,2.217,2.217,0,0,1-.336-1.185c0-1.585,1.5-2.4,2.929-2.4a3.322,3.322,0,0,1,3.393,2.529,2.341,2.341,0,0,0,1.424-2.224,2.514,2.514,0,0,0-.8-1.873,3.182,3.182,0,0,0-2.145-.672c-2.466,0-4.21,1.423-6.61,4.017l-1.633-1.6a53.166,53.166,0,0,0,6.978-6.692,43.873,43.873,0,0,1-4.849.609l-.353-2.145c.273.016.5.016.656.016m3.81,9.78c-.448,0-.881.24-.881.72,0,.736,1.089.993,1.665.993a3.959,3.959,0,0,0,.96-.129,1.717,1.717,0,0,0-1.744-1.584" transform="translate(0 2)" fill="#2e2e2e"/>
        </g>
      </g>
    </g>
    <g id="グループ_487" data-name="グループ 487" transform="translate(502 2538)">
      <g id="グループ_491" data-name="グループ 491">
        <path id="パス_2903" data-name="パス 2903" d="M14.968,54.78a15.383,15.383,0,0,1-9.309-2.849A15.882,15.882,0,0,1,0,43.535l7.445-2.507A14.514,14.514,0,0,0,8.661,43.5a8.018,8.018,0,0,0,2.354,2.469,6.467,6.467,0,0,0,3.8,1.064,9.314,9.314,0,0,0,6.153-1.9q2.281-1.9,2.281-6.382a9.065,9.065,0,0,0-2.281-6.459,8.523,8.523,0,0,0-6.534-2.43h-3.8V22.414h3.8q3.8,0,5.622-2.241a8.437,8.437,0,0,0,1.825-5.508q0-3.8-2.165-5.356a8.194,8.194,0,0,0-4.9-1.558,5.166,5.166,0,0,0-3.344,1.1A9.993,9.993,0,0,0,9.23,11.357a13.382,13.382,0,0,0-1.252,2.471L.607,10.865A17.438,17.438,0,0,1,6.419,2.849,14,14,0,0,1,14.968,0a17.41,17.41,0,0,1,8.092,1.785,13.333,13.333,0,0,1,5.394,4.975,14.219,14.219,0,0,1,1.937,7.523,12.577,12.577,0,0,1-2.089,7.1,12.419,12.419,0,0,1-5.282,4.6,12.962,12.962,0,0,1,6.193,4.939,14.043,14.043,0,0,1,2.393,8.13q0,7.219-4.369,11.473T14.968,54.78" transform="translate(-6.815 -7.078)" fill="#6393a8"/>
        <path id="パス_2904" data-name="パス 2904" d="M37.331,13.166c10.9-2.99,13.434-3.45,18.172-3.45,9.155,0,15.411,5.751,15.411,15.044,0,6.947-3.68,11.823-9.8,14.767C55.6,42.2,48.832,42.978,42.806,43.3A25.325,25.325,0,0,0,40.735,37c4.784,0,11.041-.322,15.55-1.886,5.015-1.7,8.234-4.417,8.234-10.075,0-6.3-3.864-9.615-9.982-9.615-6.533,0-17.482,4.1-23.233,7.268l-2.622-7.636a53.905,53.905,0,0,0,8.649-1.887" transform="translate(1 2)" fill="#6393a8"/>
        <path id="パス_2905" data-name="パス 2905" d="M96.764,40.448a17.574,17.574,0,0,0,9.937-5.2,15.343,15.343,0,0,0,3.727-9.8,11.821,11.821,0,0,0-5.153-9.984A12.3,12.3,0,0,0,98.7,13.443c-.736,8.005-2.576,16.378-6.486,23.463-1.288,2.346-3.5,6.026-6.533,6.026-3.773,0-9.662-6.3-9.662-14.031a21.262,21.262,0,0,1,6.9-15A21.724,21.724,0,0,1,98.006,7.83c10.259,0,18.587,7.039,18.587,17.621a20.636,20.636,0,0,1-5.429,13.939c-2.9,3.312-6.349,4.969-10.352,6.532a27.631,27.631,0,0,0-4.048-5.474M85.033,19.93a14.6,14.6,0,0,0-3.175,8.557c0,3.4,1.794,6.946,3.5,6.946.828,0,1.381-.781,1.749-1.426a44.64,44.64,0,0,0,2.668-6.3,44.318,44.318,0,0,0,2.393-13.157,13.88,13.88,0,0,0-7.131,5.383" transform="translate(2 2)" fill="#222"/>
        <path id="パス_2906" data-name="パス 2906" d="M135.081,28.164c.231.137.6.46.6.736,0,.368-.368.506-.691.506a1.891,1.891,0,0,1-.506-.046,58.5,58.5,0,0,1-9.523,12.008,36.463,36.463,0,0,0-5.29-3.911,34.776,34.776,0,0,0,10.075-12.421Zm2.9-21.714,6.119.229c.368,0,1.011.046,1.011.506,0,.368-.275.553-.782.736V16.3h15.458v5.612H144.328V39.3c0,1.7-.046,3.819-1.242,5.107-1.288,1.426-4.324,1.84-6.164,1.84-1.013,0-2.162-.092-3.129-.184a19.723,19.723,0,0,0-1.977-6.165,31.551,31.551,0,0,0,4.14.414c2.024,0,2.024-.736,2.024-3.312V21.907h-15.5V16.3h15.5Zm23.831,30.087a58.172,58.172,0,0,0-4.739,4.186,61.148,61.148,0,0,0-9.339-12.375l4.6-3.589c2.807,2.668,7.684,8.419,9.478,11.778m.046-27.971a4.256,4.256,0,1,1-4.279-4.279,4.231,4.231,0,0,1,4.279,4.279m-6.395,0A2.139,2.139,0,1,0,157.578,6.4a2.141,2.141,0,0,0-2.116,2.163" transform="translate(2 2)" fill="#222"/>
        <path id="パス_2907" data-name="パス 2907" d="M190.789,46.7h-6.625V24.851a85.546,85.546,0,0,1-14.077,7.04,19.328,19.328,0,0,0-4.694-5.521A64.079,64.079,0,0,0,197.321,4.886l5.521,4.232a.894.894,0,0,1,.414.644c0,.414-.46.6-.828.6a2.631,2.631,0,0,1-.828-.137,77.025,77.025,0,0,1-10.811,10.028Z" transform="translate(2 2)" fill="#222"/>
        <path id="パス_2908" data-name="パス 2908" d="M224.783,15.1a49.636,49.636,0,0,0-3.819,5.337,46.637,46.637,0,0,0-12.1-7.822l3.864-5.428A54.5,54.5,0,0,1,224.783,15.1m19.23-.552a26.854,26.854,0,0,0,4,5.383c-8.189,12.467-19.46,20.426-33.354,25.44-.091.6-.276,1.012-.736,1.012a.934.934,0,0,1-.736-.552l-3.727-6.3c14.4-3.036,26.913-12.559,34.551-24.98" transform="translate(2 2)" fill="#222"/>
        <path id="パス_2909" data-name="パス 2909" d="M262.319,18.319c5.521,2.76,12.191,6.809,16.607,11.133-1.564,1.656-3.036,3.312-4.416,5.014a64.574,64.574,0,0,0-14.538-10.3v22.45h-6.533V6.265l6.533.368c.506.046.874.092.874.506,0,.368-.368.552-.874.691v13.8Z" transform="translate(3 2)" fill="#222"/>
      </g>
    </g>
    <g id="グループ_587" data-name="グループ 587" transform="translate(500 2496)">
      <g id="グループ_586" data-name="グループ 586" clip-path="url(#clip-path)">
        <path id="パス_7472" data-name="パス 7472" d="M9.939,16.781H7.346V8.228a33.418,33.418,0,0,1-5.509,2.755A7.584,7.584,0,0,0,0,8.823,25.1,25.1,0,0,0,12.5.414l2.159,1.657a.348.348,0,0,1,.163.252c0,.162-.18.233-.325.233A1.018,1.018,0,0,1,14.17,2.5,30.123,30.123,0,0,1,9.939,6.427Z" fill="#2e2e2e"/>
        <path id="パス_7473" data-name="パス 7473" d="M24.609,4.411A19.633,19.633,0,0,0,23.114,6.5a18.227,18.227,0,0,0-4.735-3.061l1.513-2.125a21.381,21.381,0,0,1,4.717,3.1M32.135,4.2A10.5,10.5,0,0,0,33.7,6.3a25.135,25.135,0,0,1-13.053,9.957c-.036.235-.108.4-.288.4a.366.366,0,0,1-.288-.216l-1.458-2.467A21.347,21.347,0,0,0,32.135,4.2" fill="#2e2e2e"/>
        <path id="パス_7474" data-name="パス 7474" d="M42.969,14.332a9.159,9.159,0,0,1-4,2.558,7.971,7.971,0,0,0-1.819-1.91,7.943,7.943,0,0,0,4.268-2.574A6.641,6.641,0,0,0,42.573,8.5H35.749V6.3H51.054V8.5H45a8.47,8.47,0,0,1-2.035,5.833M48.587,3.8H38.306V1.585H48.587Z" fill="#2e2e2e"/>
        <path id="パス_7475" data-name="パス 7475" d="M56.667,1.368c.269.019.36.036.36.181,0,.126-.11.233-.36.342v8.715H54.146V1.261Zm8.354-.323c.269.018.36.054.36.18,0,.2-.2.288-.36.341V7.4A9.948,9.948,0,0,1,63.6,12.892a11.281,11.281,0,0,1-5.562,4.16,4.573,4.573,0,0,0-1.584-1.963,9.29,9.29,0,0,0,4.735-3.062,7.248,7.248,0,0,0,1.278-4.609V.919Z" fill="#2e2e2e"/>
        <path id="パス_7476" data-name="パス 7476" d="M82.013,2.143A2.746,2.746,0,0,0,83.02,1.98l1.694,1.567c-.2.253-.343.45-.523.721a35.927,35.927,0,0,1-5.2,6.049,8.268,8.268,0,0,0-1.763-1.692,16.539,16.539,0,0,0,3.888-4.178h-12.4v-2.3ZM77.331,5.456c.181.018.307.054.307.18,0,.162-.181.288-.307.36a17.589,17.589,0,0,1-.918,5.294A10.935,10.935,0,0,1,71.8,16.619a13.987,13.987,0,0,0-2.125-1.6,11.152,11.152,0,0,0,3.511-2.9,10.261,10.261,0,0,0,1.567-5.96c0-.288-.019-.666-.036-.864Z" fill="#2e2e2e"/>
        <path id="パス_7477" data-name="パス 7477" d="M87.121,14.62V12.262H97.87V5.546H87.121V3.187h13.36V15.5H97.87V14.62Z" fill="#2e2e2e"/>
        <rect id="長方形_7606" data-name="長方形 7606" width="15.539" height="2.557" transform="translate(103.015 7.652)" fill="#2e2e2e"/>
        <path id="パス_7478" data-name="パス 7478" d="M128.289,14.333a9.157,9.157,0,0,1-4,2.557,7.99,7.99,0,0,0-1.82-1.909,7.949,7.949,0,0,0,4.268-2.574A6.636,6.636,0,0,0,127.892,8.5h-6.824V6.3h15.305V8.5h-6.05a8.476,8.476,0,0,1-2.034,5.833M133.762,3.8H123.481V1.585h10.281Zm1.3-1.638a16.747,16.747,0,0,1,1.819,1.764c-.378.414-.739.846-1.08,1.279a14.118,14.118,0,0,0-1.855-1.891Zm2.719-.307a8.12,8.12,0,0,0-1.08,1.152,12.6,12.6,0,0,0-1.837-1.836L135.9,0a18.2,18.2,0,0,1,1.872,1.854" fill="#2e2e2e"/>
        <path id="パス_7479" data-name="パス 7479" d="M145.875,16.6h-2.25V10.011a30.106,30.106,0,0,1-4.123,2.017,7.029,7.029,0,0,0-1.531-1.8,19.7,19.7,0,0,0,9.885-6.662l1.819,1.422a.275.275,0,0,1,.126.217c0,.162-.126.179-.252.179a1,1,0,0,1-.235-.036,28.213,28.213,0,0,1-3.439,3.133Z" fill="#2e2e2e"/>
        <path id="パス_7480" data-name="パス 7480" d="M160.365,17.052H157.9V12.01a23.455,23.455,0,0,1-5.2,2.5,9.384,9.384,0,0,0-1.315-2.07,20.36,20.36,0,0,0,9.381-5.618h-7.545V4.646h9.507a3.892,3.892,0,0,0,1.1-.18l1.3,1.3a9.006,9.006,0,0,0-1.063.883c-1.782,1.855-2.178,2.269-3.691,3.654ZM162.13,2.324a22.026,22.026,0,0,0-1.189,1.98,21.33,21.33,0,0,0-4.97-2.178l1.207-1.8a26.823,26.823,0,0,1,4.952,2M166.9,12.73c-.433.522-1.044,1.333-1.423,1.873a24.148,24.148,0,0,0-4.518-3.439l1.511-1.638a32.593,32.593,0,0,1,4.43,3.2" fill="#2e2e2e"/>
        <rect id="長方形_7607" data-name="長方形 7607" width="15.539" height="2.557" transform="translate(168.624 7.652)" fill="#2e2e2e"/>
        <path id="パス_7481" data-name="パス 7481" d="M190.767,5.672a27.4,27.4,0,0,1,6.5,4.357c-.612.649-1.188,1.3-1.729,1.963a25.273,25.273,0,0,0-5.689-4.033v8.786h-2.557V.954l2.557.145c.2.017.342.036.342.2,0,.144-.144.216-.342.27v5.4Z" fill="#2e2e2e"/>
        <path id="パス_7482" data-name="パス 7482" d="M204.32,1.926c.306.109.414.18.414.306,0,.162-.181.234-.45.253A23.324,23.324,0,0,0,203.1,9.957a10.5,10.5,0,0,0,.162,1.98,18.159,18.159,0,0,1,.882-1.872,4.383,4.383,0,0,0,1.225,1.278,10.435,10.435,0,0,0-1.225,4.52l-2.16.612a18.835,18.835,0,0,1-1.207-6.986,36.161,36.161,0,0,1,1.135-8.463Zm4.717,8.409a4.77,4.77,0,0,0-.45,1.548c0,1.08,1.4,1.08,2.791,1.08a19.049,19.049,0,0,0,4.519-.486,9.731,9.731,0,0,0-.216,2.179v.324a32.148,32.148,0,0,1-4.177.252c-1.783,0-5.114-.09-5.114-2.557a6.471,6.471,0,0,1,.649-2.718Zm.2-7.31a22.224,22.224,0,0,0,5.456-.576,18.853,18.853,0,0,0,.233,2.341,28.356,28.356,0,0,1-5.653.521c-.738,0-1.458-.017-2.179-.072v-2.3c.721.055,1.423.091,2.143.091" fill="#2e2e2e"/>
        <path id="パス_7483" data-name="パス 7483" d="M221.78,5.87c.144.036.414.126.414.324s-.2.27-.541.378A15.677,15.677,0,0,1,219.51,11.9a4.44,4.44,0,0,0-2.124-.828,14.469,14.469,0,0,0,2.269-5.725Zm8.966-4.645,2.287.9c.09.036.234.09.234.234,0,.234-.27.252-.558.27-1.657,4.375-3.6,7.8-7.58,10.443v.81c0,.919.467.936,1.224.936h1.908c1.243,0,1.3-.341,1.711-2.322a6.266,6.266,0,0,0,2,1.116c-.576,2.414-.755,3.206-3.438,3.206h-3.386c-2.142,0-2.25-1.279-2.341-2.414a25.112,25.112,0,0,1-3.366,1.441,4.517,4.517,0,0,0-1.566-2.053,15.949,15.949,0,0,0,4.915-1.782V4.376l2.467.216c.072,0,.36,0,.36.288,0,.144-.072.18-.486.342v5.221a17.408,17.408,0,0,0,5.617-9.218m-2.2,1.656a11.549,11.549,0,0,0-1.243,1.873,18.283,18.283,0,0,0-4.267-2.665l1.1-1.675a19,19,0,0,1,4.412,2.467m6.229,9.291a9.348,9.348,0,0,0-1.908,1.332,15.764,15.764,0,0,0-2.791-4.465l1.675-1.3a22.451,22.451,0,0,1,3.024,4.43" fill="#2e2e2e"/>
        <path id="パス_7484" data-name="パス 7484" d="M249.017,11.632c0,.2-.433.269-.649.288a10.707,10.707,0,0,1-1.476,1.639,27.936,27.936,0,0,1,4.681,1.836,10.338,10.338,0,0,0-1.458,1.854,26.423,26.423,0,0,0-5.059-2.376,19.885,19.885,0,0,1-7.9,2.25,3.846,3.846,0,0,0-1.134-2.017h.54A15.374,15.374,0,0,0,242.48,14.1c-.629-.181-1.295-.361-1.944-.523l-.468.468a8.321,8.321,0,0,0-2.143-.9,16.76,16.76,0,0,0,1.927-1.658h-3.961V9.723h5.527a12.91,12.91,0,0,0,.811-1.134h-4.862V3.781h3.818V2.863h-5.277V1.152h16.331V2.863h-5.167v.918h3.745V8.589h-5.69c.055.054.055.072.055.107,0,.253-.4.289-.577.307-.126.2-.342.5-.5.72h8.1v1.764h-3.24a.293.293,0,0,1,.054.145m-9.543-4.646h1.711V5.42h-1.711Zm3.151,4.5a7.559,7.559,0,0,1-.828.865c.918.144,1.836.342,2.754.576a7.643,7.643,0,0,0,1.512-1.441Zm.594-7.706h1.711V2.863h-1.711Zm0,3.205h1.711V5.42h-1.711Zm3.853,0h1.639V5.42h-1.639Z" fill="#2e2e2e"/>
        <path id="パス_7485" data-name="パス 7485" d="M263.289,2.629c-.017.342-.017.559-.017.792a14.028,14.028,0,0,0,.072,1.513,28.181,28.181,0,0,1-3.026.648,38.5,38.5,0,0,1-4.086,8.661,14.072,14.072,0,0,0-2.269-.937,27.842,27.842,0,0,0,3.763-7.4c-.954.071-1.674.089-2.952.107l-.289-2.376a14.132,14.132,0,0,0,1.945.144c.666,0,1.35-.054,1.98-.109.27-1.025.5-2.07.685-3.133l2.412.757c.181.054.324.126.324.27s-.143.2-.36.216c-.126.4-.288.972-.432,1.5a20,20,0,0,0,2.25-.649m2.7,5.708a2.544,2.544,0,0,0-.738,1.819,11.244,11.244,0,0,0,.2,1.908,19.5,19.5,0,0,1,3.889,2.305,17.8,17.8,0,0,0-1.4,1.836,16.3,16.3,0,0,0-2.412-1.711c-.235,1.946-1.837,2.36-3.512,2.36-1.782,0-4.015-.685-4.015-2.827,0-1.927,1.729-2.737,3.421-2.737a9.049,9.049,0,0,1,1.566.144,14.861,14.861,0,0,1-.125-1.549,3.5,3.5,0,0,1,1.26-2.664ZM261.6,13.109c-.54,0-1.386.252-1.386.918,0,.756,1.008.918,1.584.918,1.045,0,1.459-.378,1.513-1.4a3.779,3.779,0,0,0-1.711-.431m8.157-6.969a21.771,21.771,0,0,0-1.369,1.98A12.785,12.785,0,0,0,263.812,5.8l1.242-1.98a14.533,14.533,0,0,1,4.7,2.322" fill="#2e2e2e"/>
      </g>
    </g>
  </g>
</svg>
