<svg xmlns="http://www.w3.org/2000/svg" width="15.234" height="139.912" viewBox="0 0 15.234 139.912">
  <path id="パス_7541" data-name="パス 7541" d="M10.039-5.547v-8.848H13.1v8.848a7.411,7.411,0,0,1-.713,3.574Q11.055.371,7.314.371T2.236-1.973a7.411,7.411,0,0,1-.713-3.574v-8.848H4.58v8.848a5,5,0,0,0,.352,2.168A2.333,2.333,0,0,0,7.314-2.168,2.324,2.324,0,0,0,9.688-3.379,5,5,0,0,0,10.039-5.547ZM21.191-2.08a5.3,5.3,0,0,0,1.729-.234,1.67,1.67,0,0,0,1.26-1.67,1.232,1.232,0,0,0-.625-1.1,6.721,6.721,0,0,0-1.963-.674L20.068-6.1a9.627,9.627,0,0,1-3.105-1.1,3.51,3.51,0,0,1-1.455-3.115,4.16,4.16,0,0,1,1.406-3.213,5.946,5.946,0,0,1,4.131-1.279,6.281,6.281,0,0,1,3.882,1.206,4.306,4.306,0,0,1,1.685,3.5H23.721a2.065,2.065,0,0,0-1.133-1.846,3.8,3.8,0,0,0-1.748-.361,3.264,3.264,0,0,0-1.855.469,1.493,1.493,0,0,0-.693,1.309,1.239,1.239,0,0,0,.684,1.152,8.368,8.368,0,0,0,1.875.6l2.48.6a6.413,6.413,0,0,1,2.461,1.045A3.519,3.519,0,0,1,27.08-4.209,4.148,4.148,0,0,1,25.571-.933a6.321,6.321,0,0,1-4.263,1.3A6.914,6.914,0,0,1,16.885-.913a4.267,4.267,0,0,1-1.611-3.53h2.871a2.956,2.956,0,0,0,.537,1.475A3.09,3.09,0,0,0,21.191-2.08ZM39.326-6.289H32.334v3.7H40.3V0H29.395V-14.395H39.951v2.549H32.334v3.057h6.992Zm9.434.645H45.654V0H42.715V-14.395h7.061a6.578,6.578,0,0,1,2.329.371,3.639,3.639,0,0,1,1.382,1.006,4.457,4.457,0,0,1,.742,1.211,3.947,3.947,0,0,1,.273,1.514,4.313,4.313,0,0,1-.518,2.017,2.893,2.893,0,0,1-1.709,1.4,2.688,2.688,0,0,1,1.411,1.138A4.736,4.736,0,0,1,54.1-3.486v.967a7.4,7.4,0,0,0,.078,1.338,1.2,1.2,0,0,0,.547.82V0H51.416q-.137-.479-.2-.771a7.088,7.088,0,0,1-.127-1.24l-.02-1.338a2.614,2.614,0,0,0-.5-1.836A2.668,2.668,0,0,0,48.76-5.645Zm1.826-2.617a1.6,1.6,0,0,0,.9-1.621,1.789,1.789,0,0,0-.869-1.758,3.285,3.285,0,0,0-1.465-.254h-3.5v3.867h3.408A3.8,3.8,0,0,0,50.586-8.262Zm9.053-4.023a3.489,3.489,0,0,1-.718,2.324,3.389,3.389,0,0,1-2.017,1.1V-9.883a2.08,2.08,0,0,0,1.318-1.025,1.787,1.787,0,0,0,.166-.869H56.855v-2.568h2.783ZM67.871-2.08A5.3,5.3,0,0,0,69.6-2.314a1.67,1.67,0,0,0,1.26-1.67,1.232,1.232,0,0,0-.625-1.1,6.721,6.721,0,0,0-1.963-.674L66.748-6.1a9.627,9.627,0,0,1-3.105-1.1,3.51,3.51,0,0,1-1.455-3.115,4.16,4.16,0,0,1,1.406-3.213,5.946,5.946,0,0,1,4.131-1.279,6.281,6.281,0,0,1,3.882,1.206,4.306,4.306,0,0,1,1.685,3.5H70.4a2.065,2.065,0,0,0-1.133-1.846,3.8,3.8,0,0,0-1.748-.361,3.264,3.264,0,0,0-1.855.469,1.493,1.493,0,0,0-.693,1.309,1.239,1.239,0,0,0,.684,1.152,8.368,8.368,0,0,0,1.875.6l2.48.6a6.413,6.413,0,0,1,2.461,1.045A3.519,3.519,0,0,1,73.76-4.209,4.148,4.148,0,0,1,72.251-.933a6.321,6.321,0,0,1-4.263,1.3A6.914,6.914,0,0,1,63.564-.913a4.267,4.267,0,0,1-1.611-3.53h2.871a2.956,2.956,0,0,0,.537,1.475A3.09,3.09,0,0,0,67.871-2.08ZM80.479-14.395h3.213L86.816-3.467l3.154-10.928H93.1L88.184,0H85.342ZM101.25.4a6.277,6.277,0,0,1-4.717-1.68,7.765,7.765,0,0,1-2.187-5.937q0-3.955,2.188-5.937a6.277,6.277,0,0,1,4.717-1.68,6.277,6.277,0,0,1,4.717,1.68q2.178,1.982,2.178,5.938a7.785,7.785,0,0,1-2.178,5.938A6.277,6.277,0,0,1,101.25.4Zm2.842-3.867a5.911,5.911,0,0,0,1.045-3.75,5.9,5.9,0,0,0-1.05-3.745,3.431,3.431,0,0,0-2.837-1.323A3.477,3.477,0,0,0,98.4-10.967a5.833,5.833,0,0,0-1.064,3.75A5.833,5.833,0,0,0,98.4-3.467a3.477,3.477,0,0,0,2.852,1.318A3.449,3.449,0,0,0,104.092-3.467Zm6.113-10.928h2.988V0h-2.988Zm15.947,13.32A5.867,5.867,0,0,1,122.031.4a6.209,6.209,0,0,1-4.883-1.992,7.974,7.974,0,0,1-1.777-5.488,7.905,7.905,0,0,1,2.021-5.811,6.024,6.024,0,0,1,4.473-1.777,6.048,6.048,0,0,1,5.313,2.383,5.159,5.159,0,0,1,1,2.686h-3.008a4.063,4.063,0,0,0-.752-1.562,3.059,3.059,0,0,0-2.432-.937,3.014,3.014,0,0,0-2.588,1.323,6.361,6.361,0,0,0-.947,3.745,5.583,5.583,0,0,0,1,3.628A3.163,3.163,0,0,0,121.992-2.2,2.91,2.91,0,0,0,124.4-3.232a4.5,4.5,0,0,0,.762-1.67h2.979A6.473,6.473,0,0,1,126.152-1.074Zm14.307-5.215h-6.992v3.7h7.969V0H130.527V-14.395h10.557v2.549h-7.617v3.057h6.992Z" transform="translate(0.4 -1.523) rotate(90)" fill="#222"/>
</svg>
