<svg xmlns="http://www.w3.org/2000/svg" width="50.999" height="54.866" viewBox="0 0 50.999 54.866">
  <g id="グループ_606" data-name="グループ 606" transform="translate(3.324 1.17)">
    <path id="パス_7525" data-name="パス 7525" d="M14.871.949q-7.3,0-10.244-5.115T1.688-18.747q0-9.466,2.94-14.607T14.871-38.5q7.3,0,10.257,5.142,2.927,5.142,2.927,14.607T25.115-4.166Q22.175.949,14.871.949Zm4.4-9.624A37.617,37.617,0,0,0,20.3-18.747a36.9,36.9,0,0,0-1.042-10.23,4.255,4.255,0,0,0-4.39-3.322,4.316,4.316,0,0,0-4.43,3.322Q9.36-25.655,9.36-18.747A36.012,36.012,0,0,0,10.441-8.662q1.081,3.494,4.43,3.494T19.274-8.675ZM49.387,0h-7.7V-26.367H32.7v-5.115a33.309,33.309,0,0,0,4.983-.475,7.029,7.029,0,0,0,3.691-2A6.6,6.6,0,0,0,42.848-36.7a6.3,6.3,0,0,0,.29-1.529h6.249Z" transform="translate(-4.512 52.247)" fill="none" stroke="#222" stroke-width="1"/>
    <path id="パス_7526" data-name="パス 7526" d="M5.088.039A3.677,3.677,0,0,1,3.931.2,3.311,3.311,0,0,1,1.606-.64,3.807,3.807,0,0,1,.493-3.608,3.774,3.774,0,0,1,1.636-6.592a3.373,3.373,0,0,1,2.319-.825A3.326,3.326,0,0,1,6.3-6.543,3.658,3.658,0,0,1,7.393-3.716,4.788,4.788,0,0,1,7.158-2.1,2.685,2.685,0,0,1,6.6-1.074l.83.776-.786.82L5.771-.3A3.622,3.622,0,0,1,5.088.039Zm-.322-1.3-.728-.693.776-.811.728.693a3.4,3.4,0,0,0,.239-.615,3.54,3.54,0,0,0,.107-.923,3.074,3.074,0,0,0-.5-1.873,1.7,1.7,0,0,0-1.448-.662,1.766,1.766,0,0,0-1.426.635,2.9,2.9,0,0,0-.532,1.9,2.626,2.626,0,0,0,.762,2.119,1.775,1.775,0,0,0,1.182.415,1.934,1.934,0,0,0,.5-.063A2.479,2.479,0,0,0,4.766-1.26ZM12.6-2.773V-7.2h1.528v4.424A3.706,3.706,0,0,1,13.77-.986,2.654,2.654,0,0,1,11.236.186,2.666,2.666,0,0,1,8.7-.986,3.706,3.706,0,0,1,8.34-2.773V-7.2H9.868v4.424a2.5,2.5,0,0,0,.176,1.084,1.166,1.166,0,0,0,1.191.605,1.162,1.162,0,0,0,1.187-.605A2.5,2.5,0,0,0,12.6-2.773Zm7.774-.371h-3.5v1.851H20.86V0H15.406V-7.2h5.278v1.274H16.875v1.528h3.5Zm4.072,2.1a2.648,2.648,0,0,0,.864-.117.835.835,0,0,0,.63-.835.616.616,0,0,0-.312-.552,3.36,3.36,0,0,0-.981-.337l-.762-.171A4.813,4.813,0,0,1,22.33-3.6,1.755,1.755,0,0,1,21.6-5.161a2.08,2.08,0,0,1,.7-1.606,2.973,2.973,0,0,1,2.065-.64,3.14,3.14,0,0,1,1.941.6,2.153,2.153,0,0,1,.842,1.75H25.709a1.032,1.032,0,0,0-.566-.923,1.9,1.9,0,0,0-.874-.181,1.632,1.632,0,0,0-.928.234.746.746,0,0,0-.347.654.619.619,0,0,0,.342.576,4.184,4.184,0,0,0,.938.3l1.24.3a3.206,3.206,0,0,1,1.23.522,1.76,1.76,0,0,1,.645,1.47,2.074,2.074,0,0,1-.754,1.638A3.161,3.161,0,0,1,24.5.186a3.457,3.457,0,0,1-2.212-.642,2.134,2.134,0,0,1-.806-1.765h1.436a1.478,1.478,0,0,0,.269.737A1.545,1.545,0,0,0,24.444-1.04ZM33.531-7.2v1.274H31.378V0H29.864V-5.923H27.7V-7.2Zm.562,0h1.494V0H34.093ZM39.972.2a3.138,3.138,0,0,1-2.358-.84A3.883,3.883,0,0,1,36.52-3.608a3.806,3.806,0,0,1,1.094-2.969,3.138,3.138,0,0,1,2.358-.84,3.138,3.138,0,0,1,2.358.84,3.816,3.816,0,0,1,1.089,2.969A3.892,3.892,0,0,1,42.33-.64,3.138,3.138,0,0,1,39.972.2Zm1.421-1.934a2.955,2.955,0,0,0,.522-1.875,2.947,2.947,0,0,0-.525-1.873,1.715,1.715,0,0,0-1.418-.662,1.738,1.738,0,0,0-1.426.659,2.917,2.917,0,0,0-.532,1.875,2.917,2.917,0,0,0,.532,1.875,1.738,1.738,0,0,0,1.426.659A1.725,1.725,0,0,0,41.393-1.733ZM50.187,0h-1.5L45.744-5.112V0h-1.4V-7.2h1.577l2.866,5.024V-7.2h1.4Z" transform="translate(-2.512 6.247)"/>
  </g>
</svg>
