<svg xmlns="http://www.w3.org/2000/svg" width="59.297" height="55.901" viewBox="0 0 59.297 55.901">
  <g id="グループ_608" data-name="グループ 608" transform="translate(-0.271 1.129)">
    <path id="パス_7529" data-name="パス 7529" d="M15.422.984Q7.848.984,4.8-4.32T1.75-19.441q0-9.816,3.049-15.148t10.623-5.332q7.574,0,10.637,5.332,3.035,5.332,3.035,15.148T26.045-4.32Q23,.984,15.422.984ZM19.988-9a39.011,39.011,0,0,0,1.066-10.445q0-7.164-1.08-10.609A4.412,4.412,0,0,0,15.422-33.5a4.476,4.476,0,0,0-4.594,3.445Q9.707-26.605,9.707-19.441A37.346,37.346,0,0,0,10.828-8.982q1.121,3.623,4.594,3.623T19.988-9Zm21.875-22.75a7.37,7.37,0,0,0-1.258,4.676H33.332a19.557,19.557,0,0,1,1.012-5.605,12.617,12.617,0,0,1,3.008-4.293A10.479,10.479,0,0,1,40.988-39.1a15.738,15.738,0,0,1,5.168-.738A13.753,13.753,0,0,1,55.33-36.9a9.79,9.79,0,0,1,3.486,7.889,8.721,8.721,0,0,1-2.078,5.906A7.1,7.1,0,0,1,54-21.055q1.066,0,3.063,1.832a9.784,9.784,0,0,1,2.98,7.547A12.711,12.711,0,0,1,56.561-2.83Q53.074.984,46.238.984q-8.422,0-11.7-5.5a16.312,16.312,0,0,1-1.914-7.656h7.656a8.914,8.914,0,0,0,.766,3.938q1.422,2.871,5.168,2.871a5.727,5.727,0,0,0,4.006-1.572,5.842,5.842,0,0,0,1.709-4.525q0-3.91-3.172-5.223a16.1,16.1,0,0,0-5.687-.738V-23a14.756,14.756,0,0,0,5.3-.738q2.6-1.148,2.6-4.648a5.2,5.2,0,0,0-1.326-3.691A4.853,4.853,0,0,0,45.91-33.5,4.686,4.686,0,0,0,41.863-31.746Z" transform="translate(-0.979 53.288)" fill="none" stroke="#222" stroke-width="1"/>
    <path id="パス_7530" data-name="パス 7530" d="M5.088.039A3.677,3.677,0,0,1,3.931.2,3.311,3.311,0,0,1,1.606-.64,3.807,3.807,0,0,1,.493-3.608,3.774,3.774,0,0,1,1.636-6.592a3.373,3.373,0,0,1,2.319-.825A3.326,3.326,0,0,1,6.3-6.543,3.658,3.658,0,0,1,7.393-3.716,4.788,4.788,0,0,1,7.158-2.1,2.685,2.685,0,0,1,6.6-1.074l.83.776-.786.82L5.771-.3A3.622,3.622,0,0,1,5.088.039Zm-.322-1.3-.728-.693.776-.811.728.693a3.4,3.4,0,0,0,.239-.615,3.54,3.54,0,0,0,.107-.923,3.074,3.074,0,0,0-.5-1.873,1.7,1.7,0,0,0-1.448-.662,1.766,1.766,0,0,0-1.426.635,2.9,2.9,0,0,0-.532,1.9,2.626,2.626,0,0,0,.762,2.119,1.775,1.775,0,0,0,1.182.415,1.934,1.934,0,0,0,.5-.063A2.479,2.479,0,0,0,4.766-1.26ZM12.8-2.773V-7.2h1.528v4.424A3.706,3.706,0,0,1,13.97-.986,2.654,2.654,0,0,1,11.436.186,2.666,2.666,0,0,1,8.9-.986,3.706,3.706,0,0,1,8.54-2.773V-7.2h1.528v4.424a2.5,2.5,0,0,0,.176,1.084,1.166,1.166,0,0,0,1.191.605,1.162,1.162,0,0,0,1.187-.605A2.5,2.5,0,0,0,12.8-2.773Zm7.974-.371h-3.5v1.851H21.26V0H15.806V-7.2h5.278v1.274H17.275v1.528h3.5Zm4.272,2.1a2.648,2.648,0,0,0,.864-.117.835.835,0,0,0,.63-.835.616.616,0,0,0-.312-.552,3.36,3.36,0,0,0-.981-.337l-.762-.171A4.813,4.813,0,0,1,22.93-3.6,1.755,1.755,0,0,1,22.2-5.161a2.08,2.08,0,0,1,.7-1.606,2.973,2.973,0,0,1,2.065-.64,3.14,3.14,0,0,1,1.941.6,2.153,2.153,0,0,1,.842,1.75H26.309a1.032,1.032,0,0,0-.566-.923,1.9,1.9,0,0,0-.874-.181,1.632,1.632,0,0,0-.928.234.746.746,0,0,0-.347.654.619.619,0,0,0,.342.576,4.184,4.184,0,0,0,.938.3l1.24.3a3.206,3.206,0,0,1,1.23.522,1.76,1.76,0,0,1,.645,1.47,2.074,2.074,0,0,1-.754,1.638A3.161,3.161,0,0,1,25.1.186a3.457,3.457,0,0,1-2.212-.642,2.134,2.134,0,0,1-.806-1.765h1.436a1.478,1.478,0,0,0,.269.737A1.545,1.545,0,0,0,25.044-1.04ZM34.331-7.2v1.274H32.178V0H30.664V-5.923H28.5V-7.2Zm.762,0h1.494V0H35.093ZM41.172.2a3.138,3.138,0,0,1-2.358-.84A3.883,3.883,0,0,1,37.72-3.608a3.806,3.806,0,0,1,1.094-2.969,3.138,3.138,0,0,1,2.358-.84,3.138,3.138,0,0,1,2.358.84,3.816,3.816,0,0,1,1.089,2.969A3.892,3.892,0,0,1,43.53-.64,3.138,3.138,0,0,1,41.172.2Zm1.421-1.934a2.955,2.955,0,0,0,.522-1.875,2.947,2.947,0,0,0-.525-1.873,1.715,1.715,0,0,0-1.418-.662,1.738,1.738,0,0,0-1.426.659,2.917,2.917,0,0,0-.532,1.875,2.917,2.917,0,0,0,.532,1.875,1.738,1.738,0,0,0,1.426.659A1.725,1.725,0,0,0,42.593-1.733ZM51.587,0h-1.5L47.144-5.112V0h-1.4V-7.2h1.577l2.866,5.024V-7.2h1.4Z" transform="translate(4.021 6.288)"/>
  </g>
</svg>
