<svg xmlns="http://www.w3.org/2000/svg" xmlns:xlink="http://www.w3.org/1999/xlink" width="263.755" height="82.182" viewBox="0 0 263.755 82.182">
  <defs>
    <clipPath id="clip-path">
      <rect id="長方形_7642" data-name="長方形 7642" width="38.612" height="11.273" transform="translate(0 0)" fill="none"/>
    </clipPath>
    <clipPath id="clip-path-2">
      <rect id="長方形_7641" data-name="長方形 7641" width="263.755" height="23.481" transform="translate(0 0)" fill="none"/>
    </clipPath>
  </defs>
  <g id="グループ_196" data-name="グループ 196" transform="translate(-10.705 31.085)">
    <g id="グループ_208" data-name="グループ 208" transform="translate(0 0)">
      <g id="グループ_176" data-name="グループ 176" transform="translate(119.406 -28)">
        <path id="パス_2431" data-name="パス 2431" d="M89.733,20.522h23.086a10.011,10.011,0,1,0,0-20.022H60.511a10.011,10.011,0,1,0,0,20.022H84.858l5.971,4.511" transform="translate(-57.525 -1.11)" fill="#6393a8"/>
        <g id="グループ_559" data-name="グループ 559" transform="translate(-9 -2.585)">
          <path id="パス_2383" data-name="パス 2383" d="M92.366,20.522h20.453a10.011,10.011,0,1,0,0-20.022H60.511a10.011,10.011,0,1,0,0,20.022H84.858l5.971,4.511" transform="translate(-50.5 -0.5)" fill="none" stroke="#222" stroke-width="1"/>
        </g>
        <g id="グループ_514" data-name="グループ 514" transform="translate(15.125 4.986)">
          <g id="グループ_680" data-name="グループ 680" transform="translate(-6.291 -2.448)">
            <g id="グループ_679" data-name="グループ 679" clip-path="url(#clip-path)">
              <path id="パス_8016" data-name="パス 8016" d="M1.067,11.273A3.97,3.97,0,0,0,0,9.942,7.85,7.85,0,0,0,3.645,7.315,6.9,6.9,0,0,0,4.88,4.557H.347V3.093h4.7V.023L6.62.107c.132.012.263.036.263.156S6.715.431,6.62.455V3.093h4.63V4.557H6.656a8.8,8.8,0,0,0,4.761,5.505,3.788,3.788,0,0,0-1.163,1.187,10.2,10.2,0,0,1-4.4-4.725,9.3,9.3,0,0,1-4.785,4.749" fill="#fff"/>
              <path id="パス_8017" data-name="パス 8017" d="M16.474,3.082h-4.21V2.026h4.21Zm1.57,1.859c0,.395-.012,1.438-.06,2.062a16.451,16.451,0,0,1-.779,4.174,5.04,5.04,0,0,0-1-.4v.191H14.974v-.479H13.811v.635H12.5V6.979h3.7v2.9a15.263,15.263,0,0,0,.6-4.545V.443h6.211V9.558a1.52,1.52,0,0,1-.407,1.224,2.807,2.807,0,0,1-1.583.347.684.684,0,0,1-.144-.012,3.914,3.914,0,0,0-.444-1.355,4.086,4.086,0,0,0,.66.048c.576,0,.635-.156.635-.7V1.583H18.044ZM16.09,1.558H12.684V.431H16.09Zm0,3.154H12.684V3.692H16.09Zm0,1.644H12.684V5.3H16.09Zm-2.279,3h1.163V8.046H13.811Zm7.568-6.765v1.02h-.96v.7H21.45V5.36H18.332V4.3h.936v-.7H18.38V2.589h.888v-.8l1.151.071c.132.013.228.048.228.156,0,.072-.1.132-.228.192v.383Zm-.132,3.383v3.2H19.46v.672h-1.1V5.972ZM19.46,8.046H20.2V7.051H19.46Z" fill="#fff"/>
              <path id="パス_8018" data-name="パス 8018" d="M33.211,9.7h2.11v1.139H24.275V9.7h2.148V5.085a14.47,14.47,0,0,1-1.344.7,5.757,5.757,0,0,0-1-1.091,11.275,11.275,0,0,0,4.209-2.447H24.312V1.127h4.761V0l1.475.084c.156.011.252.071.252.155,0,.12-.155.18-.252.216v.672h4.786V2.242H31.3a11.68,11.68,0,0,0,4.258,2.423,4.511,4.511,0,0,0-.913,1.115,12.448,12.448,0,0,1-1.438-.707ZM30.548,3.009V4.617H29.073V2.986A11.8,11.8,0,0,1,26.7,4.905h6.237a10.161,10.161,0,0,1-2.387-1.9m1.2,3.023H27.886v.576h3.861Zm0,1.547H27.886v.576h3.861Zm0,1.548H27.886V9.7h3.861Z" fill="#fff"/>
              <path id="パス_8019" data-name="パス 8019" d="M38.613,10.206H36.79V8.323h1.823ZM38.552.755V3.682L38.193,7.22h-.972l-.372-3.538V.755Z" fill="#fff"/>
            </g>
          </g>
        </g>
      </g>
      <g id="グループ_509" data-name="グループ 509" transform="translate(22.311 4.467)">
        <g id="グループ_510" data-name="グループ 510" transform="translate(0 0)">
          <g id="グループ_675" data-name="グループ 675" transform="translate(-11.606 23.149)">
            <g id="グループ_675-2" data-name="グループ 675" clip-path="url(#clip-path-2)">
              <path id="パス_7991" data-name="パス 7991" d="M17,6.224l3.643,1.29c.227.077.354.152.354.355,0,.3-.329.329-.557.329a25.219,25.219,0,0,1-1.138,4.959,18.186,18.186,0,0,1,3.9,2.707,31.479,31.479,0,0,0-2.075,3.088A19.672,19.672,0,0,0,17.99,16.5a17.837,17.837,0,0,1-5.718,6.756,10.18,10.18,0,0,0-2.783-2.3c2.277-1.037,4.554-3.846,5.642-6.072a23.929,23.929,0,0,0-5.162-1.772c-1.847,3.922-2.834,5.643-3.694,6.605a3.2,3.2,0,0,1-2.581,1.214A3.89,3.89,0,0,1,0,16.9a6.886,6.886,0,0,1,3.466-5.744,8.031,8.031,0,0,1,4.555-1.113C8.653,8.4,9.362,6.629,10.07,4.934A42.093,42.093,0,0,1,4.251,6.022L3.517,2.429c2.657,0,6.882-.38,9.261-1.544l2.2,1.848a19.243,19.243,0,0,0-1.695,2.783A34.341,34.341,0,0,0,11.209,10.2a24.843,24.843,0,0,1,5.06,1.569A20.291,20.291,0,0,0,17,6.224M2.935,16.9c0,.38.152.911.632.911.456,0,1.19-1.113,1.62-1.822A21.952,21.952,0,0,0,6.6,13.208,3.708,3.708,0,0,0,2.935,16.9" fill="#222"/>
              <path id="パス_7992" data-name="パス 7992" d="M37.5,1.619c.177.076.38.177.38.4s-.228.278-.43.278a2.175,2.175,0,0,1-.33-.025c-.4.708-.936,1.72-1.366,2.606C34.662,7.16,33.8,8.931,33.068,10.424a5.434,5.434,0,0,1,2.758-.582,3.04,3.04,0,0,1,3.365,3.239,19.455,19.455,0,0,1-.4,2.935,9.972,9.972,0,0,0-.178,1.9c0,.911.178,1.543,1.24,1.543a4.9,4.9,0,0,0,2.53-1.138,14.173,14.173,0,0,0,3.239-3.264A19.518,19.518,0,0,0,47.9,17.788C45.719,20.293,42.607,23,39.09,23a3.556,3.556,0,0,1-3.871-3.8,18.581,18.581,0,0,1,.177-2.479,19.1,19.1,0,0,0,.253-2.531c0-.809-.329-1.341-1.215-1.341-1.467,0-2.479,1.215-3.238,2.328a34.437,34.437,0,0,0-3.543,7.338l-3.542-1.493c1.67-2.783,3.365-6.2,4.959-9.463A125.893,125.893,0,0,0,34.13,0Z" fill="#222"/>
              <path id="パス_7993" data-name="パス 7993" d="M62.214,3.112c-.025.48-.025.784-.025,1.113a19.719,19.719,0,0,0,.1,2.125,39.336,39.336,0,0,1-4.251.911C56.8,10.9,54.522,16.32,52.3,19.432a19.753,19.753,0,0,0-3.189-1.316A39.132,39.132,0,0,0,54.4,7.717c-1.341.1-2.353.127-4.15.152l-.4-3.341a19.779,19.779,0,0,0,2.733.2c.936,0,1.9-.076,2.783-.152.38-1.442.709-2.91.962-4.4l3.39,1.062c.253.076.456.177.456.38s-.2.278-.506.3c-.177.557-.4,1.367-.608,2.1a28.178,28.178,0,0,0,3.163-.911m3.8,8.021a3.57,3.57,0,0,0-1.038,2.555,15.8,15.8,0,0,0,.279,2.683,27.581,27.581,0,0,1,5.465,3.238,25.023,25.023,0,0,0-1.974,2.581,22.7,22.7,0,0,0-3.39-2.4c-.329,2.733-2.581,3.315-4.934,3.315-2.505,0-5.643-.961-5.643-3.972,0-2.708,2.429-3.847,4.808-3.847a12.663,12.663,0,0,1,2.2.2,20.462,20.462,0,0,1-.177-2.176,4.919,4.919,0,0,1,1.771-3.745Zm-6.174,6.7c-.759,0-1.949.354-1.949,1.291,0,1.062,1.417,1.29,2.227,1.29,1.468,0,2.05-.531,2.126-1.973a5.287,5.287,0,0,0-2.4-.608M71.3,8.046a30.09,30.09,0,0,0-1.923,2.783,17.978,17.978,0,0,0-6.427-3.264l1.746-2.784a20.426,20.426,0,0,1,6.6,3.265" fill="#222"/>
              <path id="パス_7994" data-name="パス 7994" d="M84.705,19.559A9.669,9.669,0,0,0,90.17,16.7a8.441,8.441,0,0,0,2.05-5.39,6.5,6.5,0,0,0-2.834-5.491,6.77,6.77,0,0,0-3.618-1.113A33.215,33.215,0,0,1,82.2,17.611c-.708,1.29-1.923,3.314-3.593,3.314-2.075,0-5.314-3.466-5.314-7.717a11.693,11.693,0,0,1,3.8-8.249,11.95,11.95,0,0,1,8.3-3.34c5.643,0,10.223,3.872,10.223,9.691a11.35,11.35,0,0,1-2.986,7.667,13.494,13.494,0,0,1-5.693,3.593,15.2,15.2,0,0,0-2.227-3.011M78.253,8.274a8.033,8.033,0,0,0-1.746,4.706c0,1.873.987,3.821,1.923,3.821.455,0,.759-.43.962-.785a24.549,24.549,0,0,0,1.467-3.466,24.384,24.384,0,0,0,1.316-7.237,7.633,7.633,0,0,0-3.922,2.961" fill="#222"/>
              <path id="パス_7995" data-name="パス 7995" d="M111.119,23h-3.644V10.981a47.042,47.042,0,0,1-7.743,3.872,10.627,10.627,0,0,0-2.581-3.037A35.242,35.242,0,0,0,114.712,0l3.036,2.328a.488.488,0,0,1,.228.354c0,.227-.253.329-.456.329a1.424,1.424,0,0,1-.455-.076,42.433,42.433,0,0,1-5.946,5.516Z" fill="#6393a8"/>
              <path id="パス_7996" data-name="パス 7996" d="M130.321,5.617a27.425,27.425,0,0,0-2.1,2.936,25.619,25.619,0,0,0-6.655-4.3l2.126-2.986a30,30,0,0,1,6.629,4.352m10.577-.3a14.787,14.787,0,0,0,2.2,2.961c-4.5,6.856-10.7,11.234-18.344,13.992-.051.328-.152.556-.4.556a.512.512,0,0,1-.4-.3l-2.05-3.467a30.006,30.006,0,0,0,19-13.739" fill="#6393a8"/>
              <path id="パス_7997" data-name="パス 7997" d="M155.115,19.559a12.856,12.856,0,0,1-5.617,3.593,11.2,11.2,0,0,0-2.555-2.682,11.168,11.168,0,0,0,6-3.618,9.331,9.331,0,0,0,1.62-5.491h-9.59V8.274h21.507v3.087h-8.5a11.906,11.906,0,0,1-2.859,8.2m7.895-14.8H148.562V1.645H163.01Z" fill="#6393a8"/>
              <path id="パス_7998" data-name="パス 7998" d="M174.368,1.341c.38.026.506.051.506.253,0,.177-.151.329-.506.481V14.322h-3.542V1.189ZM186.109.886c.38.025.506.076.506.253,0,.278-.278.4-.506.481v8.2a13.984,13.984,0,0,1-2,7.717c-1.872,2.935-4.681,4.529-7.818,5.845a6.434,6.434,0,0,0-2.227-2.758,13.051,13.051,0,0,0,6.655-4.3,10.179,10.179,0,0,0,1.8-6.477V.709Z" fill="#6393a8"/>
              <path id="パス_7999" data-name="パス 7999" d="M209.992,2.429a3.869,3.869,0,0,0,1.416-.227l2.379,2.2c-.278.354-.481.633-.734,1.012a50.552,50.552,0,0,1-7.312,8.5,11.647,11.647,0,0,0-2.48-2.378,23.257,23.257,0,0,0,5.466-5.871H191.293V2.429Zm-6.579,4.656c.253.026.43.076.43.254,0,.227-.253.4-.43.5a24.7,24.7,0,0,1-1.291,7.439,15.347,15.347,0,0,1-6.477,7.49,19.7,19.7,0,0,0-2.986-2.252,15.651,15.651,0,0,0,4.934-4.074c1.7-2.252,2.2-5.591,2.2-8.375,0-.4-.026-.936-.051-1.215Z" fill="#6393a8"/>
              <path id="パス_8000" data-name="パス 8000" d="M238.758,14.119v2.075h-1.619v4.2H234v-.86h-5.238v1.721a1.765,1.765,0,0,1-1.468,2,11.161,11.161,0,0,1-2.454.228c-.4,0-.886-.025-1.24-.05a9.077,9.077,0,0,0-1.012-2.759,15.391,15.391,0,0,0,2.125.2c.582,0,.936-.076.936-.734v-.632h-8.223V17.256h8.223V16.194h-9.994V14.119h9.994v-.986h-8.223V11.058h8.223v-.886H219.1V5.036h6.553V4.15h-9.969V1.873h9.969V.3l3.315.152c.2,0,.379.1.379.328s-.2.33-.581.456v.633h9.919V4.15h-9.919v.886h6.5v5.136h-6.5v.886h8.375v3.061ZM225.651,7.034h-3.643V8.1h3.643ZM228.764,8.1h3.644V7.034h-3.644ZM234,13.133h-5.238v.987H234Zm0,3.061h-5.238v1.062H234Z" fill="#6393a8"/>
              <path id="パス_8001" data-name="パス 8001" d="M243.184,5.086c.354.025.632.152.632.379,0,.254-.3.33-.506.38a25.956,25.956,0,0,1-1.265,6.2,7.915,7.915,0,0,0-2.505-1.113,23.623,23.623,0,0,0,1.316-6.174Zm4.453-1.316A23.118,23.118,0,0,1,250.243,6.6a6.373,6.373,0,0,0-1.67,1.518h5.794V6.984h-4.023V5.162h4.023V4.048h-5.288V1.974h5.288V.177l3.113.228c.227.025.506.051.506.3,0,.2-.1.3-.506.48v.785h5.693V4.048H257.48V5.162h4.453V6.984H257.48V8.122h6.275V10.2H248.32V8.274A21.9,21.9,0,0,0,246.953,6.5V23.431h-3.112V.3l3.264.2c.228.025.506.1.506.329,0,.279-.278.405-.658.532V4.3ZM252.9,19.382v4.049h-3.087V11.285h12.626v9.236c0,2.328-.835,2.809-4.453,2.935a6.587,6.587,0,0,0-1.189-2.682c.455.05,1.113.1,1.594.1.936,0,.986-.177.986-.861v-.632Zm6.477-6.123H252.9V14.5h6.478Zm0,3.061H252.9v1.24h6.478Z" fill="#6393a8"/>
            </g>
          </g>
          <g id="グループ_677" data-name="グループ 677" transform="translate(32.919 0.073)">
            <g id="グループ_678" data-name="グループ 678">
              <path id="パス_8002" data-name="パス 8002" d="M7.732,12.9H5.714V6.247A25.978,25.978,0,0,1,1.429,8.39,5.9,5.9,0,0,0,0,6.71,19.528,19.528,0,0,0,9.721.168L11.4,1.457a.27.27,0,0,1,.127.2c0,.126-.141.182-.253.182a.793.793,0,0,1-.252-.042A23.39,23.39,0,0,1,7.732,4.846Z" fill="#2e2e2e"/>
              <path id="パス_8003" data-name="パス 8003" d="M18.637,3.277A15.266,15.266,0,0,0,17.474,4.9a14.182,14.182,0,0,0-3.683-2.381L14.967.868a16.61,16.61,0,0,1,3.67,2.409m5.855-.168a8.247,8.247,0,0,0,1.219,1.64,19.568,19.568,0,0,1-10.156,7.746c-.028.181-.084.307-.223.307a.284.284,0,0,1-.225-.168l-1.135-1.919a16.6,16.6,0,0,0,10.52-7.606" fill="#2e2e2e"/>
              <path id="パス_8004" data-name="パス 8004" d="M33.2,11a7.113,7.113,0,0,1-3.109,1.99A6.216,6.216,0,0,0,28.674,11.5a6.169,6.169,0,0,0,3.319-2,5.173,5.173,0,0,0,.9-3.04H27.581V4.749H39.487V6.457H34.781A6.594,6.594,0,0,1,33.2,11M37.568,2.8h-8V1.078h8Z" fill="#2e2e2e"/>
              <path id="パス_8005" data-name="パス 8005" d="M43.851.91c.21.015.28.028.28.141,0,.1-.084.181-.28.265V8.1H41.889V.826Zm6.5-.252c.211.015.28.042.28.141,0,.153-.153.223-.28.265V5.6a7.74,7.74,0,0,1-1.106,4.273,8.769,8.769,0,0,1-4.329,3.236,3.551,3.551,0,0,0-1.233-1.527A7.222,7.222,0,0,0,47.367,9.2a5.64,5.64,0,0,0,.995-3.586V.56Z" fill="#2e2e2e"/>
              <path id="パス_8006" data-name="パス 8006" d="M63.567,1.513a2.151,2.151,0,0,0,.785-.126l1.316,1.219c-.154.2-.266.35-.406.56a28.081,28.081,0,0,1-4.049,4.706A6.416,6.416,0,0,0,59.84,6.556a12.837,12.837,0,0,0,3.026-3.25H53.215V1.513ZM59.924,4.09c.141.015.238.042.238.141,0,.126-.139.223-.238.28a13.622,13.622,0,0,1-.714,4.118,8.488,8.488,0,0,1-3.586,4.146,10.9,10.9,0,0,0-1.653-1.247A8.681,8.681,0,0,0,56.7,9.274a7.987,7.987,0,0,0,1.219-4.637c0-.225-.015-.519-.028-.673Z" fill="#2e2e2e"/>
              <path id="パス_8007" data-name="パス 8007" d="M74.135,5.659c0,.084-.084.14-.239.182v.434h1.569V5.617c-.518-.112-.658-.56-.658-1.037V2.339h2.479V1.723H74.765V.574h4.02V3.712h-.547a3.338,3.338,0,0,0,1.192.574c-.239.869-.588,1.373-1.569,1.373h-.673c0,.155-.169.182-.28.2v.419h2.115V7.439H76.908v.826h2.451V9.4H76.754a14.747,14.747,0,0,0,2.185,1.261A2.857,2.857,0,0,0,78,11.6c.6-.015,1.205-.057,1.807-.113a3.75,3.75,0,0,0-.5,1.485H72.384a6.967,6.967,0,0,1-2.087-.308,3.335,3.335,0,0,1-1.43-1.009,12.879,12.879,0,0,1-1.358,1.093.432.432,0,0,1,.014.126.243.243,0,0,1-.2.266c-.1,0-.21-.14-.253-.224l-.728-1.5A8.2,8.2,0,0,0,68.1,10.394V7.228H66.6V5.715h3.125v4.4a1.652,1.652,0,0,0,1.021,1.261,3.776,3.776,0,0,0,1.416.225c1.33.042,2.395.042,4.006.042.56,0,1.2-.015,1.681-.029a14.372,14.372,0,0,1-2.591-1.68l.588-.533H73.49l.742.546c.113.084.141.126.141.183,0,.1-.112.153-.211.153a.7.7,0,0,1-.293-.069,12.082,12.082,0,0,1-2.354,1.316,2.865,2.865,0,0,0-1.092-1.106A8.13,8.13,0,0,0,72.734,9.4H70.283V8.265h2.072V7.439H70.576V6.275h1.779V5.659h-.98c-.715,0-1.051-.294-1.051-1.022v-2.3h2.451V1.723H70.3V.574h3.838V3.712H73.56a3.272,3.272,0,0,0,1.149.561,2.53,2.53,0,0,1-.7,1.246c.055.028.126.07.126.14M69.862,2.7c-.448.379-.841.715-1.261,1.135A16.018,16.018,0,0,0,66.584,1.5L67.762.477a14.428,14.428,0,0,1,2.1,2.226m2.913,1.009V3.446H71.739v.7c0,.322.14.349.406.349h.828c.376,0,.46-.378.531-.784ZM73.9,8.265h1.568V7.439H73.9Zm3.39-4.553V3.446H76.277v.743c0,.252,0,.307.379.307H77.6c.42,0,.545-.462.6-.784Z" fill="#2e2e2e"/>
              <path id="パス_8008" data-name="パス 8008" d="M85.207.966l1.219,1.372A9.269,9.269,0,0,0,83.807,8.4,2.293,2.293,0,0,0,86.286,10.9c2.128,0,2.914-1.751,2.914-3.642a10.038,10.038,0,0,0-.631-3.473,11.178,11.178,0,0,0-.994-1.961L89.3.868a14.758,14.758,0,0,0,4.385,5.043,18.509,18.509,0,0,0-.98,1.625A15.369,15.369,0,0,1,90.684,5.5a6.551,6.551,0,0,1,.183,1.738,6.375,6.375,0,0,1-.673,3.207,4.185,4.185,0,0,1-3.852,2.214A4.065,4.065,0,0,1,82.028,8.5a11.221,11.221,0,0,1,1.484-4.778,12.572,12.572,0,0,1-2.156.729l-.617-1.989a10.986,10.986,0,0,0,4.468-1.5M92.856,2.38a10.66,10.66,0,0,0-.8.771A13.17,13.17,0,0,0,90.8,1.625l.813-.659A13.448,13.448,0,0,1,92.856,2.38m1.162-1.022c-.322.253-.588.49-.854.743A10.579,10.579,0,0,0,91.931.7l.784-.7a13.194,13.194,0,0,1,1.3,1.358" fill="#2e2e2e"/>
              <path id="パス_8009" data-name="パス 8009" d="M98.059,1.386a.2.2,0,0,1,.168.2c0,.168-.266.21-.393.223a20.78,20.78,0,0,0-.8,5.562,13.109,13.109,0,0,0,.1,1.652c.239-.462.533-1.022.758-1.414a5.315,5.315,0,0,0,.9,1.191,6.968,6.968,0,0,0-1.163,3.641l-1.6.309A19.933,19.933,0,0,1,95.3,7.213,26.384,26.384,0,0,1,96.111.77Zm4.579-.658,2.13.35c.084.014.2.056.2.182,0,.155-.224.182-.337.2a18.33,18.33,0,0,0-.139,1.835,15.426,15.426,0,0,0,2.2-.547V4.552c-.743.182-1.486.336-2.243.462a26.164,26.164,0,0,0,.212,3.516,8.98,8.98,0,0,1,2.786,1.513,15.156,15.156,0,0,0-.825,1.667,6.163,6.163,0,0,0-1.78-1.2c0,1.569-1.457,2.045-2.774,2.045-1.345,0-2.745-.672-2.745-2.2s1.568-2.171,2.886-2.171c.111,0,.349.014.589.042-.072-.925-.142-2.017-.156-2.969-.658.055-1.315.1-1.974.1-.281,0-.728-.013-.98-.027V3.446a15.37,15.37,0,0,0,1.75.1c.392,0,.784-.014,1.191-.042,0-1.163,0-2.045.013-2.774m-.616,8.923c-.434,0-1.135.14-1.135.7,0,.49.576.673.982.673.559,0,1.176-.238,1.176-.9a1.758,1.758,0,0,0-.027-.3,2.426,2.426,0,0,0-1-.182" fill="#2e2e2e"/>
              <path id="パス_8010" data-name="パス 8010" d="M119.384,2.857l.743,2.087A18.585,18.585,0,0,0,115.2,6.359c-1.2.5-3.446,1.639-3.446,3.166a1.11,1.11,0,0,0,.771,1.051,8.3,8.3,0,0,0,2.885.363A14.475,14.475,0,0,0,120.1,10.2a6.443,6.443,0,0,0-.182,1.457c0,.281,0,.462.013.658a25.942,25.942,0,0,1-4.665.42,8.9,8.9,0,0,1-4.09-.727,2.662,2.662,0,0,1-1.484-2.367c0-1.836,1.6-3.054,3.039-3.895-.714-.715-.868-1.751-1.036-3.151A6.86,6.86,0,0,0,111.33.868l2.367-.5a11.708,11.708,0,0,0-.084,1.429,6.555,6.555,0,0,0,.672,3.151c1.807-.84,3.25-1.386,5.1-2.087m.546-.91a3.853,3.853,0,0,0-1.008.63,8.66,8.66,0,0,0-.981-1.471l.953-.644a7.837,7.837,0,0,1,1.036,1.485m1.64-.406a3.511,3.511,0,0,0-1,.63A8.632,8.632,0,0,0,119.58.715l.953-.659a7.29,7.29,0,0,1,1.037,1.485" fill="#2e2e2e"/>
              <path id="パス_8011" data-name="パス 8011" d="M124.1,4.5a12.9,12.9,0,0,1,4.678-1.19,3.6,3.6,0,0,1,3.741,3.81,5.5,5.5,0,0,1-2.676,4.651,10.236,10.236,0,0,1-4.006,1.625,6.552,6.552,0,0,0-1.219-1.625,12.49,12.49,0,0,0,3.531-1.107,4.257,4.257,0,0,0,2.478-3.432,2.027,2.027,0,0,0-2.059-2.185c-1.806,0-4.272,1.372-5.659,2.493l-.9-2.409A7.731,7.731,0,0,0,124.1,4.5M129.211.757A9.4,9.4,0,0,0,130.178.7a15.07,15.07,0,0,0-.253,1.976,19.529,19.529,0,0,1-5.253-.715L124.939.07a13,13,0,0,0,4.272.687" fill="#2e2e2e"/>
              <path id="パス_8012" data-name="パス 8012" d="M138.1.868c.224.028.322.07.322.2,0,.1-.1.168-.308.239a40.529,40.529,0,0,0-.407,6.4,7.808,7.808,0,0,0,.266,2.437,1.184,1.184,0,0,0,1.275.8,5.152,5.152,0,0,0,3.32-1.68,10.1,10.1,0,0,0,1.737-2.4,10.855,10.855,0,0,0,1.414,1.569c-1.442,2.326-3.767,4.483-6.667,4.483a2.825,2.825,0,0,1-2.942-2.171,14.531,14.531,0,0,1-.336-3.656c0-.687.014-1.528.056-2.283.042-.855.1-2.326.1-3.292,0-.323,0-.645-.027-.953Z" fill="#2e2e2e"/>
              <path id="パス_8013" data-name="パス 8013" d="M146.567,1.989a59.9,59.9,0,0,0,6.681-.532,31.075,31.075,0,0,0,4.245-.8l.364,2a6.761,6.761,0,0,0-3.559.98c-1.554.939-3.052,2.55-3.052,4.469,0,2.241,2.31,2.76,4.117,2.9a10.416,10.416,0,0,0-.882,2.115c-2.535-.574-5.112-1.933-5.112-4.875,0-2.115,1.358-3.712,2.941-4.931a58.719,58.719,0,0,0-6.388.883l-.266-2.255c.308.027.6.042.911.042" fill="#2e2e2e"/>
              <path id="パス_8014" data-name="パス 8014" d="M160.54,1.457a21.814,21.814,0,0,0,6.485-.869l.967,1.289c-.785.6-3.012,2.661-3.713,3.405a5.851,5.851,0,0,1,1.836-.309c2.186,0,3.964,1.316,3.964,3.614,0,2.886-2.7,4.357-5.295,4.357a3.525,3.525,0,0,1-3.067-1.318,1.925,1.925,0,0,1-.295-1.036,2.315,2.315,0,0,1,2.564-2.1,2.906,2.906,0,0,1,2.969,2.214A2.051,2.051,0,0,0,168.2,8.755a2.2,2.2,0,0,0-.7-1.638,2.786,2.786,0,0,0-1.877-.589c-2.157,0-3.684,1.247-5.785,3.515l-1.43-1.4a46.242,46.242,0,0,0,6.108-5.856,38.367,38.367,0,0,1-4.245.533l-.307-1.877c.237.014.434.014.574.014m3.333,8.559c-.392,0-.77.21-.77.63,0,.644.953.869,1.457.869a3.456,3.456,0,0,0,.84-.112,1.5,1.5,0,0,0-1.527-1.387" fill="#2e2e2e"/>
              <path id="パス_8015" data-name="パス 8015" d="M172.09,2.255a4.388,4.388,0,0,1,3.586-1.5,4.524,4.524,0,0,1,3,.952,2.573,2.573,0,0,1,.868,1.919c0,1.247-.882,1.961-1.808,2.619-.853.6-1.427,1.023-1.427,2.018v.35H174.4V7.8c0-1.162.533-1.582,1.919-2.619.477-.364,1.065-.882,1.065-1.513,0-.966-1.051-1.134-1.807-1.134-1.3,0-1.877.448-1.947,1.765h-2.172a3.651,3.651,0,0,1,.631-2.046m4.328,9.848h-2.129V9.9h2.129Z" fill="#2e2e2e"/>
            </g>
          </g>
        </g>
      </g>
    </g>
  </g>
</svg>
