<svg xmlns="http://www.w3.org/2000/svg" width="522.998" height="91.15" viewBox="0 0 522.998 91.15">
  <g id="グループ_196" data-name="グループ 196" transform="translate(-397.556 -2484.903)">
    <g id="グループ_208" data-name="グループ 208" transform="translate(13)">
      <g id="グループ_176" data-name="グループ 176" transform="translate(334.676 2485.022)">
        <path id="パス_2431" data-name="パス 2431" d="M110.1,30.918h35.074a15.209,15.209,0,0,0,0-30.418H65.709a15.209,15.209,0,1,0,0,30.418H102.7l9.072,6.853" transform="translate(2.88 2.88)" fill="#6393a8"/>
        <g id="グループ_559" data-name="グループ 559">
          <path id="パス_2383" data-name="パス 2383" d="M114.1,30.918h31.074a15.209,15.209,0,0,0,0-30.418H65.709a15.209,15.209,0,1,0,0,30.418H102.7l9.072,6.853" transform="translate(-0.12 -0.12)" fill="none" stroke="#222" stroke-width="1"/>
        </g>
        <g id="グループ_514" data-name="グループ 514" transform="translate(83.324 9.978)">
          <path id="パス_3041" data-name="パス 3041" d="M1.334,14.1A4.952,4.952,0,0,0,0,12.435,9.822,9.822,0,0,0,4.559,9.15,8.645,8.645,0,0,0,6.1,5.7H.434V3.871h5.88V.031l1.965.1c.164.016.33.045.33.2S8.4.54,8.279.571v3.3h5.789V5.7H8.324a11.006,11.006,0,0,0,5.955,6.884,4.743,4.743,0,0,0-1.455,1.485A12.762,12.762,0,0,1,7.318,8.161,11.621,11.621,0,0,1,1.334,14.1" fill="#fff"/>
          <path id="パス_3042" data-name="パス 3042" d="M20.594,3.856H15.329V2.536h5.265ZM22.559,6.18c0,.5-.015,1.8-.075,2.58a20.534,20.534,0,0,1-.975,5.22,6.335,6.335,0,0,0-1.245-.495v.24H18.719v-.6H17.264v.8H15.629V8.73h4.635v3.63a19.108,19.108,0,0,0,.75-5.685V.555h7.769v11.4a1.9,1.9,0,0,1-.51,1.53,3.506,3.506,0,0,1-1.979.435.869.869,0,0,1-.181-.015,4.877,4.877,0,0,0-.554-1.695,4.962,4.962,0,0,0,.825.06c.72,0,.8-.2.8-.87V1.981h-4.62ZM20.114,1.951H15.853V.541h4.261Zm0,3.944H15.853V4.621h4.261Zm0,2.056H15.853V6.631h4.261ZM17.264,11.7h1.455V10.065H17.264Zm9.465-8.459V4.515h-1.2v.87h1.289V6.7h-3.9V5.385h1.17v-.87h-1.11V3.241h1.11v-1l1.44.09c.164.014.285.059.285.195,0,.09-.121.164-.285.239v.481ZM26.564,7.47v4.005H24.329v.84h-1.38V7.47Zm-2.235,2.595h.93V8.82h-.93Z" fill="#fff"/>
          <path id="パス_3043" data-name="パス 3043" d="M41.52,12.135h2.638V13.56H30.344V12.135h2.685V6.361a18.013,18.013,0,0,1-1.679.869A7.209,7.209,0,0,0,30.1,5.866a14.1,14.1,0,0,0,5.265-3.061h-4.98V1.411h5.955V0l1.845.106c.195.015.315.09.315.194,0,.151-.2.226-.315.271v.84h5.985V2.805h-5.04a14.6,14.6,0,0,0,5.325,3.03A5.714,5.714,0,0,0,43.318,7.23a15.374,15.374,0,0,1-1.8-.885Zm-3.331-8.37V5.776H36.344V3.736a14.665,14.665,0,0,1-2.97,2.4h7.8a12.676,12.676,0,0,1-2.985-2.37m1.5,3.78h-4.83v.72h4.83Zm0,1.935h-4.83V10.2h4.83Zm0,1.935h-4.83v.72h4.83Z" fill="#fff"/>
          <path id="パス_3044" data-name="パス 3044" d="M49.169,12.764h-2.28V10.41h2.28ZM49.094.945V4.6L48.645,9.03H47.43L46.964,4.6V.945Z" fill="#fff"/>
        </g>
      </g>
      <g id="グループ_509" data-name="グループ 509" transform="translate(428 2493)">
        <g id="グループ_510" data-name="グループ 510">
          <g id="グループ_560" data-name="グループ 560">
            <path id="パス_3016" data-name="パス 3016" d="M30.915,51.678l6.624,2.346c.414.138.645.276.645.644,0,.552-.6.6-1.013.6a45.783,45.783,0,0,1-2.07,9.017,33.1,33.1,0,0,1,7.085,4.922,57.092,57.092,0,0,0-3.773,5.614,35.9,35.9,0,0,0-5.7-4.463,32.441,32.441,0,0,1-10.4,12.283,18.521,18.521,0,0,0-5.06-4.187c4.14-1.885,8.28-6.992,10.258-11.041a43.527,43.527,0,0,0-9.384-3.22c-3.359,7.13-5.153,10.259-6.717,12.007a5.817,5.817,0,0,1-4.693,2.208C2.852,78.406,0,74.91,0,71.092A12.521,12.521,0,0,1,6.3,60.649a14.593,14.593,0,0,1,8.281-2.025c1.15-2.99,2.438-6.211,3.727-9.293A76.467,76.467,0,0,1,7.728,51.31L6.394,44.777c4.831,0,12.513-.69,16.838-2.806l4,3.358a35.18,35.18,0,0,0-3.082,5.061A62.73,62.73,0,0,0,20.379,58.9a45.317,45.317,0,0,1,9.2,2.852,36.912,36.912,0,0,0,1.335-10.075M5.336,71.092c0,.69.276,1.656,1.15,1.656.828,0,2.163-2.024,2.944-3.312a39.952,39.952,0,0,0,2.577-5.061,6.743,6.743,0,0,0-6.671,6.717" fill="#222"/>
            <path id="パス_3017" data-name="パス 3017" d="M68.174,43.305c.322.138.69.322.69.736s-.414.506-.782.506a3.894,3.894,0,0,1-.6-.046c-.736,1.288-1.7,3.128-2.485,4.739-1.977,4.14-3.542,7.36-4.876,10.075a9.87,9.87,0,0,1,5.015-1.059c3.726,0,6.118,2.116,6.118,5.889a35.245,35.245,0,0,1-.735,5.337,18.106,18.106,0,0,0-.323,3.45c0,1.656.323,2.807,2.254,2.807,1.611,0,3.313-1.151,4.6-2.071a25.771,25.771,0,0,0,5.889-5.934,35.4,35.4,0,0,0,4.14,4.968c-3.957,4.555-9.615,9.477-16.01,9.477-4.278,0-7.039-2.576-7.039-6.9a33.877,33.877,0,0,1,.323-4.509,34.75,34.75,0,0,0,.46-4.6c0-1.471-.6-2.438-2.208-2.438-2.669,0-4.509,2.209-5.889,4.232a62.607,62.607,0,0,0-6.441,13.342l-6.441-2.714c3.036-5.06,6.119-11.271,9.018-17.206a229.387,229.387,0,0,0,9.2-21.024Z" fill="#222"/>
            <path id="パス_3018" data-name="パス 3018" d="M113.116,46.018c-.046.874-.046,1.427-.046,2.025a35.806,35.806,0,0,0,.184,3.864,72.063,72.063,0,0,1-7.728,1.656c-2.255,6.625-6.4,16.47-10.444,22.129a35.705,35.705,0,0,0-5.8-2.392A71.159,71.159,0,0,0,98.9,54.391c-2.439.185-4.279.231-7.545.277l-.737-6.074a35.967,35.967,0,0,0,4.969.369c1.7,0,3.45-.138,5.061-.276.69-2.623,1.288-5.291,1.748-8.005l6.165,1.932c.46.138.828.322.828.69s-.368.506-.92.552c-.322,1.013-.736,2.485-1.105,3.819a50.855,50.855,0,0,0,5.751-1.657m6.9,14.584a6.5,6.5,0,0,0-1.886,4.647,28.758,28.758,0,0,0,.506,4.877,50.1,50.1,0,0,1,9.937,5.888,45.041,45.041,0,0,0-3.588,4.693,41.231,41.231,0,0,0-6.166-4.371c-.6,4.968-4.692,6.027-8.97,6.027-4.555,0-10.259-1.748-10.259-7.223,0-4.922,4.416-6.993,8.74-6.993a23.128,23.128,0,0,1,4,.368,37.192,37.192,0,0,1-.322-3.957,8.938,8.938,0,0,1,3.221-6.808ZM108.792,72.794c-1.381,0-3.543.643-3.543,2.346,0,1.932,2.576,2.346,4.049,2.346,2.668,0,3.727-.966,3.864-3.588a9.618,9.618,0,0,0-4.37-1.1m20.84-17.8a54.648,54.648,0,0,0-3.5,5.061,32.662,32.662,0,0,0-11.686-5.935l3.175-5.062a37.123,37.123,0,0,1,12.007,5.936" fill="#222"/>
            <path id="パス_3019" data-name="パス 3019" d="M154.01,75.922a17.574,17.574,0,0,0,9.937-5.2,15.344,15.344,0,0,0,3.727-9.8,11.821,11.821,0,0,0-5.153-9.984,12.3,12.3,0,0,0-6.579-2.024c-.736,8.005-2.576,16.378-6.486,23.463-1.288,2.346-3.5,6.026-6.533,6.026-3.773,0-9.662-6.3-9.662-14.031a21.262,21.262,0,0,1,6.9-15A21.724,21.724,0,0,1,155.252,43.3c10.259,0,18.587,7.039,18.587,17.621a20.636,20.636,0,0,1-5.429,13.939c-2.9,3.312-6.349,4.969-10.352,6.532a27.63,27.63,0,0,0-4.048-5.474M142.279,55.4a14.6,14.6,0,0,0-3.175,8.557c0,3.4,1.794,6.946,3.5,6.946.828,0,1.381-.781,1.749-1.426a45.965,45.965,0,0,0,5.061-19.46,13.88,13.88,0,0,0-7.131,5.383" fill="#222"/>
            <path id="パス_3020" data-name="パス 3020" d="M202.035,82.179H195.41V60.326a85.515,85.515,0,0,1-14.078,7.04,19.309,19.309,0,0,0-4.693-5.521,64.079,64.079,0,0,0,31.928-21.484l5.521,4.232a.894.894,0,0,1,.414.644c0,.414-.46.6-.828.6a2.632,2.632,0,0,1-.828-.137,77.024,77.024,0,0,1-10.811,10.028Z" fill="#6393a8"/>
            <path id="パス_3021" data-name="パス 3021" d="M236.948,50.573a49.638,49.638,0,0,0-3.819,5.337,46.637,46.637,0,0,0-12.1-7.822l3.864-5.428a54.5,54.5,0,0,1,12.054,7.913m19.23-.552a26.854,26.854,0,0,0,4,5.383c-8.189,12.467-19.46,20.426-33.354,25.44-.091.6-.276,1.012-.736,1.012a.933.933,0,0,1-.736-.552L221.627,75c14.4-3.036,26.913-12.559,34.551-24.98" fill="#6393a8"/>
            <path id="パス_3022" data-name="パス 3022" d="M282.028,75.922a23.389,23.389,0,0,1-10.213,6.533,20.363,20.363,0,0,0-4.647-4.877c4-1.1,8.374-3.173,10.9-6.578,2.162-2.852,2.851-6.441,2.944-9.983H263.58V55.4h39.1v5.612H287.226c-.092,5.474-1.38,10.811-5.2,14.9m14.353-26.913H270.112V43.351h26.269Z" fill="#6393a8"/>
            <path id="パス_3023" data-name="パス 3023" d="M317.032,42.8c.691.046.92.092.92.46,0,.321-.275.6-.92.874V66.4h-6.44V42.523Zm21.347-.828c.69.046.92.138.92.46,0,.506-.506.735-.92.874v14.9c0,4.923-.92,9.846-3.635,14.032-3.4,5.336-8.511,8.235-14.215,10.627a11.694,11.694,0,0,0-4.048-5.014c4.692-1.519,9.063-3.819,12.1-7.822,2.668-3.5,3.266-7.544,3.266-11.777V41.649Z" fill="#6393a8"/>
            <path id="パス_3024" data-name="パス 3024" d="M381.8,44.776a7.038,7.038,0,0,0,2.576-.414l4.325,4c-.507.644-.875,1.15-1.335,1.84a91.9,91.9,0,0,1-13.295,15.458,21.143,21.143,0,0,0-4.508-4.324c4.37-3.635,6.762-5.843,9.937-10.674H347.8V44.776Zm-11.961,8.465c.46.047.782.139.782.461,0,.414-.461.735-.782.92-.185,4.324-.782,9.476-2.347,13.525a27.909,27.909,0,0,1-11.777,13.617,35.608,35.608,0,0,0-5.429-4.093,28.48,28.48,0,0,0,8.972-7.408c3.082-4.094,4-10.167,4-15.227,0-.736-.046-1.7-.092-2.209Z" fill="#6393a8"/>
            <path id="パス_3025" data-name="パス 3025" d="M434.106,66.032V69.8h-2.944v7.637h-5.7V75.876h-9.524V79c0,2.025-.69,3.082-2.668,3.634a20.406,20.406,0,0,1-4.463.414c-.736,0-1.61-.046-2.254-.092a16.435,16.435,0,0,0-1.841-5.014,28.146,28.146,0,0,0,3.865.368c1.058,0,1.7-.138,1.7-1.334V75.83H395.324V71.736h14.951V69.8H392.1V66.032h18.172V64.238H395.324V60.465h14.951v-1.61H398.36V49.516h11.915v-1.61H392.149V43.765h18.126V40.912l6.027.277c.368,0,.69.183.69.6s-.367.6-1.058.829v1.15h18.034v4.141H415.934v1.61h11.823v9.339H415.934v1.61h15.228v5.567ZM410.275,53.15h-6.624v1.933h6.624Zm5.659,1.932h6.625V53.149h-6.625Zm9.524,9.156h-9.523v1.794h9.523Zm0,5.566h-9.523v1.932h9.523Z" fill="#6393a8"/>
            <path id="パス_3026" data-name="パス 3026" d="M442.152,49.608c.644.046,1.15.275,1.15.689,0,.461-.552.6-.92.691a47.189,47.189,0,0,1-2.3,11.271,14.385,14.385,0,0,0-4.555-2.024,42.867,42.867,0,0,0,2.392-11.226Zm8.1-2.393a42.109,42.109,0,0,1,4.739,5.152,11.562,11.562,0,0,0-3.037,2.761h10.535v-2.07h-7.315V49.745h7.315V47.721h-9.614V43.949h9.614V40.683l5.659.414c.414.046.92.092.92.552,0,.368-.184.551-.92.874v1.426H478.5v3.772H468.145v2.024h8.1v3.313h-8.1v2.07h11.409V58.9H451.491V55.4a39.785,39.785,0,0,0-2.485-3.221V82.961h-5.658V40.912l5.935.369c.414.045.92.183.92.6,0,.507-.506.737-1.2.967v5.336ZM459.818,75.6v7.36h-5.612V60.879h22.956V77.671c0,4.233-1.518,5.107-8.1,5.336a11.955,11.955,0,0,0-2.162-4.876c.828.092,2.024.184,2.9.184,1.7,0,1.794-.323,1.794-1.565V75.6ZM471.6,64.467H459.818v2.254H471.6Zm0,5.566H459.818v2.255H471.6Z" fill="#6393a8"/>
          </g>
          <g id="グループ_511" data-name="グループ 511" transform="translate(-13 1)">
            <path id="パス_3027" data-name="パス 3027" d="M147.842,16.583h-2.593V8.03a33.388,33.388,0,0,1-5.51,2.755,7.546,7.546,0,0,0-1.835-2.16A25.086,25.086,0,0,0,150.4.216l2.161,1.657a.353.353,0,0,1,.162.252c0,.162-.181.233-.324.233a1.024,1.024,0,0,1-.325-.053,30.122,30.122,0,0,1-4.231,3.924Z" fill="#2e2e2e"/>
            <path id="パス_3028" data-name="パス 3028" d="M161.864,4.213A19.351,19.351,0,0,0,160.369,6.3a18.227,18.227,0,0,0-4.735-3.061l1.512-2.125a21.411,21.411,0,0,1,4.718,3.1M169.39,4A10.467,10.467,0,0,0,170.956,6.1,25.138,25.138,0,0,1,157.9,16.06c-.036.235-.109.4-.288.4a.363.363,0,0,1-.288-.216l-1.459-2.467A21.351,21.351,0,0,0,169.39,4" fill="#2e2e2e"/>
            <path id="パス_3029" data-name="パス 3029" d="M180.224,14.134a9.159,9.159,0,0,1-4,2.558,7.971,7.971,0,0,0-1.819-1.91,7.944,7.944,0,0,0,4.267-2.574A6.635,6.635,0,0,0,179.828,8.3H173V6.1h15.3V8.3h-6.05a8.473,8.473,0,0,1-2.034,5.833M185.841,3.6H175.56V1.387h10.281Z" fill="#2e2e2e"/>
            <path id="パス_3030" data-name="パス 3030" d="M194.281,1.17c.27.019.36.036.36.181,0,.126-.109.233-.36.342v8.715H191.76V1.063Zm8.354-.323c.271.018.36.054.36.18,0,.2-.2.288-.36.341V7.2a9.946,9.946,0,0,1-1.422,5.492,11.283,11.283,0,0,1-5.563,4.16,4.582,4.582,0,0,0-1.585-1.963,9.282,9.282,0,0,0,4.735-3.062,7.236,7.236,0,0,0,1.278-4.609V.721Z" fill="#2e2e2e"/>
            <path id="パス_3031" data-name="パス 3031" d="M219.431,1.945a2.746,2.746,0,0,0,1.007-.163l1.693,1.567c-.2.253-.343.45-.522.721a35.927,35.927,0,0,1-5.2,6.049,8.25,8.25,0,0,0-1.764-1.692,16.525,16.525,0,0,0,3.889-4.178h-12.4v-2.3Zm-4.682,3.313c.179.018.307.054.307.18,0,.162-.181.288-.307.36a17.62,17.62,0,0,1-.918,5.294,10.935,10.935,0,0,1-4.609,5.329,13.987,13.987,0,0,0-2.125-1.6,11.137,11.137,0,0,0,3.51-2.9,10.254,10.254,0,0,0,1.567-5.96c0-.288-.018-.666-.035-.864Z" fill="#2e2e2e"/>
            <path id="パス_3032" data-name="パス 3032" d="M233.019,7.274c0,.107-.108.18-.306.233v.559h2.016V7.219c-.666-.143-.846-.719-.846-1.332V3.006h3.187V2.214h-3.241V.738H239V4.771h-.7a4.3,4.3,0,0,0,1.53.738c-.306,1.116-.756,1.765-2.017,1.765h-.864c0,.2-.216.233-.36.252v.54H239.3V9.56h-2.718v1.063h3.151v1.459h-3.35a18.96,18.96,0,0,0,2.81,1.62,3.681,3.681,0,0,0-1.207,1.206c.774-.018,1.549-.073,2.323-.144a4.809,4.809,0,0,0-.648,1.908h-8.895a8.992,8.992,0,0,1-2.682-.4,4.3,4.3,0,0,1-1.837-1.3,16.756,16.756,0,0,1-1.746,1.4.594.594,0,0,1,.017.162.311.311,0,0,1-.252.342c-.126,0-.27-.179-.324-.288l-.937-1.926a10.458,10.458,0,0,0,2.251-1.314V9.291h-1.926V7.345h4.015V13a2.131,2.131,0,0,0,1.315,1.62,4.815,4.815,0,0,0,1.818.288c1.711.054,3.079.054,5.15.054.72,0,1.548-.018,2.161-.036a18.437,18.437,0,0,1-3.331-2.161l.756-.683h-3.025l.954.7c.144.107.18.162.18.233,0,.126-.144.2-.27.2a.9.9,0,0,1-.379-.09,15.436,15.436,0,0,1-3.024,1.693,3.675,3.675,0,0,0-1.4-1.422,10.49,10.49,0,0,0,2.97-1.314h-3.151V10.623h2.665V9.56h-2.286V8.066h2.286V7.274h-1.261c-.918,0-1.349-.378-1.349-1.315V3.006h3.15V2.214h-3.186V.738h4.933V4.771h-.738a4.167,4.167,0,0,0,1.476.72,3.237,3.237,0,0,1-.9,1.6c.071.036.162.091.162.181m-5.492-3.8c-.576.486-1.08.919-1.62,1.459a20.863,20.863,0,0,0-2.593-3.007L224.827.612a18.488,18.488,0,0,1,2.7,2.862m3.745,1.3V4.429H229.94v.9c0,.414.18.449.523.449h1.061c.486,0,.6-.486.685-1.008Zm1.441,5.852h2.017V9.561h-2.017Zm4.357-5.852V4.429h-1.3v.954c0,.325,0,.4.485.4h1.207c.541,0,.7-.594.775-1.008Z" fill="#2e2e2e"/>
            <path id="パス_3033" data-name="パス 3033" d="M247.256,1.242l1.566,1.765a11.909,11.909,0,0,0-3.367,7.8,2.948,2.948,0,0,0,3.188,3.2c2.736,0,3.745-2.25,3.745-4.681a12.887,12.887,0,0,0-.811-4.466,14.37,14.37,0,0,0-1.278-2.52l2.215-1.225A18.963,18.963,0,0,0,258.149,7.6a23.758,23.758,0,0,0-1.26,2.087,19.669,19.669,0,0,1-2.593-2.61,8.4,8.4,0,0,1,.234,2.232,8.2,8.2,0,0,1-.864,4.124,5.383,5.383,0,0,1-4.951,2.845,5.225,5.225,0,0,1-5.546-5.347,14.422,14.422,0,0,1,1.908-6.141,16.227,16.227,0,0,1-2.772.936l-.792-2.556a14.113,14.113,0,0,0,5.743-1.927m9.831,1.818a13.893,13.893,0,0,0-1.027.991,16.868,16.868,0,0,0-1.62-1.962l1.044-.847a17.02,17.02,0,0,1,1.6,1.818m1.494-1.314c-.414.324-.756.631-1.1.955A13.67,13.67,0,0,0,255.9.9l1.009-.9a16.983,16.983,0,0,1,1.674,1.746" fill="#2e2e2e"/>
            <path id="パス_3034" data-name="パス 3034" d="M263.418,1.782a.253.253,0,0,1,.217.252c0,.217-.343.27-.505.288A26.732,26.732,0,0,0,262.1,9.47a16.633,16.633,0,0,0,.126,2.125c.306-.594.684-1.314.972-1.818a6.861,6.861,0,0,0,1.153,1.53,8.956,8.956,0,0,0-1.494,4.681l-2.053.4a25.644,25.644,0,0,1-.937-7.112A33.9,33.9,0,0,1,260.916.99Zm5.888-.846,2.737.45c.109.018.252.072.252.234,0,.2-.288.234-.431.253a23.156,23.156,0,0,0-.181,2.358,19.688,19.688,0,0,0,2.827-.7V5.851c-.954.235-1.909.433-2.881.6a34.217,34.217,0,0,0,.27,4.519,11.524,11.524,0,0,1,3.583,1.945,19.7,19.7,0,0,0-1.062,2.142,7.882,7.882,0,0,0-2.287-1.548c0,2.016-1.872,2.629-3.565,2.629-1.729,0-3.529-.865-3.529-2.828s2.017-2.79,3.709-2.79c.144,0,.451.018.756.054-.09-1.188-.179-2.593-.2-3.817-.846.072-1.692.126-2.538.126-.36,0-.937-.018-1.261-.036V4.429a19.519,19.519,0,0,0,2.251.126c.5,0,1.008-.018,1.53-.054,0-1.494,0-2.628.018-3.565M268.514,12.4c-.558,0-1.458.181-1.458.9,0,.631.738.865,1.26.865.72,0,1.512-.306,1.512-1.153a2.146,2.146,0,0,0-.036-.378,3.11,3.11,0,0,0-1.278-.234" fill="#2e2e2e"/>
            <path id="パス_3035" data-name="パス 3035" d="M290.386,3.672l.955,2.683A23.8,23.8,0,0,0,285,8.174c-1.549.648-4.43,2.107-4.43,4.07a1.425,1.425,0,0,0,.99,1.349,10.653,10.653,0,0,0,3.709.469,18.6,18.6,0,0,0,6.032-.955,8.288,8.288,0,0,0-.234,1.873c0,.36,0,.594.019.847a33.556,33.556,0,0,1-6,.54,11.428,11.428,0,0,1-5.257-.937,3.419,3.419,0,0,1-1.909-3.043c0-2.358,2.053-3.925,3.908-5.006-.918-.918-1.117-2.25-1.332-4.05a8.842,8.842,0,0,0-.469-2.215l3.043-.649a15.058,15.058,0,0,0-.109,1.837,8.431,8.431,0,0,0,.865,4.051c2.323-1.08,4.177-1.782,6.554-2.683m.7-1.17a4.9,4.9,0,0,0-1.3.81,11.2,11.2,0,0,0-1.26-1.89l1.224-.829A10.11,10.11,0,0,1,291.089,2.5M293.2,1.98a4.529,4.529,0,0,0-1.278.811A11.065,11.065,0,0,0,290.638.918l1.225-.846A9.309,9.309,0,0,1,293.2,1.98" fill="#2e2e2e"/>
            <path id="パス_3036" data-name="パス 3036" d="M297.169,5.78a16.587,16.587,0,0,1,6.014-1.531,4.627,4.627,0,0,1,4.807,4.9,7.072,7.072,0,0,1-3.438,5.978,13.15,13.15,0,0,1-5.15,2.088,8.486,8.486,0,0,0-1.566-2.088,16.05,16.05,0,0,0,4.537-1.423c1.6-.828,3.186-2.5,3.186-4.411a2.6,2.6,0,0,0-2.646-2.808c-2.322,0-5.491,1.763-7.275,3.2l-1.152-3.1a9.973,9.973,0,0,0,2.683-.81M303.741.973A12.272,12.272,0,0,0,304.983.9a19.749,19.749,0,0,0-.324,2.539,25.184,25.184,0,0,1-6.752-.919L298.25.09a16.709,16.709,0,0,0,5.491.883" fill="#2e2e2e"/>
            <path id="パス_3037" data-name="パス 3037" d="M315.08,1.116c.288.036.414.09.414.252,0,.126-.126.216-.4.307a52.076,52.076,0,0,0-.522,8.228,10.037,10.037,0,0,0,.342,3.133,1.522,1.522,0,0,0,1.639,1.026,6.62,6.62,0,0,0,4.266-2.161,12.93,12.93,0,0,0,2.234-3.079,13.89,13.89,0,0,0,1.818,2.017c-1.855,2.989-4.844,5.761-8.57,5.761a3.632,3.632,0,0,1-3.782-2.79,18.668,18.668,0,0,1-.432-4.7c0-.882.018-1.962.072-2.934.054-1.1.126-2.99.126-4.232,0-.414,0-.828-.036-1.224Z" fill="#2e2e2e"/>
            <path id="パス_3038" data-name="パス 3038" d="M326.04,2.557a76.981,76.981,0,0,0,8.589-.684A39.952,39.952,0,0,0,340.085.847l.467,2.574a8.687,8.687,0,0,0-4.574,1.261c-2,1.206-3.923,3.276-3.923,5.743,0,2.881,2.97,3.548,5.293,3.728a13.286,13.286,0,0,0-1.134,2.718c-3.26-.738-6.572-2.484-6.572-6.265,0-2.719,1.746-4.772,3.78-6.338a74.914,74.914,0,0,0-8.21,1.134l-.342-2.9c.4.036.775.054,1.17.054" fill="#2e2e2e"/>
            <path id="パス_3039" data-name="パス 3039" d="M343.88,1.873A28.076,28.076,0,0,0,352.216.756l1.243,1.657c-1.009.773-3.872,3.421-4.772,4.375a7.542,7.542,0,0,1,2.359-.4c2.808,0,5.1,1.692,5.1,4.645,0,3.709-3.476,5.6-6.807,5.6a4.527,4.527,0,0,1-3.942-1.693,2.477,2.477,0,0,1-.379-1.332c0-1.783,1.692-2.7,3.295-2.7a3.737,3.737,0,0,1,3.817,2.845,2.635,2.635,0,0,0,1.6-2.5,2.829,2.829,0,0,0-.9-2.107,3.581,3.581,0,0,0-2.412-.755c-2.773,0-4.735,1.6-7.437,4.519l-1.836-1.8a59.715,59.715,0,0,0,7.85-7.526,49.856,49.856,0,0,1-5.456.685l-.395-2.414c.3.019.557.019.738.019m4.285,11c-.5,0-.99.27-.99.81,0,.829,1.224,1.117,1.872,1.117a4.462,4.462,0,0,0,1.081-.145,1.933,1.933,0,0,0-1.963-1.782" fill="#2e2e2e"/>
            <path id="パス_3040" data-name="パス 3040" d="M359.27,2.9A5.64,5.64,0,0,1,363.879.973,5.812,5.812,0,0,1,367.732,2.2a3.305,3.305,0,0,1,1.116,2.466c0,1.6-1.134,2.522-2.322,3.368-1.1.774-1.837,1.314-1.837,2.592v.451h-2.448V10.03c0-1.5.683-2.036,2.467-3.368.612-.468,1.368-1.134,1.368-1.944,0-1.243-1.351-1.459-2.323-1.459-1.674,0-2.413.576-2.5,2.269h-2.791A4.678,4.678,0,0,1,359.27,2.9m5.563,12.658H362.1V12.73h2.737Z" fill="#2e2e2e"/>
          </g>
        </g>
      </g>
    </g>
  </g>
</svg>
