<svg xmlns="http://www.w3.org/2000/svg" width="18.281" height="192.059" viewBox="0 0 18.281 192.059">
  <path id="パス_7538" data-name="パス 7538" d="M5.133,0H1.77V-17.273H7.02L10.16-3.691l3.117-13.582h5.191V0H15.105V-11.684q0-.5.012-1.412t.012-1.4L11.859,0h-3.5L5.109-14.5q0,.492.012,1.4t.012,1.412Zm26.8-3.551H25.57L24.375,0H20.6l6.164-17.273h4.078L36.961,0H33.047ZM30.926-6.527l-2.156-6.8-2.227,6.8ZM54.457,0H49.816L44.484-7.547l-1.723,1.77V0H39.211V-17.273h3.551v7.113l6.668-7.113h4.664L47.016-10.16Zm9.668.48a7.532,7.532,0,0,1-5.66-2.016Q55.84-4.008,55.84-8.66q0-4.746,2.625-7.125a7.532,7.532,0,0,1,5.66-2.016,7.532,7.532,0,0,1,5.66,2.016Q72.4-13.406,72.4-8.66q0,4.652-2.613,7.125A7.532,7.532,0,0,1,64.125.48Zm3.41-4.641a7.093,7.093,0,0,0,1.254-4.5,7.074,7.074,0,0,0-1.26-4.494,4.117,4.117,0,0,0-3.4-1.588A4.172,4.172,0,0,0,60.7-13.16a7,7,0,0,0-1.277,4.5A7,7,0,0,0,60.7-4.16a4.172,4.172,0,0,0,3.422,1.582A4.139,4.139,0,0,0,67.535-4.16ZM94.371-17.273v3.059H89.2V0H85.57V-14.215H80.379v-3.059ZM108.5-7.547h-8.391v4.441h9.563V0H96.586V-17.273h12.668v3.059h-9.141v3.668H108.5Zm14.1,4h-6.363L115.043,0H111.27l6.164-17.273h4.078L127.629,0h-3.914Zm-1.008-2.977-2.156-6.8-2.227,6.8Zm20.414,5.238A7.041,7.041,0,0,1,137.063.48,7.451,7.451,0,0,1,131.2-1.91,9.569,9.569,0,0,1,129.07-8.5q0-4.523,2.426-6.973a7.228,7.228,0,0,1,5.367-2.133q4.359,0,6.375,2.859a6.19,6.19,0,0,1,1.2,3.223h-3.609a4.875,4.875,0,0,0-.9-1.875A3.67,3.67,0,0,0,137-14.52a3.617,3.617,0,0,0-3.105,1.588,7.633,7.633,0,0,0-1.137,4.494,6.7,6.7,0,0,0,1.2,4.354,3.8,3.8,0,0,0,3.053,1.447,3.492,3.492,0,0,0,2.895-1.242,5.4,5.4,0,0,0,.914-2H144.4A7.768,7.768,0,0,1,142.008-1.289ZM157.453,0V-7.711H150.7V0h-3.574V-17.273H150.7v6.586h6.75v-6.586h3.586V0Zm19.055-7.547h-8.391v4.441h9.563V0H164.59V-17.273h12.668v3.059h-9.141v3.668h8.391ZM186.762-2.5a6.356,6.356,0,0,0,2.074-.281,2,2,0,0,0,1.512-2,1.479,1.479,0,0,0-.75-1.324,8.065,8.065,0,0,0-2.355-.809l-1.828-.41a11.552,11.552,0,0,1-3.727-1.324,4.212,4.212,0,0,1-1.746-3.738,4.992,4.992,0,0,1,1.688-3.855,7.135,7.135,0,0,1,4.957-1.535,7.537,7.537,0,0,1,4.658,1.447,5.167,5.167,0,0,1,2.021,4.2H189.8a2.478,2.478,0,0,0-1.359-2.215,4.559,4.559,0,0,0-2.1-.434,3.916,3.916,0,0,0-2.227.563,1.791,1.791,0,0,0-.832,1.57,1.486,1.486,0,0,0,.82,1.383,10.041,10.041,0,0,0,2.25.715l2.977.715a7.7,7.7,0,0,1,2.953,1.254,4.223,4.223,0,0,1,1.547,3.527,4.978,4.978,0,0,1-1.811,3.932A7.586,7.586,0,0,1,186.9.445,8.3,8.3,0,0,1,181.594-1.1a5.121,5.121,0,0,1-1.934-4.236h3.445a3.547,3.547,0,0,0,.645,1.77A3.709,3.709,0,0,0,186.762-2.5Z" transform="translate(0.48 -1.77) rotate(90)" fill="#222"/>
</svg>
