<svg xmlns="http://www.w3.org/2000/svg" width="113.387" height="40.772" viewBox="0 0 113.387 40.772">
  <g id="グループ_301" data-name="グループ 301" transform="translate(-49.88 0.12)">
    <path id="パス_2431" data-name="パス 2431" d="M110.1,30.918h35.074a15.209,15.209,0,0,0,0-30.418H65.709a15.209,15.209,0,1,0,0,30.418H102.7l9.072,6.853" transform="translate(2.88 2.88)" fill="#6393a8"/>
    <g id="グループ_524" data-name="グループ 524">
      <path id="パス_2383" data-name="パス 2383" d="M114.1,30.918h31.074a15.209,15.209,0,0,0,0-30.418H65.709a15.209,15.209,0,1,0,0,30.418H102.7l9.072,6.853" transform="translate(-0.12 -0.12)" fill="none" stroke="#222" stroke-width="1"/>
    </g>
    <path id="パス_7541" data-name="パス 7541" d="M-20.46,1.125v-7.86q-.2.33-.4.622t-.4.533a3.07,3.07,0,0,0-.345-.383q-.225-.217-.465-.42a3.107,3.107,0,0,0-.42-.307,9.129,9.129,0,0,0,.885-1.3q.435-.758.825-1.59t.682-1.628a12.726,12.726,0,0,0,.443-1.425l1.6.4a10.439,10.439,0,0,1-.337,1.118q-.218.607-.488,1.238v5.265A9.9,9.9,0,0,0-17.6-7.17a13.573,13.573,0,0,0,.623-2.97h-1.2v-1.575h5.4v1.575h-2.565q-.03.405-.082.818t-.142.818h2.415a12.768,12.768,0,0,1-.6,4.05,11.462,11.462,0,0,1-1.6,3.172,11.844,11.844,0,0,1-2.25,2.348,2.389,2.389,0,0,0-.315-.353Q-18.15.5-18.4.285a3.418,3.418,0,0,0-.465-.33v1.17Zm8.745-.075q-.03-.315-.12-.817A6.72,6.72,0,0,0-12.03-.6h1.335a.609.609,0,0,0,.412-.1.609.609,0,0,0,.1-.413V-12.465H-8.58V-.39a1.359,1.359,0,0,1-.4,1.1,1.918,1.918,0,0,1-1.245.337ZM-12.6-2.595V-10.5h1.59v7.905ZM-18.87-.06a8.143,8.143,0,0,0,1.65-1.507,9.856,9.856,0,0,0,1.305-2q-.285-.21-.63-.443t-.585-.367q-.15.24-.308.472t-.323.443a3.616,3.616,0,0,0-.51-.4q-.33-.225-.6-.375Zm3.6-5.115a8.262,8.262,0,0,0,.225-.855q.09-.435.15-.855h-1.1q-.09.27-.187.54t-.218.525q.21.105.525.293T-15.27-5.175ZM3.06.675A3.811,3.811,0,0,1,1.62.45,1.365,1.365,0,0,1,.855-.338,4.131,4.131,0,0,1,.645-1.89,6.746,6.746,0,0,0,.6-3.225a.571.571,0,0,0-.285-.45A.71.71,0,0,0-.57-3.42Q-1.32-2.55-2-1.747T-3.2-.33q-.518.615-.773.945L-5.505-.51q.36-.315.93-.9T-3.33-2.738q.675-.742,1.343-1.515T-.75-5.7q.57-.675.915-1.14-.42.075-1.035.165T-2.138-6.5q-.652.082-1.192.142t-.81.075L-4.41-7.95q.375,0,.99-.038T-2.07-8.1q.735-.075,1.485-.172t1.4-.21q.645-.112,1.08-.232L3.165-7.65a5.871,5.871,0,0,0-.525.532q-.36.4-.855.96L.72-4.95a.923.923,0,0,1,.5.023,1.675,1.675,0,0,1,.472.2,1.059,1.059,0,0,1,.338.345,1.652,1.652,0,0,1,.188.593,6.168,6.168,0,0,1,.045,1.043,4,4,0,0,0,.09,1.117.611.611,0,0,0,.352.442,2.191,2.191,0,0,0,.653.105q.375,0,.87-.038t.983-.112a8.44,8.44,0,0,0,.832-.165,2.233,2.233,0,0,0-.113.54A6.521,6.521,0,0,0,5.9-.15q0,.36.015.585Q5.475.51,4.95.563T3.93.645Q3.435.675,3.06.675ZM1.815-9.36q-.33-.075-.892-.247T-.263-10q-.622-.218-1.155-.435a5.908,5.908,0,0,1-.8-.383l.81-1.5a4.634,4.634,0,0,0,.683.33q.473.2,1.05.4t1.133.367q.555.165.93.24ZM15.18.3a2.971,2.971,0,0,1-1.875-.682,1.958,1.958,0,0,1-.69-1.567A1.794,1.794,0,0,1,12.99-3a2.569,2.569,0,0,1,1.02-.78,3.783,3.783,0,0,1,1.575-.3q.24,0,.465.015t.435.045q-.015-.63-.038-1.425T16.4-7.155q-.93.045-1.808.06T13.095-7.11l-.12-1.83a12.991,12.991,0,0,0,1.462.09q.908.015,1.912-.03-.015-.645-.022-1.32t-.007-1.365h1.755q-.015.615-.023,1.267t.007,1.313q.885-.075,1.62-.18a9.31,9.31,0,0,0,1.11-.21v1.8q-.42.075-1.14.157t-1.56.158q.03,1.05.075,1.987t.075,1.658a8.474,8.474,0,0,1,1.62.75A16.451,16.451,0,0,1,21.39-1.83a2.56,2.56,0,0,0-.382.42,7,7,0,0,0-.4.577,4.868,4.868,0,0,0-.27.487A10.556,10.556,0,0,0,18.27-1.83a2.066,2.066,0,0,1-.908,1.688A3.769,3.769,0,0,1,15.18.3ZM9.615.5A13.982,13.982,0,0,1,9.45-1.02q-.06-.93-.082-2.062T9.36-5.423q.015-1.207.075-2.362t.158-2.13a15.8,15.8,0,0,1,.232-1.62l1.71.42a8.425,8.425,0,0,0-.278,1.41q-.112.885-.172,1.965T11.01-5.505q-.015,1.155.022,2.25t.12,1.987a12.581,12.581,0,0,0,.2,1.448Zm5.7-1.725a1.484,1.484,0,0,0,.922-.24,1.068,1.068,0,0,0,.308-.885v-.12A5.646,5.646,0,0,0,15.48-2.61a1.6,1.6,0,0,0-.892.165.624.624,0,0,0-.352.525.537.537,0,0,0,.285.5A1.485,1.485,0,0,0,15.315-1.23Zm6.165-9.33a7.225,7.225,0,0,0-.72-.99,8.293,8.293,0,0,0-.81-.84l.84-.63a4.517,4.517,0,0,1,.525.517q.3.338.593.69a6.631,6.631,0,0,1,.457.608ZM20.1-9.465a6.892,6.892,0,0,0-.7-1.005,7.625,7.625,0,0,0-.81-.855l.855-.615a5.239,5.239,0,0,1,.51.525q.3.345.585.7a7.376,7.376,0,0,1,.45.607Z" transform="translate(105.324 21)" fill="#fff"/>
  </g>
</svg>
