<svg xmlns="http://www.w3.org/2000/svg" xmlns:xlink="http://www.w3.org/1999/xlink" width="232.235" height="66" viewBox="0 0 232.235 66">
  <defs>
    <clipPath id="clip-path">
      <rect id="長方形_7643" data-name="長方形 7643" width="232.235" height="25.891" transform="translate(0 0)" fill="none"/>
    </clipPath>
  </defs>
  <g id="グループ_770" data-name="グループ 770" transform="translate(-70.243 -56)">
    <g id="h2" transform="translate(0 -4)">
      <g id="グループ_393" data-name="グループ 393" transform="translate(127.95 64)">
        <rect id="長方形_7543" data-name="長方形 7543" width="141.829" height="25.548" transform="translate(-13 -3.384)" fill="#fff"/>
        <rect id="長方形_7544" data-name="長方形 7544" width="69.645" height="0.616" transform="translate(-13 21.548)" fill="#222"/>
        <rect id="長方形_7545" data-name="長方形 7545" width="141.829" height="0.616" transform="translate(-13 -4)" fill="#222"/>
        <path id="パス_2815" data-name="パス 2815" d="M99.542,36l-.258.259-6.619,6.606.443.437,6.7-6.686h63.859V36Z" transform="translate(-35.615 -14.451)" fill="#222"/>
        <path id="パス_2816" data-name="パス 2816" d="M103.835,36h0Z" transform="translate(-39.908 -14.451)" fill="#222"/>
        <g id="グループ_681" data-name="グループ 681" transform="translate(-3.92 2.976)">
          <path id="パス_8020" data-name="パス 8020" d="M9.007,2.27a4.436,4.436,0,0,0,.966-.1l1.4,1.163a2.62,2.62,0,0,0-.434.771c-1.919,4.58-3.306,6.569-7.788,8.908A7.226,7.226,0,0,0,1.7,11.557,11.83,11.83,0,0,0,8.811,4.021H0V2.27ZM12.789,1.3a1.3,1.3,0,0,1-2.6,0,1.3,1.3,0,1,1,2.6,0m-1.947,0a.652.652,0,1,0,.645-.658.646.646,0,0,0-.645.658" fill="#2e2e2e"/>
          <path id="パス_8021" data-name="パス 8021" d="M15.793,11.374v.588H13.805V2.255H24.24v9.707H22.293v-.588Zm6.5-7.339h-6.5V9.624h6.5Z" fill="#2e2e2e"/>
          <path id="パス_8022" data-name="パス 8022" d="M29.752,1.512a.2.2,0,0,1,.168.2c0,.168-.267.21-.392.223a20.78,20.78,0,0,0-.8,5.562,13.109,13.109,0,0,0,.1,1.652c.239-.462.534-1.022.757-1.414a5.319,5.319,0,0,0,.9,1.191,6.959,6.959,0,0,0-1.163,3.641l-1.6.309a19.934,19.934,0,0,1-.729-5.534A26.336,26.336,0,0,1,27.805.9Zm4.58-.658,2.129.35c.084.014.2.056.2.182,0,.155-.223.182-.337.2-.069.5-.111,1.078-.139,1.835a15.327,15.327,0,0,0,2.2-.547V4.678c-.742.182-1.485.336-2.241.462a26.5,26.5,0,0,0,.21,3.516,8.979,8.979,0,0,1,2.788,1.513,14.965,14.965,0,0,0-.826,1.667,6.15,6.15,0,0,0-1.78-1.205c0,1.569-1.457,2.045-2.773,2.045-1.346,0-2.746-.672-2.746-2.2S32.581,8.306,33.9,8.306c.112,0,.35.014.588.042-.07-.925-.14-2.017-.154-2.969-.658.055-1.316.1-1.975.1-.281,0-.728-.013-.981-.027V3.572a15.413,15.413,0,0,0,1.751.1c.393,0,.785-.014,1.192-.042,0-1.163,0-2.045.013-2.774m-.617,8.923c-.434,0-1.134.14-1.134.7,0,.49.574.673.981.673.559,0,1.176-.238,1.176-.9a1.652,1.652,0,0,0-.028-.3,2.413,2.413,0,0,0-.995-.182" fill="#2e2e2e"/>
          <path id="パス_8023" data-name="パス 8023" d="M50.727,2.983,51.47,5.07a18.585,18.585,0,0,0-4.931,1.415c-1.205.5-3.445,1.639-3.445,3.166a1.11,1.11,0,0,0,.769,1.051,8.3,8.3,0,0,0,2.886.363,14.456,14.456,0,0,0,4.692-.742,6.427,6.427,0,0,0-.181,1.457c0,.281,0,.462.013.658a25.931,25.931,0,0,1-4.664.42,8.9,8.9,0,0,1-4.09-.727,2.662,2.662,0,0,1-1.485-2.367c0-1.836,1.6-3.054,3.04-3.895-.715-.715-.869-1.751-1.037-3.151A6.9,6.9,0,0,0,42.673.994L45.04.49a11.708,11.708,0,0,0-.084,1.429,6.545,6.545,0,0,0,.673,3.151c1.806-.84,3.25-1.386,5.1-2.087m.546-.91a3.832,3.832,0,0,0-1.007.63,8.9,8.9,0,0,0-.981-1.471l.951-.644a7.842,7.842,0,0,1,1.037,1.485m1.639-.406a3.534,3.534,0,0,0-.994.63A8.686,8.686,0,0,0,50.924.841l.952-.659a7.247,7.247,0,0,1,1.036,1.485" fill="#2e2e2e"/>
          <path id="パス_8024" data-name="パス 8024" d="M55.442,4.622a12.9,12.9,0,0,1,4.677-1.19,3.6,3.6,0,0,1,3.741,3.81,5.5,5.5,0,0,1-2.676,4.651,10.23,10.23,0,0,1-4.006,1.625,6.528,6.528,0,0,0-1.219-1.625,12.48,12.48,0,0,0,3.531-1.107,4.256,4.256,0,0,0,2.479-3.432A2.027,2.027,0,0,0,59.91,5.169c-1.807,0-4.273,1.372-5.66,2.493l-.9-2.409a7.736,7.736,0,0,0,2.088-.631M60.554.883a9.384,9.384,0,0,0,.967-.057A15.418,15.418,0,0,0,61.268,2.8a19.522,19.522,0,0,1-5.252-.715L56.282.2a13,13,0,0,0,4.272.687" fill="#2e2e2e"/>
          <path id="パス_8025" data-name="パス 8025" d="M69.442.994c.224.028.322.07.322.2,0,.1-.1.168-.307.239a40.41,40.41,0,0,0-.407,6.4,7.808,7.808,0,0,0,.266,2.437,1.183,1.183,0,0,0,1.274.8,5.152,5.152,0,0,0,3.32-1.68,10.049,10.049,0,0,0,1.737-2.4,10.861,10.861,0,0,0,1.415,1.569c-1.443,2.326-3.767,4.483-6.668,4.483a2.824,2.824,0,0,1-2.941-2.171,14.484,14.484,0,0,1-.336-3.656c0-.687.013-1.528.056-2.283.041-.855.1-2.326.1-3.292,0-.323,0-.645-.028-.953Z" fill="#2e2e2e"/>
          <path id="パス_8026" data-name="パス 8026" d="M77.91,2.115a59.933,59.933,0,0,0,6.682-.532,31.061,31.061,0,0,0,4.244-.8l.365,2a6.759,6.759,0,0,0-3.559.98c-1.554.939-3.053,2.55-3.053,4.469,0,2.241,2.311,2.76,4.118,2.9a10.421,10.421,0,0,0-.883,2.115c-2.535-.574-5.112-1.933-5.112-4.875,0-2.115,1.358-3.712,2.941-4.931a58.718,58.718,0,0,0-6.388.883L77,2.073c.308.027.6.042.91.042" fill="#2e2e2e"/>
          <path id="パス_8027" data-name="パス 8027" d="M91.883,1.583A21.809,21.809,0,0,0,98.368.714L99.335,2c-.784.6-3.012,2.661-3.712,3.4A5.839,5.839,0,0,1,97.457,5.1c2.186,0,3.965,1.316,3.965,3.614,0,2.886-2.7,4.357-5.295,4.357a3.525,3.525,0,0,1-3.067-1.318,1.923,1.923,0,0,1-.294-1.036,2.314,2.314,0,0,1,2.562-2.1A2.909,2.909,0,0,1,98.3,10.829a2.052,2.052,0,0,0,1.246-1.948,2.2,2.2,0,0,0-.7-1.638,2.787,2.787,0,0,0-1.878-.589c-2.156,0-3.684,1.247-5.785,3.515l-1.428-1.4a46.366,46.366,0,0,0,6.108-5.856,38.427,38.427,0,0,1-4.245.533l-.308-1.877c.238.014.433.014.574.014m3.334,8.559c-.393,0-.771.21-.771.63,0,.644.953.869,1.457.869a3.456,3.456,0,0,0,.84-.112,1.5,1.5,0,0,0-1.526-1.387" fill="#2e2e2e"/>
          <path id="パス_8028" data-name="パス 8028" d="M109.2,11.122a5.356,5.356,0,0,0,3.026-1.583,4.676,4.676,0,0,0,1.134-2.983,3.6,3.6,0,0,0-1.568-3.04,3.756,3.756,0,0,0-2-.617,18.374,18.374,0,0,1-1.974,7.144c-.393.715-1.065,1.835-1.99,1.835-1.148,0-2.941-1.919-2.941-4.272a6.477,6.477,0,0,1,2.1-4.567,6.623,6.623,0,0,1,4.6-1.849,5.359,5.359,0,0,1,5.659,5.366,6.286,6.286,0,0,1-1.652,4.244,7.483,7.483,0,0,1-3.152,1.989,8.46,8.46,0,0,0-1.233-1.667m-3.572-6.247a4.44,4.44,0,0,0-.967,2.6c0,1.038.547,2.116,1.065,2.116.253,0,.421-.238.533-.434a13.713,13.713,0,0,0,.812-1.919,13.524,13.524,0,0,0,.729-4.007,4.225,4.225,0,0,0-2.172,1.64" fill="#2e2e2e"/>
          <path id="パス_8029" data-name="パス 8029" d="M117.489,2.381a4.389,4.389,0,0,1,3.586-1.5,4.522,4.522,0,0,1,3,.952,2.573,2.573,0,0,1,.868,1.919c0,1.247-.882,1.961-1.806,2.619-.855.6-1.43,1.023-1.43,2.018v.35h-1.9V7.928c0-1.162.532-1.582,1.919-2.619.475-.364,1.064-.882,1.064-1.513,0-.966-1.05-1.134-1.806-1.134-1.3,0-1.878.448-1.948,1.765h-2.171a3.642,3.642,0,0,1,.63-2.046m4.329,9.848h-2.13v-2.2h2.13Z" fill="#2e2e2e"/>
        </g>
      </g>
      <g id="グループ_683" data-name="グループ 683" transform="translate(70.243 100.109)">
        <g id="グループ_682" data-name="グループ 682" clip-path="url(#clip-path)">
          <path id="パス_8030" data-name="パス 8030" d="M21.058,19.1a18.663,18.663,0,0,0,4.55,4.279,19.956,19.956,0,0,0-2.045,2.512,24.148,24.148,0,0,1-4.521-4.334,19.456,19.456,0,0,1-6.32,4.169A10.3,10.3,0,0,0,10.7,22.883a14.818,14.818,0,0,0,6.566-4.029,18.1,18.1,0,0,1-2.1-5.77c-.3.442-.627.856-.955,1.3a10.49,10.49,0,0,0-2.07-2.07l.545.745a27.843,27.843,0,0,1-3.623,3.782v.3c1.553-.111,3.188-.248,4.658-.387a12.934,12.934,0,0,0-.436,2.567c-1.388.221-2.805.36-4.222.5v3.037a2.6,2.6,0,0,1-.953,2.291,7.131,7.131,0,0,1-3.7.69,10.11,10.11,0,0,0-.927-3.092,12.559,12.559,0,0,0,1.745.221c.653,0,.762-.221.762-.938V20.04c-1.118.083-2.233.138-3.351.138H2.125c-.109.414-.219.635-.518.635-.354,0-.409-.414-.437-.662L.9,17.363c.9.028,1.226.028,1.853.028,1.088,0,2.179-.028,3.241-.084V15.265l.845.166a7.062,7.062,0,0,0,1.061-1.3H6.156a17.988,17.988,0,0,1-4.413,2.9A7.929,7.929,0,0,0,0,14.74,22.643,22.643,0,0,0,6.92,9.855H.763V7.26H5.122V5.466H1.689V2.9H5.122V.221L8.554.442c.245.028.463.083.463.3s-.218.358-.463.442a.784.784,0,0,0-.219.11V2.9h2.181v2.18A30.582,30.582,0,0,0,12.5,1.325l2.752,1.3a.442.442,0,0,1,.273.359c0,.276-.219.358-.79.5A37.784,37.784,0,0,1,12.45,7.26H13.7V9.579A24.617,24.617,0,0,0,16.7.221l3.6.69a.356.356,0,0,1,.271.359c0,.3-.271.414-.761.552-.327,1.187-.655,2.346-1.035,3.506h6.918V8.254H24.354a21.8,21.8,0,0,1-3.3,10.847M8.335,5.466V7.26h.736c.436-.58.845-1.187,1.227-1.794Zm2.153,4.389c-.464.552-.953,1.1-1.471,1.628h2.506l.463.635a15.644,15.644,0,0,0,1.552-2.263Zm7.165-1.6a4.758,4.758,0,0,1-.219.552,17.2,17.2,0,0,0,1.826,7.37,18.13,18.13,0,0,0,1.961-7.922Z" fill="#222"/>
          <path id="パス_8031" data-name="パス 8031" d="M32.2,7.812c3.705,0,9.834-.828,13.1-2.512l2.207,2.595a54.451,54.451,0,0,0-6.429,6.4,1.743,1.743,0,0,1,.654-.11,2.082,2.082,0,0,1,2.179,1.96,14.607,14.607,0,0,1-.218,1.877A14.494,14.494,0,0,0,43.5,19.93c0,1.6.79,1.711,2.153,1.711a17.615,17.615,0,0,0,6.1-1.021c0,1.628.055,2.926.137,3.809a37.033,37.033,0,0,1-6.539.662,7.187,7.187,0,0,1-4.385-1.076,2.833,2.833,0,0,1-.981-2.484,13.1,13.1,0,0,1,.082-1.353c.027-.248.109-1.159.109-1.518,0-.58-.055-1.353-.818-1.353-.544,0-1.253.663-2.233,1.684-1.853,1.96-3.3,3.616-5.394,6.1l-2.915-2.677c1.689-1.574,3.95-3.781,5.53-5.465,2.1-2.264,4.114-4.61,6.075-7.012a50.312,50.312,0,0,1-9.044,1.546l-.654-3.7c.736.027,1.117.027,1.471.027M42.657,1.491c.518,0,1.335-.028,1.716-.056a15.869,15.869,0,0,0-.436,3.423c-.218.028-.79.055-1.09.055a43.647,43.647,0,0,1-8.036-.772L35.138.552a26.5,26.5,0,0,0,7.519.939" fill="#222"/>
          <path id="パス_8032" data-name="パス 8032" d="M54.422,3.588A114.927,114.927,0,0,0,67.416,2.539,59.7,59.7,0,0,0,75.67.966l.708,3.947A12.994,12.994,0,0,0,69.46,6.845c-3.025,1.849-5.939,5.024-5.939,8.806,0,4.416,4.495,5.437,8.009,5.713a20.6,20.6,0,0,0-1.717,4.169c-4.93-1.132-9.943-3.81-9.943-9.606,0-4.169,2.643-7.315,5.721-9.717A112.385,112.385,0,0,0,53.169,7.949l-.518-4.444c.6.055,1.172.083,1.771.083" fill="#222"/>
          <path id="パス_8033" data-name="パス 8033" d="M87.027,23.518h-4.14V19.184h4.14ZM86.891,1.767V8.5l-.818,8.143H83.867L83.05,8.5V1.767Z" fill="#222"/>
          <path id="パス_8034" data-name="パス 8034" d="M100.074,1.767l5.312,16.921L110.7,1.767h5.5V23.518h-4.086V6.4L106.8,23.518h-2.834L98.657,6.4V23.518H94.6V1.767Z" fill="#6393a8"/>
          <path id="パス_8035" data-name="パス 8035" d="M131.1,1.766l8.145,21.751h-4.25l-1.5-4.361h-9.453l-1.526,4.361h-4.222l8.118-21.751Zm-6.021,14.409h7.355L128.756,5.658Z" fill="#6393a8"/>
          <path id="パス_8036" data-name="パス 8036" d="M145.343,1.767v9.606l11.114-9.606h5.23l-9.861,8.446,10.543,13.3H157.3l-8.526-10.489-3.433,3.092v7.4h-4.087V1.767Z" fill="#6393a8"/>
          <path id="パス_8037" data-name="パス 8037" d="M179.337,3.56a11.841,11.841,0,0,1,3.814,9.082c0,6.459-4.113,11.482-10.706,11.482S161.739,19.1,161.739,12.642a11.844,11.844,0,0,1,3.814-9.082,11.092,11.092,0,0,1,13.784,0M167.542,7.011a8.754,8.754,0,0,0-1.608,5.631,8.754,8.754,0,0,0,1.608,5.631,6.3,6.3,0,0,0,9.807,0,8.618,8.618,0,0,0,1.634-5.631,8.663,8.663,0,0,0-1.634-5.631,6.3,6.3,0,0,0-9.807,0" fill="#6393a8"/>
          <path id="パス_8038" data-name="パス 8038" d="M192.737,1.325l4-.855a20.525,20.525,0,0,0,1.39,4.554,25.081,25.081,0,0,0,6.293-3.312c.735.965,1.525,1.9,2.315,2.815A36.172,36.172,0,0,1,199.6,8.143,30.867,30.867,0,0,0,205.9,16.01l-2.37,2.126a14.4,14.4,0,0,0-7.655-2.154c-1.826,0-5.012.414-5.012,2.9,0,2.788,4.358,2.953,6.319,2.953a15.578,15.578,0,0,0,6.511-1.352,13.549,13.549,0,0,0,.763,3.726,24.837,24.837,0,0,1-7.11.966,14.641,14.641,0,0,1-7.6-1.766,5.206,5.206,0,0,1-2.724-4.445,5.4,5.4,0,0,1,2.371-4.306A9.773,9.773,0,0,1,195.107,13a14.528,14.528,0,0,1,3.623.469,36.963,36.963,0,0,1-2.506-4.14,49.366,49.366,0,0,1-9.834,1.794L185.218,7.48a38.138,38.138,0,0,0,9.535-1.325c-.681-1.518-1.335-3.118-2.016-4.83" fill="#6393a8"/>
          <path id="パス_8039" data-name="パス 8039" d="M221.038,1.767c.191.083.409.193.409.442s-.245.3-.463.3a2.323,2.323,0,0,1-.354-.027c-.435.773-1.008,1.877-1.47,2.843-1.172,2.484-2.1,4.416-2.889,6.045a5.772,5.772,0,0,1,2.969-.635,3.294,3.294,0,0,1,3.625,3.533,21.444,21.444,0,0,1-.437,3.2,11.072,11.072,0,0,0-.19,2.07c0,.994.19,1.684,1.334,1.684a5.249,5.249,0,0,0,2.724-1.242,15.351,15.351,0,0,0,3.487-3.561,21.167,21.167,0,0,0,2.451,2.981c-2.341,2.733-5.692,5.686-9.479,5.686a3.852,3.852,0,0,1-4.168-4.14,20.862,20.862,0,0,1,.19-2.7,21.036,21.036,0,0,0,.272-2.76c0-.883-.354-1.464-1.307-1.464-1.58,0-2.67,1.326-3.487,2.54a37.865,37.865,0,0,0-3.814,8l-3.813-1.628c1.8-3.037,3.623-6.763,5.339-10.324,2.179-4.5,4.168-9.054,5.448-12.615Z" fill="#6393a8"/>
        </g>
      </g>
    </g>
  </g>
</svg>
