<svg xmlns="http://www.w3.org/2000/svg" xmlns:xlink="http://www.w3.org/1999/xlink" width="392.198" height="100.152" viewBox="0 0 392.198 100.152">
  <defs>
    <clipPath id="clip-path">
      <rect id="長方形_7573" data-name="長方形 7573" width="392.198" height="43.152" transform="translate(0 0)" fill="none"/>
    </clipPath>
    <clipPath id="clip-path-2">
      <rect id="長方形_7574" data-name="長方形 7574" width="160.563" height="17.375" fill="none"/>
    </clipPath>
  </defs>
  <g id="h2" transform="translate(-446 -2464)">
    <g id="グループ_393" data-name="グループ 393" transform="translate(545 2463.001)">
      <rect id="長方形_7543" data-name="長方形 7543" width="194.635" height="35" transform="translate(0 2)" fill="#fff"/>
      <rect id="長方形_7544" data-name="長方形 7544" width="91.871" height="1.001" transform="translate(0.135 35.999)" fill="#222"/>
      <rect id="長方形_7545" data-name="長方形 7545" width="194.876" height="1.001" transform="translate(0.135 0.999)" fill="#222"/>
      <path id="パス_2815" data-name="パス 2815" d="M103.835,36l-.419.42L92.665,47.149l.72.71L104.275,37H195V36Z" fill="#222"/>
      <path id="パス_2816" data-name="パス 2816" d="M103.835,36h0Z" fill="#222"/>
    </g>
    <g id="グループ_484" data-name="グループ 484" transform="translate(446 2521)">
      <g id="グループ_483" data-name="グループ 483" clip-path="url(#clip-path)">
        <path id="パス_2883" data-name="パス 2883" d="M35.562,31.835a31.4,31.4,0,0,0,7.683,7.131,33.439,33.439,0,0,0-3.451,4.186,40.584,40.584,0,0,1-7.636-7.222,32.89,32.89,0,0,1-10.673,6.947,17.276,17.276,0,0,0-3.4-4.739,25.073,25.073,0,0,0,11.086-6.716,29.889,29.889,0,0,1-3.542-9.615c-.507.735-1.058,1.426-1.611,2.162a17.713,17.713,0,0,0-3.5-3.45l.919,1.242a46.638,46.638,0,0,1-6.118,6.3v.505c2.622-.184,5.382-.414,7.867-.644a21.071,21.071,0,0,0-.736,4.278c-2.347.368-4.739.6-7.131.828v5.061a4.294,4.294,0,0,1-1.612,3.818c-1.747,1.1-4.277,1.151-6.255,1.151a16.736,16.736,0,0,0-1.564-5.153,21.436,21.436,0,0,0,2.944.369c1.1,0,1.289-.369,1.289-1.565V33.4c-1.887.138-3.773.23-5.66.23H3.587c-.182.689-.367,1.058-.873,1.058-.6,0-.69-.69-.736-1.1l-.461-4.646c1.52.046,2.07.046,3.129.046,1.84,0,3.682-.046,5.476-.139v-3.4l1.425.276a11.676,11.676,0,0,0,1.793-2.162H10.4a30.416,30.416,0,0,1-7.452,4.83A13.265,13.265,0,0,0,0,24.567a38.221,38.221,0,0,0,11.686-8.143H1.288V12.1H8.649V9.109h-5.8V4.83h5.8V.368l5.8.368c.414.046.782.138.782.506s-.368.6-.782.737a1.351,1.351,0,0,0-.368.183V4.83h3.679V8.465a51.051,51.051,0,0,0,3.36-6.257L25.763,4.37a.735.735,0,0,1,.459.6c0,.46-.368.6-1.333.828a62.507,62.507,0,0,1-3.864,6.3h2.116v3.864A40.664,40.664,0,0,0,28.2.368l6.072,1.15a.6.6,0,0,1,.461.6c0,.506-.461.69-1.289.92-.551,1.979-1.1,3.91-1.747,5.843H43.382v4.877H41.129c-.414,6.3-1.932,12.789-5.567,18.079M14.078,9.109V12.1H15.32c.736-.967,1.427-1.979,2.069-2.991Zm3.634,7.315c-.782.92-1.61,1.84-2.484,2.714h4.231l.784,1.058a26.5,26.5,0,0,0,2.622-3.772Zm12.1-2.668a7.91,7.91,0,0,1-.368.92,28.363,28.363,0,0,0,3.082,12.283,29.853,29.853,0,0,0,3.312-13.2Z" fill="#222"/>
        <path id="パス_2884" data-name="パス 2884" d="M54.373,13.019c6.257,0,16.607-1.381,22.128-4.186l3.726,4.324A91.521,91.521,0,0,0,69.37,23.83a2.974,2.974,0,0,1,1.1-.184,3.5,3.5,0,0,1,3.68,3.267,24.172,24.172,0,0,1-.368,3.128,23.761,23.761,0,0,0-.322,3.174c0,2.668,1.334,2.853,3.635,2.853a30.11,30.11,0,0,0,10.3-1.7c0,2.714.092,4.876.231,6.348a63.277,63.277,0,0,1-11.042,1.1c-2.438,0-5.382-.23-7.407-1.794-1.379-1.012-1.656-2.53-1.656-4.141a21.736,21.736,0,0,1,.138-2.253c.046-.415.184-1.933.184-2.531,0-.967-.092-2.255-1.38-2.255-.92,0-2.117,1.1-3.773,2.807-3.128,3.267-5.566,6.026-9.108,10.167l-4.923-4.462c2.852-2.623,6.671-6.3,9.339-9.109,3.543-3.773,6.947-7.683,10.26-11.686a86.078,86.078,0,0,1-15.275,2.576l-1.1-6.164c1.242.046,1.885.046,2.484.046M72.039,2.484c.874,0,2.254-.046,2.9-.093A26.2,26.2,0,0,0,74.2,8.1c-.368.046-1.334.092-1.841.092A74.536,74.536,0,0,1,58.789,6.9L59.341.92a45.332,45.332,0,0,0,12.7,1.564" fill="#222"/>
        <path id="パス_2885" data-name="パス 2885" d="M91.908,5.98a196.706,196.706,0,0,0,21.944-1.748,102.107,102.107,0,0,0,13.94-2.622l1.2,6.578A22.169,22.169,0,0,0,117.3,11.409c-5.108,3.082-10.03,8.373-10.03,14.675,0,7.361,7.591,9.063,13.526,9.523a34.071,34.071,0,0,0-2.9,6.947c-8.327-1.886-16.792-6.348-16.792-16.01,0-6.947,4.463-12.191,9.661-16.194a191.958,191.958,0,0,0-20.978,2.9l-.874-7.407c1.011.092,1.978.138,2.99.138" fill="#222"/>
        <path id="パス_2886" data-name="パス 2886" d="M146.97,39.2h-6.992V31.973h6.992Zm-.229-36.252V14.169L145.36,27.741h-3.725l-1.381-13.572V2.944Z" fill="#222"/>
        <path id="パス_2887" data-name="パス 2887" d="M169,2.944l8.971,28.2,8.97-28.2h9.293V39.2h-6.9V10.673L180.368,39.2h-4.785l-8.971-28.523V39.2h-6.854V2.944Z" fill="#6393a8"/>
        <path id="パス_2888" data-name="パス 2888" d="M221.4,2.944,235.154,39.2h-7.177l-2.53-7.268H209.483L206.907,39.2h-7.131l13.71-36.252ZM211.231,26.959h12.422L217.442,9.431Z" fill="#6393a8"/>
        <path id="パス_2889" data-name="パス 2889" d="M245.455,2.944v16.01l18.77-16.01h8.833L256.4,17.021l17.8,22.175h-8.557l-14.4-17.482-5.8,5.153V39.2h-6.9V2.944Z" fill="#6393a8"/>
        <path id="パス_2890" data-name="パス 2890" d="M302.865,5.934c4.417,3.727,6.44,9.477,6.44,15.136,0,10.764-6.946,19.137-18.08,19.137s-18.08-8.373-18.08-19.137c0-5.659,2.025-11.409,6.442-15.136a18.922,18.922,0,0,1,23.278,0m-19.92,5.751c-2.162,2.76-2.715,5.935-2.715,9.385,0,3.5.553,6.579,2.715,9.385a10.722,10.722,0,0,0,16.562,0c2.208-2.76,2.76-5.935,2.76-9.385,0-3.5-.552-6.533-2.76-9.385a10.722,10.722,0,0,0-16.562,0" fill="#6393a8"/>
        <path id="パス_2891" data-name="パス 2891" d="M325.495,2.208,332.258.782A33.8,33.8,0,0,0,334.6,8.373a42.513,42.513,0,0,0,10.627-5.52c1.243,1.609,2.576,3.173,3.91,4.692a61.447,61.447,0,0,1-12.052,6.026c2.484,4.233,6.762,10.121,10.627,13.112l-4,3.543a24.564,24.564,0,0,0-12.928-3.589c-3.083,0-8.465.69-8.465,4.831,0,4.646,7.361,4.922,10.673,4.922a26.593,26.593,0,0,0,11-2.254,22.36,22.36,0,0,0,1.288,6.211,42.494,42.494,0,0,1-12.007,1.61c-4.417,0-8.925-.645-12.836-2.944a8.66,8.66,0,0,1-4.6-7.408,8.975,8.975,0,0,1,4-7.176,16.665,16.665,0,0,1,9.661-2.761,24.786,24.786,0,0,1,6.118.782,61.644,61.644,0,0,1-4.232-6.9,84.429,84.429,0,0,1-16.608,2.99L312.8,12.467a65.329,65.329,0,0,0,16.1-2.208c-1.149-2.53-2.254-5.2-3.4-8.051" fill="#6393a8"/>
        <path id="パス_2892" data-name="パス 2892" d="M373.29,2.944c.322.138.69.322.69.736s-.414.506-.782.506a3.892,3.892,0,0,1-.6-.046c-.737,1.288-1.7,3.128-2.485,4.739-1.978,4.14-3.543,7.36-4.877,10.075a9.873,9.873,0,0,1,5.015-1.059c3.726,0,6.119,2.116,6.119,5.889a35.125,35.125,0,0,1-.736,5.337,18.107,18.107,0,0,0-.323,3.45c0,1.656.323,2.807,2.255,2.807,1.61,0,3.312-1.151,4.6-2.071a25.771,25.771,0,0,0,5.889-5.934,35.324,35.324,0,0,0,4.139,4.968c-3.956,4.555-9.614,9.477-16.01,9.477-4.278,0-7.038-2.576-7.038-6.9a34.055,34.055,0,0,1,.322-4.509,34.58,34.58,0,0,0,.46-4.6c0-1.471-.6-2.438-2.208-2.438-2.668,0-4.509,2.209-5.889,4.232a62.654,62.654,0,0,0-6.441,13.342l-6.44-2.714c3.036-5.06,6.118-11.271,9.017-17.206A229.143,229.143,0,0,0,367.172,0Z" fill="#6393a8"/>
      </g>
    </g>
    <g id="グループ_486" data-name="グループ 486" transform="translate(562 2474.242)">
      <g id="グループ_485" data-name="グループ 485" clip-path="url(#clip-path-2)">
        <path id="パス_2893" data-name="パス 2893" d="M11.578,2.917a5.694,5.694,0,0,0,1.241-.126l1.8,1.494a3.345,3.345,0,0,0-.559.991C11.594,11.163,9.813,13.72,4.05,16.727a9.2,9.2,0,0,0-1.871-1.872,15.2,15.2,0,0,0,9.147-9.687H0V2.917Zm4.86-1.242a1.674,1.674,0,0,1-3.348,0,1.674,1.674,0,1,1,3.348,0m-2.5,0a.838.838,0,1,0,.828-.847.838.838,0,0,0-.828.847" fill="#222"/>
        <path id="パス_2894" data-name="パス 2894" d="M20.664,14.62v.757H18.107V2.9H31.521V15.377h-2.5V14.62Zm8.355-9.434H20.665v7.185h8.354Z" fill="#222"/>
        <path id="パス_2895" data-name="パス 2895" d="M38.61,1.944a.253.253,0,0,1,.217.252c0,.217-.343.27-.505.288A26.732,26.732,0,0,0,37.3,9.632a16.632,16.632,0,0,0,.126,2.125c.306-.594.684-1.314.972-1.818a6.861,6.861,0,0,0,1.153,1.53,8.956,8.956,0,0,0-1.494,4.681l-2.053.4a25.644,25.644,0,0,1-.937-7.112,33.9,33.9,0,0,1,1.045-8.282ZM44.5,1.1l2.737.45c.109.018.252.072.252.234,0,.2-.288.234-.431.253a23.162,23.162,0,0,0-.181,2.358,19.687,19.687,0,0,0,2.827-.7V6.013c-.954.235-1.909.433-2.881.595a34.215,34.215,0,0,0,.27,4.519,11.525,11.525,0,0,1,3.583,1.945,19.694,19.694,0,0,0-1.062,2.142,7.882,7.882,0,0,0-2.287-1.548c0,2.016-1.872,2.629-3.565,2.629-1.729,0-3.529-.865-3.529-2.828s2.017-2.79,3.709-2.79c.144,0,.451.018.756.054-.09-1.188-.179-2.593-.2-3.817-.846.072-1.692.126-2.538.126-.36,0-.937-.018-1.261-.036V4.591a19.519,19.519,0,0,0,2.251.126c.5,0,1.008-.018,1.53-.054,0-1.494,0-2.628.018-3.565m-.792,11.469c-.558,0-1.458.181-1.458.9,0,.631.738.865,1.26.865.72,0,1.512-.306,1.512-1.153a2.147,2.147,0,0,0-.036-.378,3.11,3.11,0,0,0-1.278-.234" fill="#222"/>
        <path id="パス_2896" data-name="パス 2896" d="M65.578,3.835l.955,2.683a23.8,23.8,0,0,0-6.338,1.819c-1.549.648-4.43,2.107-4.43,4.07a1.425,1.425,0,0,0,.99,1.349,10.653,10.653,0,0,0,3.709.469A18.6,18.6,0,0,0,66.5,13.27a8.288,8.288,0,0,0-.234,1.873c0,.36,0,.594.019.847a33.556,33.556,0,0,1-6,.54,11.428,11.428,0,0,1-5.257-.937,3.419,3.419,0,0,1-1.909-3.043c0-2.358,2.053-3.925,3.908-5.006-.918-.918-1.117-2.25-1.332-4.05a8.843,8.843,0,0,0-.469-2.215L58.268.63a15.056,15.056,0,0,0-.109,1.837,8.431,8.431,0,0,0,.865,4.051c2.323-1.08,4.177-1.782,6.554-2.683m.7-1.17a4.9,4.9,0,0,0-1.3.81,11.2,11.2,0,0,0-1.26-1.89L64.948.756a10.11,10.11,0,0,1,1.333,1.909m2.106-.522a4.529,4.529,0,0,0-1.278.811A11.065,11.065,0,0,0,65.83,1.081L67.055.235a9.309,9.309,0,0,1,1.332,1.908" fill="#222"/>
        <path id="パス_2897" data-name="パス 2897" d="M72.361,5.942a16.587,16.587,0,0,1,6.014-1.531,4.627,4.627,0,0,1,4.807,4.9,7.072,7.072,0,0,1-3.438,5.978,13.15,13.15,0,0,1-5.15,2.088,8.486,8.486,0,0,0-1.566-2.088,16.05,16.05,0,0,0,4.537-1.423c1.6-.828,3.186-2.5,3.186-4.411a2.6,2.6,0,0,0-2.646-2.808c-2.322,0-5.491,1.763-7.275,3.2l-1.152-3.1a9.973,9.973,0,0,0,2.683-.81m6.572-4.807a12.272,12.272,0,0,0,1.242-.072A19.748,19.748,0,0,0,79.851,3.6,25.185,25.185,0,0,1,73.1,2.683L73.442.252a16.709,16.709,0,0,0,5.491.883" fill="#222"/>
        <path id="パス_2898" data-name="パス 2898" d="M89.642,1.278c.288.036.414.09.414.252,0,.126-.126.216-.4.307a52.076,52.076,0,0,0-.522,8.228A10.037,10.037,0,0,0,89.48,13.2a1.522,1.522,0,0,0,1.639,1.026,6.62,6.62,0,0,0,4.266-2.161,12.93,12.93,0,0,0,2.234-3.079A13.889,13.889,0,0,0,99.437,11c-1.855,2.989-4.844,5.761-8.57,5.761a3.632,3.632,0,0,1-3.782-2.79,18.668,18.668,0,0,1-.432-4.7c0-.882.018-1.962.072-2.934.054-1.1.126-2.99.126-4.232,0-.414,0-.828-.036-1.224Z" fill="#222"/>
        <path id="パス_2899" data-name="パス 2899" d="M100.53,2.719a76.982,76.982,0,0,0,8.588-.684,39.9,39.9,0,0,0,5.456-1.026l.468,2.574a8.687,8.687,0,0,0-4.574,1.261c-2,1.206-3.924,3.276-3.924,5.743,0,2.881,2.97,3.548,5.293,3.728a13.34,13.34,0,0,0-1.134,2.718c-3.259-.738-6.572-2.484-6.572-6.265,0-2.719,1.747-4.772,3.781-6.338A74.88,74.88,0,0,0,99.7,5.564l-.343-2.9c.4.036.775.054,1.171.054" fill="#222"/>
        <path id="パス_2900" data-name="パス 2900" d="M118.135,2.035A28.075,28.075,0,0,0,126.471.918l1.243,1.657c-1.009.773-3.872,3.421-4.772,4.375a7.542,7.542,0,0,1,2.359-.4c2.808,0,5.1,1.692,5.1,4.645,0,3.709-3.476,5.6-6.807,5.6a4.527,4.527,0,0,1-3.942-1.693,2.477,2.477,0,0,1-.379-1.332c0-1.783,1.692-2.7,3.3-2.7a3.737,3.737,0,0,1,3.817,2.845,2.635,2.635,0,0,0,1.6-2.5,2.829,2.829,0,0,0-.9-2.107,3.581,3.581,0,0,0-2.412-.755c-2.773,0-4.735,1.6-7.437,4.519l-1.836-1.8a59.713,59.713,0,0,0,7.85-7.526,49.855,49.855,0,0,1-5.456.685L117.4,2.016c.305.019.557.019.738.019m4.285,11c-.5,0-.99.27-.99.81,0,.829,1.224,1.117,1.872,1.117a4.462,4.462,0,0,0,1.081-.145,1.933,1.933,0,0,0-1.963-1.782" fill="#222"/>
        <path id="パス_2901" data-name="パス 2901" d="M140.366,14.3a6.868,6.868,0,0,0,3.888-2.034,6,6,0,0,0,1.459-3.835A4.627,4.627,0,0,0,143.7,4.52a4.82,4.82,0,0,0-2.575-.792,23.647,23.647,0,0,1-2.538,9.183c-.505.917-1.37,2.358-2.558,2.358-1.476,0-3.78-2.467-3.78-5.491a8.322,8.322,0,0,1,2.7-5.87,8.5,8.5,0,0,1,5.906-2.377c4.015,0,7.274,2.755,7.274,6.9A8.074,8.074,0,0,1,146,13.882a9.609,9.609,0,0,1-4.052,2.558,10.825,10.825,0,0,0-1.584-2.144m-4.592-8.03a5.722,5.722,0,0,0-1.242,3.35c0,1.332.7,2.718,1.368,2.718.324,0,.54-.306.685-.558a17.305,17.305,0,0,0,1.043-2.467,17.3,17.3,0,0,0,.937-5.149,5.428,5.428,0,0,0-2.791,2.106" fill="#222"/>
        <path id="パス_2902" data-name="パス 2902" d="M150.985,3.061a5.641,5.641,0,0,1,4.61-1.926,5.809,5.809,0,0,1,3.852,1.223,3.309,3.309,0,0,1,1.116,2.467c0,1.6-1.133,2.522-2.322,3.367-1.1.775-1.837,1.315-1.837,2.593v.45h-2.448V10.191c0-1.495.684-2.035,2.467-3.367.612-.469,1.368-1.135,1.368-1.944,0-1.243-1.351-1.459-2.322-1.459-1.675,0-2.413.576-2.5,2.268h-2.791a4.674,4.674,0,0,1,.81-2.628m5.564,12.658h-2.737V12.892h2.737Z" fill="#222"/>
      </g>
    </g>
  </g>
</svg>
