<svg width="140" height="140" viewBox="0 0 140 140" fill="none" xmlns="http://www.w3.org/2000/svg">
<circle cx="70" cy="70" r="70" fill="#643C28"/>
<path d="M35.547 74.2H41.811V74.872H35.547V74.2ZM34.707 66.304H41.883V66.976H34.707V66.304ZM34.707 68.896H41.883V69.568H34.707V68.896ZM34.707 71.464H41.811V72.136H34.707V71.464ZM35.763 78.592H42.051V79.264H35.763V78.592ZM34.323 74.2V73.12L37.131 74.2H36.819V80.344C36.819 80.424 36.635 80.56 36.267 80.752C35.899 80.96 35.395 81.064 34.755 81.064H34.323V74.2ZM41.067 74.2H40.851L42.051 72.88L44.667 74.824C44.603 74.904 44.483 75 44.307 75.112C44.147 75.208 43.947 75.272 43.707 75.304V80.128C43.707 80.176 43.579 80.248 43.323 80.344C43.083 80.44 42.787 80.528 42.435 80.608C42.099 80.688 41.795 80.728 41.523 80.728H41.067V74.2ZM40.875 66.304H40.635L41.835 64.96L44.475 66.928C44.411 67.024 44.291 67.12 44.115 67.216C43.939 67.296 43.731 67.368 43.491 67.432V72.232C43.475 72.28 43.347 72.352 43.107 72.448C42.867 72.544 42.579 72.632 42.243 72.712C41.907 72.792 41.595 72.832 41.307 72.832H40.875V66.304ZM35.187 63.928H38.475L39.699 62.392C39.699 62.392 39.819 62.496 40.059 62.704C40.315 62.896 40.619 63.136 40.971 63.424C41.323 63.696 41.643 63.96 41.931 64.216C41.867 64.472 41.651 64.6 41.283 64.6H35.379L35.187 63.928ZM38.835 59.8C40.243 60.04 41.363 60.36 42.195 60.76C43.027 61.16 43.619 61.592 43.971 62.056C44.339 62.504 44.523 62.936 44.523 63.352C44.539 63.768 44.427 64.12 44.187 64.408C43.963 64.68 43.667 64.848 43.299 64.912C42.931 64.976 42.571 64.872 42.219 64.6C42.011 63.88 41.587 63.08 40.947 62.2C40.307 61.32 39.491 60.544 38.499 59.872L38.835 59.8ZM33.315 66.304V66.064V65.224L36.267 66.304H35.859V69.448C35.859 70.232 35.811 71.104 35.715 72.064C35.619 73.008 35.419 73.984 35.115 74.992C34.811 75.984 34.347 76.952 33.723 77.896C33.099 78.824 32.243 79.664 31.155 80.416L30.915 80.2C31.651 79.096 32.187 77.928 32.523 76.696C32.859 75.464 33.075 74.232 33.171 73C33.267 71.752 33.315 70.576 33.315 69.472V66.304ZM38.955 59.824C38.427 60.704 37.755 61.608 36.939 62.536C36.123 63.464 35.203 64.344 34.179 65.176C33.171 66.008 32.067 66.712 30.867 67.288L30.675 67.096C31.507 66.328 32.275 65.44 32.979 64.432C33.699 63.424 34.331 62.4 34.875 61.36C35.419 60.32 35.827 59.368 36.099 58.504L39.987 59.296C39.939 59.456 39.843 59.584 39.699 59.68C39.555 59.76 39.307 59.808 38.955 59.824ZM45.579 60.592L48.795 60.904C48.779 61.064 48.715 61.2 48.603 61.312C48.491 61.424 48.291 61.504 48.003 61.552V75.208C48.003 75.288 47.899 75.392 47.691 75.52C47.499 75.632 47.251 75.736 46.947 75.832C46.643 75.912 46.339 75.952 46.035 75.952H45.579V60.592ZM49.923 59.008L53.403 59.344C53.387 59.52 53.307 59.672 53.163 59.8C53.035 59.912 52.827 59.984 52.539 60.016V77.968C52.539 78.576 52.459 79.104 52.299 79.552C52.155 80 51.843 80.352 51.363 80.608C50.883 80.88 50.131 81.064 49.107 81.16C49.091 80.744 49.043 80.376 48.963 80.056C48.883 79.752 48.747 79.488 48.555 79.264C48.379 79.056 48.139 78.88 47.835 78.736C47.547 78.592 47.115 78.472 46.539 78.376V78.04C46.539 78.04 46.659 78.048 46.899 78.064C47.139 78.08 47.427 78.096 47.763 78.112C48.115 78.128 48.443 78.144 48.747 78.16C49.067 78.176 49.291 78.184 49.419 78.184C49.611 78.184 49.739 78.152 49.803 78.088C49.883 78.024 49.923 77.912 49.923 77.752V59.008ZM63.3412 77.272C63.0212 77.272 62.6772 77.144 62.3092 76.888C61.9412 76.632 61.6052 76.336 61.3012 76C60.9972 75.648 60.7892 75.344 60.6772 75.088C60.5812 74.88 60.5092 74.656 60.4612 74.416C60.4292 74.176 60.4132 73.864 60.4132 73.48L60.7252 73.336C61.0772 73.656 61.4372 73.92 61.8052 74.128C62.1892 74.32 62.6132 74.416 63.0772 74.416C63.4932 74.416 64.0932 74.392 64.8772 74.344C65.6772 74.28 66.5812 74.208 67.5892 74.128C68.5972 74.032 69.6292 73.936 70.6852 73.84C71.7412 73.744 72.7492 73.656 73.7092 73.576C74.6692 73.48 75.4852 73.408 76.1572 73.36C76.6052 73.296 76.9572 73.232 77.2132 73.168C77.4692 73.104 77.6692 73.048 77.8132 73C77.9572 72.936 78.0932 72.904 78.2212 72.904C78.5412 72.904 78.9012 72.984 79.3012 73.144C79.7172 73.288 80.1172 73.48 80.5012 73.72C80.9012 73.96 81.2292 74.216 81.4852 74.488C81.7412 74.76 81.8692 75.024 81.8692 75.28C81.8692 75.616 81.7652 75.896 81.5572 76.12C81.3652 76.328 81.0932 76.432 80.7412 76.432C80.4212 76.432 79.9492 76.36 79.3252 76.216C78.7172 76.072 77.9732 75.936 77.0932 75.808C76.2132 75.664 75.2212 75.584 74.1172 75.568C73.6212 75.568 73.0932 75.584 72.5332 75.616C71.9732 75.632 71.3972 75.672 70.8052 75.736C70.2292 75.784 69.6532 75.848 69.0772 75.928C68.5012 76.008 67.9492 76.096 67.4212 76.192C66.9092 76.288 66.4452 76.392 66.0292 76.504C65.4532 76.664 64.9412 76.832 64.4932 77.008C64.0612 77.184 63.6772 77.272 63.3412 77.272ZM69.6292 74.632C69.6612 74.232 69.6852 73.8 69.7012 73.336C69.7172 72.856 69.7332 72.368 69.7492 71.872C69.7812 71.376 69.7972 70.896 69.7972 70.432C69.8132 69.968 69.8212 69.552 69.8212 69.184C69.8212 68.448 69.7332 67.856 69.5572 67.408C69.3812 66.944 69.1332 66.52 68.8132 66.136L69.0532 65.8C69.4852 65.864 69.9332 65.968 70.3972 66.112C70.8772 66.256 71.3172 66.424 71.7172 66.616C72.1332 66.792 72.4692 67 72.7252 67.24C72.9812 67.464 73.1092 67.704 73.1092 67.96C73.1092 68.2 73.0372 68.456 72.8932 68.728C72.7492 69 72.6452 69.304 72.5812 69.64C72.5332 69.944 72.4852 70.288 72.4372 70.672C72.3892 71.04 72.3412 71.44 72.2932 71.872C72.2452 72.288 72.1972 72.728 72.1492 73.192C72.1172 73.64 72.0852 74.096 72.0532 74.56L69.6292 74.632ZM66.0052 67.288C65.6692 67.288 65.3252 67.152 64.9732 66.88C64.6212 66.608 64.3332 66.304 64.1092 65.968C63.9172 65.664 63.7412 65.352 63.5812 65.032C63.4372 64.712 63.3252 64.392 63.2452 64.072L63.5332 63.904C63.9492 64.208 64.3652 64.464 64.7812 64.672C65.2132 64.88 65.6772 64.984 66.1732 64.984C66.8292 64.984 67.6292 64.936 68.5732 64.84C69.5172 64.728 70.4452 64.6 71.3572 64.456C72.1412 64.328 72.7572 64.192 73.2052 64.048C73.6532 63.904 73.9892 63.768 74.2132 63.64C74.4372 63.512 74.6052 63.408 74.7172 63.328C74.8452 63.232 74.9812 63.184 75.1252 63.184C75.4612 63.184 75.8212 63.24 76.2052 63.352C76.5892 63.448 76.9572 63.576 77.3092 63.736C77.6612 63.896 77.9492 64.08 78.1732 64.288C78.3972 64.48 78.5092 64.672 78.5092 64.864C78.5092 65.152 78.4132 65.408 78.2212 65.632C78.0452 65.856 77.7412 65.984 77.3092 66.016C77.0372 66.048 76.6852 66.08 76.2532 66.112C75.8212 66.144 75.3172 66.184 74.7412 66.232C74.1652 66.264 73.5172 66.312 72.7972 66.376C72.0772 66.44 71.3172 66.528 70.5172 66.64C69.3812 66.784 68.4532 66.928 67.7332 67.072C67.0132 67.216 66.4372 67.288 66.0052 67.288ZM88.1568 77.032C89.4048 76.376 90.6688 75.608 91.9488 74.728C93.2448 73.848 94.4688 72.928 95.6208 71.968C96.7888 71.008 97.8128 70.072 98.6928 69.16C99.5728 68.232 100.229 67.384 100.661 66.616C100.741 66.456 100.773 66.352 100.757 66.304C100.741 66.24 100.653 66.216 100.493 66.232C100.349 66.232 100.125 66.264 99.8208 66.328C99.5328 66.392 99.1888 66.48 98.7888 66.592C98.4048 66.688 98.0048 66.792 97.5888 66.904C97.1728 67 96.7808 67.104 96.4128 67.216C96.0448 67.328 95.7488 67.424 95.5248 67.504C95.2528 67.6 95.0288 67.728 94.8528 67.888C94.6768 68.032 94.5088 68.16 94.3488 68.272C94.1888 68.384 93.9968 68.44 93.7728 68.44C93.5008 68.44 93.1968 68.352 92.8608 68.176C92.5248 67.984 92.2128 67.744 91.9248 67.456C91.6528 67.152 91.4528 66.832 91.3248 66.496C91.2608 66.288 91.2128 66.016 91.1808 65.68C91.1648 65.344 91.1648 65 91.1808 64.648L91.5168 64.528C91.7088 64.752 91.8928 64.952 92.0688 65.128C92.2608 65.304 92.4528 65.44 92.6448 65.536C92.8528 65.632 93.0688 65.68 93.2928 65.68C93.5648 65.68 93.9408 65.656 94.4208 65.608C94.9168 65.56 95.4608 65.496 96.0528 65.416C96.6448 65.32 97.2448 65.216 97.8528 65.104C98.4608 64.992 99.0208 64.888 99.5328 64.792C100.045 64.68 100.469 64.592 100.805 64.528C101.125 64.448 101.365 64.352 101.525 64.24C101.701 64.112 101.845 64 101.957 63.904C102.069 63.792 102.213 63.736 102.389 63.736C102.613 63.736 102.877 63.808 103.181 63.952C103.501 64.096 103.813 64.288 104.117 64.528C104.437 64.752 104.701 64.984 104.909 65.224C105.133 65.448 105.245 65.656 105.245 65.848C105.245 66.056 105.133 66.24 104.909 66.4C104.701 66.544 104.469 66.672 104.213 66.784C103.973 66.896 103.797 67.016 103.685 67.144C102.965 68.04 102.069 68.992 100.997 70C99.9408 70.992 98.7488 71.968 97.4208 72.928C96.1088 73.872 94.6928 74.744 93.1728 75.544C91.6528 76.344 90.0688 77 88.4208 77.512L88.1568 77.032ZM99.1728 80.56C98.8528 80.56 98.5728 80.432 98.3328 80.176C98.0928 79.92 97.9008 79.616 97.7568 79.264C97.6128 78.928 97.5408 78.616 97.5408 78.328C97.5408 78.088 97.5568 77.872 97.5888 77.68C97.6368 77.472 97.7088 77.152 97.8048 76.72C97.8528 76.56 97.8928 76.336 97.9248 76.048C97.9568 75.76 97.9808 75.44 97.9968 75.088C98.0288 74.72 98.0528 74.344 98.0688 73.96C98.1008 73.576 98.1168 73.216 98.1168 72.88C98.1168 72.448 98.0928 72.072 98.0448 71.752C97.9968 71.416 97.9408 71.136 97.8768 70.912L98.6208 70.168C98.8928 70.28 99.1728 70.432 99.4608 70.624C99.7488 70.8 99.9888 71.008 100.181 71.248C100.373 71.472 100.469 71.696 100.469 71.92C100.469 72.064 100.461 72.24 100.445 72.448C100.429 72.656 100.413 72.928 100.397 73.264C100.381 73.584 100.365 74 100.349 74.512C100.333 75.008 100.325 75.64 100.325 76.408C100.325 76.872 100.349 77.344 100.397 77.824C100.445 78.304 100.469 78.672 100.469 78.928C100.469 79.168 100.445 79.416 100.397 79.672C100.349 79.928 100.229 80.136 100.037 80.296C99.8608 80.472 99.5728 80.56 99.1728 80.56ZM107.309 76.048C107.005 76.048 106.733 75.976 106.493 75.832C106.269 75.672 105.973 75.328 105.605 74.8C105.157 74.176 104.733 73.64 104.333 73.192C103.933 72.744 103.509 72.344 103.061 71.992C102.629 71.624 102.101 71.288 101.477 70.984L101.645 70.6C102.941 70.632 104.117 70.816 105.173 71.152C106.229 71.488 107.069 71.96 107.693 72.568C108.317 73.16 108.629 73.888 108.629 74.752C108.629 75.104 108.501 75.408 108.245 75.664C108.005 75.92 107.693 76.048 107.309 76.048ZM99.8928 63.592C99.6048 63.592 99.3728 63.528 99.1968 63.4C99.0208 63.272 98.8528 63.088 98.6928 62.848C98.5328 62.608 98.3248 62.312 98.0688 61.96C97.7808 61.544 97.4128 61.144 96.9648 60.76C96.5328 60.376 96.0288 59.992 95.4528 59.608L95.6688 59.272C96.3728 59.304 97.0608 59.384 97.7328 59.512C98.4208 59.64 99.0368 59.824 99.5808 60.064C100.141 60.288 100.581 60.576 100.901 60.928C101.237 61.264 101.405 61.672 101.405 62.152C101.405 62.552 101.261 62.896 100.973 63.184C100.701 63.456 100.341 63.592 99.8928 63.592Z" fill="white"/>
</svg>
