<svg width="145" height="26" viewBox="0 0 145 26" fill="none" xmlns="http://www.w3.org/2000/svg">
<path d="M2.71746 18.5V17.9339C3.27875 17.9242 3.69972 17.8903 3.98036 17.8323C4.27069 17.7645 4.46424 17.6339 4.56101 17.4403C4.65778 17.2468 4.70617 16.9565 4.70617 16.5694L4.70617 8.83226H4.24166C3.81585 8.83226 3.44811 8.93387 3.13843 9.1371C2.82875 9.33065 2.56262 9.65 2.34004 10.0952C2.11746 10.5403 1.92391 11.1258 1.7594 11.8516H1.17875C1.26585 11.2419 1.32875 10.6371 1.36746 10.0371C1.40617 9.4371 1.43037 8.83226 1.44004 8.22258C1.86585 8.23226 2.33036 8.24194 2.83359 8.25161C3.34649 8.26129 3.8594 8.26613 4.3723 8.26613C4.89488 8.26613 5.37391 8.26613 5.8094 8.26613C6.2352 8.26613 6.70456 8.26613 7.21746 8.26613C7.73036 8.26613 8.24327 8.26129 8.75617 8.25161C9.27875 8.24194 9.75295 8.23226 10.1788 8.22258C10.1884 8.83226 10.2126 9.4371 10.2513 10.0371C10.29 10.6371 10.3529 11.2419 10.44 11.8516H9.8594C9.73359 11.3097 9.59327 10.8452 9.43843 10.4581C9.28359 10.071 9.10456 9.76129 8.90133 9.52903C8.70778 9.2871 8.4852 9.1129 8.23359 9.00645C7.98198 8.89032 7.69166 8.83226 7.36262 8.83226H6.91262L6.91262 16.5694C6.91262 16.9565 6.96101 17.2468 7.05778 17.4403C7.15456 17.6339 7.34327 17.7645 7.62391 17.8323C7.91424 17.8903 8.34004 17.9242 8.90133 17.9339V18.5C8.56262 18.4903 8.11746 18.4806 7.56585 18.471C7.02391 18.4613 6.44811 18.4565 5.83843 18.4565C5.19004 18.4565 4.59004 18.4613 4.03843 18.471C3.48682 18.4806 3.04649 18.4903 2.71746 18.5ZM15.0351 18.7032C14.3093 18.7032 13.6754 18.5484 13.1335 18.2387C12.6013 17.9194 12.19 17.4645 11.8996 16.8742C11.6093 16.2839 11.4642 15.5823 11.4642 14.7694C11.4642 13.9177 11.619 13.1968 11.9287 12.6065C12.2383 12.0161 12.6738 11.5661 13.2351 11.2565C13.7964 10.9468 14.4545 10.7919 15.2093 10.7919C15.8867 10.7919 16.4625 10.9177 16.9367 11.1694C17.4109 11.4113 17.769 11.7935 18.0109 12.3161C18.2529 12.8387 18.3642 13.5161 18.3448 14.3484H12.9013L12.8867 13.7968H16.5303C16.54 13.3226 16.4964 12.9065 16.3996 12.5484C16.3125 12.1806 16.1674 11.8903 15.9642 11.6774C15.7609 11.4645 15.4948 11.3581 15.1658 11.3581C14.7496 11.3581 14.3916 11.5613 14.0916 11.9677C13.8013 12.3742 13.6271 13.0177 13.569 13.8984L13.598 13.9565C13.5883 14.0435 13.5835 14.1403 13.5835 14.2468C13.5835 14.3532 13.5835 14.4742 13.5835 14.6097C13.5835 15.5677 13.7625 16.3177 14.1206 16.8597C14.4883 17.4016 15.0206 17.6726 15.7174 17.6726C16.1916 17.6726 16.6029 17.5565 16.9513 17.3242C17.3093 17.0823 17.6093 16.7145 17.8513 16.221L18.3738 16.5113C18.0932 17.2177 17.6674 17.7597 17.0964 18.1371C16.5254 18.5145 15.8383 18.7032 15.0351 18.7032ZM23.7776 18.7032C23.0615 18.7032 22.4421 18.5484 21.9196 18.2387C21.397 17.9194 20.9905 17.4694 20.7002 16.8887C20.4196 16.2984 20.2792 15.6016 20.2792 14.7984C20.2792 13.9661 20.4292 13.25 20.7292 12.65C21.0292 12.05 21.455 11.5903 22.0067 11.271C22.5679 10.9516 23.2308 10.7919 23.9954 10.7919C24.547 10.7919 25.0357 10.879 25.4615 11.0532C25.8873 11.2177 26.2212 11.45 26.4631 11.75C26.705 12.0403 26.826 12.3839 26.826 12.7806C26.826 13.1484 26.7099 13.4532 26.4776 13.6952C26.255 13.9371 25.955 14.0581 25.5776 14.0581C25.297 14.0581 25.0696 13.9855 24.8954 13.8403C24.7212 13.6952 24.6341 13.5065 24.6341 13.2742C24.6341 13.0613 24.6921 12.8774 24.8083 12.7226C24.9244 12.5677 25.0357 12.4274 25.1421 12.3016C25.2583 12.1661 25.3163 12.021 25.3163 11.8661C25.3163 11.721 25.2341 11.6097 25.0696 11.5323C24.9147 11.4452 24.7115 11.4016 24.4599 11.4016C23.8018 11.4016 23.2937 11.6823 22.9357 12.2435C22.5776 12.7952 22.3986 13.5694 22.3986 14.5661C22.3986 15.5629 22.5728 16.3323 22.9212 16.8742C23.2792 17.4065 23.797 17.6726 24.4744 17.6726C24.9196 17.6726 25.3067 17.5516 25.6357 17.3097C25.9647 17.0677 26.2405 16.7048 26.4631 16.221L26.9712 16.5113C26.7099 17.2177 26.3034 17.7597 25.7518 18.1371C25.2002 18.5145 24.5421 18.7032 23.7776 18.7032ZM33.352 18.5V17.9339C33.71 17.9242 33.952 17.8468 34.0778 17.7016C34.2133 17.5468 34.281 17.2758 34.281 16.8887V13.2887C34.281 12.7661 34.1794 12.3742 33.9762 12.1129C33.7729 11.8516 33.4681 11.721 33.0616 11.721C32.7423 11.721 32.4471 11.8129 32.1762 11.9968C31.9052 12.1806 31.6681 12.4468 31.4649 12.7952L31.4794 12.1565C31.7213 11.721 32.0503 11.3871 32.4665 11.1548C32.8923 10.9129 33.3713 10.7919 33.9036 10.7919C34.6778 10.7919 35.2681 11.0242 35.6745 11.4887C36.0907 11.9435 36.2987 12.6016 36.2987 13.4629V16.8887C36.2987 17.2758 36.3955 17.5468 36.5891 17.7016C36.7923 17.8468 37.1503 17.9242 37.6633 17.9339V18.5C37.5181 18.4903 37.3149 18.4855 37.0536 18.4855C36.802 18.4758 36.5262 18.4661 36.2262 18.4565C35.9262 18.4468 35.631 18.4419 35.3407 18.4419C34.9536 18.4419 34.5713 18.4516 34.1939 18.471C33.8165 18.4806 33.5358 18.4903 33.352 18.5ZM28.1552 18.5V17.9339C28.6778 17.9242 29.0358 17.8468 29.2294 17.7016C29.4326 17.5468 29.5342 17.2758 29.5342 16.8887V9.1371C29.5342 8.69194 29.4326 8.37258 29.2294 8.17903C29.0262 7.98548 28.6681 7.87903 28.1552 7.85968V7.29355C28.3778 7.30323 28.5858 7.3129 28.7794 7.32258C28.9826 7.33226 29.1907 7.3371 29.4036 7.3371C29.8003 7.3371 30.1729 7.32258 30.5213 7.29355C30.8794 7.25484 31.2181 7.20161 31.5374 7.13387V16.8887C31.5374 17.2758 31.6052 17.5468 31.7407 17.7016C31.8762 17.8468 32.1229 17.9242 32.481 17.9339V18.5C32.2778 18.4903 31.9971 18.4806 31.6391 18.471C31.2907 18.4516 30.9326 18.4419 30.5649 18.4419C30.1294 18.4419 29.6842 18.4516 29.2294 18.471C28.7745 18.4806 28.4165 18.4903 28.1552 18.5ZM43.9065 18.5V17.9339C44.2645 17.9242 44.5065 17.8468 44.6323 17.7016C44.7678 17.5468 44.8355 17.2758 44.8355 16.8887V13.2887C44.8355 12.7661 44.7291 12.3742 44.5162 12.1129C44.3129 11.8516 44.0081 11.721 43.6016 11.721C43.2823 11.721 42.9871 11.8129 42.7162 11.9968C42.4452 12.1806 42.2129 12.4468 42.0194 12.7952V12.1565C42.2613 11.721 42.5903 11.3871 43.0065 11.1548C43.4323 10.9129 43.9162 10.7919 44.4581 10.7919C45.2323 10.7919 45.8226 11.0242 46.2291 11.4887C46.6355 11.9435 46.8387 12.6016 46.8387 13.4629V16.8887C46.8387 17.2758 46.9403 17.5468 47.1436 17.7016C47.3468 17.8468 47.7049 17.9242 48.2178 17.9339V18.5C48.0726 18.4903 47.8694 18.4855 47.6081 18.4855C47.3565 18.4758 47.0758 18.4661 46.7662 18.4565C46.4662 18.4468 46.171 18.4419 45.8807 18.4419C45.5033 18.4419 45.1258 18.4516 44.7484 18.471C44.371 18.4806 44.0903 18.4903 43.9065 18.5ZM38.7097 18.5V17.9339C39.2323 17.9242 39.5903 17.8468 39.7839 17.7016C39.9871 17.5468 40.0887 17.2758 40.0887 16.8887V12.8387C40.0887 12.3839 39.9823 12.0645 39.7694 11.8806C39.5662 11.6871 39.2129 11.5806 38.7097 11.5613V10.9952C38.9129 11.0048 39.1162 11.0145 39.3194 11.0242C39.5226 11.0339 39.7307 11.0387 39.9436 11.0387C40.3597 11.0387 40.7468 11.0242 41.1049 10.9952C41.4629 10.9565 41.792 10.9032 42.092 10.8355V16.8887C42.092 17.2758 42.1597 17.5468 42.2952 17.7016C42.4307 17.8468 42.6726 17.9242 43.021 17.9339V18.5C42.8178 18.4903 42.542 18.4806 42.1936 18.471C41.8452 18.4516 41.4823 18.4419 41.1049 18.4419C40.6791 18.4419 40.2387 18.4516 39.7839 18.471C39.3387 18.4806 38.9807 18.4903 38.7097 18.5ZM53.3731 18.7032C52.6473 18.7032 52.0037 18.5629 51.4424 18.2823C50.8811 17.9919 50.4408 17.5565 50.1215 16.9758C49.8021 16.3855 49.6424 15.6452 49.6424 14.7548C49.6424 13.8645 49.8021 13.1242 50.1215 12.5339C50.4408 11.9435 50.8811 11.5081 51.4424 11.2274C52.0037 10.9371 52.6473 10.7919 53.3731 10.7919C54.1086 10.7919 54.7521 10.9371 55.3037 11.2274C55.8553 11.5081 56.2908 11.9435 56.6102 12.5339C56.9295 13.1242 57.0892 13.8645 57.0892 14.7548C57.0892 15.6452 56.9295 16.3855 56.6102 16.9758C56.2908 17.5565 55.8553 17.9919 55.3037 18.2823C54.7521 18.5629 54.1086 18.7032 53.3731 18.7032ZM53.3731 18.1371C53.8376 18.1371 54.2199 17.871 54.5199 17.3387C54.8295 16.7968 54.9844 15.9355 54.9844 14.7548C54.9844 13.5548 54.8295 12.6887 54.5199 12.1565C54.2199 11.6145 53.8376 11.3435 53.3731 11.3435C52.8989 11.3435 52.5118 11.6145 52.2118 12.1565C51.9118 12.6887 51.7618 13.5548 51.7618 14.7548C51.7618 15.9355 51.9118 16.7968 52.2118 17.3387C52.5118 17.871 52.8989 18.1371 53.3731 18.1371ZM58.5203 18.5V17.9339C59.0332 17.9242 59.3913 17.8468 59.5945 17.7016C59.7978 17.5565 59.8994 17.2855 59.8994 16.8887V9.1371C59.8994 8.70161 59.7978 8.3871 59.5945 8.19355C59.401 7.99032 59.0429 7.87903 58.5203 7.85968V7.29355C58.7236 7.30323 58.9268 7.3129 59.13 7.32258C59.3332 7.33226 59.5316 7.3371 59.7252 7.3371C60.1413 7.3371 60.5332 7.32258 60.901 7.29355C61.2687 7.25484 61.6026 7.20161 61.9026 7.13387V16.8887C61.9026 17.2855 62.0042 17.5565 62.2074 17.7016C62.4203 17.8468 62.7784 17.9242 63.2816 17.9339V18.5C63.1365 18.4903 62.9332 18.4855 62.672 18.4855C62.4203 18.4758 62.1397 18.4661 61.83 18.4565C61.53 18.4468 61.23 18.4419 60.93 18.4419C60.4849 18.4419 60.03 18.4516 59.5655 18.471C59.101 18.4806 58.7526 18.4903 58.5203 18.5ZM68.4368 18.7032C67.711 18.7032 67.0675 18.5629 66.5062 18.2823C65.9449 17.9919 65.5046 17.5565 65.1852 16.9758C64.8659 16.3855 64.7062 15.6452 64.7062 14.7548C64.7062 13.8645 64.8659 13.1242 65.1852 12.5339C65.5046 11.9435 65.9449 11.5081 66.5062 11.2274C67.0675 10.9371 67.711 10.7919 68.4368 10.7919C69.1723 10.7919 69.8159 10.9371 70.3675 11.2274C70.9191 11.5081 71.3546 11.9435 71.6739 12.5339C71.9933 13.1242 72.153 13.8645 72.153 14.7548C72.153 15.6452 71.9933 16.3855 71.6739 16.9758C71.3546 17.5565 70.9191 17.9919 70.3675 18.2823C69.8159 18.5629 69.1723 18.7032 68.4368 18.7032ZM68.4368 18.1371C68.9013 18.1371 69.2836 17.871 69.5836 17.3387C69.8933 16.7968 70.0481 15.9355 70.0481 14.7548C70.0481 13.5548 69.8933 12.6887 69.5836 12.1565C69.2836 11.6145 68.9013 11.3435 68.4368 11.3435C67.9626 11.3435 67.5755 11.6145 67.2755 12.1565C66.9755 12.6887 66.8255 13.5548 66.8255 14.7548C66.8255 15.9355 66.9755 16.7968 67.2755 17.3387C67.5755 17.871 67.9626 18.1371 68.4368 18.1371ZM76.8946 21.9694C75.8688 21.9694 75.0704 21.8 74.4994 21.4613C73.9284 21.1323 73.6429 20.7016 73.6429 20.1694C73.6429 19.7242 73.8171 19.3371 74.1655 19.0081C74.5139 18.679 75.022 18.4032 75.6897 18.1806L76.0671 18.3839C75.8252 18.529 75.6317 18.7323 75.4865 18.9935C75.351 19.2548 75.2833 19.5403 75.2833 19.85C75.2833 20.3532 75.4526 20.7403 75.7913 21.0113C76.13 21.2823 76.6091 21.4177 77.2284 21.4177C77.722 21.4177 78.1526 21.3355 78.5204 21.171C78.8881 21.0161 79.1784 20.7984 79.3913 20.5177C79.6042 20.2468 79.7107 19.9323 79.7107 19.5742C79.7107 19.2355 79.5994 18.979 79.3768 18.8048C79.1639 18.6403 78.8397 18.5581 78.4042 18.5581H76.8655C76.2365 18.5581 75.7381 18.4371 75.3704 18.1952C75.0026 17.9435 74.8188 17.6145 74.8188 17.2081C74.8188 16.8694 74.9349 16.5597 75.1671 16.279C75.3994 15.9887 75.7575 15.7129 76.2413 15.4516L76.7349 15.5097C76.551 15.6355 76.4204 15.7613 76.3429 15.8871C76.2655 16.0032 76.2268 16.129 76.2268 16.2645C76.2268 16.4581 76.3091 16.6081 76.4736 16.7145C76.6478 16.8113 76.8897 16.8597 77.1994 16.8597H78.7962C79.6381 16.8597 80.2817 17.029 80.7268 17.3677C81.172 17.7065 81.3946 18.2048 81.3946 18.8629C81.3946 19.4726 81.2059 20.0097 80.8284 20.4742C80.451 20.9484 79.9236 21.3161 79.2462 21.5774C78.5784 21.8387 77.7946 21.9694 76.8946 21.9694ZM77.1849 15.5968C76.2462 15.5968 75.5059 15.3839 74.9639 14.9581C74.4317 14.5323 74.1655 13.9419 74.1655 13.1871C74.1655 12.4419 74.4317 11.8565 74.9639 11.4306C75.5059 11.0048 76.2462 10.7919 77.1849 10.7919C78.1236 10.7919 78.8542 11.0048 79.3768 11.4306C79.8994 11.8468 80.1607 12.4323 80.1607 13.1871C80.1607 13.9419 79.8994 14.5323 79.3768 14.9581C78.8542 15.3839 78.1236 15.5968 77.1849 15.5968ZM77.1994 15.0452C77.5768 15.0452 77.8623 14.8952 78.0559 14.5952C78.2494 14.2855 78.3462 13.8161 78.3462 13.1871C78.3462 12.5581 78.2494 12.0935 78.0559 11.7935C77.872 11.4839 77.5865 11.329 77.1994 11.329C76.822 11.329 76.5365 11.4839 76.3429 11.7935C76.1494 12.0935 76.0526 12.5581 76.0526 13.1871C76.0526 13.8161 76.1494 14.2855 76.3429 14.5952C76.5365 14.8952 76.822 15.0452 77.1994 15.0452ZM81.4526 12.7806C81.2591 12.7806 81.1139 12.7177 81.0171 12.5919C80.93 12.4661 80.8575 12.321 80.7994 12.1565C80.751 11.9919 80.6978 11.8516 80.6397 11.7355C80.5817 11.6097 80.4946 11.5468 80.3784 11.5468C80.3204 11.5468 80.2381 11.5806 80.1317 11.6484C80.0252 11.7065 79.9139 11.7935 79.7978 11.9097C79.6913 12.0161 79.5897 12.1565 79.4929 12.3306L79.2462 11.8952C79.4494 11.5661 79.7204 11.3 80.0591 11.0968C80.3978 10.8935 80.7462 10.7919 81.1042 10.7919C81.4236 10.7919 81.68 10.8839 81.8736 11.0677C82.0671 11.2516 82.1639 11.5081 82.1639 11.8371C82.1639 12.1177 82.0962 12.3452 81.9607 12.5194C81.8349 12.6935 81.6655 12.7806 81.4526 12.7806ZM87.4755 19.2403L84.3836 12.5048C84.2384 12.1855 84.0594 11.9532 83.8465 11.8081C83.6336 11.6629 83.3578 11.5806 83.0191 11.5613V10.9952C83.3674 11.0145 83.7158 11.029 84.0642 11.0387C84.4223 11.0484 84.8239 11.0532 85.2691 11.0532C85.7142 11.0532 86.1013 11.0484 86.4303 11.0387C86.7691 11.029 87.0932 11.0145 87.4029 10.9952V11.5613C86.9481 11.5806 86.6626 11.6823 86.5465 11.8661C86.4303 12.0403 86.4691 12.3452 86.6626 12.7806L88.4481 16.7L88.1287 16.8597L89.3191 13.7532C89.4932 13.3081 89.5755 12.9306 89.5658 12.621C89.5658 12.3113 89.4787 12.0694 89.3045 11.8952C89.1303 11.7113 88.8691 11.6 88.5207 11.5613V10.9952C88.7432 11.0048 88.9513 11.0145 89.1449 11.0242C89.3481 11.0339 89.5416 11.0387 89.7255 11.0387C89.9094 11.0387 90.0884 11.0387 90.2626 11.0387C90.5045 11.0387 90.761 11.0339 91.032 11.0242C91.3126 11.0145 91.5545 11.0048 91.7578 10.9952V11.5613C91.361 11.6484 91.0368 11.8226 90.7852 12.0839C90.5336 12.3452 90.3013 12.7565 90.0884 13.3177L87.8239 19.2403H87.4755ZM85.3997 22.0565C84.8868 22.0565 84.4755 21.9306 84.1658 21.679C83.8561 21.4274 83.7013 21.0935 83.7013 20.6774C83.7013 20.3387 83.8078 20.0629 84.0207 19.85C84.2336 19.6468 84.5094 19.5452 84.8481 19.5452C85.0997 19.5452 85.2981 19.6032 85.4432 19.7194C85.5884 19.8452 85.661 20.0097 85.661 20.2129C85.661 20.3484 85.6368 20.4742 85.5884 20.5903C85.54 20.7065 85.4868 20.8129 85.4287 20.9097C85.3803 21.0161 85.3561 21.1226 85.3561 21.229C85.3561 21.3935 85.4578 21.4758 85.661 21.4758C85.8932 21.4758 86.0965 21.3984 86.2707 21.2435C86.4545 21.0887 86.6045 20.8565 86.7207 20.5468L87.6642 18.1226L88.1578 18.3258L87.2868 20.6048C87.161 20.9242 87.011 21.1903 86.8368 21.4032C86.6723 21.6258 86.4739 21.7903 86.2416 21.8968C86.0094 22.0032 85.7287 22.0565 85.3997 22.0565Z" fill="#643C28"/>
<path d="M109.504 25.512C108.096 25.512 106.773 25.0853 105.536 24.232C104.32 23.3787 103.328 22.0347 102.56 20.2C101.792 18.3653 101.408 15.9973 101.408 13.096C101.408 10.216 101.792 7.86933 102.56 6.056C103.328 4.24267 104.32 2.90933 105.536 2.056C106.773 1.20267 108.096 0.775999 109.504 0.775999C110.912 0.775999 112.224 1.20267 113.44 2.056C114.677 2.90933 115.669 4.24267 116.416 6.056C117.184 7.86933 117.568 10.216 117.568 13.096C117.568 15.9973 117.184 18.3653 116.416 20.2C115.669 22.0347 114.677 23.3787 113.44 24.232C112.224 25.0853 110.912 25.512 109.504 25.512ZM109.504 24.456C109.995 24.456 110.475 24.2747 110.944 23.912C111.435 23.5493 111.861 22.9413 112.224 22.088C112.608 21.2133 112.907 20.0507 113.12 18.6C113.333 17.128 113.44 15.2933 113.44 13.096C113.44 10.92 113.333 9.10667 113.12 7.656C112.907 6.20533 112.608 5.064 112.224 4.232C111.861 3.37867 111.435 2.77067 110.944 2.408C110.475 2.04533 109.995 1.864 109.504 1.864C108.971 1.864 108.469 2.04533 108 2.408C107.531 2.77067 107.104 3.37867 106.72 4.232C106.357 5.064 106.069 6.20533 105.856 7.656C105.664 9.08533 105.568 10.8987 105.568 13.096C105.568 15.2933 105.664 17.128 105.856 18.6C106.069 20.072 106.357 21.2347 106.72 22.088C107.104 22.9413 107.531 23.5493 108 23.912C108.469 24.2747 108.971 24.456 109.504 24.456ZM134.137 25.512C131.918 25.512 130.179 25.0533 128.921 24.136C127.683 23.2187 126.958 21.9173 126.745 20.232C126.894 19.784 127.129 19.4533 127.449 19.24C127.79 19.0267 128.153 18.92 128.537 18.92C129.091 18.92 129.529 19.0907 129.849 19.432C130.19 19.7733 130.435 20.4027 130.585 21.32L131.289 24.616L129.785 23.624C130.275 23.88 130.745 24.0827 131.193 24.232C131.662 24.3813 132.195 24.456 132.793 24.456C134.478 24.456 135.779 23.9867 136.697 23.048C137.614 22.088 138.073 20.7227 138.073 18.952C138.073 17.096 137.625 15.688 136.729 14.728C135.854 13.7467 134.542 13.256 132.793 13.256H131.481V12.04H132.633C134.083 12.04 135.267 11.592 136.185 10.696C137.102 9.8 137.561 8.43467 137.561 6.6C137.561 5.04267 137.198 3.85867 136.473 3.048C135.769 2.23733 134.777 1.832 133.497 1.832C133.027 1.832 132.526 1.896 131.993 2.024C131.481 2.13066 130.915 2.32266 130.297 2.6L132.089 1.768L131.385 4.904C131.235 5.62933 130.969 6.13067 130.585 6.408C130.201 6.68533 129.753 6.824 129.241 6.824C128.899 6.824 128.59 6.74933 128.313 6.6C128.035 6.42933 127.822 6.19467 127.673 5.896C127.758 4.70133 128.131 3.73067 128.793 2.984C129.454 2.216 130.297 1.66133 131.321 1.32C132.366 0.957333 133.497 0.775999 134.713 0.775999C137.081 0.775999 138.851 1.30933 140.025 2.376C141.219 3.42133 141.817 4.776 141.817 6.44C141.817 7.50667 141.55 8.488 141.017 9.384C140.505 10.28 139.694 11.0267 138.585 11.624C137.475 12.2213 136.003 12.6053 134.169 12.776V12.328C136.195 12.4347 137.817 12.776 139.033 13.352C140.27 13.928 141.166 14.696 141.721 15.656C142.275 16.616 142.553 17.7147 142.553 18.952C142.553 20.2533 142.201 21.4053 141.497 22.408C140.814 23.3893 139.843 24.1573 138.585 24.712C137.326 25.2453 135.843 25.512 134.137 25.512Z" fill="#643C28"/>
</svg>
